<svg version="1.2" xmlns="http://www.w3.org/2000/svg" viewBox="0 0 1200 237" width="1200" height="237"><style>.a{fill:#d5ee84}.b{fill:#183225}.c{fill:#fefce7}</style><path fill-rule="evenodd" class="a" d="m45.8 0h148.3c24.6 0 44.5 19.9 44.5 44.4v148.2c0 24.5-19.9 44.4-44.5 44.4h-148.3c-24.6 0-44.5-19.9-44.5-44.4v-148.2c0-24.5 19.9-44.4 44.5-44.4z"/><path class="b" d="m119.9 64.9l51.6 47.1 15.2-13.9-66.8-61.1-66.7 61.1 15.2 13.9 51.5-47.2z"/><path class="b" d="m53.2 145.8l15.2 13.9 40.8-37.3v81.3h21.5v-81.1l40.8 37.2 15.2-13.9-66.8-61.1c0 0-66.7 61.1-66.7 61z"/><path class="c" d="m1195.9 126.7v46.4h-15.4v-42.7c0-3.3-0.8-6.3-2.5-9-1.5-2.7-3.7-4.9-6.4-6.5-2.7-1.6-5.7-2.4-9.1-2.4-3.3 0-6.2 0.8-8.9 2.4-2.7 1.6-4.9 3.8-6.5 6.5-1.7 2.7-2.5 5.7-2.5 9v42.7h-15.4v-74.1h15.4v7.8c2.6-3 5.8-5.4 9.5-7.2 3.8-1.8 7.8-2.6 12.2-2.6 5.5 0 10.5 1.3 15 4 4.5 2.6 8 6.2 10.7 10.7 2.6 4.5 4 9.5 3.9 15z"/><path class="c" d="m1095.1 99h15.4v74.1h-15.4zm7.8-10.8c-2.3 0-4.3-0.7-5.9-2.3-1.6-1.5-2.4-3.4-2.4-5.8 0-2.3 0.8-4.1 2.4-5.7 1.6-1.6 3.6-2.3 5.9-2.3 2.3 0 4.2 0.7 5.8 2.3q2.4 2.3 2.4 5.7c0 2.4-0.8 4.3-2.4 5.8-1.5 1.6-3.4 2.3-5.8 2.3z"/><path class="c" d="m961.8 173.1v-74.1h15.4v7.8c2.6-3 5.7-5.4 9.4-7.2 3.8-1.8 7.8-2.6 12.2-2.6 5.3 0 10.2 1.2 14.7 3.9 4.5 2.5 8 5.8 10.6 10q3.9-6.3 10.5-10c4.4-2.6 9.2-3.9 14.5-3.9 5.4 0 10.5 1.3 15 4 4.5 2.6 8.1 6.2 10.8 10.7 2.6 4.5 4 9.5 4 15v46.4h-15.4v-42.6c0-3.2-0.8-6.2-2.4-8.9-1.6-2.7-3.7-4.9-6.4-6.6-2.7-1.7-5.6-2.5-8.9-2.5q-5 0-8.9 2.4c-2.7 1.6-4.8 3.7-6.4 6.4q-2.4 4.1-2.4 9.3v42.5h-15.4v-42.5q0-5.1-2.4-9.3c-1.6-2.7-3.8-4.8-6.5-6.4q-3.9-2.4-8.9-2.4c-3.3 0-6.2 0.9-8.9 2.5-2.6 1.7-4.8 3.9-6.4 6.6-1.5 2.7-2.3 5.7-2.3 8.9v42.6h-15.5z"/><path class="c" d="m927.1 62h15.4v111.1h-15.4v-10.8c-2.4 3.8-5.6 7-9.5 9.3-3.9 2.3-8.5 3.5-13.7 3.5-5.2 0-10.4-1-15.1-3-4.7-2.1-8.8-4.8-12.5-8.4-3.5-3.6-6.3-7.7-8.3-12.4-2.1-4.7-3.1-9.8-3.1-15.2 0-5.4 1-10.4 3.1-15.1 2-4.7 4.8-8.9 8.3-12.4 3.7-3.7 7.8-6.5 12.5-8.5 4.7-2 9.7-3 15.1-3 5.3 0 9.8 1.2 13.7 3.6 3.9 2.3 7.1 5.4 9.5 9.2 0 0 0-47.8 0-47.9zm-23.1 98.1c4.4 0 8.2-1 11.4-3.2 3.3-2.1 5.8-5 7.6-8.7 1.9-3.6 2.8-7.7 2.8-12.1 0-4.4-0.9-8.6-2.8-12.3-1.8-3.7-4.3-6.5-7.6-8.7-3.3-2.1-7-3.2-11.4-3.2-4.3 0-8.2 1.1-11.8 3.2-3.5 2.2-6.3 5.1-8.4 8.8-2.1 3.7-3.1 7.7-3.1 12.1 0 4.4 1 8.6 3.1 12.3q3.3 5.4 8.6 8.6 5.3 3.2 11.6 3.2z"/><path class="c" d="m804.5 69.4h18l37.8 103.7h-16.3l-7.2-19.7h-46.4l-7.2 19.7h-16.4l37.8-103.7zm-8.5 68.6h35.1l-17.6-48.1c0 0-17.6 48.1-17.5 48.1z"/><path class="c" d="m717.9 114.4h-15.6v58.7h-15.5v-58.7h-11.7v-15.4h11.8v-23.2h15.4v23.2h15.6z"/><path class="c" d="m635.3 174.5c-3.9-0.3-7.7-1.1-11.4-2.4-3.7-1.3-7-3.2-9.9-5.4-2.7-2.3-4.8-5-6.2-8.2l13.2-5.6q1 2 3.3 4c1.7 1.2 3.6 2.4 5.8 3.1 2.1 0.8 4.4 1.2 6.8 1.2 2.4 0 4.5-0.3 6.5-1 2-0.6 3.7-1.7 4.9-3.1 1.3-1.3 1.9-3 1.9-4.9 0-2.2-0.7-3.8-2.2-5-1.5-1.2-3.2-2.2-5.4-2.8-2.2-0.7-4.4-1.3-6.5-1.9-4.9-1.1-9.3-2.5-13.4-4.4-4-2-7.2-4.4-9.6-7.4q-3.5-4.5-3.5-11c0-4.8 1.2-8.8 3.8-12.3q3.8-5.3 10.1-8.1c4.2-1.9 8.7-2.9 13.4-2.9 6 0 11.4 1.3 16.3 3.8 5 2.5 8.7 6 11.3 10.4l-12.2 7.2c-0.7-1.5-1.9-2.8-3.4-4-1.4-1.2-3.1-2.1-5-2.8-1.8-0.7-3.8-1.2-5.9-1.3-2.5 0-4.8 0.2-7 1-2.1 0.6-3.8 1.6-5.2 3.1-1.3 1.4-1.9 3.3-1.9 5.4 0 2.2 0.8 3.8 2.3 4.9 1.6 1 3.5 1.8 5.8 2.5 2.4 0.7 4.9 1.4 7.3 2.2 4.4 1.4 8.5 3.1 12.4 5.1 3.8 2 7 4.4 9.4 7.3 2.3 2.9 3.4 6.5 3.4 10.7 0 4.7-1.4 8.7-4.2 12.2-2.8 3.5-6.4 6.2-10.8 8.1-4.5 1.8-9.2 2.5-14.2 2.3z"/><path class="c" d="m562.4 175c-6.8 0-13.1-1.8-18.7-5.3-5.6-3.5-10.1-8.1-13.5-14.1-3.3-5.9-4.9-12.4-4.9-19.6 0-5.5 1-10.5 2.9-15.2q2.9-7.1 7.9-12.4c3.4-3.7 7.4-6.4 11.9-8.5 4.5-2 9.3-3 14.4-3q8.5 0 15.6 3.6c4.7 2.3 8.7 5.5 12.2 9.6 3.3 4.1 5.8 8.9 7.4 14.3 1.5 5.3 2 11 1.3 17h-57.1c0.6 3.4 1.8 6.5 3.7 9.3 1.8 2.7 4.2 4.9 7.1 6.4 2.9 1.6 6.1 2.4 9.7 2.5 3.7 0 7.2-0.9 10.2-2.9 3.1-1.8 5.7-4.4 7.7-7.7l15.6 3.6c-3 6.6-7.5 12-13.5 16.1-6 4.2-12.6 6.2-20.1 6.2zm-21.1-45.3h42.2c-0.5-3.5-1.8-6.8-3.8-9.6q-3-4.3-7.5-6.9c-3-1.7-6.2-2.6-9.8-2.6-3.7 0-6.8 0.9-9.9 2.5-2.9 1.7-5.4 4-7.4 6.9-1.9 2.9-3.2 6.2-3.8 9.7z"/><path class="c" d="m477.8 173.1v-74.1h15.5v7.8c2.5-3 5.7-5.4 9.4-7.2 3.8-1.8 7.8-2.6 12.2-2.6 2.8 0 5.6 0.4 8.3 1.1l-6.1 15.5c-2-0.7-3.9-1.1-5.8-1.1-3.3 0-6.3 0.8-9 2.4-2.7 1.6-4.9 3.8-6.5 6.5-1.7 2.7-2.5 5.7-2.5 9v42.7c0 0-15.4 0-15.5 0z"/><path class="c" d="m427.3 175c-6.8 0-13.1-1.8-18.7-5.3-5.6-3.5-10.1-8.1-13.5-14.1-3.3-5.9-4.9-12.4-4.9-19.6 0-5.5 1-10.5 2.9-15.2q2.9-7.1 7.9-12.4c3.4-3.7 7.4-6.4 11.9-8.5 4.5-2 9.3-3 14.4-3 6.8 0 13 1.8 18.5 5.3 5.7 3.5 10.1 8.2 13.5 14.1 3.4 6 5 12.5 5 19.7 0 5.4-1 10.4-2.9 15.2-1.9 4.6-4.6 8.8-8 12.4-3.4 3.6-7.4 6.3-11.8 8.4-4.5 2-9.3 3-14.4 3zm0-15.4c4.1 0 7.8-1.1 11.1-3.3 3.3-2.2 5.8-5 7.7-8.6 1.9-3.6 2.9-7.5 2.9-11.7 0-4.2-1-8.2-3-11.8-1.9-3.7-4.5-6.5-7.8-8.7-3.3-2.1-6.9-3.2-10.8-3.2-4 0-7.8 1.1-11.1 3.2-3.3 2.2-5.9 5.1-7.8 8.7-1.9 3.6-2.8 7.5-2.8 11.8 0 4.3 0.9 8.4 2.9 11.9 2 3.6 4.6 6.4 7.9 8.5 3.3 2.1 6.9 3.1 10.8 3.1z"/><path class="c" d="m327.6 173.1v-103.7h61.2v15.4h-45.7v25h38.6v15.4h-38.6v47.9z"/></svg>