<?xml version="1.0" encoding="UTF-8"?>
<svg id="Calque_1" data-name="Calque 1" xmlns="http://www.w3.org/2000/svg" viewBox="0 0 182 36">
  <defs>
    <style>
      .cls-1 {
        fill: #183225;
      }

      .cls-1, .cls-2, .cls-3 {
        stroke-width: 0px;
      }

      .cls-2 {
        fill: #d5ee84;
      }

      .cls-3 {
        fill: #0f1b15;
      }
    </style>
  </defs>
  <g id="Light">
    <g id="Isotype">
      <rect class="cls-2" x=".19" width="36" height="36" rx="6.75" ry="6.75"/>
      <path class="cls-1" d="M18.19,9.86l7.82,7.16,2.31-2.12-10.13-9.28-10.12,9.28,2.31,2.11,7.81-7.16Z"/>
      <path class="cls-1" d="M8.07,22.15l2.31,2.11,6.18-5.66v12.34h3.27v-12.32l6.18,5.65,2.31-2.11-10.13-9.28-10.12,9.28Z"/>
    </g>
    <g id="Forest_Admin_light_" data-name="Forest Admin (light)">
      <path class="cls-3" d="M181.38,19.24v7.05h-2.34v-6.48c0-.5-.12-.96-.37-1.37-.24-.41-.57-.74-.98-.98-.4-.25-.86-.37-1.37-.37s-.95.12-1.36.37c-.41.24-.74.57-.99.98-.25.41-.37.87-.37,1.37v6.48h-2.34v-11.25h2.34v1.19c.39-.47.87-.83,1.44-1.1.57-.27,1.18-.4,1.85-.4.83,0,1.59.2,2.27.61.68.4,1.22.95,1.62,1.63.4.68.61,1.44.61,2.27Z"/>
      <path class="cls-3" d="M166.09,15.04h2.34v11.25h-2.34v-11.25ZM167.28,13.41c-.36,0-.66-.12-.9-.35-.24-.23-.36-.53-.36-.88s.12-.63.36-.87c.24-.24.54-.36.89-.36s.64.12.88.36c.24.23.36.52.36.87s-.12.65-.36.88c-.23.23-.52.35-.87.35Z"/>
      <path class="cls-3" d="M145.87,26.29v-11.25h2.34v1.19c.39-.47.87-.83,1.43-1.1.57-.27,1.18-.4,1.85-.4.8,0,1.54.19,2.22.59.68.38,1.21.89,1.61,1.53.4-.64.93-1.15,1.59-1.53.67-.39,1.4-.59,2.21-.59s1.59.2,2.27.61c.68.4,1.23.95,1.63,1.63.4.68.61,1.44.61,2.27v7.05h-2.34v-6.46c0-.5-.12-.95-.36-1.36-.24-.41-.56-.75-.97-1-.4-.26-.85-.38-1.35-.38s-.95.12-1.35.36-.73.57-.97.98-.36.88-.36,1.41v6.46h-2.34v-6.46c0-.52-.12-.99-.36-1.41-.24-.41-.57-.74-.98-.98-.4-.24-.85-.36-1.35-.36s-.94.13-1.35.38c-.4.25-.73.59-.97,1-.24.41-.36.87-.36,1.36v6.46h-2.34Z"/>
      <path class="cls-3" d="M140.61,9.42h2.34v16.88h-2.34v-1.65c-.37.58-.85,1.06-1.44,1.42-.59.35-1.29.53-2.08.53s-1.58-.15-2.29-.46c-.71-.31-1.34-.73-1.89-1.27-.54-.55-.96-1.18-1.27-1.89-.31-.71-.46-1.48-.46-2.3s.15-1.58.46-2.3c.31-.72.73-1.35,1.27-1.89.55-.55,1.18-.98,1.89-1.28.71-.31,1.48-.46,2.29-.46s1.49.18,2.08.54c.59.35,1.07.82,1.44,1.4v-7.26ZM137.11,24.32c.66,0,1.24-.16,1.73-.48.49-.33.88-.77,1.15-1.33.28-.55.42-1.17.42-1.84s-.14-1.3-.42-1.86c-.28-.56-.66-.99-1.16-1.32-.49-.33-1.06-.49-1.72-.49s-1.25.16-1.79.49c-.53.33-.96.77-1.28,1.33-.31.56-.47,1.17-.47,1.84s.16,1.3.48,1.86c.33.55.76.99,1.29,1.32.54.32,1.13.48,1.77.48Z"/>
      <path class="cls-3" d="M122.02,10.54h2.73l5.73,15.75h-2.47l-1.09-2.99h-7.05l-1.08,2.99h-2.49l5.73-15.75ZM120.73,20.96h5.32l-2.67-7.31-2.66,7.31Z"/>
      <path class="cls-3" d="M108.88,17.38h-2.36v8.91h-2.35v-8.91s-1.78,0-1.78,0v-2.34h1.79v-3.53s2.33,0,2.33,0v3.53h2.37v2.34Z"/>
      <path class="cls-3" d="M96.35,26.5c-.59-.04-1.17-.16-1.73-.36-.56-.2-1.06-.48-1.49-.82-.42-.35-.74-.76-.94-1.24l1.99-.85c.1.2.27.4.51.6.25.19.54.36.87.48.33.12.68.18,1.04.18s.68-.05.98-.15c.31-.1.56-.26.75-.47.19-.21.29-.46.29-.75,0-.33-.11-.58-.34-.76-.22-.19-.49-.33-.82-.43-.33-.1-.66-.19-.99-.28-.74-.17-1.41-.39-2.03-.68-.61-.29-1.09-.66-1.45-1.11-.36-.46-.54-1.02-.54-1.68,0-.72.19-1.34.58-1.87.39-.53.9-.94,1.53-1.23.64-.28,1.32-.43,2.04-.43.9,0,1.72.19,2.47.57s1.32.91,1.72,1.58l-1.86,1.1c-.11-.23-.28-.43-.51-.61-.22-.18-.48-.32-.76-.43-.28-.11-.58-.18-.89-.19-.38-.01-.74.03-1.07.14-.32.1-.58.25-.78.47s-.29.5-.29.83.12.58.35.74c.23.16.53.28.88.38.36.1.73.21,1.1.33.67.21,1.29.47,1.88.78.58.3,1.06.67,1.42,1.11.36.44.53.98.52,1.62,0,.71-.21,1.32-.64,1.86-.42.53-.97.94-1.64,1.22-.68.28-1.39.39-2.15.35Z"/>
      <path class="cls-3" d="M85.29,26.58c-1.03,0-1.98-.27-2.83-.8-.85-.53-1.53-1.24-2.04-2.14-.5-.9-.75-1.89-.75-2.98,0-.83.15-1.59.44-2.31.29-.72.69-1.35,1.2-1.89.52-.55,1.12-.97,1.8-1.28.68-.31,1.41-.46,2.18-.46.86,0,1.65.18,2.37.54.72.35,1.33.84,1.85,1.47.51.62.88,1.34,1.12,2.16.24.81.31,1.67.21,2.59h-8.67c.1.52.28.99.56,1.41.28.41.64.74,1.08.98.44.24.93.36,1.47.37.57,0,1.09-.14,1.55-.43.47-.28.86-.68,1.16-1.18l2.37.55c-.45,1-1.13,1.82-2.04,2.45-.91.63-1.92.94-3.05.94ZM82.09,19.7h6.39c-.07-.54-.27-1.03-.57-1.46-.3-.44-.68-.79-1.14-1.05-.45-.26-.94-.39-1.49-.39s-1.03.13-1.49.38c-.45.26-.82.6-1.12,1.05-.29.43-.49.93-.58,1.47Z"/>
      <path class="cls-3" d="M72.47,26.29v-11.25h2.34v1.19c.39-.47.87-.83,1.44-1.1.57-.27,1.18-.4,1.85-.4.42,0,.84.06,1.25.17l-.93,2.36c-.29-.11-.58-.17-.88-.17-.5,0-.95.12-1.36.37-.41.24-.74.57-.99.98s-.37.87-.37,1.37v6.48h-2.34Z"/>
      <path class="cls-3" d="M64.8,26.58c-1.03,0-1.98-.27-2.83-.8-.85-.53-1.53-1.24-2.04-2.14-.5-.9-.75-1.89-.75-2.98,0-.83.15-1.59.44-2.31.29-.72.69-1.35,1.2-1.89.52-.55,1.12-.97,1.8-1.28.68-.31,1.41-.46,2.18-.46,1.04,0,1.98.27,2.82.8.86.53,1.53,1.25,2.04,2.15.51.9.76,1.9.76,2.99,0,.82-.15,1.58-.44,2.3-.29.71-.7,1.34-1.22,1.89-.51.54-1.11.96-1.79,1.27-.68.31-1.4.46-2.18.46ZM64.8,24.24c.62,0,1.18-.17,1.68-.5s.89-.76,1.17-1.3c.29-.55.44-1.14.44-1.78s-.15-1.25-.45-1.8c-.29-.55-.69-.98-1.18-1.31-.5-.33-1.05-.49-1.65-.49s-1.17.16-1.68.49c-.49.33-.89.77-1.18,1.32-.29.55-.43,1.14-.43,1.79s.15,1.27.45,1.81c.3.54.7.97,1.19,1.29.5.32,1.05.47,1.64.47Z"/>
      <path class="cls-3" d="M49.69,26.29v-15.75h9.28v2.34h-6.94v3.8h5.86v2.34h-5.86v7.27h-2.34Z"/>
    </g>
  </g>
</svg>