<svg width="817" height="200" viewBox="0 0 817 200" fill="none" xmlns="http://www.w3.org/2000/svg">
<path d="M766.227 152.857V65.1925H736.655V47.7798H816.213V65.1925H786.642V152.857H766.227Z" fill="#262D1E"/>
<path d="M687.76 154.043C680.455 154.043 673.8 152.792 667.795 150.29C661.791 147.688 656.687 143.936 652.484 139.032C648.381 134.128 645.529 128.224 643.928 121.319L662.391 115.915C663.893 122.42 666.945 127.524 671.548 131.226C676.152 134.829 681.555 136.63 687.76 136.63C692.563 136.63 696.667 135.529 700.069 133.328C703.471 131.126 705.173 127.674 705.173 122.97C705.173 119.968 704.122 117.566 702.02 115.765C700.019 113.864 697.367 112.312 694.065 111.112C690.762 109.911 687.11 108.76 683.107 107.659C679.104 106.558 675.101 105.307 671.098 103.906C667.095 102.505 663.442 100.704 660.14 98.5024C656.837 96.2007 654.135 93.2986 652.034 89.796C650.032 86.1934 649.032 81.6901 649.032 76.2862C649.032 70.2818 650.683 65.078 653.985 60.6748C657.288 56.1715 661.691 52.7189 667.195 50.3172C672.699 47.8154 678.753 46.5645 685.358 46.5645C691.863 46.5645 697.817 47.6653 703.221 49.8669C708.725 52.0685 713.329 55.1707 717.031 59.1737C720.834 63.0765 723.436 67.7299 724.837 73.1339L706.824 80.189C705.323 74.8851 702.671 70.8822 698.868 68.1802C695.065 65.3782 690.512 63.9772 685.208 63.9772C680.405 63.9772 676.552 65.0279 673.65 67.1295C670.848 69.1309 669.447 71.883 669.447 75.3855C669.447 78.0875 670.447 80.2891 672.449 81.9903C674.55 83.5915 677.252 84.9425 680.555 86.0433C683.857 87.044 687.51 88.0448 691.513 89.0455C695.516 89.9461 699.519 91.147 703.521 92.6481C707.524 94.0491 711.177 95.9005 714.48 98.2022C717.782 100.504 720.434 103.556 722.435 107.359C724.537 111.162 725.588 115.915 725.588 121.619C725.588 128.524 723.886 134.429 720.484 139.332C717.181 144.136 712.678 147.788 706.974 150.29C701.27 152.792 694.865 154.043 687.76 154.043Z" fill="#262D1E"/>
<path d="M559.11 152.857V47.7798H630.262V65.1925H579.675V89.5103H620.655V106.923H579.675V135.444H630.863V152.857H559.11Z" fill="#262D1E"/>
<path d="M462.983 152.857V47.7798H502.913C509.517 47.7798 515.272 49.0807 520.175 51.6826C525.179 54.1845 529.082 57.7871 531.884 62.4905C534.686 67.0939 536.087 72.4978 536.087 78.7024C536.087 84.7068 534.486 90.2108 531.283 95.2144C528.181 100.118 523.878 103.871 518.374 106.473L543.592 152.857H520.475L498.559 109.775H483.398V152.857H462.983ZM483.398 92.3624H499.31C504.314 92.3624 508.266 91.1114 511.169 88.6096C514.171 86.0077 515.672 82.7053 515.672 78.7024C515.672 74.5994 514.171 71.347 511.169 68.9453C508.266 66.4434 504.314 65.1925 499.31 65.1925H483.398V92.3624Z" fill="#262D1E"/>
<path d="M400.415 154.043C391.308 154.043 383.302 151.841 376.397 147.438C369.592 142.935 364.238 136.68 360.336 128.674C356.533 120.569 354.631 111.112 354.631 100.304C354.631 89.4958 356.533 80.0889 360.336 72.0831C364.238 63.9772 369.592 57.7226 376.397 53.3194C383.302 48.8161 391.308 46.5645 400.415 46.5645C409.521 46.5645 417.477 48.8161 424.282 53.3194C431.187 57.7226 436.541 63.9772 440.344 72.0831C444.247 80.0889 446.198 89.4958 446.198 100.304C446.198 111.112 444.247 120.569 440.344 128.674C436.541 136.68 431.187 142.935 424.282 147.438C417.477 151.841 409.521 154.043 400.415 154.043ZM400.415 136.63C405.519 136.63 409.922 135.129 413.624 132.127C417.427 129.025 420.379 124.772 422.481 119.368C424.582 113.864 425.633 107.509 425.633 100.304C425.633 92.9984 424.582 86.6437 422.481 81.2398C420.379 75.8358 417.427 71.6328 413.624 68.6306C409.922 65.5283 405.519 63.9772 400.415 63.9772C395.411 63.9772 390.958 65.5283 387.055 68.6306C383.252 71.6328 380.3 75.8358 378.199 81.2398C376.097 86.6437 375.046 92.9984 375.046 100.304C375.046 107.509 376.097 113.864 378.199 119.368C380.3 124.772 383.252 129.025 387.055 132.127C390.958 135.129 395.411 136.63 400.415 136.63Z" fill="#262D1E"/>
<path d="M272.632 152.857V47.7798H343.934V65.1925H293.047V89.5103H334.177V106.923H293.047V152.857H272.632Z" fill="#262D1E"/>
<path d="M0.00732422 0V200H90.3258V120.217L51.3576 159.185L37.6634 145.49L100.02 83.1338L162.377 145.49L148.682 159.185L109.714 120.217V200H200.033V0H0.00732422ZM148.67 105.35L100.007 56.6879L51.3449 105.35L37.6506 91.6561L100.007 29.2994L162.364 91.6561L148.67 105.35Z" fill="#3F5B1E"/>
</svg>
