<svg width="980" height="280" viewBox="0 0 980 280" fill="none" xmlns="http://www.w3.org/2000/svg" font-family="Inter, system-ui, -apple-system, sans-serif">
  <defs>
    <pattern id="dots" width="22" height="22" patternUnits="userSpaceOnUse"><circle cx="2" cy="2" r="1.4" fill="#d4d2c6"/></pattern>
    <marker id="sq" markerWidth="8" markerHeight="8" refX="4" refY="4" orient="0" markerUnits="userSpaceOnUse"><rect x="0.5" y="0.5" width="7" height="7" fill="#f6f5ee" stroke="#bcbcb4" stroke-width="1"/></marker>
  </defs>
  <rect width="980" height="280" rx="4" fill="#f6f5ee"/>
  <rect width="980" height="280" rx="4" fill="url(#dots)"/>

  <rect x="40" y="50" width="360" height="200" rx="2" fill="#ece9e0"/>
  <text x="54" y="74" font-size="11" font-weight="600" letter-spacing="1.5" fill="#686c62">DEVELOPMENT</text>
  <rect x="560" y="50" width="380" height="200" rx="2" fill="#ece9e0"/>
  <text x="574" y="74" font-size="11" font-weight="600" letter-spacing="1.5" fill="#686c62">PRODUCTION</text>

  <g stroke="#686c62" stroke-opacity="0.7" stroke-width="1.5" fill="none">
    <path d="M145 152 V172" marker-end="url(#sq)"/>
    <path d="M220 197 H590" marker-end="url(#sq)"/>
    <path d="M220 122 H590" stroke-dasharray="4 4" marker-end="url(#sq)"/>
  </g>
  <g font-size="11.5" fill="#686c62" text-anchor="middle">
    <text x="180" y="167" text-anchor="start">forest branch</text>
    <text x="405" y="190">push → review → deploy</text>
    <text x="405" y="116" font-style="italic">code deploy</text>
  </g>

  <rect x="70" y="92" width="150" height="60" rx="2" fill="#3f5b1e"/>
  <text x="145" y="127" text-anchor="middle" font-size="13" font-weight="700" fill="#f6f5ee">Local back-end</text>
  <rect x="70" y="172" width="150" height="50" rx="2" fill="#ffffff"/>
  <text x="145" y="202" text-anchor="middle" font-size="13" font-weight="600" fill="#262d1e">Layout branch</text>

  <rect x="590" y="92" width="170" height="60" rx="2" fill="#262d1e"/>
  <text x="675" y="127" text-anchor="middle" font-size="13" font-weight="700" fill="#e3f68b">Back-end (your infra)</text>
  <rect x="590" y="172" width="170" height="50" rx="2" fill="#ffffff"/>
  <text x="675" y="202" text-anchor="middle" font-size="13" font-weight="600" fill="#262d1e">Live back-office</text>
</svg>
