<svg width="840" height="360" viewBox="0 0 840 360" fill="none" xmlns="http://www.w3.org/2000/svg" font-family="Inter, system-ui, -apple-system, sans-serif">
  <defs>
    <pattern id="dots" width="22" height="22" patternUnits="userSpaceOnUse"><circle cx="2" cy="2" r="1.4" fill="#d4d2c6"/></pattern>
    <marker id="arr" markerWidth="9" markerHeight="9" refX="7" refY="3" orient="auto" markerUnits="userSpaceOnUse"><path d="M0 0L7 3L0 6Z" fill="#686c62"/></marker>
  </defs>
  <rect width="840" height="360" rx="4" fill="#f6f5ee"/>
  <rect width="840" height="360" rx="4" fill="url(#dots)"/>

  <g stroke="#686c62" stroke-opacity="0.4" stroke-width="1.5" stroke-dasharray="3 4">
    <line x1="140" y1="64" x2="140" y2="346"/>
    <line x1="420" y1="64" x2="420" y2="346"/>
    <line x1="700" y1="64" x2="700" y2="346"/>
  </g>

  <rect x="70" y="20" width="140" height="44" rx="2" fill="#ffffff"/>
  <text x="140" y="47" text-anchor="middle" font-size="13" font-weight="600" fill="#262d1e">User</text>
  <rect x="350" y="20" width="140" height="44" rx="2" fill="#3f5b1e"/>
  <text x="420" y="47" text-anchor="middle" font-size="13" font-weight="700" fill="#f6f5ee">Forest</text>
  <rect x="630" y="20" width="140" height="44" rx="2" fill="#ffffff"/>
  <text x="700" y="47" text-anchor="middle" font-size="13" font-weight="600" fill="#262d1e">Identity provider</text>

  <g stroke="#686c62" stroke-opacity="0.8" stroke-width="1.5" fill="none">
    <line x1="140" y1="104" x2="420" y2="104" marker-end="url(#arr)"/>
    <line x1="420" y1="144" x2="700" y2="144" marker-end="url(#arr)"/>
    <line x1="140" y1="184" x2="700" y2="184" marker-end="url(#arr)"/>
    <line x1="700" y1="224" x2="420" y2="224" stroke-dasharray="4 4" marker-end="url(#arr)"/>
    <path d="M420 256 H478 V274 H422" marker-end="url(#arr)"/>
    <line x1="420" y1="306" x2="140" y2="306" stroke-dasharray="4 4" marker-end="url(#arr)"/>
  </g>
  <g font-size="12.5" fill="#262d1e" text-anchor="middle">
    <text x="280" y="98">Login with SSO + org name</text>
    <text x="560" y="138">SAML auth request</text>
    <text x="420" y="178">authenticate (MFA if required)</text>
    <text x="560" y="218" fill="#686c62">signed SAML assertion</text>
    <text x="512" y="252" text-anchor="start" fill="#262d1e">validate, open session</text>
    <text x="280" y="300" fill="#686c62">access granted</text>
  </g>
</svg>
