<svg width="720" height="290" viewBox="0 0 720 290" fill="none" xmlns="http://www.w3.org/2000/svg" font-family="Matter, Inter, system-ui, sans-serif">
  <defs>
    <pattern id="dots" width="22" height="22" patternUnits="userSpaceOnUse"><circle cx="2" cy="2" r="1.4" fill="#d4d2c6"/></pattern>
    <marker id="sq" markerWidth="9" markerHeight="9" refX="7.5" refY="4" orient="auto" markerUnits="userSpaceOnUse"><path d="M1 1 L7.5 4 L1 7 Z" fill="#686c62"/></marker>
  </defs>
  <rect width="720" height="290" rx="4" fill="#f6f5ee"/>
  <rect width="720" height="290" rx="4" fill="url(#dots)"/>

  
  <g stroke="#686c62" stroke-opacity="0.7" stroke-width="1.5" fill="none">
    <path d="M54 141 H80" marker-end="url(#sq)"/>
    <path d="M210 141 H270" marker-end="url(#sq)"/>
    <path d="M400 141 H460" marker-end="url(#sq)"/>
    <path d="M600 141 H650" marker-end="url(#sq)"/>
    <path d="M145 167 V215" stroke-dasharray="4 4" marker-end="url(#sq)"/>
  </g>
  
  
    <path d="M218.21 133.09Q217.26 133.09 216.71 132.63Q216.17 132.16 216.17 131.44Q216.17 130.56 216.80 130.10Q217.43 129.64 218.81 129.50L220.05 129.38L220.05 129.17Q220.05 128.60 219.67 128.27Q219.28 127.95 218.65 127.95Q218.05 127.95 217.67 128.26Q217.29 128.56 217.20 129.17L216.27 129.01Q216.41 128.18 217.03 127.65Q217.66 127.11 218.65 127.11Q219.35 127.11 219.89 127.37Q220.42 127.63 220.73 128.11Q221.04 128.60 221.04 129.27L221.04 133L220.05 133L220.05 132.03Q219.94 132.31 219.66 132.55Q219.39 132.79 219.01 132.94Q218.63 133.09 218.21 133.09M220.05 130.41L220.05 130.14L218.87 130.27Q217.96 130.38 217.56 130.63Q217.16 130.87 217.16 131.40Q217.16 131.83 217.47 132.06Q217.78 132.30 218.29 132.30Q218.81 132.30 219.21 132.04Q219.60 131.78 219.83 131.35Q220.05 130.92 220.05 130.41M223.50 135.09L222.51 135.09L222.51 127.20L223.50 127.20L223.50 128.15Q223.77 127.68 224.31 127.39Q224.86 127.11 225.50 127.11Q226.38 127.11 227.02 127.49Q227.67 127.86 228.03 128.53Q228.39 129.21 228.39 130.10Q228.39 131 228.03 131.67Q227.67 132.34 227.02 132.72Q226.38 133.09 225.50 133.09Q224.87 133.09 224.32 132.80Q223.77 132.52 223.50 132.05L223.50 135.09M225.45 132.24Q226.01 132.24 226.45 131.97Q226.88 131.70 227.14 131.22Q227.39 130.73 227.39 130.10Q227.39 129.47 227.14 128.99Q226.88 128.50 226.45 128.23Q226.01 127.96 225.45 127.96Q224.88 127.96 224.44 128.23Q224 128.50 223.75 128.99Q223.50 129.47 223.50 130.10Q223.50 130.72 223.75 131.21Q224 131.69 224.44 131.97Q224.88 132.24 225.45 132.24M230.59 135.09L229.60 135.09L229.60 127.20L230.59 127.20L230.59 128.15Q230.85 127.68 231.40 127.39Q231.94 127.11 232.59 127.11Q233.46 127.11 234.11 127.49Q234.75 127.86 235.11 128.53Q235.47 129.21 235.47 130.10Q235.47 131 235.11 131.67Q234.75 132.34 234.11 132.72Q233.46 133.09 232.59 133.09Q231.96 133.09 231.40 132.80Q230.85 132.52 230.59 132.05L230.59 135.09M232.53 132.24Q233.09 132.24 233.53 131.97Q233.97 131.70 234.22 131.22Q234.47 130.73 234.47 130.10Q234.47 129.47 234.22 128.99Q233.97 128.50 233.53 128.23Q233.09 127.96 232.53 127.96Q231.97 127.96 231.52 128.23Q231.08 128.50 230.83 128.99Q230.59 129.47 230.59 130.10Q230.59 130.72 230.83 131.21Q231.08 131.69 231.52 131.97Q231.97 132.24 232.53 132.24M237.66 133L236.68 133L236.68 127.20L237.66 127.20L237.66 128.23Q237.92 127.68 238.41 127.39Q238.90 127.11 239.47 127.11Q239.65 127.11 239.84 127.14Q240.04 127.17 240.18 127.24L240.11 128.17Q239.91 128.08 239.73 128.06Q239.55 128.04 239.36 128.04Q238.64 128.04 238.15 128.72Q237.66 129.40 237.66 130.68L237.66 133M243.61 133.09Q242.75 133.09 242.09 132.71Q241.43 132.32 241.05 131.65Q240.67 130.98 240.67 130.10Q240.67 129.23 241.05 128.56Q241.43 127.88 242.09 127.50Q242.75 127.11 243.61 127.11Q244.46 127.11 245.12 127.50Q245.78 127.88 246.16 128.56Q246.54 129.23 246.54 130.10Q246.54 130.98 246.16 131.65Q245.78 132.32 245.12 132.71Q244.46 133.09 243.61 133.09M243.61 132.23Q244.17 132.23 244.61 131.96Q245.04 131.69 245.29 131.21Q245.54 130.72 245.54 130.10Q245.54 129.47 245.29 128.99Q245.04 128.50 244.61 128.23Q244.17 127.96 243.61 127.96Q243.04 127.96 242.60 128.23Q242.17 128.50 241.92 128.99Q241.67 129.47 241.67 130.10Q241.67 130.72 241.92 131.21Q242.17 131.69 242.60 131.96Q243.04 132.23 243.61 132.23M250.32 133L249.34 133L247.07 127.20L248.14 127.20L249.85 131.74L251.57 127.20L252.60 127.20L250.32 133M256 133.09Q255.15 133.09 254.50 132.71Q253.85 132.32 253.49 131.65Q253.13 130.98 253.13 130.10Q253.13 129.23 253.50 128.56Q253.86 127.88 254.50 127.50Q255.14 127.11 255.97 127.11Q256.85 127.11 257.49 127.53Q258.12 127.95 258.43 128.65Q258.74 129.35 258.62 130.23L254.13 130.23Q254.17 131.13 254.68 131.68Q255.19 132.24 256 132.24Q256.62 132.24 257.09 131.91Q257.57 131.57 257.68 131.10L258.58 131.33Q258.38 132.11 257.68 132.60Q256.98 133.09 256 133.09M254.20 129.45L257.62 129.45Q257.61 128.76 257.15 128.35Q256.69 127.95 255.97 127.95Q255.29 127.95 254.82 128.35Q254.35 128.75 254.20 129.45M261.75 133.09Q260.77 133.09 260.15 132.60Q259.53 132.11 259.35 131.38L260.25 131.09Q260.37 131.65 260.75 131.95Q261.12 132.25 261.75 132.25Q262.29 132.25 262.62 132.02Q262.95 131.79 262.95 131.34Q262.95 130.99 262.71 130.80Q262.47 130.61 262.09 130.49Q261.71 130.38 261.29 130.27Q260.87 130.17 260.49 130Q260.11 129.83 259.87 129.52Q259.62 129.21 259.62 128.68Q259.62 128.23 259.87 127.88Q260.12 127.53 260.57 127.32Q261.02 127.11 261.59 127.11Q262.44 127.11 263.05 127.50Q263.65 127.88 263.83 128.55L262.94 128.87Q262.80 128.37 262.45 128.16Q262.10 127.95 261.59 127.95Q261.17 127.95 260.88 128.12Q260.59 128.30 260.59 128.64Q260.59 128.96 260.83 129.13Q261.07 129.30 261.45 129.39Q261.83 129.49 262.26 129.60Q262.70 129.70 263.07 129.88Q263.45 130.07 263.70 130.41Q263.94 130.75 263.94 131.32Q263.94 131.84 263.65 132.24Q263.36 132.64 262.87 132.87Q262.38 133.09 261.75 133.09" fill="#686c62"/>
    <path d="M403.74 133.09Q402.79 133.09 402.24 132.63Q401.69 132.16 401.69 131.44Q401.69 130.56 402.33 130.10Q402.96 129.64 404.34 129.50L405.58 129.38L405.58 129.17Q405.58 128.60 405.19 128.27Q404.81 127.95 404.18 127.95Q403.58 127.95 403.20 128.26Q402.82 128.56 402.73 129.17L401.80 129.01Q401.93 128.18 402.56 127.65Q403.19 127.11 404.18 127.11Q404.88 127.11 405.41 127.37Q405.95 127.63 406.26 128.11Q406.57 128.60 406.57 129.27L406.57 133L405.58 133L405.58 132.03Q405.46 132.31 405.19 132.55Q404.91 132.79 404.53 132.94Q404.15 133.09 403.74 133.09M405.58 130.41L405.58 130.14L404.40 130.27Q403.49 130.38 403.08 130.63Q402.68 130.87 402.68 131.40Q402.68 131.83 402.99 132.06Q403.30 132.30 403.82 132.30Q404.34 132.30 404.73 132.04Q405.13 131.78 405.36 131.35Q405.58 130.92 405.58 130.41M410.54 133.09Q409.71 133.09 409.06 132.70Q408.42 132.31 408.05 131.63Q407.67 130.95 407.67 130.10Q407.67 129.24 408.05 128.56Q408.42 127.88 409.06 127.50Q409.71 127.11 410.54 127.11Q411.56 127.11 412.28 127.64Q413 128.16 413.15 129.06L412.17 129.21Q412.05 128.63 411.62 128.30Q411.19 127.96 410.54 127.96Q410.01 127.96 409.59 128.24Q409.17 128.51 408.92 128.99Q408.67 129.47 408.67 130.10Q408.67 130.72 408.92 131.20Q409.17 131.68 409.59 131.95Q410.01 132.23 410.54 132.23Q411.23 132.23 411.67 131.89Q412.12 131.55 412.20 130.99L413.20 131.10Q413.12 131.69 412.76 132.14Q412.40 132.59 411.83 132.84Q411.26 133.09 410.54 133.09M416.38 133.09Q415.63 133.09 415.14 132.63Q414.65 132.17 414.65 131.29L414.65 128.02L413.68 128.02L413.68 127.20L414.65 127.20L414.65 125.73L415.64 125.73L415.64 127.20L417.11 127.20L417.11 128.02L415.64 128.02L415.64 131.21Q415.64 131.71 415.87 131.97Q416.10 132.22 416.49 132.22Q416.79 132.22 417.10 132.10L417.18 132.94Q417.02 133.02 416.80 133.06Q416.57 133.09 416.38 133.09M419.13 133L418.14 133L418.14 127.20L419.13 127.20L419.13 133M418.63 126.19Q418.33 126.19 418.13 126Q417.93 125.80 417.93 125.50Q417.93 125.20 418.13 125.01Q418.33 124.81 418.63 124.81Q418.94 124.81 419.14 125.01Q419.35 125.20 419.35 125.50Q419.35 125.80 419.14 126Q418.94 126.19 418.63 126.19M423.24 133.09Q422.39 133.09 421.73 132.71Q421.07 132.32 420.69 131.65Q420.31 130.98 420.31 130.10Q420.31 129.23 420.69 128.56Q421.07 127.88 421.73 127.50Q422.39 127.11 423.24 127.11Q424.09 127.11 424.76 127.50Q425.42 127.88 425.80 128.56Q426.18 129.23 426.18 130.10Q426.18 130.98 425.80 131.65Q425.42 132.32 424.76 132.71Q424.09 133.09 423.24 133.09M423.24 132.23Q423.81 132.23 424.24 131.96Q424.68 131.69 424.93 131.21Q425.18 130.72 425.18 130.10Q425.18 129.47 424.93 128.99Q424.68 128.50 424.24 128.23Q423.81 127.96 423.24 127.96Q422.68 127.96 422.24 128.23Q421.81 128.50 421.56 128.99Q421.31 129.47 421.31 130.10Q421.31 130.72 421.56 131.21Q421.81 131.69 422.24 131.96Q422.68 132.23 423.24 132.23M428.35 133L427.37 133L427.37 127.20L428.35 127.20L428.35 128.20Q428.61 127.76 429.15 127.43Q429.68 127.11 430.41 127.11Q431.02 127.11 431.50 127.36Q431.98 127.61 432.27 128.07Q432.55 128.54 432.55 129.21L432.55 133L431.57 133L431.57 129.42Q431.57 128.72 431.20 128.35Q430.83 127.97 430.21 127.97Q429.36 127.97 428.86 128.66Q428.35 129.35 428.35 130.52L428.35 133M437.58 133L436.61 133L436.61 127.20L437.58 127.20L437.58 128.23Q437.85 127.68 438.34 127.39Q438.83 127.11 439.39 127.11Q439.57 127.11 439.77 127.14Q439.96 127.17 440.10 127.24L440.03 128.17Q439.84 128.08 439.65 128.06Q439.47 128.04 439.29 128.04Q438.56 128.04 438.07 128.72Q437.58 129.40 437.58 130.68L437.58 133M443.05 133.09Q442.44 133.09 441.95 132.84Q441.46 132.60 441.18 132.14Q440.90 131.68 440.90 131.01L440.90 127.20L441.89 127.20L441.89 130.78Q441.89 131.48 442.25 131.86Q442.62 132.23 443.23 132.23Q444.09 132.23 444.60 131.54Q445.11 130.85 445.11 129.69L445.11 127.20L446.08 127.20L446.08 133L445.11 133L445.11 132Q444.83 132.45 444.30 132.77Q443.77 133.09 443.05 133.09M448.62 133L447.65 133L447.65 127.20L448.62 127.20L448.62 128.20Q448.89 127.76 449.42 127.43Q449.96 127.11 450.68 127.11Q451.29 127.11 451.78 127.36Q452.26 127.61 452.54 128.07Q452.82 128.54 452.82 129.21L452.82 133L451.84 133L451.84 129.42Q451.84 128.72 451.48 128.35Q451.11 127.97 450.49 127.97Q449.64 127.97 449.13 128.66Q448.62 129.35 448.62 130.52L448.62 133M456.23 133.09Q455.25 133.09 454.63 132.60Q454.01 132.11 453.82 131.38L454.72 131.09Q454.85 131.65 455.22 131.95Q455.59 132.25 456.23 132.25Q456.77 132.25 457.09 132.02Q457.42 131.79 457.42 131.34Q457.42 130.99 457.18 130.80Q456.94 130.61 456.56 130.49Q456.18 130.38 455.76 130.27Q455.34 130.17 454.96 130Q454.58 129.83 454.34 129.52Q454.10 129.21 454.10 128.68Q454.10 128.23 454.35 127.88Q454.59 127.53 455.04 127.32Q455.49 127.11 456.06 127.11Q456.92 127.11 457.52 127.50Q458.12 127.88 458.31 128.55L457.41 128.87Q457.27 128.37 456.92 128.16Q456.57 127.95 456.06 127.95Q455.64 127.95 455.35 128.12Q455.06 128.30 455.06 128.64Q455.06 128.96 455.31 129.13Q455.55 129.30 455.93 129.39Q456.31 129.49 456.74 129.60Q457.17 129.70 457.55 129.88Q457.93 130.07 458.17 130.41Q458.41 130.75 458.41 131.32Q458.41 131.84 458.12 132.24Q457.84 132.64 457.35 132.87Q456.86 133.09 456.23 133.09" fill="#686c62"/>
    <path d="M181.76 197L180.78 197L180.78 191.20L181.76 191.20L181.76 192.23Q182.02 191.68 182.51 191.39Q183 191.11 183.56 191.11Q183.75 191.11 183.94 191.14Q184.14 191.17 184.28 191.24L184.21 192.17Q184.01 192.08 183.83 192.06Q183.65 192.04 183.46 192.04Q182.74 192.04 182.25 192.72Q181.76 193.40 181.76 194.68L181.76 197M187.65 197.09Q186.80 197.09 186.15 196.71Q185.50 196.32 185.13 195.65Q184.77 194.98 184.77 194.10Q184.77 193.23 185.14 192.56Q185.51 191.88 186.15 191.50Q186.78 191.11 187.61 191.11Q188.50 191.11 189.13 191.53Q189.76 191.95 190.07 192.65Q190.38 193.35 190.27 194.23L185.77 194.23Q185.82 195.13 186.32 195.68Q186.83 196.24 187.65 196.24Q188.27 196.24 188.74 195.91Q189.21 195.57 189.33 195.10L190.22 195.33Q190.03 196.11 189.33 196.60Q188.63 197.09 187.65 197.09M185.84 193.45L189.27 193.45Q189.26 192.76 188.80 192.35Q188.34 191.95 187.61 191.95Q186.93 191.95 186.46 192.35Q185.99 192.75 185.84 193.45M190.94 199.19Q190.71 199.19 190.51 199.15L190.56 198.30Q190.60 198.31 190.68 198.32Q190.76 198.33 190.82 198.33Q191.20 198.33 191.34 198.07Q191.49 197.81 191.49 197.33L191.49 191.20L192.48 191.20L192.48 197.45Q192.48 198.28 192.10 198.73Q191.72 199.19 190.94 199.19M191.97 190.19Q191.67 190.19 191.47 190Q191.27 189.80 191.27 189.50Q191.27 189.20 191.47 189.01Q191.67 188.81 191.97 188.81Q192.28 188.81 192.48 189.01Q192.68 189.20 192.68 189.50Q192.68 189.80 192.48 190Q192.28 190.19 191.97 190.19M196.54 197.09Q195.69 197.09 195.04 196.71Q194.39 196.32 194.02 195.65Q193.66 194.98 193.66 194.10Q193.66 193.23 194.03 192.56Q194.40 191.88 195.04 191.50Q195.67 191.11 196.50 191.11Q197.39 191.11 198.02 191.53Q198.65 191.95 198.96 192.65Q199.27 193.35 199.16 194.23L194.66 194.23Q194.71 195.13 195.21 195.68Q195.72 196.24 196.54 196.24Q197.16 196.24 197.63 195.91Q198.10 195.57 198.22 195.10L199.11 195.33Q198.92 196.11 198.22 196.60Q197.51 197.09 196.54 197.09M194.73 193.45L198.16 193.45Q198.15 192.76 197.69 192.35Q197.23 191.95 196.50 191.95Q195.82 191.95 195.35 192.35Q194.88 192.75 194.73 193.45M202.88 197.09Q202.06 197.09 201.41 196.70Q200.77 196.31 200.40 195.63Q200.02 194.95 200.02 194.10Q200.02 193.24 200.40 192.56Q200.77 191.88 201.41 191.50Q202.06 191.11 202.88 191.11Q203.91 191.11 204.63 191.64Q205.35 192.16 205.50 193.06L204.52 193.21Q204.40 192.63 203.97 192.30Q203.54 191.96 202.88 191.96Q202.36 191.96 201.94 192.24Q201.52 192.51 201.27 192.99Q201.02 193.47 201.02 194.10Q201.02 194.72 201.27 195.20Q201.52 195.68 201.94 195.95Q202.36 196.23 202.88 196.23Q203.57 196.23 204.02 195.89Q204.47 195.55 204.55 194.99L205.55 195.10Q205.47 195.69 205.11 196.14Q204.75 196.59 204.18 196.84Q203.61 197.09 202.88 197.09M208.73 197.09Q207.98 197.09 207.49 196.63Q207 196.17 207 195.29L207 192.02L206.02 192.02L206.02 191.20L207 191.20L207 189.73L207.99 189.73L207.99 191.20L209.46 191.20L209.46 192.02L207.99 192.02L207.99 195.21Q207.99 195.71 208.22 195.97Q208.45 196.22 208.84 196.22Q209.14 196.22 209.45 196.10L209.53 196.94Q209.37 197.02 209.15 197.06Q208.92 197.09 208.73 197.09M212.40 197.09Q211.42 197.09 210.80 196.60Q210.18 196.11 209.99 195.38L210.89 195.09Q211.02 195.65 211.39 195.95Q211.76 196.25 212.40 196.25Q212.94 196.25 213.26 196.02Q213.59 195.79 213.59 195.34Q213.59 194.99 213.35 194.80Q213.11 194.61 212.73 194.49Q212.35 194.38 211.93 194.27Q211.51 194.17 211.13 194Q210.75 193.83 210.51 193.52Q210.27 193.21 210.27 192.68Q210.27 192.23 210.52 191.88Q210.76 191.53 211.21 191.32Q211.66 191.11 212.23 191.11Q213.09 191.11 213.69 191.50Q214.29 191.88 214.48 192.55L213.58 192.87Q213.44 192.37 213.09 192.16Q212.74 191.95 212.23 191.95Q211.81 191.95 211.52 192.12Q211.23 192.30 211.23 192.64Q211.23 192.96 211.48 193.13Q211.72 193.30 212.10 193.39Q212.48 193.49 212.91 193.60Q213.34 193.70 213.72 193.88Q214.10 194.07 214.34 194.41Q214.58 194.75 214.58 195.32Q214.58 195.84 214.29 196.24Q214.01 196.64 213.52 196.87Q213.03 197.09 212.40 197.09" fill="#686c62"/>
  
  <path d="M32.91 120.09Q32.20 120.09 31.73 119.65Q31.26 119.21 31.26 118.36L31.26 115.24L30.33 115.24L30.33 114.46L31.26 114.46L31.26 113.05L32.21 113.05L32.21 114.46L33.62 114.46L33.62 115.24L32.21 115.24L32.21 118.28Q32.21 118.77 32.43 119.01Q32.65 119.25 33.02 119.25Q33.31 119.25 33.61 119.14L33.68 119.94Q33.53 120.02 33.32 120.06Q33.10 120.09 32.91 120.09M35.54 120L34.61 120L34.61 114.46L35.54 114.46L35.54 115.44Q35.80 114.91 36.26 114.64Q36.73 114.37 37.27 114.37Q37.45 114.37 37.63 114.40Q37.82 114.42 37.95 114.49L37.89 115.38Q37.70 115.29 37.52 115.28Q37.35 115.26 37.17 115.26Q36.48 115.26 36.01 115.91Q35.54 116.56 35.54 117.78L35.54 120M39.71 120L38.77 120L38.77 114.46L39.71 114.46L39.71 120M39.24 113.49Q38.95 113.49 38.76 113.30Q38.57 113.11 38.57 112.83Q38.57 112.54 38.76 112.36Q38.95 112.17 39.24 112.17Q39.54 112.17 39.73 112.36Q39.92 112.54 39.92 112.83Q39.92 113.11 39.73 113.30Q39.54 113.49 39.24 113.49M43.53 122.09Q42.94 122.09 42.41 121.89Q41.89 121.68 41.53 121.33Q41.18 120.97 41.05 120.50L41.97 120.30Q42.10 120.78 42.54 121.03Q42.98 121.29 43.55 121.29Q44.32 121.29 44.83 120.89Q45.33 120.50 45.33 119.76L45.33 118.88Q45.09 119.27 44.57 119.52Q44.05 119.76 43.43 119.76Q42.68 119.76 42.11 119.42Q41.53 119.08 41.20 118.47Q40.87 117.87 40.87 117.06Q40.87 116.25 41.19 115.64Q41.52 115.04 42.11 114.70Q42.69 114.37 43.46 114.37Q44.07 114.37 44.58 114.60Q45.09 114.83 45.33 115.23L45.33 114.46L46.28 114.46L46.28 119.67Q46.28 120.43 45.92 120.97Q45.56 121.51 44.94 121.80Q44.32 122.09 43.53 122.09M43.57 118.93Q44.08 118.93 44.48 118.69Q44.88 118.45 45.11 118.03Q45.34 117.60 45.34 117.06Q45.34 116.50 45.11 116.08Q44.88 115.66 44.48 115.42Q44.08 115.18 43.57 115.18Q43.07 115.18 42.67 115.42Q42.28 115.66 42.04 116.08Q41.81 116.50 41.81 117.06Q41.81 117.61 42.04 118.04Q42.28 118.46 42.67 118.70Q43.07 118.93 43.57 118.93M50.07 122.09Q49.48 122.09 48.96 121.89Q48.44 121.68 48.08 121.33Q47.72 120.97 47.60 120.50L48.51 120.30Q48.64 120.78 49.08 121.03Q49.52 121.29 50.10 121.29Q50.87 121.29 51.37 120.89Q51.88 120.50 51.88 119.76L51.88 118.88Q51.64 119.27 51.11 119.52Q50.59 119.76 49.98 119.76Q49.23 119.76 48.65 119.42Q48.07 119.08 47.74 118.47Q47.41 117.87 47.41 117.06Q47.41 116.25 47.74 115.64Q48.06 115.04 48.65 114.70Q49.24 114.37 50.01 114.37Q50.61 114.37 51.13 114.60Q51.64 114.83 51.88 115.23L51.88 114.46L52.82 114.46L52.82 119.67Q52.82 120.43 52.47 120.97Q52.11 121.51 51.49 121.80Q50.87 122.09 50.07 122.09M50.12 118.93Q50.62 118.93 51.03 118.69Q51.43 118.45 51.66 118.03Q51.89 117.60 51.89 117.06Q51.89 116.50 51.66 116.08Q51.43 115.66 51.03 115.42Q50.62 115.18 50.12 115.18Q49.61 115.18 49.22 115.42Q48.82 115.66 48.59 116.08Q48.36 116.50 48.36 117.06Q48.36 117.61 48.59 118.04Q48.82 118.46 49.22 118.70Q49.61 118.93 50.12 118.93M56.69 120.09Q55.87 120.09 55.25 119.72Q54.63 119.35 54.28 118.71Q53.94 118.06 53.94 117.23Q53.94 116.39 54.29 115.75Q54.64 115.11 55.25 114.74Q55.86 114.37 56.65 114.37Q57.50 114.37 58.10 114.77Q58.71 115.17 59.01 115.84Q59.30 116.51 59.19 117.35L54.89 117.35Q54.94 118.21 55.42 118.74Q55.90 119.27 56.69 119.27Q57.28 119.27 57.73 118.95Q58.18 118.64 58.29 118.19L59.15 118.41Q58.96 119.15 58.29 119.62Q57.62 120.09 56.69 120.09M54.96 116.60L58.24 116.60Q58.23 115.94 57.79 115.56Q57.35 115.17 56.65 115.17Q56 115.17 55.55 115.55Q55.10 115.93 54.96 116.60M61.31 120L60.37 120L60.37 114.46L61.31 114.46L61.31 115.44Q61.56 114.91 62.03 114.64Q62.49 114.37 63.03 114.37Q63.21 114.37 63.40 114.40Q63.58 114.42 63.71 114.49L63.65 115.38Q63.46 115.29 63.29 115.28Q63.11 115.26 62.93 115.26Q62.24 115.26 61.77 115.91Q61.31 116.56 61.31 117.78" fill="#686c62"/>

  <rect x="40" y="134" width="14" height="14" rx="2" fill="#262d1e"/>
  <rect x="650" y="134" width="14" height="14" rx="2" fill="#262d1e"/>
  <rect x="655" y="139" width="4" height="4" fill="#f6f5ee"/>

  <rect x="80" y="115" width="130" height="52" rx="2" fill="#ffffff"/>
  <path d="M121.29 146L119.65 146L119.65 136.20L123.57 136.20Q124.54 136.20 125.25 136.56Q125.97 136.93 126.36 137.58Q126.75 138.23 126.75 139.11Q126.75 139.99 126.36 140.65Q125.97 141.31 125.25 141.67Q124.54 142.04 123.57 142.04L121.29 142.04L121.29 146M121.29 137.61L121.29 140.64L123.41 140.64Q124.19 140.64 124.65 140.22Q125.11 139.80 125.11 139.11Q125.11 138.43 124.65 138.02Q124.19 137.61 123.41 137.61L121.29 137.61M131.05 146.11Q129.99 146.11 129.18 145.64Q128.38 145.17 127.93 144.35Q127.48 143.54 127.48 142.47Q127.48 141.41 127.93 140.59Q128.38 139.77 129.17 139.30Q129.97 138.83 130.99 138.83Q132.11 138.83 132.91 139.36Q133.71 139.88 134.09 140.77Q134.47 141.66 134.33 142.75L129.02 142.75Q129.10 143.69 129.64 144.26Q130.18 144.82 131.05 144.82Q131.71 144.82 132.21 144.48Q132.72 144.14 132.84 143.62L134.27 144Q134 144.94 133.13 145.52Q132.25 146.11 131.05 146.11M129.10 141.59L132.74 141.59Q132.73 140.89 132.25 140.48Q131.76 140.06 130.99 140.06Q130.28 140.06 129.78 140.46Q129.28 140.86 129.10 141.59M137.19 146L135.67 146L135.67 138.94L137.19 138.94L137.19 139.99Q137.50 139.53 138.12 139.18Q138.73 138.83 139.57 138.83Q140.33 138.83 140.93 139.14Q141.52 139.45 141.86 140.03Q142.19 140.61 142.19 141.42L142.19 146L140.67 146L140.67 141.76Q140.67 141 140.26 140.59Q139.85 140.18 139.18 140.18Q138.26 140.18 137.73 140.92Q137.19 141.66 137.19 142.95L137.19 146M146.90 146.11Q145.85 146.11 145.07 145.66Q144.29 145.20 143.87 144.38Q143.44 143.56 143.44 142.47Q143.44 141.37 143.87 140.55Q144.29 139.74 145.07 139.29Q145.85 138.83 146.90 138.83Q147.64 138.83 148.26 139.13Q148.88 139.43 149.18 139.92L149.18 136.09L150.73 136.09L150.73 146L149.18 146L149.18 145.01Q148.88 145.50 148.25 145.80Q147.63 146.11 146.90 146.11M147.09 144.80Q148.02 144.80 148.60 144.15Q149.18 143.49 149.18 142.47Q149.18 141.44 148.60 140.79Q148.02 140.15 147.09 140.15Q146.17 140.15 145.58 140.79Q144.99 141.44 144.99 142.47Q144.99 143.49 145.58 144.15Q146.17 144.80 147.09 144.80M153.95 146L152.43 146L152.43 138.94L153.95 138.94L153.95 146M153.20 137.88Q152.76 137.88 152.47 137.60Q152.18 137.32 152.18 136.89Q152.18 136.45 152.47 136.17Q152.76 135.89 153.20 135.89Q153.65 135.89 153.94 136.17Q154.23 136.45 154.23 136.89Q154.23 137.32 153.94 137.60Q153.65 137.88 153.20 137.88M157.19 146L155.66 146L155.66 138.94L157.19 138.94L157.19 139.99Q157.50 139.53 158.11 139.18Q158.73 138.83 159.57 138.83Q160.32 138.83 160.92 139.14Q161.51 139.45 161.85 140.03Q162.19 140.61 162.19 141.42L162.19 146L160.66 146L160.66 141.76Q160.66 141 160.25 140.59Q159.85 140.18 159.18 140.18Q158.25 140.18 157.72 140.92Q157.19 141.66 157.19 142.95L157.19 146M166.95 148.66Q166.12 148.66 165.43 148.39Q164.73 148.13 164.28 147.65Q163.82 147.18 163.70 146.57L165.18 146.28Q165.32 146.83 165.80 147.13Q166.29 147.43 166.97 147.43Q167.84 147.43 168.40 146.99Q168.96 146.55 168.96 145.69L168.96 144.67Q168.67 145.12 168.06 145.39Q167.45 145.66 166.72 145.66Q165.77 145.66 165.03 145.24Q164.29 144.81 163.87 144.04Q163.45 143.27 163.45 142.25Q163.45 141.20 163.87 140.44Q164.29 139.67 165.03 139.25Q165.77 138.83 166.75 138.83Q167.48 138.83 168.07 139.10Q168.65 139.36 168.96 139.81L168.96 138.94L170.50 138.94L170.50 145.54Q170.50 146.53 170.05 147.23Q169.61 147.93 168.81 148.30Q168.01 148.66 166.95 148.66M166.99 144.35Q167.84 144.35 168.40 143.76Q168.96 143.17 168.96 142.25Q168.96 141.31 168.40 140.73Q167.84 140.15 166.99 140.15Q166.12 140.15 165.56 140.73Q165 141.31 165 142.25Q165 143.19 165.56 143.77Q166.12 144.35 166.99 144.35" fill="#262d1e"/>

  <rect x="270" y="115" width="130" height="52" rx="2" fill="#d0ee89"/>
  <path d="M304.72 146L303.02 146L306.85 136.20L308.70 136.20L312.52 146L310.76 146L309.86 143.69L305.63 143.69L304.72 146M307.75 138.16L306.15 142.29L309.34 142.29L307.75 138.16M314.93 148.55L313.39 148.55L313.39 138.94L314.93 138.94L314.93 139.92Q315.24 139.43 315.87 139.13Q316.50 138.83 317.23 138.83Q318.28 138.83 319.05 139.29Q319.83 139.74 320.26 140.55Q320.69 141.37 320.69 142.47Q320.69 143.56 320.26 144.38Q319.83 145.20 319.05 145.66Q318.28 146.11 317.23 146.11Q316.50 146.11 315.87 145.80Q315.24 145.50 314.93 145.01L314.93 148.55M317.03 144.80Q317.65 144.80 318.12 144.50Q318.58 144.21 318.86 143.68Q319.13 143.16 319.13 142.47Q319.13 141.44 318.54 140.79Q317.94 140.15 317.03 140.15Q316.11 140.15 315.52 140.79Q314.93 141.44 314.93 142.47Q314.93 143.14 315.20 143.67Q315.46 144.19 315.94 144.50Q316.41 144.80 317.03 144.80M323.54 148.55L322 148.55L322 138.94L323.54 138.94L323.54 139.92Q323.85 139.43 324.48 139.13Q325.11 138.83 325.84 138.83Q326.89 138.83 327.66 139.29Q328.44 139.74 328.87 140.55Q329.30 141.37 329.30 142.47Q329.30 143.56 328.87 144.38Q328.44 145.20 327.66 145.66Q326.89 146.11 325.84 146.11Q325.11 146.11 324.48 145.80Q323.85 145.50 323.54 145.01L323.54 148.55M325.64 144.80Q326.26 144.80 326.73 144.50Q327.19 144.21 327.47 143.68Q327.74 143.16 327.74 142.47Q327.74 141.44 327.15 140.79Q326.55 140.15 325.64 140.15Q324.72 140.15 324.13 140.79Q323.54 141.44 323.54 142.47Q323.54 143.14 323.81 143.67Q324.07 144.19 324.55 144.50Q325.02 144.80 325.64 144.80M332.14 146L330.61 146L330.61 138.94L332.14 138.94L332.14 140.02Q332.44 139.45 333.01 139.14Q333.58 138.83 334.26 138.83Q334.49 138.83 334.73 138.87Q334.97 138.90 335.13 138.97L335.02 140.43Q334.80 140.33 334.57 140.30Q334.35 140.27 334.13 140.27Q333.31 140.27 332.73 141.01Q332.14 141.74 332.14 143.27L332.14 146M339.31 146.11Q338.25 146.11 337.43 145.64Q336.60 145.17 336.13 144.35Q335.66 143.52 335.66 142.46Q335.66 141.39 336.13 140.57Q336.60 139.76 337.43 139.29Q338.25 138.83 339.31 138.83Q340.37 138.83 341.19 139.29Q342.01 139.76 342.48 140.57Q342.94 141.39 342.94 142.46Q342.94 143.52 342.48 144.35Q342.01 145.17 341.19 145.64Q340.37 146.11 339.31 146.11M339.31 144.80Q340.23 144.80 340.81 144.15Q341.39 143.49 341.39 142.46Q341.39 141.44 340.81 140.79Q340.23 140.15 339.31 140.15Q338.39 140.15 337.81 140.78Q337.22 141.42 337.22 142.46Q337.22 143.49 337.81 144.15Q338.39 144.80 339.31 144.80M347.75 146L346.26 146L343.46 138.94L345.13 138.94L347.03 143.97L348.94 138.94L350.55 138.94L347.75 146M354.63 146.11Q353.57 146.11 352.77 145.64Q351.96 145.17 351.51 144.35Q351.06 143.54 351.06 142.47Q351.06 141.41 351.51 140.59Q351.96 139.77 352.76 139.30Q353.56 138.83 354.58 138.83Q355.70 138.83 356.50 139.36Q357.29 139.88 357.67 140.77Q358.05 141.66 357.91 142.75L352.60 142.75Q352.69 143.69 353.23 144.26Q353.77 144.82 354.63 144.82Q355.29 144.82 355.80 144.48Q356.30 144.14 356.43 143.62L357.85 144Q357.59 144.94 356.71 145.52Q355.84 146.11 354.63 146.11M352.69 141.59L356.33 141.59Q356.31 140.89 355.83 140.48Q355.35 140.06 354.58 140.06Q353.86 140.06 353.37 140.46Q352.87 140.86 352.69 141.59M362.32 146.11Q361.27 146.11 360.49 145.66Q359.72 145.20 359.29 144.38Q358.86 143.56 358.86 142.47Q358.86 141.37 359.29 140.55Q359.72 139.74 360.49 139.29Q361.27 138.83 362.32 138.83Q363.06 138.83 363.69 139.13Q364.31 139.43 364.60 139.92L364.60 136.09L366.16 136.09L366.16 146L364.60 146L364.60 145.01Q364.31 145.50 363.68 145.80Q363.05 146.11 362.32 146.11M362.52 144.80Q363.44 144.80 364.02 144.15Q364.60 143.49 364.60 142.47Q364.60 141.44 364.02 140.79Q363.44 140.15 362.52 140.15Q361.59 140.15 361 140.79Q360.42 141.44 360.42 142.47Q360.42 143.49 361 144.15Q361.59 144.80 362.52 144.80" fill="#262d1e"/>

  <rect x="460" y="115" width="140" height="52" rx="2" fill="#3f5b1e"/>
  <path d="M507.74 146L501.19 146L501.19 136.20L507.70 136.20L507.70 137.61L502.84 137.61L502.84 140.18L506.79 140.18L506.79 141.59L502.84 141.59L502.84 144.59L507.74 144.59L507.74 146M514.87 146L513.10 146L511.52 143.65L509.94 146L508.19 146L510.64 142.36L508.33 138.94L510.12 138.94L511.53 141.04L512.95 138.94L514.68 138.94L512.40 142.33L514.87 146M518.87 146.11Q517.81 146.11 517 145.64Q516.20 145.17 515.75 144.35Q515.30 143.54 515.30 142.47Q515.30 141.41 515.75 140.59Q516.20 139.77 516.99 139.30Q517.79 138.83 518.81 138.83Q519.93 138.83 520.73 139.36Q521.53 139.88 521.91 140.77Q522.29 141.66 522.15 142.75L516.84 142.75Q516.92 143.69 517.46 144.26Q518 144.82 518.87 144.82Q519.53 144.82 520.03 144.48Q520.54 144.14 520.66 143.62L522.09 144Q521.82 144.94 520.95 145.52Q520.07 146.11 518.87 146.11M516.92 141.59L520.56 141.59Q520.55 140.89 520.07 140.48Q519.58 140.06 518.81 140.06Q518.10 140.06 517.60 140.46Q517.11 140.86 516.92 141.59M526.64 146.11Q525.60 146.11 524.80 145.64Q523.99 145.16 523.54 144.33Q523.08 143.51 523.08 142.46Q523.08 141.41 523.54 140.59Q523.99 139.77 524.80 139.30Q525.60 138.83 526.64 138.83Q527.93 138.83 528.84 139.49Q529.75 140.15 529.93 141.31L528.39 141.53Q528.28 140.88 527.82 140.51Q527.35 140.15 526.64 140.15Q526.08 140.15 525.63 140.44Q525.17 140.74 524.90 141.25Q524.64 141.77 524.64 142.46Q524.64 143.14 524.90 143.67Q525.17 144.19 525.63 144.50Q526.08 144.80 526.64 144.80Q527.38 144.80 527.85 144.42Q528.32 144.04 528.42 143.42L530 143.62Q529.90 144.35 529.45 144.91Q528.99 145.48 528.27 145.80Q527.55 146.11 526.64 146.11M533.74 146.11Q532.98 146.11 532.39 145.80Q531.81 145.50 531.46 144.92Q531.12 144.35 531.12 143.56L531.12 138.94L532.66 138.94L532.66 143.17Q532.66 143.93 533.06 144.35Q533.46 144.77 534.14 144.77Q535.05 144.77 535.59 144.02Q536.13 143.27 536.13 141.98L536.13 138.94L537.66 138.94L537.66 146L536.13 146L536.13 144.95Q535.82 145.41 535.21 145.76Q534.59 146.11 533.74 146.11M542.15 146.11Q541.16 146.11 540.49 145.51Q539.83 144.91 539.83 143.76L539.83 140.20L538.67 140.20L538.67 138.94L539.83 138.94L539.83 137.19L541.37 137.19L541.37 138.94L543.08 138.94L543.08 140.20L541.37 140.20L541.37 143.63Q541.37 144.19 541.63 144.48Q541.90 144.77 542.35 144.77Q542.54 144.77 542.72 144.73Q542.89 144.68 543.08 144.63L543.19 145.93Q542.96 146.03 542.69 146.07Q542.42 146.11 542.15 146.11M547.43 146.11Q546.37 146.11 545.56 145.64Q544.76 145.17 544.31 144.35Q543.86 143.54 543.86 142.47Q543.86 141.41 544.31 140.59Q544.76 139.77 545.55 139.30Q546.35 138.83 547.37 138.83Q548.49 138.83 549.29 139.36Q550.09 139.88 550.47 140.77Q550.85 141.66 550.71 142.75L545.40 142.75Q545.48 143.69 546.02 144.26Q546.56 144.82 547.43 144.82Q548.09 144.82 548.59 144.48Q549.10 144.14 549.22 143.62L550.65 144Q550.38 144.94 549.51 145.52Q548.63 146.11 547.43 146.11M545.48 141.59L549.12 141.59Q549.11 140.89 548.63 140.48Q548.14 140.06 547.37 140.06Q546.66 140.06 546.16 140.46Q545.67 140.86 545.48 141.59M555.12 146.11Q554.07 146.11 553.29 145.66Q552.51 145.20 552.09 144.38Q551.66 143.56 551.66 142.47Q551.66 141.37 552.09 140.55Q552.51 139.74 553.29 139.29Q554.07 138.83 555.12 138.83Q555.86 138.83 556.48 139.13Q557.10 139.43 557.40 139.92L557.40 136.09L558.95 136.09L558.95 146L557.40 146L557.40 145.01Q557.10 145.50 556.47 145.80Q555.84 146.11 555.12 146.11M555.31 144.80Q556.24 144.80 556.82 144.15Q557.40 143.49 557.40 142.47Q557.40 141.44 556.82 140.79Q556.24 140.15 555.31 140.15Q554.39 140.15 553.80 140.79Q553.21 141.44 553.21 142.47Q553.21 143.49 553.80 144.15Q554.39 144.80 555.31 144.80" fill="#f6f5ee"/>

  <rect x="80" y="215" width="130" height="48" rx="2" fill="#d9d9d9"/>
  <path d="M118.39 244.11Q117.02 244.11 115.92 243.52Q114.82 242.92 114.19 241.79Q113.56 240.67 113.56 239.10Q113.56 237.53 114.19 236.41Q114.82 235.29 115.92 234.69Q117.01 234.09 118.39 234.09Q120.07 234.09 121.21 234.91Q122.36 235.73 122.62 237.20L120.97 237.49Q120.83 236.58 120.12 236.04Q119.40 235.50 118.39 235.50Q117.47 235.50 116.75 235.93Q116.03 236.36 115.62 237.16Q115.22 237.97 115.22 239.10Q115.22 240.22 115.63 241.03Q116.04 241.84 116.75 242.27Q117.47 242.70 118.39 242.70Q119.48 242.70 120.19 242.12Q120.90 241.55 121.04 240.61L122.66 240.84Q122.55 241.80 121.98 242.54Q121.40 243.29 120.48 243.70Q119.56 244.11 118.39 244.11M126.05 244.11Q124.92 244.11 124.25 243.52Q123.59 242.94 123.59 242.07Q123.59 241.02 124.34 240.45Q125.09 239.88 126.72 239.70L128.17 239.56L128.17 239.38Q128.17 238.76 127.75 238.41Q127.34 238.06 126.67 238.06Q126.02 238.06 125.62 238.39Q125.23 238.71 125.14 239.37L123.67 239.14Q123.85 238.11 124.67 237.47Q125.48 236.83 126.67 236.83Q127.55 236.83 128.24 237.15Q128.92 237.48 129.31 238.09Q129.69 238.69 129.69 239.56L129.69 244L128.17 244L128.17 242.98Q127.94 243.45 127.35 243.78Q126.77 244.11 126.05 244.11M128.17 240.89L128.17 240.70L126.79 240.86Q125.91 240.96 125.51 241.21Q125.11 241.47 125.11 242Q125.11 242.45 125.44 242.69Q125.76 242.94 126.30 242.94Q126.86 242.94 127.28 242.66Q127.69 242.38 127.93 241.91Q128.17 241.45 128.17 240.89M132.83 244L131.30 244L131.30 236.94L132.83 236.94L132.83 237.99Q133.13 237.53 133.75 237.18Q134.37 236.83 135.21 236.83Q135.96 236.83 136.56 237.14Q137.15 237.45 137.49 238.03Q137.82 238.61 137.82 239.42L137.82 244L136.30 244L136.30 239.76Q136.30 239 135.89 238.59Q135.49 238.18 134.81 238.18Q133.89 238.18 133.36 238.92Q132.83 239.66 132.83 240.95L132.83 244M142.61 244.11Q141.58 244.11 140.77 243.64Q139.97 243.16 139.51 242.33Q139.06 241.51 139.06 240.46Q139.06 239.41 139.51 238.59Q139.97 237.77 140.77 237.30Q141.58 236.83 142.61 236.83Q143.90 236.83 144.81 237.49Q145.72 238.15 145.90 239.31L144.36 239.53Q144.25 238.88 143.79 238.51Q143.33 238.15 142.61 238.15Q142.05 238.15 141.60 238.44Q141.14 238.74 140.88 239.25Q140.61 239.77 140.61 240.46Q140.61 241.14 140.88 241.67Q141.14 242.19 141.60 242.50Q142.05 242.80 142.61 242.80Q143.36 242.80 143.82 242.42Q144.29 242.04 144.39 241.42L145.97 241.62Q145.88 242.35 145.42 242.91Q144.97 243.48 144.24 243.80Q143.52 244.11 142.61 244.11M150.34 244.11Q149.28 244.11 148.47 243.64Q147.67 243.17 147.22 242.35Q146.77 241.54 146.77 240.47Q146.77 239.41 147.22 238.59Q147.67 237.77 148.47 237.30Q149.26 236.83 150.28 236.83Q151.41 236.83 152.20 237.36Q153 237.88 153.38 238.77Q153.76 239.66 153.62 240.75L148.31 240.75Q148.40 241.69 148.93 242.26Q149.47 242.82 150.34 242.82Q151 242.82 151.50 242.48Q152.01 242.14 152.13 241.62L153.56 242Q153.30 242.94 152.42 243.52Q151.55 244.11 150.34 244.11M148.40 239.59L152.03 239.59Q152.02 238.89 151.54 238.48Q151.06 238.06 150.28 238.06Q149.57 238.06 149.07 238.46Q148.58 238.86 148.40 239.59M156.49 244L154.96 244L154.96 234.09L156.49 234.09L156.49 244M159.72 244L158.20 244L158.20 234.09L159.72 234.09L159.72 244M164.59 244.11Q163.53 244.11 162.72 243.64Q161.92 243.17 161.47 242.35Q161.02 241.54 161.02 240.47Q161.02 239.41 161.47 238.59Q161.92 237.77 162.72 237.30Q163.52 236.83 164.54 236.83Q165.66 236.83 166.46 237.36Q167.25 237.88 167.63 238.77Q168.01 239.66 167.87 240.75L162.56 240.75Q162.65 241.69 163.19 242.26Q163.73 242.82 164.59 242.82Q165.25 242.82 165.76 242.48Q166.26 242.14 166.39 241.62L167.81 242Q167.55 242.94 166.67 243.52Q165.80 244.11 164.59 244.11M162.65 239.59L166.29 239.59Q166.27 238.89 165.79 238.48Q165.31 238.06 164.54 238.06Q163.82 238.06 163.33 238.46Q162.83 238.86 162.65 239.59M172.28 244.11Q171.23 244.11 170.45 243.66Q169.68 243.20 169.25 242.38Q168.82 241.56 168.82 240.47Q168.82 239.37 169.25 238.55Q169.68 237.74 170.45 237.29Q171.23 236.83 172.28 236.83Q173.02 236.83 173.64 237.13Q174.27 237.43 174.56 237.92L174.56 234.09L176.12 234.09L176.12 244L174.56 244L174.56 243.01Q174.27 243.50 173.64 243.80Q173.01 244.11 172.28 244.11M172.48 242.80Q173.40 242.80 173.98 242.15Q174.56 241.49 174.56 240.47Q174.56 239.44 173.98 238.79Q173.40 238.15 172.48 238.15Q171.55 238.15 170.96 238.79Q170.38 239.44 170.38 240.47Q170.38 241.49 170.96 242.15Q171.55 242.80 172.48 242.80" fill="#686c62"/>
</svg>
