<svg width="900" height="380" viewBox="0 0 900 380" fill="none" xmlns="http://www.w3.org/2000/svg" font-family="Matter, Inter, system-ui, sans-serif">
  <defs>
    <pattern id="dots" width="22" height="22" patternUnits="userSpaceOnUse"><circle cx="2" cy="2" r="1.4" fill="#d4d2c6"/></pattern>
    <marker id="arr" markerWidth="9" markerHeight="9" refX="7" refY="3" orient="auto" markerUnits="userSpaceOnUse"><path d="M0 0L7 3L0 6Z" fill="#686c62"/></marker>
  </defs>
  <rect width="900" height="380" rx="4" fill="#f6f5ee"/>
  <rect width="900" height="380" rx="4" fill="url(#dots)"/>

  
  <g stroke="#686c62" stroke-opacity="0.4" stroke-width="1.5" stroke-dasharray="3 4">
    <line x1="160" y1="64" x2="160" y2="366"/>
    <line x1="460" y1="64" x2="460" y2="366"/>
    <line x1="760" y1="64" x2="760" y2="366"/>
  </g>
  

  <rect x="90" y="20" width="140" height="44" rx="2" fill="#ffffff"/>
  <path d="M137.82 47.10Q136.83 47.10 135.99 46.76Q135.15 46.41 134.53 45.78Q133.92 45.15 133.58 44.31Q133.24 43.46 133.24 42.45Q133.24 41.44 133.58 40.59Q133.92 39.75 134.53 39.12Q135.15 38.48 135.99 38.14Q136.83 37.80 137.82 37.80Q138.79 37.80 139.62 38.14Q140.45 38.48 141.07 39.12Q141.69 39.75 142.03 40.59Q142.38 41.44 142.38 42.45Q142.38 43.46 142.03 44.31Q141.69 45.15 141.07 45.78Q140.45 46.41 139.62 46.76Q138.79 47.10 137.82 47.10M137.82 45.79Q138.70 45.79 139.38 45.36Q140.06 44.92 140.45 44.17Q140.84 43.41 140.84 42.45Q140.84 41.49 140.45 40.73Q140.06 39.98 139.38 39.54Q138.70 39.11 137.82 39.11Q136.93 39.11 136.24 39.54Q135.55 39.97 135.16 40.72Q134.77 41.48 134.77 42.45Q134.77 43.41 135.16 44.17Q135.55 44.93 136.24 45.36Q136.93 45.79 137.82 45.79M145.08 49.37L143.65 49.37L143.65 40.45L145.08 40.45L145.08 41.36Q145.37 40.90 145.95 40.62Q146.54 40.34 147.21 40.34Q148.19 40.34 148.91 40.77Q149.63 41.19 150.03 41.94Q150.43 42.70 150.43 43.72Q150.43 44.74 150.03 45.50Q149.63 46.26 148.91 46.68Q148.19 47.10 147.21 47.10Q146.54 47.10 145.95 46.82Q145.37 46.53 145.08 46.08L145.08 49.37M147.03 45.88Q147.60 45.88 148.04 45.61Q148.48 45.34 148.73 44.85Q148.98 44.36 148.98 43.72Q148.98 42.76 148.43 42.16Q147.88 41.57 147.03 41.57Q146.17 41.57 145.63 42.16Q145.08 42.76 145.08 43.72Q145.08 44.35 145.33 44.84Q145.58 45.32 146.02 45.60Q146.46 45.88 147.03 45.88M154.59 47.10Q153.60 47.10 152.85 46.67Q152.10 46.23 151.69 45.47Q151.27 44.71 151.27 43.72Q151.27 42.74 151.69 41.98Q152.10 41.22 152.84 40.78Q153.58 40.34 154.53 40.34Q155.57 40.34 156.31 40.83Q157.06 41.32 157.41 42.14Q157.76 42.97 157.63 43.98L152.70 43.98Q152.78 44.85 153.28 45.38Q153.78 45.91 154.59 45.91Q155.20 45.91 155.66 45.59Q156.13 45.27 156.25 44.79L157.58 45.14Q157.33 46.01 156.52 46.56Q155.70 47.10 154.59 47.10M152.78 42.91L156.16 42.91Q156.15 42.26 155.70 41.87Q155.25 41.49 154.53 41.49Q153.87 41.49 153.41 41.86Q152.95 42.23 152.78 42.91M160.29 47L158.88 47L158.88 40.45L160.29 40.45L160.29 41.45Q160.58 40.92 161.11 40.63Q161.63 40.34 162.27 40.34Q162.48 40.34 162.70 40.38Q162.92 40.41 163.07 40.47L162.97 41.83Q162.76 41.73 162.55 41.71Q162.35 41.68 162.14 41.68Q161.38 41.68 160.84 42.37Q160.29 43.05 160.29 44.47L160.29 47M165.93 47.10Q164.88 47.10 164.26 46.56Q163.65 46.01 163.65 45.21Q163.65 44.23 164.34 43.70Q165.04 43.18 166.56 43.01L167.90 42.88L167.90 42.71Q167.90 42.14 167.51 41.81Q167.13 41.49 166.51 41.49Q165.91 41.49 165.54 41.79Q165.17 42.09 165.09 42.70L163.72 42.49Q163.89 41.53 164.65 40.94Q165.40 40.34 166.51 40.34Q167.33 40.34 167.96 40.64Q168.60 40.94 168.96 41.51Q169.31 42.07 169.31 42.88L169.31 47L167.90 47L167.90 46.05Q167.69 46.49 167.14 46.80Q166.60 47.10 165.93 47.10M167.90 44.11L167.90 43.93L166.62 44.09Q165.80 44.18 165.43 44.41Q165.06 44.65 165.06 45.14Q165.06 45.56 165.36 45.78Q165.66 46.01 166.17 46.01Q166.69 46.01 167.07 45.75Q167.46 45.49 167.68 45.06Q167.90 44.63 167.90 44.11M173.40 47.10Q172.47 47.10 171.86 46.55Q171.24 45.99 171.24 44.92L171.24 41.62L170.16 41.62L170.16 40.45L171.24 40.45L171.24 38.82L172.67 38.82L172.67 40.45L174.25 40.45L174.25 41.62L172.67 41.62L172.67 44.80Q172.67 45.32 172.92 45.59Q173.16 45.86 173.58 45.86Q173.76 45.86 173.92 45.82Q174.09 45.78 174.25 45.73L174.36 46.94Q174.15 47.03 173.90 47.06Q173.64 47.10 173.40 47.10M178.36 47.10Q177.39 47.10 176.62 46.67Q175.85 46.23 175.42 45.47Q174.98 44.70 174.98 43.71Q174.98 42.72 175.42 41.96Q175.85 41.20 176.62 40.77Q177.39 40.34 178.36 40.34Q179.35 40.34 180.11 40.77Q180.87 41.20 181.31 41.96Q181.74 42.72 181.74 43.71Q181.74 44.70 181.31 45.47Q180.87 46.23 180.11 46.67Q179.35 47.10 178.36 47.10M178.36 45.88Q179.22 45.88 179.76 45.28Q180.30 44.67 180.30 43.71Q180.30 42.76 179.76 42.16Q179.22 41.57 178.36 41.57Q177.52 41.57 176.97 42.16Q176.43 42.75 176.43 43.71Q176.43 44.67 176.97 45.28Q177.52 45.88 178.36 45.88M184.37 47L182.95 47L182.95 40.45L184.37 40.45L184.37 41.45Q184.65 40.92 185.18 40.63Q185.71 40.34 186.34 40.34Q186.55 40.34 186.77 40.38Q186.99 40.41 187.15 40.47L187.05 41.83Q186.84 41.73 186.63 41.71Q186.42 41.68 186.21 41.68Q185.46 41.68 184.91 42.37Q184.37 43.05 184.37 44.47" fill="#262d1e"/>
  <rect x="390" y="20" width="140" height="44" rx="2" fill="#3f5b1e"/>
  <path d="M443.66 47L442.13 47L442.13 37.90L448.17 37.90L448.17 39.21L443.66 39.21L443.66 41.59L447.32 41.59L447.32 42.91L443.66 42.91L443.66 47M452.15 47.10Q451.17 47.10 450.41 46.67Q449.64 46.23 449.20 45.47Q448.77 44.70 448.77 43.71Q448.77 42.72 449.20 41.96Q449.64 41.20 450.41 40.77Q451.17 40.34 452.15 40.34Q453.14 40.34 453.90 40.77Q454.66 41.20 455.09 41.96Q455.53 42.72 455.53 43.71Q455.53 44.70 455.09 45.47Q454.66 46.23 453.90 46.67Q453.14 47.10 452.15 47.10M452.15 45.88Q453.01 45.88 453.55 45.28Q454.08 44.67 454.08 43.71Q454.08 42.76 453.55 42.16Q453.01 41.57 452.15 41.57Q451.30 41.57 450.76 42.16Q450.21 42.75 450.21 43.71Q450.21 44.67 450.76 45.28Q451.30 45.88 452.15 45.88M458.15 47L456.74 47L456.74 40.45L458.15 40.45L458.15 41.45Q458.44 40.92 458.97 40.63Q459.49 40.34 460.13 40.34Q460.34 40.34 460.56 40.38Q460.78 40.41 460.94 40.47L460.83 41.83Q460.62 41.73 460.42 41.71Q460.21 41.68 460 41.68Q459.25 41.68 458.70 42.37Q458.15 43.05 458.15 44.47L458.15 47M464.74 47.10Q463.76 47.10 463.01 46.67Q462.26 46.23 461.85 45.47Q461.43 44.71 461.43 43.72Q461.43 42.74 461.85 41.98Q462.26 41.22 463 40.78Q463.74 40.34 464.69 40.34Q465.73 40.34 466.47 40.83Q467.21 41.32 467.57 42.14Q467.92 42.97 467.79 43.98L462.86 43.98Q462.94 44.85 463.44 45.38Q463.94 45.91 464.74 45.91Q465.36 45.91 465.82 45.59Q466.29 45.27 466.41 44.79L467.73 45.14Q467.49 46.01 466.68 46.56Q465.86 47.10 464.74 47.10M462.94 42.91L466.32 42.91Q466.30 42.26 465.86 41.87Q465.41 41.49 464.69 41.49Q464.03 41.49 463.57 41.86Q463.11 42.23 462.94 42.91M471.31 47.10Q470.56 47.10 469.97 46.84Q469.39 46.58 469.02 46.14Q468.64 45.69 468.51 45.15L469.75 44.75Q469.88 45.32 470.28 45.64Q470.67 45.96 471.31 45.96Q471.83 45.96 472.15 45.73Q472.47 45.51 472.47 45.10Q472.47 44.75 472.21 44.56Q471.95 44.37 471.53 44.26Q471.11 44.14 470.65 44.02Q470.18 43.89 469.76 43.69Q469.35 43.49 469.09 43.13Q468.83 42.76 468.83 42.15Q468.83 41.64 469.11 41.23Q469.40 40.83 469.91 40.58Q470.43 40.34 471.11 40.34Q472.10 40.34 472.80 40.79Q473.51 41.23 473.71 41.96L472.49 42.41Q472.35 41.88 471.97 41.66Q471.60 41.45 471.11 41.45Q470.71 41.45 470.44 41.62Q470.17 41.79 470.17 42.11Q470.17 42.44 470.43 42.60Q470.70 42.76 471.11 42.87Q471.53 42.97 472 43.09Q472.47 43.20 472.88 43.42Q473.30 43.63 473.57 44.02Q473.83 44.40 473.83 45.06Q473.83 45.66 473.51 46.12Q473.18 46.58 472.61 46.84Q472.04 47.10 471.31 47.10M477.61 47.10Q476.69 47.10 476.07 46.55Q475.46 45.99 475.46 44.92L475.46 41.62L474.38 41.62L474.38 40.45L475.46 40.45L475.46 38.82L476.89 38.82L476.89 40.45L478.47 40.45L478.47 41.62L476.89 41.62L476.89 44.80Q476.89 45.32 477.13 45.59Q477.38 45.86 477.80 45.86Q477.98 45.86 478.14 45.82Q478.30 45.78 478.47 45.73L478.58 46.94Q478.37 47.03 478.12 47.06Q477.86 47.10 477.61 47.10" fill="#f6f5ee"/>
  <rect x="690" y="20" width="140" height="44" rx="2" fill="#ffffff"/>
  <path d="M733.34 47L731.76 47L735.32 37.90L737.04 37.90L740.58 47L738.95 47L738.11 44.85L734.19 44.85L733.34 47M736.15 39.72L734.67 43.55L737.63 43.55L736.15 39.72M742.82 49.37L741.39 49.37L741.39 40.45L742.82 40.45L742.82 41.36Q743.11 40.90 743.69 40.62Q744.28 40.34 744.95 40.34Q745.93 40.34 746.65 40.77Q747.37 41.19 747.77 41.94Q748.16 42.70 748.16 43.72Q748.16 44.74 747.77 45.50Q747.37 46.26 746.65 46.68Q745.93 47.10 744.95 47.10Q744.28 47.10 743.69 46.82Q743.11 46.53 742.82 46.08L742.82 49.37M744.77 45.88Q745.34 45.88 745.78 45.61Q746.21 45.34 746.47 44.85Q746.72 44.36 746.72 43.72Q746.72 42.76 746.17 42.16Q745.62 41.57 744.77 41.57Q743.91 41.57 743.37 42.16Q742.82 42.76 742.82 43.72Q742.82 44.35 743.07 44.84Q743.31 45.32 743.76 45.60Q744.20 45.88 744.77 45.88M750.82 49.37L749.39 49.37L749.39 40.45L750.82 40.45L750.82 41.36Q751.10 40.90 751.69 40.62Q752.27 40.34 752.95 40.34Q753.92 40.34 754.64 40.77Q755.37 41.19 755.76 41.94Q756.16 42.70 756.16 43.72Q756.16 44.74 755.76 45.50Q755.37 46.26 754.64 46.68Q753.92 47.10 752.95 47.10Q752.27 47.10 751.69 46.82Q751.10 46.53 750.82 46.08L750.82 49.37M752.77 45.88Q753.34 45.88 753.77 45.61Q754.21 45.34 754.46 44.85Q754.72 44.36 754.72 43.72Q754.72 42.76 754.16 42.16Q753.61 41.57 752.77 41.57Q751.91 41.57 751.36 42.16Q750.82 42.76 750.82 43.72Q750.82 44.35 751.06 44.84Q751.31 45.32 751.75 45.60Q752.19 45.88 752.77 45.88M758.80 47L757.38 47L757.38 40.45L758.80 40.45L758.80 41.45Q759.08 40.92 759.61 40.63Q760.14 40.34 760.77 40.34Q760.98 40.34 761.20 40.38Q761.42 40.41 761.58 40.47L761.48 41.83Q761.27 41.73 761.06 41.71Q760.85 41.68 760.64 41.68Q759.89 41.68 759.34 42.37Q758.80 43.05 758.80 44.47L758.80 47M765.45 47.10Q764.48 47.10 763.71 46.67Q762.94 46.23 762.51 45.47Q762.07 44.70 762.07 43.71Q762.07 42.72 762.51 41.96Q762.94 41.20 763.71 40.77Q764.48 40.34 765.45 40.34Q766.44 40.34 767.20 40.77Q767.96 41.20 768.40 41.96Q768.83 42.72 768.83 43.71Q768.83 44.70 768.40 45.47Q767.96 46.23 767.20 46.67Q766.44 47.10 765.45 47.10M765.45 45.88Q766.31 45.88 766.85 45.28Q767.39 44.67 767.39 43.71Q767.39 42.76 766.85 42.16Q766.31 41.57 765.45 41.57Q764.61 41.57 764.06 42.16Q763.52 42.75 763.52 43.71Q763.52 44.67 764.06 45.28Q764.61 45.88 765.45 45.88M773.29 47L771.91 47L769.31 40.45L770.86 40.45L772.63 45.12L774.40 40.45L775.89 40.45L773.29 47M779.69 47.10Q778.70 47.10 777.95 46.67Q777.21 46.23 776.79 45.47Q776.37 44.71 776.37 43.72Q776.37 42.74 776.79 41.98Q777.21 41.22 777.95 40.78Q778.69 40.34 779.64 40.34Q780.68 40.34 781.42 40.83Q782.16 41.32 782.51 42.14Q782.86 42.97 782.73 43.98L777.80 43.98Q777.88 44.85 778.38 45.38Q778.88 45.91 779.69 45.91Q780.30 45.91 780.77 45.59Q781.24 45.27 781.35 44.79L782.68 45.14Q782.43 46.01 781.62 46.56Q780.81 47.10 779.69 47.10M777.88 42.91L781.26 42.91Q781.25 42.26 780.80 41.87Q780.35 41.49 779.64 41.49Q778.97 41.49 778.51 41.86Q778.05 42.23 777.88 42.91M785.40 47L783.98 47L783.98 40.45L785.40 40.45L785.40 41.45Q785.68 40.92 786.21 40.63Q786.73 40.34 787.37 40.34Q787.58 40.34 787.80 40.38Q788.02 40.41 788.18 40.47L788.07 41.83Q787.87 41.73 787.66 41.71Q787.45 41.68 787.24 41.68Q786.49 41.68 785.94 42.37Q785.40 43.05 785.40 44.47" fill="#262d1e"/>

  <!-- pending note -->
  <rect x="396" y="120" width="128" height="26" rx="2" fill="#ece9e0"/>
  <path d="M421.54 137.09Q420.60 137.09 420.01 136.62Q419.42 136.15 419.24 135.45L420.10 135.17Q420.22 135.71 420.58 136Q420.93 136.28 421.54 136.28Q422.06 136.28 422.37 136.06Q422.68 135.84 422.68 135.42Q422.68 135.07 422.45 134.89Q422.22 134.71 421.86 134.60Q421.49 134.49 421.09 134.39Q420.69 134.29 420.33 134.13Q419.97 133.96 419.73 133.67Q419.50 133.37 419.50 132.86Q419.50 132.44 419.74 132.10Q419.98 131.76 420.41 131.57Q420.83 131.37 421.38 131.37Q422.20 131.37 422.78 131.74Q423.35 132.10 423.53 132.74L422.67 133.05Q422.54 132.57 422.20 132.37Q421.87 132.17 421.38 132.17Q420.98 132.17 420.70 132.34Q420.43 132.50 420.43 132.83Q420.43 133.14 420.66 133.30Q420.89 133.46 421.25 133.55Q421.62 133.65 422.03 133.74Q422.44 133.84 422.80 134.02Q423.17 134.19 423.40 134.52Q423.63 134.84 423.63 135.39Q423.63 135.89 423.35 136.27Q423.08 136.66 422.61 136.87Q422.14 137.09 421.54 137.09M426.71 137.09Q425.99 137.09 425.53 136.65Q425.06 136.21 425.06 135.36L425.06 132.24L424.12 132.24L424.12 131.46L425.06 131.46L425.06 130.05L426 130.05L426 131.46L427.41 131.46L427.41 132.24L426 132.24L426 135.28Q426 135.77 426.22 136.01Q426.44 136.25 426.82 136.25Q427.10 136.25 427.40 136.14L427.48 136.94Q427.32 137.02 427.11 137.06Q426.90 137.09 426.71 137.09M430.09 137.09Q429.17 137.09 428.65 136.64Q428.13 136.20 428.13 135.50Q428.13 134.67 428.73 134.23Q429.34 133.79 430.66 133.66L431.85 133.53L431.85 133.34Q431.85 132.79 431.48 132.48Q431.11 132.17 430.50 132.17Q429.93 132.17 429.57 132.46Q429.21 132.75 429.12 133.34L428.23 133.18Q428.36 132.39 428.96 131.88Q429.56 131.37 430.50 131.37Q431.17 131.37 431.69 131.62Q432.20 131.86 432.49 132.32Q432.79 132.79 432.79 133.44L432.79 137L431.85 137L431.85 136.08Q431.74 136.34 431.47 136.57Q431.21 136.80 430.84 136.94Q430.48 137.09 430.09 137.09M431.85 134.53L431.85 134.26L430.71 134.39Q429.84 134.49 429.46 134.73Q429.07 134.97 429.07 135.47Q429.07 135.88 429.37 136.10Q429.67 136.33 430.16 136.33Q430.66 136.33 431.04 136.08Q431.42 135.83 431.63 135.42Q431.85 135.01 431.85 134.53M436.16 137.09Q435.44 137.09 434.98 136.65Q434.51 136.21 434.51 135.36L434.51 132.24L433.57 132.24L433.57 131.46L434.51 131.46L434.51 130.05L435.45 130.05L435.45 131.46L436.86 131.46L436.86 132.24L435.45 132.24L435.45 135.28Q435.45 135.77 435.67 136.01Q435.89 136.25 436.27 136.25Q436.55 136.25 436.85 136.14L436.93 136.94Q436.77 137.02 436.56 137.06Q436.34 137.09 436.16 137.09M439.84 137.09Q439.26 137.09 438.79 136.85Q438.32 136.62 438.06 136.18Q437.79 135.74 437.79 135.10L437.79 131.46L438.73 131.46L438.73 134.88Q438.73 135.55 439.08 135.91Q439.44 136.26 440.02 136.26Q440.84 136.26 441.33 135.60Q441.81 134.94 441.81 133.83L441.81 131.46L442.75 131.46L442.75 137L441.81 137L441.81 136.04Q441.55 136.47 441.04 136.78Q440.54 137.09 439.84 137.09M446.06 137.09Q445.12 137.09 444.53 136.62Q443.93 136.15 443.76 135.45L444.62 135.17Q444.74 135.71 445.10 136Q445.45 136.28 446.06 136.28Q446.57 136.28 446.89 136.06Q447.20 135.84 447.20 135.42Q447.20 135.07 446.97 134.89Q446.74 134.71 446.38 134.60Q446.01 134.49 445.61 134.39Q445.21 134.29 444.85 134.13Q444.48 133.96 444.25 133.67Q444.02 133.37 444.02 132.86Q444.02 132.44 444.26 132.10Q444.50 131.76 444.92 131.57Q445.35 131.37 445.90 131.37Q446.72 131.37 447.30 131.74Q447.87 132.10 448.05 132.74L447.19 133.05Q447.06 132.57 446.72 132.37Q446.39 132.17 445.90 132.17Q445.50 132.17 445.22 132.34Q444.95 132.50 444.95 132.83Q444.95 133.14 445.18 133.30Q445.41 133.46 445.77 133.55Q446.13 133.65 446.55 133.74Q446.96 133.84 447.32 134.02Q447.69 134.19 447.92 134.52Q448.15 134.84 448.15 135.39Q448.15 135.89 447.87 136.27Q447.60 136.66 447.13 136.87Q446.66 137.09 446.06 137.09M456.66 134.56L451.52 134.56L451.52 133.75L456.66 133.75L456.66 134.56M456.66 132.42L451.52 132.42L451.52 131.63L456.66 131.63L456.66 132.42M461.36 139L460.41 139L460.41 131.46L461.36 131.46L461.36 132.36Q461.61 131.91 462.13 131.64Q462.66 131.37 463.27 131.37Q464.11 131.37 464.72 131.73Q465.34 132.08 465.69 132.73Q466.03 133.37 466.03 134.23Q466.03 135.09 465.69 135.73Q465.34 136.37 464.72 136.73Q464.11 137.09 463.27 137.09Q462.67 137.09 462.14 136.81Q461.61 136.54 461.36 136.09L461.36 139M463.22 136.27Q463.76 136.27 464.17 136.02Q464.59 135.76 464.83 135.29Q465.08 134.83 465.08 134.23Q465.08 133.62 464.83 133.16Q464.59 132.70 464.17 132.44Q463.76 132.18 463.22 132.18Q462.68 132.18 462.26 132.44Q461.83 132.70 461.60 133.16Q461.36 133.62 461.36 134.23Q461.36 134.82 461.60 135.28Q461.83 135.75 462.26 136.01Q462.68 136.27 463.22 136.27M469.59 137.09Q468.77 137.09 468.15 136.72Q467.53 136.35 467.18 135.71Q466.84 135.06 466.84 134.23Q466.84 133.39 467.19 132.75Q467.54 132.10 468.15 131.74Q468.76 131.37 469.55 131.37Q470.40 131.37 471.01 131.77Q471.61 132.17 471.91 132.84Q472.20 133.51 472.09 134.35L467.79 134.35Q467.84 135.21 468.32 135.74Q468.81 136.27 469.59 136.27Q470.18 136.27 470.63 135.96Q471.08 135.64 471.19 135.19L472.05 135.41Q471.86 136.15 471.19 136.62Q470.52 137.09 469.59 137.09M467.86 133.60L471.14 133.60Q471.13 132.94 470.69 132.56Q470.25 132.17 469.55 132.17Q468.90 132.17 468.45 132.55Q468 132.93 467.86 133.60M474.21 137L473.27 137L473.27 131.46L474.21 131.46L474.21 132.41Q474.46 131.98 474.97 131.68Q475.48 131.37 476.18 131.37Q476.76 131.37 477.22 131.60Q477.68 131.84 477.95 132.29Q478.22 132.73 478.22 133.37L478.22 137L477.29 137L477.29 133.58Q477.29 132.91 476.93 132.55Q476.58 132.19 475.99 132.19Q475.17 132.19 474.69 132.85Q474.21 133.51 474.21 134.62L474.21 137M482.07 137.09Q481.25 137.09 480.63 136.73Q480 136.37 479.66 135.73Q479.31 135.09 479.31 134.23Q479.31 133.37 479.66 132.73Q480 132.08 480.63 131.73Q481.25 131.37 482.07 131.37Q482.69 131.37 483.22 131.64Q483.74 131.91 483.99 132.36L483.99 129.21L484.93 129.21L484.93 137L483.99 137L483.99 136.09Q483.74 136.54 483.22 136.81Q482.69 137.09 482.07 137.09M482.13 136.27Q482.68 136.27 483.09 136.01Q483.51 135.75 483.75 135.28Q483.99 134.82 483.99 134.23Q483.99 133.62 483.75 133.16Q483.51 132.70 483.09 132.44Q482.68 132.18 482.13 132.18Q481.60 132.18 481.18 132.44Q480.75 132.70 480.51 133.16Q480.27 133.62 480.27 134.23Q480.27 134.83 480.51 135.29Q480.75 135.76 481.18 136.02Q481.60 136.27 482.13 136.27M487.35 137L486.41 137L486.41 131.46L487.35 131.46L487.35 137M486.88 130.49Q486.59 130.49 486.40 130.30Q486.21 130.11 486.21 129.83Q486.21 129.54 486.40 129.35Q486.59 129.17 486.88 129.17Q487.18 129.17 487.37 129.35Q487.56 129.54 487.56 129.83Q487.56 130.11 487.37 130.30Q487.18 130.49 486.88 130.49M489.77 137L488.84 137L488.84 131.46L489.77 131.46L489.77 132.41Q490.02 131.98 490.54 131.68Q491.05 131.37 491.74 131.37Q492.32 131.37 492.79 131.60Q493.25 131.84 493.52 132.29Q493.79 132.73 493.79 133.37L493.79 137L492.85 137L492.85 133.58Q492.85 132.91 492.50 132.55Q492.15 132.19 491.55 132.19Q490.74 132.19 490.26 132.85Q489.77 133.51 489.77 134.62L489.77 137M497.56 139.09Q496.97 139.09 496.44 138.89Q495.92 138.68 495.56 138.33Q495.21 137.97 495.08 137.50L496 137.30Q496.13 137.78 496.57 138.03Q497.01 138.29 497.58 138.29Q498.35 138.29 498.86 137.89Q499.36 137.50 499.36 136.76L499.36 135.88Q499.12 136.27 498.60 136.52Q498.08 136.76 497.46 136.76Q496.71 136.76 496.14 136.42Q495.56 136.08 495.23 135.47Q494.90 134.87 494.90 134.06Q494.90 133.25 495.22 132.64Q495.55 132.04 496.14 131.70Q496.72 131.37 497.49 131.37Q498.10 131.37 498.61 131.60Q499.12 131.83 499.36 132.23L499.36 131.46L500.31 131.46L500.31 136.67Q500.31 137.43 499.95 137.97Q499.59 138.51 498.97 138.80Q498.35 139.09 497.56 139.09M497.60 135.93Q498.11 135.93 498.51 135.69Q498.91 135.45 499.14 135.03Q499.37 134.60 499.37 134.06Q499.37 133.50 499.14 133.08Q498.91 132.66 498.51 132.42Q498.11 132.18 497.60 132.18Q497.10 132.18 496.70 132.42Q496.31 132.66 496.07 133.08Q495.84 133.50 495.84 134.06Q495.84 134.61 496.07 135.04Q496.31 135.46 496.70 135.70Q497.10 135.93 497.60 135.93" fill="#686c62"/>

  <!-- alt frame -->
  <rect x="360" y="232" width="240" height="86" rx="2" fill="none" stroke="#686c62" stroke-opacity="0.35" stroke-width="1.5"/>
  <rect x="360" y="232" width="42" height="18" rx="2" fill="#686c62"/>
  <path d="M377.59 245.08Q376.78 245.08 376.31 244.66Q375.83 244.24 375.83 243.62Q375.83 242.87 376.37 242.47Q376.90 242.06 378.07 241.93L379.10 241.83L379.10 241.70Q379.10 241.26 378.81 241.01Q378.51 240.76 378.03 240.76Q377.57 240.76 377.29 240.99Q377 241.22 376.94 241.69L375.89 241.53Q376.02 240.79 376.60 240.34Q377.19 239.88 378.03 239.88Q378.66 239.88 379.15 240.11Q379.64 240.34 379.92 240.78Q380.19 241.21 380.19 241.83L380.19 245L379.10 245L379.10 244.27Q378.94 244.61 378.52 244.84Q378.10 245.08 377.59 245.08M379.10 242.78L379.10 242.64L378.13 242.76Q377.50 242.83 377.21 243.01Q376.93 243.19 376.93 243.57Q376.93 243.89 377.15 244.06Q377.38 244.24 377.77 244.24Q378.18 244.24 378.47 244.04Q378.76 243.84 378.94 243.51Q379.10 243.18 379.10 242.78M382.43 245L381.34 245L381.34 237.92L382.43 237.92L382.43 245M385.64 245.08Q384.93 245.08 384.46 244.65Q383.98 244.22 383.98 243.40L383.98 240.86L383.15 240.86L383.15 239.96L383.98 239.96L383.98 238.71L385.08 238.71L385.08 239.96L386.30 239.96L386.30 240.86L385.08 240.86L385.08 243.31Q385.08 243.71 385.27 243.91Q385.46 244.12 385.78 244.12Q385.92 244.12 386.05 244.09Q386.17 244.06 386.30 244.02L386.38 244.95Q386.22 245.02 386.03 245.05Q385.83 245.08 385.64 245.08" fill="#f6f5ee"/>

  
  <g stroke="#686c62" stroke-opacity="0.8" stroke-width="1.5" fill="none">
    <line x1="160" y1="104" x2="460" y2="104" marker-end="url(#arr)"/>
    <line x1="460" y1="184" x2="760" y2="184" marker-end="url(#arr)"/>
    <line x1="760" y1="216" x2="460" y2="216" stroke-dasharray="4 4" marker-end="url(#arr)"/>
    <path d="M460 264 H516 V282 H462" marker-end="url(#arr)"/>
    <path d="M460 296 H516 V310 H462" marker-end="url(#arr)"/>
    <line x1="460" y1="346" x2="160" y2="346" stroke-dasharray="4 4" marker-end="url(#arr)"/>
  </g>
  
  
    <path d="M275.18 98.10Q274.36 98.10 273.83 97.60Q273.30 97.10 273.30 96.14L273.30 92.59L272.24 92.59L272.24 91.70L273.30 91.70L273.30 90.10L274.38 90.10L274.38 91.70L275.98 91.70L275.98 92.59L274.38 92.59L274.38 96.05Q274.38 96.60 274.63 96.88Q274.88 97.15 275.30 97.15Q275.63 97.15 275.96 97.03L276.05 97.94Q275.88 98.03 275.63 98.06Q275.39 98.10 275.18 98.10M278.16 98L277.10 98L277.10 91.70L278.16 91.70L278.16 92.81Q278.45 92.21 278.98 91.91Q279.51 91.60 280.13 91.60Q280.32 91.60 280.54 91.63Q280.75 91.66 280.90 91.74L280.82 92.75Q280.61 92.65 280.41 92.63Q280.21 92.61 280.01 92.61Q279.23 92.61 278.69 93.35Q278.16 94.09 278.16 95.47L278.16 98M282.90 98L281.82 98L281.82 91.70L282.90 91.70L282.90 98M282.36 90.60Q282.04 90.60 281.82 90.39Q281.60 90.17 281.60 89.85Q281.60 89.53 281.82 89.31Q282.04 89.10 282.36 89.10Q282.70 89.10 282.92 89.31Q283.14 89.53 283.14 89.85Q283.14 90.17 282.92 90.39Q282.70 90.60 282.36 90.60M287.24 100.38Q286.56 100.38 285.97 100.14Q285.38 99.91 284.97 99.51Q284.56 99.10 284.43 98.56L285.46 98.34Q285.61 98.89 286.11 99.17Q286.61 99.46 287.26 99.46Q288.14 99.46 288.71 99.01Q289.29 98.56 289.29 97.72L289.29 96.72Q289.01 97.17 288.42 97.45Q287.82 97.72 287.13 97.72Q286.28 97.72 285.62 97.34Q284.96 96.95 284.59 96.26Q284.21 95.58 284.21 94.66Q284.21 93.74 284.58 93.05Q284.95 92.36 285.62 91.98Q286.29 91.60 287.16 91.60Q287.85 91.60 288.43 91.86Q289.01 92.13 289.29 92.58L289.29 91.70L290.36 91.70L290.36 97.63Q290.36 98.49 289.96 99.10Q289.55 99.71 288.84 100.04Q288.14 100.38 287.24 100.38M287.29 96.79Q287.86 96.79 288.32 96.51Q288.78 96.24 289.04 95.76Q289.30 95.28 289.30 94.66Q289.30 94.03 289.04 93.54Q288.78 93.06 288.32 92.79Q287.86 92.53 287.29 92.53Q286.71 92.53 286.26 92.79Q285.81 93.06 285.55 93.54Q285.29 94.03 285.29 94.66Q285.29 95.29 285.55 95.77Q285.81 96.25 286.26 96.52Q286.71 96.79 287.29 96.79M294.68 100.38Q294 100.38 293.41 100.14Q292.81 99.91 292.41 99.51Q292 99.10 291.86 98.56L292.90 98.34Q293.05 98.89 293.55 99.17Q294.05 99.46 294.70 99.46Q295.57 99.46 296.15 99.01Q296.73 98.56 296.73 97.72L296.73 96.72Q296.45 97.17 295.86 97.45Q295.26 97.72 294.56 97.72Q293.71 97.72 293.06 97.34Q292.40 96.95 292.03 96.26Q291.65 95.58 291.65 94.66Q291.65 93.74 292.02 93.05Q292.39 92.36 293.06 91.98Q293.73 91.60 294.60 91.60Q295.29 91.60 295.87 91.86Q296.45 92.13 296.73 92.58L296.73 91.70L297.80 91.70L297.80 97.63Q297.80 98.49 297.39 99.10Q296.99 99.71 296.28 100.04Q295.57 100.38 294.68 100.38M294.73 96.79Q295.30 96.79 295.76 96.51Q296.21 96.24 296.48 95.76Q296.74 95.28 296.74 94.66Q296.74 94.03 296.48 93.54Q296.21 93.06 295.76 92.79Q295.30 92.53 294.73 92.53Q294.15 92.53 293.70 92.79Q293.25 93.06 292.99 93.54Q292.73 94.03 292.73 94.66Q292.73 95.29 292.99 95.77Q293.25 96.25 293.70 96.52Q294.15 96.79 294.73 96.79M302.19 98.10Q301.26 98.10 300.56 97.68Q299.85 97.26 299.46 96.53Q299.06 95.80 299.06 94.85Q299.06 93.90 299.46 93.17Q299.86 92.44 300.56 92.02Q301.25 91.60 302.15 91.60Q303.11 91.60 303.80 92.06Q304.49 92.51 304.82 93.28Q305.16 94.04 305.04 94.99L300.15 94.99Q300.20 95.96 300.75 96.57Q301.30 97.17 302.19 97.17Q302.86 97.17 303.38 96.81Q303.89 96.45 304.01 95.94L304.99 96.19Q304.78 97.04 304.01 97.57Q303.25 98.10 302.19 98.10M300.23 94.14L303.95 94.14Q303.94 93.39 303.44 92.95Q302.94 92.51 302.15 92.51Q301.41 92.51 300.90 92.94Q300.39 93.38 300.23 94.14M307.44 98L306.38 98L306.38 91.70L307.44 91.70L307.44 92.81Q307.73 92.21 308.26 91.91Q308.79 91.60 309.40 91.60Q309.60 91.60 309.81 91.63Q310.03 91.66 310.18 91.74L310.10 92.75Q309.89 92.65 309.69 92.63Q309.49 92.61 309.29 92.61Q308.50 92.61 307.97 93.35Q307.44 94.09 307.44 95.47L307.44 98M315.80 98.10Q314.76 98.10 314.17 97.59Q313.58 97.09 313.58 96.30Q313.58 95.35 314.26 94.85Q314.95 94.35 316.45 94.20L317.80 94.06L317.80 93.84Q317.80 93.21 317.38 92.86Q316.96 92.51 316.28 92.51Q315.63 92.51 315.21 92.84Q314.80 93.17 314.70 93.84L313.69 93.66Q313.84 92.76 314.52 92.18Q315.20 91.60 316.28 91.60Q317.04 91.60 317.62 91.88Q318.20 92.16 318.54 92.69Q318.88 93.21 318.88 93.95L318.88 98L317.80 98L317.80 96.95Q317.68 97.25 317.38 97.51Q317.08 97.78 316.66 97.94Q316.25 98.10 315.80 98.10M317.80 95.19L317.80 94.89L316.51 95.04Q315.53 95.15 315.09 95.42Q314.65 95.69 314.65 96.26Q314.65 96.72 314.99 96.98Q315.33 97.24 315.89 97.24Q316.45 97.24 316.88 96.96Q317.31 96.67 317.56 96.21Q317.80 95.74 317.80 95.19M323.19 98.10Q322.29 98.10 321.59 97.67Q320.89 97.25 320.48 96.51Q320.07 95.78 320.07 94.85Q320.07 93.91 320.48 93.17Q320.89 92.44 321.59 92.02Q322.29 91.60 323.19 91.60Q324.30 91.60 325.08 92.17Q325.86 92.74 326.02 93.71L324.96 93.88Q324.84 93.25 324.37 92.89Q323.90 92.53 323.19 92.53Q322.61 92.53 322.16 92.83Q321.70 93.13 321.43 93.64Q321.16 94.16 321.16 94.85Q321.16 95.53 321.43 96.04Q321.70 96.56 322.16 96.86Q322.61 97.16 323.19 97.16Q323.94 97.16 324.43 96.79Q324.91 96.42 325 95.81L326.09 95.94Q326 96.58 325.61 97.06Q325.21 97.55 324.59 97.83Q323.98 98.10 323.19 98.10M329.54 98.10Q328.72 98.10 328.19 97.60Q327.66 97.10 327.66 96.14L327.66 92.59L326.60 92.59L326.60 91.70L327.66 91.70L327.66 90.10L328.74 90.10L328.74 91.70L330.34 91.70L330.34 92.59L328.74 92.59L328.74 96.05Q328.74 96.60 328.99 96.88Q329.24 97.15 329.66 97.15Q329.99 97.15 330.32 97.03L330.41 97.94Q330.24 98.03 329.99 98.06Q329.75 98.10 329.54 98.10M332.52 98L331.45 98L331.45 91.70L332.52 91.70L332.52 98M331.99 90.60Q331.66 90.60 331.44 90.39Q331.22 90.17 331.22 89.85Q331.22 89.53 331.44 89.31Q331.66 89.10 331.99 89.10Q332.32 89.10 332.54 89.31Q332.76 89.53 332.76 89.85Q332.76 90.17 332.54 90.39Q332.32 90.60 331.99 90.60M337 98.10Q336.07 98.10 335.36 97.68Q334.64 97.26 334.22 96.53Q333.81 95.80 333.81 94.85Q333.81 93.90 334.22 93.17Q334.64 92.44 335.36 92.02Q336.07 91.60 337 91.60Q337.92 91.60 338.64 92.02Q339.36 92.44 339.77 93.17Q340.19 93.90 340.19 94.85Q340.19 95.80 339.77 96.53Q339.36 97.26 338.64 97.68Q337.92 98.10 337 98.10M337 97.16Q337.61 97.16 338.09 96.87Q338.56 96.58 338.83 96.05Q339.10 95.53 339.10 94.85Q339.10 94.16 338.83 93.64Q338.56 93.11 338.09 92.82Q337.61 92.53 337 92.53Q336.39 92.53 335.91 92.82Q335.44 93.11 335.17 93.64Q334.90 94.16 334.90 94.85Q334.90 95.53 335.17 96.05Q335.44 96.58 335.91 96.87Q336.39 97.16 337 97.16M342.55 98L341.49 98L341.49 91.70L342.55 91.70L342.55 92.79Q342.84 92.30 343.42 91.95Q344 91.60 344.79 91.60Q345.45 91.60 345.97 91.87Q346.50 92.14 346.81 92.64Q347.11 93.15 347.11 93.88L347.11 98L346.05 98L346.05 94.11Q346.05 93.35 345.65 92.94Q345.25 92.54 344.57 92.54Q343.65 92.54 343.10 93.29Q342.55 94.04 342.55 95.30" fill="#262d1e"/>
    <path d="M596.04 178L594.98 178L594.98 171.70L596.04 171.70L596.04 172.79Q596.33 172.30 596.91 171.95Q597.49 171.60 598.27 171.60Q598.94 171.60 599.46 171.87Q599.99 172.14 600.29 172.64Q600.60 173.15 600.60 173.88L600.60 178L599.54 178L599.54 174.11Q599.54 173.35 599.14 172.94Q598.74 172.54 598.06 172.54Q597.14 172.54 596.59 173.29Q596.04 174.04 596.04 175.30L596.04 178M605.03 178.10Q604.10 178.10 603.38 177.68Q602.66 177.26 602.25 176.53Q601.84 175.80 601.84 174.85Q601.84 173.90 602.25 173.17Q602.66 172.44 603.38 172.02Q604.10 171.60 605.03 171.60Q605.95 171.60 606.67 172.02Q607.39 172.44 607.80 173.17Q608.21 173.90 608.21 174.85Q608.21 175.80 607.80 176.53Q607.39 177.26 606.67 177.68Q605.95 178.10 605.03 178.10M605.03 177.16Q605.64 177.16 606.11 176.87Q606.59 176.57 606.86 176.05Q607.13 175.53 607.13 174.85Q607.13 174.16 606.86 173.64Q606.59 173.11 606.11 172.82Q605.64 172.53 605.03 172.53Q604.41 172.53 603.94 172.82Q603.46 173.11 603.19 173.64Q602.93 174.16 602.93 174.85Q602.93 175.53 603.19 176.05Q603.46 176.57 603.94 176.87Q604.41 177.16 605.03 177.16M611.74 178.10Q610.93 178.10 610.39 177.60Q609.86 177.10 609.86 176.14L609.86 172.59L608.80 172.59L608.80 171.70L609.86 171.70L609.86 170.10L610.94 170.10L610.94 171.70L612.54 171.70L612.54 172.59L610.94 172.59L610.94 176.05Q610.94 176.60 611.19 176.88Q611.44 177.15 611.86 177.15Q612.19 177.15 612.52 177.03L612.61 177.94Q612.44 178.03 612.19 178.06Q611.95 178.10 611.74 178.10M614.73 178L613.65 178L613.65 171.70L614.73 171.70L614.73 178M614.19 170.60Q613.86 170.60 613.64 170.39Q613.42 170.18 613.42 169.85Q613.42 169.53 613.64 169.31Q613.86 169.10 614.19 169.10Q614.52 169.10 614.74 169.31Q614.96 169.53 614.96 169.85Q614.96 170.18 614.74 170.39Q614.52 170.60 614.19 170.60M617.89 178L616.81 178L616.81 172.59L615.75 172.59L615.75 171.70L616.81 171.70L616.81 170.97Q616.81 169.97 617.34 169.47Q617.88 168.97 618.69 168.97Q618.92 168.97 619.16 169.02Q619.39 169.06 619.56 169.13L619.48 170.06Q619.31 169.97 619.14 169.94Q618.98 169.91 618.81 169.91Q618.39 169.91 618.14 170.19Q617.89 170.47 617.89 171.03L617.89 171.70L619.49 171.70L619.49 172.59L617.89 172.59L617.89 178M622.41 180.28L621.30 180.28L622.23 178L619.78 171.70L620.93 171.70L622.78 176.61L624.63 171.70L625.75 171.70" fill="#262d1e"/>
    <path d="M567.88 210.10Q566.84 210.10 566.24 209.59Q565.65 209.09 565.65 208.30Q565.65 207.35 566.34 206.85Q567.02 206.35 568.52 206.20L569.88 206.06L569.88 205.84Q569.88 205.21 569.46 204.86Q569.04 204.51 568.35 204.51Q567.70 204.51 567.29 204.84Q566.88 205.18 566.77 205.84L565.76 205.66Q565.91 204.76 566.59 204.18Q567.27 203.60 568.35 203.60Q569.11 203.60 569.69 203.88Q570.27 204.16 570.61 204.69Q570.95 205.21 570.95 205.95L570.95 210L569.88 210L569.88 208.95Q569.75 209.25 569.45 209.51Q569.15 209.78 568.74 209.94Q568.32 210.10 567.88 210.10M569.88 207.19L569.88 206.89L568.59 207.04Q567.60 207.15 567.16 207.42Q566.72 207.69 566.72 208.26Q566.72 208.72 567.06 208.98Q567.40 209.24 567.96 209.24Q568.52 209.24 568.96 208.96Q569.39 208.68 569.63 208.21Q569.88 207.74 569.88 207.19M573.62 212.28L572.55 212.28L572.55 203.70L573.62 203.70L573.62 204.72Q573.91 204.21 574.51 203.91Q575.10 203.60 575.80 203.60Q576.75 203.60 577.45 204.01Q578.15 204.41 578.54 205.14Q578.94 205.88 578.94 206.85Q578.94 207.82 578.54 208.56Q578.15 209.29 577.45 209.69Q576.75 210.10 575.80 210.10Q575.11 210.10 574.51 209.79Q573.91 209.47 573.62 208.96L573.62 212.28M575.74 209.18Q576.35 209.18 576.82 208.88Q577.30 208.59 577.57 208.06Q577.85 207.54 577.85 206.85Q577.85 206.16 577.57 205.64Q577.30 205.11 576.82 204.82Q576.35 204.53 575.74 204.53Q575.12 204.53 574.64 204.82Q574.16 205.11 573.89 205.64Q573.62 206.16 573.62 206.85Q573.62 207.53 573.89 208.05Q574.16 208.57 574.64 208.88Q575.12 209.18 575.74 209.18M581.32 212.28L580.25 212.28L580.25 203.70L581.32 203.70L581.32 204.72Q581.61 204.21 582.21 203.91Q582.80 203.60 583.50 203.60Q584.45 203.60 585.15 204.01Q585.85 204.41 586.24 205.14Q586.64 205.88 586.64 206.85Q586.64 207.82 586.24 208.56Q585.85 209.29 585.15 209.69Q584.45 210.10 583.50 210.10Q582.81 210.10 582.21 209.79Q581.61 209.47 581.32 208.96L581.32 212.28M583.44 209.18Q584.05 209.18 584.52 208.88Q585 208.59 585.27 208.06Q585.55 207.54 585.55 206.85Q585.55 206.16 585.27 205.64Q585 205.11 584.52 204.82Q584.05 204.53 583.44 204.53Q582.82 204.53 582.34 204.82Q581.86 205.11 581.59 205.64Q581.32 206.16 581.32 206.85Q581.32 207.53 581.59 208.05Q581.86 208.57 582.34 208.88Q582.82 209.18 583.44 209.18M589.01 210L587.95 210L587.95 203.70L589.01 203.70L589.01 204.81Q589.30 204.21 589.83 203.91Q590.36 203.60 590.98 203.60Q591.18 203.60 591.39 203.63Q591.60 203.66 591.75 203.74L591.68 204.75Q591.46 204.65 591.26 204.63Q591.06 204.61 590.86 204.61Q590.08 204.61 589.54 205.35Q589.01 206.09 589.01 207.47L589.01 210M595.48 210.10Q594.55 210.10 593.83 209.68Q593.11 209.26 592.70 208.53Q592.29 207.80 592.29 206.85Q592.29 205.90 592.70 205.17Q593.11 204.44 593.83 204.02Q594.55 203.60 595.48 203.60Q596.40 203.60 597.12 204.02Q597.84 204.44 598.25 205.17Q598.66 205.90 598.66 206.85Q598.66 207.80 598.25 208.53Q597.84 209.26 597.12 209.68Q596.40 210.10 595.48 210.10M595.48 209.16Q596.09 209.16 596.56 208.87Q597.04 208.57 597.31 208.05Q597.57 207.53 597.57 206.85Q597.57 206.16 597.31 205.64Q597.04 205.11 596.56 204.82Q596.09 204.53 595.48 204.53Q594.86 204.53 594.39 204.82Q593.91 205.11 593.64 205.64Q593.38 206.16 593.38 206.85Q593.38 207.53 593.64 208.05Q593.91 208.57 594.39 208.87Q594.86 209.16 595.48 209.16M602.77 210L601.71 210L599.24 203.70L600.40 203.70L602.26 208.63L604.14 203.70L605.25 203.70L602.77 210M608.95 210.10Q608.02 210.10 607.32 209.68Q606.61 209.26 606.22 208.53Q605.83 207.80 605.83 206.85Q605.83 205.90 606.23 205.17Q606.63 204.44 607.32 204.02Q608.01 203.60 608.91 203.60Q609.88 203.60 610.56 204.06Q611.25 204.51 611.59 205.28Q611.92 206.04 611.80 206.99L606.91 206.99Q606.96 207.96 607.51 208.57Q608.06 209.18 608.95 209.18Q609.63 209.18 610.14 208.81Q610.65 208.45 610.77 207.94L611.75 208.19Q611.54 209.04 610.77 209.57Q610.01 210.10 608.95 210.10M606.99 206.14L610.71 206.14Q610.70 205.39 610.20 204.95Q609.70 204.51 608.91 204.51Q608.17 204.51 607.66 204.94Q607.15 205.38 606.99 206.14M616.01 210L614.92 210L618.85 201.25L619.95 201.25L616.01 210M624.50 210L623.44 210L623.44 203.70L624.50 203.70L624.50 204.81Q624.79 204.21 625.32 203.91Q625.85 203.60 626.46 203.60Q626.66 203.60 626.88 203.63Q627.09 203.66 627.24 203.74L627.16 204.75Q626.95 204.65 626.75 204.63Q626.55 204.61 626.35 204.61Q625.56 204.61 625.03 205.35Q624.50 206.09 624.50 207.47L624.50 210M630.90 210.10Q629.97 210.10 629.27 209.68Q628.56 209.26 628.17 208.53Q627.77 207.80 627.77 206.85Q627.77 205.90 628.17 205.17Q628.57 204.44 629.27 204.02Q629.96 203.60 630.86 203.60Q631.82 203.60 632.51 204.06Q633.20 204.51 633.54 205.28Q633.87 206.04 633.75 206.99L628.86 206.99Q628.91 207.96 629.46 208.57Q630.01 209.18 630.90 209.18Q631.57 209.18 632.09 208.81Q632.60 208.45 632.72 207.94L633.70 208.19Q633.49 209.04 632.72 209.57Q631.96 210.10 630.90 210.10M628.94 206.14L632.66 206.14Q632.65 205.39 632.15 204.95Q631.65 204.51 630.86 204.51Q630.12 204.51 629.61 204.94Q629.10 205.38 628.94 206.14M634.47 212.38Q634.22 212.38 634.01 212.34L634.06 211.41Q634.11 211.43 634.20 211.44Q634.29 211.45 634.35 211.45Q634.76 211.45 634.92 211.16Q635.07 210.88 635.07 210.36L635.07 203.70L636.15 203.70L636.15 210.49Q636.15 211.39 635.74 211.88Q635.32 212.38 634.47 212.38M635.60 202.60Q635.27 202.60 635.06 202.39Q634.84 202.18 634.84 201.85Q634.84 201.53 635.06 201.31Q635.27 201.10 635.60 201.10Q635.94 201.10 636.16 201.31Q636.38 201.53 636.38 201.85Q636.38 202.18 636.16 202.39Q635.94 202.60 635.60 202.60M640.56 210.10Q639.64 210.10 638.93 209.68Q638.22 209.26 637.83 208.53Q637.44 207.80 637.44 206.85Q637.44 205.90 637.84 205.17Q638.24 204.44 638.93 204.02Q639.63 203.60 640.52 203.60Q641.49 203.60 642.17 204.06Q642.86 204.51 643.20 205.28Q643.54 206.04 643.41 206.99L638.52 206.99Q638.57 207.96 639.13 208.57Q639.67 209.18 640.56 209.18Q641.24 209.18 641.75 208.81Q642.26 208.45 642.39 207.94L643.36 208.19Q643.15 209.04 642.39 209.57Q641.63 210.10 640.56 210.10M638.60 206.14L642.32 206.14Q642.31 205.39 641.81 204.95Q641.31 204.51 640.52 204.51Q639.79 204.51 639.27 204.94Q638.76 205.38 638.60 206.14M647.46 210.10Q646.56 210.10 645.86 209.68Q645.16 209.25 644.76 208.51Q644.35 207.78 644.35 206.85Q644.35 205.91 644.76 205.18Q645.16 204.44 645.86 204.02Q646.56 203.60 647.46 203.60Q648.57 203.60 649.36 204.17Q650.14 204.74 650.30 205.71L649.24 205.88Q649.11 205.25 648.64 204.89Q648.17 204.53 647.46 204.53Q646.89 204.53 646.43 204.82Q645.98 205.13 645.71 205.64Q645.44 206.16 645.44 206.85Q645.44 207.53 645.71 208.04Q645.98 208.56 646.43 208.86Q646.89 209.16 647.46 209.16Q648.21 209.16 648.70 208.79Q649.19 208.43 649.27 207.81L650.36 207.94Q650.27 208.57 649.88 209.06Q649.49 209.55 648.87 209.82Q648.25 210.10 647.46 210.10M653.81 210.10Q653 210.10 652.47 209.60Q651.94 209.10 651.94 208.14L651.94 204.59L650.88 204.59L650.88 203.70L651.94 203.70L651.94 202.10L653.01 202.10L653.01 203.70L654.61 203.70L654.61 204.59L653.01 204.59L653.01 208.05Q653.01 208.60 653.26 208.88Q653.51 209.15 653.94 209.15Q654.26 209.15 654.60 209.03L654.69 209.94Q654.51 210.03 654.27 210.06Q654.02 210.10 653.81 210.10" fill="#686c62"/>
    <path d="M526.76 260.10Q525.73 260.10 525.13 259.59Q524.54 259.09 524.54 258.30Q524.54 257.35 525.23 256.85Q525.91 256.35 527.41 256.20L528.76 256.06L528.76 255.84Q528.76 255.21 528.34 254.86Q527.92 254.51 527.24 254.51Q526.59 254.51 526.17 254.84Q525.76 255.18 525.66 255.84L524.65 255.66Q524.80 254.76 525.48 254.18Q526.16 253.60 527.24 253.60Q528 253.60 528.58 253.88Q529.16 254.16 529.50 254.69Q529.84 255.21 529.84 255.95L529.84 260L528.76 260L528.76 258.95Q528.64 259.25 528.34 259.51Q528.04 259.77 527.63 259.94Q527.21 260.10 526.76 260.10M528.76 257.19L528.76 256.89L527.48 257.04Q526.49 257.15 526.05 257.42Q525.61 257.69 525.61 258.26Q525.61 258.73 525.95 258.98Q526.29 259.24 526.85 259.24Q527.41 259.24 527.84 258.96Q528.27 258.68 528.52 258.21Q528.76 257.74 528.76 257.19M532.51 262.27L531.44 262.27L531.44 253.70L532.51 253.70L532.51 254.72Q532.80 254.21 533.39 253.91Q533.99 253.60 534.69 253.60Q535.64 253.60 536.34 254.01Q537.04 254.41 537.43 255.14Q537.82 255.88 537.82 256.85Q537.82 257.82 537.43 258.56Q537.04 259.29 536.34 259.69Q535.64 260.10 534.69 260.10Q534 260.10 533.40 259.79Q532.80 259.48 532.51 258.96L532.51 262.27M534.63 259.18Q535.24 259.18 535.71 258.88Q536.19 258.59 536.46 258.06Q536.74 257.54 536.74 256.85Q536.74 256.16 536.46 255.64Q536.19 255.11 535.71 254.82Q535.24 254.53 534.63 254.53Q534.01 254.53 533.53 254.82Q533.05 255.11 532.78 255.64Q532.51 256.16 532.51 256.85Q532.51 257.52 532.78 258.05Q533.05 258.57 533.53 258.88Q534.01 259.18 534.63 259.18M540.21 262.27L539.14 262.27L539.14 253.70L540.21 253.70L540.21 254.72Q540.50 254.21 541.09 253.91Q541.69 253.60 542.39 253.60Q543.34 253.60 544.04 254.01Q544.74 254.41 545.13 255.14Q545.52 255.88 545.52 256.85Q545.52 257.82 545.13 258.56Q544.74 259.29 544.04 259.69Q543.34 260.10 542.39 260.10Q541.70 260.10 541.10 259.79Q540.50 259.48 540.21 258.96L540.21 262.27M542.33 259.18Q542.94 259.18 543.41 258.88Q543.89 258.59 544.16 258.06Q544.44 257.54 544.44 256.85Q544.44 256.16 544.16 255.64Q543.89 255.11 543.41 254.82Q542.94 254.53 542.33 254.53Q541.71 254.53 541.23 254.82Q540.75 255.11 540.48 255.64Q540.21 256.16 540.21 256.85Q540.21 257.52 540.48 258.05Q540.75 258.57 541.23 258.88Q541.71 259.18 542.33 259.18M547.90 260L546.84 260L546.84 253.70L547.90 253.70L547.90 254.81Q548.19 254.21 548.72 253.91Q549.25 253.60 549.86 253.60Q550.06 253.60 550.28 253.63Q550.49 253.66 550.64 253.74L550.56 254.75Q550.35 254.65 550.15 254.63Q549.95 254.61 549.75 254.61Q548.96 254.61 548.43 255.35Q547.90 256.09 547.90 257.48L547.90 260M554.36 260.10Q553.44 260.10 552.72 259.68Q552 259.26 551.59 258.53Q551.18 257.80 551.18 256.85Q551.18 255.90 551.59 255.17Q552 254.44 552.72 254.02Q553.44 253.60 554.36 253.60Q555.29 253.60 556.01 254.02Q556.73 254.44 557.14 255.17Q557.55 255.90 557.55 256.85Q557.55 257.80 557.14 258.53Q556.73 259.26 556.01 259.68Q555.29 260.10 554.36 260.10M554.36 259.16Q554.98 259.16 555.45 258.87Q555.93 258.57 556.19 258.05Q556.46 257.52 556.46 256.85Q556.46 256.16 556.19 255.64Q555.93 255.11 555.45 254.82Q554.98 254.53 554.36 254.53Q553.75 254.53 553.27 254.82Q552.80 255.11 552.53 255.64Q552.26 256.16 552.26 256.85Q552.26 257.52 552.53 258.05Q552.80 258.57 553.27 258.87Q553.75 259.16 554.36 259.16M561.66 260L560.60 260L558.13 253.70L559.29 253.70L561.15 258.63L563.02 253.70L564.14 253.70L561.66 260M567.84 260.10Q566.91 260.10 566.21 259.68Q565.50 259.26 565.11 258.53Q564.71 257.80 564.71 256.85Q564.71 255.90 565.11 255.17Q565.51 254.44 566.21 254.02Q566.90 253.60 567.80 253.60Q568.76 253.60 569.45 254.06Q570.14 254.51 570.48 255.28Q570.81 256.04 570.69 256.99L565.80 256.99Q565.85 257.96 566.40 258.57Q566.95 259.18 567.84 259.18Q568.51 259.18 569.03 258.81Q569.54 258.45 569.66 257.94L570.64 258.19Q570.43 259.04 569.66 259.57Q568.90 260.10 567.84 260.10M565.88 256.14L569.60 256.14Q569.59 255.39 569.09 254.95Q568.59 254.51 567.80 254.51Q567.06 254.51 566.55 254.94Q566.04 255.38 565.88 256.14M574.76 260.10Q573.83 260.10 573.12 259.69Q572.41 259.29 572.02 258.56Q571.63 257.82 571.63 256.85Q571.63 255.88 572.02 255.14Q572.41 254.41 573.12 254.01Q573.83 253.60 574.76 253.60Q575.46 253.60 576.06 253.91Q576.66 254.21 576.94 254.72L576.94 251.15L578.01 251.15L578.01 260L576.94 260L576.94 258.96Q576.66 259.48 576.06 259.79Q575.46 260.10 574.76 260.10M574.83 259.18Q575.45 259.18 575.93 258.88Q576.40 258.57 576.67 258.05Q576.94 257.52 576.94 256.85Q576.94 256.16 576.67 255.64Q576.40 255.11 575.93 254.82Q575.45 254.53 574.83 254.53Q574.23 254.53 573.74 254.82Q573.26 255.11 572.99 255.64Q572.71 256.16 572.71 256.85Q572.71 257.54 572.99 258.06Q573.26 258.59 573.74 258.88Q574.23 259.18 574.83 259.18M590.09 256.59L586.65 260.04L586.02 259.45L588.46 257.04L582.15 257.04L582.15 256.14L588.46 256.14L586.01 253.72L586.64 253.14L590.09 256.59M596.95 260.10Q596.02 260.10 595.32 259.68Q594.61 259.26 594.22 258.53Q593.83 257.80 593.83 256.85Q593.83 255.90 594.23 255.17Q594.63 254.44 595.32 254.02Q596.01 253.60 596.91 253.60Q597.88 253.60 598.56 254.06Q599.25 254.51 599.59 255.28Q599.92 256.04 599.80 256.99L594.91 256.99Q594.96 257.96 595.51 258.57Q596.06 259.18 596.95 259.18Q597.63 259.18 598.14 258.81Q598.65 258.45 598.77 257.94L599.75 258.19Q599.54 259.04 598.77 259.57Q598.01 260.10 596.95 260.10M594.99 256.14L598.71 256.14Q598.70 255.39 598.20 254.95Q597.70 254.51 596.91 254.51Q596.17 254.51 595.66 254.94Q595.15 255.38 594.99 256.14M606 260L604.76 260L603.15 257.64L601.55 260L600.33 260L602.54 256.73L600.48 253.70L601.73 253.70L603.16 255.81L604.59 253.70L605.81 253.70L603.77 256.71L606 260M609.60 260.10Q608.67 260.10 607.97 259.68Q607.26 259.26 606.87 258.53Q606.48 257.80 606.48 256.85Q606.48 255.90 606.88 255.17Q607.27 254.44 607.97 254.02Q608.66 253.60 609.56 253.60Q610.52 253.60 611.21 254.06Q611.90 254.51 612.24 255.28Q612.57 256.04 612.45 256.99L607.56 256.99Q607.61 257.96 608.16 258.57Q608.71 259.18 609.60 259.18Q610.27 259.18 610.79 258.81Q611.30 258.45 611.42 257.94L612.40 258.19Q612.19 259.04 611.42 259.57Q610.66 260.10 609.60 260.10M607.64 256.14L611.36 256.14Q611.35 255.39 610.85 254.95Q610.35 254.51 609.56 254.51Q608.82 254.51 608.31 254.94Q607.80 255.38 607.64 256.14M616.50 260.10Q615.60 260.10 614.90 259.68Q614.20 259.25 613.79 258.51Q613.39 257.77 613.39 256.85Q613.39 255.91 613.79 255.18Q614.20 254.44 614.90 254.02Q615.60 253.60 616.50 253.60Q617.61 253.60 618.39 254.17Q619.17 254.74 619.34 255.71L618.27 255.88Q618.15 255.25 617.68 254.89Q617.21 254.53 616.50 254.53Q615.92 254.53 615.47 254.82Q615.01 255.13 614.74 255.64Q614.48 256.16 614.48 256.85Q614.48 257.52 614.74 258.04Q615.01 258.56 615.47 258.86Q615.92 259.16 616.50 259.16Q617.25 259.16 617.74 258.79Q618.23 258.43 618.31 257.81L619.40 257.94Q619.31 258.57 618.92 259.06Q618.52 259.55 617.91 259.82Q617.29 260.10 616.50 260.10M622.89 260.10Q622.23 260.10 621.69 259.83Q621.16 259.56 620.86 259.06Q620.55 258.56 620.55 257.84L620.55 253.70L621.63 253.70L621.63 257.59Q621.63 258.35 622.02 258.76Q622.42 259.16 623.09 259.16Q624.02 259.16 624.57 258.41Q625.13 257.66 625.13 256.40L625.13 253.70L626.19 253.70L626.19 260L625.13 260L625.13 258.91Q624.82 259.40 624.25 259.75Q623.67 260.10 622.89 260.10M630.11 260.10Q629.30 260.10 628.77 259.60Q628.24 259.10 628.24 258.14L628.24 254.59L627.18 254.59L627.18 253.70L628.24 253.70L628.24 252.10L629.31 252.10L629.31 253.70L630.91 253.70L630.91 254.59L629.31 254.59L629.31 258.05Q629.31 258.60 629.56 258.88Q629.81 259.15 630.24 259.15Q630.56 259.15 630.90 259.02L630.99 259.94Q630.81 260.02 630.57 260.06Q630.33 260.10 630.11 260.10M634.76 260.10Q633.84 260.10 633.13 259.68Q632.42 259.26 632.03 258.53Q631.64 257.80 631.64 256.85Q631.64 255.90 632.04 255.17Q632.44 254.44 633.13 254.02Q633.83 253.60 634.73 253.60Q635.69 253.60 636.38 254.06Q637.06 254.51 637.40 255.28Q637.74 256.04 637.61 256.99L632.73 256.99Q632.77 257.96 633.33 258.57Q633.88 259.18 634.76 259.18Q635.44 259.18 635.95 258.81Q636.46 258.45 636.59 257.94L637.56 258.19Q637.35 259.04 636.59 259.57Q635.83 260.10 634.76 260.10M632.80 256.14L636.52 256.14Q636.51 255.39 636.01 254.95Q635.51 254.51 634.73 254.51Q633.99 254.51 633.48 254.94Q632.96 255.38 632.80 256.14" fill="#262d1e"/>
    <path d="M525.91 306L524.85 306L524.85 299.70L525.91 299.70L525.91 300.81Q526.20 300.21 526.73 299.91Q527.26 299.60 527.88 299.60Q528.08 299.60 528.29 299.63Q528.50 299.66 528.65 299.74L528.58 300.75Q528.36 300.65 528.16 300.63Q527.96 300.61 527.76 300.61Q526.98 300.61 526.44 301.35Q525.91 302.09 525.91 303.48L525.91 306M532.31 306.10Q531.39 306.10 530.68 305.68Q529.97 305.26 529.58 304.53Q529.19 303.80 529.19 302.85Q529.19 301.90 529.59 301.17Q529.99 300.44 530.68 300.02Q531.38 299.60 532.27 299.60Q533.24 299.60 533.92 300.06Q534.61 300.51 534.95 301.27Q535.29 302.04 535.16 302.99L530.27 302.99Q530.32 303.96 530.88 304.57Q531.42 305.18 532.31 305.18Q532.99 305.18 533.50 304.81Q534.01 304.45 534.14 303.94L535.11 304.19Q534.90 305.04 534.14 305.57Q533.38 306.10 532.31 306.10M530.35 302.14L534.07 302.14Q534.06 301.39 533.56 300.95Q533.06 300.51 532.27 300.51Q531.54 300.51 531.02 300.94Q530.51 301.38 530.35 302.14M535.89 308.38Q535.64 308.38 535.42 308.34L535.48 307.41Q535.52 307.43 535.61 307.44Q535.70 307.45 535.76 307.45Q536.17 307.45 536.33 307.16Q536.49 306.88 536.49 306.36L536.49 299.70L537.56 299.70L537.56 306.49Q537.56 307.39 537.15 307.88Q536.74 308.38 535.89 308.38M537.01 298.60Q536.69 298.60 536.47 298.39Q536.25 298.18 536.25 297.85Q536.25 297.52 536.47 297.31Q536.69 297.10 537.01 297.10Q537.35 297.10 537.57 297.31Q537.79 297.52 537.79 297.85Q537.79 298.18 537.57 298.39Q537.35 298.60 537.01 298.60M541.98 306.10Q541.05 306.10 540.34 305.68Q539.64 305.26 539.24 304.53Q538.85 303.80 538.85 302.85Q538.85 301.90 539.25 301.17Q539.65 300.44 540.34 300.02Q541.04 299.60 541.94 299.60Q542.90 299.60 543.59 300.06Q544.27 300.51 544.61 301.27Q544.95 302.04 544.82 302.99L539.94 302.99Q539.99 303.96 540.54 304.57Q541.09 305.18 541.98 305.18Q542.65 305.18 543.16 304.81Q543.67 304.45 543.80 303.94L544.77 304.19Q544.56 305.04 543.80 305.57Q543.04 306.10 541.98 306.10M540.01 302.14L543.74 302.14Q543.73 301.39 543.23 300.95Q542.73 300.51 541.94 300.51Q541.20 300.51 540.69 300.94Q540.17 301.38 540.01 302.14M548.88 306.10Q547.98 306.10 547.27 305.68Q546.58 305.25 546.17 304.51Q545.76 303.77 545.76 302.85Q545.76 301.91 546.17 301.18Q546.58 300.44 547.27 300.02Q547.98 299.60 548.88 299.60Q549.99 299.60 550.77 300.17Q551.55 300.74 551.71 301.71L550.65 301.88Q550.52 301.25 550.06 300.89Q549.59 300.52 548.88 300.52Q548.30 300.52 547.84 300.82Q547.39 301.13 547.12 301.64Q546.85 302.16 546.85 302.85Q546.85 303.52 547.12 304.04Q547.39 304.56 547.84 304.86Q548.30 305.16 548.88 305.16Q549.63 305.16 550.11 304.79Q550.60 304.43 550.69 303.81L551.77 303.94Q551.69 304.57 551.29 305.06Q550.90 305.55 550.28 305.82Q549.66 306.10 548.88 306.10M555.23 306.10Q554.41 306.10 553.88 305.60Q553.35 305.10 553.35 304.14L553.35 300.59L552.29 300.59L552.29 299.70L553.35 299.70L553.35 298.10L554.42 298.10L554.42 299.70L556.02 299.70L556.02 300.59L554.42 300.59L554.42 304.05Q554.42 304.60 554.67 304.88Q554.92 305.15 555.35 305.15Q555.67 305.15 556.01 305.02L556.10 305.94Q555.92 306.02 555.68 306.06Q555.44 306.10 555.23 306.10M559.88 306.10Q558.95 306.10 558.24 305.68Q557.54 305.26 557.14 304.53Q556.75 303.80 556.75 302.85Q556.75 301.90 557.15 301.17Q557.55 300.44 558.24 300.02Q558.94 299.60 559.84 299.60Q560.80 299.60 561.49 300.06Q562.17 300.51 562.51 301.27Q562.85 302.04 562.72 302.99L557.84 302.99Q557.89 303.96 558.44 304.57Q558.99 305.18 559.88 305.18Q560.55 305.18 561.06 304.81Q561.57 304.45 561.70 303.94L562.67 304.19Q562.46 305.04 561.70 305.57Q560.94 306.10 559.88 306.10M557.91 302.14L561.64 302.14Q561.63 301.39 561.13 300.95Q560.63 300.51 559.84 300.51Q559.10 300.51 558.59 300.94Q558.07 301.38 557.91 302.14M566.80 306.10Q565.86 306.10 565.16 305.69Q564.45 305.29 564.06 304.56Q563.66 303.82 563.66 302.85Q563.66 301.88 564.06 301.14Q564.45 300.41 565.16 300.01Q565.86 299.60 566.80 299.60Q567.50 299.60 568.10 299.91Q568.70 300.21 568.98 300.73L568.98 297.15L570.05 297.15L570.05 306L568.98 306L568.98 304.96Q568.70 305.48 568.10 305.79Q567.50 306.10 566.80 306.10M566.86 305.18Q567.49 305.18 567.96 304.88Q568.44 304.57 568.71 304.05Q568.98 303.52 568.98 302.85Q568.98 302.16 568.71 301.64Q568.44 301.11 567.96 300.82Q567.49 300.52 566.86 300.52Q566.26 300.52 565.78 300.82Q565.30 301.11 565.02 301.64Q564.75 302.16 564.75 302.85Q564.75 303.54 565.02 304.06Q565.30 304.59 565.78 304.88Q566.26 305.18 566.86 305.18M582.12 302.59L578.69 306.04L578.06 305.45L580.50 303.04L574.19 303.04L574.19 302.14L580.50 302.14L578.05 299.73L578.67 299.14L582.12 302.59M588.97 306.10Q588.07 306.10 587.37 305.68Q586.67 305.25 586.27 304.51Q585.86 303.77 585.86 302.85Q585.86 301.91 586.27 301.18Q586.67 300.44 587.37 300.02Q588.07 299.60 588.97 299.60Q590.09 299.60 590.87 300.17Q591.65 300.74 591.81 301.71L590.75 301.88Q590.62 301.25 590.16 300.89Q589.69 300.52 588.97 300.52Q588.40 300.52 587.94 300.82Q587.49 301.13 587.22 301.64Q586.95 302.16 586.95 302.85Q586.95 303.52 587.22 304.04Q587.49 304.56 587.94 304.86Q588.40 305.16 588.97 305.16Q589.72 305.16 590.21 304.79Q590.70 304.43 590.79 303.81L591.87 303.94Q591.79 304.57 591.39 305.06Q591 305.55 590.38 305.82Q589.76 306.10 588.97 306.10M595.01 306.10Q593.97 306.10 593.38 305.59Q592.79 305.09 592.79 304.30Q592.79 303.35 593.47 302.85Q594.16 302.35 595.66 302.20L597.01 302.06L597.01 301.84Q597.01 301.21 596.59 300.86Q596.17 300.51 595.49 300.51Q594.84 300.51 594.42 300.84Q594.01 301.18 593.91 301.84L592.90 301.66Q593.05 300.76 593.73 300.18Q594.41 299.60 595.49 299.60Q596.25 299.60 596.83 299.88Q597.41 300.16 597.75 300.69Q598.09 301.21 598.09 301.95L598.09 306L597.01 306L597.01 304.95Q596.89 305.25 596.59 305.51Q596.29 305.77 595.87 305.94Q595.46 306.10 595.01 306.10M597.01 303.19L597.01 302.89L595.72 303.04Q594.74 303.15 594.30 303.42Q593.86 303.69 593.86 304.26Q593.86 304.73 594.20 304.98Q594.54 305.24 595.10 305.24Q595.66 305.24 596.09 304.96Q596.52 304.68 596.77 304.21Q597.01 303.74 597.01 303.19M600.75 306L599.69 306L599.69 299.70L600.75 299.70L600.75 300.79Q601.04 300.30 601.62 299.95Q602.20 299.60 602.99 299.60Q603.65 299.60 604.17 299.87Q604.70 300.14 605.01 300.64Q605.31 301.15 605.31 301.88L605.31 306L604.25 306L604.25 302.11Q604.25 301.35 603.85 300.94Q603.45 300.54 602.77 300.54Q601.85 300.54 601.30 301.29Q600.75 302.04 600.75 303.30L600.75 306M609.66 306.10Q608.76 306.10 608.06 305.68Q607.36 305.25 606.96 304.51Q606.55 303.77 606.55 302.85Q606.55 301.91 606.96 301.18Q607.36 300.44 608.06 300.02Q608.76 299.60 609.66 299.60Q610.77 299.60 611.56 300.17Q612.34 300.74 612.50 301.71L611.44 301.88Q611.31 301.25 610.84 300.89Q610.37 300.52 609.66 300.52Q609.09 300.52 608.63 300.82Q608.17 301.13 607.91 301.64Q607.64 302.16 607.64 302.85Q607.64 303.52 607.91 304.04Q608.17 304.56 608.63 304.86Q609.09 305.16 609.66 305.16Q610.41 305.16 610.90 304.79Q611.39 304.43 611.47 303.81L612.56 303.94Q612.47 304.57 612.08 305.06Q611.69 305.55 611.07 305.82Q610.45 306.10 609.66 306.10M616.51 306.10Q615.59 306.10 614.88 305.68Q614.17 305.26 613.78 304.53Q613.39 303.80 613.39 302.85Q613.39 301.90 613.79 301.17Q614.19 300.44 614.88 300.02Q615.57 299.60 616.47 299.60Q617.44 299.60 618.12 300.06Q618.81 300.51 619.15 301.27Q619.49 302.04 619.36 302.99L614.47 302.99Q614.52 303.96 615.07 304.57Q615.62 305.18 616.51 305.18Q617.19 305.18 617.70 304.81Q618.21 304.45 618.34 303.94L619.31 304.19Q619.10 305.04 618.34 305.57Q617.57 306.10 616.51 306.10M614.55 302.14L618.27 302.14Q618.26 301.39 617.76 300.95Q617.26 300.51 616.47 300.51Q615.74 300.51 615.22 300.94Q614.71 301.38 614.55 302.14M621.76 306L620.69 306L620.69 297.15L621.76 297.15" fill="#686c62"/>
    <path d="M259.54 340L258.48 340L258.48 333.70L259.54 333.70L259.54 334.81Q259.82 334.21 260.36 333.91Q260.89 333.60 261.50 333.60Q261.70 333.60 261.91 333.63Q262.13 333.66 262.27 333.74L262.20 334.75Q261.99 334.65 261.79 334.63Q261.59 334.61 261.39 334.61Q260.60 334.61 260.07 335.35Q259.54 336.09 259.54 337.48L259.54 340M265.94 340.10Q265.01 340.10 264.31 339.68Q263.60 339.26 263.21 338.53Q262.81 337.80 262.81 336.85Q262.81 335.90 263.21 335.17Q263.61 334.44 264.31 334.02Q265 333.60 265.90 333.60Q266.86 333.60 267.55 334.06Q268.24 334.51 268.57 335.27Q268.91 336.04 268.79 336.99L263.90 336.99Q263.95 337.96 264.50 338.57Q265.05 339.18 265.94 339.18Q266.61 339.18 267.13 338.81Q267.64 338.45 267.76 337.94L268.74 338.19Q268.53 339.04 267.76 339.57Q267 340.10 265.94 340.10M263.98 336.14L267.70 336.14Q267.69 335.39 267.19 334.95Q266.69 334.51 265.90 334.51Q265.16 334.51 264.65 334.94Q264.14 335.38 263.98 336.14M272.19 340.10Q271.13 340.10 270.45 339.57Q269.78 339.04 269.58 338.24L270.55 337.93Q270.69 338.54 271.09 338.86Q271.50 339.19 272.19 339.19Q272.78 339.19 273.13 338.94Q273.49 338.69 273.49 338.20Q273.49 337.81 273.23 337.61Q272.96 337.40 272.55 337.27Q272.14 337.15 271.68 337.04Q271.23 336.93 270.81 336.74Q270.40 336.55 270.14 336.21Q269.88 335.88 269.88 335.30Q269.88 334.81 270.14 334.43Q270.41 334.05 270.90 333.82Q271.39 333.60 272.01 333.60Q272.94 333.60 273.59 334.02Q274.25 334.44 274.45 335.16L273.48 335.51Q273.33 334.96 272.94 334.74Q272.56 334.51 272.01 334.51Q271.55 334.51 271.24 334.70Q270.93 334.89 270.93 335.26Q270.93 335.61 271.19 335.79Q271.45 335.98 271.86 336.08Q272.28 336.19 272.74 336.30Q273.21 336.41 273.63 336.61Q274.04 336.81 274.30 337.18Q274.56 337.55 274.56 338.18Q274.56 338.74 274.25 339.18Q273.94 339.61 273.41 339.86Q272.88 340.10 272.19 340.10M278.10 340.10Q277.44 340.10 276.91 339.83Q276.38 339.56 276.07 339.06Q275.76 338.56 275.76 337.84L275.76 333.70L276.84 333.70L276.84 337.59Q276.84 338.35 277.24 338.76Q277.64 339.16 278.30 339.16Q279.24 339.16 279.79 338.41Q280.34 337.66 280.34 336.40L280.34 333.70L281.40 333.70L281.40 340L280.34 340L280.34 338.91Q280.04 339.40 279.46 339.75Q278.89 340.10 278.10 340.10M284.16 340L283.09 340L283.09 331.15L284.16 331.15L284.16 340M288.07 340.10Q287.26 340.10 286.73 339.60Q286.20 339.10 286.20 338.14L286.20 334.59L285.14 334.59L285.14 333.70L286.20 333.70L286.20 332.10L287.27 332.10L287.27 333.70L288.88 333.70L288.88 334.59L287.27 334.59L287.27 338.05Q287.27 338.60 287.52 338.88Q287.77 339.15 288.20 339.15Q288.52 339.15 288.86 339.02L288.95 339.94Q288.77 340.02 288.53 340.06Q288.29 340.10 288.07 340.10M295.96 338.61L295.06 338.61L295.06 336.04L292.47 336.04L292.47 335.14L295.06 335.14L295.06 332.56L295.96 332.56L295.96 335.14L298.55 335.14L298.55 336.04L295.96 336.04L295.96 338.61M304.64 340.10Q303.60 340.10 303.01 339.59Q302.41 339.09 302.41 338.30Q302.41 337.35 303.10 336.85Q303.79 336.35 305.29 336.20L306.64 336.06L306.64 335.84Q306.64 335.21 306.22 334.86Q305.80 334.51 305.11 334.51Q304.46 334.51 304.05 334.84Q303.64 335.18 303.54 335.84L302.52 335.66Q302.67 334.76 303.36 334.18Q304.04 333.60 305.11 333.60Q305.87 333.60 306.46 333.88Q307.04 334.16 307.37 334.69Q307.71 335.21 307.71 335.95L307.71 340L306.64 340L306.64 338.95Q306.51 339.25 306.21 339.51Q305.91 339.77 305.50 339.94Q305.09 340.10 304.64 340.10M306.64 337.19L306.64 336.89L305.35 337.04Q304.36 337.15 303.92 337.42Q303.49 337.69 303.49 338.26Q303.49 338.73 303.82 338.98Q304.16 339.24 304.72 339.24Q305.29 339.24 305.72 338.96Q306.15 338.68 306.39 338.21Q306.64 337.74 306.64 337.19M311.57 340.10Q310.91 340.10 310.38 339.83Q309.85 339.56 309.54 339.06Q309.24 338.56 309.24 337.84L309.24 333.70L310.31 333.70L310.31 337.59Q310.31 338.35 310.71 338.76Q311.11 339.16 311.77 339.16Q312.71 339.16 313.26 338.41Q313.81 337.66 313.81 336.40L313.81 333.70L314.87 333.70L314.87 340L313.81 340L313.81 338.91Q313.51 339.40 312.94 339.75Q312.36 340.10 311.57 340.10M319.31 340.10Q318.37 340.10 317.67 339.69Q316.96 339.29 316.57 338.56Q316.17 337.82 316.17 336.85Q316.17 335.88 316.57 335.14Q316.96 334.41 317.67 334.01Q318.37 333.60 319.31 333.60Q320.01 333.60 320.61 333.91Q321.21 334.21 321.49 334.73L321.49 331.15L322.56 331.15L322.56 340L321.49 340L321.49 338.96Q321.21 339.48 320.61 339.79Q320.01 340.10 319.31 340.10M319.37 339.18Q320 339.18 320.47 338.88Q320.95 338.57 321.22 338.05Q321.49 337.52 321.49 336.85Q321.49 336.16 321.22 335.64Q320.95 335.11 320.47 334.82Q320 334.52 319.37 334.52Q318.77 334.52 318.29 334.82Q317.81 335.11 317.54 335.64Q317.26 336.16 317.26 336.85Q317.26 337.54 317.54 338.06Q317.81 338.59 318.29 338.88Q318.77 339.18 319.37 339.18M325.31 340L324.24 340L324.24 333.70L325.31 333.70L325.31 340M324.77 332.60Q324.45 332.60 324.23 332.39Q324.01 332.18 324.01 331.85Q324.01 331.52 324.23 331.31Q324.45 331.10 324.77 331.10Q325.11 331.10 325.33 331.31Q325.55 331.52 325.55 331.85Q325.55 332.18 325.33 332.39Q325.11 332.60 324.77 332.60M329.22 340.10Q328.41 340.10 327.88 339.60Q327.35 339.10 327.35 338.14L327.35 334.59L326.29 334.59L326.29 333.70L327.35 333.70L327.35 332.10L328.42 332.10L328.42 333.70L330.02 333.70L330.02 334.59L328.42 334.59L328.42 338.05Q328.42 338.60 328.67 338.88Q328.92 339.15 329.35 339.15Q329.67 339.15 330.01 339.02L330.10 339.94Q329.92 340.02 329.68 340.06Q329.44 340.10 329.22 340.10M336.65 340.10Q335.72 340.10 335.02 339.68Q334.31 339.26 333.92 338.53Q333.52 337.80 333.52 336.85Q333.52 335.90 333.92 335.17Q334.32 334.44 335.02 334.02Q335.71 333.60 336.61 333.60Q337.57 333.60 338.26 334.06Q338.95 334.51 339.29 335.27Q339.62 336.04 339.50 336.99L334.61 336.99Q334.66 337.96 335.21 338.57Q335.76 339.18 336.65 339.18Q337.32 339.18 337.84 338.81Q338.35 338.45 338.47 337.94L339.45 338.19Q339.24 339.04 338.47 339.57Q337.71 340.10 336.65 340.10M334.69 336.14L338.41 336.14Q338.40 335.39 337.90 334.95Q337.40 334.51 336.61 334.51Q335.87 334.51 335.36 334.94Q334.85 335.38 334.69 336.14M341.90 340L340.84 340L340.84 333.70L341.90 333.70L341.90 334.79Q342.19 334.30 342.77 333.95Q343.35 333.60 344.14 333.60Q344.80 333.60 345.32 333.87Q345.85 334.14 346.16 334.64Q346.46 335.15 346.46 335.88L346.46 340L345.40 340L345.40 336.11Q345.40 335.35 345 334.94Q344.60 334.54 343.92 334.54Q343 334.54 342.45 335.29Q341.90 336.04 341.90 337.30L341.90 340M350.32 340.10Q349.51 340.10 348.98 339.60Q348.45 339.10 348.45 338.14L348.45 334.59L347.39 334.59L347.39 333.70L348.45 333.70L348.45 332.10L349.52 332.10L349.52 333.70L351.12 333.70L351.12 334.59L349.52 334.59L349.52 338.05Q349.52 338.60 349.77 338.88Q350.02 339.15 350.45 339.15Q350.77 339.15 351.11 339.02L351.20 339.94Q351.02 340.02 350.78 340.06Q350.54 340.10 350.32 340.10M353.31 340L352.25 340L352.25 333.70L353.31 333.70L353.31 334.81Q353.60 334.21 354.13 333.91Q354.66 333.60 355.27 333.60Q355.47 333.60 355.69 333.63Q355.90 333.66 356.05 333.74L355.97 334.75Q355.76 334.65 355.56 334.63Q355.36 334.61 355.16 334.61Q354.37 334.61 353.84 335.35Q353.31 336.09 353.31 337.48L353.31 340M358.91 342.27L357.80 342.27L358.72 340L356.27 333.70L357.42 333.70L359.27 338.61L361.12 333.70L362.25 333.70" fill="#686c62"/>
  
</svg>
