<svg width="980" height="300" viewBox="0 0 980 300" fill="none" xmlns="http://www.w3.org/2000/svg" font-family="Matter, Inter, system-ui, sans-serif">
  <defs>
    <pattern id="dots" width="22" height="22" patternUnits="userSpaceOnUse"><circle cx="2" cy="2" r="1.4" fill="#d4d2c6"/></pattern>
    <marker id="sq" markerWidth="8" markerHeight="8" refX="4" refY="4" orient="0" markerUnits="userSpaceOnUse"><rect x="0.5" y="0.5" width="7" height="7" fill="#f6f5ee" stroke="#bcbcb4" stroke-width="1"/></marker>
  </defs>
  <rect width="980" height="300" rx="4" fill="#f6f5ee"/>
  <rect width="980" height="300" rx="4" fill="url(#dots)"/>

  <rect x="40" y="40" width="520" height="230" rx="2" fill="#ece9e0"/>
  <path d="M58.10 64L56.82 64L56.82 60.87L54.03 56.30L55.54 56.30L57.49 59.53L59.43 56.30L60.89 56.30L58.10 60.85M66.69 64.09Q65.85 64.09 65.14 63.80Q64.43 63.51 63.91 62.97Q63.39 62.44 63.10 61.72Q62.81 61.01 62.81 60.15Q62.81 59.29 63.10 58.58Q63.39 57.86 63.91 57.33Q64.43 56.80 65.14 56.50Q65.85 56.21 66.69 56.21Q67.51 56.21 68.22 56.50Q68.92 56.80 69.44 57.33Q69.97 57.86 70.26 58.58Q70.55 59.29 70.55 60.15Q70.55 61.01 70.26 61.72Q69.97 62.44 69.44 62.97Q68.92 63.51 68.22 63.80Q67.51 64.09 66.69 64.09M66.69 62.98Q67.44 62.98 68.01 62.61Q68.59 62.24 68.92 61.60Q69.25 60.96 69.25 60.15Q69.25 59.34 68.92 58.70Q68.59 58.06 68.01 57.69Q67.44 57.32 66.69 57.32Q65.94 57.32 65.36 57.69Q64.77 58.05 64.44 58.69Q64.11 59.33 64.11 60.15Q64.11 60.96 64.44 61.61Q64.77 62.25 65.36 62.61Q65.94 62.98 66.69 62.98M76.24 64.09Q75.33 64.09 74.63 63.73Q73.93 63.37 73.54 62.72Q73.16 62.08 73.16 61.23L73.16 56.30L74.45 56.30L74.45 61.23Q74.45 62 74.95 62.49Q75.45 62.98 76.24 62.98Q77.02 62.98 77.52 62.49Q78.01 62 78.01 61.23L78.01 56.30L79.31 56.30L79.31 61.23Q79.31 62.08 78.92 62.72Q78.54 63.37 77.84 63.73Q77.15 64.09 76.24 64.09M83.58 64L82.28 64L82.28 56.30L85.23 56.30Q85.94 56.30 86.48 56.58Q87.01 56.85 87.31 57.35Q87.62 57.85 87.62 58.51Q87.62 59.18 87.25 59.73Q86.88 60.27 86.25 60.52L88.38 64L86.87 64L84.94 60.72L83.58 60.72L83.58 64M83.58 57.41L83.58 59.61L85.01 59.61Q85.61 59.61 85.97 59.30Q86.33 58.99 86.33 58.51Q86.33 58.02 85.97 57.71Q85.61 57.41 85.01 57.41M95.86 64L94.57 64L94.57 56.30L95.86 56.30M100.20 64L98.90 64L98.90 56.30L100.52 56.30L103.25 60.93Q103.58 61.54 103.75 61.93Q103.93 62.33 103.93 62.33Q103.93 62.33 103.91 61.89Q103.90 61.46 103.90 60.78L103.90 56.30L105.20 56.30L105.20 64L103.58 64L100.86 59.37Q100.52 58.75 100.34 58.36Q100.17 57.97 100.17 57.97Q100.17 57.97 100.19 58.41Q100.20 58.84 100.20 59.52M109.53 64L108.24 64L108.24 56.30L113.35 56.30L113.35 57.41L109.53 57.41L109.53 59.42L112.64 59.42L112.64 60.53L109.53 60.53M117.07 64L115.78 64L115.78 56.30L118.72 56.30Q119.44 56.30 119.97 56.58Q120.51 56.85 120.81 57.35Q121.11 57.85 121.11 58.51Q121.11 59.18 120.74 59.73Q120.37 60.27 119.75 60.52L121.87 64L120.36 64L118.44 60.72L117.07 60.72L117.07 64M117.07 57.41L117.07 59.61L118.50 59.61Q119.11 59.61 119.47 59.30Q119.82 58.99 119.82 58.51Q119.82 58.02 119.47 57.71Q119.11 57.41 118.50 57.41M124.79 64L123.45 64L126.46 56.30L127.91 56.30L130.91 64L129.53 64L128.82 62.19L125.50 62.19L124.79 64M127.16 57.84L125.91 61.09L128.42 61.09M135.86 64.09Q134.66 64.09 133.81 63.47Q132.95 62.84 132.69 61.70L133.87 61.36Q134.03 62.13 134.58 62.55Q135.12 62.98 135.86 62.98Q136.45 62.98 136.87 62.71Q137.29 62.44 137.29 61.84Q137.29 61.47 137.06 61.24Q136.83 61.02 136.45 60.87Q136.08 60.72 135.63 60.60Q135.18 60.48 134.72 60.33Q134.27 60.17 133.90 59.94Q133.53 59.70 133.29 59.31Q133.06 58.93 133.06 58.34Q133.06 57.69 133.42 57.21Q133.77 56.74 134.36 56.48Q134.96 56.21 135.67 56.21Q136.39 56.21 136.97 56.45Q137.55 56.69 137.95 57.11Q138.35 57.54 138.50 58.14L137.35 58.58Q137.19 57.96 136.74 57.64Q136.30 57.32 135.66 57.32Q135.07 57.32 134.71 57.58Q134.35 57.84 134.35 58.28Q134.35 58.61 134.58 58.81Q134.81 59.02 135.19 59.14Q135.56 59.27 136.02 59.38Q136.47 59.49 136.92 59.64Q137.38 59.80 137.75 60.05Q138.12 60.30 138.35 60.72Q138.59 61.13 138.59 61.76Q138.59 62.52 138.22 63.04Q137.86 63.56 137.24 63.82Q136.62 64.09 135.86 64.09M144.32 64L143.02 64L143.02 57.41L140.66 57.41L140.66 56.30L146.69 56.30L146.69 57.41L144.32 57.41M150.42 64L149.12 64L149.12 56.30L152.07 56.30Q152.78 56.30 153.32 56.58Q153.85 56.85 154.15 57.35Q154.46 57.85 154.46 58.51Q154.46 59.18 154.09 59.73Q153.72 60.27 153.09 60.52L155.22 64L153.71 64L151.78 60.72L150.42 60.72L150.42 64M150.42 57.41L150.42 59.61L151.85 59.61Q152.45 59.61 152.81 59.30Q153.17 58.99 153.17 58.51Q153.17 58.02 152.81 57.71Q152.45 57.41 151.85 57.41M160.56 64.09Q159.65 64.09 158.95 63.73Q158.25 63.37 157.87 62.72Q157.49 62.08 157.49 61.23L157.49 56.30L158.77 56.30L158.77 61.23Q158.77 62 159.27 62.49Q159.77 62.98 160.56 62.98Q161.35 62.98 161.84 62.49Q162.34 62 162.34 61.23L162.34 56.30L163.63 56.30L163.63 61.23Q163.63 62.08 163.25 62.72Q162.86 63.37 162.17 63.73Q161.48 64.09 160.56 64.09M170.04 64.09Q168.96 64.09 168.10 63.62Q167.23 63.15 166.74 62.27Q166.25 61.38 166.25 60.15Q166.25 58.92 166.74 58.04Q167.23 57.16 168.09 56.69Q168.95 56.21 170.04 56.21Q171.36 56.21 172.26 56.86Q173.15 57.50 173.36 58.65L172.06 58.88Q171.95 58.17 171.39 57.75Q170.83 57.32 170.04 57.32Q169.31 57.32 168.75 57.66Q168.18 57.99 167.86 58.63Q167.54 59.26 167.54 60.15Q167.54 61.03 167.87 61.67Q168.19 62.31 168.75 62.64Q169.31 62.98 170.04 62.98Q170.90 62.98 171.45 62.53Q172.01 62.08 172.12 61.34L173.39 61.51Q173.31 62.27 172.86 62.86Q172.41 63.44 171.68 63.76Q170.95 64.09 170.04 64.09M179.03 64L177.73 64L177.73 57.41L175.37 57.41L175.37 56.30L181.40 56.30L181.40 57.41L179.03 57.41M186.84 64.09Q185.93 64.09 185.23 63.73Q184.53 63.37 184.15 62.72Q183.77 62.08 183.77 61.23L183.77 56.30L185.05 56.30L185.05 61.23Q185.05 62 185.55 62.49Q186.05 62.98 186.84 62.98Q187.63 62.98 188.12 62.49Q188.62 62 188.62 61.23L188.62 56.30L189.91 56.30L189.91 61.23Q189.91 62.08 189.53 62.72Q189.14 63.37 188.45 63.73Q187.76 64.09 186.84 64.09M194.19 64L192.89 64L192.89 56.30L195.84 56.30Q196.55 56.30 197.08 56.58Q197.62 56.85 197.92 57.35Q198.22 57.85 198.22 58.51Q198.22 59.18 197.85 59.73Q197.49 60.27 196.86 60.52L198.98 64L197.47 64L195.55 60.72L194.19 60.72L194.19 64M194.19 57.41L194.19 59.61L195.62 59.61Q196.22 59.61 196.58 59.30Q196.94 58.99 196.94 58.51Q196.94 58.02 196.58 57.71Q196.22 57.41 195.62 57.41M206.47 64L201.32 64L201.32 56.30L206.43 56.30L206.43 57.41L202.62 57.41L202.62 59.42L205.72 59.42L205.72 60.53L202.62 60.53L202.62 62.89L206.47 62.89" fill="#686c62"/>
  <rect x="650" y="40" width="300" height="110" rx="2" fill="#ece9e0"/>
  <path d="M671.06 64L669.76 64L669.76 60.52L666.07 60.52L666.07 64L664.77 64L664.77 56.30L666.07 56.30L666.07 59.41L669.76 59.41L669.76 56.30L671.06 56.30M677.60 64.09Q676.76 64.09 676.05 63.80Q675.35 63.51 674.82 62.97Q674.30 62.44 674.01 61.72Q673.73 61.01 673.73 60.15Q673.73 59.29 674.01 58.58Q674.30 57.86 674.82 57.33Q675.35 56.80 676.05 56.50Q676.76 56.21 677.60 56.21Q678.42 56.21 679.13 56.50Q679.83 56.80 680.36 57.33Q680.88 57.86 681.17 58.58Q681.46 59.29 681.46 60.15Q681.46 61.01 681.17 61.72Q680.88 62.44 680.36 62.97Q679.83 63.51 679.13 63.80Q678.42 64.09 677.60 64.09M677.60 62.98Q678.35 62.98 678.93 62.61Q679.50 62.24 679.83 61.60Q680.16 60.96 680.16 60.15Q680.16 59.34 679.83 58.70Q679.50 58.06 678.93 57.69Q678.35 57.32 677.60 57.32Q676.85 57.32 676.27 57.69Q675.69 58.05 675.36 58.69Q675.03 59.33 675.03 60.15Q675.03 60.96 675.36 61.61Q675.69 62.25 676.27 62.61Q676.85 62.98 677.60 62.98M686.80 64.09Q685.60 64.09 684.75 63.47Q683.90 62.84 683.63 61.70L684.81 61.36Q684.97 62.13 685.52 62.55Q686.06 62.98 686.80 62.98Q687.39 62.98 687.81 62.71Q688.23 62.44 688.23 61.84Q688.23 61.47 688 61.24Q687.77 61.02 687.39 60.87Q687.02 60.72 686.57 60.60Q686.12 60.48 685.67 60.33Q685.22 60.17 684.84 59.94Q684.47 59.70 684.24 59.31Q684.01 58.93 684.01 58.34Q684.01 57.69 684.36 57.21Q684.71 56.74 685.30 56.48Q685.90 56.21 686.61 56.21Q687.33 56.21 687.91 56.45Q688.49 56.69 688.90 57.11Q689.30 57.54 689.44 58.14L688.30 58.58Q688.13 57.96 687.69 57.64Q687.24 57.32 686.60 57.32Q686.01 57.32 685.65 57.58Q685.29 57.84 685.29 58.28Q685.29 58.61 685.52 58.81Q685.75 59.02 686.13 59.14Q686.50 59.27 686.96 59.38Q687.42 59.49 687.87 59.64Q688.32 59.80 688.69 60.05Q689.07 60.30 689.30 60.72Q689.53 61.13 689.53 61.76Q689.53 62.52 689.16 63.04Q688.80 63.56 688.18 63.82Q687.56 64.09 686.80 64.09M695.26 64L693.96 64L693.96 57.41L691.60 57.41L691.60 56.30L697.63 56.30L697.63 57.41L695.26 57.41M705.21 64L700.06 64L700.06 56.30L705.18 56.30L705.18 57.41L701.36 57.41L701.36 59.42L704.46 59.42L704.46 60.53L701.36 60.53L701.36 62.89L705.21 62.89M710.33 64L707.83 64L707.83 56.30L710.33 56.30Q711.12 56.30 711.83 56.55Q712.53 56.80 713.06 57.28Q713.60 57.77 713.90 58.49Q714.21 59.20 714.21 60.15Q714.21 61.09 713.90 61.81Q713.60 62.53 713.06 63.02Q712.53 63.51 711.83 63.75Q711.12 64 710.33 64M709.13 57.41L709.13 62.89L710.19 62.89Q710.95 62.89 711.56 62.59Q712.18 62.28 712.55 61.67Q712.91 61.06 712.91 60.15Q712.91 59.24 712.55 58.63Q712.18 58.02 711.56 57.71Q710.95 57.41 710.19 57.41M723.88 64L720.74 64L720.74 56.30L723.87 56.30Q724.52 56.30 725.02 56.54Q725.52 56.78 725.80 57.21Q726.08 57.64 726.08 58.21Q726.08 58.79 725.74 59.23Q725.40 59.68 724.95 59.84Q725.36 59.94 725.71 60.22Q726.06 60.49 726.26 60.89Q726.46 61.28 726.46 61.76Q726.46 62.42 726.13 62.92Q725.80 63.43 725.22 63.71Q724.64 64 723.88 64M722.04 60.46L722.04 62.90L723.77 62.90Q724.38 62.90 724.78 62.55Q725.18 62.21 725.18 61.67Q725.18 61.14 724.78 60.80Q724.38 60.46 723.77 60.46L722.04 60.46M722.04 57.40L722.04 59.40L723.68 59.40Q724.18 59.40 724.51 59.12Q724.84 58.84 724.84 58.40Q724.84 57.96 724.51 57.68Q724.18 57.40 723.68 57.40M732.44 64L731.15 64L731.15 60.87L728.37 56.30L729.88 56.30L731.82 59.53L733.77 56.30L735.22 56.30L732.44 60.85M742.68 64L741.38 64L741.38 56.30L746.50 56.30L746.50 57.41L742.68 57.41L742.68 59.42L745.78 59.42L745.78 60.53L742.68 60.53M752.42 64.09Q751.58 64.09 750.87 63.80Q750.16 63.51 749.64 62.97Q749.12 62.44 748.83 61.72Q748.55 61.01 748.55 60.15Q748.55 59.29 748.83 58.58Q749.12 57.86 749.64 57.33Q750.16 56.80 750.87 56.50Q751.58 56.21 752.42 56.21Q753.24 56.21 753.95 56.50Q754.65 56.80 755.17 57.33Q755.70 57.86 755.99 58.58Q756.28 59.29 756.28 60.15Q756.28 61.01 755.99 61.72Q755.70 62.44 755.17 62.97Q754.65 63.51 753.95 63.80Q753.24 64.09 752.42 64.09M752.42 62.98Q753.17 62.98 753.74 62.61Q754.32 62.24 754.65 61.60Q754.98 60.96 754.98 60.15Q754.98 59.34 754.65 58.70Q754.32 58.06 753.74 57.69Q753.17 57.32 752.42 57.32Q751.67 57.32 751.09 57.69Q750.50 58.05 750.17 58.69Q749.84 59.33 749.84 60.15Q749.84 60.96 750.17 61.61Q750.50 62.25 751.09 62.61Q751.67 62.98 752.42 62.98M760.25 64L758.96 64L758.96 56.30L761.90 56.30Q762.62 56.30 763.15 56.58Q763.69 56.85 763.99 57.35Q764.29 57.85 764.29 58.51Q764.29 59.18 763.92 59.73Q763.55 60.27 762.93 60.52L765.05 64L763.54 64L761.62 60.72L760.25 60.72L760.25 64M760.25 57.41L760.25 59.61L761.68 59.61Q762.29 59.61 762.65 59.30Q763 58.99 763 58.51Q763 58.02 762.65 57.71Q762.29 57.41 761.68 57.41M772.53 64L767.39 64L767.39 56.30L772.50 56.30L772.50 57.41L768.68 57.41L768.68 59.42L771.79 59.42L771.79 60.53L768.68 60.53L768.68 62.89L772.53 62.89M777.82 64.09Q776.62 64.09 775.77 63.47Q774.91 62.84 774.65 61.70L775.83 61.36Q775.99 62.13 776.54 62.55Q777.08 62.98 777.82 62.98Q778.41 62.98 778.83 62.71Q779.25 62.44 779.25 61.84Q779.25 61.47 779.02 61.24Q778.79 61.02 778.41 60.87Q778.04 60.72 777.59 60.60Q777.14 60.48 776.68 60.33Q776.23 60.17 775.86 59.94Q775.49 59.70 775.25 59.31Q775.02 58.93 775.02 58.34Q775.02 57.69 775.38 57.21Q775.73 56.74 776.32 56.48Q776.92 56.21 777.63 56.21Q778.35 56.21 778.93 56.45Q779.51 56.69 779.91 57.11Q780.31 57.54 780.46 58.14L779.31 58.58Q779.15 57.96 778.70 57.64Q778.26 57.32 777.62 57.32Q777.03 57.32 776.67 57.58Q776.31 57.84 776.31 58.28Q776.31 58.61 776.54 58.81Q776.77 59.02 777.15 59.14Q777.52 59.27 777.98 59.38Q778.43 59.49 778.88 59.64Q779.34 59.80 779.71 60.05Q780.08 60.30 780.31 60.72Q780.55 61.13 780.55 61.76Q780.55 62.52 780.18 63.04Q779.82 63.56 779.20 63.82Q778.58 64.09 777.82 64.09M786.28 64L784.98 64L784.98 57.41L782.62 57.41L782.62 56.30L788.65 56.30L788.65 57.41L786.28 57.41" fill="#686c62"/>

  
    <path d="M220 150 H300" marker-end="url(#sq)"/>
    <path d="M520 130 H600 V100 H678" marker-end="url(#sq)"/>
    <path d="M520 170 H600 V225 H678" marker-end="url(#sq)"/>
  
  
    <path d="M618.51 93L617.45 93L617.45 84.95L620.44 84.95Q621.17 84.95 621.72 85.23Q622.26 85.51 622.57 86.01Q622.88 86.50 622.88 87.17Q622.88 87.92 622.45 88.48Q622.01 89.04 621.28 89.27L623.63 93L622.40 93L620.19 89.39L618.51 89.39L618.51 93M618.51 85.86L618.51 88.48L620.28 88.48Q620.97 88.48 621.40 88.12Q621.82 87.76 621.82 87.17Q621.82 86.58 621.40 86.22Q620.97 85.86 620.28 85.86L618.51 85.86M629.81 93L624.61 93L624.61 84.95L629.78 84.95L629.78 85.86L625.67 85.86L625.67 88.32L629.05 88.32L629.05 89.23L625.67 89.23L625.67 92.09L629.81 92.09L629.81 93M633.76 93.09Q632.53 93.09 631.66 92.45Q630.78 91.82 630.52 90.61L631.47 90.33Q631.66 91.22 632.27 91.70Q632.89 92.18 633.76 92.18Q634.47 92.18 634.99 91.85Q635.50 91.52 635.50 90.79Q635.50 90.34 635.25 90.07Q635 89.80 634.59 89.63Q634.18 89.46 633.68 89.33Q633.19 89.19 632.70 89.04Q632.21 88.88 631.79 88.64Q631.38 88.40 631.13 88.01Q630.89 87.62 630.89 87.01Q630.89 86.34 631.24 85.86Q631.60 85.39 632.21 85.12Q632.82 84.86 633.55 84.86Q634.65 84.86 635.42 85.39Q636.20 85.93 636.42 86.85L635.49 87.18Q635.30 86.48 634.79 86.12Q634.28 85.77 633.54 85.77Q632.82 85.77 632.38 86.09Q631.94 86.42 631.94 86.96Q631.94 87.36 632.19 87.60Q632.44 87.84 632.85 87.99Q633.27 88.15 633.76 88.27Q634.24 88.39 634.73 88.55Q635.22 88.71 635.64 88.97Q636.05 89.23 636.30 89.65Q636.54 90.07 636.54 90.72Q636.54 91.52 636.16 92.05Q635.79 92.57 635.15 92.83Q634.52 93.09 633.76 93.09M640.78 93L639.72 93L639.72 85.86L637.18 85.86L637.18 84.95L643.33 84.95L643.33 85.86L640.78 85.86L640.78 93M647.20 93L646.11 93L649.32 84.95L650.53 84.95L653.73 93L652.60 93L651.77 90.93L648.03 90.93L647.20 93M649.91 86.16L648.38 90.02L651.44 90.02L649.91 86.16M655.71 93L654.67 93L654.67 84.95L657.80 84.95Q658.57 84.95 659.14 85.24Q659.71 85.53 660.02 86.05Q660.34 86.57 660.34 87.27Q660.34 87.97 660.02 88.50Q659.71 89.02 659.14 89.31Q658.57 89.60 657.80 89.60L655.71 89.60L655.71 93M655.71 85.86L655.71 88.69L657.69 88.69Q658.42 88.69 658.85 88.30Q659.29 87.91 659.29 87.27Q659.29 86.63 658.85 86.24Q658.42 85.86 657.69 85.86L655.71 85.86M662.55 93L661.49 93L661.49 84.95L662.55 84.95" fill="#686c62"/>
    <path d="M629.31 218L628.25 218L628.25 209.95L629.77 209.95L632.02 215.29Q632.29 215.92 632.40 216.29Q632.52 216.67 632.52 216.67Q632.52 216.67 632.65 216.29Q632.78 215.92 633.04 215.29L635.29 209.95L636.76 209.95L636.76 218L635.70 218L635.70 212.79Q635.70 212.10 635.72 211.70Q635.74 211.30 635.74 211.30Q635.74 211.30 635.60 211.67Q635.46 212.04 635.20 212.69L632.97 218L632.06 218L629.83 212.69Q629.56 212.05 629.43 211.68Q629.29 211.31 629.29 211.31Q629.29 211.31 629.30 211.70Q629.31 212.10 629.31 212.79L629.31 218M642.03 218.09Q640.90 218.09 640.02 217.59Q639.13 217.09 638.63 216.17Q638.12 215.25 638.12 213.97Q638.12 212.70 638.62 211.77Q639.12 210.85 640.01 210.35Q640.89 209.86 642.03 209.86Q642.93 209.86 643.64 210.16Q644.35 210.46 644.81 211.01Q645.27 211.57 645.41 212.35L644.36 212.54Q644.23 211.73 643.59 211.25Q642.95 210.77 642.03 210.77Q641.19 210.77 640.55 211.15Q639.90 211.54 639.54 212.26Q639.18 212.97 639.18 213.97Q639.18 214.96 639.54 215.69Q639.90 216.41 640.55 216.80Q641.19 217.18 642.03 217.18Q643.01 217.18 643.65 216.68Q644.28 216.17 644.41 215.34L645.45 215.48Q645.35 216.25 644.89 216.84Q644.42 217.44 643.69 217.76Q642.95 218.09 642.03 218.09M647.75 218L646.70 218L646.70 209.95L649.83 209.95Q650.60 209.95 651.17 210.24Q651.74 210.53 652.05 211.05Q652.37 211.57 652.37 212.27Q652.37 212.97 652.05 213.50Q651.74 214.02 651.17 214.31Q650.60 214.60 649.83 214.60L647.75 214.60L647.75 218M647.75 210.86L647.75 213.69L649.72 213.69Q650.45 213.69 650.88 213.30Q651.32 212.91 651.32 212.27Q651.32 211.63 650.88 211.24Q650.45 210.86 649.72 210.86" fill="#686c62"/>
  

  <rect x="70" y="110" width="150" height="80" rx="2" fill="#ffffff"/>
  <path d="M103.09 148.37L101.59 148.37L102.62 145.91L100.06 139.45L101.59 139.45L103.36 144.09L105.12 139.45L106.61 139.45L103.09 148.37M110.47 146.10Q109.50 146.10 108.73 145.67Q107.96 145.23 107.53 144.47Q107.09 143.70 107.09 142.71Q107.09 141.72 107.53 140.96Q107.96 140.20 108.73 139.77Q109.50 139.34 110.47 139.34Q111.46 139.34 112.22 139.77Q112.98 140.20 113.42 140.96Q113.85 141.72 113.85 142.71Q113.85 143.70 113.42 144.47Q112.98 145.23 112.22 145.67Q111.46 146.10 110.47 146.10M110.47 144.88Q111.33 144.88 111.87 144.28Q112.41 143.67 112.41 142.71Q112.41 141.76 111.87 141.16Q111.33 140.57 110.47 140.57Q109.63 140.57 109.08 141.16Q108.53 141.75 108.53 142.71Q108.53 143.67 109.08 144.28Q109.63 144.88 110.47 144.88M117.41 146.10Q116.71 146.10 116.17 145.82Q115.62 145.53 115.30 145Q114.98 144.47 114.98 143.74L114.98 139.45L116.41 139.45L116.41 143.37Q116.41 144.08 116.78 144.47Q117.15 144.86 117.79 144.86Q118.64 144.86 119.14 144.16Q119.64 143.47 119.64 142.27L119.64 139.45L121.05 139.45L121.05 146L119.64 146L119.64 145.03Q119.35 145.45 118.78 145.78Q118.21 146.10 117.41 146.10M124.06 146L122.64 146L122.64 139.45L124.06 139.45L124.06 140.45Q124.34 139.92 124.87 139.63Q125.40 139.34 126.03 139.34Q126.24 139.34 126.46 139.38Q126.68 139.41 126.84 139.47L126.73 140.83Q126.53 140.74 126.32 140.71Q126.11 140.68 125.90 140.68Q125.15 140.68 124.60 141.37Q124.06 142.05 124.06 143.47L124.06 146M133.34 146.10Q132.36 146.10 131.64 145.68Q130.92 145.26 130.52 144.50Q130.13 143.74 130.13 142.72Q130.13 141.70 130.52 140.94Q130.92 140.19 131.64 139.77Q132.36 139.34 133.34 139.34Q134.03 139.34 134.61 139.62Q135.18 139.90 135.46 140.36L135.46 136.80L136.90 136.80L136.90 146L135.46 146L135.46 145.08Q135.18 145.53 134.60 145.82Q134.01 146.10 133.34 146.10M133.52 144.88Q134.38 144.88 134.92 144.28Q135.46 143.67 135.46 142.72Q135.46 141.76 134.92 141.16Q134.38 140.57 133.52 140.57Q132.66 140.57 132.12 141.16Q131.57 141.76 131.57 142.72Q131.57 143.67 132.12 144.28Q132.66 144.88 133.52 144.88M140.46 146.10Q139.41 146.10 138.79 145.56Q138.17 145.01 138.17 144.21Q138.17 143.23 138.87 142.70Q139.57 142.18 141.09 142.01L142.43 141.88L142.43 141.71Q142.43 141.14 142.04 140.81Q141.66 140.49 141.03 140.49Q140.44 140.49 140.07 140.79Q139.70 141.09 139.62 141.70L138.25 141.49Q138.42 140.53 139.18 139.94Q139.93 139.34 141.03 139.34Q141.85 139.34 142.49 139.64Q143.13 139.94 143.49 140.51Q143.84 141.07 143.84 141.88L143.84 146L142.43 146L142.43 145.05Q142.22 145.49 141.67 145.80Q141.13 146.10 140.46 146.10M142.43 143.11L142.43 142.93L141.15 143.09Q140.33 143.18 139.96 143.41Q139.59 143.65 139.59 144.14Q139.59 144.56 139.89 144.78Q140.19 145.01 140.70 145.01Q141.22 145.01 141.60 144.75Q141.98 144.49 142.20 144.06Q142.43 143.63 142.43 143.11M147.92 146.10Q147 146.10 146.38 145.54Q145.77 144.99 145.77 143.92L145.77 140.62L144.69 140.62L144.69 139.45L145.77 139.45L145.77 137.82L147.20 137.82L147.20 139.45L148.78 139.45L148.78 140.62L147.20 140.62L147.20 143.80Q147.20 144.32 147.44 144.59Q147.69 144.86 148.11 144.86Q148.29 144.86 148.45 144.82Q148.61 144.78 148.78 144.73L148.89 145.94Q148.68 146.03 148.43 146.06Q148.17 146.10 147.92 146.10M151.88 146.10Q150.82 146.10 150.21 145.56Q149.59 145.01 149.59 144.21Q149.59 143.23 150.28 142.70Q150.98 142.18 152.50 142.01L153.84 141.88L153.84 141.71Q153.84 141.14 153.46 140.81Q153.07 140.49 152.45 140.49Q151.85 140.49 151.48 140.79Q151.11 141.09 151.03 141.70L149.67 141.49Q149.84 140.53 150.59 139.94Q151.34 139.34 152.45 139.34Q153.27 139.34 153.91 139.64Q154.54 139.94 154.90 140.51Q155.26 141.07 155.26 141.88L155.26 146L153.84 146L153.84 145.05Q153.63 145.49 153.09 145.80Q152.54 146.10 151.88 146.10M153.84 143.11L153.84 142.93L152.57 143.09Q151.75 143.18 151.38 143.41Q151.01 143.65 151.01 144.14Q151.01 144.56 151.31 144.78Q151.60 145.01 152.11 145.01Q152.63 145.01 153.01 144.75Q153.40 144.49 153.62 144.06Q153.84 143.63 153.84 143.11M160.31 146.10Q159.64 146.10 159.05 145.82Q158.47 145.53 158.18 145.08L158.18 146L156.75 146L156.75 136.80L158.18 136.80L158.18 140.36Q158.47 139.90 159.05 139.62Q159.64 139.34 160.31 139.34Q161.29 139.34 162.01 139.77Q162.73 140.19 163.13 140.94Q163.53 141.70 163.53 142.72Q163.53 143.74 163.13 144.50Q162.73 145.26 162.01 145.68Q161.29 146.10 160.31 146.10M160.13 144.88Q160.70 144.88 161.14 144.61Q161.58 144.34 161.83 143.85Q162.08 143.36 162.08 142.72Q162.08 141.76 161.53 141.16Q160.98 140.57 160.13 140.57Q159.27 140.57 158.73 141.16Q158.18 141.76 158.18 142.72Q158.18 143.35 158.43 143.84Q158.68 144.32 159.12 144.60Q159.56 144.88 160.13 144.88M166.72 146.10Q165.67 146.10 165.05 145.56Q164.44 145.01 164.44 144.21Q164.44 143.23 165.13 142.70Q165.83 142.18 167.35 142.01L168.69 141.88L168.69 141.71Q168.69 141.14 168.30 140.81Q167.92 140.49 167.30 140.49Q166.70 140.49 166.33 140.79Q165.96 141.09 165.88 141.70L164.51 141.49Q164.68 140.53 165.44 139.94Q166.19 139.34 167.30 139.34Q168.11 139.34 168.75 139.64Q169.39 139.94 169.75 140.51Q170.10 141.07 170.10 141.88L170.10 146L168.69 146L168.69 145.05Q168.48 145.49 167.93 145.80Q167.39 146.10 166.72 146.10M168.69 143.11L168.69 142.93L167.41 143.09Q166.59 143.18 166.22 143.41Q165.85 143.65 165.85 144.14Q165.85 144.56 166.15 144.78Q166.45 145.01 166.96 145.01Q167.48 145.01 167.86 144.75Q168.24 144.49 168.47 144.06Q168.69 143.63 168.69 143.11M173.87 146.10Q173.12 146.10 172.53 145.84Q171.95 145.58 171.58 145.14Q171.21 144.69 171.08 144.15L172.31 143.75Q172.44 144.32 172.84 144.64Q173.24 144.96 173.87 144.96Q174.39 144.96 174.71 144.73Q175.03 144.50 175.03 144.10Q175.03 143.75 174.77 143.56Q174.51 143.37 174.09 143.26Q173.68 143.14 173.21 143.02Q172.74 142.89 172.33 142.69Q171.91 142.49 171.65 142.13Q171.39 141.76 171.39 141.15Q171.39 140.64 171.68 140.23Q171.96 139.82 172.48 139.58Q172.99 139.34 173.68 139.34Q174.67 139.34 175.37 139.79Q176.07 140.23 176.28 140.96L175.06 141.41Q174.91 140.88 174.54 140.66Q174.16 140.45 173.68 140.45Q173.28 140.45 173 140.62Q172.73 140.79 172.73 141.11Q172.73 141.44 173 141.60Q173.26 141.76 173.68 141.87Q174.09 141.97 174.56 142.09Q175.03 142.20 175.45 142.42Q175.86 142.63 176.13 143.02Q176.40 143.40 176.40 144.06Q176.40 144.66 176.07 145.12Q175.75 145.58 175.17 145.84Q174.60 146.10 173.87 146.10M180.53 146.10Q179.54 146.10 178.79 145.67Q178.05 145.23 177.63 144.47Q177.21 143.71 177.21 142.72Q177.21 141.74 177.63 140.98Q178.05 140.22 178.79 139.78Q179.53 139.34 180.48 139.34Q181.52 139.34 182.26 139.83Q183 140.32 183.35 141.14Q183.70 141.97 183.57 142.98L178.64 142.98Q178.72 143.85 179.22 144.38Q179.72 144.91 180.53 144.91Q181.14 144.91 181.61 144.59Q182.08 144.27 182.19 143.79L183.52 144.14Q183.27 145.01 182.46 145.56Q181.65 146.10 180.53 146.10M178.72 141.91L182.10 141.91Q182.09 141.25 181.64 140.87Q181.19 140.49 180.48 140.49Q179.81 140.49 179.35 140.86Q178.89 141.23 178.72 141.91M187.09 146.10Q186.34 146.10 185.76 145.84Q185.17 145.58 184.80 145.14Q184.43 144.69 184.30 144.15L185.53 143.75Q185.66 144.32 186.06 144.64Q186.46 144.96 187.09 144.96Q187.61 144.96 187.93 144.73Q188.25 144.50 188.25 144.10Q188.25 143.75 187.99 143.56Q187.73 143.37 187.31 143.26Q186.90 143.14 186.43 143.02Q185.96 142.89 185.55 142.69Q185.13 142.49 184.87 142.13Q184.61 141.76 184.61 141.15Q184.61 140.64 184.90 140.23Q185.18 139.82 185.70 139.58Q186.21 139.34 186.90 139.34Q187.89 139.34 188.59 139.79Q189.29 140.23 189.50 140.96L188.28 141.41Q188.13 140.88 187.76 140.66Q187.38 140.45 186.90 140.45Q186.50 140.45 186.22 140.62Q185.95 140.79 185.95 141.11Q185.95 141.44 186.22 141.60Q186.48 141.76 186.90 141.87Q187.31 141.97 187.78 142.09Q188.25 142.20 188.67 142.42Q189.08 142.63 189.35 143.02Q189.62 143.40 189.62 144.06Q189.62 144.66 189.29 145.12Q188.97 145.58 188.39 145.84Q187.82 146.10 187.09 146.10" fill="#262d1e"/>
  <path d="M129.78 164.10Q128.42 164.10 127.61 163.42Q126.80 162.74 126.80 161.58Q126.80 160.84 127.06 160.35Q127.32 159.85 127.75 159.53Q128.18 159.22 128.67 158.98Q128.26 158.49 128.01 158.01Q127.76 157.54 127.76 156.99Q127.76 156.32 128.09 155.83Q128.41 155.34 128.96 155.07Q129.50 154.80 130.15 154.80Q130.84 154.80 131.39 155.07Q131.94 155.34 132.26 155.84Q132.59 156.33 132.59 156.99Q132.59 157.67 132.34 158.11Q132.09 158.55 131.69 158.84Q131.28 159.13 130.82 159.33L132.45 161.11L133.60 159.79L134.61 160.72L133.44 162.09Q133.42 162.12 133.39 162.14L135.11 164L133.13 164L132.38 163.16Q131.79 163.65 131.17 163.88Q130.54 164.10 129.78 164.10M131.47 162.13L129.49 159.91Q129 160.15 128.66 160.51Q128.32 160.87 128.32 161.48Q128.32 162.08 128.72 162.44Q129.13 162.80 129.76 162.80Q130.22 162.80 130.62 162.64Q131.03 162.48 131.47 162.13M129.97 158.41Q130.49 158.16 130.84 157.84Q131.19 157.51 131.19 156.95Q131.19 156.54 130.89 156.28Q130.60 156.02 130.17 156.02Q129.72 156.02 129.43 156.28Q129.14 156.54 129.14 156.95Q129.14 157.28 129.33 157.58Q129.52 157.89 129.97 158.41M139.37 164L137.79 164L141.35 154.90L143.06 154.90L146.61 164L144.97 164L144.14 161.85L140.22 161.85L139.37 164M142.18 156.72L140.70 160.56L143.66 160.56L142.18 156.72M149.06 164L147.54 164L147.54 154.90L151.18 154.90Q152.07 154.90 152.74 155.24Q153.40 155.58 153.76 156.18Q154.13 156.78 154.13 157.60Q154.13 158.42 153.76 159.03Q153.40 159.65 152.74 159.98Q152.07 160.32 151.18 160.32L149.06 160.32L149.06 164M149.06 156.21L149.06 159.02L151.02 159.02Q151.75 159.02 152.18 158.63Q152.61 158.24 152.61 157.60Q152.61 156.97 152.18 156.59Q151.75 156.21 151.02 156.21L149.06 156.21M156.83 164L155.30 164L155.30 154.90L156.83 154.90L156.83 164M160.81 164.10Q160.05 164.10 159.47 163.84Q158.88 163.58 158.51 163.14Q158.14 162.69 158.01 162.15L159.25 161.75Q159.38 162.32 159.77 162.64Q160.17 162.96 160.81 162.96Q161.33 162.96 161.65 162.73Q161.97 162.50 161.97 162.10Q161.97 161.75 161.71 161.56Q161.45 161.37 161.03 161.26Q160.61 161.14 160.15 161.02Q159.68 160.89 159.26 160.69Q158.85 160.49 158.59 160.13Q158.33 159.76 158.33 159.15Q158.33 158.64 158.61 158.23Q158.90 157.82 159.41 157.58Q159.92 157.34 160.61 157.34Q161.60 157.34 162.30 157.79Q163.01 158.23 163.21 158.96L161.99 159.41Q161.85 158.88 161.47 158.66Q161.09 158.45 160.61 158.45Q160.21 158.45 159.94 158.62Q159.66 158.79 159.66 159.11Q159.66 159.44 159.93 159.60Q160.20 159.76 160.61 159.87Q161.03 159.97 161.50 160.09Q161.97 160.20 162.38 160.42Q162.80 160.63 163.06 161.02Q163.33 161.40 163.33 162.06Q163.33 162.66 163.01 163.12Q162.68 163.58 162.11 163.84Q161.54 164.10 160.81 164.10" fill="#262d1e"/>

  <rect x="300" y="100" width="220" height="100" rx="2" fill="#3f5b1e"/>
  <rect x="320" y="120" width="14" height="14" rx="2" fill="#ddf327"/>
  <path d="M347.01 132L345.12 132L345.12 120.80L352.56 120.80L352.56 122.42L347.01 122.42L347.01 125.34L351.52 125.34L351.52 126.96L347.01 126.96L347.01 132M357.46 132.13Q356.26 132.13 355.31 131.59Q354.37 131.06 353.83 130.11Q353.30 129.17 353.30 127.95Q353.30 126.74 353.83 125.80Q354.37 124.86 355.31 124.34Q356.26 123.81 357.46 123.81Q358.67 123.81 359.61 124.34Q360.54 124.86 361.08 125.80Q361.62 126.74 361.62 127.95Q361.62 129.17 361.08 130.11Q360.54 131.06 359.61 131.59Q358.67 132.13 357.46 132.13M357.46 130.62Q358.51 130.62 359.18 129.88Q359.84 129.14 359.84 127.95Q359.84 126.78 359.18 126.05Q358.51 125.31 357.46 125.31Q356.42 125.31 355.74 126.04Q355.07 126.77 355.07 127.95Q355.07 129.14 355.74 129.88Q356.42 130.62 357.46 130.62M364.85 132L363.10 132L363.10 123.94L364.85 123.94L364.85 125.17Q365.20 124.51 365.85 124.16Q366.50 123.81 367.28 123.81Q367.54 123.81 367.81 123.85Q368.08 123.89 368.27 123.97L368.14 125.63Q367.89 125.52 367.63 125.49Q367.38 125.46 367.12 125.46Q366.19 125.46 365.52 126.30Q364.85 127.14 364.85 128.88L364.85 132M372.96 132.13Q371.74 132.13 370.82 131.59Q369.90 131.06 369.39 130.12Q368.88 129.18 368.88 127.97Q368.88 126.75 369.39 125.82Q369.90 124.88 370.82 124.34Q371.73 123.81 372.90 123.81Q374.18 123.81 375.09 124.41Q376 125.01 376.43 126.02Q376.86 127.04 376.70 128.29L370.64 128.29Q370.74 129.36 371.35 130.01Q371.97 130.66 372.96 130.66Q373.71 130.66 374.29 130.26Q374.86 129.87 375.01 129.28L376.64 129.71Q376.34 130.78 375.34 131.46Q374.34 132.13 372.96 132.13M370.74 126.96L374.90 126.96Q374.88 126.16 374.33 125.69Q373.78 125.22 372.90 125.22Q372.08 125.22 371.51 125.67Q370.94 126.13 370.74 126.96M381.04 132.13Q380.11 132.13 379.39 131.81Q378.67 131.49 378.22 130.94Q377.76 130.38 377.60 129.73L379.12 129.23Q379.28 129.94 379.77 130.33Q380.26 130.72 381.04 130.72Q381.68 130.72 382.07 130.44Q382.46 130.16 382.46 129.66Q382.46 129.23 382.14 129Q381.82 128.77 381.31 128.62Q380.80 128.48 380.22 128.33Q379.65 128.18 379.14 127.93Q378.62 127.68 378.30 127.23Q377.98 126.78 377.98 126.03Q377.98 125.41 378.34 124.90Q378.69 124.40 379.32 124.10Q379.95 123.81 380.80 123.81Q382.02 123.81 382.88 124.35Q383.74 124.90 384 125.79L382.50 126.35Q382.32 125.70 381.86 125.43Q381.39 125.17 380.80 125.17Q380.30 125.17 379.97 125.38Q379.63 125.58 379.63 125.98Q379.63 126.38 379.96 126.58Q380.29 126.78 380.80 126.91Q381.31 127.04 381.89 127.18Q382.46 127.33 382.98 127.59Q383.49 127.86 383.82 128.33Q384.14 128.80 384.14 129.62Q384.14 130.35 383.74 130.92Q383.34 131.49 382.64 131.81Q381.94 132.13 381.04 132.13M388.80 132.13Q387.66 132.13 386.90 131.44Q386.14 130.75 386.14 129.44L386.14 125.38L384.82 125.38L384.82 123.94L386.14 123.94L386.14 121.94L387.90 121.94L387.90 123.94L389.86 123.94L389.86 125.38L387.90 125.38L387.90 129.30Q387.90 129.94 388.21 130.26Q388.51 130.59 389.02 130.59Q389.25 130.59 389.45 130.54Q389.65 130.50 389.86 130.43L389.98 131.92Q389.73 132.03 389.42 132.08Q389.10 132.13 388.80 132.13M399.02 132.13Q398.19 132.13 397.47 131.78Q396.75 131.42 396.40 130.86L396.40 132L394.64 132L394.64 120.67L396.40 120.67L396.40 125.06Q396.75 124.50 397.47 124.15Q398.19 123.81 399.02 123.81Q400.22 123.81 401.11 124.33Q402 124.85 402.49 125.78Q402.98 126.70 402.98 127.97Q402.98 129.22 402.49 130.15Q402 131.09 401.11 131.61Q400.22 132.13 399.02 132.13M398.80 130.62Q399.50 130.62 400.04 130.29Q400.58 129.95 400.89 129.35Q401.20 128.75 401.20 127.97Q401.20 126.78 400.52 126.05Q399.84 125.31 398.80 125.31Q397.74 125.31 397.07 126.05Q396.40 126.78 396.40 127.97Q396.40 128.74 396.70 129.34Q397.01 129.94 397.55 130.28Q398.10 130.62 398.80 130.62M406.91 132.13Q405.62 132.13 404.86 131.46Q404.10 130.78 404.10 129.79Q404.10 128.59 404.95 127.94Q405.81 127.30 407.68 127.09L409.33 126.93L409.33 126.72Q409.33 126.02 408.86 125.62Q408.38 125.22 407.62 125.22Q406.88 125.22 406.42 125.58Q405.97 125.95 405.87 126.70L404.19 126.45Q404.40 125.26 405.33 124.54Q406.26 123.81 407.62 123.81Q408.62 123.81 409.41 124.18Q410.19 124.54 410.63 125.24Q411.07 125.94 411.07 126.93L411.07 132L409.33 132L409.33 130.83Q409.07 131.38 408.40 131.75Q407.73 132.13 406.91 132.13M409.33 128.45L409.33 128.22L407.76 128.42Q406.75 128.53 406.30 128.82Q405.84 129.10 405.84 129.71Q405.84 130.22 406.21 130.50Q406.58 130.78 407.20 130.78Q407.84 130.78 408.31 130.46Q408.78 130.14 409.06 129.62Q409.33 129.09 409.33 128.45M416.51 132.13Q415.33 132.13 414.41 131.58Q413.49 131.04 412.97 130.10Q412.45 129.15 412.45 127.95Q412.45 126.75 412.97 125.82Q413.49 124.88 414.41 124.34Q415.33 123.81 416.51 123.81Q417.98 123.81 419.02 124.56Q420.06 125.31 420.27 126.64L418.51 126.90Q418.38 126.14 417.86 125.73Q417.33 125.31 416.51 125.31Q415.87 125.31 415.35 125.65Q414.83 125.98 414.53 126.58Q414.22 127.17 414.22 127.95Q414.22 128.74 414.53 129.34Q414.83 129.94 415.35 130.28Q415.87 130.62 416.51 130.62Q417.36 130.62 417.90 130.19Q418.43 129.76 418.54 129.06L420.35 129.28Q420.24 130.11 419.72 130.76Q419.20 131.41 418.38 131.77Q417.55 132.13 416.51 132.13M423.47 132L421.73 132L421.73 120.67L423.47 120.67L423.47 126.99L426.82 123.94L429.15 123.94L425.89 127.01L429.42 132L427.31 132L424.61 128.22L423.47 129.30L423.47 132M434.86 128.37L429.90 128.37L429.90 126.90L434.86 126.90L434.86 128.37M440.11 132.13Q438.90 132.13 437.98 131.59Q437.06 131.06 436.54 130.12Q436.03 129.18 436.03 127.97Q436.03 126.75 436.54 125.82Q437.06 124.88 437.97 124.34Q438.88 123.81 440.05 123.81Q441.33 123.81 442.24 124.41Q443.15 125.01 443.58 126.02Q444.02 127.04 443.86 128.29L437.79 128.29Q437.89 129.36 438.50 130.01Q439.12 130.66 440.11 130.66Q440.86 130.66 441.44 130.26Q442.02 129.87 442.16 129.28L443.79 129.71Q443.49 130.78 442.49 131.46Q441.49 132.13 440.11 132.13M437.89 126.96L442.05 126.96Q442.03 126.16 441.48 125.69Q440.93 125.22 440.05 125.22Q439.23 125.22 438.66 125.67Q438.10 126.13 437.89 126.96M447.14 132L445.39 132L445.39 123.94L447.14 123.94L447.14 125.14Q447.49 124.61 448.19 124.21Q448.90 123.81 449.86 123.81Q450.72 123.81 451.40 124.16Q452.08 124.51 452.46 125.18Q452.85 125.84 452.85 126.77L452.85 132L451.10 132L451.10 127.15Q451.10 126.29 450.64 125.82Q450.18 125.34 449.41 125.34Q448.35 125.34 447.74 126.19Q447.14 127.04 447.14 128.51L447.14 132M458.22 132.13Q457.02 132.13 456.14 131.61Q455.25 131.09 454.76 130.15Q454.27 129.22 454.27 127.97Q454.27 126.70 454.76 125.78Q455.25 124.85 456.14 124.33Q457.02 123.81 458.22 123.81Q459.07 123.81 459.78 124.15Q460.50 124.50 460.83 125.06L460.83 120.67L462.61 120.67L462.61 132L460.83 132L460.83 130.86Q460.50 131.42 459.78 131.78Q459.06 132.13 458.22 132.13M458.45 130.62Q459.50 130.62 460.17 129.88Q460.83 129.14 460.83 127.97Q460.83 126.78 460.17 126.05Q459.50 125.31 458.45 125.31Q457.39 125.31 456.72 126.05Q456.05 126.78 456.05 127.97Q456.05 129.14 456.72 129.88Q457.39 130.62 458.45 130.62" fill="#f6f5ee"/>
  <path d="M321.84 164L320.82 164L320.82 157.95L321.84 157.95L321.84 159.02Q322.11 158.44 322.62 158.15Q323.13 157.86 323.72 157.86Q323.91 157.86 324.12 157.89Q324.32 157.92 324.46 157.99L324.39 158.96Q324.19 158.86 324 158.85Q323.80 158.83 323.61 158.83Q322.86 158.83 322.35 159.54Q321.84 160.24 321.84 161.58L321.84 164M327.54 164.10Q326.90 164.10 326.39 163.84Q325.88 163.58 325.59 163.10Q325.29 162.62 325.29 161.92L325.29 157.95L326.32 157.95L326.32 161.68Q326.32 162.42 326.71 162.81Q327.09 163.20 327.73 163.20Q328.63 163.20 329.16 162.48Q329.68 161.76 329.68 160.54L329.68 157.95L330.70 157.95L330.70 164L329.68 164L329.68 162.96Q329.40 163.42 328.84 163.76Q328.29 164.10 327.54 164.10M333.36 164L332.34 164L332.34 157.95L333.36 157.95L333.36 159Q333.63 158.53 334.19 158.19Q334.75 157.86 335.50 157.86Q336.14 157.86 336.64 158.11Q337.15 158.37 337.44 158.86Q337.74 159.34 337.74 160.04L337.74 164L336.72 164L336.72 160.27Q336.72 159.54 336.33 159.15Q335.95 158.76 335.30 158.76Q334.41 158.76 333.88 159.48Q333.36 160.20 333.36 161.41L333.36 164M341.29 164.10Q340.27 164.10 339.62 163.59Q338.97 163.08 338.78 162.31L339.72 162.01Q339.85 162.60 340.24 162.91Q340.63 163.22 341.29 163.22Q341.85 163.22 342.19 162.98Q342.54 162.74 342.54 162.27Q342.54 161.90 342.28 161.70Q342.03 161.50 341.64 161.38Q341.24 161.26 340.80 161.16Q340.36 161.05 339.97 160.87Q339.57 160.69 339.32 160.36Q339.07 160.04 339.07 159.49Q339.07 159.02 339.33 158.65Q339.58 158.29 340.05 158.07Q340.52 157.86 341.12 157.86Q342.01 157.86 342.64 158.26Q343.27 158.66 343.46 159.36L342.52 159.69Q342.38 159.16 342.01 158.95Q341.65 158.73 341.12 158.73Q340.68 158.73 340.38 158.91Q340.08 159.09 340.08 159.45Q340.08 159.79 340.33 159.96Q340.58 160.14 340.98 160.24Q341.37 160.34 341.82 160.45Q342.27 160.56 342.67 160.75Q343.06 160.94 343.32 161.29Q343.57 161.65 343.57 162.25Q343.57 162.79 343.27 163.21Q342.97 163.63 342.46 163.86Q341.95 164.10 341.29 164.10M348.48 164L347.44 164L347.44 157.95L348.48 157.95L348.48 164M347.96 156.90Q347.65 156.90 347.44 156.69Q347.23 156.49 347.23 156.18Q347.23 155.86 347.44 155.66Q347.65 155.46 347.96 155.46Q348.28 155.46 348.49 155.66Q348.70 155.86 348.70 156.18Q348.70 156.49 348.49 156.69Q348.28 156.90 347.96 156.90M351.12 164L350.10 164L350.10 157.95L351.12 157.95L351.12 159Q351.39 158.53 351.95 158.19Q352.51 157.86 353.26 157.86Q353.90 157.86 354.40 158.11Q354.91 158.37 355.20 158.86Q355.50 159.34 355.50 160.04L355.50 164L354.48 164L354.48 160.27Q354.48 159.54 354.09 159.15Q353.71 158.76 353.06 158.76Q352.17 158.76 351.64 159.48Q351.12 160.20 351.12 161.41L351.12 164M361.58 166.18L360.51 166.18L361.40 164L359.05 157.95L360.15 157.95L361.93 162.67L363.70 157.95L364.78 157.95L361.58 166.18M368.40 164.10Q367.51 164.10 366.82 163.69Q366.13 163.29 365.73 162.59Q365.34 161.89 365.34 160.98Q365.34 160.06 365.73 159.36Q366.13 158.66 366.82 158.26Q367.51 157.86 368.40 157.86Q369.28 157.86 369.97 158.26Q370.66 158.66 371.06 159.36Q371.46 160.06 371.46 160.98Q371.46 161.89 371.06 162.59Q370.66 163.29 369.97 163.69Q369.28 164.10 368.40 164.10M368.40 163.20Q368.98 163.20 369.44 162.91Q369.90 162.63 370.15 162.13Q370.41 161.62 370.41 160.98Q370.41 160.32 370.15 159.81Q369.90 159.31 369.44 159.03Q368.98 158.74 368.40 158.74Q367.81 158.74 367.35 159.03Q366.90 159.31 366.64 159.81Q366.38 160.32 366.38 160.98Q366.38 161.62 366.64 162.13Q366.90 162.63 367.35 162.91Q367.81 163.20 368.40 163.20M374.88 164.10Q374.24 164.10 373.73 163.84Q373.22 163.58 372.93 163.10Q372.63 162.62 372.63 161.92L372.63 157.95L373.66 157.95L373.66 161.68Q373.66 162.42 374.05 162.81Q374.43 163.20 375.07 163.20Q375.97 163.20 376.50 162.48Q377.02 161.76 377.02 160.54L377.02 157.95L378.04 157.95L378.04 164L377.02 164L377.02 162.96Q376.74 163.42 376.18 163.76Q375.63 164.10 374.88 164.10M380.70 164L379.68 164L379.68 157.95L380.70 157.95L380.70 159.02Q380.97 158.44 381.48 158.15Q381.99 157.86 382.58 157.86Q382.77 157.86 382.98 157.89Q383.18 157.92 383.32 157.99L383.25 158.96Q383.05 158.86 382.86 158.85Q382.66 158.83 382.47 158.83Q381.72 158.83 381.21 159.54Q380.70 160.24 380.70 161.58L380.70 164M387.91 164L386.89 164L386.89 157.95L387.91 157.95L387.91 159Q388.18 158.53 388.74 158.19Q389.30 157.86 390.06 157.86Q390.69 157.86 391.20 158.11Q391.70 158.37 391.99 158.86Q392.29 159.34 392.29 160.04L392.29 164L391.27 164L391.27 160.27Q391.27 159.54 390.88 159.15Q390.50 158.76 389.85 158.76Q388.96 158.76 388.44 159.48Q387.91 160.20 387.91 161.41L387.91 164M396.48 164.10Q395.59 164.10 394.91 163.69Q394.23 163.29 393.85 162.59Q393.48 161.89 393.48 160.98Q393.48 160.06 393.86 159.36Q394.24 158.66 394.91 158.26Q395.58 157.86 396.44 157.86Q397.36 157.86 398.02 158.29Q398.68 158.73 399.01 159.46Q399.33 160.20 399.21 161.11L394.52 161.11Q394.57 162.04 395.10 162.63Q395.62 163.21 396.48 163.21Q397.12 163.21 397.62 162.86Q398.11 162.51 398.23 162.02L399.16 162.26Q398.96 163.08 398.23 163.59Q397.50 164.10 396.48 164.10M394.59 160.29L398.17 160.29Q398.16 159.57 397.68 159.15Q397.20 158.73 396.44 158.73Q395.73 158.73 395.24 159.15Q394.75 159.56 394.59 160.29M402.63 164.10Q401.85 164.10 401.34 163.62Q400.83 163.14 400.83 162.21L400.83 158.80L399.81 158.80L399.81 157.95L400.83 157.95L400.83 156.42L401.86 156.42L401.86 157.95L403.40 157.95L403.40 158.80L401.86 158.80L401.86 162.13Q401.86 162.66 402.10 162.92Q402.34 163.18 402.75 163.18Q403.06 163.18 403.39 163.06L403.47 163.94Q403.30 164.02 403.07 164.06Q402.84 164.10 402.63 164.10M406.98 164L405.94 164L403.81 157.95L404.91 157.95L406.48 162.67L408.04 157.95L409.03 157.95L410.60 162.67L412.16 157.95L413.23 157.95L411.08 164L410.07 164L408.52 159.43L406.98 164M416.86 164.10Q415.98 164.10 415.29 163.69Q414.60 163.29 414.20 162.59Q413.80 161.89 413.80 160.98Q413.80 160.06 414.20 159.36Q414.60 158.66 415.29 158.26Q415.98 157.86 416.86 157.86Q417.75 157.86 418.44 158.26Q419.13 158.66 419.53 159.36Q419.92 160.06 419.92 160.98Q419.92 161.89 419.53 162.59Q419.13 163.29 418.44 163.69Q417.75 164.10 416.86 164.10M416.86 163.20Q417.45 163.20 417.91 162.91Q418.36 162.63 418.62 162.13Q418.88 161.62 418.88 160.98Q418.88 160.32 418.62 159.81Q418.36 159.31 417.91 159.03Q417.45 158.74 416.86 158.74Q416.28 158.74 415.82 159.03Q415.36 159.31 415.11 159.81Q414.85 160.32 414.85 160.98Q414.85 161.62 415.11 162.13Q415.36 162.63 415.82 162.91Q416.28 163.20 416.86 163.20M422.19 164L421.17 164L421.17 157.95L422.19 157.95L422.19 159.02Q422.47 158.44 422.98 158.15Q423.49 157.86 424.08 157.86Q424.27 157.86 424.47 157.89Q424.68 157.92 424.82 157.99L424.75 158.96Q424.54 158.86 424.35 158.85Q424.16 158.83 423.97 158.83Q423.21 158.83 422.70 159.54Q422.19 160.24 422.19 161.58L422.19 164M426.74 164L425.71 164L425.71 155.50L426.74 155.50L426.74 160.45L429.56 157.95L430.94 157.95L428.40 160.27L431.16 164L429.92 164L427.63 160.96L426.74 161.78" fill="#d0ee89"/>

  <rect x="678" y="70" width="240" height="60" rx="2" fill="#262d1e"/>
  <path d="M772.29 105L770.64 105L770.64 95.20L777.15 95.20L777.15 96.61L772.29 96.61L772.29 99.18L776.24 99.18L776.24 100.59L772.29 100.59L772.29 105M781.43 105.11Q780.38 105.11 779.56 104.64Q778.73 104.17 778.26 103.35Q777.79 102.52 777.79 101.46Q777.79 100.39 778.26 99.58Q778.73 98.76 779.56 98.29Q780.38 97.83 781.43 97.83Q782.50 97.83 783.31 98.29Q784.13 98.76 784.60 99.58Q785.07 100.39 785.07 101.46Q785.07 102.52 784.60 103.35Q784.13 104.17 783.31 104.64Q782.50 105.11 781.43 105.11M781.43 103.80Q782.36 103.80 782.94 103.14Q783.52 102.49 783.52 101.46Q783.52 100.44 782.94 99.79Q782.36 99.15 781.43 99.15Q780.52 99.15 779.93 99.78Q779.35 100.42 779.35 101.46Q779.35 102.49 779.93 103.14Q780.52 103.80 781.43 103.80M787.90 105L786.37 105L786.37 97.94L787.90 97.94L787.90 99.02Q788.21 98.45 788.77 98.14Q789.34 97.83 790.03 97.83Q790.25 97.83 790.49 97.87Q790.73 97.90 790.90 97.97L790.78 99.43Q790.56 99.33 790.34 99.30Q790.11 99.27 789.89 99.27Q789.08 99.27 788.49 100.01Q787.90 100.74 787.90 102.27L787.90 105M795 105.11Q793.93 105.11 793.13 104.64Q792.32 104.17 791.88 103.36Q791.43 102.54 791.43 101.47Q791.43 100.41 791.88 99.59Q792.32 98.77 793.12 98.30Q793.92 97.83 794.94 97.83Q796.06 97.83 796.86 98.36Q797.66 98.88 798.04 99.77Q798.41 100.66 798.27 101.75L792.97 101.75Q793.05 102.69 793.59 103.26Q794.13 103.82 795 103.82Q795.66 103.82 796.16 103.48Q796.66 103.14 796.79 102.62L798.22 103Q797.95 103.94 797.08 104.52Q796.20 105.11 795 105.11M793.05 100.59L796.69 100.59Q796.68 99.89 796.19 99.48Q795.71 99.06 794.94 99.06Q794.23 99.06 793.73 99.46Q793.23 99.86 793.05 100.59M802.07 105.11Q801.26 105.11 800.63 104.83Q800 104.55 799.60 104.07Q799.20 103.59 799.06 103.01L800.39 102.58Q800.53 103.19 800.95 103.54Q801.38 103.88 802.07 103.88Q802.63 103.88 802.97 103.64Q803.31 103.39 803.31 102.96Q803.31 102.58 803.03 102.38Q802.75 102.17 802.31 102.05Q801.86 101.92 801.35 101.79Q800.85 101.65 800.40 101.44Q799.95 101.22 799.67 100.83Q799.39 100.44 799.39 99.78Q799.39 99.23 799.70 98.79Q800.01 98.35 800.56 98.09Q801.12 97.83 801.86 97.83Q802.92 97.83 803.68 98.31Q804.43 98.78 804.66 99.57L803.34 100.06Q803.19 99.48 802.78 99.25Q802.38 99.02 801.86 99.02Q801.42 99.02 801.13 99.20Q800.84 99.39 800.84 99.74Q800.84 100.09 801.12 100.26Q801.41 100.44 801.86 100.55Q802.31 100.66 802.81 100.79Q803.31 100.91 803.76 101.14Q804.21 101.37 804.50 101.79Q804.78 102.20 804.78 102.91Q804.78 103.56 804.43 104.06Q804.08 104.55 803.47 104.83Q802.85 105.11 802.07 105.11M808.86 105.11Q807.86 105.11 807.20 104.51Q806.53 103.91 806.53 102.76L806.53 99.20L805.37 99.20L805.37 97.94L806.53 97.94L806.53 96.19L808.07 96.19L808.07 97.94L809.78 97.94L809.78 99.20L808.07 99.20L808.07 102.63Q808.07 103.19 808.34 103.48Q808.61 103.77 809.05 103.77Q809.25 103.77 809.42 103.73Q809.60 103.68 809.78 103.63L809.89 104.93Q809.67 105.03 809.40 105.07Q809.12 105.11 808.86 105.11M817.93 105.11Q816.77 105.11 815.88 104.66Q814.99 104.20 814.50 103.38Q814.01 102.55 814.01 101.47L814.01 95.20L815.65 95.20L815.65 101.47Q815.65 102.45 816.28 103.08Q816.92 103.70 817.93 103.70Q818.92 103.70 819.55 103.08Q820.18 102.45 820.18 101.47L820.18 95.20L821.84 95.20L821.84 101.47Q821.84 102.55 821.35 103.38Q820.86 104.20 819.97 104.66Q819.09 105.11 817.93 105.11M825.36 105L823.71 105L823.71 95.20L825.36 95.20" fill="#e3f68b"/>

  <rect x="678" y="195" width="240" height="62" rx="2" fill="#ffffff"/>
  <path d="M738.49 232L736.78 232L740.62 222.20L742.47 222.20L746.29 232L744.53 232L743.63 229.69L739.40 229.69L738.49 232M741.52 224.16L739.92 228.29L743.11 228.29L741.52 224.16M748.94 232L747.28 232L747.28 222.20L748.94 222.20L748.94 232M755.91 232.11Q754.77 232.11 754.11 231.52Q753.44 230.94 753.44 230.07Q753.44 229.02 754.19 228.45Q754.94 227.88 756.58 227.70L758.02 227.56L758.02 227.38Q758.02 226.76 757.61 226.41Q757.20 226.06 756.52 226.06Q755.88 226.06 755.48 226.39Q755.08 226.71 755 227.37L753.53 227.14Q753.71 226.11 754.52 225.47Q755.33 224.83 756.52 224.83Q757.41 224.83 758.09 225.15Q758.78 225.48 759.16 226.09Q759.55 226.69 759.55 227.56L759.55 232L758.02 232L758.02 230.98Q757.80 231.45 757.21 231.78Q756.62 232.11 755.91 232.11M758.02 228.89L758.02 228.70L756.65 228.86Q755.77 228.96 755.37 229.21Q754.97 229.47 754.97 230Q754.97 230.45 755.29 230.69Q755.61 230.94 756.16 230.94Q756.72 230.94 757.13 230.66Q757.55 230.38 757.78 229.91Q758.02 229.45 758.02 228.89M764.28 234.66Q763.45 234.66 762.76 234.39Q762.07 234.13 761.61 233.65Q761.16 233.18 761.03 232.57L762.52 232.28Q762.66 232.83 763.14 233.13Q763.62 233.43 764.31 233.43Q765.18 233.43 765.74 232.99Q766.30 232.55 766.30 231.69L766.30 230.67Q766 231.12 765.39 231.39Q764.78 231.66 764.06 231.66Q763.10 231.66 762.36 231.24Q761.62 230.81 761.20 230.04Q760.78 229.27 760.78 228.25Q760.78 227.20 761.20 226.44Q761.62 225.67 762.36 225.25Q763.10 224.83 764.08 224.83Q764.81 224.83 765.40 225.10Q765.99 225.36 766.30 225.81L766.30 224.94L767.84 224.94L767.84 231.54Q767.84 232.53 767.39 233.23Q766.94 233.93 766.14 234.30Q765.34 234.66 764.28 234.66M764.32 230.35Q765.18 230.35 765.74 229.76Q766.30 229.17 766.30 228.25Q766.30 227.31 765.74 226.73Q765.18 226.15 764.32 226.15Q763.45 226.15 762.89 226.73Q762.33 227.31 762.33 228.25Q762.33 229.19 762.89 229.77Q763.45 230.35 764.32 230.35M772.68 232.11Q771.62 232.11 770.81 231.64Q770.01 231.17 769.56 230.35Q769.11 229.54 769.11 228.47Q769.11 227.41 769.56 226.59Q770.01 225.77 770.80 225.30Q771.60 224.83 772.62 224.83Q773.74 224.83 774.54 225.36Q775.34 225.88 775.72 226.77Q776.10 227.66 775.96 228.75L770.65 228.75Q770.73 229.69 771.27 230.26Q771.81 230.82 772.68 230.82Q773.34 230.82 773.84 230.48Q774.35 230.14 774.47 229.62L775.90 230Q775.63 230.94 774.76 231.52Q773.88 232.11 772.68 232.11M770.73 227.59L774.37 227.59Q774.36 226.89 773.88 226.48Q773.39 226.06 772.62 226.06Q771.91 226.06 771.41 226.46Q770.92 226.86 770.73 227.59M778.83 232L777.30 232L777.30 224.94L778.83 224.94L778.83 225.99Q779.13 225.53 779.75 225.18Q780.37 224.83 781.21 224.83Q781.96 224.83 782.56 225.14Q783.15 225.45 783.49 226.03Q783.82 226.61 783.82 227.42L783.82 232L782.30 232L782.30 227.76Q782.30 227 781.89 226.59Q781.49 226.18 780.81 226.18Q779.89 226.18 779.36 226.92Q778.83 227.66 778.83 228.95L778.83 232M788.25 232.11Q787.25 232.11 786.59 231.51Q785.92 230.91 785.92 229.76L785.92 226.20L784.76 226.20L784.76 224.94L785.92 224.94L785.92 223.19L787.46 223.19L787.46 224.94L789.17 224.94L789.17 226.20L787.46 226.20L787.46 229.63Q787.46 230.19 787.73 230.48Q788 230.77 788.44 230.77Q788.64 230.77 788.82 230.73Q788.99 230.68 789.17 230.63L789.28 231.93Q789.06 232.03 788.79 232.07Q788.51 232.11 788.25 232.11M792.81 232.11Q792 232.11 791.37 231.83Q790.74 231.55 790.34 231.07Q789.94 230.59 789.80 230.01L791.13 229.58Q791.27 230.19 791.70 230.54Q792.13 230.88 792.81 230.88Q793.37 230.88 793.72 230.63Q794.06 230.39 794.06 229.96Q794.06 229.58 793.78 229.38Q793.50 229.17 793.05 229.05Q792.60 228.92 792.10 228.79Q791.59 228.65 791.15 228.44Q790.70 228.22 790.42 227.83Q790.14 227.44 790.14 226.78Q790.14 226.23 790.45 225.79Q790.75 225.35 791.31 225.09Q791.86 224.83 792.60 224.83Q793.67 224.83 794.42 225.31Q795.18 225.78 795.40 226.57L794.09 227.06Q793.93 226.48 793.53 226.25Q793.12 226.02 792.60 226.02Q792.17 226.02 791.87 226.20Q791.58 226.39 791.58 226.74Q791.58 227.09 791.87 227.26Q792.15 227.44 792.60 227.55Q793.05 227.66 793.55 227.79Q794.06 227.91 794.51 228.14Q794.95 228.37 795.24 228.79Q795.53 229.20 795.53 229.91Q795.53 230.56 795.18 231.06Q794.83 231.55 794.21 231.83Q793.60 232.11 792.81 232.11M802.85 233.57L801.81 234.34Q800.68 232.94 800.08 231.24Q799.48 229.54 799.48 227.60Q799.48 225.66 800.09 223.96Q800.69 222.26 801.81 220.87L802.85 221.65Q801.88 223.01 801.40 224.48Q800.92 225.95 800.92 227.60Q800.92 229.27 801.40 230.73Q801.88 232.18 802.85 233.57M807.50 232L806.01 232L803.21 224.94L804.88 224.94L806.78 229.97L808.69 224.94L810.30 224.94L807.50 232M812.75 232L811.22 232L811.22 224.94L812.75 224.94L812.75 232M811.99 223.88Q811.56 223.88 811.26 223.60Q810.97 223.32 810.97 222.89Q810.97 222.45 811.26 222.17Q811.56 221.89 811.99 221.89Q812.44 221.89 812.73 222.17Q813.03 222.45 813.03 222.89Q813.03 223.32 812.73 223.60Q812.44 223.88 811.99 223.88M816.60 232.11Q815.46 232.11 814.80 231.52Q814.13 230.94 814.13 230.07Q814.13 229.02 814.88 228.45Q815.63 227.88 817.27 227.70L818.71 227.56L818.71 227.38Q818.71 226.76 818.30 226.41Q817.89 226.06 817.21 226.06Q816.57 226.06 816.17 226.39Q815.77 226.71 815.69 227.37L814.22 227.14Q814.40 226.11 815.21 225.47Q816.02 224.83 817.21 224.83Q818.10 224.83 818.78 225.15Q819.47 225.48 819.85 226.09Q820.24 226.69 820.24 227.56L820.24 232L818.71 232L818.71 230.98Q818.49 231.45 817.90 231.78Q817.31 232.11 816.60 232.11M818.71 228.89L818.71 228.70L817.34 228.86Q816.46 228.96 816.06 229.21Q815.66 229.47 815.66 230Q815.66 230.45 815.98 230.69Q816.30 230.94 816.85 230.94Q817.41 230.94 817.82 230.66Q818.24 230.38 818.47 229.91Q818.71 229.45 818.71 228.89M826.62 232L824.97 232L824.97 222.20L827.29 222.20L829.70 227.97Q830.04 228.78 830.19 229.31Q830.35 229.83 830.35 229.83Q830.35 229.83 830.51 229.31Q830.68 228.78 831.02 227.97L833.43 222.20L835.69 222.20L835.69 232L834.04 232L834.04 226.39Q834.04 225.50 834.06 224.95Q834.09 224.40 834.09 224.40Q834.09 224.40 833.90 224.92Q833.72 225.43 833.38 226.26L830.99 232L829.67 232L827.28 226.26Q826.94 225.45 826.76 224.93Q826.58 224.41 826.58 224.41Q826.58 224.41 826.60 224.96Q826.62 225.50 826.62 226.39L826.62 232M842.02 232.11Q840.65 232.11 839.55 231.52Q838.45 230.92 837.82 229.79Q837.19 228.67 837.19 227.10Q837.19 225.53 837.82 224.41Q838.45 223.29 839.54 222.69Q840.64 222.09 842.02 222.09Q843.70 222.09 844.84 222.91Q845.98 223.73 846.25 225.20L844.60 225.49Q844.46 224.58 843.75 224.04Q843.03 223.50 842.02 223.50Q841.10 223.50 840.38 223.93Q839.66 224.36 839.25 225.16Q838.84 225.97 838.84 227.10Q838.84 228.22 839.26 229.03Q839.67 229.84 840.38 230.27Q841.10 230.70 842.02 230.70Q843.12 230.70 843.82 230.12Q844.53 229.55 844.67 228.61L846.29 228.84Q846.18 229.80 845.61 230.54Q845.03 231.29 844.11 231.70Q843.18 232.11 842.02 232.11M849.30 232L847.66 232L847.66 222.20L851.58 222.20Q852.55 222.20 853.26 222.56Q853.98 222.93 854.37 223.58Q854.76 224.23 854.76 225.11Q854.76 225.99 854.37 226.65Q853.98 227.31 853.26 227.67Q852.55 228.04 851.58 228.04L849.30 228.04L849.30 232M849.30 223.61L849.30 226.64L851.42 226.64Q852.20 226.64 852.66 226.22Q853.13 225.80 853.13 225.11Q853.13 224.43 852.66 224.02Q852.20 223.61 851.42 223.61L849.30 223.61M856.37 234.34L855.32 233.57Q856.30 232.18 856.79 230.73Q857.27 229.27 857.27 227.60Q857.27 225.95 856.79 224.48Q856.30 223.01 855.32 221.65L856.37 220.87Q857.49 222.26 858.09 223.96Q858.70 225.66 858.70 227.60Q858.70 229.54 858.10 231.24Q857.51 232.94 856.37 234.34" fill="#262d1e"/>
</svg>
