<svg width="980" height="280" viewBox="0 0 980 280" fill="none" xmlns="http://www.w3.org/2000/svg" font-family="Matter, Inter, system-ui, sans-serif">
  <defs>
    <pattern id="dots" width="22" height="22" patternUnits="userSpaceOnUse"><circle cx="2" cy="2" r="1.4" fill="#d4d2c6"/></pattern>
    <marker id="sq" markerWidth="9" markerHeight="9" refX="7.5" refY="4" orient="auto" markerUnits="userSpaceOnUse"><path d="M1 1 L7.5 4 L1 7 Z" fill="#686c62"/></marker>
  </defs>
  <rect width="980" height="280" rx="4" fill="#f6f5ee"/>
  <rect width="980" height="280" rx="4" fill="url(#dots)"/>

  <rect x="40" y="50" width="360" height="200" rx="2" fill="#ece9e0"/>
  <path d="M57.27 74L54.77 74L54.77 66.30L57.27 66.30Q58.06 66.30 58.76 66.55Q59.47 66.80 60 67.28Q60.53 67.77 60.84 68.49Q61.15 69.20 61.15 70.15Q61.15 71.08 60.84 71.81Q60.53 72.53 60 73.02Q59.47 73.50 58.76 73.75Q58.06 74 57.27 74M56.07 67.41L56.07 72.89L57.12 72.89Q57.88 72.89 58.50 72.59Q59.12 72.28 59.48 71.67Q59.85 71.06 59.85 70.15Q59.85 69.24 59.48 68.63Q59.12 68.02 58.50 67.71Q57.88 67.41 57.12 67.41M68.97 74L63.83 74L63.83 66.30L68.94 66.30L68.94 67.41L65.13 67.41L65.13 69.42L68.23 69.42L68.23 70.53L65.13 70.53L65.13 72.89L68.97 72.89M75.20 74L73.73 74L70.87 66.30L72.25 66.30L74.49 72.39L76.73 66.30L78.08 66.30M85.53 74L80.38 74L80.38 66.30L85.49 66.30L85.49 67.41L81.68 67.41L81.68 69.42L84.78 69.42L84.78 70.53L81.68 70.53L81.68 72.89L85.53 72.89M93.18 74L88.15 74L88.15 66.30L89.45 66.30L89.45 72.89L93.18 72.89M99.10 74.09Q98.26 74.09 97.55 73.80Q96.84 73.50 96.32 72.97Q95.80 72.44 95.51 71.72Q95.23 71.01 95.23 70.15Q95.23 69.29 95.51 68.58Q95.80 67.86 96.32 67.33Q96.84 66.80 97.55 66.50Q98.26 66.21 99.10 66.21Q99.92 66.21 100.63 66.50Q101.33 66.80 101.85 67.33Q102.38 67.86 102.67 68.58Q102.96 69.29 102.96 70.15Q102.96 71.01 102.67 71.72Q102.38 72.44 101.85 72.97Q101.33 73.50 100.63 73.80Q99.92 74.09 99.10 74.09M99.10 72.98Q99.85 72.98 100.42 72.61Q101 72.24 101.33 71.60Q101.66 70.96 101.66 70.15Q101.66 69.34 101.33 68.70Q101 68.06 100.42 67.69Q99.85 67.32 99.10 67.32Q98.35 67.32 97.77 67.69Q97.18 68.05 96.85 68.69Q96.52 69.33 96.52 70.15Q96.52 70.96 96.85 71.61Q97.18 72.25 97.77 72.61Q98.35 72.98 99.10 72.98M106.92 74L105.64 74L105.64 66.30L108.72 66.30Q109.47 66.30 110.04 66.59Q110.60 66.87 110.90 67.38Q111.21 67.89 111.21 68.59Q111.21 69.28 110.90 69.80Q110.60 70.31 110.04 70.60Q109.47 70.89 108.72 70.89L106.92 70.89L106.92 74M106.92 67.41L106.92 69.79L108.58 69.79Q109.20 69.79 109.56 69.46Q109.93 69.13 109.93 68.59Q109.93 68.05 109.56 67.73Q109.20 67.41 108.58 67.41M115 74L113.70 74L113.70 66.30L115.53 66.30L117.42 70.83Q117.68 71.47 117.81 71.88Q117.93 72.30 117.93 72.30Q117.93 72.30 118.06 71.88Q118.19 71.47 118.45 70.83L120.35 66.30L122.13 66.30L122.13 74L120.83 74L120.83 69.59Q120.83 68.90 120.85 68.46Q120.86 68.03 120.86 68.03Q120.86 68.03 120.72 68.43Q120.58 68.84 120.31 69.49L118.43 74L117.40 74L115.52 69.49Q115.25 68.85 115.11 68.44Q114.97 68.04 114.97 68.04Q114.97 68.04 114.98 68.47Q115 68.90 115 69.59M130.32 74L125.17 74L125.17 66.30L130.28 66.30L130.28 67.41L126.47 67.41L126.47 69.42L129.57 69.42L129.57 70.53L126.47 70.53L126.47 72.89L130.32 72.89M134.24 74L132.94 74L132.94 66.30L134.56 66.30L137.28 70.93Q137.61 71.54 137.79 71.93Q137.97 72.33 137.97 72.33Q137.97 72.33 137.95 71.89Q137.93 71.46 137.93 70.78L137.93 66.30L139.23 66.30L139.23 74L137.61 74L134.90 69.37Q134.56 68.75 134.38 68.36Q134.20 67.97 134.20 67.97Q134.20 67.97 134.22 68.41Q134.24 68.84 134.24 69.52M145.33 74L144.03 74L144.03 67.41L141.67 67.41L141.67 66.30L147.69 66.30L147.69 67.41L145.33 67.41" fill="#686c62"/>
  <rect x="560" y="50" width="380" height="200" rx="2" fill="#ece9e0"/>
  <path d="M576.06 74L574.77 74L574.77 66.30L577.85 66.30Q578.61 66.30 579.17 66.59Q579.73 66.87 580.04 67.38Q580.35 67.89 580.35 68.59Q580.35 69.28 580.04 69.80Q579.73 70.31 579.17 70.60Q578.61 70.89 577.85 70.89L576.06 70.89L576.06 74M576.06 67.41L576.06 69.79L577.72 69.79Q578.33 69.79 578.70 69.46Q579.06 69.13 579.06 68.59Q579.06 68.05 578.70 67.73Q578.33 67.41 577.72 67.41M584.13 74L582.84 74L582.84 66.30L585.78 66.30Q586.50 66.30 587.03 66.58Q587.57 66.85 587.87 67.35Q588.17 67.85 588.17 68.51Q588.17 69.18 587.80 69.73Q587.44 70.27 586.81 70.52L588.93 74L587.42 74L585.50 70.72L584.13 70.72L584.13 74M584.13 67.41L584.13 69.61L585.57 69.61Q586.17 69.61 586.53 69.30Q586.88 69 586.88 68.51Q586.88 68.02 586.53 67.71Q586.17 67.41 585.57 67.41M594.76 74.09Q593.93 74.09 593.22 73.80Q592.51 73.50 591.99 72.97Q591.46 72.44 591.18 71.72Q590.89 71.01 590.89 70.15Q590.89 69.29 591.18 68.58Q591.46 67.86 591.99 67.33Q592.51 66.80 593.22 66.50Q593.93 66.21 594.76 66.21Q595.59 66.21 596.29 66.50Q597 66.80 597.52 67.33Q598.04 67.86 598.33 68.58Q598.63 69.29 598.63 70.15Q598.63 71.01 598.33 71.72Q598.04 72.44 597.52 72.97Q597 73.50 596.29 73.80Q595.59 74.09 594.76 74.09M594.76 72.98Q595.51 72.98 596.09 72.61Q596.67 72.24 597 71.60Q597.33 70.96 597.33 70.15Q597.33 69.34 597 68.70Q596.67 68.06 596.09 67.69Q595.51 67.32 594.76 67.32Q594.02 67.32 593.43 67.69Q592.85 68.05 592.52 68.69Q592.19 69.33 592.19 70.15Q592.19 70.96 592.52 71.61Q592.85 72.25 593.43 72.61Q594.02 72.98 594.76 72.98M603.80 74L601.30 74L601.30 66.30L603.80 66.30Q604.59 66.30 605.30 66.55Q606 66.80 606.53 67.28Q607.07 67.77 607.37 68.49Q607.68 69.20 607.68 70.15Q607.68 71.08 607.37 71.81Q607.07 72.53 606.53 73.02Q606 73.50 605.30 73.75Q604.59 74 603.80 74M602.60 67.41L602.60 72.89L603.66 72.89Q604.42 72.89 605.03 72.59Q605.65 72.28 606.02 71.67Q606.38 71.06 606.38 70.15Q606.38 69.24 606.02 68.63Q605.65 68.02 605.03 67.71Q604.42 67.41 603.66 67.41M613.37 74.09Q612.46 74.09 611.76 73.73Q611.06 73.37 610.68 72.72Q610.29 72.08 610.29 71.23L610.29 66.30L611.58 66.30L611.58 71.23Q611.58 72 612.08 72.49Q612.58 72.98 613.37 72.98Q614.15 72.98 614.65 72.49Q615.14 72 615.14 71.23L615.14 66.30L616.44 66.30L616.44 71.23Q616.44 72.08 616.06 72.72Q615.67 73.37 614.98 73.73Q614.29 74.09 613.37 74.09M622.85 74.09Q621.77 74.09 620.91 73.62Q620.04 73.15 619.55 72.27Q619.05 71.38 619.05 70.15Q619.05 68.92 619.55 68.04Q620.04 67.16 620.90 66.69Q621.76 66.21 622.85 66.21Q624.17 66.21 625.07 66.86Q625.96 67.50 626.17 68.65L624.87 68.89Q624.76 68.17 624.20 67.75Q623.64 67.32 622.85 67.32Q622.12 67.32 621.56 67.66Q620.99 67.99 620.67 68.63Q620.35 69.26 620.35 70.15Q620.35 71.03 620.68 71.67Q621 72.31 621.56 72.64Q622.12 72.98 622.85 72.98Q623.71 72.98 624.26 72.53Q624.82 72.08 624.93 71.34L626.20 71.51Q626.12 72.27 625.66 72.86Q625.21 73.44 624.49 73.76Q623.76 74.09 622.85 74.09M631.84 74L630.54 74L630.54 67.41L628.18 67.41L628.18 66.30L634.20 66.30L634.20 67.41L631.84 67.41M637.94 74L636.64 74L636.64 66.30L637.94 66.30M644.48 74.09Q643.64 74.09 642.93 73.80Q642.22 73.50 641.70 72.97Q641.18 72.44 640.89 71.72Q640.60 71.01 640.60 70.15Q640.60 69.29 640.89 68.58Q641.18 67.86 641.70 67.33Q642.22 66.80 642.93 66.50Q643.64 66.21 644.48 66.21Q645.30 66.21 646 66.50Q646.71 66.80 647.23 67.33Q647.75 67.86 648.05 68.58Q648.34 69.29 648.34 70.15Q648.34 71.01 648.05 71.72Q647.75 72.44 647.23 72.97Q646.71 73.50 646 73.80Q645.30 74.09 644.48 74.09M644.48 72.98Q645.22 72.98 645.80 72.61Q646.38 72.24 646.71 71.60Q647.04 70.96 647.04 70.15Q647.04 69.34 646.71 68.70Q646.38 68.06 645.80 67.69Q645.22 67.32 644.48 67.32Q643.73 67.32 643.14 67.69Q642.56 68.05 642.23 68.69Q641.90 69.33 641.90 70.15Q641.90 70.96 642.23 71.61Q642.56 72.25 643.14 72.61Q643.73 72.98 644.48 72.98M652.31 74L651.01 74L651.01 66.30L652.63 66.30L655.36 70.93Q655.69 71.54 655.86 71.93Q656.04 72.33 656.04 72.33Q656.04 72.33 656.02 71.89Q656.01 71.46 656.01 70.78L656.01 66.30L657.31 66.30L657.31 74L655.69 74L652.97 69.37Q652.63 68.75 652.45 68.36Q652.28 67.97 652.28 67.97Q652.28 67.97 652.30 68.41Q652.31 68.84 652.31 69.52" fill="#686c62"/>

  
  <g stroke="#686c62" stroke-opacity="0.7" stroke-width="1.5" fill="none">
    <path d="M145 152 V172" marker-end="url(#sq)"/>
    <path d="M220 197 H590" marker-end="url(#sq)"/>
    <path d="M220 122 H590" stroke-dasharray="4 4" marker-end="url(#sq)"/>
  </g>
  
  
    <path d="M182.14 167L181.15 167L181.15 162.02L180.17 162.02L180.17 161.20L181.15 161.20L181.15 160.54Q181.15 159.62 181.64 159.16Q182.13 158.70 182.88 158.70Q183.09 158.70 183.31 158.74Q183.52 158.78 183.68 158.84L183.60 159.70Q183.45 159.62 183.29 159.59Q183.14 159.56 182.99 159.56Q182.60 159.56 182.37 159.82Q182.14 160.08 182.14 160.58L182.14 161.20L183.61 161.20L183.61 162.02L182.14 162.02L182.14 167M187.10 167.09Q186.24 167.09 185.58 166.71Q184.92 166.32 184.54 165.65Q184.16 164.98 184.16 164.10Q184.16 163.23 184.54 162.56Q184.92 161.88 185.58 161.50Q186.24 161.11 187.10 161.11Q187.95 161.11 188.61 161.50Q189.27 161.88 189.65 162.56Q190.03 163.23 190.03 164.10Q190.03 164.98 189.65 165.65Q189.27 166.32 188.61 166.71Q187.95 167.09 187.10 167.09M187.10 166.23Q187.66 166.23 188.10 165.96Q188.53 165.69 188.78 165.21Q189.03 164.72 189.03 164.10Q189.03 163.47 188.78 162.99Q188.53 162.50 188.10 162.23Q187.66 161.96 187.10 161.96Q186.53 161.96 186.09 162.23Q185.66 162.50 185.41 162.99Q185.16 163.47 185.16 164.10Q185.16 164.72 185.41 165.21Q185.66 165.69 186.09 165.96Q186.53 166.23 187.10 166.23M192.20 167L191.22 167L191.22 161.20L192.20 161.20L192.20 162.23Q192.47 161.68 192.95 161.39Q193.44 161.11 194.01 161.11Q194.19 161.11 194.39 161.14Q194.58 161.17 194.72 161.24L194.65 162.17Q194.46 162.08 194.27 162.06Q194.09 162.04 193.90 162.04Q193.18 162.04 192.69 162.72Q192.20 163.40 192.20 164.68L192.20 167M198.09 167.09Q197.24 167.09 196.59 166.71Q195.94 166.32 195.58 165.65Q195.21 164.98 195.21 164.10Q195.21 163.23 195.58 162.56Q195.95 161.88 196.59 161.50Q197.23 161.11 198.06 161.11Q198.94 161.11 199.57 161.53Q200.21 161.95 200.52 162.65Q200.83 163.35 200.71 164.23L196.22 164.23Q196.26 165.13 196.77 165.68Q197.27 166.24 198.09 166.24Q198.71 166.24 199.18 165.91Q199.65 165.57 199.77 165.10L200.67 165.33Q200.47 166.11 199.77 166.60Q199.07 167.09 198.09 167.09M196.28 163.45L199.71 163.45Q199.70 162.76 199.24 162.35Q198.78 161.95 198.06 161.95Q197.38 161.95 196.91 162.35Q196.43 162.75 196.28 163.45M203.84 167.09Q202.86 167.09 202.24 166.60Q201.62 166.11 201.44 165.38L202.33 165.09Q202.46 165.65 202.83 165.95Q203.21 166.25 203.84 166.25Q204.38 166.25 204.71 166.02Q205.04 165.79 205.04 165.34Q205.04 164.99 204.79 164.80Q204.55 164.61 204.17 164.49Q203.79 164.38 203.37 164.27Q202.95 164.17 202.57 164Q202.19 163.83 201.95 163.52Q201.71 163.21 201.71 162.68Q201.71 162.23 201.96 161.88Q202.21 161.53 202.66 161.32Q203.10 161.11 203.68 161.11Q204.53 161.11 205.13 161.50Q205.74 161.88 205.92 162.55L205.02 162.87Q204.89 162.37 204.54 162.16Q204.18 161.95 203.68 161.95Q203.25 161.95 202.97 162.12Q202.68 162.30 202.68 162.64Q202.68 162.96 202.92 163.13Q203.16 163.30 203.54 163.39Q203.92 163.49 204.35 163.60Q204.78 163.70 205.16 163.88Q205.54 164.07 205.78 164.41Q206.02 164.75 206.02 165.32Q206.02 165.84 205.74 166.24Q205.45 166.64 204.96 166.87Q204.47 167.09 203.84 167.09M209.24 167.09Q208.50 167.09 208.01 166.63Q207.52 166.17 207.52 165.29L207.52 162.02L206.54 162.02L206.54 161.20L207.52 161.20L207.52 159.73L208.51 159.73L208.51 161.20L209.98 161.20L209.98 162.02L208.51 162.02L208.51 165.21Q208.51 165.71 208.74 165.97Q208.97 166.22 209.36 166.22Q209.66 166.22 209.97 166.10L210.05 166.94Q209.89 167.02 209.66 167.06Q209.44 167.09 209.24 167.09M216.56 167.09Q215.93 167.09 215.37 166.80Q214.82 166.52 214.56 166.05L214.56 167L213.57 167L213.57 158.86L214.56 158.86L214.56 162.15Q214.82 161.68 215.37 161.39Q215.91 161.11 216.56 161.11Q217.43 161.11 218.08 161.49Q218.72 161.86 219.08 162.53Q219.45 163.21 219.45 164.10Q219.45 165 219.08 165.67Q218.72 166.34 218.08 166.72Q217.43 167.09 216.56 167.09M216.50 166.24Q217.06 166.24 217.50 165.97Q217.94 165.70 218.19 165.22Q218.44 164.73 218.44 164.10Q218.44 163.47 218.19 162.99Q217.94 162.50 217.50 162.23Q217.06 161.96 216.50 161.96Q215.94 161.96 215.49 162.23Q215.05 162.50 214.80 162.99Q214.56 163.47 214.56 164.10Q214.56 164.72 214.80 165.21Q215.05 165.69 215.49 165.97Q215.94 166.24 216.50 166.24M221.62 167L220.64 167L220.64 161.20L221.62 161.20L221.62 162.23Q221.88 161.68 222.37 161.39Q222.86 161.11 223.42 161.11Q223.61 161.11 223.80 161.14Q224 161.17 224.14 161.24L224.07 162.17Q223.87 162.08 223.69 162.06Q223.50 162.04 223.32 162.04Q222.60 162.04 222.11 162.72Q221.62 163.40 221.62 164.68L221.62 167M226.76 167.09Q225.80 167.09 225.26 166.63Q224.71 166.16 224.71 165.44Q224.71 164.56 225.34 164.10Q225.98 163.64 227.36 163.50L228.60 163.38L228.60 163.17Q228.60 162.60 228.21 162.27Q227.83 161.95 227.20 161.95Q226.60 161.95 226.22 162.26Q225.84 162.56 225.75 163.17L224.82 163.01Q224.95 162.18 225.58 161.65Q226.21 161.11 227.20 161.11Q227.90 161.11 228.43 161.37Q228.97 161.63 229.28 162.11Q229.59 162.60 229.59 163.27L229.59 167L228.60 167L228.60 166.03Q228.48 166.31 228.21 166.55Q227.93 166.79 227.55 166.94Q227.17 167.09 226.76 167.09M228.60 164.41L228.60 164.14L227.41 164.27Q226.51 164.38 226.10 164.63Q225.70 164.87 225.70 165.40Q225.70 165.83 226.01 166.06Q226.32 166.30 226.84 166.30Q227.36 166.30 227.75 166.04Q228.15 165.78 228.37 165.35Q228.60 164.92 228.60 164.41M232.04 167L231.06 167L231.06 161.20L232.04 161.20L232.04 162.20Q232.30 161.76 232.84 161.43Q233.37 161.11 234.10 161.11Q234.71 161.11 235.19 161.36Q235.67 161.61 235.95 162.07Q236.23 162.54 236.23 163.21L236.23 167L235.26 167L235.26 163.42Q235.26 162.72 234.89 162.35Q234.52 161.97 233.90 161.97Q233.05 161.97 232.54 162.66Q232.04 163.35 232.04 164.52L232.04 167M240.24 167.09Q239.41 167.09 238.76 166.70Q238.12 166.31 237.75 165.63Q237.37 164.95 237.37 164.10Q237.37 163.24 237.75 162.56Q238.12 161.88 238.76 161.50Q239.41 161.11 240.24 161.11Q241.26 161.11 241.98 161.64Q242.70 162.16 242.85 163.06L241.87 163.21Q241.75 162.63 241.32 162.30Q240.89 161.96 240.24 161.96Q239.71 161.96 239.29 162.24Q238.87 162.51 238.62 162.99Q238.37 163.47 238.37 164.10Q238.37 164.72 238.62 165.20Q238.87 165.68 239.29 165.95Q239.71 166.23 240.24 166.23Q240.93 166.23 241.38 165.89Q241.82 165.55 241.90 164.99L242.91 165.10Q242.82 165.69 242.46 166.14Q242.10 166.59 241.53 166.84Q240.96 167.09 240.24 167.09M245.01 167L244.03 167L244.03 158.86L245.01 158.86L245.01 162.20Q245.27 161.76 245.81 161.43Q246.34 161.11 247.07 161.11Q247.68 161.11 248.17 161.36Q248.66 161.61 248.94 162.07Q249.22 162.54 249.22 163.21L249.22 167L248.23 167L248.23 163.42Q248.23 162.72 247.86 162.35Q247.49 161.97 246.87 161.97Q246.02 161.97 245.52 162.66Q245.01 163.35 245.01 164.52" fill="#686c62"/>
    <path d="M345.49 192.09L344.50 192.09L344.50 184.20L345.49 184.20L345.49 185.15Q345.75 184.68 346.30 184.39Q346.84 184.11 347.49 184.11Q348.36 184.11 349.01 184.49Q349.65 184.86 350.01 185.53Q350.38 186.21 350.38 187.10Q350.38 188 350.01 188.67Q349.65 189.34 349.01 189.72Q348.36 190.09 347.49 190.09Q346.86 190.09 346.30 189.80Q345.75 189.52 345.49 189.05L345.49 192.09M347.43 189.24Q347.99 189.24 348.43 188.97Q348.87 188.70 349.12 188.22Q349.37 187.73 349.37 187.10Q349.37 186.47 349.12 185.99Q348.87 185.50 348.43 185.23Q347.99 184.96 347.43 184.96Q346.87 184.96 346.42 185.23Q345.98 185.50 345.73 185.99Q345.49 186.47 345.49 187.10Q345.49 187.72 345.73 188.21Q345.98 188.69 346.42 188.97Q346.87 189.24 347.43 189.24M353.66 190.09Q353.05 190.09 352.57 189.84Q352.08 189.60 351.80 189.14Q351.51 188.68 351.51 188.01L351.51 184.20L352.50 184.20L352.50 187.78Q352.50 188.48 352.87 188.86Q353.24 189.23 353.85 189.23Q354.71 189.23 355.22 188.54Q355.72 187.85 355.72 186.69L355.72 184.20L356.70 184.20L356.70 190L355.72 190L355.72 189Q355.45 189.45 354.92 189.77Q354.39 190.09 353.66 190.09M360.16 190.09Q359.18 190.09 358.56 189.60Q357.94 189.11 357.76 188.38L358.65 188.09Q358.78 188.65 359.16 188.95Q359.53 189.25 360.16 189.25Q360.70 189.25 361.03 189.02Q361.36 188.79 361.36 188.34Q361.36 187.99 361.12 187.80Q360.87 187.61 360.49 187.49Q360.12 187.38 359.70 187.27Q359.28 187.17 358.90 187Q358.52 186.83 358.28 186.52Q358.03 186.21 358.03 185.68Q358.03 185.23 358.28 184.88Q358.53 184.53 358.98 184.32Q359.43 184.11 360 184.11Q360.85 184.11 361.46 184.50Q362.06 184.88 362.24 185.55L361.35 185.87Q361.21 185.37 360.86 185.16Q360.51 184.95 360 184.95Q359.57 184.95 359.29 185.12Q359 185.30 359 185.64Q359 185.96 359.24 186.13Q359.48 186.30 359.86 186.39Q360.24 186.49 360.67 186.60Q361.10 186.70 361.48 186.88Q361.86 187.07 362.10 187.41Q362.35 187.75 362.35 188.32Q362.35 188.84 362.06 189.24Q361.77 189.64 361.28 189.87Q360.79 190.09 360.16 190.09M364.50 190L363.52 190L363.52 181.86L364.50 181.86L364.50 185.20Q364.76 184.76 365.30 184.43Q365.83 184.11 366.56 184.11Q367.16 184.11 367.65 184.36Q368.14 184.61 368.42 185.07Q368.71 185.54 368.71 186.21L368.71 190L367.72 190L367.72 186.42Q367.72 185.72 367.35 185.35Q366.98 184.97 366.36 184.97Q365.51 184.97 365 185.66Q364.50 186.35 364.50 187.52L364.50 190M379.76 186.86L376.59 190.03L376.02 189.49L378.26 187.27L372.45 187.27L372.45 186.45L378.26 186.45L376.01 184.23L376.58 183.69L379.76 186.86M384.54 190L383.56 190L383.56 184.20L384.54 184.20L384.54 185.23Q384.81 184.68 385.29 184.39Q385.78 184.11 386.35 184.11Q386.53 184.11 386.73 184.14Q386.92 184.17 387.06 184.24L386.99 185.17Q386.80 185.08 386.61 185.06Q386.43 185.04 386.24 185.04Q385.52 185.04 385.03 185.72Q384.54 186.40 384.54 187.68L384.54 190M390.43 190.09Q389.58 190.09 388.93 189.71Q388.28 189.32 387.92 188.65Q387.55 187.98 387.55 187.10Q387.55 186.23 387.92 185.56Q388.29 184.88 388.93 184.50Q389.57 184.11 390.39 184.11Q391.28 184.11 391.91 184.53Q392.55 184.95 392.86 185.65Q393.17 186.35 393.05 187.23L388.55 187.23Q388.60 188.13 389.11 188.68Q389.61 189.24 390.43 189.24Q391.05 189.24 391.52 188.91Q391.99 188.57 392.11 188.10L393.01 188.33Q392.81 189.11 392.11 189.60Q391.41 190.09 390.43 190.09M388.62 186.45L392.05 186.45Q392.04 185.76 391.58 185.35Q391.12 184.95 390.39 184.95Q389.72 184.95 389.24 185.35Q388.77 185.75 388.62 186.45M396.87 190L395.89 190L393.62 184.20L394.68 184.20L396.40 188.74L398.12 184.20L399.15 184.20L396.87 190M401.02 190L400.03 190L400.03 184.20L401.02 184.20L401.02 190M400.53 183.19Q400.23 183.19 400.03 183Q399.82 182.80 399.82 182.50Q399.82 182.20 400.03 182.01Q400.23 181.81 400.53 181.81Q400.84 181.81 401.04 182.01Q401.24 182.20 401.24 182.50Q401.24 182.80 401.04 183Q400.84 183.19 400.53 183.19M405.08 190.09Q404.23 190.09 403.58 189.71Q402.93 189.32 402.57 188.65Q402.21 187.98 402.21 187.10Q402.21 186.23 402.57 185.56Q402.94 184.88 403.58 184.50Q404.22 184.11 405.05 184.11Q405.93 184.11 406.56 184.53Q407.20 184.95 407.51 185.65Q407.82 186.35 407.70 187.23L403.21 187.23Q403.25 188.13 403.76 188.68Q404.26 189.24 405.08 189.24Q405.70 189.24 406.17 188.91Q406.64 188.57 406.76 188.10L407.66 188.33Q407.46 189.11 406.76 189.60Q406.06 190.09 405.08 190.09M403.27 186.45L406.70 186.45Q406.69 185.76 406.23 185.35Q405.77 184.95 405.05 184.95Q404.37 184.95 403.90 185.35Q403.42 185.75 403.27 186.45M411.32 190L410.34 190L408.29 184.20L409.35 184.20L410.85 188.72L412.35 184.20L413.29 184.20L414.80 188.72L416.29 184.20L417.32 184.20L415.26 190L414.29 190L412.81 185.62L411.32 190M427.79 186.86L424.63 190.03L424.06 189.49L426.30 187.27L420.49 187.27L420.49 186.45L426.30 186.45L424.04 184.23L424.62 183.69L427.79 186.86M434.12 190.09Q433.26 190.09 432.61 189.72Q431.96 189.34 431.59 188.67Q431.23 188 431.23 187.10Q431.23 186.21 431.59 185.53Q431.96 184.86 432.61 184.49Q433.26 184.11 434.12 184.11Q434.76 184.11 435.31 184.39Q435.87 184.68 436.12 185.15L436.12 181.86L437.11 181.86L437.11 190L436.12 190L436.12 189.05Q435.87 189.52 435.31 189.80Q434.76 190.09 434.12 190.09M434.18 189.24Q434.75 189.24 435.19 188.97Q435.62 188.69 435.87 188.21Q436.12 187.72 436.12 187.10Q436.12 186.47 435.87 185.99Q435.62 185.50 435.19 185.23Q434.75 184.96 434.18 184.96Q433.62 184.96 433.18 185.23Q432.74 185.50 432.49 185.99Q432.23 186.47 432.23 187.10Q432.23 187.73 432.49 188.22Q432.74 188.70 433.18 188.97Q433.62 189.24 434.18 189.24M441.17 190.09Q440.32 190.09 439.67 189.71Q439.02 189.32 438.65 188.65Q438.29 187.98 438.29 187.10Q438.29 186.23 438.66 185.56Q439.03 184.88 439.67 184.50Q440.30 184.11 441.13 184.11Q442.02 184.11 442.65 184.53Q443.28 184.95 443.59 185.65Q443.90 186.35 443.79 187.23L439.29 187.23Q439.34 188.13 439.84 188.68Q440.35 189.24 441.17 189.24Q441.79 189.24 442.26 188.91Q442.73 188.57 442.85 188.10L443.74 188.33Q443.55 189.11 442.85 189.60Q442.14 190.09 441.17 190.09M439.36 186.45L442.79 186.45Q442.78 185.76 442.32 185.35Q441.86 184.95 441.13 184.95Q440.45 184.95 439.98 185.35Q439.51 185.75 439.36 186.45M446.01 192.09L445.02 192.09L445.02 184.20L446.01 184.20L446.01 185.15Q446.27 184.68 446.82 184.39Q447.37 184.11 448.01 184.11Q448.88 184.11 449.53 184.49Q450.17 184.86 450.53 185.53Q450.90 186.21 450.90 187.10Q450.90 188 450.53 188.67Q450.17 189.34 449.53 189.72Q448.88 190.09 448.01 190.09Q447.38 190.09 446.83 189.80Q446.27 189.52 446.01 189.05L446.01 192.09M447.95 189.24Q448.52 189.24 448.95 188.97Q449.39 188.70 449.64 188.22Q449.90 187.73 449.90 187.10Q449.90 186.47 449.64 185.99Q449.39 185.50 448.95 185.23Q448.52 184.96 447.95 184.96Q447.39 184.96 446.95 185.23Q446.50 185.50 446.26 185.99Q446.01 186.47 446.01 187.10Q446.01 187.72 446.26 188.21Q446.50 188.69 446.95 188.97Q447.39 189.24 447.95 189.24M453.08 190L452.09 190L452.09 181.86L453.08 181.86L453.08 190M457.20 190.09Q456.35 190.09 455.69 189.71Q455.02 189.32 454.65 188.65Q454.27 187.98 454.27 187.10Q454.27 186.23 454.65 185.56Q455.02 184.88 455.69 184.50Q456.35 184.11 457.20 184.11Q458.05 184.11 458.71 184.50Q459.37 184.88 459.75 185.56Q460.13 186.23 460.13 187.10Q460.13 187.98 459.75 188.65Q459.37 189.32 458.71 189.71Q458.05 190.09 457.20 190.09M457.20 189.23Q457.76 189.23 458.20 188.96Q458.64 188.69 458.88 188.21Q459.13 187.72 459.13 187.10Q459.13 186.47 458.88 185.99Q458.64 185.50 458.20 185.23Q457.76 184.96 457.20 184.96Q456.63 184.96 456.20 185.23Q455.76 185.50 455.51 185.99Q455.27 186.47 455.27 187.10Q455.27 187.72 455.51 188.21Q455.76 188.69 456.20 188.96Q456.63 189.23 457.20 189.23M463.10 192.09L462.07 192.09L462.93 190L460.67 184.20L461.73 184.20L463.43 188.72L465.13 184.20L466.17 184.20" fill="#686c62"/>
    <path d="M376.07 116.09Q375.24 116.09 374.59 115.70Q373.95 115.31 373.58 114.63Q373.20 113.95 373.20 113.10Q373.20 112.24 373.58 111.56Q373.95 110.88 374.59 110.50Q375.24 110.11 376.07 110.11Q377.09 110.11 377.81 110.64Q378.53 111.16 378.68 112.06L377.70 112.20Q377.58 111.63 377.15 111.30Q376.72 110.96 376.07 110.96Q375.54 110.96 375.12 111.24Q374.70 111.52 374.45 111.99Q374.20 112.47 374.20 113.10Q374.20 113.72 374.45 114.20Q374.70 114.68 375.12 114.95Q375.54 115.23 376.07 115.23Q376.76 115.23 377.20 114.89Q377.65 114.55 377.73 113.99L378.73 114.10Q378.65 114.69 378.29 115.14Q377.93 115.59 377.36 115.84Q376.79 116.09 376.07 116.09M382.43 116.09Q381.57 116.09 380.91 115.71Q380.25 115.32 379.87 114.65Q379.49 113.98 379.49 113.10Q379.49 112.23 379.87 111.56Q380.25 110.88 380.91 110.50Q381.57 110.11 382.43 110.11Q383.28 110.11 383.94 110.50Q384.60 110.88 384.98 111.56Q385.36 112.23 385.36 113.10Q385.36 113.98 384.98 114.65Q384.60 115.32 383.94 115.71Q383.28 116.09 382.43 116.09M382.43 115.23Q382.99 115.23 383.43 114.96Q383.86 114.69 384.11 114.21Q384.36 113.72 384.36 113.10Q384.36 112.47 384.11 111.99Q383.86 111.50 383.43 111.23Q382.99 110.96 382.43 110.96Q381.86 110.96 381.43 111.23Q380.99 111.50 380.74 111.99Q380.49 112.47 380.49 113.10Q380.49 113.72 380.74 114.21Q380.99 114.69 381.43 114.96Q381.86 115.23 382.43 115.23M389.07 116.09Q388.21 116.09 387.56 115.72Q386.91 115.34 386.55 114.67Q386.19 114 386.19 113.10Q386.19 112.20 386.55 111.53Q386.91 110.86 387.56 110.49Q388.21 110.11 389.07 110.11Q389.72 110.11 390.27 110.39Q390.82 110.68 391.07 111.15L391.07 107.86L392.06 107.86L392.06 116L391.07 116L391.07 115.05Q390.82 115.52 390.27 115.80Q389.72 116.09 389.07 116.09M389.13 115.24Q389.70 115.24 390.14 114.97Q390.58 114.69 390.83 114.21Q391.07 113.72 391.07 113.10Q391.07 112.47 390.83 111.99Q390.58 111.50 390.14 111.23Q389.70 110.96 389.13 110.96Q388.58 110.96 388.14 111.23Q387.69 111.50 387.44 111.99Q387.19 112.47 387.19 113.10Q387.19 113.73 387.44 114.22Q387.69 114.70 388.14 114.97Q388.58 115.24 389.13 115.24M396.12 116.09Q395.27 116.09 394.62 115.71Q393.97 115.32 393.61 114.65Q393.25 113.98 393.25 113.10Q393.25 112.23 393.61 111.56Q393.98 110.88 394.62 110.50Q395.26 110.11 396.09 110.11Q396.97 110.11 397.61 110.53Q398.24 110.95 398.55 111.65Q398.86 112.35 398.74 113.23L394.25 113.23Q394.29 114.13 394.80 114.68Q395.31 115.24 396.12 115.24Q396.74 115.24 397.21 114.91Q397.69 114.57 397.80 114.10L398.70 114.33Q398.50 115.11 397.80 115.60Q397.10 116.09 396.12 116.09M394.32 112.45L397.74 112.45Q397.73 111.76 397.27 111.35Q396.81 110.95 396.09 110.95Q395.41 110.95 394.94 111.35Q394.47 111.75 394.32 112.45M405.05 116.09Q404.18 116.09 403.53 115.72Q402.88 115.34 402.52 114.67Q402.16 114 402.16 113.10Q402.16 112.20 402.52 111.53Q402.88 110.86 403.53 110.49Q404.18 110.11 405.05 110.11Q405.69 110.11 406.24 110.39Q406.79 110.68 407.05 111.15L407.05 107.86L408.04 107.86L408.04 116L407.05 116L407.05 115.05Q406.79 115.52 406.24 115.80Q405.69 116.09 405.05 116.09M405.10 115.24Q405.68 115.24 406.12 114.97Q406.55 114.69 406.80 114.21Q407.05 113.72 407.05 113.10Q407.05 112.47 406.80 111.99Q406.55 111.50 406.12 111.23Q405.68 110.96 405.10 110.96Q404.55 110.96 404.11 111.23Q403.67 111.50 403.41 111.99Q403.16 112.47 403.16 113.10Q403.16 113.73 403.41 114.22Q403.67 114.70 404.11 114.97Q404.55 115.24 405.10 115.24M412.10 116.09Q411.24 116.09 410.59 115.71Q409.94 115.32 409.58 114.65Q409.22 113.98 409.22 113.10Q409.22 112.23 409.59 111.56Q409.96 110.88 410.59 110.50Q411.23 110.11 412.06 110.11Q412.95 110.11 413.58 110.53Q414.21 110.95 414.52 111.65Q414.83 112.35 414.72 113.23L410.22 113.23Q410.27 114.13 410.77 114.68Q411.28 115.24 412.10 115.24Q412.72 115.24 413.19 114.91Q413.66 114.57 413.77 114.10L414.67 114.33Q414.48 115.11 413.77 115.60Q413.07 116.09 412.10 116.09M410.29 112.45L413.72 112.45Q413.71 111.76 413.25 111.35Q412.79 110.95 412.06 110.95Q411.38 110.95 410.91 111.35Q410.44 111.75 410.29 112.45M416.94 118.09L415.95 118.09L415.95 110.20L416.94 110.20L416.94 111.15Q417.20 110.68 417.75 110.39Q418.29 110.11 418.94 110.11Q419.81 110.11 420.46 110.49Q421.10 110.86 421.46 111.53Q421.82 112.20 421.82 113.10Q421.82 114 421.46 114.67Q421.10 115.34 420.46 115.72Q419.81 116.09 418.94 116.09Q418.31 116.09 417.75 115.80Q417.20 115.52 416.94 115.05L416.94 118.09M418.88 115.24Q419.44 115.24 419.88 114.97Q420.32 114.70 420.57 114.22Q420.82 113.73 420.82 113.10Q420.82 112.47 420.57 111.99Q420.32 111.50 419.88 111.23Q419.44 110.96 418.88 110.96Q418.32 110.96 417.87 111.23Q417.43 111.50 417.18 111.99Q416.94 112.47 416.94 113.10Q416.94 113.72 417.18 114.21Q417.43 114.69 417.87 114.97Q418.32 115.24 418.88 115.24M424.01 116L423.02 116L423.02 107.86L424.01 107.86L424.01 116M428.13 116.09Q427.28 116.09 426.61 115.71Q425.95 115.32 425.57 114.65Q425.19 113.98 425.19 113.10Q425.19 112.23 425.57 111.56Q425.95 110.88 426.61 110.50Q427.28 110.11 428.13 110.11Q428.98 110.11 429.64 110.50Q430.30 110.88 430.68 111.56Q431.06 112.23 431.06 113.10Q431.06 113.98 430.68 114.65Q430.30 115.32 429.64 115.71Q428.98 116.09 428.13 116.09M428.13 115.23Q428.69 115.23 429.13 114.96Q429.56 114.69 429.81 114.21Q430.06 113.72 430.06 113.10Q430.06 112.47 429.81 111.99Q429.56 111.50 429.13 111.23Q428.69 110.96 428.13 110.96Q427.56 110.96 427.13 111.23Q426.69 111.50 426.44 111.99Q426.19 112.47 426.19 113.10Q426.19 113.72 426.44 114.21Q426.69 114.69 427.13 114.96Q427.56 115.23 428.13 115.23M434.03 118.09L433 118.09L433.85 116L431.60 110.20L432.66 110.20L434.36 114.72L436.06 110.20L437.10 110.20" fill="#686c62"/>
  

  <rect x="70" y="92" width="150" height="60" rx="2" fill="#3f5b1e"/>
  <path d="M106.23 127L100.29 127L100.29 117.90L101.83 117.90L101.83 125.69L106.23 125.69L106.23 127M110.21 127.10Q109.24 127.10 108.47 126.67Q107.70 126.23 107.27 125.47Q106.83 124.70 106.83 123.71Q106.83 122.72 107.27 121.96Q107.70 121.20 108.47 120.77Q109.24 120.34 110.21 120.34Q111.20 120.34 111.96 120.77Q112.72 121.20 113.16 121.96Q113.59 122.72 113.59 123.71Q113.59 124.70 113.16 125.47Q112.72 126.23 111.96 126.67Q111.20 127.10 110.21 127.10M110.21 125.88Q111.07 125.88 111.61 125.28Q112.15 124.67 112.15 123.71Q112.15 122.76 111.61 122.16Q111.07 121.57 110.21 121.57Q109.37 121.57 108.82 122.16Q108.28 122.75 108.28 123.71Q108.28 124.67 108.82 125.28Q109.37 125.88 110.21 125.88M117.73 127.10Q116.76 127.10 116.02 126.66Q115.27 126.22 114.85 125.45Q114.42 124.69 114.42 123.71Q114.42 122.74 114.85 121.98Q115.27 121.22 116.02 120.78Q116.76 120.34 117.73 120.34Q118.92 120.34 119.77 120.95Q120.61 121.57 120.78 122.64L119.35 122.85Q119.25 122.24 118.82 121.90Q118.39 121.57 117.73 121.57Q117.21 121.57 116.78 121.84Q116.36 122.11 116.11 122.59Q115.87 123.07 115.87 123.71Q115.87 124.35 116.11 124.84Q116.36 125.32 116.78 125.60Q117.21 125.88 117.73 125.88Q118.42 125.88 118.85 125.53Q119.29 125.18 119.38 124.61L120.85 124.79Q120.76 125.47 120.33 125.99Q119.91 126.52 119.24 126.81Q118.57 127.10 117.73 127.10M123.95 127.10Q122.90 127.10 122.28 126.56Q121.67 126.01 121.67 125.21Q121.67 124.23 122.36 123.70Q123.06 123.18 124.58 123.01L125.92 122.88L125.92 122.71Q125.92 122.14 125.53 121.81Q125.15 121.49 124.53 121.49Q123.93 121.49 123.56 121.79Q123.19 122.09 123.11 122.70L121.74 122.49Q121.91 121.53 122.67 120.94Q123.42 120.34 124.53 120.34Q125.34 120.34 125.98 120.64Q126.62 120.94 126.98 121.51Q127.33 122.07 127.33 122.88L127.33 127L125.92 127L125.92 126.05Q125.71 126.49 125.16 126.80Q124.62 127.10 123.95 127.10M125.92 124.11L125.92 123.93L124.64 124.09Q123.82 124.18 123.45 124.41Q123.08 124.65 123.08 125.14Q123.08 125.56 123.38 125.78Q123.68 126.01 124.19 126.01Q124.71 126.01 125.09 125.75Q125.47 125.49 125.70 125.06Q125.92 124.63 125.92 124.11M130.25 127L128.83 127L128.83 117.80L130.25 117.80L130.25 127M138.18 127.10Q137.50 127.10 136.91 126.82Q136.33 126.53 136.04 126.08L136.04 127L134.61 127L134.61 117.80L136.04 117.80L136.04 121.36Q136.33 120.90 136.91 120.62Q137.50 120.34 138.18 120.34Q139.15 120.34 139.87 120.77Q140.59 121.19 140.99 121.94Q141.39 122.70 141.39 123.72Q141.39 124.74 140.99 125.50Q140.59 126.26 139.87 126.68Q139.15 127.10 138.18 127.10M137.99 125.88Q138.57 125.88 139 125.61Q139.44 125.34 139.69 124.85Q139.94 124.36 139.94 123.72Q139.94 122.76 139.39 122.16Q138.84 121.57 137.99 121.57Q137.14 121.57 136.59 122.16Q136.04 122.76 136.04 123.72Q136.04 124.35 136.29 124.84Q136.54 125.32 136.98 125.60Q137.42 125.88 137.99 125.88M144.58 127.10Q143.53 127.10 142.91 126.56Q142.30 126.01 142.30 125.21Q142.30 124.23 142.99 123.70Q143.69 123.18 145.21 123.01L146.55 122.88L146.55 122.71Q146.55 122.14 146.16 121.81Q145.78 121.49 145.16 121.49Q144.56 121.49 144.19 121.79Q143.82 122.09 143.74 122.70L142.37 122.49Q142.54 121.53 143.30 120.94Q144.05 120.34 145.16 120.34Q145.98 120.34 146.61 120.64Q147.25 120.94 147.61 121.51Q147.96 122.07 147.96 122.88L147.96 127L146.55 127L146.55 126.05Q146.34 126.49 145.79 126.80Q145.25 127.10 144.58 127.10M146.55 124.11L146.55 123.93L145.27 124.09Q144.45 124.18 144.08 124.41Q143.71 124.65 143.71 125.14Q143.71 125.56 144.01 125.78Q144.31 126.01 144.82 126.01Q145.34 126.01 145.72 125.75Q146.11 125.49 146.33 125.06Q146.55 124.63 146.55 124.11M152.38 127.10Q151.42 127.10 150.67 126.66Q149.93 126.22 149.50 125.45Q149.08 124.69 149.08 123.71Q149.08 122.74 149.50 121.98Q149.93 121.22 150.67 120.78Q151.42 120.34 152.38 120.34Q153.58 120.34 154.43 120.95Q155.27 121.57 155.44 122.64L154.01 122.85Q153.91 122.24 153.48 121.90Q153.05 121.57 152.38 121.57Q151.86 121.57 151.44 121.84Q151.02 122.11 150.77 122.59Q150.53 123.07 150.53 123.71Q150.53 124.35 150.77 124.84Q151.02 125.32 151.44 125.60Q151.86 125.88 152.38 125.88Q153.07 125.88 153.51 125.53Q153.94 125.18 154.04 124.61L155.50 124.79Q155.41 125.47 154.99 125.99Q154.57 126.52 153.90 126.81Q153.23 127.10 152.38 127.10M158.04 127L156.62 127L156.62 117.80L158.04 117.80L158.04 122.93L160.76 120.45L162.65 120.45L160 122.94L162.88 127L161.16 127L158.96 123.93L158.04 124.80L158.04 127M167.30 124.05L163.27 124.05L163.27 122.85L167.30 122.85L167.30 124.05M171.56 127.10Q170.57 127.10 169.82 126.67Q169.08 126.23 168.66 125.47Q168.24 124.71 168.24 123.72Q168.24 122.74 168.66 121.98Q169.08 121.22 169.82 120.78Q170.56 120.34 171.51 120.34Q172.55 120.34 173.29 120.83Q174.03 121.32 174.38 122.14Q174.73 122.97 174.60 123.98L169.67 123.98Q169.75 124.86 170.25 125.38Q170.75 125.91 171.56 125.91Q172.17 125.91 172.64 125.59Q173.11 125.27 173.22 124.79L174.55 125.14Q174.30 126.01 173.49 126.56Q172.68 127.10 171.56 127.10M169.75 122.91L173.13 122.91Q173.12 122.25 172.67 121.87Q172.22 121.49 171.51 121.49Q170.84 121.49 170.38 121.86Q169.92 122.23 169.75 122.91M177.27 127L175.85 127L175.85 120.45L177.27 120.45L177.27 121.42Q177.55 120.99 178.12 120.67Q178.70 120.34 179.48 120.34Q180.18 120.34 180.73 120.63Q181.28 120.92 181.60 121.46Q181.91 122 181.91 122.75L181.91 127L180.49 127L180.49 123.06Q180.49 122.36 180.11 121.98Q179.74 121.59 179.11 121.59Q178.25 121.59 177.76 122.28Q177.27 122.97 177.27 124.17L177.27 127M186.28 127.10Q185.30 127.10 184.58 126.68Q183.86 126.26 183.46 125.50Q183.06 124.74 183.06 123.72Q183.06 122.70 183.46 121.94Q183.86 121.19 184.58 120.77Q185.30 120.34 186.28 120.34Q186.96 120.34 187.54 120.62Q188.12 120.90 188.39 121.36L188.39 117.80L189.84 117.80L189.84 127L188.39 127L188.39 126.08Q188.12 126.53 187.54 126.82Q186.95 127.10 186.28 127.10M186.46 125.88Q187.32 125.88 187.85 125.28Q188.39 124.67 188.39 123.72Q188.39 122.76 187.85 122.16Q187.32 121.57 186.46 121.57Q185.60 121.57 185.05 122.16Q184.51 122.76 184.51 123.72Q184.51 124.67 185.05 125.28Q185.60 125.88 186.46 125.88" fill="#f6f5ee"/>
  <rect x="70" y="172" width="150" height="50" rx="2" fill="#ffffff"/>
  <path d="M109.19 202L103.24 202L103.24 192.90L104.78 192.90L104.78 200.69L109.19 200.69L109.19 202M112.15 202.10Q111.10 202.10 110.48 201.56Q109.86 201.01 109.86 200.21Q109.86 199.23 110.56 198.70Q111.25 198.18 112.77 198.01L114.11 197.88L114.11 197.71Q114.11 197.14 113.73 196.81Q113.34 196.49 112.72 196.49Q112.12 196.49 111.75 196.79Q111.38 197.09 111.30 197.70L109.94 197.49Q110.11 196.53 110.86 195.94Q111.62 195.34 112.72 195.34Q113.54 195.34 114.18 195.64Q114.81 195.94 115.17 196.51Q115.53 197.07 115.53 197.88L115.53 202L114.11 202L114.11 201.05Q113.90 201.49 113.36 201.80Q112.81 202.10 112.15 202.10M114.11 199.11L114.11 198.93L112.84 199.09Q112.02 199.18 111.65 199.41Q111.28 199.65 111.28 200.14Q111.28 200.56 111.58 200.78Q111.88 201.01 112.38 201.01Q112.90 201.01 113.29 200.75Q113.67 200.49 113.89 200.06Q114.11 199.63 114.11 199.11M119.34 204.37L117.84 204.37L118.87 201.91L116.31 195.45L117.84 195.45L119.61 200.09L121.37 195.45L122.86 195.45L119.34 204.37M126.72 202.10Q125.75 202.10 124.98 201.67Q124.21 201.23 123.78 200.47Q123.34 199.70 123.34 198.71Q123.34 197.72 123.78 196.96Q124.21 196.20 124.98 195.77Q125.75 195.34 126.72 195.34Q127.71 195.34 128.47 195.77Q129.23 196.20 129.67 196.96Q130.10 197.72 130.10 198.71Q130.10 199.70 129.67 200.47Q129.23 201.23 128.47 201.67Q127.71 202.10 126.72 202.10M126.72 200.88Q127.58 200.88 128.12 200.28Q128.66 199.67 128.66 198.71Q128.66 197.76 128.12 197.16Q127.58 196.57 126.72 196.57Q125.88 196.57 125.33 197.16Q124.79 197.75 124.79 198.71Q124.79 199.67 125.33 200.28Q125.88 200.88 126.72 200.88M133.66 202.10Q132.96 202.10 132.42 201.82Q131.87 201.53 131.55 201Q131.23 200.47 131.23 199.74L131.23 195.45L132.66 195.45L132.66 199.37Q132.66 200.08 133.03 200.47Q133.40 200.86 134.04 200.86Q134.89 200.86 135.39 200.16Q135.89 199.47 135.89 198.27L135.89 195.45L137.30 195.45L137.30 202L135.89 202L135.89 201.03Q135.60 201.45 135.03 201.78Q134.46 202.10 133.66 202.10M141.48 202.10Q140.55 202.10 139.94 201.54Q139.32 200.99 139.32 199.92L139.32 196.62L138.24 196.62L138.24 195.45L139.32 195.45L139.32 193.82L140.75 193.82L140.75 195.45L142.34 195.45L142.34 196.62L140.75 196.62L140.75 199.80Q140.75 200.32 141 200.59Q141.24 200.86 141.66 200.86Q141.84 200.86 142 200.82Q142.17 200.78 142.34 200.73L142.44 201.94Q142.23 202.03 141.98 202.06Q141.72 202.10 141.48 202.10M149.78 202.10Q149.11 202.10 148.52 201.82Q147.94 201.53 147.65 201.08L147.65 202L146.22 202L146.22 192.80L147.65 192.80L147.65 196.36Q147.94 195.90 148.52 195.62Q149.11 195.34 149.78 195.34Q150.76 195.34 151.48 195.77Q152.20 196.19 152.60 196.94Q153 197.70 153 198.72Q153 199.74 152.60 200.50Q152.20 201.26 151.48 201.68Q150.76 202.10 149.78 202.10M149.60 200.88Q150.17 200.88 150.61 200.61Q151.05 200.34 151.30 199.85Q151.55 199.36 151.55 198.72Q151.55 197.76 151 197.16Q150.45 196.57 149.60 196.57Q148.74 196.57 148.20 197.16Q147.65 197.76 147.65 198.72Q147.65 199.35 147.90 199.84Q148.15 200.32 148.59 200.60Q149.03 200.88 149.60 200.88M155.62 202L154.20 202L154.20 195.45L155.62 195.45L155.62 196.45Q155.91 195.92 156.43 195.63Q156.96 195.34 157.60 195.34Q157.81 195.34 158.03 195.38Q158.25 195.41 158.40 195.47L158.30 196.83Q158.09 196.74 157.88 196.71Q157.68 196.68 157.47 196.68Q156.71 196.68 156.17 197.37Q155.62 198.05 155.62 199.47L155.62 202M161.26 202.10Q160.21 202.10 159.59 201.56Q158.98 201.01 158.98 200.21Q158.98 199.23 159.67 198.70Q160.37 198.18 161.89 198.01L163.23 197.88L163.23 197.71Q163.23 197.14 162.84 196.81Q162.46 196.49 161.84 196.49Q161.24 196.49 160.87 196.79Q160.50 197.09 160.42 197.70L159.05 197.49Q159.22 196.53 159.98 195.94Q160.73 195.34 161.84 195.34Q162.65 195.34 163.29 195.64Q163.93 195.94 164.29 196.51Q164.64 197.07 164.64 197.88L164.64 202L163.23 202L163.23 201.05Q163.02 201.49 162.47 201.80Q161.93 202.10 161.26 202.10M163.23 199.11L163.23 198.93L161.95 199.09Q161.13 199.18 160.76 199.41Q160.39 199.65 160.39 200.14Q160.39 200.56 160.69 200.78Q160.99 201.01 161.50 201.01Q162.02 201.01 162.40 200.75Q162.78 200.49 163.01 200.06Q163.23 199.63 163.23 199.11M167.56 202L166.14 202L166.14 195.45L167.56 195.45L167.56 196.42Q167.84 195.99 168.41 195.67Q168.99 195.34 169.77 195.34Q170.47 195.34 171.02 195.63Q171.57 195.92 171.88 196.46Q172.20 197 172.20 197.75L172.20 202L170.78 202L170.78 198.06Q170.78 197.36 170.40 196.98Q170.03 196.59 169.40 196.59Q168.54 196.59 168.05 197.28Q167.56 197.97 167.56 199.17L167.56 202M176.64 202.10Q175.68 202.10 174.93 201.66Q174.19 201.22 173.76 200.45Q173.34 199.69 173.34 198.71Q173.34 197.74 173.76 196.98Q174.19 196.22 174.93 195.78Q175.68 195.34 176.64 195.34Q177.84 195.34 178.68 195.96Q179.53 196.57 179.70 197.65L178.27 197.85Q178.16 197.24 177.73 196.90Q177.31 196.57 176.64 196.57Q176.12 196.57 175.70 196.84Q175.28 197.11 175.03 197.59Q174.78 198.07 174.78 198.71Q174.78 199.35 175.03 199.84Q175.28 200.32 175.70 200.60Q176.12 200.88 176.64 200.88Q177.33 200.88 177.77 200.53Q178.20 200.18 178.29 199.61L179.76 199.79Q179.67 200.47 179.25 200.99Q178.83 201.52 178.16 201.81Q177.49 202.10 176.64 202.10M182.30 202L180.88 202L180.88 192.80L182.30 192.80L182.30 196.42Q182.58 195.99 183.16 195.67Q183.73 195.34 184.51 195.34Q185.21 195.34 185.76 195.63Q186.31 195.92 186.63 196.46Q186.95 197 186.95 197.75L186.95 202L185.52 202L185.52 198.06Q185.52 197.36 185.14 196.98Q184.77 196.59 184.14 196.59Q183.29 196.59 182.79 197.28Q182.30 197.97 182.30 199.17" fill="#262d1e"/>

  <rect x="590" y="92" width="170" height="60" rx="2" fill="#262d1e"/>
  <path d="M617.52 127L613.82 127L613.82 117.90L617.51 117.90Q618.27 117.90 618.87 118.19Q619.46 118.47 619.79 118.98Q620.12 119.49 620.12 120.16Q620.12 120.84 619.72 121.36Q619.31 121.89 618.78 122.09Q619.28 122.20 619.68 122.53Q620.09 122.85 620.33 123.32Q620.58 123.79 620.58 124.35Q620.58 125.13 620.19 125.73Q619.80 126.32 619.11 126.66Q618.42 127 617.52 127M615.35 122.81L615.35 125.70L617.39 125.70Q618.12 125.70 618.59 125.29Q619.05 124.88 619.05 124.24Q619.05 123.62 618.59 123.22Q618.12 122.81 617.39 122.81L615.35 122.81M615.35 119.20L615.35 121.57L617.29 121.57Q617.87 121.57 618.26 121.23Q618.65 120.90 618.65 120.38Q618.65 119.86 618.26 119.53Q617.87 119.20 617.29 119.20L615.35 119.20M623.80 127.10Q622.75 127.10 622.13 126.56Q621.51 126.01 621.51 125.21Q621.51 124.23 622.21 123.70Q622.90 123.18 624.42 123.01L625.76 122.88L625.76 122.71Q625.76 122.14 625.38 121.81Q625 121.49 624.37 121.49Q623.77 121.49 623.40 121.79Q623.03 122.09 622.95 122.70L621.59 122.49Q621.76 121.53 622.51 120.94Q623.27 120.34 624.37 120.34Q625.19 120.34 625.83 120.64Q626.46 120.94 626.82 121.51Q627.18 122.07 627.18 122.88L627.18 127L625.76 127L625.76 126.05Q625.55 126.49 625.01 126.80Q624.46 127.10 623.80 127.10M625.76 124.11L625.76 123.93L624.49 124.09Q623.67 124.18 623.30 124.41Q622.93 124.65 622.93 125.14Q622.93 125.56 623.23 125.78Q623.53 126.01 624.03 126.01Q624.55 126.01 624.94 125.75Q625.32 125.49 625.54 125.06Q625.76 124.63 625.76 124.11M631.60 127.10Q630.64 127.10 629.89 126.66Q629.14 126.22 628.72 125.45Q628.30 124.69 628.30 123.71Q628.30 122.74 628.72 121.98Q629.14 121.22 629.89 120.78Q630.64 120.34 631.60 120.34Q632.80 120.34 633.64 120.95Q634.49 121.57 634.65 122.64L633.22 122.85Q633.12 122.24 632.69 121.90Q632.26 121.57 631.60 121.57Q631.08 121.57 630.66 121.84Q630.23 122.11 629.99 122.59Q629.74 123.07 629.74 123.71Q629.74 124.35 629.99 124.84Q630.23 125.32 630.66 125.60Q631.08 125.88 631.60 125.88Q632.29 125.88 632.72 125.53Q633.16 125.18 633.25 124.61L634.72 124.79Q634.63 125.47 634.21 125.99Q633.78 126.52 633.11 126.81Q632.44 127.10 631.60 127.10M637.25 127L635.84 127L635.84 117.80L637.25 117.80L637.25 122.93L639.97 120.45L641.87 120.45L639.22 122.94L642.09 127L640.37 127L638.18 123.93L637.25 124.80L637.25 127M646.51 124.05L642.48 124.05L642.48 122.85L646.51 122.85L646.51 124.05M650.77 127.10Q649.79 127.10 649.04 126.67Q648.29 126.23 647.88 125.47Q647.46 124.71 647.46 123.72Q647.46 122.74 647.88 121.98Q648.29 121.22 649.03 120.78Q649.77 120.34 650.72 120.34Q651.76 120.34 652.50 120.83Q653.24 121.32 653.60 122.14Q653.95 122.97 653.82 123.98L648.89 123.98Q648.97 124.86 649.47 125.38Q649.97 125.91 650.77 125.91Q651.39 125.91 651.85 125.59Q652.32 125.27 652.44 124.79L653.76 125.14Q653.52 126.01 652.71 126.56Q651.89 127.10 650.77 127.10M648.97 122.91L652.35 122.91Q652.33 122.25 651.89 121.87Q651.44 121.49 650.72 121.49Q650.06 121.49 649.60 121.86Q649.14 122.23 648.97 122.91M656.48 127L655.06 127L655.06 120.45L656.48 120.45L656.48 121.42Q656.77 120.99 657.34 120.67Q657.91 120.34 658.69 120.34Q659.39 120.34 659.95 120.63Q660.50 120.92 660.81 121.46Q661.12 122 661.12 122.75L661.12 127L659.71 127L659.71 123.06Q659.71 122.36 659.33 121.98Q658.95 121.59 658.33 121.59Q657.47 121.59 656.98 122.28Q656.48 122.97 656.48 124.17L656.48 127M665.49 127.10Q664.52 127.10 663.79 126.68Q663.07 126.26 662.68 125.50Q662.28 124.74 662.28 123.72Q662.28 122.70 662.68 121.94Q663.07 121.19 663.79 120.77Q664.52 120.34 665.49 120.34Q666.18 120.34 666.76 120.62Q667.34 120.90 667.61 121.36L667.61 117.80L669.05 117.80L669.05 127L667.61 127L667.61 126.08Q667.34 126.53 666.75 126.82Q666.17 127.10 665.49 127.10M665.67 125.88Q666.53 125.88 667.07 125.28Q667.61 124.67 667.61 123.72Q667.61 122.76 667.07 122.16Q666.53 121.57 665.67 121.57Q664.81 121.57 664.27 122.16Q663.72 122.76 663.72 123.72Q663.72 124.67 664.27 125.28Q664.81 125.88 665.67 125.88M676.23 128.46L675.27 129.17Q674.21 127.87 673.65 126.29Q673.10 124.71 673.10 122.92Q673.10 121.11 673.66 119.53Q674.23 117.95 675.27 116.66L676.23 117.39Q675.33 118.65 674.88 120.02Q674.43 121.38 674.43 122.92Q674.43 124.47 674.88 125.82Q675.33 127.17 676.23 128.46M679.61 129.37L678.11 129.37L679.14 126.91L676.58 120.45L678.11 120.45L679.88 125.09L681.64 120.45L683.13 120.45L679.61 129.37M686.99 127.10Q686.02 127.10 685.25 126.67Q684.48 126.23 684.05 125.47Q683.61 124.70 683.61 123.71Q683.61 122.72 684.05 121.96Q684.48 121.20 685.25 120.77Q686.02 120.34 686.99 120.34Q687.98 120.34 688.74 120.77Q689.50 121.20 689.94 121.96Q690.37 122.72 690.37 123.71Q690.37 124.70 689.94 125.47Q689.50 126.23 688.74 126.67Q687.98 127.10 686.99 127.10M686.99 125.88Q687.85 125.88 688.39 125.28Q688.93 124.67 688.93 123.71Q688.93 122.76 688.39 122.16Q687.85 121.57 686.99 121.57Q686.15 121.57 685.60 122.16Q685.06 122.75 685.06 123.71Q685.06 124.67 685.60 125.28Q686.15 125.88 686.99 125.88M693.93 127.10Q693.23 127.10 692.69 126.82Q692.14 126.53 691.82 126Q691.50 125.47 691.50 124.74L691.50 120.45L692.93 120.45L692.93 124.37Q692.93 125.08 693.30 125.47Q693.67 125.86 694.31 125.86Q695.16 125.86 695.66 125.16Q696.16 124.47 696.16 123.27L696.16 120.45L697.57 120.45L697.57 127L696.16 127L696.16 126.03Q695.87 126.45 695.30 126.78Q694.73 127.10 693.93 127.10M700.58 127L699.16 127L699.16 120.45L700.58 120.45L700.58 121.45Q700.86 120.92 701.39 120.63Q701.92 120.34 702.55 120.34Q702.76 120.34 702.98 120.38Q703.20 120.41 703.36 120.47L703.26 121.83Q703.05 121.73 702.84 121.71Q702.63 121.68 702.42 121.68Q701.67 121.68 701.12 122.37Q700.58 123.05 700.58 124.47L700.58 127M708.43 127L707.01 127L707.01 120.45L708.43 120.45L708.43 127M707.73 119.46Q707.32 119.46 707.05 119.20Q706.78 118.94 706.78 118.54Q706.78 118.13 707.05 117.87Q707.32 117.61 707.73 117.61Q708.14 117.61 708.42 117.87Q708.69 118.13 708.69 118.54Q708.69 118.94 708.42 119.20Q708.14 119.46 707.73 119.46M711.43 127L710.02 127L710.02 120.45L711.43 120.45L711.43 121.42Q711.72 120.99 712.29 120.67Q712.86 120.34 713.64 120.34Q714.34 120.34 714.90 120.63Q715.45 120.92 715.76 121.46Q716.07 122 716.07 122.75L716.07 127L714.66 127L714.66 123.06Q714.66 122.36 714.28 121.98Q713.90 121.59 713.28 121.59Q712.42 121.59 711.93 122.28Q711.43 122.97 711.43 124.17L711.43 127M719.52 127L718.09 127L718.09 121.62L717.01 121.62L717.01 120.45L718.09 120.45L718.09 119.82Q718.09 118.72 718.71 118.16Q719.34 117.60 720.26 117.60Q720.82 117.60 721.22 117.76L721.12 118.98Q720.78 118.84 720.43 118.84Q720.03 118.84 719.77 119.10Q719.52 119.37 719.52 119.90L719.52 120.45L721.12 120.45L721.12 121.62L719.52 121.62L719.52 127M723.48 127L722.07 127L722.07 120.45L723.48 120.45L723.48 121.45Q723.77 120.92 724.30 120.63Q724.82 120.34 725.46 120.34Q725.67 120.34 725.89 120.38Q726.11 120.41 726.27 120.47L726.16 121.83Q725.95 121.73 725.75 121.71Q725.54 121.68 725.33 121.68Q724.58 121.68 724.03 122.37Q723.48 123.05 723.48 124.47L723.48 127M729.13 127.10Q728.07 127.10 727.45 126.56Q726.84 126.01 726.84 125.21Q726.84 124.23 727.53 123.70Q728.23 123.18 729.75 123.01L731.09 122.88L731.09 122.71Q731.09 122.14 730.70 121.81Q730.32 121.49 729.70 121.49Q729.10 121.49 728.73 121.79Q728.36 122.09 728.28 122.70L726.92 122.49Q727.08 121.53 727.84 120.94Q728.59 120.34 729.70 120.34Q730.52 120.34 731.15 120.64Q731.79 120.94 732.15 121.51Q732.51 122.07 732.51 122.88L732.51 127L731.09 127L731.09 126.05Q730.88 126.49 730.33 126.80Q729.79 127.10 729.13 127.10M731.09 124.11L731.09 123.93L729.81 124.09Q729 124.18 728.63 124.41Q728.25 124.65 728.25 125.14Q728.25 125.56 728.55 125.78Q728.85 126.01 729.36 126.01Q729.88 126.01 730.26 125.75Q730.65 125.49 730.87 125.06Q731.09 124.63 731.09 124.11M734.44 129.17L733.47 128.46Q734.38 127.17 734.83 125.82Q735.27 124.47 735.27 122.92Q735.27 121.38 734.83 120.02Q734.38 118.65 733.47 117.39L734.44 116.66Q735.48 117.95 736.04 119.53Q736.60 121.11 736.60 122.92Q736.60 124.71 736.05 126.29Q735.50 127.87 734.44 129.17" fill="#e3f68b"/>
  <rect x="590" y="172" width="170" height="50" rx="2" fill="#ffffff"/>
  <path d="M634.50 202L628.56 202L628.56 192.90L630.10 192.90L630.10 200.69L634.50 200.69L634.50 202M636.90 202L635.48 202L635.48 195.45L636.90 195.45L636.90 202M636.20 194.46Q635.79 194.46 635.52 194.20Q635.25 193.94 635.25 193.54Q635.25 193.13 635.52 192.87Q635.79 192.61 636.20 192.61Q636.61 192.61 636.88 192.87Q637.16 193.13 637.16 193.54Q637.16 193.94 636.88 194.20Q636.61 194.46 636.20 194.46M641.73 202L640.36 202L637.76 195.45L639.30 195.45L641.07 200.12L642.84 195.45L644.33 195.45L641.73 202M648.13 202.10Q647.14 202.10 646.39 201.67Q645.65 201.23 645.23 200.47Q644.81 199.71 644.81 198.72Q644.81 197.74 645.23 196.98Q645.65 196.22 646.39 195.78Q647.13 195.34 648.08 195.34Q649.12 195.34 649.86 195.83Q650.60 196.32 650.95 197.14Q651.30 197.97 651.17 198.98L646.24 198.98Q646.32 199.85 646.82 200.38Q647.32 200.91 648.13 200.91Q648.74 200.91 649.21 200.59Q649.68 200.27 649.79 199.79L651.12 200.14Q650.87 201.01 650.06 201.56Q649.25 202.10 648.13 202.10M646.32 197.91L649.70 197.91Q649.69 197.25 649.24 196.87Q648.79 196.49 648.08 196.49Q647.41 196.49 646.95 196.86Q646.49 197.23 646.32 197.91M658.76 202.10Q658.09 202.10 657.50 201.82Q656.92 201.53 656.63 201.08L656.63 202L655.20 202L655.20 192.80L656.63 192.80L656.63 196.36Q656.92 195.90 657.50 195.62Q658.09 195.34 658.76 195.34Q659.74 195.34 660.46 195.77Q661.18 196.19 661.58 196.94Q661.97 197.70 661.97 198.72Q661.97 199.74 661.58 200.50Q661.18 201.26 660.46 201.68Q659.74 202.10 658.76 202.10M658.58 200.88Q659.15 200.88 659.59 200.61Q660.02 200.34 660.28 199.85Q660.53 199.36 660.53 198.72Q660.53 197.76 659.98 197.16Q659.43 196.57 658.58 196.57Q657.72 196.57 657.18 197.16Q656.63 197.76 656.63 198.72Q656.63 199.35 656.88 199.84Q657.13 200.32 657.57 200.60Q658.01 200.88 658.58 200.88M665.17 202.10Q664.12 202.10 663.50 201.56Q662.88 201.01 662.88 200.21Q662.88 199.23 663.58 198.70Q664.27 198.18 665.80 198.01L667.13 197.88L667.13 197.71Q667.13 197.14 666.75 196.81Q666.37 196.49 665.74 196.49Q665.15 196.49 664.78 196.79Q664.40 197.09 664.33 197.70L662.96 197.49Q663.13 196.53 663.88 195.94Q664.64 195.34 665.74 195.34Q666.56 195.34 667.20 195.64Q667.84 195.94 668.19 196.51Q668.55 197.07 668.55 197.88L668.55 202L667.13 202L667.13 201.05Q666.93 201.49 666.38 201.80Q665.84 202.10 665.17 202.10M667.13 199.11L667.13 198.93L665.86 199.09Q665.04 199.18 664.67 199.41Q664.30 199.65 664.30 200.14Q664.30 200.56 664.60 200.78Q664.90 201.01 665.41 201.01Q665.93 201.01 666.31 200.75Q666.69 200.49 666.91 200.06Q667.13 199.63 667.13 199.11M672.97 202.10Q672.01 202.10 671.26 201.66Q670.51 201.22 670.09 200.45Q669.67 199.69 669.67 198.71Q669.67 197.74 670.09 196.98Q670.51 196.22 671.26 195.78Q672.01 195.34 672.97 195.34Q674.17 195.34 675.01 195.96Q675.86 196.57 676.03 197.65L674.60 197.85Q674.49 197.24 674.06 196.90Q673.63 196.57 672.97 196.57Q672.45 196.57 672.03 196.84Q671.61 197.11 671.36 197.59Q671.11 198.07 671.11 198.71Q671.11 199.35 671.36 199.84Q671.61 200.32 672.03 200.60Q672.45 200.88 672.97 200.88Q673.66 200.88 674.10 200.53Q674.53 200.18 674.62 199.61L676.09 199.79Q676 200.47 675.58 200.99Q675.16 201.52 674.49 201.81Q673.82 202.10 672.97 202.10M678.63 202L677.21 202L677.21 192.80L678.63 192.80L678.63 197.93L681.34 195.45L683.24 195.45L680.59 197.94L683.46 202L681.75 202L679.55 198.93L678.63 199.80L678.63 202M687.88 199.05L683.85 199.05L683.85 197.85L687.88 197.85L687.88 199.05M692.21 202.10Q691.24 202.10 690.47 201.67Q689.70 201.23 689.27 200.47Q688.83 199.70 688.83 198.71Q688.83 197.72 689.27 196.96Q689.70 196.20 690.47 195.77Q691.24 195.34 692.21 195.34Q693.20 195.34 693.96 195.77Q694.72 196.20 695.16 196.96Q695.59 197.72 695.59 198.71Q695.59 199.70 695.16 200.47Q694.72 201.23 693.96 201.67Q693.20 202.10 692.21 202.10M692.21 200.88Q693.07 200.88 693.61 200.28Q694.15 199.67 694.15 198.71Q694.15 197.76 693.61 197.16Q693.07 196.57 692.21 196.57Q691.37 196.57 690.82 197.16Q690.28 197.75 690.28 198.71Q690.28 199.67 690.82 200.28Q691.37 200.88 692.21 200.88M698.73 202L697.30 202L697.30 196.62L696.22 196.62L696.22 195.45L697.30 195.45L697.30 194.82Q697.30 193.72 697.92 193.16Q698.54 192.60 699.47 192.60Q700.03 192.60 700.43 192.76L700.32 193.98Q699.99 193.84 699.63 193.84Q699.23 193.84 698.98 194.10Q698.73 194.37 698.73 194.90L698.73 195.45L700.32 195.45L700.32 196.62L698.73 196.62L698.73 202M703.20 202L701.77 202L701.77 196.62L700.69 196.62L700.69 195.45L701.77 195.45L701.77 194.82Q701.77 193.72 702.39 193.16Q703.01 192.60 703.94 192.60Q704.50 192.60 704.90 192.76L704.80 193.98Q704.46 193.84 704.11 193.84Q703.70 193.84 703.45 194.10Q703.20 194.37 703.20 194.90L703.20 195.45L704.80 195.45L704.80 196.62L703.20 196.62L703.20 202M707.16 202L705.75 202L705.75 195.45L707.16 195.45L707.16 202M706.46 194.46Q706.06 194.46 705.78 194.20Q705.51 193.94 705.51 193.54Q705.51 193.13 705.78 192.87Q706.06 192.61 706.46 192.61Q706.88 192.61 707.15 192.87Q707.42 193.13 707.42 193.54Q707.42 193.94 707.15 194.20Q706.88 194.46 706.46 194.46M711.67 202.10Q710.71 202.10 709.96 201.66Q709.22 201.22 708.79 200.45Q708.37 199.69 708.37 198.71Q708.37 197.74 708.79 196.98Q709.22 196.22 709.96 195.78Q710.71 195.34 711.67 195.34Q712.87 195.34 713.71 195.96Q714.56 196.57 714.73 197.65L713.30 197.85Q713.19 197.24 712.76 196.90Q712.34 196.57 711.67 196.57Q711.15 196.57 710.73 196.84Q710.31 197.11 710.06 197.59Q709.81 198.07 709.81 198.71Q709.81 199.35 710.06 199.84Q710.31 200.32 710.73 200.60Q711.15 200.88 711.67 200.88Q712.36 200.88 712.80 200.53Q713.23 200.18 713.32 199.61L714.79 199.79Q714.70 200.47 714.28 200.99Q713.86 201.52 713.19 201.81Q712.52 202.10 711.67 202.10M718.85 202.10Q717.86 202.10 717.11 201.67Q716.37 201.23 715.95 200.47Q715.53 199.71 715.53 198.72Q715.53 197.74 715.95 196.98Q716.37 196.22 717.11 195.78Q717.85 195.34 718.80 195.34Q719.84 195.34 720.58 195.83Q721.32 196.32 721.67 197.14Q722.02 197.97 721.89 198.98L716.96 198.98Q717.04 199.85 717.54 200.38Q718.04 200.91 718.85 200.91Q719.46 200.91 719.93 200.59Q720.40 200.27 720.51 199.79L721.84 200.14Q721.59 201.01 720.78 201.56Q719.97 202.10 718.85 202.10M717.04 197.91L720.42 197.91Q720.41 197.25 719.96 196.87Q719.51 196.49 718.80 196.49Q718.13 196.49 717.67 196.86Q717.21 197.23 717.04 197.91" fill="#262d1e"/>
</svg>
