<svg width="1000" height="270" viewBox="0 0 1000 270" fill="none" xmlns="http://www.w3.org/2000/svg" font-family="Matter, Inter, system-ui, sans-serif">
  <defs>
    <pattern id="dots" width="22" height="22" patternUnits="userSpaceOnUse"><circle cx="2" cy="2" r="1.4" fill="#d4d2c6"/></pattern>
    <marker id="sq" markerWidth="8" markerHeight="8" refX="4" refY="4" orient="0" markerUnits="userSpaceOnUse"><rect x="0.5" y="0.5" width="7" height="7" fill="#f6f5ee" stroke="#bcbcb4" stroke-width="1"/></marker>
  </defs>
  <rect width="1000" height="270" rx="4" fill="#f6f5ee"/>
  <rect width="1000" height="270" rx="4" fill="url(#dots)"/>

  
    <path d="M160 130 H210" marker-end="url(#sq)"/>
    <path d="M370 130 H420" marker-end="url(#sq)"/>
    <path d="M600 130 H650" marker-end="url(#sq)"/>
    <path d="M810 130 H860" marker-end="url(#sq)"/>
    <path d="M290 165 V200" stroke-dasharray="4 4" marker-end="url(#sq)"/>
  
  <path d="M302.95 188.10Q302.17 188.10 301.66 187.62Q301.15 187.14 301.15 186.21L301.15 182.80L300.13 182.80L300.13 181.95L301.15 181.95L301.15 180.42L302.18 180.42L302.18 181.95L303.72 181.95L303.72 182.80L302.18 182.80L302.18 186.13Q302.18 186.66 302.42 186.92Q302.66 187.18 303.07 187.18Q303.38 187.18 303.71 187.06L303.79 187.94Q303.62 188.02 303.39 188.06Q303.16 188.10 302.95 188.10M305.82 188L304.80 188L304.80 179.50L305.82 179.50L305.82 183Q306.10 182.53 306.65 182.19Q307.21 181.86 307.97 181.86Q308.60 181.86 309.11 182.11Q309.62 182.37 309.92 182.86Q310.21 183.34 310.21 184.04L310.21 188L309.18 188L309.18 184.27Q309.18 183.54 308.80 183.15Q308.41 182.76 307.76 182.76Q306.88 182.76 306.35 183.48Q305.82 184.20 305.82 185.41L305.82 188M312.79 188L311.77 188L311.77 181.95L312.79 181.95L312.79 183.02Q313.07 182.44 313.58 182.15Q314.09 181.86 314.68 181.86Q314.87 181.86 315.07 181.89Q315.28 181.92 315.42 181.99L315.35 182.96Q315.14 182.86 314.95 182.85Q314.76 182.83 314.57 182.83Q313.81 182.83 313.30 183.54Q312.79 184.24 312.79 185.58L312.79 188M319 188.10Q318.11 188.10 317.42 187.69Q316.73 187.29 316.33 186.59Q315.94 185.89 315.94 184.98Q315.94 184.06 316.33 183.36Q316.73 182.66 317.42 182.26Q318.11 181.86 319 181.86Q319.88 181.86 320.57 182.26Q321.26 182.66 321.66 183.36Q322.06 184.06 322.06 184.98Q322.06 185.89 321.66 186.59Q321.26 187.29 320.57 187.69Q319.88 188.10 319 188.10M319 187.20Q319.58 187.20 320.04 186.91Q320.50 186.63 320.75 186.13Q321.01 185.62 321.01 184.98Q321.01 184.32 320.75 183.81Q320.50 183.31 320.04 183.03Q319.58 182.74 319 182.74Q318.41 182.74 317.95 183.03Q317.50 183.31 317.24 183.81Q316.98 184.32 316.98 184.98Q316.98 185.62 317.24 186.13Q317.50 186.63 317.95 186.91Q318.41 187.20 319 187.20M325.80 188L324.77 188L322.63 181.95L323.74 181.95L325.31 186.67L326.87 181.95L327.85 181.95L329.42 186.67L330.98 181.95L332.05 181.95L329.90 188L328.90 188L327.35 183.43" fill="#686c62"/>

  
    <rect x="40" y="95" width="120" height="70" rx="2" fill="#ffffff"/>
    <path d="M76.40 135L74.74 135L74.74 125.20L78.50 125.20Q79.41 125.20 80.09 125.55Q80.76 125.90 81.15 126.54Q81.53 127.17 81.53 128.01Q81.53 128.87 81.07 129.56Q80.60 130.25 79.80 130.58L82.50 135L80.58 135L78.13 130.83L76.40 130.83L76.40 135M76.40 126.61L76.40 129.41L78.22 129.41Q78.99 129.41 79.44 129.02Q79.90 128.63 79.90 128.01Q79.90 127.38 79.44 127Q78.99 126.61 78.22 126.61L76.40 126.61M86.60 135.11Q85.54 135.11 84.73 134.64Q83.93 134.17 83.48 133.35Q83.03 132.54 83.03 131.47Q83.03 130.41 83.48 129.59Q83.93 128.77 84.73 128.30Q85.52 127.83 86.55 127.83Q87.67 127.83 88.46 128.36Q89.26 128.88 89.64 129.77Q90.02 130.66 89.88 131.75L84.57 131.75Q84.66 132.69 85.20 133.26Q85.73 133.82 86.60 133.82Q87.26 133.82 87.76 133.48Q88.27 133.14 88.39 132.62L89.82 133Q89.56 133.94 88.68 134.52Q87.81 135.11 86.60 135.11M84.66 130.59L88.30 130.59Q88.28 129.89 87.80 129.48Q87.32 129.06 86.55 129.06Q85.83 129.06 85.34 129.46Q84.84 129.86 84.66 130.59M98.11 137.55L96.57 137.55L96.57 134.01Q96.28 134.51 95.65 134.81Q95.02 135.11 94.30 135.11Q93.27 135.11 92.48 134.66Q91.68 134.22 91.25 133.40Q90.82 132.58 90.82 131.47Q90.82 130.37 91.25 129.55Q91.68 128.73 92.48 128.28Q93.27 127.83 94.30 127.83Q95.03 127.83 95.65 128.13Q96.28 128.43 96.57 128.92L96.57 127.94L98.11 127.94L98.11 137.55M94.47 133.80Q95.09 133.80 95.56 133.50Q96.04 133.19 96.30 132.67Q96.57 132.14 96.57 131.47Q96.57 130.44 95.98 129.79Q95.39 129.15 94.47 129.15Q93.56 129.15 92.97 129.79Q92.38 130.44 92.38 131.47Q92.38 132.49 92.97 133.15Q93.56 133.80 94.47 133.80M102.32 135.11Q101.57 135.11 100.98 134.80Q100.39 134.50 100.05 133.92Q99.71 133.35 99.71 132.56L99.71 127.94L101.25 127.94L101.25 132.17Q101.25 132.93 101.65 133.35Q102.04 133.77 102.73 133.77Q103.64 133.77 104.18 133.02Q104.72 132.27 104.72 130.98L104.72 127.94L106.24 127.94L106.24 135L104.72 135L104.72 133.95Q104.41 134.41 103.79 134.76Q103.18 135.11 102.32 135.11M111.12 135.11Q110.05 135.11 109.25 134.64Q108.44 134.17 107.99 133.35Q107.55 132.54 107.55 131.47Q107.55 130.41 107.99 129.59Q108.44 128.77 109.24 128.30Q110.04 127.83 111.06 127.83Q112.18 127.83 112.98 128.36Q113.78 128.88 114.15 129.77Q114.53 130.66 114.39 131.75L109.09 131.75Q109.17 132.69 109.71 133.26Q110.25 133.82 111.12 133.82Q111.77 133.82 112.28 133.48Q112.78 133.14 112.91 132.62L114.34 133Q114.07 133.94 113.20 134.52Q112.32 135.11 111.12 135.11M109.17 130.59L112.81 130.59Q112.80 129.89 112.31 129.48Q111.83 129.06 111.06 129.06Q110.35 129.06 109.85 129.46Q109.35 129.86 109.17 130.59M118.19 135.11Q117.37 135.11 116.74 134.83Q116.11 134.55 115.72 134.07Q115.32 133.59 115.18 133.01L116.51 132.58Q116.65 133.19 117.07 133.54Q117.50 133.88 118.19 133.88Q118.75 133.88 119.09 133.63Q119.43 133.39 119.43 132.96Q119.43 132.58 119.15 132.38Q118.87 132.17 118.42 132.05Q117.98 131.92 117.47 131.79Q116.97 131.65 116.52 131.44Q116.07 131.22 115.79 130.83Q115.51 130.44 115.51 129.78Q115.51 129.23 115.82 128.79Q116.13 128.35 116.68 128.09Q117.23 127.83 117.98 127.83Q119.04 127.83 119.80 128.31Q120.55 128.78 120.78 129.57L119.46 130.06Q119.31 129.48 118.90 129.25Q118.49 129.02 117.98 129.02Q117.54 129.02 117.25 129.20Q116.95 129.39 116.95 129.74Q116.95 130.09 117.24 130.26Q117.53 130.44 117.98 130.55Q118.42 130.66 118.93 130.79Q119.43 130.91 119.88 131.14Q120.33 131.37 120.62 131.79Q120.90 132.20 120.90 132.91Q120.90 133.56 120.55 134.06Q120.20 134.55 119.59 134.83Q118.97 135.11 118.19 135.11M124.98 135.11Q123.98 135.11 123.32 134.51Q122.65 133.91 122.65 132.76L122.65 129.20L121.49 129.20L121.49 127.94L122.65 127.94L122.65 126.19L124.19 126.19L124.19 127.94L125.90 127.94L125.90 129.20L124.19 129.20L124.19 132.63Q124.19 133.19 124.46 133.48Q124.72 133.77 125.17 133.77Q125.37 133.77 125.54 133.73Q125.72 133.68 125.90 133.63L126.01 134.93Q125.79 135.03 125.52 135.07Q125.24 135.11 124.98 135.11" fill="#262d1e"/>
  
  
    <rect x="210" y="95" width="160" height="70" rx="2" fill="#3f5b1e"/>
    <path d="M253.70 125L249.43 125L249.43 114.50L253.69 114.50Q254.57 114.50 255.25 114.83Q255.94 115.16 256.32 115.75Q256.70 116.33 256.70 117.11Q256.70 117.89 256.24 118.50Q255.77 119.11 255.16 119.33Q255.72 119.47 256.20 119.84Q256.67 120.22 256.95 120.75Q257.23 121.30 257.23 121.94Q257.23 122.84 256.77 123.53Q256.32 124.22 255.53 124.61Q254.74 125 253.70 125M251.19 120.17L251.19 123.50L253.55 123.50Q254.39 123.50 254.93 123.03Q255.47 122.56 255.47 121.82Q255.47 121.10 254.93 120.64Q254.39 120.17 253.55 120.17L251.19 120.17M251.19 116L251.19 118.73L253.43 118.73Q254.10 118.73 254.56 118.35Q255 117.97 255 117.36Q255 116.77 254.56 116.38Q254.10 116 253.43 116L251.19 116M262.04 125.12Q260.90 125.12 260.04 124.62Q259.18 124.11 258.69 123.24Q258.22 122.36 258.22 121.22Q258.22 120.08 258.69 119.20Q259.18 118.33 260.03 117.82Q260.88 117.32 261.98 117.32Q263.18 117.32 264.04 117.88Q264.89 118.44 265.30 119.40Q265.70 120.35 265.55 121.52L259.87 121.52Q259.96 122.53 260.53 123.13Q261.11 123.74 262.04 123.74Q262.75 123.74 263.29 123.37Q263.82 123 263.96 122.45L265.49 122.86Q265.21 123.86 264.27 124.49Q263.33 125.12 262.04 125.12M259.96 120.28L263.86 120.28Q263.84 119.53 263.32 119.08Q262.81 118.64 261.98 118.64Q261.22 118.64 260.68 119.07Q260.15 119.50 259.96 120.28M269.21 125L267.56 125L267.56 118.79L266.31 118.79L266.31 117.44L267.56 117.44L267.56 116.72Q267.56 115.44 268.28 114.80Q269 114.16 270.06 114.16Q270.71 114.16 271.18 114.34L271.06 115.75Q270.66 115.58 270.26 115.58Q269.80 115.58 269.50 115.89Q269.21 116.19 269.21 116.81L269.21 117.44L271.06 117.44L271.06 118.79L269.21 118.79L269.21 125M275.62 125.12Q274.49 125.12 273.61 124.62Q272.72 124.11 272.22 123.23Q271.72 122.34 271.72 121.20Q271.72 120.06 272.22 119.19Q272.72 118.31 273.61 117.81Q274.49 117.32 275.62 117.32Q276.75 117.32 277.63 117.81Q278.51 118.31 279.01 119.19Q279.51 120.06 279.51 121.20Q279.51 122.34 279.01 123.23Q278.51 124.11 277.63 124.62Q276.75 125.12 275.62 125.12M275.62 123.71Q276.61 123.71 277.23 123.01Q277.85 122.31 277.85 121.20Q277.85 120.11 277.23 119.42Q276.61 118.73 275.62 118.73Q274.64 118.73 274.01 119.41Q273.38 120.09 273.38 121.20Q273.38 122.31 274.01 123.01Q274.64 123.71 275.62 123.71M282.55 125L280.91 125L280.91 117.44L282.55 117.44L282.55 118.59Q282.88 117.98 283.48 117.65Q284.09 117.32 284.82 117.32Q285.06 117.32 285.32 117.36Q285.57 117.39 285.75 117.47L285.63 119.03Q285.39 118.92 285.16 118.89Q284.92 118.86 284.68 118.86Q283.81 118.86 283.18 119.65Q282.55 120.44 282.55 122.08L282.55 125M290.15 125.12Q289.01 125.12 288.15 124.62Q287.29 124.11 286.81 123.24Q286.33 122.36 286.33 121.22Q286.33 120.08 286.81 119.20Q287.29 118.33 288.14 117.82Q289 117.32 290.09 117.32Q291.29 117.32 292.15 117.88Q293 118.44 293.41 119.40Q293.81 120.35 293.66 121.52L287.98 121.52Q288.07 122.53 288.64 123.13Q289.22 123.74 290.15 123.74Q290.86 123.74 291.40 123.37Q291.94 123 292.07 122.45L293.60 122.86Q293.32 123.86 292.38 124.49Q291.44 125.12 290.15 125.12M288.07 120.28L291.97 120.28Q291.95 119.53 291.43 119.08Q290.92 118.64 290.09 118.64Q289.33 118.64 288.79 119.07Q288.26 119.50 288.07 120.28M299.94 125L298.31 125L298.31 114.38L299.94 114.38L299.94 118.56Q300.27 118.07 300.94 117.69Q301.59 117.32 302.50 117.32Q303.31 117.32 303.94 117.65Q304.58 117.98 304.95 118.60Q305.31 119.22 305.31 120.09L305.31 125L303.66 125L303.66 120.45Q303.66 119.64 303.23 119.20Q302.79 118.76 302.07 118.76Q301.08 118.76 300.51 119.56Q299.94 120.35 299.94 121.73L299.94 125M310.52 125.12Q309.39 125.12 308.51 124.62Q307.63 124.11 307.12 123.23Q306.62 122.34 306.62 121.20Q306.62 120.06 307.12 119.19Q307.63 118.31 308.51 117.81Q309.39 117.32 310.52 117.32Q311.66 117.32 312.54 117.81Q313.41 118.31 313.92 119.19Q314.42 120.06 314.42 121.20Q314.42 122.34 313.92 123.23Q313.41 124.11 312.54 124.62Q311.66 125.12 310.52 125.12M310.52 123.71Q311.51 123.71 312.13 123.01Q312.75 122.31 312.75 121.20Q312.75 120.11 312.13 119.42Q311.51 118.73 310.52 118.73Q309.54 118.73 308.91 119.41Q308.28 120.09 308.28 121.20Q308.28 122.31 308.91 123.01Q309.54 123.71 310.52 123.71M319.28 125.12Q318.15 125.12 317.27 124.62Q316.38 124.11 315.88 123.23Q315.38 122.34 315.38 121.20Q315.38 120.06 315.88 119.19Q316.38 118.31 317.27 117.81Q318.15 117.32 319.28 117.32Q320.42 117.32 321.30 117.81Q322.17 118.31 322.68 119.19Q323.18 120.06 323.18 121.20Q323.18 122.34 322.68 123.23Q322.17 124.11 321.30 124.62Q320.42 125.12 319.28 125.12M319.28 123.71Q320.27 123.71 320.89 123.01Q321.51 122.31 321.51 121.20Q321.51 120.11 320.89 119.42Q320.27 118.73 319.28 118.73Q318.30 118.73 317.67 119.41Q317.04 120.09 317.04 121.20Q317.04 122.31 317.67 123.01Q318.30 123.71 319.28 123.71M326.21 125L324.57 125L324.57 114.38L326.21 114.38L326.21 120.31L329.34 117.44L331.53 117.44L328.47 120.32L331.79 125L329.81 125L327.27 121.46L326.21 122.47" fill="#f6f5ee"/>
    <path d="M235.58 145L234.65 145L232.47 139.46L233.49 139.46L235.13 143.79L236.78 139.46L237.76 139.46L235.58 145M240.30 145.09Q239.39 145.09 238.87 144.64Q238.34 144.20 238.34 143.50Q238.34 142.67 238.95 142.23Q239.55 141.79 240.87 141.66L242.06 141.53L242.06 141.34Q242.06 140.79 241.69 140.48Q241.33 140.17 240.72 140.17Q240.15 140.17 239.78 140.46Q239.42 140.75 239.33 141.34L238.44 141.18Q238.58 140.39 239.17 139.88Q239.77 139.37 240.72 139.37Q241.39 139.37 241.90 139.62Q242.41 139.86 242.71 140.32Q243.01 140.79 243.01 141.44L243.01 145L242.06 145L242.06 144.08Q241.95 144.34 241.69 144.57Q241.42 144.80 241.06 144.94Q240.70 145.09 240.30 145.09M242.06 142.53L242.06 142.26L240.93 142.39Q240.06 142.49 239.68 142.73Q239.29 142.97 239.29 143.47Q239.29 143.88 239.59 144.10Q239.88 144.33 240.38 144.33Q240.87 144.33 241.25 144.08Q241.63 143.83 241.85 143.42Q242.06 143.01 242.06 142.53M245.35 145L244.41 145L244.41 137.21L245.35 137.21L245.35 145M247.77 145L246.82 145L246.82 139.46L247.77 139.46L247.77 145M247.30 138.49Q247.01 138.49 246.82 138.30Q246.63 138.11 246.63 137.83Q246.63 137.54 246.82 137.35Q247.01 137.17 247.30 137.17Q247.59 137.17 247.79 137.35Q247.98 137.54 247.98 137.83Q247.98 138.11 247.79 138.30Q247.59 138.49 247.30 138.49M251.66 145.09Q250.84 145.09 250.22 144.73Q249.60 144.37 249.25 143.73Q248.90 143.09 248.90 142.23Q248.90 141.37 249.25 140.73Q249.60 140.08 250.22 139.73Q250.84 139.37 251.66 139.37Q252.28 139.37 252.81 139.64Q253.34 139.91 253.58 140.36L253.58 137.21L254.52 137.21L254.52 145L253.58 145L253.58 144.09Q253.34 144.54 252.81 144.81Q252.28 145.09 251.66 145.09M251.72 144.27Q252.27 144.27 252.69 144.01Q253.11 143.75 253.34 143.28Q253.58 142.82 253.58 142.23Q253.58 141.62 253.34 141.16Q253.11 140.70 252.69 140.44Q252.27 140.18 251.72 140.18Q251.19 140.18 250.77 140.44Q250.34 140.70 250.10 141.16Q249.86 141.62 249.86 142.23Q249.86 142.83 250.10 143.29Q250.34 143.76 250.77 144.02Q251.19 144.27 251.72 144.27M257.69 145.09Q256.78 145.09 256.26 144.64Q255.73 144.20 255.73 143.50Q255.73 142.67 256.34 142.23Q256.94 141.79 258.26 141.66L259.45 141.53L259.45 141.34Q259.45 140.79 259.08 140.48Q258.72 140.17 258.11 140.17Q257.54 140.17 257.18 140.46Q256.81 140.75 256.72 141.34L255.83 141.18Q255.97 140.39 256.57 139.88Q257.16 139.37 258.11 139.37Q258.78 139.37 259.29 139.62Q259.80 139.86 260.10 140.32Q260.40 140.79 260.40 141.44L260.40 145L259.45 145L259.45 144.08Q259.34 144.34 259.08 144.57Q258.81 144.80 258.45 144.94Q258.09 145.09 257.69 145.09M259.45 142.53L259.45 142.26L258.32 142.39Q257.45 142.49 257.07 142.73Q256.68 142.97 256.68 143.47Q256.68 143.88 256.98 144.10Q257.27 144.33 257.77 144.33Q258.26 144.33 258.64 144.08Q259.02 143.83 259.24 143.42Q259.45 143.01 259.45 142.53M263.76 145.09Q263.05 145.09 262.58 144.65Q262.11 144.21 262.11 143.36L262.11 140.24L261.18 140.24L261.18 139.46L262.11 139.46L262.11 138.05L263.06 138.05L263.06 139.46L264.47 139.46L264.47 140.24L263.06 140.24L263.06 143.28Q263.06 143.77 263.28 144.01Q263.50 144.25 263.87 144.25Q264.16 144.25 264.46 144.14L264.53 144.94Q264.38 145.02 264.17 145.06Q263.95 145.09 263.76 145.09M267.86 145.09Q267.04 145.09 266.42 144.72Q265.80 144.35 265.45 143.71Q265.11 143.06 265.11 142.23Q265.11 141.39 265.46 140.75Q265.81 140.10 266.42 139.74Q267.03 139.37 267.82 139.37Q268.67 139.37 269.28 139.77Q269.88 140.17 270.18 140.84Q270.47 141.51 270.36 142.35L266.06 142.35Q266.11 143.21 266.59 143.74Q267.08 144.27 267.86 144.27Q268.45 144.27 268.90 143.96Q269.35 143.64 269.46 143.19L270.32 143.41Q270.13 144.15 269.46 144.62Q268.79 145.09 267.86 145.09M266.13 141.60L269.41 141.60Q269.40 140.94 268.96 140.56Q268.52 140.17 267.82 140.17Q267.17 140.17 266.72 140.55Q266.27 140.93 266.13 141.60M274.46 142.65Q274.18 142.65 273.99 142.46Q273.80 142.27 273.80 142Q273.80 141.71 273.99 141.53Q274.18 141.35 274.46 141.35Q274.74 141.35 274.93 141.53Q275.12 141.71 275.12 142Q275.12 142.27 274.93 142.46Q274.74 142.65 274.46 142.65M279.80 145L278.87 145L278.87 139.46L279.80 139.46L279.80 140.41Q280.05 140 280.50 139.68Q280.96 139.37 281.60 139.37Q282.27 139.37 282.74 139.70Q283.21 140.03 283.37 140.56Q283.69 140.03 284.18 139.70Q284.68 139.37 285.30 139.37Q286.18 139.37 286.73 139.90Q287.27 140.44 287.27 141.31L287.27 145L286.34 145L286.34 141.52Q286.34 140.91 286.02 140.55Q285.71 140.19 285.15 140.19Q284.65 140.19 284.29 140.48Q283.93 140.76 283.73 141.24Q283.53 141.71 283.53 142.29L283.53 145L282.60 145L282.60 141.52Q282.60 140.91 282.29 140.55Q281.98 140.19 281.42 140.19Q280.93 140.19 280.56 140.48Q280.20 140.76 280 141.24Q279.80 141.71 279.80 142.29L279.80 145M290.69 145.09Q290.11 145.09 289.64 144.85Q289.18 144.62 288.91 144.18Q288.64 143.74 288.64 143.10L288.64 139.46L289.58 139.46L289.58 142.88Q289.58 143.55 289.93 143.91Q290.29 144.26 290.87 144.26Q291.69 144.26 292.18 143.60Q292.66 142.94 292.66 141.83L292.66 139.46L293.60 139.46L293.60 145L292.66 145L292.66 144.04Q292.40 144.47 291.89 144.78Q291.39 145.09 290.69 145.09M297.05 145.09Q296.34 145.09 295.87 144.65Q295.40 144.21 295.40 143.36L295.40 140.24L294.47 140.24L294.47 139.46L295.40 139.46L295.40 138.05L296.35 138.05L296.35 139.46L297.76 139.46L297.76 140.24L296.35 140.24L296.35 143.28Q296.35 143.77 296.57 144.01Q296.79 144.25 297.16 144.25Q297.45 144.25 297.74 144.14L297.82 144.94Q297.67 145.02 297.45 145.06Q297.24 145.09 297.05 145.09M300.43 145.09Q299.51 145.09 298.99 144.64Q298.47 144.20 298.47 143.50Q298.47 142.67 299.07 142.23Q299.68 141.79 301 141.66L302.19 141.53L302.19 141.34Q302.19 140.79 301.82 140.48Q301.45 140.17 300.85 140.17Q300.27 140.17 299.91 140.46Q299.55 140.75 299.46 141.34L298.57 141.18Q298.70 140.39 299.30 139.88Q299.90 139.37 300.85 139.37Q301.52 139.37 302.03 139.62Q302.54 139.86 302.84 140.32Q303.13 140.79 303.13 141.44L303.13 145L302.19 145L302.19 144.08Q302.08 144.34 301.81 144.57Q301.55 144.80 301.19 144.94Q300.82 145.09 300.43 145.09M302.19 142.53L302.19 142.26L301.06 142.39Q300.19 142.49 299.80 142.73Q299.42 142.97 299.42 143.47Q299.42 143.88 299.71 144.10Q300.01 144.33 300.50 144.33Q301 144.33 301.38 144.08Q301.76 143.83 301.97 143.42Q302.19 143.01 302.19 142.53M306.50 145.09Q305.79 145.09 305.32 144.65Q304.85 144.21 304.85 143.36L304.85 140.24L303.92 140.24L303.92 139.46L304.85 139.46L304.85 138.05L305.80 138.05L305.80 139.46L307.20 139.46L307.20 140.24L305.80 140.24L305.80 143.28Q305.80 143.77 306.02 144.01Q306.24 144.25 306.61 144.25Q306.90 144.25 307.19 144.14L307.27 144.94Q307.12 145.02 306.90 145.06Q306.69 145.09 306.50 145.09M310.59 145.09Q309.78 145.09 309.16 144.72Q308.54 144.35 308.19 143.71Q307.84 143.06 307.84 142.23Q307.84 141.39 308.19 140.75Q308.55 140.10 309.16 139.74Q309.77 139.37 310.56 139.37Q311.41 139.37 312.01 139.77Q312.62 140.17 312.91 140.84Q313.21 141.51 313.10 142.35L308.80 142.35Q308.84 143.21 309.33 143.74Q309.81 144.27 310.59 144.27Q311.19 144.27 311.64 143.96Q312.09 143.64 312.20 143.19L313.06 143.41Q312.87 144.15 312.20 144.62Q311.53 145.09 310.59 145.09M308.87 141.60L312.14 141.60Q312.13 140.94 311.69 140.56Q311.25 140.17 310.56 140.17Q309.91 140.17 309.46 140.55Q309.01 140.93 308.87 141.60M317.19 142.65Q316.92 142.65 316.72 142.46Q316.53 142.27 316.53 142Q316.53 141.71 316.72 141.53Q316.92 141.35 317.19 141.35Q317.48 141.35 317.67 141.53Q317.85 141.71 317.85 142Q317.85 142.27 317.67 142.46Q317.48 142.65 317.19 142.65M323.29 145.09Q322.37 145.09 321.85 144.64Q321.33 144.20 321.33 143.50Q321.33 142.67 321.93 142.23Q322.54 141.79 323.86 141.66L325.05 141.53L325.05 141.34Q325.05 140.79 324.68 140.48Q324.31 140.17 323.70 140.17Q323.13 140.17 322.77 140.46Q322.41 140.75 322.32 141.34L321.43 141.18Q321.56 140.39 322.16 139.88Q322.76 139.37 323.70 139.37Q324.38 139.37 324.89 139.62Q325.40 139.86 325.70 140.32Q325.99 140.79 325.99 141.44L325.99 145L325.05 145L325.05 144.08Q324.94 144.34 324.67 144.57Q324.41 144.80 324.05 144.94Q323.68 145.09 323.29 145.09M325.05 142.53L325.05 142.26L323.91 142.39Q323.04 142.49 322.66 142.73Q322.27 142.97 322.27 143.47Q322.27 143.88 322.57 144.10Q322.87 144.33 323.36 144.33Q323.86 144.33 324.24 144.08Q324.62 143.83 324.83 143.42Q325.05 143.01 325.05 142.53M330.26 145.09Q329.66 145.09 329.13 144.81Q328.60 144.54 328.35 144.09L328.35 145L327.40 145L327.40 137.21L328.35 137.21L328.35 140.36Q328.60 139.91 329.12 139.64Q329.64 139.37 330.26 139.37Q331.10 139.37 331.71 139.73Q332.33 140.08 332.67 140.73Q333.02 141.37 333.02 142.23Q333.02 143.09 332.67 143.73Q332.33 144.37 331.71 144.73Q331.10 145.09 330.26 145.09M330.21 144.27Q330.74 144.27 331.16 144.02Q331.58 143.76 331.82 143.29Q332.06 142.83 332.06 142.23Q332.06 141.62 331.82 141.16Q331.58 140.70 331.16 140.44Q330.74 140.18 330.21 140.18Q329.67 140.18 329.24 140.44Q328.82 140.70 328.58 141.16Q328.35 141.62 328.35 142.23Q328.35 142.82 328.58 143.28Q328.82 143.75 329.24 144.01Q329.67 144.27 330.21 144.27M336.62 145.09Q335.80 145.09 335.17 144.72Q334.54 144.35 334.18 143.71Q333.81 143.06 333.81 142.23Q333.81 141.39 334.18 140.75Q334.54 140.10 335.17 139.74Q335.80 139.37 336.62 139.37Q337.43 139.37 338.06 139.74Q338.70 140.10 339.06 140.75Q339.42 141.39 339.42 142.23Q339.42 143.06 339.06 143.71Q338.70 144.35 338.06 144.72Q337.43 145.09 336.62 145.09M336.62 144.26Q337.16 144.26 337.58 144Q337.99 143.75 338.23 143.28Q338.47 142.82 338.47 142.23Q338.47 141.62 338.23 141.16Q337.99 140.70 337.58 140.44Q337.16 140.18 336.62 140.18Q336.08 140.18 335.66 140.44Q335.24 140.70 335.01 141.16Q334.77 141.62 334.77 142.23Q334.77 142.82 335.01 143.28Q335.24 143.75 335.66 144Q336.08 144.26 336.62 144.26M341.50 145L340.57 145L340.57 139.46L341.50 139.46L341.50 140.44Q341.76 139.91 342.22 139.64Q342.69 139.37 343.23 139.37Q343.41 139.37 343.59 139.40Q343.78 139.42 343.91 139.49L343.85 140.38Q343.66 140.29 343.48 140.28Q343.31 140.26 343.13 140.26Q342.44 140.26 341.97 140.91Q341.50 141.56 341.50 142.78L341.50 145M346.69 145.09Q345.98 145.09 345.51 144.65Q345.04 144.21 345.04 143.36L345.04 140.24L344.11 140.24L344.11 139.46L345.04 139.46L345.04 138.05L345.99 138.05L345.99 139.46L347.40 139.46L347.40 140.24L345.99 140.24L345.99 143.28Q345.99 143.77 346.21 144.01Q346.43 144.25 346.80 144.25Q347.09 144.25 347.39 144.14L347.46 144.94Q347.31 145.02 347.10 145.06Q346.88 145.09 346.69 145.09" fill="#d0ee89"/>
  
  
    <rect x="420" y="95" width="180" height="70" rx="2" fill="#262d1e"/>
    <path d="M450.40 125.11Q449.36 125.11 448.55 124.64Q447.75 124.16 447.29 123.33Q446.84 122.51 446.84 121.46Q446.84 120.41 447.29 119.59Q447.75 118.77 448.55 118.30Q449.36 117.83 450.40 117.83Q451.68 117.83 452.59 118.49Q453.50 119.15 453.69 120.31L452.15 120.53Q452.03 119.88 451.57 119.51Q451.11 119.15 450.40 119.15Q449.84 119.15 449.38 119.44Q448.93 119.74 448.66 120.25Q448.39 120.77 448.39 121.46Q448.39 122.14 448.66 122.67Q448.93 123.19 449.38 123.50Q449.84 123.80 450.40 123.80Q451.14 123.80 451.61 123.42Q452.08 123.04 452.17 122.42L453.75 122.62Q453.66 123.35 453.20 123.92Q452.75 124.48 452.03 124.80Q451.31 125.11 450.40 125.11M458.19 125.11Q457.14 125.11 456.32 124.64Q455.49 124.17 455.02 123.35Q454.55 122.52 454.55 121.46Q454.55 120.39 455.02 119.58Q455.49 118.76 456.32 118.29Q457.14 117.83 458.19 117.83Q459.26 117.83 460.08 118.29Q460.90 118.76 461.36 119.58Q461.83 120.39 461.83 121.46Q461.83 122.52 461.36 123.35Q460.90 124.17 460.08 124.64Q459.26 125.11 458.19 125.11M458.19 123.80Q459.12 123.80 459.70 123.14Q460.28 122.49 460.28 121.46Q460.28 120.44 459.70 119.79Q459.12 119.15 458.19 119.15Q457.28 119.15 456.69 119.78Q456.11 120.42 456.11 121.46Q456.11 122.49 456.69 123.14Q457.28 123.80 458.19 123.80M464.66 125L463.13 125L463.13 115.09L464.66 115.09L464.66 125M467.89 125L466.37 125L466.37 115.09L467.89 115.09L467.89 125M472.77 125.11Q471.70 125.11 470.90 124.64Q470.09 124.17 469.64 123.36Q469.20 122.54 469.20 121.47Q469.20 120.41 469.64 119.59Q470.09 118.77 470.89 118.30Q471.69 117.83 472.71 117.83Q473.83 117.83 474.63 118.36Q475.43 118.88 475.80 119.77Q476.18 120.66 476.04 121.75L470.74 121.75Q470.82 122.69 471.36 123.26Q471.90 123.82 472.77 123.82Q473.42 123.82 473.93 123.48Q474.43 123.14 474.56 122.62L475.99 123Q475.72 123.94 474.85 124.52Q473.97 125.11 472.77 125.11M470.82 120.59L474.46 120.59Q474.45 119.89 473.96 119.48Q473.48 119.06 472.71 119.06Q472 119.06 471.50 119.46Q471 119.86 470.82 120.59M480.54 125.11Q479.50 125.11 478.70 124.64Q477.89 124.16 477.44 123.33Q476.98 122.51 476.98 121.46Q476.98 120.41 477.44 119.59Q477.89 118.77 478.70 118.30Q479.50 117.83 480.54 117.83Q481.82 117.83 482.73 118.49Q483.64 119.15 483.83 120.31L482.29 120.53Q482.17 119.88 481.71 119.51Q481.25 119.15 480.54 119.15Q479.98 119.15 479.52 119.44Q479.07 119.74 478.80 120.25Q478.53 120.77 478.53 121.46Q478.53 122.14 478.80 122.67Q479.07 123.19 479.52 123.50Q479.98 123.80 480.54 123.80Q481.28 123.80 481.75 123.42Q482.22 123.04 482.31 122.42L483.90 122.62Q483.80 123.35 483.34 123.92Q482.89 124.48 482.17 124.80Q481.45 125.11 480.54 125.11M487.89 125.11Q486.89 125.11 486.23 124.51Q485.56 123.91 485.56 122.76L485.56 119.20L484.40 119.20L484.40 117.94L485.56 117.94L485.56 116.19L487.10 116.19L487.10 117.94L488.81 117.94L488.81 119.20L487.10 119.20L487.10 122.63Q487.10 123.19 487.37 123.48Q487.63 123.77 488.08 123.77Q488.28 123.77 488.45 123.73Q488.63 123.68 488.81 123.63L488.92 124.93Q488.70 125.03 488.43 125.07Q488.15 125.11 487.89 125.11M491.53 125L490 125L490 117.94L491.53 117.94L491.53 125M490.77 116.88Q490.34 116.88 490.04 116.60Q489.75 116.32 489.75 115.89Q489.75 115.45 490.04 115.17Q490.34 114.89 490.77 114.89Q491.22 114.89 491.51 115.17Q491.81 115.45 491.81 115.89Q491.81 116.32 491.51 116.60Q491.22 116.88 490.77 116.88M496.47 125.11Q495.42 125.11 494.59 124.64Q493.77 124.17 493.30 123.35Q492.83 122.52 492.83 121.46Q492.83 120.39 493.30 119.58Q493.77 118.76 494.59 118.29Q495.42 117.83 496.47 117.83Q497.53 117.83 498.35 118.29Q499.17 118.76 499.64 119.58Q500.11 120.39 500.11 121.46Q500.11 122.52 499.64 123.35Q499.17 124.17 498.35 124.64Q497.53 125.11 496.47 125.11M496.47 123.80Q497.39 123.80 497.97 123.14Q498.55 122.49 498.55 121.46Q498.55 120.44 497.97 119.79Q497.39 119.15 496.47 119.15Q495.56 119.15 494.97 119.78Q494.38 120.42 494.38 121.46Q494.38 122.49 494.97 123.14Q495.56 123.80 496.47 123.80M502.94 125L501.41 125L501.41 117.94L502.94 117.94L502.94 118.99Q503.24 118.53 503.86 118.18Q504.48 117.83 505.32 117.83Q506.07 117.83 506.67 118.14Q507.26 118.45 507.60 119.03Q507.93 119.61 507.93 120.42L507.93 125L506.41 125L506.41 120.76Q506.41 120 506 119.59Q505.60 119.18 504.92 119.18Q504 119.18 503.47 119.92Q502.94 120.66 502.94 121.95L502.94 125M515.80 125.11Q514.75 125.11 513.93 124.64Q513.10 124.17 512.63 123.35Q512.16 122.52 512.16 121.46Q512.16 120.39 512.63 119.58Q513.10 118.76 513.93 118.29Q514.75 117.83 515.80 117.83Q516.87 117.83 517.69 118.29Q518.50 118.76 518.97 119.58Q519.44 120.39 519.44 121.46Q519.44 122.52 518.97 123.35Q518.50 124.17 517.69 124.64Q516.87 125.11 515.80 125.11M515.80 123.80Q516.73 123.80 517.31 123.14Q517.89 122.49 517.89 121.46Q517.89 120.44 517.31 119.79Q516.73 119.15 515.80 119.15Q514.89 119.15 514.30 119.78Q513.72 120.42 513.72 121.46Q513.72 122.49 514.30 123.14Q514.89 123.80 515.80 123.80M522.28 127.55L520.74 127.55L520.74 117.94L522.28 117.94L522.28 118.92Q522.59 118.43 523.22 118.13Q523.85 117.83 524.58 117.83Q525.63 117.83 526.41 118.29Q527.18 118.74 527.61 119.55Q528.04 120.37 528.04 121.47Q528.04 122.56 527.61 123.38Q527.18 124.20 526.41 124.66Q525.63 125.11 524.58 125.11Q523.85 125.11 523.22 124.80Q522.59 124.50 522.28 124.01L522.28 127.55M524.38 123.80Q525 123.80 525.47 123.50Q525.94 123.21 526.21 122.68Q526.48 122.16 526.48 121.47Q526.48 120.44 525.89 119.79Q525.29 119.15 524.38 119.15Q523.46 119.15 522.87 119.79Q522.28 120.44 522.28 121.47Q522.28 122.14 522.55 122.67Q522.82 123.19 523.29 123.50Q523.77 123.80 524.38 123.80M532.52 125.11Q531.45 125.11 530.65 124.64Q529.84 124.17 529.40 123.36Q528.95 122.54 528.95 121.47Q528.95 120.41 529.40 119.59Q529.84 118.77 530.64 118.30Q531.44 117.83 532.46 117.83Q533.58 117.83 534.38 118.36Q535.18 118.88 535.56 119.77Q535.93 120.66 535.79 121.75L530.49 121.75Q530.57 122.69 531.11 123.26Q531.65 123.82 532.52 123.82Q533.18 123.82 533.68 123.48Q534.18 123.14 534.31 122.62L535.74 123Q535.47 123.94 534.60 124.52Q533.72 125.11 532.52 125.11M530.57 120.59L534.21 120.59Q534.20 119.89 533.72 119.48Q533.23 119.06 532.46 119.06Q531.75 119.06 531.25 119.46Q530.75 119.86 530.57 120.59M538.66 125L537.14 125L537.14 117.94L538.66 117.94L538.66 119.02Q538.97 118.45 539.54 118.14Q540.11 117.83 540.79 117.83Q541.02 117.83 541.25 117.87Q541.49 117.90 541.66 117.97L541.55 119.43Q541.32 119.33 541.10 119.30Q540.88 119.27 540.65 119.27Q539.84 119.27 539.25 120.01Q538.66 120.74 538.66 122.27L538.66 125M544.74 125.11Q543.61 125.11 542.94 124.52Q542.28 123.94 542.28 123.07Q542.28 122.02 543.03 121.45Q543.77 120.88 545.41 120.70L546.85 120.56L546.85 120.38Q546.85 119.76 546.44 119.41Q546.03 119.06 545.36 119.06Q544.71 119.06 544.31 119.39Q543.91 119.71 543.83 120.37L542.36 120.14Q542.54 119.11 543.35 118.47Q544.17 117.83 545.36 117.83Q546.24 117.83 546.92 118.15Q547.61 118.48 548 119.08Q548.38 119.69 548.38 120.56L548.38 125L546.85 125L546.85 123.98Q546.63 124.45 546.04 124.78Q545.45 125.11 544.74 125.11M546.85 121.89L546.85 121.70L545.48 121.86Q544.60 121.96 544.20 122.21Q543.80 122.47 543.80 123Q543.80 123.45 544.12 123.69Q544.45 123.94 544.99 123.94Q545.55 123.94 545.97 123.66Q546.38 123.38 546.62 122.91Q546.85 122.45 546.85 121.89M552.78 125.11Q551.78 125.11 551.12 124.51Q550.45 123.91 550.45 122.76L550.45 119.20L549.29 119.20L549.29 117.94L550.45 117.94L550.45 116.19L551.99 116.19L551.99 117.94L553.70 117.94L553.70 119.20L551.99 119.20L551.99 122.63Q551.99 123.19 552.26 123.48Q552.52 123.77 552.97 123.77Q553.17 123.77 553.34 123.73Q553.52 123.68 553.70 123.63L553.81 124.93Q553.59 125.03 553.32 125.07Q553.04 125.11 552.78 125.11M556.42 125L554.89 125L554.89 117.94L556.42 117.94L556.42 125M555.66 116.88Q555.23 116.88 554.93 116.60Q554.64 116.32 554.64 115.89Q554.64 115.45 554.93 115.17Q555.23 114.89 555.66 114.89Q556.11 114.89 556.40 115.17Q556.70 115.45 556.70 115.89Q556.70 116.32 556.40 116.60Q556.11 116.88 555.66 116.88M561.36 125.11Q560.31 125.11 559.48 124.64Q558.66 124.17 558.19 123.35Q557.72 122.52 557.72 121.46Q557.72 120.39 558.19 119.58Q558.66 118.76 559.48 118.29Q560.31 117.83 561.36 117.83Q562.42 117.83 563.24 118.29Q564.06 118.76 564.53 119.58Q565 120.39 565 121.46Q565 122.52 564.53 123.35Q564.06 124.17 563.24 124.64Q562.42 125.11 561.36 125.11M561.36 123.80Q562.28 123.80 562.86 123.14Q563.44 122.49 563.44 121.46Q563.44 120.44 562.86 119.79Q562.28 119.15 561.36 119.15Q560.45 119.15 559.86 119.78Q559.27 120.42 559.27 121.46Q559.27 122.49 559.86 123.14Q560.45 123.80 561.36 123.80M567.83 125L566.30 125L566.30 117.94L567.83 117.94L567.83 118.99Q568.13 118.53 568.75 118.18Q569.37 117.83 570.21 117.83Q570.96 117.83 571.56 118.14Q572.15 118.45 572.49 119.03Q572.83 119.61 572.83 120.42L572.83 125L571.30 125L571.30 120.76Q571.30 120 570.89 119.59Q570.49 119.18 569.82 119.18Q568.89 119.18 568.36 119.92Q567.83 120.66 567.83 121.95" fill="#e3f68b"/>
    <path d="M445.26 145L440.36 145L440.36 137.30L441.38 137.30L441.38 144.13L445.26 144.13L445.26 145M447.11 145L446.16 145L446.16 139.46L447.11 139.46L447.11 145M446.63 138.49Q446.35 138.49 446.16 138.30Q445.96 138.11 445.96 137.83Q445.96 137.54 446.16 137.35Q446.35 137.17 446.63 137.17Q446.93 137.17 447.12 137.35Q447.32 137.54 447.32 137.83Q447.32 138.11 447.12 138.30Q446.93 138.49 446.63 138.49M450.41 145.09Q449.47 145.09 448.88 144.62Q448.28 144.15 448.11 143.45L448.97 143.17Q449.09 143.71 449.45 144Q449.80 144.28 450.41 144.28Q450.92 144.28 451.24 144.06Q451.55 143.84 451.55 143.42Q451.55 143.07 451.32 142.89Q451.09 142.71 450.73 142.60Q450.36 142.49 449.96 142.39Q449.56 142.29 449.20 142.13Q448.83 141.96 448.60 141.67Q448.37 141.37 448.37 140.86Q448.37 140.44 448.61 140.10Q448.85 139.76 449.27 139.57Q449.70 139.37 450.25 139.37Q451.07 139.37 451.65 139.74Q452.22 140.10 452.40 140.74L451.54 141.05Q451.41 140.57 451.07 140.37Q450.74 140.17 450.25 140.17Q449.85 140.17 449.57 140.34Q449.30 140.50 449.30 140.83Q449.30 141.14 449.53 141.30Q449.76 141.46 450.12 141.55Q450.48 141.65 450.90 141.74Q451.31 141.84 451.67 142.02Q452.04 142.19 452.27 142.52Q452.50 142.84 452.50 143.39Q452.50 143.89 452.22 144.27Q451.95 144.66 451.48 144.87Q451.01 145.09 450.41 145.09M455.58 145.09Q454.86 145.09 454.40 144.65Q453.93 144.21 453.93 143.36L453.93 140.24L452.99 140.24L452.99 139.46L453.93 139.46L453.93 138.05L454.87 138.05L454.87 139.46L456.28 139.46L456.28 140.24L454.87 140.24L454.87 143.28Q454.87 143.77 455.09 144.01Q455.31 144.25 455.69 144.25Q455.97 144.25 456.27 144.14L456.35 144.94Q456.19 145.02 455.98 145.06Q455.76 145.09 455.58 145.09M460.19 142.65Q459.91 142.65 459.72 142.46Q459.53 142.27 459.53 142Q459.53 141.71 459.72 141.53Q459.91 141.35 460.19 141.35Q460.47 141.35 460.66 141.53Q460.85 141.71 460.85 142Q460.85 142.27 460.66 142.46Q460.47 142.65 460.19 142.65M468.04 145.09Q466.96 145.09 466.12 144.61Q465.27 144.13 464.78 143.25Q464.30 142.37 464.30 141.15Q464.30 139.93 464.78 139.04Q465.26 138.16 466.10 137.69Q466.95 137.21 468.04 137.21Q468.90 137.21 469.58 137.50Q470.26 137.78 470.70 138.32Q471.14 138.85 471.27 139.60L470.27 139.78Q470.14 139 469.53 138.54Q468.92 138.08 468.04 138.08Q467.24 138.08 466.62 138.45Q466.01 138.82 465.66 139.51Q465.31 140.19 465.31 141.15Q465.31 142.10 465.66 142.79Q466.01 143.48 466.62 143.85Q467.24 144.22 468.04 144.22Q468.98 144.22 469.59 143.74Q470.20 143.25 470.32 142.46L471.31 142.59Q471.22 143.33 470.77 143.89Q470.33 144.46 469.62 144.77Q468.92 145.09 468.04 145.09M473.34 145L472.41 145L472.41 139.46L473.34 139.46L473.34 140.44Q473.60 139.91 474.06 139.64Q474.53 139.37 475.07 139.37Q475.25 139.37 475.43 139.40Q475.62 139.42 475.75 139.49L475.69 140.38Q475.50 140.29 475.32 140.28Q475.15 140.26 474.97 140.26Q474.28 140.26 473.81 140.91Q473.34 141.56 473.34 142.78L473.34 145M478.97 145.09Q478.16 145.09 477.54 144.72Q476.92 144.35 476.57 143.71Q476.22 143.06 476.22 142.23Q476.22 141.39 476.58 140.75Q476.93 140.10 477.54 139.74Q478.15 139.37 478.94 139.37Q479.79 139.37 480.39 139.77Q481 140.17 481.30 140.84Q481.59 141.51 481.48 142.35L477.18 142.35Q477.23 143.21 477.71 143.74Q478.19 144.27 478.97 144.27Q479.57 144.27 480.02 143.96Q480.47 143.64 480.58 143.19L481.44 143.41Q481.25 144.15 480.58 144.62Q479.91 145.09 478.97 145.09M477.25 141.60L480.53 141.60Q480.51 140.94 480.07 140.56Q479.63 140.17 478.94 140.17Q478.29 140.17 477.84 140.55Q477.39 140.93 477.25 141.60M484.34 145.09Q483.43 145.09 482.91 144.64Q482.38 144.20 482.38 143.50Q482.38 142.67 482.99 142.23Q483.59 141.79 484.91 141.66L486.10 141.53L486.10 141.34Q486.10 140.79 485.73 140.48Q485.37 140.17 484.76 140.17Q484.19 140.17 483.83 140.46Q483.46 140.75 483.37 141.34L482.48 141.18Q482.62 140.39 483.22 139.88Q483.81 139.37 484.76 139.37Q485.43 139.37 485.94 139.62Q486.45 139.86 486.75 140.32Q487.05 140.79 487.05 141.44L487.05 145L486.10 145L486.10 144.08Q485.99 144.34 485.73 144.57Q485.46 144.80 485.10 144.94Q484.74 145.09 484.34 145.09M486.10 142.53L486.10 142.26L484.97 142.39Q484.10 142.49 483.72 142.73Q483.33 142.97 483.33 143.47Q483.33 143.88 483.63 144.10Q483.92 144.33 484.42 144.33Q484.91 144.33 485.29 144.08Q485.67 143.83 485.89 143.42Q486.10 143.01 486.10 142.53M490.41 145.09Q489.70 145.09 489.23 144.65Q488.76 144.21 488.76 143.36L488.76 140.24L487.83 140.24L487.83 139.46L488.76 139.46L488.76 138.05L489.71 138.05L489.71 139.46L491.12 139.46L491.12 140.24L489.71 140.24L489.71 143.28Q489.71 143.77 489.93 144.01Q490.15 144.25 490.52 144.25Q490.81 144.25 491.11 144.14L491.18 144.94Q491.03 145.02 490.82 145.06Q490.60 145.09 490.41 145.09M494.51 145.09Q493.69 145.09 493.07 144.72Q492.45 144.35 492.10 143.71Q491.76 143.06 491.76 142.23Q491.76 141.39 492.11 140.75Q492.46 140.10 493.07 139.74Q493.68 139.37 494.47 139.37Q495.32 139.37 495.93 139.77Q496.53 140.17 496.83 140.84Q497.12 141.51 497.01 142.35L492.71 142.35Q492.76 143.21 493.24 143.74Q493.73 144.27 494.51 144.27Q495.10 144.27 495.55 143.96Q496 143.64 496.11 143.19L496.97 143.41Q496.78 144.15 496.11 144.62Q495.44 145.09 494.51 145.09M492.78 141.60L496.06 141.60Q496.05 140.94 495.61 140.56Q495.17 140.17 494.47 140.17Q493.82 140.17 493.37 140.55Q492.92 140.93 492.78 141.60M501.11 142.65Q500.83 142.65 500.64 142.46Q500.45 142.27 500.45 142Q500.45 141.71 500.64 141.53Q500.83 141.35 501.11 141.35Q501.39 141.35 501.58 141.53Q501.77 141.71 501.77 142Q501.77 142.27 501.58 142.46Q501.39 142.65 501.11 142.65M508.53 145.09Q507.65 145.09 506.98 144.74Q506.30 144.38 505.92 143.75Q505.55 143.12 505.55 142.29L505.55 137.30L506.55 137.30L506.55 142.29Q506.55 142.85 506.80 143.29Q507.06 143.72 507.50 143.97Q507.95 144.22 508.53 144.22Q509.11 144.22 509.55 143.97Q509.99 143.72 510.25 143.29Q510.50 142.85 510.50 142.29L510.50 137.30L511.50 137.30L511.50 142.29Q511.50 143.12 511.13 143.75Q510.75 144.38 510.08 144.74Q509.41 145.09 508.53 145.09M513.98 147L513.03 147L513.03 139.46L513.98 139.46L513.98 140.36Q514.23 139.91 514.75 139.64Q515.27 139.37 515.89 139.37Q516.73 139.37 517.34 139.73Q517.96 140.08 518.31 140.73Q518.65 141.37 518.65 142.23Q518.65 143.09 518.31 143.73Q517.96 144.37 517.34 144.73Q516.73 145.09 515.89 145.09Q515.29 145.09 514.76 144.81Q514.23 144.54 513.98 144.09L513.98 147M515.84 144.27Q516.37 144.27 516.79 144.02Q517.21 143.76 517.45 143.29Q517.69 142.83 517.69 142.23Q517.69 141.62 517.45 141.16Q517.21 140.70 516.79 140.44Q516.37 140.18 515.84 140.18Q515.30 140.18 514.87 140.44Q514.45 140.70 514.21 141.16Q513.98 141.62 513.98 142.23Q513.98 142.82 514.21 143.28Q514.45 143.75 514.87 144.01Q515.30 144.27 515.84 144.27M522.22 145.09Q521.39 145.09 520.77 144.73Q520.15 144.37 519.80 143.73Q519.45 143.09 519.45 142.23Q519.45 141.37 519.80 140.73Q520.15 140.08 520.77 139.73Q521.39 139.37 522.22 139.37Q522.83 139.37 523.36 139.64Q523.89 139.91 524.13 140.36L524.13 137.21L525.08 137.21L525.08 145L524.13 145L524.13 144.09Q523.89 144.54 523.36 144.81Q522.83 145.09 522.22 145.09M522.27 144.27Q522.82 144.27 523.24 144.01Q523.66 143.75 523.89 143.28Q524.13 142.82 524.13 142.23Q524.13 141.62 523.89 141.16Q523.66 140.70 523.24 140.44Q522.82 140.18 522.27 140.18Q521.74 140.18 521.32 140.44Q520.90 140.70 520.65 141.16Q520.41 141.62 520.41 142.23Q520.41 142.83 520.65 143.29Q520.90 143.76 521.32 144.02Q521.74 144.27 522.27 144.27M528.24 145.09Q527.33 145.09 526.81 144.64Q526.29 144.20 526.29 143.50Q526.29 142.67 526.89 142.23Q527.50 141.79 528.82 141.66L530 141.53L530 141.34Q530 140.79 529.64 140.48Q529.27 140.17 528.66 140.17Q528.09 140.17 527.73 140.46Q527.36 140.75 527.28 141.34L526.38 141.18Q526.52 140.39 527.12 139.88Q527.72 139.37 528.66 139.37Q529.33 139.37 529.84 139.62Q530.36 139.86 530.65 140.32Q530.95 140.79 530.95 141.44L530.95 145L530 145L530 144.08Q529.89 144.34 529.63 144.57Q529.37 144.80 529 144.94Q528.64 145.09 528.24 145.09M530 142.53L530 142.26L528.87 142.39Q528 142.49 527.62 142.73Q527.23 142.97 527.23 143.47Q527.23 143.88 527.53 144.10Q527.83 144.33 528.32 144.33Q528.82 144.33 529.20 144.08Q529.57 143.83 529.79 143.42Q530 143.01 530 142.53M534.32 145.09Q533.60 145.09 533.13 144.65Q532.67 144.21 532.67 143.36L532.67 140.24L531.73 140.24L531.73 139.46L532.67 139.46L532.67 138.05L533.61 138.05L533.61 139.46L535.02 139.46L535.02 140.24L533.61 140.24L533.61 143.28Q533.61 143.77 533.83 144.01Q534.05 144.25 534.43 144.25Q534.71 144.25 535.01 144.14L535.09 144.94Q534.93 145.02 534.72 145.06Q534.50 145.09 534.32 145.09M538.41 145.09Q537.59 145.09 536.97 144.72Q536.35 144.35 536 143.71Q535.66 143.06 535.66 142.23Q535.66 141.39 536.01 140.75Q536.36 140.10 536.97 139.74Q537.58 139.37 538.37 139.37Q539.22 139.37 539.83 139.77Q540.43 140.17 540.73 140.84Q541.03 141.51 540.92 142.35L536.61 142.35Q536.66 143.21 537.14 143.74Q537.63 144.27 538.41 144.27Q539 144.27 539.45 143.96Q539.90 143.64 540.01 143.19L540.87 143.41Q540.68 144.15 540.01 144.62Q539.34 145.09 538.41 145.09M536.68 141.60L539.96 141.60Q539.95 140.94 539.51 140.56Q539.07 140.17 538.37 140.17Q537.73 140.17 537.27 140.55Q536.82 140.93 536.68 141.60M545.01 142.65Q544.73 142.65 544.54 142.46Q544.35 142.27 544.35 142Q544.35 141.71 544.54 141.53Q544.73 141.35 545.01 141.35Q545.29 141.35 545.48 141.53Q545.67 141.71 545.67 142Q545.67 142.27 545.48 142.46Q545.29 142.65 545.01 142.65M551.89 145L549.52 145L549.52 137.30L551.89 137.30Q552.95 137.30 553.82 137.76Q554.69 138.21 555.20 139.07Q555.71 139.93 555.71 141.15Q555.71 142.36 555.20 143.22Q554.69 144.09 553.82 144.54Q552.95 145 551.89 145M550.53 138.17L550.53 144.13L551.79 144.13Q552.62 144.13 553.27 143.78Q553.93 143.43 554.31 142.76Q554.70 142.10 554.70 141.15Q554.70 140.20 554.31 139.54Q553.93 138.87 553.27 138.52Q552.62 138.17 551.79 138.17L550.53 138.17M559.31 145.09Q558.49 145.09 557.87 144.72Q557.25 144.35 556.90 143.71Q556.56 143.06 556.56 142.23Q556.56 141.39 556.91 140.75Q557.26 140.10 557.87 139.74Q558.48 139.37 559.27 139.37Q560.12 139.37 560.73 139.77Q561.33 140.17 561.63 140.84Q561.93 141.51 561.82 142.35L557.51 142.35Q557.56 143.21 558.04 143.74Q558.53 144.27 559.31 144.27Q559.90 144.27 560.35 143.96Q560.80 143.64 560.91 143.19L561.77 143.41Q561.58 144.15 560.91 144.62Q560.24 145.09 559.31 145.09M557.58 141.60L560.86 141.60Q560.85 140.94 560.41 140.56Q559.97 140.17 559.27 140.17Q558.63 140.17 558.17 140.55Q557.72 140.93 557.58 141.60M563.93 145L562.98 145L562.98 137.21L563.93 137.21L563.93 145M567.81 145.09Q567 145.09 566.38 144.72Q565.75 144.35 565.41 143.71Q565.06 143.06 565.06 142.23Q565.06 141.39 565.41 140.75Q565.76 140.10 566.38 139.74Q566.99 139.37 567.78 139.37Q568.62 139.37 569.23 139.77Q569.83 140.17 570.13 140.84Q570.43 141.51 570.32 142.35L566.02 142.35Q566.06 143.21 566.55 143.74Q567.03 144.27 567.81 144.27Q568.40 144.27 568.86 143.96Q569.31 143.64 569.42 143.19L570.27 143.41Q570.09 144.15 569.42 144.62Q568.75 145.09 567.81 145.09M566.08 141.60L569.36 141.60Q569.35 140.94 568.91 140.56Q568.47 140.17 567.78 140.17Q567.13 140.17 566.68 140.55Q566.23 140.93 566.08 141.60M573.45 145.09Q572.74 145.09 572.27 144.65Q571.80 144.21 571.80 143.36L571.80 140.24L570.87 140.24L570.87 139.46L571.80 139.46L571.80 138.05L572.75 138.05L572.75 139.46L574.16 139.46L574.16 140.24L572.75 140.24L572.75 143.28Q572.75 143.77 572.97 144.01Q573.19 144.25 573.56 144.25Q573.85 144.25 574.15 144.14L574.22 144.94Q574.07 145.02 573.86 145.06Q573.64 145.09 573.45 145.09M577.55 145.09Q576.73 145.09 576.11 144.72Q575.49 144.35 575.14 143.71Q574.80 143.06 574.80 142.23Q574.80 141.39 575.15 140.75Q575.50 140.10 576.11 139.74Q576.72 139.37 577.51 139.37Q578.36 139.37 578.96 139.77Q579.57 140.17 579.87 140.84Q580.16 141.51 580.05 142.35L575.75 142.35Q575.80 143.21 576.28 143.74Q576.76 144.27 577.55 144.27Q578.14 144.27 578.59 143.96Q579.04 143.64 579.15 143.19L580.01 143.41Q579.82 144.15 579.15 144.62Q578.48 145.09 577.55 145.09M575.82 141.60L579.10 141.60Q579.09 140.94 578.65 140.56Q578.21 140.17 577.51 140.17Q576.86 140.17 576.41 140.55Q575.96 140.93 575.82 141.60" fill="#e3f68b"/>
  
  
    <rect x="650" y="95" width="160" height="70" rx="2" fill="#3f5b1e"/>
    <path d="M695.72 125L693.89 125L698 114.50L699.98 114.50L704.07 125L702.18 125L701.22 122.53L696.69 122.53L695.72 125M698.96 116.60L697.25 121.03L700.67 121.03L698.96 116.60M707.22 125L705.57 125L705.57 118.79L704.33 118.79L704.33 117.44L705.57 117.44L705.57 116.72Q705.57 115.44 706.29 114.80Q707.01 114.16 708.08 114.16Q708.72 114.16 709.19 114.34L709.07 115.75Q708.68 115.58 708.27 115.58Q707.81 115.58 707.51 115.89Q707.22 116.19 707.22 116.81L707.22 117.44L709.07 117.44L709.07 118.79L707.22 118.79L707.22 125M713.15 125.12Q712.08 125.12 711.37 124.47Q710.66 123.83 710.66 122.60L710.66 118.79L709.41 118.79L709.41 117.44L710.66 117.44L710.66 115.56L712.31 115.56L712.31 117.44L714.14 117.44L714.14 118.79L712.31 118.79L712.31 122.47Q712.31 123.06 712.59 123.37Q712.88 123.68 713.36 123.68Q713.57 123.68 713.75 123.64Q713.94 123.59 714.14 123.53L714.26 124.92Q714.02 125.03 713.72 125.08Q713.43 125.12 713.15 125.12M718.80 125.12Q717.66 125.12 716.80 124.62Q715.94 124.11 715.46 123.24Q714.98 122.36 714.98 121.22Q714.98 120.08 715.46 119.20Q715.94 118.33 716.79 117.82Q717.65 117.32 718.74 117.32Q719.94 117.32 720.80 117.88Q721.65 118.44 722.06 119.40Q722.46 120.35 722.31 121.52L716.63 121.52Q716.72 122.53 717.29 123.13Q717.87 123.74 718.80 123.74Q719.51 123.74 720.05 123.37Q720.59 123 720.72 122.45L722.25 122.86Q721.97 123.86 721.03 124.49Q720.09 125.12 718.80 125.12M716.72 120.28L720.62 120.28Q720.60 119.53 720.08 119.08Q719.57 118.64 718.74 118.64Q717.98 118.64 717.44 119.07Q716.91 119.50 716.72 120.28M725.39 125L723.75 125L723.75 117.44L725.39 117.44L725.39 118.59Q725.72 117.98 726.32 117.65Q726.93 117.32 727.67 117.32Q727.91 117.32 728.16 117.36Q728.42 117.39 728.60 117.47L728.48 119.03Q728.24 118.92 728 118.89Q727.76 118.86 727.52 118.86Q726.65 118.86 726.02 119.65Q725.39 120.44 725.39 122.08L725.39 125M734.45 125L732.81 125L732.81 114.38L734.45 114.38L734.45 118.56Q734.78 118.07 735.44 117.69Q736.10 117.32 737 117.32Q737.81 117.32 738.45 117.65Q739.08 117.98 739.45 118.60Q739.82 119.22 739.82 120.09L739.82 125L738.17 125L738.17 120.45Q738.17 119.64 737.73 119.20Q737.30 118.76 736.58 118.76Q735.59 118.76 735.02 119.56Q734.45 120.35 734.45 121.73L734.45 125M745.02 125.12Q743.90 125.12 743.01 124.62Q742.13 124.11 741.63 123.23Q741.12 122.34 741.12 121.20Q741.12 120.06 741.63 119.19Q742.13 118.31 743.01 117.81Q743.90 117.32 745.02 117.32Q746.16 117.32 747.04 117.81Q747.92 118.31 748.42 119.19Q748.92 120.06 748.92 121.20Q748.92 122.34 748.42 123.23Q747.92 124.11 747.04 124.62Q746.16 125.12 745.02 125.12M745.02 123.71Q746.01 123.71 746.63 123.01Q747.26 122.31 747.26 121.20Q747.26 120.11 746.63 119.42Q746.01 118.73 745.02 118.73Q744.05 118.73 743.42 119.41Q742.79 120.09 742.79 121.20Q742.79 122.31 743.42 123.01Q744.05 123.71 745.02 123.71M753.78 125.12Q752.66 125.12 751.77 124.62Q750.89 124.11 750.38 123.23Q749.88 122.34 749.88 121.20Q749.88 120.06 750.38 119.19Q750.89 118.31 751.77 117.81Q752.66 117.32 753.78 117.32Q754.92 117.32 755.80 117.81Q756.68 118.31 757.18 119.19Q757.68 120.06 757.68 121.20Q757.68 122.34 757.18 123.23Q756.68 124.11 755.80 124.62Q754.92 125.12 753.78 125.12M753.78 123.71Q754.77 123.71 755.39 123.01Q756.02 122.31 756.02 121.20Q756.02 120.11 755.39 119.42Q754.77 118.73 753.78 118.73Q752.81 118.73 752.18 119.41Q751.55 120.09 751.55 121.20Q751.55 122.31 752.18 123.01Q752.81 123.71 753.78 123.71M760.71 125L759.08 125L759.08 114.38L760.71 114.38L760.71 120.31L763.85 117.44L766.04 117.44L762.98 120.32L766.29 125L764.31 125L761.78 121.46L760.71 122.47" fill="#f6f5ee"/>
    <path d="M684.50 145.09Q683.68 145.09 683.06 144.72Q682.44 144.35 682.09 143.71Q681.75 143.06 681.75 142.23Q681.75 141.39 682.10 140.75Q682.45 140.10 683.06 139.74Q683.67 139.37 684.47 139.37Q685.31 139.37 685.92 139.77Q686.52 140.17 686.82 140.84Q687.12 141.51 687.01 142.35L682.71 142.35Q682.75 143.21 683.23 143.74Q683.72 144.27 684.50 144.27Q685.09 144.27 685.54 143.96Q685.99 143.64 686.10 143.19L686.96 143.41Q686.78 144.15 686.10 144.62Q685.43 145.09 684.50 145.09M682.77 141.60L686.05 141.60Q686.04 140.94 685.60 140.56Q685.16 140.17 684.47 140.17Q683.82 140.17 683.37 140.55Q682.91 140.93 682.77 141.60M689.12 145L688.18 145L688.18 139.46L689.12 139.46L689.12 140.41Q689.37 139.98 689.88 139.68Q690.39 139.37 691.09 139.37Q691.67 139.37 692.13 139.60Q692.59 139.84 692.86 140.29Q693.13 140.73 693.13 141.37L693.13 145L692.20 145L692.20 141.58Q692.20 140.91 691.85 140.55Q691.49 140.19 690.90 140.19Q690.09 140.19 689.60 140.85Q689.12 141.51 689.12 142.62L689.12 145M695.51 145L694.57 145L694.57 139.46L695.51 139.46L695.51 140.44Q695.76 139.91 696.23 139.64Q696.70 139.37 697.24 139.37Q697.41 139.37 697.60 139.40Q697.79 139.42 697.92 139.49L697.85 140.38Q697.67 140.29 697.49 140.28Q697.31 140.26 697.14 140.26Q696.44 140.26 695.98 140.91Q695.51 141.56 695.51 142.78L695.51 145M699.68 145L698.73 145L698.73 139.46L699.68 139.46L699.68 145M699.21 138.49Q698.92 138.49 698.73 138.30Q698.53 138.11 698.53 137.83Q698.53 137.54 698.73 137.35Q698.92 137.17 699.21 137.17Q699.50 137.17 699.69 137.35Q699.89 137.54 699.89 137.83Q699.89 138.11 699.69 138.30Q699.50 138.49 699.21 138.49M703.55 145.09Q702.76 145.09 702.14 144.71Q701.53 144.34 701.17 143.69Q700.81 143.04 700.81 142.23Q700.81 141.40 701.17 140.75Q701.53 140.10 702.14 139.74Q702.76 139.37 703.55 139.37Q704.53 139.37 705.22 139.87Q705.90 140.37 706.05 141.23L705.11 141.37Q705 140.82 704.59 140.50Q704.18 140.18 703.55 140.18Q703.04 140.18 702.64 140.45Q702.24 140.71 702 141.17Q701.77 141.62 701.77 142.23Q701.77 142.82 702 143.28Q702.24 143.74 702.64 144Q703.04 144.26 703.55 144.26Q704.21 144.26 704.64 143.94Q705.07 143.61 705.15 143.07L706.10 143.19Q706.03 143.75 705.68 144.18Q705.33 144.60 704.79 144.85Q704.24 145.09 703.55 145.09M708.12 145L707.18 145L707.18 137.21L708.12 137.21L708.12 140.41Q708.37 139.98 708.88 139.68Q709.39 139.37 710.08 139.37Q710.67 139.37 711.13 139.60Q711.60 139.84 711.87 140.29Q712.14 140.73 712.14 141.37L712.14 145L711.20 145L711.20 141.58Q711.20 140.91 710.84 140.55Q710.49 140.19 709.90 140.19Q709.08 140.19 708.60 140.85Q708.12 141.51 708.12 142.62L708.12 145M716.49 142.65Q716.21 142.65 716.02 142.46Q715.83 142.27 715.83 142Q715.83 141.71 716.02 141.53Q716.21 141.35 716.49 141.35Q716.77 141.35 716.96 141.53Q717.15 141.71 717.15 142Q717.15 142.27 716.96 142.46Q716.77 142.65 716.49 142.65M722.71 145.09Q721.78 145.09 721.18 144.62Q720.59 144.15 720.41 143.45L721.27 143.17Q721.39 143.71 721.75 144Q722.11 144.28 722.71 144.28Q723.23 144.28 723.54 144.06Q723.86 143.84 723.86 143.42Q723.86 143.07 723.63 142.89Q723.39 142.71 723.03 142.60Q722.67 142.49 722.27 142.39Q721.87 142.29 721.50 142.13Q721.14 141.96 720.91 141.67Q720.68 141.37 720.68 140.86Q720.68 140.44 720.91 140.10Q721.15 139.76 721.58 139.57Q722.01 139.37 722.56 139.37Q723.37 139.37 723.95 139.74Q724.53 140.10 724.70 140.74L723.85 141.05Q723.71 140.57 723.38 140.37Q723.04 140.17 722.56 140.17Q722.15 140.17 721.88 140.34Q721.60 140.50 721.60 140.83Q721.60 141.14 721.83 141.30Q722.06 141.46 722.43 141.55Q722.79 141.65 723.20 141.74Q723.61 141.84 723.98 142.02Q724.34 142.19 724.57 142.52Q724.80 142.84 724.80 143.39Q724.80 143.89 724.53 144.27Q724.25 144.66 723.78 144.87Q723.32 145.09 722.71 145.09M726.86 145L725.91 145L725.91 139.46L726.86 139.46L726.86 145M726.39 138.49Q726.10 138.49 725.91 138.30Q725.72 138.11 725.72 137.83Q725.72 137.54 725.91 137.35Q726.10 137.17 726.39 137.17Q726.68 137.17 726.88 137.35Q727.07 137.54 727.07 137.83Q727.07 138.11 726.88 138.30Q726.68 138.49 726.39 138.49M730.75 145.09Q729.93 145.09 729.31 144.73Q728.69 144.37 728.34 143.73Q727.99 143.09 727.99 142.23Q727.99 141.37 728.34 140.73Q728.69 140.08 729.31 139.73Q729.93 139.37 730.75 139.37Q731.37 139.37 731.90 139.64Q732.43 139.91 732.67 140.36L732.67 137.21L733.61 137.21L733.61 145L732.67 145L732.67 144.09Q732.43 144.54 731.90 144.81Q731.37 145.09 730.75 145.09M730.81 144.27Q731.36 144.27 731.78 144.01Q732.19 143.75 732.43 143.28Q732.67 142.82 732.67 142.23Q732.67 141.62 732.43 141.16Q732.19 140.70 731.78 140.44Q731.36 140.18 730.81 140.18Q730.28 140.18 729.86 140.44Q729.43 140.70 729.19 141.16Q728.95 141.62 728.95 142.23Q728.95 142.83 729.19 143.29Q729.43 143.76 729.86 144.02Q730.28 144.27 730.81 144.27M737.50 145.09Q736.68 145.09 736.06 144.72Q735.44 144.35 735.09 143.71Q734.75 143.06 734.75 142.23Q734.75 141.39 735.10 140.75Q735.45 140.10 736.06 139.74Q736.67 139.37 737.46 139.37Q738.31 139.37 738.92 139.77Q739.52 140.17 739.82 140.84Q740.11 141.51 740 142.35L735.70 142.35Q735.75 143.21 736.23 143.74Q736.72 144.27 737.50 144.27Q738.09 144.27 738.54 143.96Q738.99 143.64 739.10 143.19L739.96 143.41Q739.77 144.15 739.10 144.62Q738.43 145.09 737.50 145.09M735.77 141.60L739.05 141.60Q739.04 140.94 738.60 140.56Q738.16 140.17 737.46 140.17Q736.81 140.17 736.36 140.55Q735.91 140.93 735.77 141.60M744.13 142.39L740.91 142.39L740.91 141.60L744.13 141.60L744.13 142.39M747.76 145.09Q746.95 145.09 746.32 144.72Q745.70 144.35 745.36 143.71Q745.01 143.06 745.01 142.23Q745.01 141.39 745.36 140.75Q745.71 140.10 746.32 139.74Q746.93 139.37 747.73 139.37Q748.57 139.37 749.18 139.77Q749.78 140.17 750.08 140.84Q750.38 141.51 750.27 142.35L745.97 142.35Q746.01 143.21 746.49 143.74Q746.98 144.27 747.76 144.27Q748.35 144.27 748.80 143.96Q749.26 143.64 749.37 143.19L750.22 143.41Q750.04 144.15 749.37 144.62Q748.69 145.09 747.76 145.09M746.03 141.60L749.31 141.60Q749.30 140.94 748.86 140.56Q748.42 140.17 747.73 140.17Q747.08 140.17 746.63 140.55Q746.18 140.93 746.03 141.60M752.74 145L751.80 145L751.80 140.24L750.86 140.24L750.86 139.46L751.80 139.46L751.80 138.82Q751.80 137.94 752.26 137.50Q752.73 137.06 753.45 137.06Q753.66 137.06 753.86 137.10Q754.06 137.13 754.22 137.19L754.14 138.01Q754 137.94 753.85 137.91Q753.70 137.88 753.56 137.88Q753.18 137.88 752.96 138.13Q752.74 138.38 752.74 138.86L752.74 139.46L754.15 139.46L754.15 140.24L752.74 140.24L752.74 145M756.33 145L755.38 145L755.38 140.24L754.45 140.24L754.45 139.46L755.38 139.46L755.38 138.82Q755.38 137.94 755.85 137.50Q756.32 137.06 757.03 137.06Q757.24 137.06 757.44 137.10Q757.65 137.13 757.80 137.19L757.73 138.01Q757.58 137.94 757.43 137.91Q757.29 137.88 757.14 137.88Q756.77 137.88 756.55 138.13Q756.33 138.38 756.33 138.86L756.33 139.46L757.74 139.46L757.74 140.24L756.33 140.24L756.33 145M761.01 145.09Q760.20 145.09 759.58 144.72Q758.96 144.35 758.61 143.71Q758.26 143.06 758.26 142.23Q758.26 141.39 758.62 140.75Q758.97 140.10 759.58 139.74Q760.19 139.37 760.98 139.37Q761.83 139.37 762.43 139.77Q763.04 140.17 763.34 140.84Q763.63 141.51 763.52 142.35L759.22 142.35Q759.27 143.21 759.75 143.74Q760.23 144.27 761.01 144.27Q761.61 144.27 762.06 143.96Q762.51 143.64 762.62 143.19L763.48 143.41Q763.29 144.15 762.62 144.62Q761.95 145.09 761.01 145.09M759.29 141.60L762.57 141.60Q762.55 140.94 762.11 140.56Q761.67 140.17 760.98 140.17Q760.33 140.17 759.88 140.55Q759.43 140.93 759.29 141.60M767.09 145.09Q766.29 145.09 765.68 144.71Q765.06 144.34 764.70 143.69Q764.35 143.04 764.35 142.23Q764.35 141.40 764.70 140.75Q765.06 140.10 765.68 139.74Q766.29 139.37 767.09 139.37Q768.07 139.37 768.75 139.87Q769.44 140.37 769.58 141.23L768.65 141.37Q768.54 140.82 768.13 140.50Q767.71 140.18 767.09 140.18Q766.58 140.18 766.18 140.45Q765.78 140.71 765.54 141.17Q765.30 141.62 765.30 142.23Q765.30 142.82 765.54 143.28Q765.78 143.74 766.18 144Q766.58 144.26 767.09 144.26Q767.75 144.26 768.18 143.94Q768.60 143.61 768.68 143.07L769.64 143.19Q769.56 143.75 769.21 144.18Q768.87 144.60 768.32 144.85Q767.78 145.09 767.09 145.09M772.67 145.09Q771.96 145.09 771.49 144.65Q771.02 144.21 771.02 143.36L771.02 140.24L770.09 140.24L770.09 139.46L771.02 139.46L771.02 138.05L771.97 138.05L771.97 139.46L773.38 139.46L773.38 140.24L771.97 140.24L771.97 143.28Q771.97 143.77 772.19 144.01Q772.41 144.25 772.78 144.25Q773.07 144.25 773.37 144.14L773.44 144.94Q773.29 145.02 773.08 145.06Q772.86 145.09 772.67 145.09M776.18 145.09Q775.25 145.09 774.65 144.62Q774.06 144.15 773.88 143.45L774.74 143.17Q774.86 143.71 775.22 144Q775.58 144.28 776.18 144.28Q776.70 144.28 777.01 144.06Q777.33 143.84 777.33 143.42Q777.33 143.07 777.10 142.89Q776.87 142.71 776.50 142.60Q776.14 142.49 775.74 142.39Q775.34 142.29 774.97 142.13Q774.61 141.96 774.38 141.67Q774.15 141.37 774.15 140.86Q774.15 140.44 774.38 140.10Q774.62 139.76 775.05 139.57Q775.48 139.37 776.03 139.37Q776.84 139.37 777.42 139.74Q778 140.10 778.17 140.74L777.32 141.05Q777.18 140.57 776.85 140.37Q776.51 140.17 776.03 140.17Q775.62 140.17 775.35 140.34Q775.07 140.50 775.07 140.83Q775.07 141.14 775.30 141.30Q775.53 141.46 775.90 141.55Q776.26 141.65 776.67 141.74Q777.09 141.84 777.45 142.02Q777.81 142.19 778.04 142.52Q778.27 142.84 778.27 143.39Q778.27 143.89 778 144.27Q777.72 144.66 777.26 144.87Q776.79 145.09 776.18 145.09" fill="#d0ee89"/>
  
  
    <rect x="860" y="95" width="120" height="70" rx="2" fill="#ffffff"/>
    <path d="M891.51 135L889.86 135L889.86 125.20L893.61 125.20Q894.52 125.20 895.20 125.55Q895.88 125.90 896.26 126.54Q896.65 127.17 896.65 128.01Q896.65 128.87 896.18 129.56Q895.71 130.25 894.91 130.58L897.61 135L895.70 135L893.25 130.83L891.51 130.83L891.51 135M891.51 126.61L891.51 129.41L893.33 129.41Q894.10 129.41 894.56 129.02Q895.01 128.63 895.01 128.01Q895.01 127.38 894.56 127Q894.10 126.61 893.33 126.61L891.51 126.61M901.72 135.11Q900.65 135.11 899.85 134.64Q899.04 134.17 898.59 133.35Q898.15 132.54 898.15 131.47Q898.15 130.41 898.59 129.59Q899.04 128.77 899.84 128.30Q900.64 127.83 901.66 127.83Q902.78 127.83 903.58 128.36Q904.38 128.88 904.75 129.77Q905.13 130.66 904.99 131.75L899.69 131.75Q899.77 132.69 900.31 133.26Q900.85 133.82 901.72 133.82Q902.37 133.82 902.88 133.48Q903.38 133.14 903.51 132.62L904.94 133Q904.67 133.94 903.80 134.52Q902.92 135.11 901.72 135.11M899.77 130.59L903.41 130.59Q903.40 129.89 902.91 129.48Q902.43 129.06 901.66 129.06Q900.95 129.06 900.45 129.46Q899.95 129.86 899.77 130.59M908.79 135.11Q907.97 135.11 907.34 134.83Q906.71 134.55 906.32 134.07Q905.92 133.59 905.78 133.01L907.11 132.58Q907.25 133.19 907.67 133.54Q908.10 133.88 908.79 133.88Q909.35 133.88 909.69 133.63Q910.03 133.39 910.03 132.96Q910.03 132.58 909.75 132.38Q909.47 132.17 909.02 132.05Q908.58 131.92 908.07 131.79Q907.57 131.65 907.12 131.44Q906.67 131.22 906.39 130.83Q906.11 130.44 906.11 129.78Q906.11 129.23 906.42 128.79Q906.73 128.35 907.28 128.09Q907.83 127.83 908.58 127.83Q909.64 127.83 910.40 128.31Q911.15 128.78 911.38 129.57L910.06 130.06Q909.91 129.48 909.50 129.25Q909.09 129.02 908.58 129.02Q908.14 129.02 907.85 129.20Q907.55 129.39 907.55 129.74Q907.55 130.09 907.84 130.26Q908.13 130.44 908.58 130.55Q909.02 130.66 909.53 130.79Q910.03 130.91 910.48 131.14Q910.93 131.37 911.22 131.79Q911.50 132.20 911.50 132.91Q911.50 133.56 911.15 134.06Q910.80 134.55 910.19 134.83Q909.57 135.11 908.79 135.11M914.33 137.55L912.79 137.55L912.79 127.94L914.33 127.94L914.33 128.92Q914.64 128.43 915.27 128.13Q915.90 127.83 916.63 127.83Q917.68 127.83 918.45 128.29Q919.23 128.74 919.66 129.55Q920.08 130.37 920.08 131.47Q920.08 132.56 919.66 133.38Q919.23 134.20 918.45 134.66Q917.68 135.11 916.63 135.11Q915.90 135.11 915.27 134.80Q914.64 134.50 914.33 134.01L914.33 137.55M916.43 133.80Q917.05 133.80 917.51 133.50Q917.98 133.21 918.26 132.68Q918.53 132.16 918.53 131.47Q918.53 130.44 917.94 129.79Q917.34 129.15 916.43 129.15Q915.51 129.15 914.92 129.79Q914.33 130.44 914.33 131.47Q914.33 132.14 914.60 132.67Q914.86 133.19 915.34 133.50Q915.81 133.80 916.43 133.80M924.63 135.11Q923.58 135.11 922.76 134.64Q921.93 134.17 921.46 133.35Q920.99 132.52 920.99 131.46Q920.99 130.39 921.46 129.57Q921.93 128.76 922.76 128.29Q923.58 127.83 924.63 127.83Q925.70 127.83 926.52 128.29Q927.34 128.76 927.81 129.57Q928.27 130.39 928.27 131.46Q928.27 132.52 927.81 133.35Q927.34 134.17 926.52 134.64Q925.70 135.11 924.63 135.11M924.63 133.80Q925.56 133.80 926.14 133.15Q926.72 132.49 926.72 131.46Q926.72 130.44 926.14 129.79Q925.56 129.15 924.63 129.15Q923.72 129.15 923.14 129.78Q922.55 130.42 922.55 131.46Q922.55 132.49 923.14 133.15Q923.72 133.80 924.63 133.80M931.10 135L929.58 135L929.58 127.94L931.10 127.94L931.10 128.99Q931.41 128.53 932.03 128.18Q932.64 127.83 933.48 127.83Q934.24 127.83 934.83 128.14Q935.43 128.45 935.76 129.03Q936.10 129.61 936.10 130.42L936.10 135L934.57 135L934.57 130.76Q934.57 130 934.17 129.59Q933.76 129.18 933.09 129.18Q932.17 129.18 931.63 129.92Q931.10 130.66 931.10 131.95L931.10 135M940.19 135.11Q939.38 135.11 938.75 134.83Q938.12 134.55 937.72 134.07Q937.32 133.59 937.18 133.01L938.51 132.58Q938.65 133.19 939.08 133.54Q939.50 133.88 940.19 133.88Q940.75 133.88 941.09 133.63Q941.43 133.39 941.43 132.96Q941.43 132.58 941.15 132.38Q940.87 132.17 940.43 132.05Q939.98 131.92 939.47 131.79Q938.97 131.65 938.52 131.44Q938.07 131.22 937.79 130.83Q937.51 130.44 937.51 129.78Q937.51 129.23 937.82 128.79Q938.13 128.35 938.68 128.09Q939.24 127.83 939.98 127.83Q941.04 127.83 941.80 128.31Q942.55 128.78 942.78 129.57L941.46 130.06Q941.31 129.48 940.90 129.25Q940.50 129.02 939.98 129.02Q939.54 129.02 939.25 129.20Q938.96 129.39 938.96 129.74Q938.96 130.09 939.24 130.26Q939.53 130.44 939.98 130.55Q940.43 130.66 940.93 130.79Q941.43 130.91 941.88 131.14Q942.33 131.37 942.62 131.79Q942.90 132.20 942.90 132.91Q942.90 133.56 942.55 134.06Q942.20 134.55 941.59 134.83Q940.97 135.11 940.19 135.11M947.36 135.11Q946.29 135.11 945.49 134.64Q944.68 134.17 944.23 133.35Q943.79 132.54 943.79 131.47Q943.79 130.41 944.23 129.59Q944.68 128.77 945.48 128.30Q946.28 127.83 947.30 127.83Q948.42 127.83 949.22 128.36Q950.02 128.88 950.39 129.77Q950.77 130.66 950.63 131.75L945.33 131.75Q945.41 132.69 945.95 133.26Q946.49 133.82 947.36 133.82Q948.01 133.82 948.52 133.48Q949.02 133.14 949.15 132.62L950.58 133Q950.31 133.94 949.44 134.52Q948.56 135.11 947.36 135.11M945.41 130.59L949.05 130.59Q949.04 129.89 948.55 129.48Q948.07 129.06 947.30 129.06Q946.59 129.06 946.09 129.46Q945.59 129.86 945.41 130.59" fill="#262d1e"/>
  
  
    <rect x="210" y="200" width="160" height="44" rx="2" fill="#d9d9d9"/>
    <path d="M267.54 227.11Q266.41 227.11 265.75 226.52Q265.08 225.94 265.08 225.07Q265.08 224.02 265.83 223.45Q266.58 222.88 268.22 222.70L269.66 222.56L269.66 222.38Q269.66 221.76 269.25 221.41Q268.83 221.06 268.16 221.06Q267.52 221.06 267.12 221.39Q266.72 221.71 266.63 222.37L265.16 222.14Q265.35 221.11 266.16 220.47Q266.97 219.83 268.16 219.83Q269.04 219.83 269.73 220.15Q270.41 220.48 270.80 221.09Q271.18 221.69 271.18 222.56L271.18 227L269.66 227L269.66 225.98Q269.43 226.45 268.85 226.78Q268.26 227.11 267.54 227.11M269.66 223.89L269.66 223.70L268.29 223.86Q267.40 223.96 267 224.21Q266.61 224.47 266.61 225Q266.61 225.45 266.93 225.69Q267.25 225.94 267.80 225.94Q268.36 225.94 268.77 225.66Q269.18 225.38 269.42 224.91Q269.66 224.45 269.66 223.89M276.63 227.11Q275.90 227.11 275.27 226.80Q274.64 226.50 274.33 226.01L274.33 227L272.79 227L272.79 217.09L274.33 217.09L274.33 220.92Q274.64 220.43 275.27 220.13Q275.90 219.83 276.63 219.83Q277.68 219.83 278.46 220.29Q279.23 220.74 279.66 221.55Q280.09 222.37 280.09 223.47Q280.09 224.56 279.66 225.38Q279.23 226.20 278.46 226.66Q277.68 227.11 276.63 227.11M276.43 225.80Q277.05 225.80 277.52 225.50Q277.99 225.21 278.26 224.68Q278.53 224.16 278.53 223.47Q278.53 222.44 277.94 221.79Q277.34 221.15 276.43 221.15Q275.51 221.15 274.92 221.79Q274.33 222.44 274.33 223.47Q274.33 224.14 274.60 224.67Q274.87 225.19 275.34 225.50Q275.82 225.80 276.43 225.80M284.62 227.11Q283.57 227.11 282.75 226.64Q281.92 226.17 281.45 225.35Q280.98 224.52 280.98 223.46Q280.98 222.39 281.45 221.57Q281.92 220.76 282.75 220.29Q283.57 219.83 284.62 219.83Q285.69 219.83 286.51 220.29Q287.33 220.76 287.80 221.57Q288.26 222.39 288.26 223.46Q288.26 224.52 287.80 225.35Q287.33 226.17 286.51 226.64Q285.69 227.11 284.62 227.11M284.62 225.80Q285.55 225.80 286.13 225.15Q286.71 224.49 286.71 223.46Q286.71 222.44 286.13 221.79Q285.55 221.15 284.62 221.15Q283.71 221.15 283.13 221.78Q282.54 222.42 282.54 223.46Q282.54 224.49 283.13 225.15Q283.71 225.80 284.62 225.80M291.09 227L289.57 227L289.57 219.94L291.09 219.94L291.09 221.02Q291.40 220.45 291.97 220.14Q292.53 219.83 293.22 219.83Q293.44 219.83 293.68 219.87Q293.92 219.90 294.09 219.97L293.98 221.43Q293.75 221.33 293.53 221.30Q293.30 221.27 293.08 221.27Q292.27 221.27 291.68 222.01Q291.09 222.74 291.09 224.27L291.09 227M297.81 227.11Q296.82 227.11 296.15 226.51Q295.49 225.91 295.49 224.76L295.49 221.20L294.33 221.20L294.33 219.94L295.49 219.94L295.49 218.19L297.03 218.19L297.03 219.94L298.74 219.94L298.74 221.20L297.03 221.20L297.03 224.63Q297.03 225.19 297.29 225.48Q297.56 225.77 298.01 225.77Q298.20 225.77 298.38 225.73Q298.55 225.68 298.74 225.63L298.85 226.93Q298.62 227.03 298.35 227.07Q298.08 227.11 297.81 227.11M303.09 227.11Q302.03 227.11 301.22 226.64Q300.42 226.17 299.97 225.35Q299.52 224.54 299.52 223.47Q299.52 222.41 299.97 221.59Q300.42 220.77 301.21 220.30Q302.01 219.83 303.03 219.83Q304.15 219.83 304.95 220.36Q305.75 220.88 306.13 221.77Q306.51 222.66 306.37 223.75L301.06 223.75Q301.14 224.69 301.68 225.26Q302.22 225.82 303.09 225.82Q303.75 225.82 304.25 225.48Q304.76 225.14 304.88 224.62L306.31 225Q306.04 225.94 305.17 226.52Q304.29 227.11 303.09 227.11M301.14 222.59L304.78 222.59Q304.77 221.89 304.29 221.48Q303.80 221.06 303.03 221.06Q302.32 221.06 301.82 221.46Q301.33 221.86 301.14 222.59M310.78 227.11Q309.73 227.11 308.95 226.66Q308.17 226.20 307.74 225.38Q307.32 224.56 307.32 223.47Q307.32 222.37 307.74 221.55Q308.17 220.74 308.95 220.29Q309.73 219.83 310.78 219.83Q311.52 219.83 312.14 220.13Q312.76 220.43 313.06 220.92L313.06 217.09L314.61 217.09L314.61 227L313.06 227L313.06 226.01Q312.76 226.50 312.13 226.80Q311.50 227.11 310.78 227.11M310.97 225.80Q311.90 225.80 312.48 225.15Q313.06 224.49 313.06 223.47Q313.06 222.44 312.48 221.79Q311.90 221.15 310.97 221.15Q310.05 221.15 309.46 221.79Q308.87 222.44 308.87 223.47Q308.87 224.49 309.46 225.15Q310.05 225.80 310.97 225.80" fill="#686c62"/>
  
</svg>
