<svg width="1200" height="400" viewBox="0 0 1200 400" fill="none" xmlns="http://www.w3.org/2000/svg" font-family="Matter, Inter, system-ui, sans-serif">
  <defs>
    <pattern id="dots" width="22" height="22" patternUnits="userSpaceOnUse">
      <circle cx="2" cy="2" r="1.4" fill="#d4d2c6"/>
    </pattern>
    <marker id="sq" markerWidth="8" markerHeight="8" refX="4" refY="4" orient="0" markerUnits="userSpaceOnUse">
      <rect x="0.5" y="0.5" width="7" height="7" fill="#f6f5ee" stroke="#bcbcb4" stroke-width="1"/>
    </marker>
  </defs>

  <!-- uniform off-white canvas -->
  <rect x="0" y="0" width="1200" height="400" rx="4" fill="#f6f5ee"/>
  <rect x="0" y="0" width="1200" height="400" rx="4" fill="url(#dots)"/>

  <!-- meaningful zone: the control plane -->
  <rect x="494" y="116" width="212" height="168" rx="2" fill="#ece9e0"/>
  <path d="M510.20 137.09Q509.12 137.09 508.26 136.62Q507.40 136.15 506.90 135.27Q506.41 134.38 506.41 133.15Q506.41 131.92 506.90 131.04Q507.40 130.16 508.25 129.69Q509.11 129.21 510.20 129.21Q511.52 129.21 512.42 129.86Q513.32 130.50 513.52 131.65L512.23 131.88Q512.12 131.17 511.56 130.75Q510.99 130.32 510.20 130.32Q509.48 130.32 508.91 130.66Q508.34 130.99 508.02 131.63Q507.70 132.26 507.70 133.15Q507.70 134.03 508.03 134.67Q508.35 135.31 508.92 135.64Q509.48 135.98 510.20 135.98Q511.06 135.98 511.62 135.53Q512.17 135.07 512.28 134.34L513.56 134.51Q513.47 135.27 513.02 135.86Q512.57 136.44 511.84 136.76Q511.12 137.09 510.20 137.09M519.63 137.09Q518.80 137.09 518.09 136.80Q517.38 136.50 516.86 135.97Q516.33 135.44 516.05 134.72Q515.76 134.01 515.76 133.15Q515.76 132.29 516.05 131.58Q516.33 130.86 516.86 130.33Q517.38 129.79 518.09 129.50Q518.80 129.21 519.63 129.21Q520.46 129.21 521.16 129.50Q521.87 129.79 522.39 130.33Q522.91 130.86 523.20 131.58Q523.49 132.29 523.49 133.15Q523.49 134.01 523.20 134.72Q522.91 135.44 522.39 135.97Q521.87 136.50 521.16 136.80Q520.46 137.09 519.63 137.09M519.63 135.98Q520.38 135.98 520.96 135.61Q521.54 135.24 521.87 134.60Q522.20 133.96 522.20 133.15Q522.20 132.34 521.87 131.70Q521.54 131.06 520.96 130.69Q520.38 130.32 519.63 130.32Q518.88 130.32 518.30 130.69Q517.72 131.05 517.39 131.69Q517.06 132.32 517.06 133.15Q517.06 133.96 517.39 134.61Q517.72 135.25 518.30 135.61Q518.88 135.98 519.63 135.98M527.47 137L526.17 137L526.17 129.30L527.79 129.30L530.52 133.93Q530.85 134.54 531.02 134.93Q531.20 135.33 531.20 135.33Q531.20 135.33 531.18 134.89Q531.16 134.46 531.16 133.78L531.16 129.30L532.46 129.30L532.46 137L530.85 137L528.13 132.37Q527.79 131.75 527.61 131.36Q527.44 130.97 527.44 130.97Q527.44 130.97 527.45 131.41Q527.47 131.84 527.47 132.52M538.56 137L537.26 137L537.26 130.41L534.90 130.41L534.90 129.30L540.93 129.30L540.93 130.41L538.56 130.41M544.66 137L543.36 137L543.36 129.30L546.31 129.30Q547.02 129.30 547.56 129.57Q548.09 129.85 548.39 130.35Q548.70 130.85 548.70 131.51Q548.70 132.18 548.33 132.73Q547.96 133.27 547.33 133.52L549.45 137L547.95 137L546.02 133.72L544.66 133.72L544.66 137M544.66 130.41L544.66 132.61L546.09 132.61Q546.69 132.61 547.05 132.30Q547.41 132 547.41 131.51Q547.41 131.02 547.05 130.71Q546.69 130.41 546.09 130.41M555.29 137.09Q554.45 137.09 553.74 136.80Q553.03 136.50 552.51 135.97Q551.99 135.44 551.70 134.72Q551.42 134.01 551.42 133.15Q551.42 132.29 551.70 131.58Q551.99 130.86 552.51 130.33Q553.03 129.79 553.74 129.50Q554.45 129.21 555.29 129.21Q556.11 129.21 556.82 129.50Q557.52 129.79 558.04 130.33Q558.57 130.86 558.86 131.58Q559.15 132.29 559.15 133.15Q559.15 134.01 558.86 134.72Q558.57 135.44 558.04 135.97Q557.52 136.50 556.82 136.80Q556.11 137.09 555.29 137.09M555.29 135.98Q556.04 135.98 556.61 135.61Q557.19 135.24 557.52 134.60Q557.85 133.96 557.85 133.15Q557.85 132.34 557.52 131.70Q557.19 131.06 556.61 130.69Q556.04 130.32 555.29 130.32Q554.54 130.32 553.96 130.69Q553.37 131.05 553.04 131.69Q552.71 132.32 552.71 133.15Q552.71 133.96 553.04 134.61Q553.37 135.25 553.96 135.61Q554.54 135.98 555.29 135.98M566.85 137L561.83 137L561.83 129.30L563.12 129.30L563.12 135.89L566.85 135.89M574.42 137L573.13 137L573.13 129.30L576.21 129.30Q576.97 129.30 577.53 129.59Q578.09 129.87 578.40 130.38Q578.71 130.90 578.71 131.59Q578.71 132.28 578.40 132.80Q578.09 133.31 577.53 133.60Q576.97 133.89 576.21 133.89L574.42 133.89L574.42 137M574.42 130.41L574.42 132.79L576.08 132.79Q576.70 132.79 577.06 132.46Q577.42 132.13 577.42 131.59Q577.42 131.05 577.06 130.73Q576.70 130.41 576.08 130.41M586.23 137L581.20 137L581.20 129.30L582.50 129.30L582.50 135.89L586.23 135.89M589.23 137L587.89 137L590.90 129.30L592.36 129.30L595.36 137L593.97 137L593.27 135.19L589.95 135.19L589.23 137M591.61 130.84L590.35 134.09L592.86 134.09M598.94 137L597.64 137L597.64 129.30L599.26 129.30L601.99 133.93Q602.32 134.54 602.49 134.93Q602.67 135.33 602.67 135.33Q602.67 135.33 602.65 134.89Q602.63 134.46 602.63 133.78L602.63 129.30L603.93 129.30L603.93 137L602.32 137L599.60 132.37Q599.26 131.75 599.08 131.36Q598.91 130.97 598.91 130.97Q598.91 130.97 598.92 131.41Q598.94 131.84 598.94 132.52M612.12 137L606.97 137L606.97 129.30L612.09 129.30L612.09 130.41L608.27 130.41L608.27 132.42L611.37 132.42L611.37 133.53L608.27 133.53L608.27 135.89L612.12 135.89" fill="#686c62"/>

  <!-- edges: orthogonal, light (#686c62 @0.7), square endpoints flush to nodes -->
  
    <path d="M232 200 H302" marker-end="url(#sq)"/>
    <path d="M452 200 H520" marker-end="url(#sq)"/>
    <path d="M682 176 H720 L744 135 H756" marker-end="url(#sq)"/>
    <path d="M682 216 H720 L744 307 H756" stroke-dasharray="4 4" marker-end="url(#sq)"/>
    <path d="M972 124 H1030" marker-end="url(#sq)"/>
    <path d="M972 160 H1000 V229 H1030" stroke-dasharray="3 4" marker-end="url(#sq)"/>
  

  <!-- edge labels -->
  
    <path d="M244.45 192L243.34 192L243.34 185.45L244.45 185.45L244.45 186.60Q244.75 185.98 245.30 185.66Q245.85 185.34 246.49 185.34Q246.70 185.34 246.92 185.38Q247.14 185.41 247.29 185.49L247.22 186.54Q247 186.44 246.79 186.42Q246.58 186.40 246.37 186.40Q245.55 186.40 245 187.16Q244.45 187.93 244.45 189.37L244.45 192M251.10 192.10Q250.14 192.10 249.41 191.67Q248.67 191.23 248.26 190.47Q247.85 189.71 247.85 188.72Q247.85 187.74 248.27 186.98Q248.69 186.22 249.41 185.78Q250.13 185.34 251.06 185.34Q252.06 185.34 252.78 185.82Q253.50 186.29 253.85 187.09Q254.20 187.88 254.07 188.87L248.98 188.87Q249.04 189.88 249.61 190.51Q250.18 191.14 251.10 191.14Q251.80 191.14 252.34 190.76Q252.87 190.39 253 189.85L254.01 190.12Q253.79 191 253 191.55Q252.21 192.10 251.10 192.10M249.06 187.98L252.94 187.98Q252.92 187.20 252.40 186.75Q251.88 186.29 251.06 186.29Q250.30 186.29 249.76 186.74Q249.23 187.19 249.06 187.98M261.69 194.37L260.57 194.37L260.57 190.92Q260.28 191.45 259.66 191.78Q259.03 192.10 258.31 192.10Q257.33 192.10 256.60 191.68Q255.86 191.26 255.45 190.50Q255.04 189.74 255.04 188.72Q255.04 187.71 255.45 186.95Q255.86 186.19 256.60 185.77Q257.33 185.34 258.31 185.34Q259.03 185.34 259.66 185.66Q260.28 185.98 260.57 186.51L260.57 185.45L261.69 185.45L261.69 194.37M258.37 191.14Q259.02 191.14 259.51 190.83Q260.01 190.52 260.29 189.97Q260.57 189.43 260.57 188.72Q260.57 188.01 260.29 187.46Q260.01 186.92 259.51 186.61Q259.02 186.31 258.37 186.31Q257.75 186.31 257.25 186.61Q256.75 186.92 256.46 187.46Q256.17 188.01 256.17 188.72Q256.17 189.44 256.46 189.99Q256.75 190.53 257.25 190.84Q257.75 191.14 258.37 191.14M265.78 192.10Q265.09 192.10 264.54 191.82Q263.99 191.54 263.67 191.03Q263.35 190.50 263.35 189.75L263.35 185.45L264.47 185.45L264.47 189.49Q264.47 190.28 264.88 190.71Q265.30 191.13 265.99 191.13Q266.96 191.13 267.54 190.35Q268.11 189.57 268.11 188.26L268.11 185.45L269.21 185.45L269.21 192L268.11 192L268.11 190.87Q267.80 191.38 267.20 191.74Q266.60 192.10 265.78 192.10M273.81 192.10Q272.85 192.10 272.12 191.67Q271.38 191.23 270.97 190.47Q270.56 189.71 270.56 188.72Q270.56 187.74 270.98 186.98Q271.40 186.22 272.12 185.78Q272.84 185.34 273.77 185.34Q274.78 185.34 275.49 185.82Q276.21 186.29 276.56 187.09Q276.91 187.88 276.78 188.87L271.69 188.87Q271.75 189.88 272.32 190.51Q272.89 191.14 273.81 191.14Q274.52 191.14 275.05 190.76Q275.58 190.39 275.71 189.85L276.73 190.12Q276.50 191 275.71 191.55Q274.92 192.10 273.81 192.10M271.77 187.98L275.65 187.98Q275.63 187.20 275.11 186.75Q274.59 186.29 273.77 186.29Q273.01 186.29 272.48 186.74Q271.94 187.19 271.77 187.98M280.31 192.10Q279.21 192.10 278.51 191.55Q277.81 191 277.60 190.17L278.61 189.84Q278.75 190.48 279.18 190.82Q279.60 191.16 280.31 191.16Q280.93 191.16 281.30 190.90Q281.67 190.63 281.67 190.13Q281.67 189.72 281.39 189.51Q281.12 189.30 280.69 189.17Q280.26 189.04 279.79 188.92Q279.31 188.80 278.88 188.61Q278.46 188.41 278.18 188.06Q277.91 187.71 277.91 187.11Q277.91 186.60 278.19 186.21Q278.47 185.81 278.98 185.58Q279.48 185.34 280.13 185.34Q281.09 185.34 281.78 185.78Q282.46 186.22 282.67 186.97L281.65 187.33Q281.50 186.76 281.10 186.53Q280.70 186.29 280.13 186.29Q279.65 186.29 279.33 186.49Q279 186.68 279 187.07Q279 187.44 279.27 187.63Q279.55 187.81 279.98 187.92Q280.41 188.03 280.89 188.15Q281.38 188.27 281.81 188.48Q282.24 188.69 282.51 189.07Q282.78 189.45 282.78 190.10Q282.78 190.69 282.46 191.14Q282.13 191.60 281.58 191.85Q281.03 192.10 280.31 192.10M286.42 192.10Q285.58 192.10 285.03 191.58Q284.47 191.06 284.47 190.06L284.47 186.37L283.37 186.37L283.37 185.45L284.47 185.45L284.47 183.78L285.59 183.78L285.59 185.45L287.26 185.45L287.26 186.37L285.59 186.37L285.59 189.97Q285.59 190.54 285.85 190.83Q286.11 191.12 286.55 191.12Q286.89 191.12 287.24 190.99L287.33 191.94Q287.15 192.03 286.90 192.06Q286.64 192.10 286.42 192.10" fill="#686c62"/>
    <path d="M728.78 128.10Q727.73 128.10 727.11 127.56Q726.49 127.01 726.49 126.21Q726.49 125.23 727.19 124.70Q727.88 124.18 729.41 124.01L730.75 123.88L730.75 123.71Q730.75 123.14 730.36 122.81Q729.98 122.49 729.35 122.49Q728.76 122.49 728.39 122.79Q728.01 123.09 727.94 123.70L726.57 123.49Q726.74 122.53 727.50 121.94Q728.25 121.34 729.35 121.34Q730.17 121.34 730.81 121.64Q731.45 121.94 731.80 122.51Q732.16 123.07 732.16 123.88L732.16 128L730.75 128L730.75 127.05Q730.54 127.49 729.99 127.80Q729.45 128.10 728.78 128.10M730.75 125.11L730.75 124.93L729.47 125.09Q728.65 125.18 728.28 125.41Q727.91 125.65 727.91 126.14Q727.91 126.56 728.21 126.78Q728.51 127.01 729.02 127.01Q729.54 127.01 729.92 126.75Q730.30 126.49 730.52 126.06Q730.75 125.63 730.75 125.11M735.07 128L733.66 128L733.66 118.80L735.07 118.80L735.07 128M738.08 128L736.66 128L736.66 118.80L738.08 118.80L738.08 128M742.67 128.10Q741.69 128.10 740.92 127.67Q740.16 127.23 739.72 126.47Q739.29 125.70 739.29 124.71Q739.29 123.72 739.72 122.96Q740.16 122.20 740.92 121.77Q741.69 121.34 742.67 121.34Q743.65 121.34 744.41 121.77Q745.18 122.20 745.61 122.96Q746.05 123.72 746.05 124.71Q746.05 125.70 745.61 126.47Q745.18 127.23 744.41 127.67Q743.65 128.10 742.67 128.10M742.67 126.88Q743.52 126.88 744.06 126.28Q744.60 125.67 744.60 124.71Q744.60 123.76 744.06 123.16Q743.52 122.57 742.67 122.57Q741.82 122.57 741.28 123.16Q740.73 123.75 740.73 124.71Q740.73 125.67 741.28 126.28Q741.82 126.88 742.67 126.88M750.27 128L748.91 128L746.55 121.45L748.09 121.45L749.62 126.10L751.13 121.45L752.47 121.45L754 126.10L755.52 121.45L757.01 121.45L754.65 128L753.30 128L751.79 123.53L750.27 128M760.83 128.10Q759.84 128.10 759.09 127.67Q758.34 127.23 757.93 126.47Q757.51 125.71 757.51 124.72Q757.51 123.74 757.93 122.98Q758.34 122.22 759.09 121.78Q759.83 121.34 760.78 121.34Q761.82 121.34 762.56 121.83Q763.30 122.32 763.65 123.14Q764 123.97 763.87 124.98L758.94 124.98Q759.02 125.86 759.52 126.38Q760.02 126.91 760.83 126.91Q761.44 126.91 761.91 126.59Q762.37 126.27 762.49 125.79L763.82 126.14Q763.57 127.01 762.76 127.56Q761.95 128.10 760.83 128.10M759.02 123.91L762.40 123.91Q762.39 123.25 761.94 122.87Q761.49 122.49 760.78 122.49Q760.11 122.49 759.65 122.86Q759.19 123.23 759.02 123.91M767.96 128.10Q766.99 128.10 766.27 127.68Q765.55 127.26 765.15 126.50Q764.75 125.74 764.75 124.72Q764.75 123.70 765.15 122.94Q765.55 122.19 766.27 121.77Q766.99 121.34 767.96 121.34Q768.65 121.34 769.23 121.62Q769.81 121.90 770.08 122.36L770.08 118.80L771.53 118.80L771.53 128L770.08 128L770.08 127.08Q769.81 127.53 769.23 127.82Q768.64 128.10 767.96 128.10M768.15 126.88Q769 126.88 769.54 126.28Q770.08 125.67 770.08 124.72Q770.08 123.76 769.54 123.16Q769 122.57 768.15 122.57Q767.29 122.57 766.74 123.16Q766.20 123.76 766.20 124.72Q766.20 125.67 766.74 126.28Q767.29 126.88 768.15 126.88" fill="#686c62"/>
    <path d="M729.64 290.10Q728.66 290.10 727.94 289.68Q727.22 289.26 726.83 288.50Q726.43 287.74 726.43 286.72Q726.43 285.70 726.83 284.94Q727.22 284.19 727.94 283.77Q728.66 283.34 729.64 283.34Q730.33 283.34 730.91 283.62Q731.49 283.90 731.76 284.36L731.76 280.80L733.20 280.80L733.20 290L731.76 290L731.76 289.08Q731.49 289.53 730.90 289.82Q730.32 290.10 729.64 290.10M729.82 288.88Q730.68 288.88 731.22 288.28Q731.76 287.67 731.76 286.72Q731.76 285.76 731.22 285.16Q730.68 284.57 729.82 284.57Q728.96 284.57 728.42 285.16Q727.87 285.76 727.87 286.72Q727.87 287.67 728.42 288.28Q728.96 288.88 729.82 288.88M737.71 290.10Q736.73 290.10 735.98 289.67Q735.23 289.23 734.81 288.47Q734.40 287.71 734.40 286.72Q734.40 285.74 734.81 284.98Q735.23 284.21 735.97 283.78Q736.71 283.34 737.66 283.34Q738.70 283.34 739.44 283.83Q740.18 284.32 740.53 285.14Q740.88 285.97 740.75 286.98L735.83 286.98Q735.91 287.86 736.41 288.38Q736.91 288.91 737.71 288.91Q738.32 288.91 738.79 288.59Q739.26 288.27 739.38 287.79L740.70 288.14Q740.46 289.01 739.64 289.56Q738.83 290.10 737.71 290.10M735.91 285.90L739.29 285.90Q739.27 285.25 738.82 284.87Q738.38 284.49 737.66 284.49Q737 284.49 736.54 284.86Q736.07 285.23 735.91 285.90M743.42 290L742 290L742 283.45L743.42 283.45L743.42 284.42Q743.71 283.99 744.28 283.67Q744.85 283.34 745.63 283.34Q746.33 283.34 746.88 283.63Q747.44 283.92 747.75 284.46Q748.06 285 748.06 285.75L748.06 290L746.64 290L746.64 286.06Q746.64 285.36 746.27 284.98Q745.89 284.59 745.27 284.59Q744.41 284.59 743.91 285.28Q743.42 285.97 743.42 287.17L743.42 290M751 290L749.58 290L749.58 283.45L751 283.45L751 290M750.30 282.46Q749.89 282.46 749.62 282.20Q749.35 281.94 749.35 281.54Q749.35 281.13 749.62 280.87Q749.89 280.61 750.30 280.61Q750.71 280.61 750.99 280.87Q751.26 281.13 751.26 281.54Q751.26 281.94 750.99 282.20Q750.71 282.46 750.30 282.46M755.52 290.10Q754.53 290.10 753.79 289.67Q753.04 289.23 752.62 288.47Q752.21 287.71 752.21 286.72Q752.21 285.74 752.62 284.98Q753.04 284.21 753.78 283.78Q754.52 283.34 755.47 283.34Q756.51 283.34 757.25 283.83Q757.99 284.32 758.34 285.14Q758.69 285.97 758.56 286.98L753.64 286.98Q753.72 287.86 754.22 288.38Q754.72 288.91 755.52 288.91Q756.13 288.91 756.60 288.59Q757.07 288.27 757.19 287.79L758.51 288.14Q758.27 289.01 757.45 289.56Q756.64 290.10 755.52 290.10M753.72 285.90L757.10 285.90Q757.08 285.25 756.63 284.87Q756.19 284.49 755.47 284.49Q754.81 284.49 754.35 284.86Q753.88 285.23 753.72 285.90M762.66 290.10Q761.68 290.10 760.96 289.68Q760.24 289.26 759.85 288.50Q759.45 287.74 759.45 286.72Q759.45 285.70 759.85 284.94Q760.24 284.19 760.96 283.77Q761.68 283.34 762.66 283.34Q763.35 283.34 763.93 283.62Q764.51 283.90 764.78 284.36L764.78 280.80L766.22 280.80L766.22 290L764.78 290L764.78 289.08Q764.51 289.53 763.92 289.82Q763.34 290.10 762.66 290.10M762.84 288.88Q763.70 288.88 764.24 288.28Q764.78 287.67 764.78 286.72Q764.78 285.76 764.24 285.16Q763.70 284.57 762.84 284.57Q761.98 284.57 761.44 285.16Q760.89 285.76 760.89 286.72Q760.89 287.67 761.44 288.28Q761.98 288.88 762.84 288.88" fill="#686c62"/>
    <path d="M1009.59 200L1008.47 200L1006.16 193.45L1007.35 193.45L1009.05 198.56L1010.75 193.45L1011.81 193.45L1013.51 198.56L1015.20 193.45L1016.36 193.45L1014.03 200L1012.94 200L1011.26 195.05L1009.59 200M1018.51 200L1017.40 200L1017.40 193.45L1018.51 193.45L1018.51 194.60Q1018.81 193.98 1019.36 193.66Q1019.91 193.34 1020.55 193.34Q1020.76 193.34 1020.98 193.38Q1021.20 193.41 1021.35 193.49L1021.28 194.54Q1021.05 194.44 1020.85 194.42Q1020.64 194.40 1020.43 194.40Q1019.61 194.40 1019.06 195.16Q1018.51 195.93 1018.51 197.37L1018.51 200M1023.43 200L1022.32 200L1022.32 193.45L1023.43 193.45L1023.43 200M1022.87 192.30Q1022.54 192.30 1022.31 192.08Q1022.08 191.86 1022.08 191.52Q1022.08 191.19 1022.31 190.97Q1022.54 190.74 1022.87 190.74Q1023.23 190.74 1023.45 190.97Q1023.68 191.19 1023.68 191.52Q1023.68 191.86 1023.45 192.08Q1023.23 192.30 1022.87 192.30M1027.50 200.10Q1026.66 200.10 1026.10 199.58Q1025.55 199.06 1025.55 198.06L1025.55 194.37L1024.45 194.37L1024.45 193.45L1025.55 193.45L1025.55 191.78L1026.67 191.78L1026.67 193.45L1028.33 193.45L1028.33 194.37L1026.67 194.37L1026.67 197.97Q1026.67 198.54 1026.93 198.83Q1027.19 199.12 1027.63 199.12Q1027.97 199.12 1028.32 198.99L1028.41 199.94Q1028.23 200.03 1027.98 200.06Q1027.72 200.10 1027.50 200.10M1032.34 200.10Q1031.38 200.10 1030.64 199.67Q1029.91 199.23 1029.50 198.47Q1029.09 197.71 1029.09 196.72Q1029.09 195.74 1029.50 194.98Q1029.92 194.22 1030.64 193.78Q1031.36 193.34 1032.30 193.34Q1033.30 193.34 1034.02 193.82Q1034.73 194.29 1035.08 195.09Q1035.43 195.88 1035.30 196.87L1030.22 196.87Q1030.27 197.88 1030.84 198.51Q1031.42 199.14 1032.34 199.14Q1033.04 199.14 1033.57 198.76Q1034.11 198.39 1034.24 197.85L1035.25 198.12Q1035.03 199 1034.24 199.55Q1033.44 200.10 1032.34 200.10M1030.30 195.98L1034.17 195.98Q1034.16 195.20 1033.64 194.75Q1033.12 194.29 1032.30 194.29Q1031.53 194.29 1031 194.74Q1030.47 195.19 1030.30 195.98M1038.84 200.10Q1037.73 200.10 1037.03 199.55Q1036.33 199 1036.12 198.17L1037.14 197.84Q1037.28 198.48 1037.70 198.82Q1038.12 199.16 1038.84 199.16Q1039.45 199.16 1039.82 198.90Q1040.19 198.63 1040.19 198.13Q1040.19 197.72 1039.92 197.51Q1039.64 197.30 1039.22 197.17Q1038.79 197.04 1038.31 196.92Q1037.84 196.80 1037.41 196.61Q1036.98 196.41 1036.71 196.06Q1036.43 195.71 1036.43 195.11Q1036.43 194.60 1036.71 194.21Q1036.99 193.81 1037.50 193.58Q1038.01 193.34 1038.66 193.34Q1039.62 193.34 1040.30 193.78Q1040.98 194.22 1041.19 194.97L1040.18 195.33Q1040.02 194.76 1039.62 194.53Q1039.23 194.29 1038.66 194.29Q1038.18 194.29 1037.85 194.49Q1037.53 194.68 1037.53 195.07Q1037.53 195.44 1037.80 195.63Q1038.07 195.81 1038.50 195.92Q1038.93 196.03 1039.42 196.15Q1039.90 196.27 1040.33 196.48Q1040.76 196.69 1041.04 197.07Q1041.31 197.45 1041.31 198.10Q1041.31 198.69 1040.98 199.14Q1040.66 199.60 1040.11 199.85Q1039.55 200.10 1038.84 200.10" fill="#686c62"/>
  

  <!-- AI agent -->
  
    <rect x="60" y="160" width="172" height="80" rx="2" fill="#ffffff"/>
    <rect x="80" y="180" width="14" height="14" rx="2" fill="#e3f68b"/>
    <path d="M105.84 192L104.02 192L108.13 181.50L110.11 181.50L114.20 192L112.31 192L111.35 189.53L106.82 189.53L105.84 192M109.08 183.60L107.38 188.03L110.80 188.03L109.08 183.60M117.03 192L115.27 192L115.27 181.50L117.03 181.50L117.03 192M124.50 192.12Q123.29 192.12 122.58 191.49Q121.86 190.86 121.86 189.93Q121.86 188.81 122.67 188.20Q123.47 187.59 125.22 187.40L126.77 187.25L126.77 187.05Q126.77 186.39 126.33 186.01Q125.89 185.64 125.17 185.64Q124.47 185.64 124.05 185.99Q123.62 186.33 123.53 187.03L121.95 186.79Q122.15 185.69 123.02 185Q123.89 184.32 125.17 184.32Q126.11 184.32 126.84 184.66Q127.58 185.01 127.99 185.66Q128.41 186.31 128.41 187.25L128.41 192L126.77 192L126.77 190.91Q126.53 191.41 125.90 191.77Q125.27 192.12 124.50 192.12M126.77 188.67L126.77 188.46L125.30 188.64Q124.36 188.75 123.93 189.01Q123.50 189.28 123.50 189.85Q123.50 190.34 123.84 190.60Q124.19 190.86 124.78 190.86Q125.38 190.86 125.82 190.56Q126.26 190.26 126.52 189.76Q126.77 189.27 126.77 188.67M133.47 194.85Q132.59 194.85 131.85 194.56Q131.10 194.28 130.62 193.77Q130.13 193.26 130 192.62L131.59 192.30Q131.74 192.88 132.25 193.21Q132.77 193.53 133.50 193.53Q134.44 193.53 135.03 193.06Q135.63 192.59 135.63 191.67L135.63 190.57Q135.32 191.06 134.67 191.35Q134.02 191.64 133.24 191.64Q132.22 191.64 131.42 191.18Q130.63 190.72 130.18 189.90Q129.72 189.07 129.72 187.98Q129.72 186.85 130.18 186.04Q130.63 185.22 131.42 184.77Q132.22 184.32 133.27 184.32Q134.05 184.32 134.68 184.60Q135.31 184.89 135.63 185.37L135.63 184.44L137.28 184.44L137.28 191.50Q137.28 192.57 136.81 193.32Q136.32 194.07 135.47 194.46Q134.62 194.85 133.47 194.85M133.52 190.23Q134.44 190.23 135.03 189.60Q135.63 188.97 135.63 187.98Q135.63 186.97 135.03 186.35Q134.44 185.73 133.52 185.73Q132.59 185.73 131.99 186.35Q131.39 186.97 131.39 187.98Q131.39 188.99 131.99 189.61Q132.59 190.23 133.52 190.23M142.48 192.12Q141.34 192.12 140.47 191.62Q139.61 191.12 139.13 190.24Q138.65 189.36 138.65 188.22Q138.65 187.08 139.13 186.20Q139.61 185.32 140.47 184.82Q141.32 184.32 142.42 184.32Q143.62 184.32 144.47 184.88Q145.33 185.44 145.73 186.40Q146.14 187.35 145.99 188.52L140.30 188.52Q140.39 189.53 140.97 190.13Q141.55 190.74 142.48 190.74Q143.18 190.74 143.72 190.37Q144.26 190 144.40 189.45L145.93 189.85Q145.64 190.86 144.70 191.49Q143.77 192.12 142.48 192.12M140.39 187.28L144.29 187.28Q144.28 186.53 143.76 186.08Q143.24 185.64 142.42 185.64Q141.65 185.64 141.12 186.07Q140.59 186.50 140.39 187.28M149.06 192L147.43 192L147.43 184.44L149.06 184.44L149.06 185.56Q149.39 185.07 150.05 184.69Q150.71 184.32 151.61 184.32Q152.42 184.32 153.06 184.65Q153.70 184.98 154.06 185.60Q154.42 186.22 154.42 187.09L154.42 192L152.78 192L152.78 187.46Q152.78 186.65 152.35 186.20Q151.91 185.76 151.19 185.76Q150.20 185.76 149.63 186.56Q149.06 187.35 149.06 188.73L149.06 192M159.16 192.12Q158.09 192.12 157.38 191.47Q156.67 190.83 156.67 189.60L156.67 185.79L155.42 185.79L155.42 184.44L156.67 184.44L156.67 182.56L158.32 182.56L158.32 184.44L160.15 184.44L160.15 185.79L158.32 185.79L158.32 189.47Q158.32 190.06 158.60 190.37Q158.89 190.68 159.37 190.68Q159.58 190.68 159.76 190.63Q159.95 190.59 160.15 190.53L160.27 191.93Q160.03 192.03 159.73 192.07Q159.44 192.12 159.16 192.12" fill="#262d1e"/>
    <path d="M84.57 220.10Q83.40 220.10 82.47 219.57Q81.55 219.05 81.02 218.09Q80.49 217.13 80.49 215.80Q80.49 214.47 81.01 213.50Q81.54 212.54 82.46 212.02Q83.38 211.50 84.57 211.50Q85.51 211.50 86.25 211.82Q87 212.13 87.48 212.71Q87.96 213.29 88.10 214.11L87.01 214.30Q86.86 213.46 86.20 212.96Q85.53 212.45 84.57 212.45Q83.70 212.45 83.02 212.85Q82.35 213.26 81.97 214.01Q81.60 214.76 81.60 215.80Q81.60 216.83 81.97 217.59Q82.35 218.34 83.02 218.75Q83.70 219.15 84.57 219.15Q85.59 219.15 86.26 218.62Q86.92 218.09 87.06 217.23L88.14 217.37Q88.04 218.18 87.55 218.79Q87.07 219.41 86.30 219.75Q85.53 220.10 84.57 220.10M90.36 220L89.32 220L89.32 211.50L90.36 211.50L90.36 220M93.81 220.10Q92.82 220.10 92.25 219.61Q91.68 219.12 91.68 218.37Q91.68 217.46 92.34 216.98Q93 216.50 94.44 216.35L95.73 216.22L95.73 216Q95.73 215.40 95.33 215.07Q94.93 214.73 94.27 214.73Q93.64 214.73 93.25 215.05Q92.85 215.37 92.76 216L91.78 215.84Q91.93 214.97 92.58 214.41Q93.24 213.86 94.27 213.86Q95 213.86 95.56 214.13Q96.12 214.40 96.44 214.90Q96.76 215.40 96.76 216.11L96.76 220L95.73 220L95.73 218.99Q95.61 219.28 95.32 219.53Q95.04 219.78 94.64 219.94Q94.24 220.10 93.81 220.10M95.73 217.30L95.73 217.01L94.50 217.16Q93.55 217.26 93.13 217.52Q92.71 217.78 92.71 218.33Q92.71 218.78 93.03 219.02Q93.36 219.27 93.90 219.27Q94.44 219.27 94.85 219Q95.26 218.73 95.50 218.28Q95.73 217.83 95.73 217.30M100.47 220.10Q99.84 220.10 99.33 219.84Q98.82 219.58 98.52 219.10Q98.23 218.62 98.23 217.92L98.23 213.95L99.26 213.95L99.26 217.68Q99.26 218.42 99.64 218.81Q100.03 219.20 100.66 219.20Q101.56 219.20 102.09 218.48Q102.62 217.76 102.62 216.54L102.62 213.95L103.64 213.95L103.64 220L102.62 220L102.62 218.96Q102.33 219.42 101.78 219.76Q101.23 220.10 100.47 220.10M107.90 220.10Q107 220.10 106.32 219.71Q105.64 219.32 105.27 218.61Q104.89 217.91 104.89 216.98Q104.89 216.04 105.27 215.34Q105.64 214.64 106.32 214.25Q107 213.86 107.90 213.86Q108.57 213.86 109.15 214.15Q109.72 214.44 109.99 214.94L109.99 211.50L111.02 211.50L111.02 220L109.99 220L109.99 219Q109.72 219.50 109.15 219.80Q108.57 220.10 107.90 220.10M107.96 219.21Q108.56 219.21 109.02 218.92Q109.47 218.63 109.73 218.13Q109.99 217.62 109.99 216.98Q109.99 216.32 109.73 215.81Q109.47 215.31 109.02 215.03Q108.56 214.74 107.96 214.74Q107.38 214.74 106.92 215.03Q106.46 215.31 106.20 215.81Q105.93 216.32 105.93 216.98Q105.93 217.64 106.20 218.14Q106.46 218.64 106.92 218.93Q107.38 219.21 107.96 219.21M115.26 220.10Q114.37 220.10 113.69 219.69Q113.01 219.29 112.63 218.59Q112.26 217.89 112.26 216.98Q112.26 216.06 112.64 215.36Q113.02 214.66 113.69 214.26Q114.36 213.86 115.22 213.86Q116.14 213.86 116.80 214.29Q117.46 214.73 117.79 215.46Q118.11 216.20 117.99 217.11L113.30 217.11Q113.35 218.04 113.88 218.63Q114.40 219.21 115.26 219.21Q115.90 219.21 116.40 218.86Q116.89 218.51 117.01 218.02L117.94 218.26Q117.74 219.08 117.01 219.59Q116.28 220.10 115.26 220.10M113.37 216.29L116.95 216.29Q116.94 215.57 116.46 215.15Q115.98 214.73 115.22 214.73Q114.51 214.73 114.02 215.15Q113.53 215.56 113.37 216.29M119.41 221.58L118.93 221.58L119.43 220.01Q119.20 219.95 119.08 219.77Q118.95 219.59 118.95 219.36Q118.95 219.05 119.16 218.85Q119.36 218.64 119.66 218.64Q119.97 218.64 120.18 218.84Q120.39 219.04 120.39 219.34Q120.39 219.52 120.34 219.68Q120.28 219.83 120.21 219.98L119.41 221.58M127.82 220.10Q126.64 220.10 125.72 219.57Q124.80 219.05 124.27 218.09Q123.74 217.13 123.74 215.80Q123.74 214.47 124.26 213.50Q124.78 212.54 125.71 212.02Q126.63 211.50 127.82 211.50Q128.76 211.50 129.50 211.82Q130.24 212.13 130.72 212.71Q131.20 213.29 131.35 214.11L130.26 214.30Q130.11 213.46 129.45 212.96Q128.78 212.45 127.82 212.45Q126.94 212.45 126.27 212.85Q125.60 213.26 125.22 214.01Q124.84 214.76 124.84 215.80Q124.84 216.83 125.22 217.59Q125.60 218.34 126.27 218.75Q126.94 219.15 127.82 219.15Q128.84 219.15 129.51 218.62Q130.17 218.09 130.30 217.23L131.38 217.37Q131.29 218.18 130.80 218.79Q130.32 219.41 129.55 219.75Q128.78 220.10 127.82 220.10M134.76 220.10Q134.12 220.10 133.61 219.84Q133.10 219.58 132.81 219.10Q132.51 218.62 132.51 217.92L132.51 213.95L133.54 213.95L133.54 217.68Q133.54 218.42 133.93 218.81Q134.31 219.20 134.95 219.20Q135.85 219.20 136.38 218.48Q136.90 217.76 136.90 216.54L136.90 213.95L137.92 213.95L137.92 220L136.90 220L136.90 218.96Q136.62 219.42 136.06 219.76Q135.51 220.10 134.76 220.10M140.58 220L139.56 220L139.56 213.95L140.58 213.95L140.58 215.02Q140.85 214.44 141.36 214.15Q141.87 213.86 142.46 213.86Q142.65 213.86 142.86 213.89Q143.06 213.92 143.20 213.99L143.13 214.96Q142.93 214.86 142.74 214.85Q142.54 214.83 142.35 214.83Q141.60 214.83 141.09 215.54Q140.58 216.24 140.58 217.58L140.58 220M146.08 220.10Q145.06 220.10 144.42 219.59Q143.77 219.08 143.58 218.31L144.51 218.01Q144.64 218.60 145.03 218.91Q145.42 219.22 146.08 219.22Q146.65 219.22 146.99 218.98Q147.33 218.74 147.33 218.27Q147.33 217.90 147.08 217.70Q146.83 217.50 146.43 217.38Q146.04 217.26 145.60 217.16Q145.16 217.05 144.76 216.87Q144.37 216.69 144.12 216.36Q143.86 216.04 143.86 215.49Q143.86 215.02 144.12 214.65Q144.38 214.29 144.85 214.07Q145.32 213.86 145.92 213.86Q146.80 213.86 147.43 214.26Q148.06 214.66 148.26 215.36L147.32 215.69Q147.18 215.16 146.81 214.95Q146.44 214.73 145.92 214.73Q145.47 214.73 145.17 214.91Q144.87 215.09 144.87 215.45Q144.87 215.79 145.12 215.96Q145.38 216.14 145.77 216.24Q146.17 216.34 146.62 216.45Q147.07 216.56 147.46 216.75Q147.86 216.94 148.11 217.29Q148.36 217.65 148.36 218.25Q148.36 218.79 148.06 219.21Q147.76 219.63 147.25 219.86Q146.74 220.10 146.08 220.10M152.26 220.10Q151.38 220.10 150.69 219.69Q150 219.29 149.60 218.59Q149.20 217.89 149.20 216.98Q149.20 216.06 149.60 215.36Q150 214.66 150.69 214.26Q151.38 213.86 152.26 213.86Q153.15 213.86 153.84 214.26Q154.53 214.66 154.93 215.36Q155.32 216.06 155.32 216.98Q155.32 217.89 154.93 218.59Q154.53 219.29 153.84 219.69Q153.15 220.10 152.26 220.10M152.26 219.20Q152.85 219.20 153.31 218.91Q153.76 218.63 154.02 218.13Q154.28 217.62 154.28 216.98Q154.28 216.32 154.02 215.81Q153.76 215.31 153.31 215.03Q152.85 214.74 152.26 214.74Q151.68 214.74 151.22 215.03Q150.76 215.31 150.51 215.81Q150.25 216.32 150.25 216.98Q150.25 217.62 150.51 218.13Q150.76 218.63 151.22 218.91Q151.68 219.20 152.26 219.20M157.59 220L156.57 220L156.57 213.95L157.59 213.95L157.59 215.02Q157.87 214.44 158.38 214.15Q158.89 213.86 159.48 213.86Q159.67 213.86 159.87 213.89Q160.08 213.92 160.22 213.99L160.15 214.96Q159.94 214.86 159.75 214.85Q159.56 214.83 159.37 214.83Q158.61 214.83 158.10 215.54Q157.59 216.24 157.59 217.58L157.59 220M161.59 220.06Q161.29 220.06 161.08 219.86Q160.87 219.65 160.87 219.35Q160.87 219.04 161.08 218.84Q161.29 218.64 161.59 218.64Q161.90 218.64 162.10 218.84Q162.31 219.04 162.31 219.35Q162.31 219.65 162.10 219.86Q161.90 220.06 161.59 220.06M164.67 220.06Q164.37 220.06 164.16 219.86Q163.95 219.65 163.95 219.35Q163.95 219.04 164.16 218.84Q164.37 218.64 164.67 218.64Q164.98 218.64 165.19 218.84Q165.39 219.04 165.39 219.35Q165.39 219.65 165.19 219.86Q164.98 220.06 164.67 220.06M167.76 220.06Q167.46 220.06 167.25 219.86Q167.04 219.65 167.04 219.35Q167.04 219.04 167.25 218.84Q167.46 218.64 167.76 218.64Q168.07 218.64 168.27 218.84Q168.48 219.04 168.48 219.35Q168.48 219.65 168.27 219.86Q168.07 220.06 167.76 220.06" fill="#686c62"/>
  

  <!-- /mcp endpoint -->
  
    <rect x="302" y="175" width="150" height="50" rx="2" fill="#ddf327"/>
    <path d="M327.57 205L325.89 205L330.60 194.50L332.30 194.50L327.57 205M335.05 205L333.41 205L333.41 197.44L335.05 197.44L335.05 198.59Q335.38 198.07 336 197.69Q336.62 197.32 337.44 197.32Q338.29 197.32 338.92 197.72Q339.55 198.12 339.75 198.75Q340.19 198.12 340.87 197.72Q341.54 197.32 342.32 197.32Q343.52 197.32 344.28 198.06Q345.04 198.81 345.04 200.05L345.04 205L343.40 205L343.40 200.41Q343.40 199.65 343.02 199.20Q342.63 198.76 341.96 198.76Q341.36 198.76 340.93 199.10Q340.50 199.44 340.27 200Q340.04 200.57 340.04 201.28L340.04 205L338.41 205L338.41 200.41Q338.41 199.65 338.03 199.20Q337.66 198.76 336.97 198.76Q336.37 198.76 335.94 199.10Q335.51 199.44 335.28 200Q335.05 200.57 335.05 201.28L335.05 205M350.15 205.12Q349.04 205.12 348.18 204.61Q347.31 204.10 346.83 203.22Q346.34 202.33 346.34 201.21Q346.34 200.08 346.83 199.20Q347.31 198.32 348.18 197.82Q349.04 197.32 350.15 197.32Q351.53 197.32 352.50 198.03Q353.48 198.73 353.68 199.97L352.03 200.22Q351.91 199.51 351.41 199.12Q350.92 198.73 350.15 198.73Q349.55 198.73 349.06 199.04Q348.57 199.36 348.29 199.91Q348 200.47 348 201.21Q348 201.94 348.29 202.50Q348.57 203.06 349.06 203.39Q349.55 203.71 350.15 203.71Q350.94 203.71 351.45 203.31Q351.95 202.90 352.06 202.24L353.75 202.45Q353.65 203.23 353.16 203.84Q352.67 204.44 351.90 204.78Q351.13 205.12 350.15 205.12M356.69 207.73L355.04 207.73L355.04 197.44L356.69 197.44L356.69 198.49Q357.02 197.97 357.69 197.64Q358.37 197.32 359.15 197.32Q360.27 197.32 361.11 197.81Q361.94 198.29 362.40 199.16Q362.86 200.03 362.86 201.22Q362.86 202.39 362.40 203.27Q361.94 204.15 361.11 204.63Q360.27 205.12 359.15 205.12Q358.37 205.12 357.69 204.79Q357.02 204.46 356.69 203.94L356.69 207.73M358.94 203.71Q359.60 203.71 360.10 203.40Q360.61 203.08 360.90 202.52Q361.19 201.96 361.19 201.22Q361.19 200.11 360.55 199.42Q359.92 198.73 358.94 198.73Q357.95 198.73 357.32 199.42Q356.69 200.11 356.69 201.22Q356.69 201.94 356.98 202.50Q357.26 203.06 357.77 203.39Q358.28 203.71 358.94 203.71M370.87 205.12Q369.73 205.12 368.86 204.62Q368 204.12 367.52 203.24Q367.04 202.36 367.04 201.22Q367.04 200.08 367.52 199.20Q368 198.32 368.86 197.82Q369.71 197.32 370.81 197.32Q372 197.32 372.86 197.88Q373.71 198.44 374.12 199.40Q374.52 200.35 374.38 201.52L368.69 201.52Q368.78 202.53 369.36 203.13Q369.94 203.74 370.87 203.74Q371.57 203.74 372.11 203.37Q372.65 203 372.79 202.45L374.31 202.85Q374.03 203.86 373.09 204.49Q372.16 205.12 370.87 205.12M368.78 200.28L372.68 200.28Q372.67 199.53 372.15 199.08Q371.63 198.64 370.81 198.64Q370.04 198.64 369.51 199.07Q368.98 199.50 368.78 200.28M377.45 205L375.81 205L375.81 197.44L377.45 197.44L377.45 198.56Q377.78 198.07 378.44 197.69Q379.10 197.32 380 197.32Q380.81 197.32 381.45 197.65Q382.08 197.98 382.44 198.60Q382.80 199.22 382.80 200.09L382.80 205L381.17 205L381.17 200.46Q381.17 199.65 380.73 199.20Q380.30 198.76 379.58 198.76Q378.59 198.76 378.02 199.56Q377.45 200.35 377.45 201.73L377.45 205M387.84 205.12Q386.72 205.12 385.89 204.63Q385.06 204.15 384.60 203.27Q384.14 202.39 384.14 201.22Q384.14 200.03 384.60 199.16Q385.06 198.29 385.89 197.81Q386.72 197.32 387.84 197.32Q388.64 197.32 389.31 197.64Q389.97 197.97 390.29 198.49L390.29 194.38L391.95 194.38L391.95 205L390.29 205L390.29 203.94Q389.97 204.46 389.30 204.79Q388.63 205.12 387.84 205.12M388.06 203.71Q389.04 203.71 389.67 203.01Q390.29 202.31 390.29 201.22Q390.29 200.11 389.67 199.42Q389.04 198.73 388.06 198.73Q387.06 198.73 386.44 199.42Q385.81 200.11 385.81 201.22Q385.81 202.31 386.44 203.01Q387.06 203.71 388.06 203.71M395.42 207.73L393.77 207.73L393.77 197.44L395.42 197.44L395.42 198.49Q395.75 197.97 396.42 197.64Q397.10 197.32 397.88 197.32Q399 197.32 399.84 197.81Q400.67 198.29 401.13 199.16Q401.58 200.03 401.58 201.22Q401.58 202.39 401.13 203.27Q400.67 204.15 399.84 204.63Q399 205.12 397.88 205.12Q397.10 205.12 396.42 204.79Q395.75 204.46 395.42 203.94L395.42 207.73M397.67 203.71Q398.33 203.71 398.83 203.40Q399.33 203.08 399.63 202.52Q399.92 201.96 399.92 201.22Q399.92 200.11 399.28 199.42Q398.64 198.73 397.67 198.73Q396.68 198.73 396.05 199.42Q395.42 200.11 395.42 201.22Q395.42 201.94 395.70 202.50Q395.99 203.06 396.50 203.39Q397.01 203.71 397.67 203.71M406.46 205.12Q405.33 205.12 404.45 204.62Q403.56 204.12 403.06 203.23Q402.56 202.34 402.56 201.21Q402.56 200.06 403.06 199.19Q403.56 198.31 404.45 197.81Q405.33 197.32 406.46 197.32Q407.60 197.32 408.48 197.81Q409.35 198.31 409.86 199.19Q410.36 200.06 410.36 201.21Q410.36 202.34 409.86 203.23Q409.35 204.12 408.48 204.62Q407.60 205.12 406.46 205.12M406.46 203.71Q407.45 203.71 408.07 203.01Q408.69 202.31 408.69 201.21Q408.69 200.11 408.07 199.42Q407.45 198.73 406.46 198.73Q405.48 198.73 404.85 199.41Q404.22 200.09 404.22 201.21Q404.22 202.31 404.85 203.01Q405.48 203.71 406.46 203.71M413.39 205L411.75 205L411.75 197.44L413.39 197.44L413.39 205M412.58 196.30Q412.11 196.30 411.80 196Q411.48 195.70 411.48 195.24Q411.48 194.77 411.80 194.47Q412.11 194.17 412.58 194.17Q413.06 194.17 413.38 194.47Q413.69 194.77 413.69 195.24Q413.69 195.70 413.38 196Q413.06 196.30 412.58 196.30M416.85 205L415.22 205L415.22 197.44L416.85 197.44L416.85 198.56Q417.18 198.07 417.84 197.69Q418.50 197.32 419.40 197.32Q420.21 197.32 420.85 197.65Q421.49 197.98 421.85 198.60Q422.21 199.22 422.21 200.09L422.21 205L420.57 205L420.57 200.46Q420.57 199.65 420.14 199.20Q419.70 198.76 418.98 198.76Q417.99 198.76 417.42 199.56Q416.85 200.35 416.85 201.73L416.85 205M426.95 205.12Q425.88 205.12 425.17 204.47Q424.46 203.83 424.46 202.60L424.46 198.79L423.21 198.79L423.21 197.44L424.46 197.44L424.46 195.56L426.11 195.56L426.11 197.44L427.94 197.44L427.94 198.79L426.11 198.79L426.11 202.47Q426.11 203.06 426.39 203.37Q426.68 203.68 427.16 203.68Q427.37 203.68 427.56 203.63Q427.74 203.59 427.94 203.53L428.06 204.93Q427.82 205.03 427.53 205.07Q427.23 205.12 426.95 205.12" fill="#262d1e"/>
  

  <!-- permissions gate (inside the control plane) -->
  
    <rect x="520" y="150" width="162" height="92" rx="2" fill="#262d1e"/>
    <path d="M562.59 192.73L560.93 192.73L560.93 182.44L562.59 182.44L562.59 183.49Q562.91 182.97 563.59 182.64Q564.26 182.32 565.04 182.32Q566.17 182.32 567 182.81Q567.84 183.29 568.29 184.16Q568.75 185.03 568.75 186.22Q568.75 187.39 568.29 188.27Q567.84 189.15 567 189.63Q566.17 190.12 565.04 190.12Q564.26 190.12 563.59 189.79Q562.91 189.46 562.59 188.94L562.59 192.73M564.84 188.71Q565.50 188.71 566 188.40Q566.50 188.08 566.79 187.52Q567.09 186.96 567.09 186.22Q567.09 185.11 566.45 184.42Q565.81 183.73 564.84 183.73Q563.85 183.73 563.22 184.42Q562.59 185.11 562.59 186.22Q562.59 186.94 562.87 187.50Q563.15 188.06 563.66 188.39Q564.17 188.71 564.84 188.71M573.55 190.12Q572.41 190.12 571.55 189.62Q570.69 189.12 570.21 188.24Q569.73 187.36 569.73 186.22Q569.73 185.08 570.21 184.20Q570.69 183.32 571.54 182.82Q572.39 182.32 573.49 182.32Q574.69 182.32 575.54 182.88Q576.40 183.44 576.80 184.40Q577.21 185.35 577.06 186.52L571.38 186.52Q571.47 187.53 572.04 188.13Q572.62 188.74 573.55 188.74Q574.25 188.74 574.79 188.37Q575.34 188 575.47 187.45L577 187.85Q576.72 188.86 575.78 189.49Q574.84 190.12 573.55 190.12M571.47 185.28L575.37 185.28Q575.35 184.53 574.83 184.08Q574.32 183.64 573.49 183.64Q572.73 183.64 572.19 184.07Q571.66 184.50 571.47 185.28M580.13 190L578.50 190L578.50 182.44L580.13 182.44L580.13 183.59Q580.47 182.98 581.07 182.65Q581.68 182.32 582.42 182.32Q582.66 182.32 582.91 182.36Q583.17 182.40 583.35 182.47L583.23 184.03Q582.99 183.93 582.75 183.90Q582.50 183.87 582.26 183.87Q581.39 183.87 580.76 184.65Q580.13 185.44 580.13 187.07L580.13 190M585.99 190L584.35 190L584.35 182.44L585.99 182.44L585.99 183.59Q586.32 183.07 586.94 182.69Q587.56 182.32 588.39 182.32Q589.23 182.32 589.86 182.72Q590.49 183.12 590.70 183.75Q591.13 183.12 591.81 182.72Q592.48 182.32 593.26 182.32Q594.46 182.32 595.22 183.06Q595.98 183.81 595.98 185.05L595.98 190L594.34 190L594.34 185.41Q594.34 184.65 593.96 184.20Q593.58 183.76 592.90 183.76Q592.30 183.76 591.87 184.10Q591.45 184.44 591.21 185Q590.98 185.57 590.98 186.28L590.98 190L589.35 190L589.35 185.41Q589.35 184.65 588.97 184.20Q588.60 183.76 587.91 183.76Q587.31 183.76 586.88 184.10Q586.45 184.44 586.22 185Q585.99 185.57 585.99 186.28L585.99 190M599.35 190L597.72 190L597.72 182.44L599.35 182.44L599.35 190M598.54 181.30Q598.08 181.30 597.76 181Q597.45 180.70 597.45 180.24Q597.45 179.77 597.76 179.47Q598.08 179.17 598.54 179.17Q599.02 179.17 599.34 179.47Q599.65 179.77 599.65 180.24Q599.65 180.70 599.34 181Q599.02 181.30 598.54 181.30M603.81 190.12Q602.94 190.12 602.26 189.82Q601.59 189.52 601.16 189Q600.73 188.49 600.58 187.87L602.01 187.41Q602.16 188.06 602.61 188.43Q603.07 188.80 603.81 188.80Q604.41 188.80 604.77 188.54Q605.14 188.28 605.14 187.81Q605.14 187.41 604.84 187.19Q604.54 186.97 604.06 186.84Q603.58 186.70 603.04 186.56Q602.50 186.41 602.02 186.18Q601.54 185.95 601.24 185.53Q600.94 185.11 600.94 184.41Q600.94 183.82 601.27 183.35Q601.60 182.88 602.19 182.60Q602.79 182.32 603.58 182.32Q604.72 182.32 605.53 182.83Q606.34 183.34 606.58 184.18L605.17 184.71Q605.01 184.09 604.57 183.84Q604.14 183.59 603.58 183.59Q603.12 183.59 602.80 183.79Q602.49 183.99 602.49 184.36Q602.49 184.74 602.79 184.92Q603.10 185.11 603.58 185.23Q604.06 185.35 604.60 185.49Q605.14 185.62 605.62 185.87Q606.10 186.12 606.41 186.56Q606.72 187 606.72 187.76Q606.72 188.46 606.34 188.99Q605.97 189.52 605.31 189.82Q604.65 190.12 603.81 190.12M610.72 190.12Q609.85 190.12 609.18 189.82Q608.50 189.52 608.07 189Q607.65 188.49 607.50 187.87L608.92 187.41Q609.07 188.06 609.53 188.43Q609.99 188.80 610.72 188.80Q611.32 188.80 611.69 188.54Q612.06 188.28 612.06 187.81Q612.06 187.41 611.76 187.19Q611.46 186.97 610.98 186.84Q610.50 186.70 609.96 186.56Q609.42 186.41 608.94 186.18Q608.46 185.95 608.16 185.53Q607.86 185.11 607.86 184.41Q607.86 183.82 608.19 183.35Q608.52 182.88 609.11 182.60Q609.70 182.32 610.50 182.32Q611.64 182.32 612.45 182.83Q613.26 183.34 613.50 184.18L612.09 184.71Q611.92 184.09 611.49 183.84Q611.05 183.59 610.50 183.59Q610.03 183.59 609.72 183.79Q609.40 183.99 609.40 184.36Q609.40 184.74 609.71 184.92Q610.02 185.11 610.50 185.23Q610.98 185.35 611.52 185.49Q612.06 185.62 612.54 185.87Q613.02 186.12 613.32 186.56Q613.63 187 613.63 187.76Q613.63 188.46 613.26 188.99Q612.88 189.52 612.22 189.82Q611.56 190.12 610.72 190.12M616.64 190L615.01 190L615.01 182.44L616.64 182.44L616.64 190M615.84 181.30Q615.37 181.30 615.06 181Q614.74 180.70 614.74 180.24Q614.74 179.77 615.06 179.47Q615.37 179.17 615.84 179.17Q616.32 179.17 616.63 179.47Q616.95 179.77 616.95 180.24Q616.95 180.70 616.63 181Q616.32 181.30 615.84 181.30M621.94 190.12Q620.82 190.12 619.93 189.62Q619.05 189.12 618.54 188.23Q618.04 187.34 618.04 186.21Q618.04 185.06 618.54 184.19Q619.05 183.31 619.93 182.81Q620.82 182.32 621.94 182.32Q623.08 182.32 623.96 182.81Q624.84 183.31 625.34 184.19Q625.84 185.06 625.84 186.21Q625.84 187.34 625.34 188.23Q624.84 189.12 623.96 189.62Q623.08 190.12 621.94 190.12M621.94 188.71Q622.93 188.71 623.55 188.01Q624.18 187.31 624.18 186.21Q624.18 185.11 623.55 184.42Q622.93 183.73 621.94 183.73Q620.97 183.73 620.34 184.41Q619.71 185.09 619.71 186.21Q619.71 187.31 620.34 188.01Q620.97 188.71 621.94 188.71M628.87 190L627.24 190L627.24 182.44L628.87 182.44L628.87 183.56Q629.20 183.07 629.86 182.69Q630.52 182.32 631.42 182.32Q632.23 182.32 632.87 182.65Q633.50 182.98 633.87 183.60Q634.23 184.22 634.23 185.09L634.23 190L632.59 190L632.59 185.46Q632.59 184.65 632.16 184.20Q631.72 183.76 631 183.76Q630.01 183.76 629.44 184.56Q628.87 185.35 628.87 186.73L628.87 190M638.61 190.12Q637.74 190.12 637.06 189.82Q636.39 189.52 635.96 189Q635.53 188.49 635.38 187.87L636.81 187.41Q636.96 188.06 637.41 188.43Q637.87 188.80 638.61 188.80Q639.21 188.80 639.57 188.54Q639.94 188.28 639.94 187.81Q639.94 187.41 639.64 187.19Q639.34 186.97 638.86 186.84Q638.38 186.70 637.84 186.56Q637.30 186.41 636.82 186.18Q636.34 185.95 636.04 185.53Q635.74 185.11 635.74 184.41Q635.74 183.82 636.07 183.35Q636.40 182.88 636.99 182.60Q637.59 182.32 638.38 182.32Q639.52 182.32 640.33 182.83Q641.14 183.34 641.38 184.18L639.97 184.71Q639.81 184.09 639.37 183.84Q638.94 183.59 638.38 183.59Q637.92 183.59 637.60 183.79Q637.29 183.99 637.29 184.36Q637.29 184.74 637.59 184.92Q637.90 185.11 638.38 185.23Q638.86 185.35 639.40 185.49Q639.94 185.62 640.42 185.87Q640.90 186.12 641.21 186.56Q641.52 187 641.52 187.76Q641.52 188.46 641.14 188.99Q640.77 189.52 640.11 189.82Q639.45 190.12 638.61 190.12" fill="#e3f68b"/>
    <path d="M586.89 210.37L585.50 210.37L585.50 207.40L582.51 207.40L582.51 206.01L585.50 206.01L585.50 203.04L586.89 203.04L586.89 206.01L589.86 206.01L589.86 207.40L586.89 207.40L586.89 210.37M596.27 212L594.63 212L594.63 204.44L596.27 204.44L596.27 205.59Q596.60 204.98 597.20 204.65Q597.81 204.32 598.55 204.32Q598.79 204.32 599.04 204.36Q599.30 204.40 599.48 204.47L599.36 206.03Q599.12 205.93 598.88 205.90Q598.64 205.87 598.40 205.87Q597.53 205.87 596.90 206.65Q596.27 207.44 596.27 209.07L596.27 212M603.95 212.12Q602.82 212.12 601.94 211.62Q601.05 211.12 600.55 210.23Q600.05 209.34 600.05 208.21Q600.05 207.06 600.55 206.19Q601.05 205.31 601.94 204.81Q602.82 204.32 603.95 204.32Q605.09 204.32 605.97 204.81Q606.84 205.31 607.35 206.19Q607.85 207.06 607.85 208.21Q607.85 209.34 607.35 210.23Q606.84 211.12 605.97 211.62Q605.09 212.12 603.95 212.12M603.95 210.71Q604.94 210.71 605.56 210.01Q606.18 209.31 606.18 208.21Q606.18 207.11 605.56 206.42Q604.94 205.73 603.95 205.73Q602.97 205.73 602.34 206.41Q601.71 207.09 601.71 208.21Q601.71 209.31 602.34 210.01Q602.97 210.71 603.95 210.71M610.88 212L609.24 212L609.24 201.38L610.88 201.38L610.88 212M616.10 212.12Q614.96 212.12 614.10 211.62Q613.23 211.12 612.75 210.24Q612.27 209.36 612.27 208.22Q612.27 207.08 612.75 206.20Q613.23 205.32 614.09 204.82Q614.94 204.32 616.04 204.32Q617.24 204.32 618.09 204.88Q618.95 205.44 619.35 206.40Q619.76 207.35 619.61 208.52L613.92 208.52Q614.01 209.53 614.59 210.13Q615.17 210.74 616.10 210.74Q616.80 210.74 617.34 210.37Q617.88 210 618.02 209.45L619.55 209.85Q619.26 210.86 618.33 211.49Q617.39 212.12 616.10 212.12M614.01 207.28L617.91 207.28Q617.90 206.53 617.38 206.08Q616.86 205.64 616.04 205.64Q615.27 205.64 614.74 206.07Q614.21 206.50 614.01 207.28" fill="#e3f68b"/>
  

  <!-- Forest back-end (hero) -->
  
    <rect x="756" y="90" width="216" height="92" rx="2" fill="#3f5b1e"/>
    <rect x="776" y="110" width="14" height="14" rx="2" fill="#ddf327"/>
    <path d="M803.20 122L801.19 122L801.19 110.10L809.10 110.10L809.10 111.82L803.20 111.82L803.20 114.93L807.99 114.93L807.99 116.64L803.20 116.64L803.20 122M814.30 122.14Q813.02 122.14 812.02 121.57Q811.02 121 810.45 119.99Q809.88 118.99 809.88 117.70Q809.88 116.41 810.45 115.41Q811.02 114.42 812.02 113.86Q813.02 113.30 814.30 113.30Q815.59 113.30 816.58 113.86Q817.58 114.42 818.15 115.41Q818.72 116.41 818.72 117.70Q818.72 118.99 818.15 119.99Q817.58 121 816.58 121.57Q815.59 122.14 814.30 122.14M814.30 120.54Q815.42 120.54 816.12 119.75Q816.83 118.96 816.83 117.70Q816.83 116.46 816.12 115.68Q815.42 114.89 814.30 114.89Q813.19 114.89 812.48 115.67Q811.76 116.44 811.76 117.70Q811.76 118.96 812.48 119.75Q813.19 120.54 814.30 120.54M822.15 122L820.30 122L820.30 113.43L822.15 113.43L822.15 114.74Q822.52 114.04 823.21 113.67Q823.90 113.30 824.74 113.30Q825.01 113.30 825.30 113.34Q825.58 113.38 825.79 113.47L825.65 115.23Q825.38 115.11 825.11 115.08Q824.84 115.05 824.56 115.05Q823.58 115.05 822.87 115.94Q822.15 116.83 822.15 118.69L822.15 122M830.77 122.14Q829.48 122.14 828.50 121.57Q827.52 121 826.98 120Q826.43 119.01 826.43 117.72Q826.43 116.42 826.98 115.43Q827.52 114.44 828.49 113.87Q829.46 113.30 830.70 113.30Q832.06 113.30 833.03 113.93Q834 114.57 834.46 115.65Q834.92 116.73 834.75 118.06L828.30 118.06Q828.41 119.19 829.06 119.88Q829.72 120.57 830.77 120.57Q831.57 120.57 832.18 120.16Q832.79 119.74 832.95 119.11L834.68 119.57Q834.36 120.71 833.29 121.42Q832.23 122.14 830.77 122.14M828.41 116.64L832.83 116.64Q832.81 115.80 832.22 115.29Q831.64 114.79 830.70 114.79Q829.83 114.79 829.23 115.28Q828.63 115.76 828.41 116.64M839.36 122.14Q838.37 122.14 837.60 121.80Q836.84 121.46 836.35 120.87Q835.87 120.28 835.70 119.59L837.31 119.06Q837.49 119.81 838 120.22Q838.52 120.64 839.36 120.64Q840.03 120.64 840.45 120.34Q840.87 120.05 840.87 119.52Q840.87 119.06 840.53 118.81Q840.19 118.57 839.64 118.41Q839.10 118.26 838.49 118.10Q837.88 117.94 837.33 117.67Q836.79 117.41 836.45 116.93Q836.11 116.46 836.11 115.66Q836.11 115 836.48 114.46Q836.86 113.92 837.53 113.61Q838.20 113.30 839.10 113.30Q840.39 113.30 841.31 113.87Q842.23 114.45 842.50 115.40L840.90 116Q840.71 115.30 840.22 115.02Q839.73 114.74 839.10 114.74Q838.57 114.74 838.22 114.96Q837.86 115.18 837.86 115.61Q837.86 116.03 838.21 116.25Q838.56 116.46 839.10 116.59Q839.64 116.73 840.26 116.88Q840.87 117.04 841.41 117.32Q841.96 117.60 842.30 118.10Q842.65 118.60 842.65 119.47Q842.65 120.25 842.23 120.85Q841.80 121.46 841.05 121.80Q840.31 122.14 839.36 122.14M847.60 122.14Q846.39 122.14 845.59 121.41Q844.78 120.67 844.78 119.28L844.78 114.96L843.37 114.96L843.37 113.43L844.78 113.43L844.78 111.31L846.65 111.31L846.65 113.43L848.72 113.43L848.72 114.96L846.65 114.96L846.65 119.13Q846.65 119.81 846.97 120.16Q847.29 120.50 847.84 120.50Q848.08 120.50 848.29 120.45Q848.50 120.40 848.72 120.33L848.86 121.92Q848.59 122.03 848.25 122.08Q847.92 122.14 847.60 122.14M858.46 122.14Q857.58 122.14 856.81 121.76Q856.05 121.39 855.68 120.79L855.68 122L853.81 122L853.81 109.96L855.68 109.96L855.68 114.62Q856.05 114.03 856.81 113.66Q857.58 113.30 858.46 113.30Q859.74 113.30 860.68 113.85Q861.63 114.40 862.14 115.39Q862.66 116.37 862.66 117.72Q862.66 119.04 862.14 120.04Q861.63 121.03 860.68 121.58Q859.74 122.14 858.46 122.14M858.23 120.54Q858.97 120.54 859.54 120.18Q860.11 119.82 860.44 119.19Q860.77 118.55 860.77 117.72Q860.77 116.46 860.05 115.68Q859.33 114.89 858.23 114.89Q857.10 114.89 856.39 115.68Q855.68 116.46 855.68 117.72Q855.68 118.53 856 119.17Q856.32 119.81 856.90 120.17Q857.48 120.54 858.23 120.54M866.84 122.14Q865.47 122.14 864.66 121.42Q863.85 120.71 863.85 119.65Q863.85 118.38 864.76 117.69Q865.67 117 867.66 116.78L869.41 116.61L869.41 116.39Q869.41 115.64 868.91 115.22Q868.41 114.79 867.59 114.79Q866.81 114.79 866.33 115.18Q865.84 115.57 865.74 116.37L863.95 116.10Q864.18 114.84 865.16 114.07Q866.15 113.30 867.59 113.30Q868.66 113.30 869.50 113.69Q870.33 114.08 870.80 114.82Q871.26 115.56 871.26 116.61L871.26 122L869.41 122L869.41 120.76Q869.14 121.34 868.43 121.74Q867.71 122.14 866.84 122.14M869.41 118.23L869.41 117.99L867.75 118.19Q866.67 118.31 866.19 118.62Q865.71 118.92 865.71 119.57Q865.71 120.11 866.10 120.41Q866.49 120.71 867.15 120.71Q867.83 120.71 868.33 120.37Q868.83 120.03 869.12 119.47Q869.41 118.91 869.41 118.23M877.04 122.14Q875.79 122.14 874.81 121.56Q873.83 120.98 873.28 119.98Q872.73 118.97 872.73 117.70Q872.73 116.42 873.28 115.43Q873.83 114.44 874.81 113.87Q875.79 113.30 877.04 113.30Q878.61 113.30 879.71 114.09Q880.82 114.89 881.04 116.31L879.17 116.58Q879.03 115.78 878.47 115.34Q877.91 114.89 877.04 114.89Q876.36 114.89 875.81 115.25Q875.26 115.61 874.94 116.24Q874.61 116.87 874.61 117.70Q874.61 118.53 874.94 119.17Q875.26 119.81 875.81 120.17Q876.36 120.54 877.04 120.54Q877.95 120.54 878.51 120.08Q879.08 119.62 879.20 118.87L881.12 119.11Q881 119.99 880.45 120.68Q879.90 121.37 879.02 121.75Q878.15 122.14 877.04 122.14M884.44 122L882.59 122L882.59 109.96L884.44 109.96L884.44 116.68L887.99 113.43L890.47 113.43L887.01 116.70L890.76 122L888.52 122L885.65 117.99L884.44 119.13L884.44 122M896.54 118.14L891.27 118.14L891.27 116.58L896.54 116.58L896.54 118.14M902.12 122.14Q900.83 122.14 899.85 121.57Q898.87 121 898.33 120Q897.78 119.01 897.78 117.72Q897.78 116.42 898.33 115.43Q898.87 114.44 899.84 113.87Q900.81 113.30 902.05 113.30Q903.41 113.30 904.38 113.93Q905.35 114.57 905.81 115.65Q906.27 116.73 906.10 118.06L899.65 118.06Q899.76 119.19 900.41 119.88Q901.07 120.57 902.12 120.57Q902.92 120.57 903.53 120.16Q904.14 119.74 904.29 119.11L906.03 119.57Q905.71 120.71 904.64 121.42Q903.58 122.14 902.12 122.14M899.76 116.64L904.18 116.64Q904.16 115.80 903.57 115.29Q902.99 114.79 902.05 114.79Q901.18 114.79 900.58 115.28Q899.98 115.76 899.76 116.64M909.58 122L907.73 122L907.73 113.43L909.58 113.43L909.58 114.71Q909.96 114.15 910.70 113.72Q911.45 113.30 912.47 113.30Q913.39 113.30 914.11 113.67Q914.84 114.04 915.24 114.75Q915.65 115.45 915.65 116.44L915.65 122L913.80 122L913.80 116.85Q913.80 115.93 913.31 115.43Q912.81 114.93 912 114.93Q910.87 114.93 910.23 115.83Q909.58 116.73 909.58 118.29L909.58 122M921.36 122.14Q920.09 122.14 919.14 121.58Q918.20 121.03 917.68 120.04Q917.16 119.04 917.16 117.72Q917.16 116.37 917.68 115.39Q918.20 114.40 919.14 113.85Q920.09 113.30 921.36 113.30Q922.26 113.30 923.02 113.66Q923.78 114.03 924.13 114.62L924.13 109.96L926.02 109.96L926.02 122L924.13 122L924.13 120.79Q923.78 121.39 923.01 121.76Q922.25 122.14 921.36 122.14M921.60 120.54Q922.72 120.54 923.43 119.75Q924.13 118.96 924.13 117.72Q924.13 116.46 923.43 115.68Q922.72 114.89 921.60 114.89Q920.48 114.89 919.77 115.68Q919.05 116.46 919.05 117.72Q919.05 118.96 919.77 119.75Q920.48 120.54 921.60 120.54" fill="#f6f5ee"/>
    <path d="M778.66 154.18L777.60 154.18L778.48 152L776.13 145.95L777.24 145.95L779.01 150.67L780.79 145.95L781.87 145.95L778.66 154.18M785.48 152.10Q784.59 152.10 783.90 151.69Q783.21 151.29 782.82 150.59Q782.42 149.89 782.42 148.98Q782.42 148.06 782.82 147.36Q783.21 146.66 783.90 146.26Q784.59 145.86 785.48 145.86Q786.37 145.86 787.06 146.26Q787.75 146.66 788.14 147.36Q788.54 148.06 788.54 148.98Q788.54 149.89 788.14 150.59Q787.75 151.29 787.06 151.69Q786.37 152.10 785.48 152.10M785.48 151.20Q786.07 151.20 786.52 150.91Q786.98 150.63 787.24 150.13Q787.50 149.62 787.50 148.98Q787.50 148.32 787.24 147.81Q786.98 147.31 786.52 147.03Q786.07 146.74 785.48 146.74Q784.89 146.74 784.44 147.03Q783.98 147.31 783.72 147.81Q783.46 148.32 783.46 148.98Q783.46 149.62 783.72 150.13Q783.98 150.63 784.44 150.91Q784.89 151.20 785.48 151.20M791.96 152.10Q791.32 152.10 790.81 151.84Q790.30 151.58 790.01 151.10Q789.72 150.62 789.72 149.92L789.72 145.95L790.75 145.95L790.75 149.68Q790.75 150.42 791.13 150.81Q791.52 151.20 792.15 151.20Q793.05 151.20 793.58 150.48Q794.11 149.76 794.11 148.54L794.11 145.95L795.13 145.95L795.13 152L794.11 152L794.11 150.96Q793.82 151.42 793.27 151.76Q792.72 152.10 791.96 152.10M797.78 152L796.76 152L796.76 145.95L797.78 145.95L797.78 147.02Q798.06 146.44 798.57 146.15Q799.08 145.86 799.66 145.86Q799.86 145.86 800.06 145.89Q800.26 145.92 800.41 145.99L800.34 146.96Q800.13 146.86 799.94 146.85Q799.75 146.83 799.56 146.83Q798.80 146.83 798.29 147.54Q797.78 148.24 797.78 149.58L797.78 152M804.99 152L803.96 152L803.96 145.95L804.99 145.95L804.99 152M804.48 144.90Q804.16 144.90 803.95 144.69Q803.74 144.49 803.74 144.18Q803.74 143.86 803.95 143.66Q804.16 143.46 804.48 143.46Q804.80 143.46 805.01 143.66Q805.22 143.86 805.22 144.18Q805.22 144.49 805.01 144.69Q804.80 144.90 804.48 144.90M807.63 152L806.61 152L806.61 145.95L807.63 145.95L807.63 147Q807.91 146.53 808.47 146.19Q809.02 145.86 809.78 145.86Q810.42 145.86 810.92 146.11Q811.42 146.37 811.72 146.86Q812.01 147.34 812.01 148.04L812.01 152L810.99 152L810.99 148.27Q810.99 147.54 810.61 147.15Q810.22 146.76 809.58 146.76Q808.69 146.76 808.16 147.48Q807.63 148.20 807.63 149.41L807.63 152M815 152L813.97 152L813.97 146.80L812.95 146.80L812.95 145.95L813.97 145.95L813.97 145.26Q813.97 144.30 814.48 143.82Q814.99 143.34 815.77 143.34Q816 143.34 816.22 143.38Q816.44 143.42 816.61 143.48L816.52 144.38Q816.37 144.30 816.21 144.27Q816.04 144.24 815.89 144.24Q815.48 144.24 815.24 144.51Q815 144.78 815 145.30L815 145.95L816.54 145.95L816.54 146.80L815 146.80L815 152M818.52 152L817.50 152L817.50 145.95L818.52 145.95L818.52 147.02Q818.79 146.44 819.30 146.15Q819.81 145.86 820.40 145.86Q820.59 145.86 820.80 145.89QNaN 145.92 821.14 145.99L821.07 146.96Q820.87 146.86 820.68 146.85Q820.48 146.83 820.29 146.83Q819.54 146.83 819.03 147.54Q818.52 148.24 818.52 149.58L818.52 152M823.88 152.10Q822.88 152.10 822.31 151.61Q821.74 151.12 821.74 150.37Q821.74 149.46 822.40 148.98Q823.06 148.50 824.50 148.35L825.80 148.22L825.80 148Q825.80 147.40 825.40 147.07Q825 146.73 824.34 146.73Q823.71 146.73 823.32 147.05Q822.92 147.37 822.82 148L821.85 147.84Q822 146.97 822.65 146.41Q823.30 145.86 824.34 145.86Q825.07 145.86 825.63 146.13Q826.18 146.40 826.51 146.90Q826.83 147.40 826.83 148.11L826.83 152L825.80 152L825.80 150.99Q825.68 151.28 825.39 151.53Q825.10 151.78 824.71 151.94Q824.31 152.10 823.88 152.10M825.80 149.30L825.80 149.01L824.56 149.16Q823.62 149.26 823.20 149.52Q822.78 149.78 822.78 150.33Q822.78 150.78 823.10 151.02Q823.42 151.27 823.96 151.27Q824.50 151.27 824.92 151Q825.33 150.73 825.57 150.28Q825.80 149.83 825.80 149.30M830.35 152.10Q829.33 152.10 828.68 151.59Q828.03 151.08 827.84 150.31L828.78 150.01Q828.91 150.60 829.30 150.91Q829.69 151.22 830.35 151.22Q830.91 151.22 831.25 150.98Q831.60 150.74 831.60 150.27Q831.60 149.90 831.34 149.70Q831.09 149.50 830.70 149.38Q830.30 149.26 829.86 149.16Q829.42 149.05 829.03 148.87Q828.63 148.69 828.38 148.36Q828.13 148.04 828.13 147.49Q828.13 147.02 828.39 146.65Q828.64 146.29 829.11 146.07Q829.58 145.86 830.18 145.86Q831.07 145.86 831.70 146.26Q832.33 146.66 832.52 147.36L831.58 147.69Q831.44 147.16 831.07 146.95Q830.71 146.73 830.18 146.73Q829.74 146.73 829.44 146.91Q829.14 147.09 829.14 147.45Q829.14 147.79 829.39 147.96Q829.64 148.14 830.04 148.24Q830.43 148.34 830.88 148.45Q831.33 148.56 831.73 148.75Q832.12 148.94 832.38 149.29Q832.63 149.65 832.63 150.25Q832.63 150.79 832.33 151.21Q832.03 151.63 831.52 151.86Q831.01 152.10 830.35 152.10M835.99 152.10Q835.21 152.10 834.70 151.62Q834.19 151.14 834.19 150.21L834.19 146.80L833.17 146.80L833.17 145.95L834.19 145.95L834.19 144.42L835.22 144.42L835.22 145.95L836.76 145.95L836.76 146.80L835.22 146.80L835.22 150.13Q835.22 150.66 835.46 150.92Q835.70 151.18 836.11 151.18Q836.42 151.18 836.74 151.06L836.83 151.94Q836.66 152.02 836.43 152.06Q836.19 152.10 835.99 152.10M838.86 152L837.84 152L837.84 145.95L838.86 145.95L838.86 147.02Q839.13 146.44 839.64 146.15Q840.15 145.86 840.74 145.86Q840.93 145.86 841.14 145.89Q841.34 145.92 841.48 145.99L841.41 146.96Q841.21 146.86 841.02 146.85Q840.82 146.83 840.63 146.83Q839.88 146.83 839.37 147.54Q838.86 148.24 838.86 149.58L838.86 152M844.56 152.10Q843.92 152.10 843.41 151.84Q842.90 151.58 842.61 151.10Q842.31 150.62 842.31 149.92L842.31 145.95L843.34 145.95L843.34 149.68Q843.34 150.42 843.73 150.81Q844.11 151.20 844.75 151.20Q845.65 151.20 846.18 150.48Q846.70 149.76 846.70 148.54L846.70 145.95L847.72 145.95L847.72 152L846.70 152L846.70 150.96Q846.42 151.42 845.86 151.76Q845.31 152.10 844.56 152.10M851.96 152.10Q851.10 152.10 850.42 151.69Q849.75 151.28 849.36 150.57Q848.97 149.86 848.97 148.98Q848.97 148.08 849.36 147.37Q849.75 146.66 850.42 146.26Q851.10 145.86 851.96 145.86Q853.03 145.86 853.78 146.40Q854.53 146.95 854.68 147.88L853.66 148.04Q853.54 147.44 853.09 147.09Q852.64 146.74 851.96 146.74Q851.41 146.74 850.97 147.03Q850.53 147.32 850.27 147.82Q850.02 148.32 850.02 148.98Q850.02 149.62 850.27 150.12Q850.53 150.62 850.97 150.91Q851.41 151.20 851.96 151.20Q852.68 151.20 853.15 150.84Q853.62 150.49 853.70 149.90L854.74 150.02Q854.66 150.63 854.28 151.10Q853.90 151.57 853.31 151.83Q852.72 152.10 851.96 152.10M858.06 152.10Q857.28 152.10 856.77 151.62Q856.26 151.14 856.26 150.21L856.26 146.80L855.24 146.80L855.24 145.95L856.26 145.95L856.26 144.42L857.29 144.42L857.29 145.95L858.82 145.95L858.82 146.80L857.29 146.80L857.29 150.13Q857.29 150.66 857.53 150.92Q857.77 151.18 858.18 151.18Q858.49 151.18 858.81 151.06L858.90 151.94Q858.73 152.02 858.49 152.06Q858.26 152.10 858.06 152.10M862.08 152.10Q861.44 152.10 860.93 151.84Q860.42 151.58 860.13 151.10Q859.83 150.62 859.83 149.92L859.83 145.95L860.86 145.95L860.86 149.68Q860.86 150.42 861.25 150.81Q861.63 151.20 862.27 151.20Q863.17 151.20 863.70 150.48Q864.22 149.76 864.22 148.54L864.22 145.95L865.24 145.95L865.24 152L864.22 152L864.22 150.96Q863.94 151.42 863.38 151.76Q862.83 152.10 862.08 152.10M867.90 152L866.88 152L866.88 145.95L867.90 145.95L867.90 147.02Q868.17 146.44 868.68 146.15Q869.19 145.86 869.78 145.86Q869.97 145.86 870.18 145.89Q870.38 145.92 870.52 145.99L870.45 146.96Q870.25 146.86 870.06 146.85Q869.86 146.83 869.67 146.83Q868.92 146.83 868.41 147.54Q867.90 148.24 867.90 149.58L867.90 152M874.04 152.10Q873.15 152.10 872.47 151.69Q871.80 151.29 871.42 150.59Q871.04 149.89 871.04 148.98Q871.04 148.06 871.42 147.36Q871.81 146.66 872.47 146.26Q873.14 145.86 874 145.86Q874.93 145.86 875.59 146.29Q876.25 146.73 876.57 147.46Q876.90 148.20 876.78 149.11L872.08 149.11Q872.13 150.04 872.66 150.63Q873.19 151.21 874.04 151.21Q874.69 151.21 875.18 150.86Q875.67 150.51 875.79 150.02L876.73 150.26Q876.52 151.08 875.79 151.59Q875.06 152.10 874.04 152.10M872.16 148.29L875.73 148.29Q875.72 147.57 875.24 147.15Q874.76 146.73 874 146.73Q873.30 146.73 872.80 147.15Q872.31 147.56 872.16 148.29" fill="#d0ee89"/>
  

  <!-- blocked (greyed, no red, no border, no emoji) -->
  
    <rect x="756" y="280" width="160" height="54" rx="2" fill="#d9d9d9"/>
    <path d="M813.42 312.12Q812.64 312.12 811.96 311.79Q811.29 311.46 810.96 310.94L810.96 312L809.31 312L809.31 301.38L810.96 301.38L810.96 305.49Q811.29 304.96 811.96 304.64Q812.64 304.32 813.42 304.32Q814.54 304.32 815.38 304.81Q816.21 305.30 816.67 306.17Q817.12 307.04 817.12 308.22Q817.12 309.39 816.67 310.27Q816.21 311.14 815.38 311.63Q814.54 312.12 813.42 312.12M813.21 310.71Q813.87 310.71 814.37 310.39Q814.87 310.08 815.17 309.52Q815.46 308.95 815.46 308.22Q815.46 307.11 814.82 306.42Q814.18 305.73 813.21 305.73Q812.22 305.73 811.59 306.42Q810.96 307.11 810.96 308.22Q810.96 308.94 811.24 309.50Q811.53 310.06 812.04 310.39Q812.55 310.71 813.21 310.71M820.15 312L818.52 312L818.52 301.38L820.15 301.38L820.15 312M825.45 312.12Q824.32 312.12 823.44 311.62Q822.55 311.12 822.05 310.23Q821.55 309.35 821.55 308.20Q821.55 307.06 822.05 306.19Q822.55 305.31 823.44 304.81Q824.32 304.32 825.45 304.32Q826.59 304.32 827.47 304.81Q828.34 305.31 828.85 306.19Q829.35 307.06 829.35 308.20Q829.35 309.35 828.85 310.23Q828.34 311.12 827.47 311.62Q826.59 312.12 825.45 312.12M825.45 310.71Q826.44 310.71 827.06 310.01Q827.68 309.31 827.68 308.20Q827.68 307.11 827.06 306.42Q826.44 305.73 825.45 305.73Q824.47 305.73 823.84 306.41Q823.21 307.10 823.21 308.20Q823.21 309.31 823.84 310.01Q824.47 310.71 825.45 310.71M834.12 312.12Q833.01 312.12 832.15 311.61Q831.28 311.10 830.80 310.21Q830.31 309.33 830.31 308.20Q830.31 307.08 830.80 306.20Q831.28 305.32 832.15 304.82Q833.01 304.32 834.12 304.32Q835.50 304.32 836.47 305.02Q837.45 305.73 837.64 306.98L835.99 307.21Q835.87 306.51 835.38 306.12Q834.88 305.73 834.12 305.73Q833.52 305.73 833.03 306.05Q832.54 306.36 832.26 306.92Q831.97 307.47 831.97 308.20Q831.97 308.94 832.26 309.50Q832.54 310.06 833.03 310.39Q833.52 310.71 834.12 310.71Q834.91 310.71 835.42 310.31Q835.92 309.90 836.02 309.24L837.72 309.45Q837.61 310.23 837.13 310.84Q836.64 311.44 835.87 311.78Q835.09 312.12 834.12 312.12M840.64 312L839.01 312L839.01 301.38L840.64 301.38L840.64 307.31L843.78 304.44L845.97 304.44L842.91 307.32L846.22 312L844.24 312L841.71 308.46L840.64 309.46L840.64 312M850.36 312.12Q849.22 312.12 848.36 311.62Q847.50 311.12 847.02 310.24Q846.54 309.36 846.54 308.22Q846.54 307.08 847.02 306.20Q847.50 305.32 848.35 304.82Q849.21 304.32 850.30 304.32Q851.50 304.32 852.36 304.88Q853.21 305.44 853.62 306.40Q854.02 307.35 853.87 308.52L848.19 308.52Q848.28 309.52 848.86 310.13Q849.43 310.74 850.36 310.74Q851.07 310.74 851.61 310.37Q852.15 310 852.28 309.45L853.81 309.86Q853.53 310.86 852.59 311.49Q851.65 312.12 850.36 312.12M848.28 307.27L852.18 307.27Q852.16 306.52 851.65 306.08Q851.13 305.64 850.30 305.64Q849.54 305.64 849.01 306.07Q848.47 306.50 848.28 307.27M858.60 312.12Q857.47 312.12 856.64 311.63Q855.81 311.14 855.35 310.27Q854.89 309.39 854.89 308.22Q854.89 307.04 855.35 306.17Q855.81 305.30 856.64 304.81Q857.47 304.32 858.60 304.32Q859.39 304.32 860.06 304.64Q860.73 304.96 861.04 305.49L861.04 301.38L862.71 301.38L862.71 312L861.04 312L861.04 310.94Q860.73 311.46 860.05 311.79Q859.38 312.12 858.60 312.12M858.81 310.71Q859.80 310.71 860.42 310.01Q861.04 309.31 861.04 308.22Q861.04 307.11 860.42 306.42Q859.80 305.73 858.81 305.73Q857.82 305.73 857.19 306.42Q856.56 307.11 856.56 308.22Q856.56 309.31 857.19 310.01Q857.82 310.71 858.81 310.71" fill="#686c62"/>
  

  <!-- your data -->
  
    <rect x="1030" y="88" width="140" height="74" rx="2" fill="#ffffff"/>
    <rect x="1030" y="88" width="140" height="20" rx="2" fill="#efede7"/>
    <path d="M1073.20 140.55L1071.59 140.55L1072.70 137.90L1069.94 130.94L1071.59 130.94L1073.50 135.94L1075.39 130.94L1077 130.94L1073.20 140.55M1081.16 138.11Q1080.11 138.11 1079.28 137.64Q1078.45 137.17 1077.98 136.35Q1077.52 135.52 1077.52 134.46Q1077.52 133.39 1077.98 132.57Q1078.45 131.76 1079.28 131.29Q1080.11 130.83 1081.16 130.83Q1082.22 130.83 1083.04 131.29Q1083.86 131.76 1084.33 132.57Q1084.80 133.39 1084.80 134.46Q1084.80 135.52 1084.33 136.35Q1083.86 137.17 1083.04 137.64Q1082.22 138.11 1081.16 138.11M1081.16 136.80Q1082.08 136.80 1082.66 136.15Q1083.24 135.49 1083.24 134.46Q1083.24 133.44 1082.66 132.79Q1082.08 132.15 1081.16 132.15Q1080.25 132.15 1079.66 132.78Q1079.07 133.42 1079.07 134.46Q1079.07 135.49 1079.66 136.15Q1080.25 136.80 1081.16 136.80M1088.63 138.11Q1087.88 138.11 1087.29 137.80Q1086.70 137.50 1086.36 136.92Q1086.01 136.35 1086.01 135.56L1086.01 130.94L1087.55 130.94L1087.55 135.17Q1087.55 135.93 1087.95 136.35Q1088.35 136.77 1089.04 136.77Q1089.95 136.77 1090.49 136.02Q1091.03 135.27 1091.03 133.98L1091.03 130.94L1092.55 130.94L1092.55 138L1091.03 138L1091.03 136.95Q1090.72 137.41 1090.10 137.76Q1089.49 138.11 1088.63 138.11M1095.79 138L1094.26 138L1094.26 130.94L1095.79 130.94L1095.79 132.02Q1096.09 131.45 1096.66 131.14Q1097.23 130.83 1097.91 130.83Q1098.14 130.83 1098.38 130.87Q1098.61 130.90 1098.78 130.97L1098.67 132.43Q1098.45 132.33 1098.22 132.30Q1098 132.27 1097.77 132.27Q1096.96 132.27 1096.37 133.01Q1095.79 133.74 1095.79 135.27L1095.79 138M1105.78 138.11Q1104.73 138.11 1103.96 137.66Q1103.18 137.20 1102.75 136.38Q1102.32 135.56 1102.32 134.47Q1102.32 133.37 1102.75 132.55Q1103.18 131.74 1103.96 131.29Q1104.73 130.83 1105.78 130.83Q1106.52 130.83 1107.15 131.13Q1107.77 131.43 1108.06 131.92L1108.06 128.09L1109.62 128.09L1109.62 138L1108.06 138L1108.06 137.01Q1107.77 137.50 1107.14 137.80Q1106.51 138.11 1105.78 138.11M1105.98 136.80Q1106.90 136.80 1107.48 136.15Q1108.06 135.49 1108.06 134.47Q1108.06 133.44 1107.48 132.79Q1106.90 132.15 1105.98 132.15Q1105.05 132.15 1104.47 132.79Q1103.88 133.44 1103.88 134.47Q1103.88 135.49 1104.47 136.15Q1105.05 136.80 1105.98 136.80M1113.45 138.11Q1112.32 138.11 1111.65 137.52Q1110.99 136.94 1110.99 136.07Q1110.99 135.02 1111.74 134.45Q1112.49 133.88 1114.13 133.70L1115.57 133.56L1115.57 133.38Q1115.57 132.76 1115.15 132.41Q1114.74 132.06 1114.07 132.06Q1113.43 132.06 1113.03 132.39Q1112.63 132.71 1112.54 133.37L1111.07 133.14Q1111.26 132.11 1112.07 131.47Q1112.88 130.83 1114.07 130.83Q1114.95 130.83 1115.64 131.15Q1116.32 131.48 1116.71 132.09Q1117.09 132.69 1117.09 133.56L1117.09 138L1115.57 138L1115.57 136.98Q1115.34 137.45 1114.76 137.78Q1114.17 138.11 1113.45 138.11M1115.57 134.89L1115.57 134.70L1114.20 134.86Q1113.31 134.96 1112.92 135.21Q1112.52 135.47 1112.52 136Q1112.52 136.45 1112.84 136.69Q1113.16 136.94 1113.71 136.94Q1114.27 136.94 1114.68 136.66Q1115.09 136.38 1115.33 135.91Q1115.57 135.45 1115.57 134.89M1121.49 138.11Q1120.50 138.11 1119.83 137.51Q1119.17 136.91 1119.17 135.76L1119.17 132.20L1118 132.20L1118 130.94L1119.17 130.94L1119.17 129.19L1120.71 129.19L1120.71 130.94L1122.41 130.94L1122.41 132.20L1120.71 132.20L1120.71 135.63Q1120.71 136.19 1120.97 136.48Q1121.24 136.77 1121.69 136.77Q1121.88 136.77 1122.06 136.73Q1122.23 136.68 1122.41 136.63L1122.53 137.93Q1122.30 138.03 1122.03 138.07Q1121.76 138.11 1121.49 138.11M1125.75 138.11Q1124.61 138.11 1123.95 137.52Q1123.28 136.94 1123.28 136.07Q1123.28 135.02 1124.03 134.45Q1124.78 133.88 1126.42 133.70L1127.86 133.56L1127.86 133.38Q1127.86 132.76 1127.45 132.41Q1127.03 132.06 1126.36 132.06Q1125.72 132.06 1125.32 132.39Q1124.92 132.71 1124.84 133.37L1123.37 133.14Q1123.55 132.11 1124.36 131.47Q1125.17 130.83 1126.36 130.83Q1127.24 130.83 1127.93 131.15Q1128.62 131.48 1129 132.09Q1129.39 132.69 1129.39 133.56L1129.39 138L1127.86 138L1127.86 136.98Q1127.64 137.45 1127.05 137.78Q1126.46 138.11 1125.75 138.11M1127.86 134.89L1127.86 134.70L1126.49 134.86Q1125.61 134.96 1125.21 135.21Q1124.81 135.47 1124.81 136Q1124.81 136.45 1125.13 136.69Q1125.45 136.94 1126 136.94Q1126.56 136.94 1126.97 136.66Q1127.38 136.38 1127.62 135.91Q1127.86 135.45 1127.86 134.89" fill="#262d1e"/>
  

  <!-- audit log -->
  
    <rect x="1030" y="200" width="160" height="58" rx="2" fill="#e9e6df"/>
    <rect x="1030" y="200" width="6" height="58" fill="#3f5b1e"/>
    <path d="M1055 226.11Q1053.86 226.11 1053.20 225.52Q1052.53 224.94 1052.53 224.07Q1052.53 223.02 1053.28 222.45Q1054.03 221.88 1055.67 221.70L1057.11 221.56L1057.11 221.38Q1057.11 220.76 1056.70 220.41Q1056.28 220.06 1055.61 220.06Q1054.97 220.06 1054.57 220.39Q1054.17 220.71 1054.09 221.37L1052.62 221.14Q1052.80 220.11 1053.61 219.47Q1054.42 218.83 1055.61 218.83Q1056.49 218.83 1057.18 219.15Q1057.87 219.48 1058.25 220.09Q1058.64 220.69 1058.64 221.56L1058.64 226L1057.11 226L1057.11 224.98Q1056.89 225.45 1056.30 225.78Q1055.71 226.11 1055 226.11M1057.11 222.89L1057.11 222.70L1055.74 222.86Q1054.86 222.96 1054.46 223.21Q1054.06 223.47 1054.06 224Q1054.06 224.45 1054.38 224.69Q1054.70 224.94 1055.25 224.94Q1055.81 224.94 1056.22 224.66Q1056.63 224.38 1056.87 223.91Q1057.11 223.45 1057.11 222.89M1062.78 226.11Q1062.02 226.11 1061.44 225.80Q1060.85 225.50 1060.51 224.92Q1060.16 224.35 1060.16 223.56L1060.16 218.94L1061.70 218.94L1061.70 223.17Q1061.70 223.93 1062.10 224.35Q1062.50 224.77 1063.19 224.77Q1064.10 224.77 1064.63 224.02Q1065.17 223.27 1065.17 221.98L1065.17 218.94L1066.70 218.94L1066.70 226L1065.17 226L1065.17 224.95Q1064.87 225.41 1064.25 225.76Q1063.63 226.11 1062.78 226.11M1071.47 226.11Q1070.42 226.11 1069.65 225.66Q1068.87 225.20 1068.44 224.38Q1068.02 223.56 1068.02 222.47Q1068.02 221.37 1068.44 220.55Q1068.87 219.74 1069.65 219.29Q1070.42 218.83 1071.47 218.83Q1072.22 218.83 1072.84 219.13Q1073.46 219.43 1073.76 219.92L1073.76 216.09L1075.31 216.09L1075.31 226L1073.76 226L1073.76 225.01Q1073.46 225.50 1072.83 225.80Q1072.20 226.11 1071.47 226.11M1071.67 224.80Q1072.59 224.80 1073.18 224.15Q1073.76 223.49 1073.76 222.47Q1073.76 221.44 1073.18 220.79Q1072.59 220.15 1071.67 220.15Q1070.75 220.15 1070.16 220.79Q1069.57 221.44 1069.57 222.47Q1069.57 223.49 1070.16 224.15Q1070.75 224.80 1071.67 224.80M1078.53 226L1077 226L1077 218.94L1078.53 218.94L1078.53 226M1077.77 217.88Q1077.34 217.88 1077.05 217.60Q1076.75 217.32 1076.75 216.89Q1076.75 216.45 1077.05 216.17Q1077.34 215.89 1077.77 215.89Q1078.22 215.89 1078.52 216.17Q1078.81 216.45 1078.81 216.89Q1078.81 217.32 1078.52 217.60Q1078.22 217.88 1077.77 217.88M1083.02 226.11Q1082.03 226.11 1081.37 225.51Q1080.70 224.91 1080.70 223.76L1080.70 220.20L1079.54 220.20L1079.54 218.94L1080.70 218.94L1080.70 217.19L1082.24 217.19L1082.24 218.94L1083.95 218.94L1083.95 220.20L1082.24 220.20L1082.24 223.63Q1082.24 224.19 1082.51 224.48Q1082.77 224.77 1083.22 224.77Q1083.42 224.77 1083.59 224.73Q1083.77 224.68 1083.95 224.63L1084.06 225.93Q1083.84 226.03 1083.56 226.07Q1083.29 226.11 1083.02 226.11M1089.66 226L1088.13 226L1088.13 216.09L1089.66 216.09L1089.66 226M1094.60 226.11Q1093.55 226.11 1092.73 225.64Q1091.90 225.17 1091.43 224.35Q1090.96 223.52 1090.96 222.46Q1090.96 221.39 1091.43 220.57Q1091.90 219.76 1092.73 219.29Q1093.55 218.83 1094.60 218.83Q1095.67 218.83 1096.49 219.29Q1097.30 219.76 1097.77 220.57Q1098.24 221.39 1098.24 222.46Q1098.24 223.52 1097.77 224.35Q1097.30 225.17 1096.49 225.64Q1095.67 226.11 1094.60 226.11M1094.60 224.80Q1095.53 224.80 1096.11 224.15Q1096.69 223.49 1096.69 222.46Q1096.69 221.44 1096.11 220.79Q1095.53 220.15 1094.60 220.15Q1093.69 220.15 1093.10 220.78Q1092.52 221.42 1092.52 222.46Q1092.52 223.49 1093.10 224.15Q1093.69 224.80 1094.60 224.80M1102.67 228.66Q1101.84 228.66 1101.15 228.39Q1100.45 228.13 1100 227.65Q1099.54 227.18 1099.42 226.57L1100.90 226.28Q1101.04 226.83 1101.53 227.13Q1102.01 227.43 1102.69 227.43Q1103.56 227.43 1104.12 226.99Q1104.68 226.55 1104.68 225.69L1104.68 224.67Q1104.39 225.12 1103.78 225.39Q1103.17 225.66 1102.44 225.66Q1101.49 225.66 1100.75 225.24Q1100.01 224.81 1099.59 224.04Q1099.17 223.27 1099.17 222.25Q1099.17 221.20 1099.59 220.44Q1100.01 219.67 1100.75 219.25Q1101.49 218.83 1102.47 218.83Q1103.20 218.83 1103.79 219.10Q1104.37 219.36 1104.68 219.81L1104.68 218.94L1106.22 218.94L1106.22 225.54Q1106.22 226.53 1105.77 227.23Q1105.33 227.93 1104.53 228.30Q1103.73 228.66 1102.67 228.66M1102.71 224.35Q1103.56 224.35 1104.12 223.76Q1104.68 223.17 1104.68 222.25Q1104.68 221.31 1104.12 220.73Q1103.56 220.15 1102.71 220.15Q1101.84 220.15 1101.28 220.73Q1100.72 221.31 1100.72 222.25Q1100.72 223.19 1101.28 223.77Q1101.84 224.35 1102.71 224.35" fill="#262d1e"/>
    <path d="M1055.15 244.09Q1054.33 244.09 1053.71 243.72Q1053.09 243.35 1052.74 242.71Q1052.40 242.06 1052.40 241.23Q1052.40 240.39 1052.75 239.75Q1053.10 239.10 1053.71 238.74Q1054.32 238.37 1055.11 238.37Q1055.96 238.37 1056.57 238.77Q1057.17 239.17 1057.47 239.84Q1057.76 240.51 1057.65 241.35L1053.35 241.35Q1053.40 242.21 1053.88 242.74Q1054.37 243.27 1055.15 243.27Q1055.74 243.27 1056.19 242.96Q1056.64 242.64 1056.75 242.19L1057.61 242.41Q1057.42 243.15 1056.75 243.62Q1056.08 244.09 1055.15 244.09M1053.42 240.60L1056.70 240.60Q1056.69 239.94 1056.25 239.56Q1055.81 239.17 1055.11 239.17Q1054.46 239.17 1054.01 239.55Q1053.56 239.93 1053.42 240.60M1061.31 244L1060.37 244L1058.19 238.46L1059.22 238.46L1060.86 242.79L1062.51 238.46L1063.48 238.46L1061.31 244M1066.74 244.09Q1065.93 244.09 1065.30 243.72Q1064.68 243.35 1064.34 242.71Q1063.99 242.06 1063.99 241.23Q1063.99 240.39 1064.34 239.75Q1064.69 239.10 1065.30 238.74Q1065.91 238.37 1066.71 238.37Q1067.55 238.37 1068.16 238.77Q1068.76 239.17 1069.06 239.84Q1069.36 240.51 1069.25 241.35L1064.95 241.35Q1064.99 242.21 1065.48 242.74Q1065.96 243.27 1066.74 243.27Q1067.33 243.27 1067.79 242.96Q1068.24 242.64 1068.35 242.19L1069.20 242.41Q1069.02 243.15 1068.35 243.62Q1067.67 244.09 1066.74 244.09M1065.01 240.60L1068.29 240.60Q1068.28 239.94 1067.84 239.56Q1067.40 239.17 1066.71 239.17Q1066.06 239.17 1065.61 239.55Q1065.16 239.93 1065.01 240.60M1071.36 244L1070.43 244L1070.43 238.46L1071.36 238.46L1071.36 239.44Q1071.61 238.91 1072.08 238.64Q1072.55 238.37 1073.09 238.37Q1073.26 238.37 1073.45 238.40Q1073.64 238.42 1073.77 238.49L1073.70 239.38Q1073.52 239.29 1073.34 239.28Q1073.16 239.26 1072.99 239.26Q1072.30 239.26 1071.83 239.91Q1071.36 240.56 1071.36 241.78L1071.36 244M1076.29 246L1075.31 246L1076.12 244L1073.97 238.46L1074.98 238.46L1076.61 242.78L1078.24 238.46L1079.23 238.46L1076.29 246M1084.21 244.09Q1083.30 244.09 1082.77 243.64Q1082.25 243.20 1082.25 242.50Q1082.25 241.67 1082.86 241.23Q1083.46 240.79 1084.78 240.66L1085.97 240.53L1085.97 240.34Q1085.97 239.79 1085.60 239.48Q1085.23 239.17 1084.63 239.17Q1084.05 239.17 1083.69 239.46Q1083.33 239.75 1083.24 240.34L1082.35 240.18Q1082.48 239.39 1083.08 238.88Q1083.68 238.37 1084.63 238.37Q1085.30 238.37 1085.81 238.62Q1086.32 238.86 1086.62 239.32Q1086.91 239.79 1086.91 240.44L1086.91 244L1085.97 244L1085.97 243.08Q1085.86 243.34 1085.59 243.57Q1085.33 243.80 1084.97 243.94Q1084.60 244.09 1084.21 244.09M1085.97 241.53L1085.97 241.26L1084.84 241.39Q1083.97 241.49 1083.58 241.73Q1083.20 241.97 1083.20 242.47Q1083.20 242.88 1083.49 243.10Q1083.79 243.33 1084.29 243.33Q1084.78 243.33 1085.16 243.08Q1085.54 242.83 1085.75 242.42Q1085.97 242.01 1085.97 241.53M1090.71 244.09Q1089.92 244.09 1089.30 243.71Q1088.69 243.34 1088.33 242.69Q1087.97 242.04 1087.97 241.23Q1087.97 240.40 1088.33 239.75Q1088.69 239.10 1089.30 238.74Q1089.92 238.37 1090.71 238.37Q1091.69 238.37 1092.38 238.87Q1093.06 239.37 1093.21 240.23L1092.27 240.37Q1092.16 239.82 1091.75 239.50Q1091.34 239.18 1090.71 239.18Q1090.20 239.18 1089.80 239.45Q1089.40 239.71 1089.16 240.17Q1088.93 240.62 1088.93 241.23Q1088.93 241.82 1089.16 242.28Q1089.40 242.74 1089.80 243Q1090.20 243.26 1090.71 243.26Q1091.37 243.26 1091.80 242.94Q1092.23 242.61 1092.30 242.07L1093.26 242.19Q1093.18 242.75 1092.84 243.18Q1092.49 243.60 1091.95 243.85Q1091.40 244.09 1090.71 244.09M1096.30 244.09Q1095.58 244.09 1095.11 243.65Q1094.65 243.21 1094.65 242.36L1094.65 239.24L1093.71 239.24L1093.71 238.46L1094.65 238.46L1094.65 237.05L1095.59 237.05L1095.59 238.46L1097 238.46L1097 239.24L1095.59 239.24L1095.59 242.28Q1095.59 242.77 1095.81 243.01Q1096.03 243.25 1096.41 243.25Q1096.69 243.25 1096.99 243.14L1097.07 243.94Q1096.91 244.02 1096.70 244.06Q1096.48 244.09 1096.30 244.09M1098.93 244L1097.98 244L1097.98 238.46L1098.93 238.46L1098.93 244M1098.45 237.49Q1098.17 237.49 1097.97 237.30Q1097.78 237.11 1097.78 236.83Q1097.78 236.54 1097.97 236.35Q1098.17 236.17 1098.45 236.17Q1098.75 236.17 1098.94 236.35Q1099.14 236.54 1099.14 236.83Q1099.14 237.11 1098.94 237.30Q1098.75 237.49 1098.45 237.49M1102.86 244.09Q1102.05 244.09 1101.42 243.72Q1100.79 243.35 1100.42 242.71Q1100.06 242.06 1100.06 241.23Q1100.06 240.39 1100.42 239.75Q1100.79 239.10 1101.42 238.74Q1102.05 238.37 1102.86 238.37Q1103.68 238.37 1104.31 238.74Q1104.94 239.10 1105.31 239.75Q1105.67 240.39 1105.67 241.23Q1105.67 242.06 1105.31 242.71Q1104.94 243.35 1104.31 243.72Q1103.68 244.09 1102.86 244.09M1102.86 243.26Q1103.40 243.26 1103.82 243Q1104.24 242.75 1104.48 242.28Q1104.71 241.82 1104.71 241.23Q1104.71 240.62 1104.48 240.16Q1104.24 239.70 1103.82 239.44Q1103.40 239.18 1102.86 239.18Q1102.33 239.18 1101.91 239.44Q1101.49 239.70 1101.25 240.16Q1101.02 240.62 1101.02 241.23Q1101.02 241.82 1101.25 242.28Q1101.49 242.75 1101.91 243Q1102.33 243.26 1102.86 243.26M1107.75 244L1106.81 244L1106.81 238.46L1107.75 238.46L1107.75 239.41Q1108 238.98 1108.51 238.68Q1109.02 238.37 1109.72 238.37Q1110.30 238.37 1110.76 238.60Q1111.22 238.84 1111.49 239.29Q1111.76 239.73 1111.76 240.37L1111.76 244L1110.83 244L1110.83 240.58Q1110.83 239.91 1110.48 239.55Q1110.12 239.19 1109.53 239.19Q1108.72 239.19 1108.23 239.85Q1107.75 240.51 1107.75 241.62L1107.75 244M1117.60 244.09Q1116.89 244.09 1116.42 243.65Q1115.95 243.21 1115.95 242.36L1115.95 239.24L1115.02 239.24L1115.02 238.46L1115.95 238.46L1115.95 237.05L1116.90 237.05L1116.90 238.46L1118.31 238.46L1118.31 239.24L1116.90 239.24L1116.90 242.28Q1116.90 242.77 1117.12 243.01Q1117.34 243.25 1117.71 243.25QNaN 243.25 1118.30 243.14L1118.37 243.94Q1118.22 244.02 1118.01 244.06Q1117.79 244.09 1117.60 244.09M1120.23 244L1119.30 244L1119.30 238.46L1120.23 238.46L1120.23 239.44Q1120.49 238.91 1120.95 238.64Q1121.42 238.37 1121.96 238.37Q1122.14 238.37 1122.32 238.40Q1122.51 238.42 1122.64 238.49L1122.58 239.38Q1122.39 239.29 1122.21 239.28Q1122.04 239.26 1121.86 239.26Q1121.17 239.26 1120.70 239.91Q1120.23 240.56 1120.23 241.78L1120.23 244M1125.15 244.09Q1124.24 244.09 1123.71 243.64Q1123.19 243.20 1123.19 242.50Q1123.19 241.67 1123.80 241.23Q1124.40 240.79 1125.72 240.66L1126.91 240.53L1126.91 240.34Q1126.91 239.79 1126.54 239.48Q1126.17 239.17 1125.57 239.17Q1125 239.17 1124.63 239.46Q1124.27 239.75 1124.18 240.34L1123.29 240.18Q1123.42 239.39 1124.02 238.88Q1124.62 238.37 1125.57 238.37Q1126.24 238.37 1126.75 238.62Q1127.26 238.86 1127.56 239.32Q1127.86 239.79 1127.86 240.44L1127.86 244L1126.91 244L1126.91 243.08Q1126.80 243.34 1126.54 243.57Q1126.27 243.80 1125.91 243.94Q1125.55 244.09 1125.15 244.09M1126.91 241.53L1126.91 241.26L1125.78 241.39Q1124.91 241.49 1124.52 241.73Q1124.14 241.97 1124.14 242.47Q1124.14 242.88 1124.44 243.10Q1124.73 243.33 1125.23 243.33Q1125.72 243.33 1126.10 243.08Q1126.48 242.83 1126.70 242.42Q1126.91 242.01 1126.91 241.53M1131.65 244.09Q1130.86 244.09 1130.24 243.71Q1129.63 243.34 1129.27 242.69Q1128.91 242.04 1128.91 241.23Q1128.91 240.40 1129.27 239.75Q1129.63 239.10 1130.24 238.74Q1130.86 238.37 1131.65 238.37Q1132.63 238.37 1133.32 238.87Q1134.01 239.37 1134.15 240.23L1133.21 240.37Q1133.10 239.82 1132.69 239.50Q1132.28 239.18 1131.65 239.18Q1131.15 239.18 1130.74 239.45Q1130.34 239.71 1130.11 240.17Q1129.87 240.62 1129.87 241.23Q1129.87 241.82 1130.11 242.28Q1130.34 242.74 1130.74 243Q1131.15 243.26 1131.65 243.26Q1132.31 243.26 1132.74 242.94Q1133.17 242.61 1133.25 242.07L1134.20 242.19Q1134.13 242.75 1133.78 243.18Q1133.43 243.60 1132.89 243.85Q1132.34 244.09 1131.65 244.09M1137.68 244.09Q1136.87 244.09 1136.24 243.72Q1135.62 243.35 1135.28 242.71Q1134.93 242.06 1134.93 241.23Q1134.93 240.39 1135.28 239.75Q1135.63 239.10 1136.24 238.74Q1136.85 238.37 1137.65 238.37Q1138.49 238.37 1139.10 238.77Q1139.70 239.17 NaN 239.84Q1140.30 240.51 1140.19 241.35L1135.89 241.35Q1135.93 242.21 1136.41 242.74Q1136.90 243.27 1137.68 243.27Q1138.27 243.27 1138.72 242.96Q1139.18 242.64 1139.29 242.19L1140.14 242.41Q1139.96 243.15 1139.29 243.62Q1138.61 244.09 1137.68 244.09M1135.95 240.60L1139.23 240.60Q1139.22 239.94 1138.78 239.56Q1138.34 239.17 1137.65 239.17Q1137 239.17 1136.55 239.55Q1136.10 239.93 1135.95 240.60M1143.77 244.09Q1142.95 244.09 1142.33 243.73Q1141.71 243.37 1141.36 242.73Q1141.01 242.09 1141.01 241.23Q1141.01 240.37 1141.36 239.73Q1141.71 239.08 1142.33 238.73Q1142.95 238.37 1143.77 238.37Q1144.39 238.37 1144.92 238.64Q1145.45 238.91 1145.69 239.36L1145.69 236.21L1146.63 236.21L1146.63 244L1145.69 244L1145.69 243.09Q1145.45 243.54 1144.92 243.81Q1144.39 244.09 1143.77 244.09M1143.83 243.27Q1144.38 243.27 1144.80 243.01Q1145.21 242.75 1145.45 242.28Q1145.69 241.82 1145.69 241.23Q1145.69 240.62 1145.45 240.16Q1145.21 239.70 1144.80 239.44Q1144.38 239.18 1143.83 239.18Q1143.30 239.18 1142.88 239.44Q1142.45 239.70 1142.21 240.16Q1141.97 240.62 1141.97 241.23Q1141.97 241.83 1142.21 242.29Q1142.45 242.76 1142.88 243.02Q1143.30 243.27 1143.83 243.27" fill="#686c62"/>
  
</svg>
