<svg width="620" height="180" viewBox="0 0 620 180" fill="none" xmlns="http://www.w3.org/2000/svg" font-family="Matter, Inter, system-ui, sans-serif">
  <defs>
    <pattern id="dots" width="22" height="22" patternUnits="userSpaceOnUse"><circle cx="2" cy="2" r="1.4" fill="#d4d2c6"/></pattern>
    <marker id="sq" markerWidth="8" markerHeight="8" refX="4" refY="4" orient="0" markerUnits="userSpaceOnUse"><rect x="0.5" y="0.5" width="7" height="7" fill="#f6f5ee" stroke="#bcbcb4" stroke-width="1"/></marker>
  </defs>
  <rect width="620" height="180" rx="4" fill="#f6f5ee"/>
  <rect width="620" height="180" rx="4" fill="url(#dots)"/>

  
    <path d="M180 90 H230" marker-end="url(#sq)"/>
    <path d="M450 90 H500" marker-end="url(#sq)"/>
  
  <path d="M192.43 80L191.48 80L194.93 72.30L195.90 72.30L192.43 80M197.73 80L196.80 80L196.80 74.46L197.73 74.46L197.73 75.41Q197.98 75 198.43 74.68Q198.89 74.37 199.53 74.37Q200.20 74.37 200.67 74.70Q201.14 75.03 201.30 75.56Q201.62 75.03 202.11 74.70Q202.61 74.37 203.23 74.37Q204.11 74.37 204.66 74.90Q205.20 75.44 205.20 76.31L205.20 80L204.27 80L204.27 76.52Q204.27 75.91 203.96 75.55Q203.64 75.19 203.08 75.19Q202.59 75.19 202.22 75.48Q201.86 75.77 201.66 76.24Q201.46 76.71 201.46 77.29L201.46 80L200.53 80L200.53 76.52Q200.53 75.91 200.22 75.55Q199.91 75.19 199.35 75.19Q198.86 75.19 198.49 75.48Q198.13 75.77 197.93 76.24Q197.73 76.71 197.73 77.29L197.73 80M209.02 80.09Q208.23 80.09 207.61 79.71Q207 79.34 206.64 78.69Q206.28 78.04 206.28 77.23Q206.28 76.40 206.64 75.75Q207 75.11 207.61 74.74Q208.23 74.37 209.02 74.37Q210 74.37 210.69 74.87Q211.37 75.37 211.52 76.23L210.58 76.37Q210.47 75.82 210.06 75.50Q209.65 75.18 209.02 75.18Q208.51 75.18 208.11 75.45Q207.71 75.71 207.47 76.17Q207.24 76.62 207.24 77.23Q207.24 77.82 207.47 78.28Q207.71 78.73 208.11 79Q208.51 79.26 209.02 79.26Q209.68 79.26 210.11 78.94Q210.54 78.61 210.62 78.08L211.57 78.19Q211.50 78.75 211.15 79.17Q210.80 79.60 210.26 79.85Q209.71 80.09 209.02 80.09M213.60 82L212.65 82L212.65 74.46L213.60 74.46L213.60 75.36Q213.85 74.91 214.37 74.64Q214.89 74.37 215.51 74.37Q216.35 74.37 216.96 74.73Q217.58 75.08 217.93 75.73Q218.27 76.37 218.27 77.23Q218.27 78.09 217.93 78.73Q217.58 79.37 216.96 79.73Q216.35 80.09 215.51 80.09Q214.91 80.09 214.38 79.81Q213.85 79.54 213.60 79.09L213.60 82M215.46 79.27Q215.99 79.27 216.41 79.02Q216.83 78.76 217.07 78.30Q217.31 77.83 217.31 77.23Q217.31 76.62 217.07 76.16Q216.83 75.70 216.41 75.44Q215.99 75.18 215.46 75.18Q214.92 75.18 214.49 75.44Q214.07 75.70 213.83 76.16Q213.60 76.62 213.60 77.23Q213.60 77.82 213.83 78.28Q214.07 78.75 214.49 79.01Q214.92 79.27 215.46 79.27" fill="#686c62"/>

  
    <rect x="30" y="55" width="150" height="70" rx="2" fill="#ffffff"/>
    <path d="M80.35 95L78.64 95L82.48 85.20L84.33 85.20L88.15 95L86.39 95L85.49 92.69L81.26 92.69L80.35 95M83.38 87.16L81.78 91.29L84.97 91.29L83.38 87.16M90.80 95L89.15 95L89.15 85.20L90.80 85.20L90.80 95M97.77 95.11Q96.63 95.11 95.97 94.52Q95.30 93.94 95.30 93.07Q95.30 92.02 96.05 91.45Q96.80 90.88 98.44 90.70L99.88 90.56L99.88 90.38Q99.88 89.76 99.47 89.41Q99.06 89.06 98.38 89.06Q97.74 89.06 97.34 89.39Q96.94 89.71 96.86 90.37L95.39 90.14Q95.57 89.11 96.38 88.47Q97.19 87.83 98.38 87.83Q99.27 87.83 99.95 88.15Q100.64 88.48 101.02 89.08Q101.41 89.69 101.41 90.56L101.41 95L99.88 95L99.88 93.98Q99.66 94.45 99.07 94.78Q98.48 95.11 97.77 95.11M99.88 91.89L99.88 91.70L98.51 91.86Q97.63 91.96 97.23 92.21Q96.83 92.47 96.83 93Q96.83 93.45 97.15 93.69Q97.47 93.94 98.02 93.94Q98.58 93.94 98.99 93.66Q99.41 93.38 99.64 92.91Q99.88 92.45 99.88 91.89M106.14 97.66Q105.31 97.66 104.62 97.39Q103.93 97.13 103.47 96.65Q103.02 96.18 102.89 95.57L104.38 95.28Q104.52 95.83 105 96.13Q105.48 96.43 106.17 96.43Q107.04 96.43 107.60 95.99Q108.16 95.55 108.16 94.69L108.16 93.67Q107.86 94.12 107.25 94.39Q106.64 94.66 105.92 94.66Q104.96 94.66 104.22 94.24Q103.48 93.81 103.06 93.04Q102.64 92.27 102.64 91.25Q102.64 90.20 103.06 89.44Q103.48 88.67 104.22 88.25Q104.96 87.83 105.94 87.83Q106.67 87.83 107.26 88.10Q107.85 88.36 108.16 88.81L108.16 87.94L109.70 87.94L109.70 94.54Q109.70 95.53 109.25 96.23Q108.80 96.93 108 97.30Q107.20 97.66 106.14 97.66M106.18 93.35Q107.04 93.35 107.60 92.76Q108.16 92.17 108.16 91.25Q108.16 90.31 107.60 89.73Q107.04 89.15 106.18 89.15Q105.31 89.15 104.75 89.73Q104.19 90.31 104.19 91.25Q104.19 92.19 104.75 92.77Q105.31 93.35 106.18 93.35M114.54 95.11Q113.48 95.11 112.67 94.64Q111.87 94.17 111.42 93.36Q110.97 92.54 110.97 91.47Q110.97 90.41 111.42 89.59Q111.87 88.77 112.66 88.30Q113.46 87.83 114.48 87.83Q115.60 87.83 116.40 88.36Q117.20 88.88 117.58 89.77Q117.96 90.66 117.82 91.75L112.51 91.75Q112.59 92.69 113.13 93.26Q113.67 93.82 114.54 93.82Q115.20 93.82 115.70 93.48Q116.21 93.14 116.33 92.62L117.76 93Q117.49 93.94 116.62 94.52Q115.74 95.11 114.54 95.11M112.59 90.59L116.23 90.59Q116.22 89.89 115.74 89.48Q115.25 89.06 114.48 89.06Q113.77 89.06 113.27 89.46Q112.78 89.86 112.59 90.59M120.69 95L119.16 95L119.16 87.94L120.69 87.94L120.69 88.99Q121 88.53 121.61 88.18Q122.23 87.83 123.07 87.83Q123.82 87.83 124.42 88.14Q125.01 88.45 125.35 89.03Q125.69 89.61 125.69 90.42L125.69 95L124.16 95L124.16 90.76Q124.16 90 123.75 89.59Q123.35 89.18 122.67 89.18Q121.75 89.18 121.22 89.92Q120.69 90.66 120.69 91.95L120.69 95M130.11 95.11Q129.12 95.11 128.45 94.51Q127.79 93.91 127.79 92.76L127.79 89.20L126.62 89.20L126.62 87.94L127.79 87.94L127.79 86.19L129.33 86.19L129.33 87.94L131.03 87.94L131.03 89.20L129.33 89.20L129.33 92.63Q129.33 93.19 129.59 93.48Q129.86 93.77 130.31 93.77Q130.50 93.77 130.68 93.73Q130.85 93.68 131.03 93.63L131.15 94.93Q130.92 95.03 130.65 95.07Q130.38 95.11 130.11 95.11" fill="#262d1e"/>
  
  
    <rect x="230" y="45" width="220" height="90" rx="2" fill="#3f5b1e"/>
    <path d="M290.32 78L288.67 78L288.67 68.20L295.18 68.20L295.18 69.61L290.32 69.61L290.32 72.18L294.27 72.18L294.27 73.59L290.32 73.59L290.32 78M299.46 78.11Q298.41 78.11 297.59 77.64Q296.76 77.17 296.29 76.35Q295.82 75.52 295.82 74.46Q295.82 73.39 296.29 72.58Q296.76 71.76 297.59 71.29Q298.41 70.83 299.46 70.83Q300.53 70.83 301.35 71.29Q302.16 71.76 302.63 72.58Q303.10 73.39 303.10 74.46Q303.10 75.52 302.63 76.35Q302.16 77.17 301.35 77.64Q300.53 78.11 299.46 78.11M299.46 76.80Q300.39 76.80 300.97 76.14Q301.55 75.49 301.55 74.46Q301.55 73.44 300.97 72.79Q300.39 72.15 299.46 72.15Q298.55 72.15 297.96 72.78Q297.38 73.42 297.38 74.46Q297.38 75.49 297.96 76.14Q298.55 76.80 299.46 76.80M305.93 78L304.40 78L304.40 70.94L305.93 70.94L305.93 72.02Q306.24 71.45 306.81 71.14Q307.37 70.83 308.06 70.83Q308.28 70.83 308.52 70.87Q308.76 70.90 308.93 70.97L308.81 72.43Q308.59 72.33 308.37 72.30Q308.14 72.27 307.92 72.27Q307.11 72.27 306.52 73.01Q305.93 73.74 305.93 75.27L305.93 78M313.03 78.11Q311.96 78.11 311.16 77.64Q310.35 77.17 309.91 76.36Q309.46 75.54 309.46 74.47Q309.46 73.41 309.91 72.59Q310.35 71.77 311.15 71.30Q311.95 70.83 312.97 70.83Q314.09 70.83 314.89 71.36Q315.69 71.88 316.07 72.77Q316.44 73.66 316.30 74.75L311 74.75Q311.08 75.69 311.62 76.26Q312.16 76.82 313.03 76.82Q313.69 76.82 314.19 76.48Q314.69 76.14 314.82 75.62L316.25 76Q315.98 76.94 315.11 77.52Q314.23 78.11 313.03 78.11M311.08 73.59L314.72 73.59Q314.71 72.89 314.23 72.48Q313.74 72.06 312.97 72.06Q312.26 72.06 311.76 72.46Q311.26 72.86 311.08 73.59M320.10 78.11Q319.29 78.11 318.66 77.83Q318.03 77.55 317.63 77.07Q317.23 76.59 317.09 76.01L318.42 75.58Q318.56 76.19 318.99 76.54Q319.41 76.88 320.10 76.88Q320.66 76.88 321 76.64Q321.34 76.39 321.34 75.96Q321.34 75.58 321.06 75.38Q320.78 75.17 320.34 75.05Q319.89 74.92 319.38 74.79Q318.88 74.65 318.43 74.44Q317.98 74.22 317.70 73.83Q317.42 73.44 317.42 72.78Q317.42 72.23 317.73 71.79Q318.04 71.35 318.59 71.09Q319.15 70.83 319.89 70.83Q320.95 70.83 321.71 71.31Q322.46 71.78 322.69 72.57L321.37 73.06Q321.22 72.48 320.81 72.25Q320.41 72.02 319.89 72.02Q319.45 72.02 319.16 72.20Q318.87 72.39 318.87 72.74Q318.87 73.09 319.15 73.26Q319.44 73.44 319.89 73.55Q320.34 73.66 320.84 73.79Q321.34 73.91 321.79 74.14Q322.24 74.37 322.53 74.79Q322.81 75.20 322.81 75.91Q322.81 76.56 322.46 77.06Q322.11 77.55 321.50 77.83Q320.88 78.11 320.10 78.11M326.89 78.11Q325.89 78.11 325.23 77.51Q324.56 76.91 324.56 75.76L324.56 72.20L323.40 72.20L323.40 70.94L324.56 70.94L324.56 69.19L326.10 69.19L326.10 70.94L327.81 70.94L327.81 72.20L326.10 72.20L326.10 75.63Q326.10 76.19 326.37 76.48Q326.64 76.77 327.08 76.77Q327.28 76.77 327.46 76.73Q327.63 76.68 327.81 76.63L327.92 77.93Q327.70 78.03 327.43 78.07Q327.15 78.11 326.89 78.11M335.83 78.11Q335.11 78.11 334.48 77.80Q333.85 77.50 333.54 77.01L333.54 78L332 78L332 68.09L333.54 68.09L333.54 71.92Q333.85 71.43 334.48 71.13Q335.11 70.83 335.83 70.83Q336.88 70.83 337.66 71.29Q338.44 71.74 338.87 72.55Q339.29 73.37 339.29 74.47Q339.29 75.56 338.87 76.38Q338.44 77.20 337.66 77.66Q336.88 78.11 335.83 78.11M335.64 76.80Q336.25 76.80 336.72 76.50Q337.19 76.21 337.47 75.68Q337.74 75.16 337.74 74.47Q337.74 73.44 337.14 72.79Q336.55 72.15 335.64 72.15Q334.71 72.15 334.13 72.79Q333.54 73.44 333.54 74.47Q333.54 75.14 333.80 75.67Q334.07 76.19 334.55 76.50Q335.02 76.80 335.64 76.80M342.74 78.11Q341.60 78.11 340.94 77.52Q340.27 76.94 340.27 76.07Q340.27 75.02 341.02 74.45Q341.77 73.88 343.41 73.70L344.85 73.56L344.85 73.38Q344.85 72.76 344.44 72.41Q344.02 72.06 343.35 72.06Q342.71 72.06 342.31 72.39Q341.91 72.71 341.83 73.37L340.36 73.14Q340.54 72.11 341.35 71.47Q342.16 70.83 343.35 70.83Q344.23 70.83 344.92 71.15Q345.61 71.48 345.99 72.08Q346.38 72.69 346.38 73.56L346.38 78L344.85 78L344.85 76.98Q344.63 77.45 344.04 77.78Q343.45 78.11 342.74 78.11M344.85 74.89L344.85 74.70L343.48 74.86Q342.60 74.96 342.20 75.21Q341.80 75.47 341.80 76Q341.80 76.45 342.12 76.69Q342.44 76.94 342.99 76.94Q343.55 76.94 343.96 76.66Q344.37 76.38 344.61 75.91Q344.85 75.45 344.85 74.89M351.14 78.11Q350.10 78.11 349.30 77.64Q348.49 77.16 348.04 76.33Q347.58 75.51 347.58 74.46Q347.58 73.41 348.04 72.59Q348.49 71.77 349.30 71.30Q350.10 70.83 351.14 70.83Q352.42 70.83 353.33 71.49Q354.24 72.15 354.43 73.31L352.89 73.53Q352.77 72.88 352.31 72.51Q351.85 72.15 351.14 72.15Q350.58 72.15 350.12 72.44Q349.67 72.74 349.40 73.25Q349.13 73.77 349.13 74.46Q349.13 75.14 349.40 75.67Q349.67 76.19 350.12 76.50Q350.58 76.80 351.14 76.80Q351.88 76.80 352.35 76.42Q352.82 76.04 352.91 75.42L354.50 75.62Q354.40 76.35 353.94 76.92Q353.49 77.48 352.77 77.80Q352.05 78.11 351.14 78.11M357.23 78L355.70 78L355.70 68.09L357.23 68.09L357.23 73.62L360.15 70.94L362.20 70.94L359.34 73.63L362.43 78L360.59 78L358.22 74.70L357.23 75.63L357.23 78M367.19 74.82L362.85 74.82L362.85 73.53L367.19 73.53L367.19 74.82M371.79 78.11Q370.72 78.11 369.92 77.64Q369.11 77.17 368.66 76.36Q368.22 75.54 368.22 74.47Q368.22 73.41 368.66 72.59Q369.11 71.77 369.91 71.30Q370.71 70.83 371.73 70.83Q372.85 70.83 373.65 71.36Q374.45 71.88 374.82 72.77Q375.20 73.66 375.06 74.75L369.76 74.75Q369.84 75.69 370.38 76.26Q370.92 76.82 371.79 76.82Q372.44 76.82 372.95 76.48Q373.45 76.14 373.58 75.62L375.01 76Q374.74 76.94 373.87 77.52Q372.99 78.11 371.79 78.11M369.84 73.59L373.48 73.59Q373.47 72.89 372.98 72.48Q372.50 72.06 371.73 72.06Q371.02 72.06 370.52 72.46Q370.02 72.86 369.84 73.59M377.93 78L376.41 78L376.41 70.94L377.93 70.94L377.93 71.99Q378.24 71.53 378.86 71.18Q379.47 70.83 380.31 70.83Q381.07 70.83 381.66 71.14Q382.26 71.45 382.59 72.03Q382.93 72.61 382.93 73.42L382.93 78L381.40 78L381.40 73.76Q381.40 73 381 72.59Q380.59 72.18 379.92 72.18Q379 72.18 378.46 72.92Q377.93 73.66 377.93 74.95L377.93 78M387.63 78.11Q386.58 78.11 385.81 77.66Q385.03 77.20 384.60 76.38Q384.18 75.56 384.18 74.47Q384.18 73.37 384.60 72.55Q385.03 71.74 385.81 71.29Q386.58 70.83 387.63 70.83Q388.38 70.83 389 71.13Q389.62 71.43 389.92 71.92L389.92 68.09L391.47 68.09L391.47 78L389.92 78L389.92 77.01Q389.62 77.50 388.99 77.80Q388.36 78.11 387.63 78.11M387.83 76.80Q388.75 76.80 389.34 76.14Q389.92 75.49 389.92 74.47Q389.92 73.44 389.34 72.79Q388.75 72.15 387.83 72.15Q386.91 72.15 386.32 72.79Q385.73 73.44 385.73 74.47Q385.73 75.49 386.32 76.14Q386.91 76.80 387.83 76.80" fill="#f6f5ee"/>
    <rect x="258" y="92" width="164" height="28" rx="2" fill="#ddf327"/>
    <path d="M283.98 111L282.68 111L282.68 104.95L283.98 104.95L283.98 105.88Q284.25 105.46 284.75 105.16Q285.24 104.86 285.90 104.86Q286.58 104.86 287.08 105.17Q287.58 105.49 287.75 106Q288.10 105.49 288.64 105.17Q289.18 104.86 289.80 104.86Q290.76 104.86 291.37 105.45Q291.98 106.04 291.98 107.04L291.98 111L290.67 111L290.67 107.33Q290.67 106.72 290.36 106.36Q290.06 106.01 289.52 106.01Q289.04 106.01 288.69 106.28Q288.35 106.55 288.17 107Q287.98 107.46 287.98 108.02L287.98 111L286.67 111L286.67 107.33Q286.67 106.72 286.37 106.36Q286.07 106.01 285.52 106.01Q285.04 106.01 284.70 106.28Q284.36 106.55 284.17 107Q283.98 107.46 283.98 108.02L283.98 111M296.14 111.10Q295.24 111.10 294.53 110.69Q293.82 110.29 293.42 109.58Q293.02 108.88 293.02 107.96Q293.02 107.05 293.42 106.35Q293.82 105.65 294.53 105.25Q295.24 104.86 296.14 104.86Q297.05 104.86 297.75 105.25Q298.46 105.65 298.86 106.35Q299.26 107.05 299.26 107.96Q299.26 108.88 298.86 109.58Q298.46 110.29 297.75 110.69Q297.05 111.10 296.14 111.10M296.14 109.97Q296.93 109.97 297.43 109.41Q297.93 108.85 297.93 107.96Q297.93 107.09 297.43 106.54Q296.93 105.98 296.14 105.98Q295.36 105.98 294.86 106.53Q294.35 107.08 294.35 107.96Q294.35 108.85 294.86 109.41Q295.36 109.97 296.14 109.97M302.55 111.10Q301.90 111.10 301.40 110.83Q300.89 110.57 300.60 110.08Q300.30 109.58 300.30 108.91L300.30 104.95L301.62 104.95L301.62 108.58Q301.62 109.22 301.97 109.58Q302.31 109.94 302.90 109.94Q303.68 109.94 304.14 109.30Q304.60 108.66 304.60 107.56L304.60 104.95L305.91 104.95L305.91 111L304.60 111L304.60 110.10Q304.34 110.50 303.81 110.80Q303.28 111.10 302.55 111.10M308.68 111L307.37 111L307.37 104.95L308.68 104.95L308.68 105.85Q308.94 105.46 309.47 105.16Q310 104.86 310.72 104.86Q311.37 104.86 311.88 105.12Q312.39 105.38 312.68 105.88Q312.96 106.38 312.96 107.08L312.96 111L311.66 111L311.66 107.36Q311.66 106.72 311.31 106.36Q310.96 106.01 310.38 106.01Q309.59 106.01 309.14 106.64Q308.68 107.28 308.68 108.38L308.68 111M316.76 111.10Q315.90 111.10 315.33 110.58Q314.76 110.06 314.76 109.08L314.76 106.03L313.77 106.03L313.77 104.95L314.76 104.95L314.76 103.45L316.08 103.45L316.08 104.95L317.55 104.95L317.55 106.03L316.08 106.03L316.08 108.97Q316.08 109.45 316.31 109.70Q316.54 109.94 316.92 109.94Q317.09 109.94 317.24 109.91Q317.39 109.87 317.55 109.82L317.64 110.94Q317.45 111.02 317.22 111.06Q316.98 111.10 316.76 111.10M321.28 111.10Q320.37 111.10 319.68 110.69Q318.99 110.29 318.60 109.59Q318.22 108.89 318.22 107.98Q318.22 107.06 318.60 106.36Q318.99 105.66 319.67 105.26Q320.36 104.86 321.23 104.86Q322.19 104.86 322.88 105.31Q323.56 105.76 323.88 106.52Q324.21 107.28 324.09 108.22L319.54 108.22Q319.61 109.02 320.07 109.51Q320.54 109.99 321.28 109.99Q321.84 109.99 322.28 109.70Q322.71 109.40 322.82 108.96L324.04 109.28Q323.81 110.09 323.06 110.59Q322.31 111.10 321.28 111.10M319.61 107.22L322.73 107.22Q322.72 106.62 322.31 106.27Q321.89 105.91 321.23 105.91Q320.62 105.91 320.19 106.25Q319.77 106.60 319.61 107.22M327.87 111.10Q326.97 111.10 326.30 110.71Q325.64 110.32 325.27 109.61Q324.90 108.91 324.90 107.98Q324.90 107.03 325.27 106.33Q325.64 105.64 326.30 105.25Q326.97 104.86 327.87 104.86Q328.50 104.86 329.04 105.11Q329.57 105.37 329.82 105.79L329.82 102.50L331.16 102.50L331.16 111L329.82 111L329.82 110.15Q329.57 110.57 329.03 110.83Q328.49 111.10 327.87 111.10M328.04 109.97Q328.83 109.97 329.33 109.41Q329.82 108.85 329.82 107.98Q329.82 107.09 329.33 106.54Q328.83 105.98 328.04 105.98Q327.24 105.98 326.74 106.54Q326.24 107.09 326.24 107.98Q326.24 108.85 326.74 109.41Q327.24 109.97 328.04 109.97M336.70 111L335.28 111L335.28 102.60L337.28 102.60L339.34 107.54Q339.63 108.24 339.76 108.69Q339.89 109.14 339.89 109.14Q339.89 109.14 340.04 108.69Q340.18 108.24 340.47 107.54L342.53 102.60L344.48 102.60L344.48 111L343.06 111L343.06 106.19Q343.06 105.43 343.08 104.96Q343.10 104.48 343.10 104.48Q343.10 104.48 342.94 104.93Q342.78 105.37 342.50 106.08L340.44 111L339.32 111L337.26 106.08Q336.98 105.38 336.82 104.94Q336.66 104.50 336.66 104.50Q336.66 104.50 336.68 104.96Q336.70 105.43 336.70 106.19L336.70 111M349.90 111.10Q348.72 111.10 347.78 110.59Q346.84 110.08 346.30 109.11Q345.76 108.14 345.76 106.80Q345.76 105.46 346.30 104.50Q346.84 103.54 347.78 103.02Q348.71 102.50 349.90 102.50Q351.34 102.50 352.32 103.21Q353.30 103.91 353.52 105.17L352.11 105.42Q351.99 104.64 351.38 104.18Q350.76 103.72 349.90 103.72Q349.11 103.72 348.49 104.08Q347.87 104.45 347.52 105.14Q347.18 105.83 347.18 106.80Q347.18 107.76 347.53 108.46Q347.88 109.15 348.50 109.52Q349.11 109.88 349.90 109.88Q350.84 109.88 351.44 109.39Q352.05 108.90 352.17 108.10L353.56 108.29Q353.46 109.12 352.97 109.75Q352.48 110.39 351.69 110.74Q350.90 111.10 349.90 111.10M356.14 111L354.74 111L354.74 102.60L358.10 102.60Q358.92 102.60 359.54 102.91Q360.15 103.22 360.48 103.78Q360.82 104.34 360.82 105.10Q360.82 105.85 360.48 106.42Q360.15 106.98 359.54 107.29Q358.92 107.60 358.10 107.60L356.14 107.60L356.14 111M356.14 103.81L356.14 106.40L357.95 106.40Q358.62 106.40 359.02 106.04Q359.42 105.68 359.42 105.10Q359.42 104.51 359.02 104.16Q358.62 103.81 357.95 103.81L356.14 103.81M366.46 111.10Q365.76 111.10 365.22 110.86Q364.68 110.62 364.34 110.20Q364 109.79 363.88 109.30L365.02 108.92Q365.14 109.45 365.51 109.75Q365.87 110.04 366.46 110.04Q366.94 110.04 367.23 109.83Q367.53 109.62 367.53 109.25Q367.53 108.92 367.29 108.75Q367.05 108.58 366.66 108.47Q366.28 108.36 365.85 108.25Q365.42 108.13 365.03 107.95Q364.65 107.76 364.41 107.42Q364.17 107.09 364.17 106.52Q364.17 106.06 364.43 105.68Q364.70 105.30 365.17 105.08Q365.64 104.86 366.28 104.86Q367.19 104.86 367.84 105.26Q368.49 105.67 368.68 106.34L367.55 106.76Q367.42 106.27 367.07 106.07Q366.72 105.88 366.28 105.88Q365.91 105.88 365.66 106.03Q365.40 106.19 365.40 106.49Q365.40 106.79 365.65 106.94Q365.90 107.09 366.28 107.18Q366.66 107.28 367.10 107.39Q367.53 107.50 367.91 107.69Q368.30 107.89 368.54 108.25Q368.79 108.60 368.79 109.21Q368.79 109.76 368.49 110.19Q368.19 110.62 367.66 110.86Q367.13 111.10 366.46 111.10M372.60 111.10Q371.69 111.10 371 110.69Q370.31 110.29 369.93 109.59Q369.54 108.89 369.54 107.98Q369.54 107.06 369.93 106.36Q370.31 105.66 371 105.26Q371.68 104.86 372.56 104.86Q373.52 104.86 374.20 105.31Q374.88 105.76 375.21 106.52Q375.53 107.28 375.41 108.22L370.86 108.22Q370.94 109.02 371.40 109.51Q371.86 109.99 372.60 109.99Q373.17 109.99 373.60 109.70Q374.03 109.40 374.14 108.96L375.36 109.28Q375.14 110.09 374.39 110.59Q373.64 111.10 372.60 111.10M370.94 107.22L374.06 107.22Q374.04 106.62 373.63 106.27Q373.22 105.91 372.56 105.91Q371.94 105.91 371.52 106.25Q371.09 106.60 370.94 107.22M377.87 111L376.56 111L376.56 104.95L377.87 104.95L377.87 105.88Q378.14 105.38 378.62 105.12Q379.11 104.86 379.70 104.86Q379.89 104.86 380.09 104.89Q380.30 104.92 380.44 104.98L380.34 106.22Q380.15 106.14 379.96 106.12Q379.77 106.09 379.58 106.09Q378.88 106.09 378.38 106.72Q377.87 107.35 377.87 108.66L377.87 111M384.24 111L382.97 111L380.57 104.95L382 104.95L383.63 109.26L385.26 104.95L386.64 104.95L384.24 111M390.15 111.10Q389.24 111.10 388.55 110.69Q387.86 110.29 387.47 109.59Q387.09 108.89 387.09 107.98Q387.09 107.06 387.47 106.36Q387.86 105.66 388.54 105.26Q389.22 104.86 390.10 104.86Q391.06 104.86 391.74 105.31Q392.43 105.76 392.75 106.52Q393.08 107.28 392.96 108.22L388.41 108.22Q388.48 109.02 388.94 109.51Q389.40 109.99 390.15 109.99Q390.71 109.99 391.14 109.70Q391.58 109.40 391.68 108.96L392.91 109.28Q392.68 110.09 391.93 110.59Q391.18 111.10 390.15 111.10M388.48 107.22L391.60 107.22Q391.59 106.62 391.17 106.27Q390.76 105.91 390.10 105.91Q389.49 105.91 389.06 106.25Q388.64 106.60 388.48 107.22M395.42 111L394.11 111L394.11 104.95L395.42 104.95L395.42 105.88Q395.68 105.38 396.17 105.12Q396.65 104.86 397.24 104.86Q397.43 104.86 397.64 104.89Q397.84 104.92 397.98 104.98L397.89 106.22Q397.70 106.14 397.50 106.12Q397.31 106.09 397.12 106.09Q396.42 106.09 395.92 106.72Q395.42 107.35 395.42 108.66" fill="#262d1e"/>
  
  
    <rect x="500" y="60" width="100" height="60" rx="2" fill="#ffffff"/>
    <path d="M540.51 95.10Q539.53 95.10 538.81 94.68Q538.09 94.26 537.70 93.50Q537.30 92.74 537.30 91.72Q537.30 90.70 537.70 89.94Q538.09 89.19 538.81 88.77Q539.53 88.34 540.51 88.34Q541.20 88.34 541.78 88.62Q542.36 88.90 542.63 89.36L542.63 85.80L544.07 85.80L544.07 95L542.63 95L542.63 94.08Q542.36 94.53 541.77 94.82Q541.19 95.10 540.51 95.10M540.69 93.88Q541.55 93.88 542.09 93.28Q542.63 92.67 542.63 91.72Q542.63 90.76 542.09 90.16Q541.55 89.57 540.69 89.57Q539.83 89.57 539.29 90.16Q538.74 90.76 538.74 91.72Q538.74 92.67 539.29 93.28Q539.83 93.88 540.69 93.88M547.63 95.10Q546.58 95.10 545.96 94.56Q545.35 94.01 545.35 93.21Q545.35 92.23 546.04 91.70Q546.74 91.18 548.26 91.01L549.60 90.88L549.60 90.71Q549.60 90.14 549.21 89.81Q548.83 89.49 548.21 89.49Q547.61 89.49 547.24 89.79Q546.87 90.09 546.79 90.70L545.42 90.49Q545.59 89.53 546.35 88.94Q547.10 88.34 548.21 88.34Q549.02 88.34 549.66 88.64Q550.30 88.94 550.66 89.51Q551.01 90.07 551.01 90.88L551.01 95L549.60 95L549.60 94.05Q549.39 94.49 548.84 94.80Q548.30 95.10 547.63 95.10M549.60 92.11L549.60 91.93L548.32 92.09Q547.50 92.18 547.13 92.41Q546.76 92.65 546.76 93.14Q546.76 93.56 547.06 93.78Q547.36 94.01 547.87 94.01Q548.39 94.01 548.77 93.75Q549.15 93.49 549.38 93.06Q549.60 92.63 549.60 92.11M555.10 95.10Q554.17 95.10 553.56 94.55Q552.94 93.99 552.94 92.92L552.94 89.62L551.86 89.62L551.86 88.45L552.94 88.45L552.94 86.82L554.37 86.82L554.37 88.45L555.95 88.45L555.95 89.62L554.37 89.62L554.37 92.80Q554.37 93.32 554.62 93.59Q554.86 93.86 555.28 93.86Q555.46 93.86 555.62 93.82Q555.78 93.78 555.95 93.73L556.06 94.94Q555.85 95.03 555.60 95.06Q555.34 95.10 555.10 95.10M559.05 95.10Q558 95.10 557.38 94.56Q556.76 94.01 556.76 93.21Q556.76 92.23 557.46 91.70Q558.15 91.18 559.67 91.01L561.01 90.88L561.01 90.71Q561.01 90.14 560.63 89.81Q560.24 89.49 559.62 89.49Q559.02 89.49 558.65 89.79Q558.28 90.09 558.20 90.70L556.84 90.49Q557.01 89.53 557.76 88.94Q558.51 88.34 559.62 88.34Q560.44 88.34 561.08 88.64Q561.71 88.94 562.07 89.51Q562.43 90.07 562.43 90.88L562.43 95L561.01 95L561.01 94.05Q560.80 94.49 560.26 94.80Q559.71 95.10 559.05 95.10M561.01 92.11L561.01 91.93L559.74 92.09Q558.92 92.18 558.55 92.41Q558.18 92.65 558.18 93.14Q558.18 93.56 558.48 93.78Q558.77 94.01 559.28 94.01Q559.80 94.01 560.19 93.75Q560.57 93.49 560.79 93.06Q561.01 92.63 561.01 92.11" fill="#262d1e"/>
  
</svg>
