<svg width="760" height="180" viewBox="0 0 760 180" fill="none" xmlns="http://www.w3.org/2000/svg" font-family="Matter, Inter, system-ui, sans-serif">
  <defs>
    <pattern id="dots" width="22" height="22" patternUnits="userSpaceOnUse"><circle cx="2" cy="2" r="1.4" fill="#d4d2c6"/></pattern>
    <marker id="sq" markerWidth="8" markerHeight="8" refX="4" refY="4" orient="0" markerUnits="userSpaceOnUse"><rect x="0.5" y="0.5" width="7" height="7" fill="#f6f5ee" stroke="#bcbcb4" stroke-width="1"/></marker>
  </defs>
  <rect width="760" height="180" rx="4" fill="#f6f5ee"/>
  <rect width="760" height="180" rx="4" fill="url(#dots)"/>

  
    <path d="M180 90 H230" marker-end="url(#sq)"/>
    <path d="M380 90 H430" marker-end="url(#sq)"/>
    <path d="M590 90 H640" marker-end="url(#sq)"/>
  
  <path d="M192.43 80L191.48 80L194.93 72.30L195.90 72.30L192.43 80M197.73 80L196.80 80L196.80 74.46L197.73 74.46L197.73 75.41Q197.98 75 198.43 74.68Q198.89 74.37 199.53 74.37Q200.20 74.37 200.67 74.70Q201.14 75.03 201.30 75.56Q201.62 75.03 202.11 74.70Q202.61 74.37 203.23 74.37Q204.11 74.37 204.66 74.90Q205.20 75.44 205.20 76.31L205.20 80L204.27 80L204.27 76.52Q204.27 75.91 203.96 75.55Q203.64 75.19 203.08 75.19Q202.59 75.19 202.22 75.48Q201.86 75.77 201.66 76.24Q201.46 76.71 201.46 77.29L201.46 80L200.53 80L200.53 76.52Q200.53 75.91 200.22 75.55Q199.91 75.19 199.35 75.19Q198.86 75.19 198.49 75.48Q198.13 75.77 197.93 76.24Q197.73 76.71 197.73 77.29L197.73 80M209.02 80.09Q208.23 80.09 207.61 79.71Q207 79.34 206.64 78.69Q206.28 78.04 206.28 77.23Q206.28 76.40 206.64 75.75Q207 75.11 207.61 74.74Q208.23 74.37 209.02 74.37Q210 74.37 210.69 74.87Q211.37 75.37 211.52 76.23L210.58 76.37Q210.47 75.82 210.06 75.50Q209.65 75.18 209.02 75.18Q208.51 75.18 208.11 75.45Q207.71 75.71 207.47 76.17Q207.24 76.62 207.24 77.23Q207.24 77.82 207.47 78.28Q207.71 78.73 208.11 79Q208.51 79.26 209.02 79.26Q209.68 79.26 210.11 78.94Q210.54 78.61 210.62 78.08L211.57 78.19Q211.50 78.75 211.15 79.17Q210.80 79.60 210.26 79.85Q209.71 80.09 209.02 80.09M213.60 82L212.65 82L212.65 74.46L213.60 74.46L213.60 75.36Q213.85 74.91 214.37 74.64Q214.89 74.37 215.51 74.37Q216.35 74.37 216.96 74.73Q217.58 75.08 217.93 75.73Q218.27 76.37 218.27 77.23Q218.27 78.09 217.93 78.73Q217.58 79.37 216.96 79.73Q216.35 80.09 215.51 80.09Q214.91 80.09 214.38 79.81Q213.85 79.54 213.60 79.09L213.60 82M215.46 79.27Q215.99 79.27 216.41 79.02Q216.83 78.76 217.07 78.30Q217.31 77.83 217.31 77.23Q217.31 76.62 217.07 76.16Q216.83 75.70 216.41 75.44Q215.99 75.18 215.46 75.18Q214.92 75.18 214.49 75.44Q214.07 75.70 213.83 76.16Q213.60 76.62 213.60 77.23Q213.60 77.82 213.83 78.28Q214.07 78.75 214.49 79.01Q214.92 79.27 215.46 79.27" fill="#686c62"/>

  
    <rect x="30" y="55" width="150" height="70" rx="2" fill="#ffffff"/>
    <path d="M80.35 95L78.64 95L82.48 85.20L84.33 85.20L88.15 95L86.39 95L85.49 92.69L81.26 92.69L80.35 95M83.38 87.16L81.78 91.29L84.97 91.29L83.38 87.16M90.80 95L89.15 95L89.15 85.20L90.80 85.20L90.80 95M97.77 95.11Q96.63 95.11 95.97 94.52Q95.30 93.94 95.30 93.07Q95.30 92.02 96.05 91.45Q96.80 90.88 98.44 90.70L99.88 90.56L99.88 90.38Q99.88 89.76 99.47 89.41Q99.06 89.06 98.38 89.06Q97.74 89.06 97.34 89.39Q96.94 89.71 96.86 90.37L95.39 90.14Q95.57 89.11 96.38 88.47Q97.19 87.83 98.38 87.83Q99.27 87.83 99.95 88.15Q100.64 88.48 101.02 89.08Q101.41 89.69 101.41 90.56L101.41 95L99.88 95L99.88 93.98Q99.66 94.45 99.07 94.78Q98.48 95.11 97.77 95.11M99.88 91.89L99.88 91.70L98.51 91.86Q97.63 91.96 97.23 92.21Q96.83 92.47 96.83 93Q96.83 93.45 97.15 93.69Q97.47 93.94 98.02 93.94Q98.58 93.94 98.99 93.66Q99.41 93.38 99.64 92.91Q99.88 92.45 99.88 91.89M106.14 97.66Q105.31 97.66 104.62 97.39Q103.93 97.13 103.47 96.65Q103.02 96.18 102.89 95.57L104.38 95.28Q104.52 95.83 105 96.13Q105.48 96.43 106.17 96.43Q107.04 96.43 107.60 95.99Q108.16 95.55 108.16 94.69L108.16 93.67Q107.86 94.12 107.25 94.39Q106.64 94.66 105.92 94.66Q104.96 94.66 104.22 94.24Q103.48 93.81 103.06 93.04Q102.64 92.27 102.64 91.25Q102.64 90.20 103.06 89.44Q103.48 88.67 104.22 88.25Q104.96 87.83 105.94 87.83Q106.67 87.83 107.26 88.10Q107.85 88.36 108.16 88.81L108.16 87.94L109.70 87.94L109.70 94.54Q109.70 95.53 109.25 96.23Q108.80 96.93 108 97.30Q107.20 97.66 106.14 97.66M106.18 93.35Q107.04 93.35 107.60 92.76Q108.16 92.17 108.16 91.25Q108.16 90.31 107.60 89.73Q107.04 89.15 106.18 89.15Q105.31 89.15 104.75 89.73Q104.19 90.31 104.19 91.25Q104.19 92.19 104.75 92.77Q105.31 93.35 106.18 93.35M114.54 95.11Q113.48 95.11 112.67 94.64Q111.87 94.17 111.42 93.36Q110.97 92.54 110.97 91.47Q110.97 90.41 111.42 89.59Q111.87 88.77 112.66 88.30Q113.46 87.83 114.48 87.83Q115.60 87.83 116.40 88.36Q117.20 88.88 117.58 89.77Q117.96 90.66 117.82 91.75L112.51 91.75Q112.59 92.69 113.13 93.26Q113.67 93.82 114.54 93.82Q115.20 93.82 115.70 93.48Q116.21 93.14 116.33 92.62L117.76 93Q117.49 93.94 116.62 94.52Q115.74 95.11 114.54 95.11M112.59 90.59L116.23 90.59Q116.22 89.89 115.74 89.48Q115.25 89.06 114.48 89.06Q113.77 89.06 113.27 89.46Q112.78 89.86 112.59 90.59M120.69 95L119.16 95L119.16 87.94L120.69 87.94L120.69 88.99Q121 88.53 121.61 88.18Q122.23 87.83 123.07 87.83Q123.82 87.83 124.42 88.14Q125.01 88.45 125.35 89.03Q125.69 89.61 125.69 90.42L125.69 95L124.16 95L124.16 90.76Q124.16 90 123.75 89.59Q123.35 89.18 122.67 89.18Q121.75 89.18 121.22 89.92Q120.69 90.66 120.69 91.95L120.69 95M130.11 95.11Q129.12 95.11 128.45 94.51Q127.79 93.91 127.79 92.76L127.79 89.20L126.62 89.20L126.62 87.94L127.79 87.94L127.79 86.19L129.33 86.19L129.33 87.94L131.03 87.94L131.03 89.20L129.33 89.20L129.33 92.63Q129.33 93.19 129.59 93.48Q129.86 93.77 130.31 93.77Q130.50 93.77 130.68 93.73Q130.85 93.68 131.03 93.63L131.15 94.93Q130.92 95.03 130.65 95.07Q130.38 95.11 130.11 95.11" fill="#262d1e"/>
  
  
    <rect x="230" y="55" width="150" height="70" rx="2" fill="#ddf327"/>
    <path d="M270.53 86L268.87 86L268.87 76.20L271.20 76.20L273.61 81.97Q273.94 82.78 274.10 83.31Q274.25 83.83 274.25 83.83Q274.25 83.83 274.42 83.31Q274.59 82.78 274.92 81.97L277.33 76.20L279.60 76.20L279.60 86L277.95 86L277.95 80.39Q277.95 79.50 277.97 78.95Q277.99 78.40 277.99 78.40Q277.99 78.40 277.81 78.92Q277.62 79.43 277.29 80.26L274.89 86L273.58 86L271.18 80.26Q270.85 79.45 270.67 78.93Q270.48 78.41 270.48 78.41Q270.48 78.41 270.50 78.96Q270.53 79.50 270.53 80.39L270.53 86M285.93 86.11Q284.55 86.11 283.45 85.52Q282.36 84.92 281.73 83.80Q281.10 82.67 281.10 81.10Q281.10 79.53 281.73 78.41Q282.36 77.29 283.45 76.69Q284.54 76.09 285.93 76.09Q287.61 76.09 288.75 76.91Q289.89 77.73 290.15 79.20L288.50 79.49Q288.36 78.58 287.65 78.04Q286.93 77.50 285.93 77.50Q285 77.50 284.28 77.93Q283.56 78.36 283.15 79.16Q282.75 79.97 282.75 81.10Q282.75 82.22 283.16 83.03Q283.57 83.84 284.29 84.27Q285 84.70 285.93 84.70Q287.02 84.70 287.72 84.12Q288.43 83.55 288.57 82.61L290.20 82.84Q290.08 83.80 289.51 84.54Q288.94 85.29 288.01 85.70Q287.09 86.11 285.93 86.11M293.21 86L291.57 86L291.57 76.20L295.49 76.20Q296.45 76.20 297.17 76.56Q297.88 76.93 298.27 77.58Q298.67 78.23 298.67 79.11Q298.67 79.99 298.27 80.65Q297.88 81.31 297.17 81.67Q296.45 82.04 295.49 82.04L293.21 82.04L293.21 86M293.21 77.61L293.21 80.64L295.32 80.64Q296.10 80.64 296.57 80.22Q297.03 79.80 297.03 79.11Q297.03 78.43 296.57 78.02Q296.10 77.61 295.32 77.61L293.21 77.61M305.25 86.11Q304.43 86.11 303.80 85.83Q303.17 85.55 302.77 85.07Q302.38 84.59 302.24 84.01L303.57 83.58Q303.71 84.19 304.13 84.54Q304.56 84.88 305.25 84.88Q305.81 84.88 306.15 84.64Q306.49 84.39 306.49 83.96Q306.49 83.58 306.21 83.38Q305.93 83.17 305.48 83.05Q305.04 82.92 304.53 82.79Q304.03 82.65 303.58 82.44Q303.13 82.22 302.85 81.83Q302.57 81.44 302.57 80.78Q302.57 80.23 302.88 79.79Q303.19 79.35 303.74 79.09Q304.29 78.83 305.04 78.83Q306.10 78.83 306.86 79.31Q307.61 79.78 307.84 80.57L306.52 81.06Q306.37 80.48 305.96 80.25Q305.55 80.02 305.04 80.02Q304.60 80.02 304.31 80.20Q304.01 80.39 304.01 80.74Q304.01 81.09 304.30 81.26Q304.59 81.44 305.04 81.55Q305.48 81.66 305.99 81.79Q306.49 81.91 306.94 82.14Q307.39 82.37 307.67 82.79Q307.96 83.20 307.96 83.91Q307.96 84.56 307.61 85.06Q307.26 85.55 306.65 85.83Q306.03 86.11 305.25 86.11M312.41 86.11Q311.35 86.11 310.54 85.64Q309.74 85.17 309.29 84.36Q308.84 83.54 308.84 82.47Q308.84 81.41 309.29 80.59Q309.74 79.77 310.54 79.30Q311.34 78.83 312.36 78.83Q313.48 78.83 314.28 79.36Q315.07 79.88 315.45 80.77Q315.83 81.66 315.69 82.75L310.38 82.75Q310.47 83.69 311.01 84.26Q311.55 84.82 312.41 84.82Q313.07 84.82 313.58 84.48Q314.08 84.14 314.21 83.62L315.63 84Q315.37 84.94 314.49 85.52Q313.62 86.11 312.41 86.11M310.47 81.59L314.11 81.59Q314.09 80.89 313.61 80.48Q313.13 80.06 312.36 80.06Q311.64 80.06 311.15 80.46Q310.65 80.86 310.47 81.59M318.56 86L317.03 86L317.03 78.94L318.56 78.94L318.56 80.02Q318.87 79.45 319.43 79.14Q320 78.83 320.69 78.83Q320.91 78.83 321.15 78.87Q321.39 78.90 321.56 78.97L321.44 80.43Q321.22 80.33 321 80.30Q320.77 80.27 320.55 80.27Q319.74 80.27 319.15 81.01Q318.56 81.74 318.56 83.27L318.56 86M325.99 86L324.51 86L321.71 78.94L323.38 78.94L325.28 83.97L327.18 78.94L328.79 78.94L325.99 86M332.88 86.11Q331.82 86.11 331.01 85.64Q330.21 85.17 329.76 84.36Q329.31 83.54 329.31 82.47Q329.31 81.41 329.76 80.59Q330.21 79.77 331 79.30Q331.80 78.83 332.82 78.83Q333.94 78.83 334.74 79.36Q335.54 79.88 335.92 80.77Q336.30 81.66 336.16 82.75L330.85 82.75Q330.94 83.69 331.47 84.26Q332.01 84.82 332.88 84.82Q333.54 84.82 334.04 84.48Q334.55 84.14 334.67 83.62L336.10 84Q335.83 84.94 334.96 85.52Q334.08 86.11 332.88 86.11M330.94 81.59L334.57 81.59Q334.56 80.89 334.08 80.48Q333.60 80.06 332.82 80.06Q332.11 80.06 331.61 80.46Q331.12 80.86 330.94 81.59M339.03 86L337.50 86L337.50 78.94L339.03 78.94L339.03 80.02Q339.33 79.45 339.90 79.14Q340.47 78.83 341.15 78.83Q341.38 78.83 341.62 78.87Q341.86 78.90 342.02 78.97L341.91 80.43Q341.69 80.33 341.46 80.30Q341.24 80.27 341.01 80.27Q340.20 80.27 339.62 81.01Q339.03 81.74 339.03 83.27" fill="#262d1e"/>
    <path d="M261.33 104.09Q260.39 104.09 259.80 103.62Q259.21 103.15 259.03 102.45L259.89 102.17Q260.01 102.71 260.37 103Q260.73 103.28 261.33 103.28Q261.85 103.28 262.16 103.06Q262.47 102.84 262.47 102.42Q262.47 102.08 262.24 101.89Q262.01 101.71 261.65 101.60Q261.29 101.49 260.88 101.39Q260.48 101.29 260.12 101.13Q259.76 100.96 259.53 100.67Q259.30 100.37 259.30 99.86Q259.30 99.44 259.53 99.10Q259.77 98.76 260.20 98.57Q260.63 98.37 261.18 98.37Q261.99 98.37 262.57 98.74Q263.14 99.11 263.32 99.74L262.46 100.05Q262.33 99.57 262 99.37Q261.66 99.17 261.18 99.17Q260.77 99.17 260.49 99.34Q260.22 99.50 260.22 99.83Q260.22 100.14 260.45 100.30Q260.68 100.46 261.04 100.55Q261.41 100.64 261.82 100.74Q262.23 100.84 262.59 101.02Q262.96 101.19 263.19 101.52Q263.42 101.84 263.42 102.39Q263.42 102.89 263.14 103.27Q262.87 103.66 262.40 103.87Q261.94 104.09 261.33 104.09M266.50 104.09Q265.78 104.09 265.32 103.65Q264.85 103.21 264.85 102.36L264.85 99.24L263.91 99.24L263.91 98.46L264.85 98.46L264.85 97.05L265.80 97.05L265.80 98.46L267.20 98.46L267.20 99.24L265.80 99.24L265.80 102.28Q265.80 102.77 266.02 103.01Q266.24 103.25 266.61 103.25Q266.90 103.25 267.19 103.14L267.27 103.94Q267.12 104.02 266.90 104.06Q266.69 104.09 266.50 104.09M269.88 104.09Q268.96 104.09 268.44 103.64Q267.92 103.20 267.92 102.50Q267.92 101.67 268.52 101.23Q269.13 100.79 270.45 100.66L271.64 100.53L271.64 100.34Q271.64 99.79 271.27 99.48Q270.90 99.17 270.29 99.17Q269.72 99.17 269.36 99.46Q269 99.75 268.91 100.34L268.02 100.18Q268.15 99.39 268.75 98.88Q269.35 98.37 270.29 98.37Q270.97 98.37 271.48 98.62Q271.99 98.86 272.29 99.33Q272.58 99.79 272.58 100.44L272.58 104L271.64 104L271.64 103.08Q271.53 103.34 271.26 103.57Q271 103.80 270.64 103.94Q270.27 104.09 269.88 104.09M271.64 101.53L271.64 101.26L270.50 101.39Q269.63 101.49 269.25 101.73Q268.86 101.97 268.86 102.47Q268.86 102.88 269.16 103.10Q269.46 103.33 269.95 103.33Q270.45 103.33 270.83 103.08Q271.21 102.83 271.42 102.42Q271.64 102.01 271.64 101.53M274.93 104L273.99 104L273.99 98.46L274.93 98.46L274.93 99.41Q275.18 98.98 275.69 98.68Q276.20 98.37 276.89 98.37Q277.48 98.37 277.94 98.60Q278.40 98.84 278.67 99.29Q278.94 99.73 278.94 100.37L278.94 104L278.01 104L278.01 100.58Q278.01 99.91 277.65 99.55Q277.30 99.19 276.71 99.19Q275.89 99.19 275.41 99.85Q274.93 100.51 274.93 101.62L274.93 104M282.79 104.09Q281.97 104.09 281.34 103.73Q280.72 103.37 280.38 102.73Q280.03 102.09 280.03 101.23Q280.03 100.37 280.38 99.73Q280.72 99.08 281.34 98.73Q281.97 98.37 282.79 98.37Q283.41 98.37 283.94 98.64Q284.46 98.91 284.71 99.36L284.71 96.21L285.65 96.21L285.65 104L284.71 104L284.71 103.09Q284.46 103.54 283.94 103.81Q283.41 104.09 282.79 104.09M282.85 103.27Q283.40 103.27 283.81 103.01Q284.23 102.75 284.47 102.28Q284.71 101.82 284.71 101.23Q284.71 100.62 284.47 100.16Q284.23 99.70 283.81 99.44Q283.40 99.18 282.85 99.18Q282.32 99.18 281.89 99.44Q281.47 99.70 281.23 100.16Q280.99 100.62 280.99 101.23Q280.99 101.83 281.23 102.30Q281.47 102.76 281.89 103.02Q282.32 103.27 282.85 103.27M288.82 104.09Q287.91 104.09 287.38 103.64Q286.86 103.20 286.86 102.50Q286.86 101.67 287.47 101.23Q288.07 100.79 289.39 100.66L290.58 100.53L290.58 100.34Q290.58 99.79 290.21 99.48Q289.84 99.17 289.24 99.17Q288.67 99.17 288.30 99.46Q287.94 99.75 287.85 100.34L286.96 100.18Q287.09 99.39 287.69 98.88Q288.29 98.37 289.24 98.37Q289.91 98.37 290.42 98.62Q290.93 98.86 291.23 99.33Q291.53 99.79 291.53 100.44L291.53 104L290.58 104L290.58 103.08Q290.47 103.34 290.21 103.57Q289.94 103.80 289.58 103.94Q289.22 104.09 288.82 104.09M290.58 101.53L290.58 101.26L289.45 101.39Q288.58 101.49 288.19 101.73Q287.81 101.97 287.81 102.47Q287.81 102.88 288.10 103.10Q288.40 103.33 288.90 103.33Q289.39 103.33 289.77 103.08Q290.15 102.83 290.36 102.42Q290.58 102.01 290.58 101.53M293.87 104L292.92 104L292.92 96.21L293.87 96.21L293.87 104M297.81 104.09Q296.99 104.09 296.36 103.72Q295.73 103.35 295.36 102.71Q295 102.06 295 101.23Q295 100.39 295.36 99.75Q295.73 99.11 296.36 98.74Q296.99 98.37 297.81 98.37Q298.62 98.37 299.25 98.74Q299.89 99.11 300.25 99.75Q300.61 100.39 300.61 101.23Q300.61 102.06 300.25 102.71Q299.89 103.35 299.25 103.72Q298.62 104.09 297.81 104.09M297.81 103.26Q298.35 103.26 298.76 103Q299.18 102.75 299.42 102.28Q299.65 101.82 299.65 101.23Q299.65 100.62 299.42 100.16Q299.18 99.70 298.76 99.44Q298.35 99.18 297.81 99.18Q297.27 99.18 296.85 99.44Q296.43 99.70 296.19 100.16Q295.96 100.62 295.96 101.23Q295.96 101.82 296.19 102.28Q296.43 102.75 296.85 103Q297.27 103.26 297.81 103.26M302.69 104L301.76 104L301.76 98.46L302.69 98.46L302.69 99.41Q302.94 98.98 303.45 98.68Q303.97 98.37 304.66 98.37Q305.24 98.37 305.70 98.60Q306.17 98.84 306.44 99.29Q306.71 99.73 306.71 100.37L306.71 104L305.77 104L305.77 100.58Q305.77 99.91 305.42 99.55Q305.07 99.19 304.47 99.19Q303.66 99.19 303.17 99.85Q302.69 100.51 302.69 101.62L302.69 104M310.54 104.09Q309.73 104.09 309.11 103.72Q308.49 103.35 308.14 102.71Q307.79 102.06 307.79 101.23Q307.79 100.39 308.15 99.75Q308.50 99.11 309.11 98.74Q309.72 98.37 310.51 98.37Q311.36 98.37 311.96 98.77Q312.57 99.17 312.87 99.84Q313.16 100.51 313.05 101.35L308.75 101.35Q308.80 102.21 309.28 102.74Q309.76 103.27 310.54 103.27Q311.14 103.27 311.59 102.95Q312.04 102.64 312.15 102.19L313.01 102.41Q312.82 103.15 312.15 103.62Q311.48 104.09 310.54 104.09M308.82 100.60L312.10 100.60Q312.08 99.94 311.64 99.56Q311.20 99.17 310.51 99.17Q309.86 99.17 309.41 99.55Q308.96 99.93 308.82 100.60M318.49 104.09Q317.55 104.09 316.96 103.62Q316.36 103.15 316.19 102.45L317.05 102.17Q317.17 102.71 317.52 103Q317.88 103.28 318.49 103.28Q319 103.28 319.32 103.06Q319.63 102.84 319.63 102.42Q319.63 102.08 319.40 101.89Q319.17 101.71 318.81 101.60Q318.44 101.49 318.04 101.39Q317.64 101.29 317.28 101.13Q316.91 100.96 316.68 100.67Q316.45 100.37 316.45 99.86Q316.45 99.44 316.69 99.10Q316.92 98.76 317.35 98.57Q317.78 98.37 318.33 98.37Q319.15 98.37 319.72 98.74Q320.30 99.11 320.48 99.74L319.62 100.05Q319.49 99.57 319.15 99.37Q318.82 99.17 318.33 99.17Q317.93 99.17 317.65 99.34Q317.38 99.50 317.38 99.83Q317.38 100.14 317.61 100.30Q317.84 100.46 318.20 100.55Q318.56 100.64 318.98 100.74Q319.39 100.84 319.75 101.02Q320.11 101.19 320.35 101.52Q320.58 101.84 320.58 102.39Q320.58 102.89 320.30 103.27Q320.03 103.66 319.56 103.87Q319.09 104.09 318.49 104.09M324.10 104.09Q323.28 104.09 322.66 103.72Q322.04 103.35 321.69 102.71Q321.35 102.06 321.35 101.23Q321.35 100.39 321.70 99.75Q322.05 99.11 322.66 98.74Q323.27 98.37 324.06 98.37Q324.91 98.37 325.52 98.77Q326.12 99.17 326.42 99.84Q326.71 100.51 326.60 101.35L322.30 101.35Q322.35 102.21 322.83 102.74Q323.32 103.27 324.10 103.27Q324.69 103.27 325.14 102.95Q325.59 102.64 325.70 102.19L326.56 102.41Q326.37 103.15 325.70 103.62Q325.03 104.09 324.10 104.09M322.37 100.60L325.65 100.60Q325.64 99.94 325.20 99.56Q324.76 99.17 324.06 99.17Q323.41 99.17 322.96 99.55Q322.51 99.93 322.37 100.60M328.72 104L327.78 104L327.78 98.46L328.72 98.46L328.72 99.44Q328.97 98.91 329.44 98.64Q329.90 98.37 330.44 98.37Q330.62 98.37 330.81 98.40Q330.99 98.42 331.13 98.49L331.06 99.38Q330.87 99.29 330.70 99.28Q330.52 99.26 330.34 99.26Q329.65 99.26 329.18 99.91Q328.72 100.56 328.72 101.78L328.72 104M334.43 104L333.49 104L331.31 98.46L332.34 98.46L333.97 102.79L335.62 98.46L336.60 98.46L334.43 104M338.40 104L337.45 104L337.45 98.46L338.40 98.46L338.40 104M337.92 97.49Q337.64 97.49 337.44 97.30Q337.25 97.11 337.25 96.83Q337.25 96.54 337.44 96.36Q337.64 96.17 337.92 96.17Q338.22 96.17 338.41 96.36Q338.61 96.54 338.61 96.83Q338.61 97.11 338.41 97.30Q338.22 97.49 337.92 97.49M342.27 104.09Q341.48 104.09 340.86 103.71Q340.24 103.34 339.89 102.69Q339.53 102.04 339.53 101.23Q339.53 100.40 339.89 99.75Q340.24 99.11 340.86 98.74Q341.48 98.37 342.27 98.37Q343.25 98.37 343.93 98.87Q344.62 99.37 344.77 100.23L343.83 100.37Q343.72 99.82 343.31 99.50Q342.90 99.18 342.27 99.18Q341.76 99.18 341.36 99.45Q340.96 99.71 340.72 100.17Q340.49 100.62 340.49 101.23Q340.49 101.82 340.72 102.28Q340.96 102.73 341.36 103Q341.76 103.26 342.27 103.26Q342.93 103.26 343.36 102.94Q343.79 102.61 343.86 102.08L344.82 102.19Q344.74 102.75 344.40 103.17Q344.05 103.60 343.51 103.85Q342.96 104.09 342.27 104.09M348.30 104.09Q347.48 104.09 346.86 103.72Q346.24 103.35 345.89 102.71Q345.55 102.06 345.55 101.23Q345.55 100.39 345.90 99.75Q346.25 99.11 346.86 98.74Q347.47 98.37 348.26 98.37Q349.11 98.37 349.72 98.77Q350.32 99.17 350.62 99.84Q350.91 100.51 350.80 101.35L346.50 101.35Q346.55 102.21 347.03 102.74Q347.52 103.27 348.30 103.27Q348.89 103.27 349.34 102.95Q349.79 102.64 349.90 102.19L350.76 102.41Q350.57 103.15 349.90 103.62Q349.23 104.09 348.30 104.09M346.57 100.60L349.85 100.60Q349.84 99.94 349.40 99.56Q348.96 99.17 348.26 99.17Q347.61 99.17 347.16 99.55Q346.71 99.93 346.57 100.60" fill="#3f5b1e"/>
  
  
    <rect x="430" y="55" width="160" height="70" rx="2" fill="#3f5b1e"/>
    <path d="M460.32 95L458.67 95L458.67 85.20L465.18 85.20L465.18 86.61L460.32 86.61L460.32 89.18L464.27 89.18L464.27 90.59L460.32 90.59L460.32 95M469.46 95.11Q468.41 95.11 467.59 94.64Q466.76 94.17 466.29 93.35Q465.82 92.52 465.82 91.46Q465.82 90.39 466.29 89.58Q466.76 88.76 467.59 88.29Q468.41 87.83 469.46 87.83Q470.53 87.83 471.35 88.29Q472.16 88.76 472.63 89.58Q473.10 90.39 473.10 91.46Q473.10 92.52 472.63 93.35Q472.16 94.17 471.35 94.64Q470.53 95.11 469.46 95.11M469.46 93.80Q470.39 93.80 470.97 93.14Q471.55 92.49 471.55 91.46Q471.55 90.44 470.97 89.79Q470.39 89.15 469.46 89.15Q468.55 89.15 467.96 89.78Q467.38 90.42 467.38 91.46Q467.38 92.49 467.96 93.14Q468.55 93.80 469.46 93.80M475.93 95L474.40 95L474.40 87.94L475.93 87.94L475.93 89.02Q476.24 88.45 476.81 88.14Q477.37 87.83 478.06 87.83Q478.28 87.83 478.52 87.87Q478.76 87.90 478.93 87.97L478.81 89.43Q478.59 89.33 478.37 89.30Q478.14 89.27 477.92 89.27Q477.11 89.27 476.52 90.01Q475.93 90.74 475.93 92.27L475.93 95M483.03 95.11Q481.96 95.11 481.16 94.64Q480.35 94.17 479.91 93.36Q479.46 92.54 479.46 91.47Q479.46 90.41 479.91 89.59Q480.35 88.77 481.15 88.30Q481.95 87.83 482.97 87.83Q484.09 87.83 484.89 88.36Q485.69 88.88 486.07 89.77Q486.44 90.66 486.30 91.75L481 91.75Q481.08 92.69 481.62 93.26Q482.16 93.82 483.03 93.82Q483.69 93.82 484.19 93.48Q484.69 93.14 484.82 92.62L486.25 93Q485.98 93.94 485.11 94.52Q484.23 95.11 483.03 95.11M481.08 90.59L484.72 90.59Q484.71 89.89 484.23 89.48Q483.74 89.06 482.97 89.06Q482.26 89.06 481.76 89.46Q481.26 89.86 481.08 90.59M490.10 95.11Q489.29 95.11 488.66 94.83Q488.03 94.55 487.63 94.07Q487.23 93.59 487.09 93.01L488.42 92.58Q488.56 93.19 488.99 93.54Q489.41 93.88 490.10 93.88Q490.66 93.88 491 93.64Q491.34 93.39 491.34 92.96Q491.34 92.58 491.06 92.38Q490.78 92.17 490.34 92.05Q489.89 91.92 489.38 91.79Q488.88 91.65 488.43 91.44Q487.98 91.22 487.70 90.83Q487.42 90.44 487.42 89.78Q487.42 89.23 487.73 88.79Q488.04 88.35 488.59 88.09Q489.15 87.83 489.89 87.83Q490.95 87.83 491.71 88.31Q492.46 88.78 492.69 89.57L491.37 90.06Q491.22 89.48 490.81 89.25Q490.41 89.02 489.89 89.02Q489.45 89.02 489.16 89.20Q488.87 89.39 488.87 89.74Q488.87 90.09 489.15 90.26Q489.44 90.44 489.89 90.55Q490.34 90.66 490.84 90.79Q491.34 90.91 491.79 91.14Q492.24 91.37 492.53 91.79Q492.81 92.20 492.81 92.91Q492.81 93.56 492.46 94.06Q492.11 94.55 491.50 94.83Q490.88 95.11 490.10 95.11M496.89 95.11Q495.89 95.11 495.23 94.51Q494.56 93.91 494.56 92.76L494.56 89.20L493.40 89.20L493.40 87.94L494.56 87.94L494.56 86.19L496.10 86.19L496.10 87.94L497.81 87.94L497.81 89.20L496.10 89.20L496.10 92.63Q496.10 93.19 496.37 93.48Q496.64 93.77 497.08 93.77Q497.28 93.77 497.46 93.73Q497.63 93.68 497.81 93.63L497.92 94.93Q497.70 95.03 497.43 95.07Q497.15 95.11 496.89 95.11M505.83 95.11Q505.11 95.11 504.48 94.80Q503.85 94.50 503.54 94.01L503.54 95L502 95L502 85.09L503.54 85.09L503.54 88.92Q503.85 88.43 504.48 88.13Q505.11 87.83 505.83 87.83Q506.88 87.83 507.66 88.29Q508.44 88.74 508.87 89.55Q509.29 90.37 509.29 91.47Q509.29 92.56 508.87 93.38Q508.44 94.20 507.66 94.66Q506.88 95.11 505.83 95.11M505.64 93.80Q506.25 93.80 506.72 93.50Q507.19 93.21 507.47 92.68Q507.74 92.16 507.74 91.47Q507.74 90.44 507.14 89.79Q506.55 89.15 505.64 89.15Q504.71 89.15 504.13 89.79Q503.54 90.44 503.54 91.47Q503.54 92.14 503.80 92.67Q504.07 93.19 504.55 93.50Q505.02 93.80 505.64 93.80M512.74 95.11Q511.60 95.11 510.94 94.52Q510.27 93.94 510.27 93.07Q510.27 92.02 511.02 91.45Q511.77 90.88 513.41 90.70L514.85 90.56L514.85 90.38Q514.85 89.76 514.44 89.41Q514.02 89.06 513.35 89.06Q512.71 89.06 512.31 89.39Q511.91 89.71 511.83 90.37L510.36 90.14Q510.54 89.11 511.35 88.47Q512.16 87.83 513.35 87.83Q514.23 87.83 514.92 88.15Q515.61 88.48 515.99 89.08Q516.38 89.69 516.38 90.56L516.38 95L514.85 95L514.85 93.98Q514.63 94.45 514.04 94.78Q513.45 95.11 512.74 95.11M514.85 91.89L514.85 91.70L513.48 91.86Q512.60 91.96 512.20 92.21Q511.80 92.47 511.80 93Q511.80 93.45 512.12 93.69Q512.44 93.94 512.99 93.94Q513.55 93.94 513.96 93.66Q514.37 93.38 514.61 92.91Q514.85 92.45 514.85 91.89M521.14 95.11Q520.10 95.11 519.30 94.64Q518.49 94.16 518.04 93.33Q517.58 92.51 517.58 91.46Q517.58 90.41 518.04 89.59Q518.49 88.77 519.30 88.30Q520.10 87.83 521.14 87.83Q522.42 87.83 523.33 88.49Q524.24 89.15 524.43 90.31L522.89 90.53Q522.77 89.88 522.31 89.51Q521.85 89.15 521.14 89.15Q520.58 89.15 520.12 89.44Q519.67 89.74 519.40 90.25Q519.13 90.77 519.13 91.46Q519.13 92.14 519.40 92.67Q519.67 93.19 520.12 93.50Q520.58 93.80 521.14 93.80Q521.88 93.80 522.35 93.42Q522.82 93.04 522.91 92.42L524.50 92.62Q524.40 93.35 523.94 93.92Q523.49 94.48 522.77 94.80Q522.05 95.11 521.14 95.11M527.23 95L525.70 95L525.70 85.09L527.23 85.09L527.23 90.62L530.15 87.94L532.20 87.94L529.34 90.63L532.43 95L530.59 95L528.22 91.70L527.23 92.63L527.23 95M537.19 91.82L532.85 91.82L532.85 90.53L537.19 90.53L537.19 91.82M541.79 95.11Q540.72 95.11 539.92 94.64Q539.11 94.17 538.66 93.36Q538.22 92.54 538.22 91.47Q538.22 90.41 538.66 89.59Q539.11 88.77 539.91 88.30Q540.71 87.83 541.73 87.83Q542.85 87.83 543.65 88.36Q544.45 88.88 544.83 89.77Q545.20 90.66 545.06 91.75L539.76 91.75Q539.84 92.69 540.38 93.26Q540.92 93.82 541.79 93.82Q542.45 93.82 542.95 93.48Q543.45 93.14 543.58 92.62L545.01 93Q544.74 93.94 543.87 94.52Q542.99 95.11 541.79 95.11M539.84 90.59L543.48 90.59Q543.47 89.89 542.98 89.48Q542.50 89.06 541.73 89.06Q541.02 89.06 540.52 89.46Q540.02 89.86 539.84 90.59M547.93 95L546.41 95L546.41 87.94L547.93 87.94L547.93 88.99Q548.24 88.53 548.86 88.18Q549.47 87.83 550.31 87.83Q551.07 87.83 551.66 88.14Q552.26 88.45 552.60 89.03Q552.93 89.61 552.93 90.42L552.93 95L551.40 95L551.40 90.76Q551.40 90 551 89.59Q550.59 89.18 549.92 89.18Q549 89.18 548.47 89.92Q547.93 90.66 547.93 91.95L547.93 95M557.63 95.11Q556.59 95.11 555.81 94.66Q555.03 94.20 554.60 93.38Q554.18 92.56 554.18 91.47Q554.18 90.37 554.60 89.55Q555.03 88.74 555.81 88.29Q556.59 87.83 557.63 87.83Q558.38 87.83 559 88.13Q559.62 88.43 559.92 88.92L559.92 85.09L561.47 85.09L561.47 95L559.92 95L559.92 94.01Q559.62 94.50 558.99 94.80Q558.36 95.11 557.63 95.11M557.83 93.80Q558.75 93.80 559.34 93.14Q559.92 92.49 559.92 91.47Q559.92 90.44 559.34 89.79Q558.75 89.15 557.83 89.15Q556.91 89.15 556.32 89.79Q555.73 90.44 555.73 91.47Q555.73 92.49 556.32 93.14Q556.91 93.80 557.83 93.80" fill="#f6f5ee"/>
  
  
    <rect x="640" y="60" width="100" height="60" rx="2" fill="#ffffff"/>
    <path d="M680.51 95.10Q679.53 95.10 678.81 94.68Q678.09 94.26 677.70 93.50Q677.30 92.74 677.30 91.72Q677.30 90.70 677.70 89.94Q678.09 89.19 678.81 88.77Q679.53 88.34 680.51 88.34Q681.20 88.34 681.78 88.62Q682.36 88.90 682.63 89.36L682.63 85.80L684.07 85.80L684.07 95L682.63 95L682.63 94.08Q682.36 94.53 681.77 94.82Q681.19 95.10 680.51 95.10M680.69 93.88Q681.55 93.88 682.09 93.28Q682.63 92.67 682.63 91.72Q682.63 90.76 682.09 90.16Q681.55 89.57 680.69 89.57Q679.83 89.57 679.29 90.16Q678.74 90.76 678.74 91.72Q678.74 92.67 679.29 93.28Q679.83 93.88 680.69 93.88M687.63 95.10Q686.58 95.10 685.96 94.56Q685.35 94.01 685.35 93.21Q685.35 92.23 686.04 91.70Q686.74 91.18 688.26 91.01L689.60 90.88L689.60 90.71Q689.60 90.14 689.21 89.81Q688.83 89.49 688.21 89.49Q687.61 89.49 687.24 89.79Q686.87 90.09 686.79 90.70L685.42 90.49Q685.59 89.53 686.35 88.94Q687.10 88.34 688.21 88.34Q689.02 88.34 689.66 88.64Q690.30 88.94 690.66 89.51Q691.01 90.07 691.01 90.88L691.01 95L689.60 95L689.60 94.05Q689.39 94.49 688.84 94.80Q688.30 95.10 687.63 95.10M689.60 92.11L689.60 91.93L688.32 92.09Q687.50 92.18 687.13 92.41Q686.76 92.65 686.76 93.14Q686.76 93.56 687.06 93.78Q687.36 94.01 687.87 94.01Q688.39 94.01 688.77 93.75Q689.15 93.49 689.38 93.06Q689.60 92.63 689.60 92.11M695.10 95.10Q694.17 95.10 693.56 94.55Q692.94 93.99 692.94 92.92L692.94 89.62L691.86 89.62L691.86 88.45L692.94 88.45L692.94 86.82L694.37 86.82L694.37 88.45L695.95 88.45L695.95 89.62L694.37 89.62L694.37 92.80Q694.37 93.32 694.62 93.59Q694.86 93.86 695.28 93.86Q695.46 93.86 695.62 93.82Q695.78 93.78 695.95 93.73L696.06 94.94Q695.85 95.03 695.60 95.06Q695.34 95.10 695.10 95.10M699.05 95.10Q698 95.10 697.38 94.56Q696.76 94.01 696.76 93.21Q696.76 92.23 697.46 91.70Q698.15 91.18 699.67 91.01L701.01 90.88L701.01 90.71Q701.01 90.14 700.63 89.81Q700.24 89.49 699.62 89.49Q699.02 89.49 698.65 89.79Q698.28 90.09 698.20 90.70L696.84 90.49Q697.01 89.53 697.76 88.94Q698.51 88.34 699.62 88.34Q700.44 88.34 701.08 88.64Q701.71 88.94 702.07 89.51Q702.43 90.07 702.43 90.88L702.43 95L701.01 95L701.01 94.05Q700.80 94.49 700.26 94.80Q699.71 95.10 699.05 95.10M701.01 92.11L701.01 91.93L699.74 92.09Q698.92 92.18 698.55 92.41Q698.18 92.65 698.18 93.14Q698.18 93.56 698.48 93.78Q698.77 94.01 699.28 94.01Q699.80 94.01 700.19 93.75Q700.57 93.49 700.79 93.06Q701.01 92.63 701.01 92.11" fill="#262d1e"/>
  
</svg>
