<svg width="980" height="280" viewBox="0 0 980 280" fill="none" xmlns="http://www.w3.org/2000/svg" font-family="Matter, Inter, system-ui, sans-serif">
  <defs>
    <pattern id="dots" width="22" height="22" patternUnits="userSpaceOnUse"><circle cx="2" cy="2" r="1.4" fill="#d4d2c6"/></pattern>
    <marker id="sq" markerWidth="8" markerHeight="8" refX="4" refY="4" orient="0" markerUnits="userSpaceOnUse"><rect x="0.5" y="0.5" width="7" height="7" fill="#f6f5ee" stroke="#bcbcb4" stroke-width="1"/></marker>
  </defs>
  <rect width="980" height="280" rx="4" fill="#f6f5ee"/>
  <rect width="980" height="280" rx="4" fill="url(#dots)"/>

  <!-- user -->
  <rect x="40" y="110" width="120" height="70" rx="2" fill="#262d1e"/>
  <path d="M82.72 150.12Q81.51 150.12 80.79 149.49Q80.08 148.86 80.08 147.93Q80.08 146.81 80.88 146.20Q81.69 145.59 83.44 145.40L84.98 145.25L84.98 145.05Q84.98 144.39 84.54 144.01Q84.10 143.64 83.38 143.64Q82.69 143.64 82.26 143.99Q81.84 144.33 81.75 145.03L80.17 144.79Q80.37 143.69 81.23 143Q82.11 142.32 83.38 142.32Q84.33 142.32 85.06 142.66Q85.80 143.01 86.21 143.66Q86.62 144.31 86.62 145.25L86.62 150L84.98 150L84.98 148.91Q84.75 149.41 84.12 149.77Q83.48 150.12 82.72 150.12M84.98 146.67L84.98 146.46L83.52 146.64Q82.57 146.75 82.14 147.01Q81.72 147.28 81.72 147.85Q81.72 148.34 82.06 148.60Q82.41 148.86 82.99 148.86Q83.59 148.86 84.03 148.56Q84.48 148.26 84.73 147.76Q84.98 147.27 84.98 146.67M94.27 150.12Q93.46 150.12 92.83 149.79Q92.20 149.46 91.83 148.84Q91.47 148.23 91.47 147.39L91.47 142.44L93.11 142.44L93.11 146.97Q93.11 147.78 93.54 148.23Q93.97 148.68 94.70 148.68Q95.68 148.68 96.26 147.88Q96.83 147.07 96.83 145.69L96.83 142.44L98.47 142.44L98.47 150L96.83 150L96.83 148.88Q96.50 149.37 95.84 149.75Q95.19 150.12 94.27 150.12M102.93 150.12Q102.06 150.12 101.38 149.82Q100.70 149.52 100.28 149Q99.85 148.49 99.70 147.87L101.13 147.41Q101.28 148.06 101.73 148.43Q102.19 148.80 102.93 148.80Q103.53 148.80 103.89 148.54Q104.26 148.28 104.26 147.81Q104.26 147.41 103.96 147.19Q103.66 146.97 103.18 146.84Q102.70 146.70 102.16 146.56Q101.62 146.41 101.14 146.18Q100.66 145.95 100.36 145.53Q100.06 145.11 100.06 144.41Q100.06 143.82 100.39 143.35Q100.72 142.88 101.31 142.60Q101.91 142.32 102.70 142.32Q103.84 142.32 104.65 142.83Q105.46 143.34 105.70 144.18L104.29 144.71Q104.13 144.09 103.69 143.84Q103.26 143.59 102.70 143.59Q102.23 143.59 101.92 143.79Q101.61 143.99 101.61 144.36Q101.61 144.74 101.91 144.92Q102.22 145.11 102.70 145.23Q103.18 145.35 103.72 145.49Q104.26 145.62 104.74 145.87Q105.22 146.12 105.53 146.56Q105.84 147 105.84 147.76Q105.84 148.46 105.46 148.99Q105.09 149.52 104.43 149.82Q103.77 150.12 102.93 150.12M110.61 150.12Q109.47 150.12 108.60 149.62Q107.74 149.12 107.26 148.24Q106.78 147.36 106.78 146.22Q106.78 145.08 107.26 144.20Q107.74 143.32 108.60 142.82Q109.45 142.32 110.55 142.32Q111.75 142.32 112.60 142.88Q113.46 143.44 113.86 144.40Q114.27 145.35 114.12 146.52L108.43 146.52Q108.52 147.53 109.10 148.13Q109.68 148.74 110.61 148.74Q111.31 148.74 111.85 148.37Q112.39 148 112.53 147.45L114.06 147.85Q113.77 148.86 112.83 149.49Q111.90 150.12 110.61 150.12M108.52 145.28L112.42 145.28Q112.41 144.53 111.89 144.08Q111.37 143.64 110.55 143.64Q109.78 143.64 109.25 144.07Q108.72 144.50 108.52 145.28M117.19 150L115.56 150L115.56 142.44L117.19 142.44L117.19 143.59Q117.52 142.98 118.13 142.65Q118.74 142.32 119.47 142.32Q119.71 142.32 119.97 142.36Q120.22 142.40 120.40 142.47L120.28 144.03Q120.04 143.93 119.80 143.90Q119.56 143.87 119.32 143.87Q118.45 143.87 117.82 144.65Q117.19 145.44 117.19 147.07" fill="#e3f68b"/>

  
    <path d="M160 130 H190 V85 H218" marker-end="url(#sq)"/>
    <path d="M160 160 H190 V205 H218" marker-end="url(#sq)"/>
    <path d="M362 95 H378" marker-end="url(#sq)"/>
    <path d="M492 95 H508" marker-end="url(#sq)"/>
    <path d="M622 95 H638" marker-end="url(#sq)"/>
    <path d="M752 95 H768" marker-end="url(#sq)"/>
  

  <!-- zone: permission level -->
  <rect x="220" y="40" width="720" height="92" rx="2" fill="#ece9e0"/>
  <path d="M236.06 62L234.77 62L234.77 54.30L237.85 54.30Q238.61 54.30 239.17 54.59Q239.73 54.87 240.04 55.38Q240.35 55.90 240.35 56.59Q240.35 57.28 240.04 57.80Q239.73 58.31 239.17 58.60Q238.61 58.89 237.85 58.89L236.06 58.89L236.06 62M236.06 55.41L236.06 57.79L237.72 57.79Q238.33 57.79 238.70 57.46Q239.06 57.13 239.06 56.59Q239.06 56.05 238.70 55.73Q238.33 55.41 237.72 55.41M247.49 62L242.34 62L242.34 54.30L247.45 54.30L247.45 55.41L243.64 55.41L243.64 57.42L246.74 57.42L246.74 58.53L243.64 58.53L243.64 60.89L247.49 60.89M250.91 62L249.61 62L249.61 54.30L252.56 54.30Q253.27 54.30 253.80 54.58Q254.34 54.85 254.64 55.35Q254.94 55.85 254.94 56.51Q254.94 57.18 254.57 57.73Q254.21 58.27 253.58 58.52L255.70 62L254.19 62L252.27 58.72L250.91 58.72L250.91 62M250.91 55.41L250.91 57.61L252.34 57.61Q252.94 57.61 253.30 57.30Q253.66 56.99 253.66 56.51Q253.66 56.02 253.30 55.71Q252.94 55.41 252.34 55.41M258.83 62L257.54 62L257.54 54.30L259.36 54.30L261.25 58.83Q261.52 59.47 261.64 59.88Q261.76 60.30 261.76 60.30Q261.76 60.30 261.89 59.88Q262.02 59.47 262.29 58.83L264.18 54.30L265.96 54.30L265.96 62L264.67 62L264.67 57.59Q264.67 56.90 264.68 56.46Q264.70 56.03 264.70 56.03Q264.70 56.03 264.56 56.43Q264.41 56.84 264.15 57.49L262.27 62L261.23 62L259.35 57.49Q259.09 56.85 258.94 56.45Q258.80 56.04 258.80 56.04Q258.80 56.04 258.82 56.47Q258.83 56.90 258.83 57.59M269.80 62L268.50 62L268.50 54.30L269.80 54.30M275 62.09Q273.80 62.09 272.95 61.47Q272.10 60.84 271.84 59.70L273.01 59.36Q273.18 60.13 273.72 60.55Q274.27 60.98 275 60.98Q275.60 60.98 276.02 60.71Q276.43 60.44 276.43 59.84Q276.43 59.47 276.20 59.24Q275.97 59.02 275.60 58.87Q275.22 58.72 274.77 58.60Q274.32 58.48 273.87 58.33Q273.42 58.17 273.05 57.94Q272.67 57.70 272.44 57.31Q272.21 56.93 272.21 56.34Q272.21 55.69 272.56 55.21Q272.91 54.74 273.51 54.48Q274.10 54.21 274.82 54.21Q275.53 54.21 276.11 54.45Q276.70 54.69 277.10 55.11Q277.50 55.54 277.64 56.14L276.50 56.58Q276.33 55.96 275.89 55.64Q275.44 55.32 274.81 55.32Q274.21 55.32 273.85 55.58Q273.50 55.84 273.50 56.28Q273.50 56.61 273.73 56.81Q273.96 57.02 274.33 57.14Q274.71 57.27 275.16 57.38Q275.62 57.49 276.07 57.64Q276.52 57.80 276.90 58.05Q277.27 58.30 277.50 58.72Q277.73 59.13 277.73 59.76Q277.73 60.52 277.37 61.04Q277.01 61.56 276.38 61.82Q275.76 62.09 275 62.09M282.57 62.09Q281.37 62.09 280.52 61.47Q279.67 60.84 279.40 59.70L280.58 59.36Q280.74 60.13 281.29 60.55Q281.83 60.98 282.57 60.98Q283.16 60.98 283.58 60.71QNaN 60.44 NaN 59.84QNaN 59.47 283.77 59.24Q283.54 59.02 283.16 58.87Q282.79 58.72 282.34 58.60Q281.89 58.48 281.44 58.33Q280.99 58.17 280.61 57.94Q280.24 57.70 280.01 57.31Q279.78 56.93 279.78 56.34Q279.78 55.69 280.13 55.21Q280.48 54.74 281.07 54.48Q281.67 54.21 282.38 54.21Q283.10 54.21 283.68 54.45Q284.26 54.69 284.67 55.11Q285.07 55.54 285.21 56.14L284.07 56.58Q283.90 55.96 283.46 55.64Q283.01 55.32 282.37 55.32Q281.78 55.32 281.42 55.58Q281.06 55.84 281.06 56.28Q281.06 56.61 281.29 56.81Q281.53 57.02 281.90 57.14Q282.27 57.27 282.73 57.38Q283.19 57.49 283.64 57.64Q284.09 57.80 284.46 58.05Q284.84 58.30 285.07 58.72Q285.30 59.13 285.30 59.76Q285.30 60.52 284.94 61.04Q284.57 61.56 283.95 61.82Q283.33 62.09 282.57 62.09M288.77 62L287.48 62L287.48 54.30L288.77 54.30M294.81 62.09Q293.98 62.09 293.27 61.80Q292.56 61.51 292.03 60.97Q291.51 60.44 291.23 59.72Q290.94 59.01 290.94 58.15Q290.94 57.29 291.23 56.58Q291.51 55.86 292.03 55.33Q292.56 54.80 293.27 54.50Q293.98 54.21 294.81 54.21Q295.64 54.21 296.34 54.50Q297.04 54.80 297.57 55.33Q298.09 55.86 298.38 56.58Q298.67 57.29 298.67 58.15Q298.67 59.01 298.38 59.72Q298.09 60.44 297.57 60.97Q297.04 61.51 296.34 61.80Q295.64 62.09 294.81 62.09M294.81 60.98Q295.56 60.98 296.14 60.61Q296.71 60.24 297.04 59.60Q297.37 58.96 297.37 58.15Q297.37 57.34 297.04 56.70Q296.71 56.06 296.14 55.69Q295.56 55.32 294.81 55.32Q294.06 55.32 293.48 55.69Q292.90 56.05 292.57 56.69Q292.24 57.33 292.24 58.15Q292.24 58.96 292.57 59.61Q292.90 60.25 293.48 60.61Q294.06 60.98 294.81 60.98M302.15 62L300.85 62L300.85 54.30L302.47 54.30L305.19 58.93Q305.52 59.54 305.70 59.93Q305.88 60.33 305.88 60.33Q305.88 60.33 305.86 59.89Q305.84 59.46 305.84 58.78L305.84 54.30L307.14 54.30L307.14 62L305.52 62L302.81 57.37Q302.47 56.75 302.29 56.36Q302.11 55.97 302.11 55.97Q302.11 55.97 302.13 56.41Q302.15 56.84 302.15 57.52M318.06 62L313.04 62L313.04 54.30L314.33 54.30L314.33 60.89L318.06 60.89M325.13 62L319.99 62L319.99 54.30L325.10 54.30L325.10 55.41L321.28 55.41L321.28 57.42L324.39 57.42L324.39 58.53L321.28 58.53L321.28 60.89L325.13 60.89M330.86 62L329.39 62L326.53 54.30L327.91 54.30L330.15 60.39L332.39 54.30L333.74 54.30M340.69 62L335.54 62L335.54 54.30L340.65 54.30L340.65 55.41L336.84 55.41L336.84 57.42L339.94 57.42L339.94 58.53L336.84 58.53L336.84 60.89L340.69 60.89M347.84 62L342.81 62L342.81 54.30L344.11 54.30L344.11 60.89L347.84 60.89M363.29 59.50L352.79 59.50L352.79 58.49L363.29 58.49M369.97 64L368.76 64L368.76 56.46L369.97 56.46L369.97 57.23Q370.22 56.84 370.71 56.60Q371.21 56.37 371.78 56.37Q372.60 56.37 373.21 56.73Q373.82 57.08 374.16 57.72Q374.50 58.36 374.50 59.23Q374.50 60.09 374.16 60.73Q373.82 61.37 373.21 61.73Q372.60 62.09 371.78 62.09Q371.21 62.09 370.71 61.85Q370.22 61.60 369.97 61.22L369.97 64M371.62 61.05Q372.11 61.05 372.48 60.82Q372.85 60.59 373.06 60.18Q373.27 59.77 373.27 59.23Q373.27 58.41 372.81 57.91Q372.34 57.40 371.62 57.40Q370.90 57.40 370.44 57.91Q369.97 58.41 369.97 59.23Q369.97 59.76 370.18 60.17Q370.39 60.58 370.77 60.82Q371.14 61.05 371.62 61.05M377.73 62L376.53 62L376.53 54.21L377.73 54.21M381.75 62.09Q380.86 62.09 380.34 61.63Q379.82 61.16 379.82 60.48Q379.82 59.66 380.41 59.21Q380.99 58.77 382.28 58.62L383.41 58.51L383.41 58.37Q383.41 57.89 383.09 57.61Q382.76 57.34 382.24 57.34Q381.73 57.34 381.42 57.59Q381.10 57.84 381.04 58.36L379.88 58.18Q380.03 57.37 380.66 56.87Q381.30 56.37 382.24 56.37Q382.93 56.37 383.47 56.62Q384.01 56.87 384.31 57.35Q384.61 57.83 384.61 58.51L384.61 62L383.41 62L383.41 61.20Q383.24 61.57 382.78 61.83Q382.31 62.09 381.75 62.09M383.41 59.56L383.41 59.40L382.34 59.54Q381.64 59.61 381.33 59.81Q381.02 60.01 381.02 60.43Q381.02 60.78 381.27 60.97Q381.52 61.16 381.95 61.16Q382.39 61.16 382.72 60.94Q383.04 60.72 383.23 60.36Q383.41 60 383.41 59.56M389.07 62.09Q388.29 62.09 387.76 61.62Q387.24 61.14 387.24 60.24L387.24 57.45L386.33 57.45L386.33 56.46L387.24 56.46L387.24 55.08L388.45 55.08L388.45 56.46L389.79 56.46L389.79 57.45L388.45 57.45L388.45 60.14Q388.45 60.58 388.66 60.81Q388.87 61.03 389.22 61.03Q389.38 61.03 389.51 61Q389.65 60.97 389.79 60.92L389.88 61.95Q389.70 62.02 389.49 62.05Q389.28 62.09 389.07 62.09M393.36 62L392.15 62L392.15 57.45L391.23 57.45L391.23 56.46L392.15 56.46L392.15 55.93Q392.15 54.99 392.67 54.52Q393.20 54.05 393.98 54.05Q394.46 54.05 394.80 54.18L394.71 55.21Q394.42 55.09 394.13 55.09Q393.79 55.09 393.57 55.32Q393.36 55.54 393.36 55.99L393.36 56.46L394.71 56.46L394.71 57.45L393.36 57.45M399.05 62.09Q398.23 62.09 397.58 61.72Q396.93 61.35 396.56 60.70Q396.19 60.05 396.19 59.22Q396.19 58.38 396.56 57.74Q396.93 57.09 397.58 56.73Q398.23 56.37 399.05 56.37Q399.89 56.37 400.53 56.73Q401.18 57.09 401.54 57.74Q401.91 58.38 401.91 59.22Q401.91 60.05 401.54 60.70Q401.18 61.35 400.53 61.72Q399.89 62.09 399.05 62.09M399.05 61.05Q399.78 61.05 400.24 60.54Q400.69 60.03 400.69 59.22Q400.69 58.41 400.24 57.91Q399.78 57.40 399.05 57.40Q398.34 57.40 397.88 57.90Q397.41 58.40 397.41 59.22Q397.41 60.03 397.88 60.54Q398.34 61.05 399.05 61.05M405.13 62L403.94 62L403.94 56.46L405.13 56.46L405.13 57.30Q405.38 56.85 405.82 56.61Q406.27 56.37 406.81 56.37Q406.98 56.37 407.17 56.40Q407.36 56.42 407.49 56.48L407.40 57.62Q407.22 57.55 407.05 57.52Q406.87 57.50 406.70 57.50Q406.06 57.50 405.60 58.08Q405.13 58.66 405.13 59.85M410.43 62L409.23 62L409.23 56.46L410.43 56.46L410.43 57.30Q410.67 56.92 411.12 56.64Q411.58 56.37 412.19 56.37Q412.80 56.37 413.26 56.66Q413.73 56.95 413.88 57.41Q414.20 56.95 414.69 56.66Q415.19 56.37 415.76 56.37Q416.64 56.37 417.20 56.91Q417.75 57.46 417.75 58.37L417.75 62L416.55 62L416.55 58.63Q416.55 58.07 416.27 57.75Q415.99 57.42 415.50 57.42Q415.06 57.42 414.74 57.67Q414.43 57.92 414.26 58.34Q414.09 58.76 414.09 59.27L414.09 62L412.89 62L412.89 58.63Q412.89 58.07 412.61 57.75Q412.34 57.42 411.83 57.42Q411.39 57.42 411.08 57.67Q410.77 57.92 410.60 58.34Q410.43 58.76 410.43 59.27M425.86 62.09Q425.04 62.09 424.41 61.71Q423.78 61.34 423.42 60.69Q423.06 60.04 423.06 59.22Q423.06 58.39 423.42 57.75Q423.78 57.11 424.41 56.74Q425.04 56.37 425.86 56.37Q426.87 56.37 427.58 56.88Q428.30 57.40 428.44 58.31L427.23 58.49Q427.14 57.97 426.78 57.69Q426.42 57.40 425.86 57.40Q425.42 57.40 425.06 57.63Q424.70 57.86 424.49 58.27Q424.28 58.68 424.28 59.22Q424.28 59.76 424.49 60.17Q424.70 60.58 425.06 60.82Q425.42 61.05 425.86 61.05Q426.44 61.05 426.81 60.76Q427.18 60.46 427.25 59.98L428.50 60.13Q428.42 60.70 428.06 61.15Q427.70 61.59 427.14 61.84Q426.57 62.09 425.86 62.09M432.12 62.09Q431.23 62.09 430.71 61.63Q430.19 61.16 430.19 60.48Q430.19 59.66 430.78 59.21Q431.37 58.77 432.65 58.62L433.79 58.51L433.79 58.37Q433.79 57.89 433.46 57.61Q433.14 57.34 432.61 57.34Q432.10 57.34 431.79 57.59Q431.48 57.84 431.41 58.36L430.25 58.18Q430.40 57.37 431.04 56.87Q431.67 56.37 432.61 56.37Q433.30 56.37 433.84 56.62Q434.38 56.87 434.68 57.35Q434.98 57.83 434.98 58.51L434.98 62L433.79 62L433.79 61.20Q433.61 61.57 433.15 61.83Q432.69 62.09 432.12 62.09M433.79 59.56L433.79 59.40L432.71 59.54Q432.01 59.61 431.70 59.81Q431.39 60.01 431.39 60.43Q431.39 60.78 431.64 60.97Q431.89 61.16 432.32 61.16Q432.76 61.16 433.09 60.94Q433.41 60.72 433.60 60.36Q433.79 60 433.79 59.56M438.46 64L437.25 64L437.25 56.46L438.46 56.46L438.46 57.23Q438.70 56.84 439.20 56.60Q439.69 56.37 440.26 56.37Q441.09 56.37 441.70 56.73Q442.31 57.08 442.65 57.72Q442.98 58.36 442.98 59.23Q442.98 60.09 442.65 60.73Q442.31 61.37 441.70 61.73Q441.09 62.09 440.26 62.09Q439.69 62.09 439.20 61.85Q438.70 61.60 438.46 61.22L438.46 64M440.11 61.05Q440.59 61.05 440.96 60.82Q441.33 60.59 441.55 60.18Q441.76 59.77 441.76 59.23Q441.76 58.41 441.29 57.91Q440.82 57.40 440.11 57.40Q439.38 57.40 438.92 57.91Q438.46 58.41 438.46 59.23Q438.46 59.76 438.67 60.17Q438.88 60.58 439.25 60.82Q439.63 61.05 440.11 61.05M446.70 62.09Q445.81 62.09 445.28 61.63Q444.76 61.16 444.76 60.48Q444.76 59.66 445.35 59.21Q445.94 58.77 447.23 58.62L448.36 58.51L448.36 58.37Q448.36 57.89 448.03 57.61Q447.71 57.34 447.18 57.34Q446.68 57.34 446.36 57.59Q446.05 57.84 445.98 58.36L444.83 58.18Q444.97 57.37 445.61 56.87Q446.25 56.37 447.18 56.37Q447.87 56.37 448.41 56.62Q448.95 56.87 449.26 57.35Q449.56 57.83 449.56 58.51L449.56 62L448.36 62L448.36 61.20Q448.18 61.57 447.72 61.83Q447.26 62.09 446.70 62.09M448.36 59.56L448.36 59.40L447.28 59.54Q446.59 59.61 446.27 59.81Q445.96 60.01 445.96 60.43Q445.96 60.78 446.21 60.97Q446.47 61.16 446.90 61.16Q447.34 61.16 447.66 60.94Q447.98 60.72 448.17 60.36Q448.36 60 448.36 59.56M454.84 62.09Q454.26 62.09 453.77 61.85Q453.27 61.60 453.03 61.22L453.03 62L451.82 62L451.82 54.21L453.03 54.21L453.03 57.23Q453.27 56.84 453.77 56.60Q454.26 56.37 454.84 56.37Q455.66 56.37 456.27 56.73Q456.88 57.08 457.22 57.72Q457.55 58.36 457.55 59.23Q457.55 60.09 457.22 60.73Q456.88 61.37 456.27 61.73Q455.66 62.09 454.84 62.09M454.68 61.05Q455.17 61.05 455.54 60.82Q455.90 60.59 456.12 60.18Q456.33 59.77 456.33 59.23Q456.33 58.41 455.87 57.91Q455.40 57.40 454.68 57.40Q453.96 57.40 453.49 57.91Q453.03 58.41 453.03 59.23Q453.03 59.76 453.24 60.17Q453.45 60.58 453.82 60.82Q454.20 61.05 454.68 61.05M460.78 62L459.58 62L459.58 56.46L460.78 56.46L460.78 62M460.18 55.62Q459.84 55.62 459.61 55.40Q459.38 55.18 459.38 54.84Q459.38 54.50 459.61 54.28Q459.84 54.06 460.18 54.06Q460.53 54.06 460.76 54.28Q461 54.50 461 54.84Q461 55.18 460.76 55.40Q460.53 55.62 460.18 55.62M464.32 62L463.12 62L463.12 54.21L464.32 54.21M467.86 62L466.66 62L466.66 56.46L467.86 56.46L467.86 62M467.26 55.62Q466.92 55.62 466.69 55.40Q466.46 55.18 466.46 54.84Q466.46 54.50 466.69 54.28Q466.92 54.06 467.26 54.06Q467.62 54.06 467.85 54.28Q468.08 54.50 468.08 54.84Q468.08 55.18 467.85 55.40Q467.62 55.62 467.26 55.62M472.39 62.09Q471.61 62.09 471.09 61.62Q470.56 61.14 470.56 60.24L470.56 57.45L469.65 57.45L469.65 56.46L470.56 56.46L470.56 55.08L471.77 55.08L471.77 56.46L473.11 56.46L473.11 57.45L471.77 57.45L471.77 60.14Q471.77 60.58 471.98 60.81Q472.19 61.03 472.54 61.03Q472.70 61.03 472.83 61Q472.97 60.97 473.11 60.92L473.20 61.95Q473.03 62.02 472.81 62.05Q472.60 62.09 472.39 62.09M476.25 62L475.05 62L475.05 56.46L476.25 56.46L476.25 62M475.65 55.62Q475.31 55.62 475.08 55.40Q474.85 55.18 474.85 54.84Q474.85 54.50 475.08 54.28Q475.31 54.06 475.65 54.06Q476.01 54.06 476.24 54.28Q476.47 54.50 476.47 54.84Q476.47 55.18 476.24 55.40Q476.01 55.62 475.65 55.62M481.08 62.09Q480.24 62.09 479.61 61.72Q478.98 61.35 478.62 60.71Q478.27 60.06 478.27 59.23Q478.27 58.39 478.62 57.75Q478.98 57.11 479.60 56.74Q480.23 56.37 481.03 56.37Q481.91 56.37 482.54 56.78Q483.17 57.19 483.46 57.89Q483.76 58.59 483.65 59.45L479.48 59.45Q479.55 60.19 479.97 60.63Q480.39 61.08 481.08 61.08Q481.59 61.08 481.99 60.81Q482.39 60.54 482.48 60.13L483.61 60.43Q483.40 61.16 482.71 61.63Q482.02 62.09 481.08 62.09M479.55 58.53L482.41 58.53Q482.40 57.98 482.02 57.66Q481.64 57.34 481.03 57.34Q480.47 57.34 480.08 57.65Q479.69 57.96 479.55 58.53M487.63 62.09Q486.99 62.09 486.50 61.87Q486 61.65 485.69 61.27Q485.38 60.89 485.27 60.44L486.31 60.10Q486.42 60.58 486.76 60.85Q487.09 61.12 487.63 61.12Q488.07 61.12 488.34 60.93Q488.61 60.73 488.61 60.39Q488.61 60.10 488.39 59.94Q488.17 59.78 487.82 59.68Q487.47 59.58 487.07 59.48Q486.67 59.37 486.32 59.20Q485.97 59.03 485.75 58.72Q485.53 58.41 485.53 57.90Q485.53 57.47 485.77 57.12Q486.01 56.77 486.45 56.57Q486.88 56.37 487.47 56.37Q488.30 56.37 488.90 56.74Q489.49 57.12 489.67 57.73L488.63 58.12Q488.51 57.67 488.19 57.48Q487.87 57.30 487.47 57.30Q487.13 57.30 486.89 57.45Q486.66 57.59 486.66 57.86Q486.66 58.14 486.89 58.28Q487.11 58.41 487.47 58.50Q487.82 58.59 488.21 58.69Q488.61 58.79 488.96 58.97Q489.31 59.15 489.54 59.48Q489.77 59.80 489.77 60.36Q489.77 60.87 489.49 61.26Q489.22 61.65 488.73 61.87Q488.25 62.09 487.63 62.09" fill="#686c62"/>
  
    <rect x="244" y="75" width="118" height="40" rx="2" fill="#ffffff"/><path d="M293.86 100.10Q292.78 100.10 291.96 99.68Q291.13 99.26 290.68 98.49Q290.22 97.72 290.22 96.72L290.22 90.90L291.74 90.90L291.74 96.72Q291.74 97.63 292.33 98.21Q292.93 98.79 293.86 98.79Q294.78 98.79 295.37 98.21Q295.95 97.63 295.95 96.72L295.95 90.90L297.49 90.90L297.49 96.72Q297.49 97.72 297.03 98.49Q296.58 99.26 295.76 99.68Q294.94 100.10 293.86 100.10M301.39 100.10Q300.63 100.10 300.05 99.84Q299.46 99.58 299.09 99.14Q298.72 98.69 298.59 98.15L299.83 97.75Q299.96 98.32 300.35 98.64Q300.75 98.96 301.39 98.96Q301.91 98.96 302.23 98.73Q302.55 98.50 302.55 98.10Q302.55 97.75 302.28 97.56Q302.02 97.37 301.61 97.26Q301.19 97.14 300.72 97.02Q300.26 96.89 299.84 96.69Q299.43 96.49 299.17 96.13Q298.90 95.76 298.90 95.15Q298.90 94.64 299.19 94.23Q299.48 93.83 299.99 93.58Q300.50 93.34 301.19 93.34Q302.18 93.34 302.88 93.79Q303.58 94.23 303.79 94.96L302.57 95.41Q302.43 94.88 302.05 94.66Q301.67 94.45 301.19 94.45Q300.79 94.45 300.52 94.62Q300.24 94.79 300.24 95.11Q300.24 95.44 300.51 95.60Q300.78 95.76 301.19 95.87Q301.61 95.97 302.08 96.09Q302.55 96.20 302.96 96.42Q303.38 96.63 303.64 97.02Q303.91 97.40 303.91 98.06Q303.91 98.66 303.58 99.12Q303.26 99.58 302.69 99.84Q302.12 100.10 301.39 100.10M308.04 100.10Q307.06 100.10 306.31 99.67Q305.56 99.23 305.14 98.47Q304.73 97.71 304.73 96.72Q304.73 95.74 305.14 94.98Q305.56 94.22 306.30 93.78Q307.04 93.34 307.99 93.34Q309.03 93.34 309.77 93.83Q310.51 94.32 310.87 95.14Q311.22 95.97 311.09 96.98L306.16 96.98Q306.24 97.86 306.74 98.38Q307.24 98.91 308.04 98.91Q308.65 98.91 309.12 98.59Q309.59 98.27 309.71 97.79L311.03 98.14Q310.79 99.01 309.97 99.56Q309.16 100.10 308.04 100.10M306.24 95.91L309.62 95.91Q309.60 95.25 309.16 94.87Q308.71 94.49 307.99 94.49Q307.33 94.49 306.87 94.86Q306.41 95.23 306.24 95.91M313.75 100L312.33 100L312.33 93.45L313.75 93.45L313.75 94.45Q314.04 93.92 314.56 93.63Q315.09 93.34 315.73 93.34Q315.94 93.34 316.16 93.38Q316.38 93.41 316.53 93.47L316.43 94.83Q316.22 94.73 316.01 94.71Q315.81 94.68 315.60 94.68Q314.84 94.68 314.30 95.37Q313.75 96.05 313.75 97.47" fill="#262d1e"/>
    <rect x="378" y="75" width="114" height="40" rx="2" fill="#ffffff"/><path d="M410.87 100L409.34 100L409.34 90.90L411.50 90.90L413.73 96.26Q414.04 97.01 414.19 97.50Q414.33 97.98 414.33 97.98Q414.33 97.98 414.49 97.50Q414.64 97.01 414.95 96.26L417.19 90.90L419.30 90.90L419.30 100L417.76 100L417.76 94.79Q417.76 93.97 417.78 93.45Q417.80 92.94 417.80 92.94Q417.80 92.94 417.63 93.42Q417.46 93.90 417.15 94.67L414.93 100L413.71 100L411.48 94.67Q411.17 93.92 411 93.44Q410.83 92.95 410.83 92.95Q410.83 92.95 410.85 93.46Q410.87 93.97 410.87 94.79L410.87 100M422.99 100.10Q421.94 100.10 421.32 99.56Q420.70 99.01 420.70 98.21Q420.70 97.23 421.40 96.70Q422.09 96.18 423.61 96.01L424.95 95.88L424.95 95.71Q424.95 95.14 424.57 94.81Q424.18 94.49 423.56 94.49Q422.96 94.49 422.59 94.79Q422.22 95.09 422.14 95.70L420.78 95.49Q420.95 94.53 421.70 93.94Q422.46 93.34 423.56 93.34Q424.38 93.34 425.02 93.64Q425.65 93.94 426.01 94.51Q426.37 95.07 426.37 95.88L426.37 100L424.95 100L424.95 99.05Q424.74 99.49 424.20 99.80Q423.65 100.10 422.99 100.10M424.95 97.11L424.95 96.93L423.68 97.09Q422.86 97.18 422.49 97.41Q422.12 97.65 422.12 98.14Q422.12 98.56 422.42 98.78Q422.72 99.01 423.22 99.01Q423.74 99.01 424.13 98.75Q424.51 98.49 424.73 98.06Q424.95 97.63 424.95 97.11M429.28 100L427.86 100L427.86 93.45L429.28 93.45L429.28 94.42Q429.57 93.99 430.14 93.67Q430.71 93.34 431.49 93.34Q432.19 93.34 432.74 93.63Q433.30 93.92 433.61 94.46Q433.92 95 433.92 95.75L433.92 100L432.50 100L432.50 96.06Q432.50 95.36 432.13 94.98Q431.75 94.59 431.13 94.59Q430.27 94.59 429.77 95.28Q429.28 95.97 429.28 97.17L429.28 100M437.43 100.10Q436.38 100.10 435.76 99.56Q435.14 99.01 435.14 98.21Q435.14 97.23 435.84 96.70Q436.53 96.18 438.06 96.01L439.39 95.88L439.39 95.71Q439.39 95.14 439.01 94.81Q438.63 94.49 438 94.49Q437.40 94.49 437.03 94.79Q436.66 95.09 436.59 95.70L435.22 95.49Q435.39 94.53 436.14 93.94Q436.90 93.34 438 93.34Q438.82 93.34 439.46 93.64Q440.10 93.94 440.45 94.51Q440.81 95.07 440.81 95.88L440.81 100L439.39 100L439.39 99.05Q439.19 99.49 438.64 99.80Q438.09 100.10 437.43 100.10M439.39 97.11L439.39 96.93L438.12 97.09Q437.30 97.18 436.93 97.41Q436.56 97.65 436.56 98.14Q436.56 98.56 436.86 98.78Q437.16 99.01 437.67 99.01Q438.19 99.01 438.57 98.75Q438.95 98.49 439.17 98.06Q439.39 97.63 439.39 97.11M445.20 102.47Q444.44 102.47 443.79 102.22Q443.15 101.98 442.73 101.53Q442.31 101.09 442.19 100.53L443.57 100.26Q443.70 100.77 444.15 101.05Q444.59 101.33 445.23 101.33Q446.04 101.33 446.56 100.92Q447.08 100.51 447.08 99.71L447.08 98.77Q446.80 99.18 446.24 99.43Q445.67 99.69 445 99.69Q444.11 99.69 443.42 99.29Q442.73 98.89 442.34 98.18Q441.95 97.47 441.95 96.52Q441.95 95.54 442.34 94.83Q442.73 94.12 443.42 93.73Q444.11 93.34 445.02 93.34Q445.70 93.34 446.25 93.59Q446.79 93.84 447.08 94.25L447.08 93.45L448.51 93.45L448.51 99.57Q448.51 100.49 448.09 101.14Q447.67 101.79 446.93 102.13Q446.19 102.47 445.20 102.47M445.24 98.47Q446.04 98.47 446.56 97.92Q447.08 97.37 447.08 96.52Q447.08 95.64 446.56 95.11Q446.04 94.57 445.24 94.57Q444.44 94.57 443.92 95.11Q443.40 95.64 443.40 96.52Q443.40 97.39 443.92 97.93Q444.44 98.47 445.24 98.47M453 100.10Q452.02 100.10 451.27 99.67Q450.52 99.23 450.11 98.47Q449.69 97.71 449.69 96.72Q449.69 95.74 450.11 94.98Q450.52 94.22 451.26 93.78Q452 93.34 452.95 93.34Q453.99 93.34 454.73 93.83Q455.48 94.32 455.83 95.14Q456.18 95.97 456.05 96.98L451.12 96.98Q451.20 97.86 451.70 98.38Q452.20 98.91 453 98.91Q453.62 98.91 454.08 98.59Q454.55 98.27 454.67 97.79L456 98.14Q455.75 99.01 454.94 99.56Q454.12 100.10 453 100.10M451.20 95.91L454.58 95.91Q454.56 95.25 454.12 94.87Q453.67 94.49 452.95 94.49Q452.29 94.49 451.83 94.86Q451.37 95.23 451.20 95.91M458.71 100L457.30 100L457.30 93.45L458.71 93.45L458.71 94.45Q459 93.92 459.52 93.63Q460.05 93.34 460.69 93.34Q460.90 93.34 461.12 93.38Q461.34 93.41 461.49 93.47L461.39 94.83Q461.18 94.73 460.97 94.71Q460.77 94.68 460.56 94.68Q459.80 94.68 459.26 95.37Q458.71 96.05 458.71 97.47" fill="#262d1e"/>
    <rect x="508" y="75" width="114" height="40" rx="2" fill="#ffffff"/><path d="M554.19 100L548.11 100L548.11 90.90L554.15 90.90L554.15 92.21L549.64 92.21L549.64 94.59L553.31 94.59L553.31 95.91L549.64 95.91L549.64 98.69L554.19 98.69L554.19 100M558.25 100.10Q557.27 100.10 556.55 99.68Q555.83 99.26 555.43 98.50Q555.04 97.74 555.04 96.72Q555.04 95.70 555.43 94.94Q555.83 94.19 556.55 93.77Q557.27 93.34 558.25 93.34Q558.94 93.34 559.51 93.62Q560.09 93.90 560.37 94.36L560.37 90.80L561.81 90.80L561.81 100L560.37 100L560.37 99.08Q560.09 99.53 559.51 99.82Q558.92 100.10 558.25 100.10M558.43 98.88Q559.29 98.88 559.83 98.28Q560.37 97.67 560.37 96.72Q560.37 95.76 559.83 95.16Q559.29 94.57 558.43 94.57Q557.57 94.57 557.02 95.16Q556.48 95.76 556.48 96.72Q556.48 97.67 557.02 98.28Q557.57 98.88 558.43 98.88M564.80 100L563.38 100L563.38 93.45L564.80 93.45L564.80 100M564.10 92.46Q563.69 92.46 563.42 92.20Q563.15 91.94 563.15 91.54Q563.15 91.13 563.42 90.87Q563.69 90.61 564.10 90.61Q564.51 90.61 564.79 90.87Q565.06 91.13 565.06 91.54Q565.06 91.94 564.79 92.20Q564.51 92.46 564.10 92.46M568.97 100.10Q568.05 100.10 567.43 99.55Q566.81 98.99 566.81 97.92L566.81 94.62L565.73 94.62L565.73 93.45L566.81 93.45L566.81 91.82L568.24 91.82L568.24 93.45L569.83 93.45L569.83 94.62L568.24 94.62L568.24 97.80Q568.24 98.32 568.49 98.59Q568.74 98.86 569.15 98.86Q569.34 98.86 569.50 98.82Q569.66 98.78 569.83 98.73L569.93 99.94Q569.73 100.03 569.47 100.06Q569.22 100.10 568.97 100.10M573.94 100.10Q572.96 100.10 572.20 99.67Q571.43 99.23 570.99 98.47Q570.56 97.70 570.56 96.71Q570.56 95.72 570.99 94.96Q571.43 94.20 572.20 93.77Q572.96 93.34 573.94 93.34Q574.93 93.34 575.69 93.77Q576.45 94.20 576.88 94.96Q577.32 95.72 577.32 96.71Q577.32 97.70 576.88 98.47Q576.45 99.23 575.69 99.67Q574.93 100.10 573.94 100.10M573.94 98.88Q574.80 98.88 575.33 98.28Q575.87 97.67 575.87 96.71Q575.87 95.76 575.33 95.16Q574.80 94.57 573.94 94.57Q573.09 94.57 572.55 95.16Q572 95.75 572 96.71Q572 97.67 572.55 98.28Q573.09 98.88 573.94 98.88M579.94 100L578.53 100L578.53 93.45L579.94 93.45L579.94 94.45Q580.23 93.92 580.76 93.63Q581.28 93.34 581.92 93.34Q582.13 93.34 582.35 93.38Q582.57 93.41 582.73 93.47L582.62 94.83Q582.41 94.73 582.21 94.71Q582 94.68 581.79 94.68Q581.04 94.68 580.49 95.37Q579.94 96.05 579.94 97.47" fill="#262d1e"/>
    <rect x="638" y="75" width="114" height="40" rx="2" fill="#ffffff"/><path d="M668.37 100L665.42 100L665.42 90.90L668.37 90.90Q669.31 90.90 670.14 91.19Q670.97 91.48 671.60 92.06Q672.23 92.64 672.59 93.49Q672.96 94.33 672.96 95.45Q672.96 96.56 672.59 97.41Q672.23 98.26 671.60 98.84Q670.97 99.42 670.14 99.71Q669.31 100 668.37 100M666.95 92.21L666.95 98.69L668.20 98.69Q669.10 98.69 669.83 98.33Q670.55 97.97 670.99 97.25Q671.42 96.53 671.42 95.45Q671.42 94.37 670.99 93.65Q670.55 92.93 669.83 92.57Q669.10 92.21 668.20 92.21L666.95 92.21M677.17 100.10Q676.18 100.10 675.44 99.67Q674.69 99.23 674.27 98.47Q673.86 97.71 673.86 96.72Q673.86 95.74 674.27 94.98Q674.69 94.22 675.43 93.78Q676.17 93.34 677.12 93.34Q678.16 93.34 678.90 93.83Q679.64 94.32 679.99 95.14Q680.34 95.97 680.21 96.98L675.29 96.98Q675.36 97.86 675.86 98.38Q676.36 98.91 677.17 98.91Q677.78 98.91 678.25 98.59Q678.72 98.27 678.83 97.79L680.16 98.14Q679.91 99.01 679.10 99.56Q678.29 100.10 677.17 100.10M675.36 95.91L678.74 95.91Q678.73 95.25 678.28 94.87Q677.83 94.49 677.12 94.49Q676.46 94.49 675.99 94.86Q675.53 95.23 675.36 95.91M684.71 100L683.33 100L680.73 93.45L682.28 93.45L684.05 98.11L685.82 93.45L687.31 93.45L684.71 100M691.11 100.10Q690.12 100.10 689.37 99.67Q688.62 99.23 688.21 98.47Q687.79 97.71 687.79 96.72Q687.79 95.74 688.21 94.98Q688.62 94.22 689.36 93.78Q690.11 93.34 691.05 93.34Q692.09 93.34 692.84 93.83Q693.58 94.32 693.93 95.14Q694.28 95.97 694.15 96.98L689.22 96.98Q689.30 97.86 689.80 98.38Q690.30 98.91 691.11 98.91Q691.72 98.91 692.19 98.59Q692.65 98.27 692.77 97.79L694.10 98.14Q693.85 99.01 693.04 99.56Q692.22 100.10 691.11 100.10M689.30 95.91L692.68 95.91Q692.67 95.25 692.22 94.87Q691.77 94.49 691.05 94.49Q690.39 94.49 689.93 94.86Q689.47 95.23 689.30 95.91M696.81 100L695.40 100L695.40 90.80L696.81 90.80L696.81 100M701.40 100.10Q700.43 100.10 699.66 99.67Q698.89 99.23 698.46 98.47Q698.02 97.70 698.02 96.71Q698.02 95.72 698.46 94.96Q698.89 94.20 699.66 93.77Q700.43 93.34 701.40 93.34Q702.39 93.34 703.15 93.77Q703.91 94.20 704.35 94.96Q704.78 95.72 704.78 96.71Q704.78 97.70 704.35 98.47Q703.91 99.23 703.15 99.67Q702.39 100.10 701.40 100.10M701.40 98.88Q702.26 98.88 702.80 98.28Q703.34 97.67 703.34 96.71Q703.34 95.76 702.80 95.16Q702.26 94.57 701.40 94.57Q700.56 94.57 700.01 95.16Q699.47 95.75 699.47 96.71Q699.47 97.67 700.01 98.28Q700.56 98.88 701.40 98.88M707.42 102.37L705.99 102.37L705.99 93.45L707.42 93.45L707.42 94.36Q707.71 93.90 708.29 93.62Q708.88 93.34 709.55 93.34Q710.53 93.34 711.25 93.77Q711.97 94.19 712.37 94.94Q712.76 95.70 712.76 96.72Q712.76 97.74 712.37 98.50Q711.97 99.26 711.25 99.68Q710.53 100.10 709.55 100.10Q708.88 100.10 708.29 99.82Q707.71 99.53 707.42 99.08L707.42 102.37M709.37 98.88Q709.94 98.88 710.38 98.61Q710.81 98.34 711.07 97.85Q711.32 97.36 711.32 96.72Q711.32 95.76 710.77 95.16Q710.22 94.57 709.37 94.57Q708.51 94.57 707.97 95.16Q707.42 95.76 707.42 96.72Q707.42 97.35 707.67 97.84Q707.92 98.32 708.36 98.60Q708.80 98.88 709.37 98.88M716.92 100.10Q715.94 100.10 715.19 99.67Q714.44 99.23 714.03 98.47Q713.61 97.71 713.61 96.72Q713.61 95.74 714.03 94.98Q714.44 94.22 715.18 93.78Q715.92 93.34 716.87 93.34Q717.91 93.34 718.65 93.83Q719.39 94.32 719.75 95.14Q720.10 95.97 719.97 96.98L715.04 96.98Q715.12 97.86 715.62 98.38Q716.12 98.91 716.92 98.91Q717.54 98.91 718 98.59Q718.47 98.27 718.59 97.79L719.91 98.14Q719.67 99.01 718.86 99.56Q718.04 100.10 716.92 100.10M715.12 95.91L718.50 95.91Q718.48 95.25 718.04 94.87Q717.59 94.49 716.87 94.49Q716.21 94.49 715.75 94.86Q715.29 95.23 715.12 95.91M722.63 100L721.21 100L721.21 93.45L722.63 93.45L722.63 94.45Q722.92 93.92 723.44 93.63Q723.97 93.34 724.61 93.34Q724.82 93.34 725.04 93.38Q725.26 93.41 725.41 93.47L725.31 94.83Q725.10 94.73 724.89 94.71Q724.69 94.68 724.48 94.68Q723.72 94.68 723.18 95.37Q722.63 96.05 722.63 97.47" fill="#262d1e"/>
    <rect x="768" y="75" width="148" height="40" rx="2" fill="#3f5b1e"/><path d="M824.10 100L822.51 100L826.08 90.90L827.79 90.90L831.34 100L829.70 100L828.87 97.86L824.94 97.86L824.10 100M826.91 92.72L825.42 96.56L828.39 96.56L826.91 92.72M834.99 100.10Q834.02 100.10 833.30 99.68Q832.57 99.26 832.18 98.50Q831.78 97.74 831.78 96.72Q831.78 95.70 832.18 94.94Q832.57 94.19 833.30 93.77Q834.02 93.34 834.99 93.34Q835.68 93.34 836.26 93.62Q836.84 93.90 837.11 94.36L837.11 90.80L838.55 90.80L838.55 100L837.11 100L837.11 99.08Q836.84 99.53 836.25 99.82Q835.67 100.10 834.99 100.10M835.17 98.88Q836.03 98.88 836.57 98.28Q837.11 97.67 837.11 96.72Q837.11 95.76 836.57 95.16Q836.03 94.57 835.17 94.57Q834.32 94.57 833.77 95.16Q833.22 95.76 833.22 96.72Q833.22 97.67 833.77 98.28Q834.32 98.88 835.17 98.88M841.54 100L840.13 100L840.13 93.45L841.54 93.45L841.54 94.45Q841.83 93.99 842.37 93.67Q842.91 93.34 843.62 93.34Q844.35 93.34 844.90 93.69Q845.44 94.03 845.63 94.58Q846 94.03 846.59 93.69Q847.17 93.34 847.85 93.34Q848.89 93.34 849.55 93.99Q850.20 94.63 850.20 95.71L850.20 100L848.79 100L848.79 96.02Q848.79 95.36 848.45 94.98Q848.12 94.59 847.54 94.59Q847.02 94.59 846.65 94.88Q846.28 95.18 846.08 95.67Q845.87 96.17 845.87 96.78L845.87 100L844.46 100L844.46 96.02Q844.46 95.36 844.13 94.98Q843.81 94.59 843.21 94.59Q842.69 94.59 842.32 94.88Q841.95 95.18 841.75 95.67Q841.54 96.17 841.54 96.78L841.54 100M853.13 100L851.71 100L851.71 93.45L853.13 93.45L853.13 100M852.43 92.46Q852.02 92.46 851.75 92.20Q851.48 91.94 851.48 91.54Q851.48 91.13 851.75 90.87Q852.02 90.61 852.43 90.61Q852.84 90.61 853.11 90.87Q853.39 91.13 853.39 91.54Q853.39 91.94 853.11 92.20Q852.84 92.46 852.43 92.46M856.13 100L854.71 100L854.71 93.45L856.13 93.45L856.13 94.42Q856.42 93.99 856.99 93.67Q857.56 93.34 858.34 93.34Q859.04 93.34 859.60 93.63Q860.15 93.92 860.46 94.46Q860.77 95 860.77 95.75L860.77 100L859.35 100L859.35 96.06Q859.35 95.36 858.98 94.98Q858.60 94.59 857.98 94.59Q857.12 94.59 856.62 95.28Q856.13 95.97 856.13 97.17" fill="#f6f5ee"/>
  

  <!-- zone: role -->
  <rect x="220" y="158" width="720" height="92" rx="2" fill="#ece9e0"/>
  <path d="M236.07 180L234.77 180L234.77 172.30L237.72 172.30Q238.43 172.30 238.97 172.57Q239.50 172.85 239.80 173.35Q240.10 173.85 240.10 174.51Q240.10 175.18 239.74 175.73Q239.37 176.27 238.74 176.52L240.86 180L239.36 180L237.43 176.72L236.07 176.72L236.07 180M236.07 173.41L236.07 175.61L237.50 175.61Q238.10 175.61 238.46 175.30Q238.82 175 238.82 174.51Q238.82 174.02 238.46 173.71Q238.10 173.41 237.50 173.41M246.20 180.09Q245.36 180.09 244.65 179.80Q243.94 179.50 243.42 178.97Q242.90 178.44 242.61 177.72Q242.33 177.01 242.33 176.15Q242.33 175.29 242.61 174.58Q242.90 173.86 243.42 173.33Q243.94 172.79 244.65 172.50Q245.36 172.21 246.20 172.21Q247.02 172.21 247.73 172.50Q248.43 172.79 248.95 173.33Q249.48 173.86 249.77 174.58Q250.06 175.29 250.06 176.15Q250.06 177.01 249.77 177.72Q249.48 178.44 248.95 178.97Q248.43 179.50 247.73 179.80Q247.02 180.09 246.20 180.09M246.20 178.98Q246.95 178.98 247.52 178.61Q248.10 178.24 248.43 177.60Q248.76 176.96 248.76 176.15Q248.76 175.34 248.43 174.70Q248.10 174.06 247.52 173.69Q246.95 173.32 246.20 173.32Q245.45 173.32 244.87 173.69Q244.28 174.05 243.95 174.69Q243.62 175.32 243.62 176.15Q243.62 176.96 243.95 177.61Q244.28 178.25 244.87 178.61Q245.45 178.98 246.20 178.98M257.26 180L252.24 180L252.24 172.30L253.53 172.30L253.53 178.89L257.26 178.89M264.34 180L259.19 180L259.19 172.30L264.30 172.30L264.30 173.41L260.49 173.41L260.49 175.42L263.59 175.42L263.59 176.53L260.49 176.53L260.49 178.89L264.34 178.89M272.10 181.23L271.28 181.84Q270.39 180.74 269.92 179.40Q269.45 178.06 269.45 176.55Q269.45 175.02 269.93 173.68Q270.40 172.34 271.28 171.25L272.10 171.87Q271.34 172.94 270.96 174.09Q270.58 175.25 270.58 176.55Q270.58 177.85 270.96 179Q271.34 180.14 272.10 181.23M276.75 180L275.58 180L273.38 174.46L274.69 174.46L276.19 178.41L277.69 174.46L278.95 174.46M281.88 180L280.68 180L280.68 174.46L281.88 174.46L281.88 180M281.28 173.62Q280.94 173.62 280.71 173.40Q280.48 173.18 280.48 172.84Q280.48 172.50 280.71 172.28Q280.94 172.06 281.28 172.06Q281.63 172.06 281.86 172.28Q282.10 172.50 282.10 172.84Q282.10 173.18 281.86 173.40Q281.63 173.62 281.28 173.62M285.90 180.09Q285.01 180.09 284.49 179.63Q283.96 179.16 283.96 178.48Q283.96 177.66 284.55 177.21Q285.14 176.77 286.43 176.62L287.56 176.51L287.56 176.37Q287.56 175.89 287.24 175.61Q286.91 175.34 286.38 175.34Q285.88 175.34 285.57 175.59Q285.25 175.84 285.19 176.36L284.03 176.18Q284.17 175.37 284.81 174.87Q285.45 174.37 286.38 174.37Q287.08 174.37 287.62 174.62Q288.16 174.87 288.46 175.35Q288.76 175.83 288.76 176.51L288.76 180L287.56 180L287.56 179.20Q287.39 179.57 286.92 179.83Q286.46 180.09 285.90 180.09M287.56 177.56L287.56 177.40L286.48 177.54Q285.79 177.61 285.48 177.81Q285.16 178.01 285.16 178.43Q285.16 178.78 285.42 178.97Q285.67 179.16 286.10 179.16Q286.54 179.16 286.86 178.94Q287.19 178.72 287.37 178.36Q287.56 178 287.56 177.56M296.06 180.09Q295.17 180.09 294.65 179.63Q294.13 179.16 294.13 178.48Q294.13 177.66 294.72 177.21Q295.30 176.77 296.59 176.62L297.72 176.51L297.72 176.37Q297.72 175.89 297.40 175.61Q297.07 175.34 296.55 175.34Q296.04 175.34 295.73 175.59Q295.41 175.84 295.35 176.36L294.19 176.18Q294.34 175.37 294.97 174.87Q295.61 174.37 296.55 174.37Q297.24 174.37 297.78 174.62Q298.32 174.87 298.62 175.35Q298.92 175.83 298.92 176.51L298.92 180L297.72 180L297.72 179.20Q297.55 179.57 297.09 179.83Q296.62 180.09 296.06 180.09M297.72 177.56L297.72 177.40L296.65 177.54Q295.95 177.61 295.64 177.81Q295.33 178.01 295.33 178.43Q295.33 178.78 295.58 178.97Q295.83 179.16 296.26 179.16Q296.70 179.16 297.03 178.94Q297.35 178.72 297.54 178.36Q297.72 178 297.72 177.56M306.73 180.09Q305.95 180.09 305.43 179.62Q304.90 179.14 304.90 178.24L304.90 175.45L303.99 175.45L303.99 174.46L304.90 174.46L304.90 173.08L306.11 173.08L306.11 174.46L307.46 174.46L307.46 175.45L306.11 175.45L306.11 178.14Q306.11 178.58 306.32 178.81Q306.53 179.03 306.88 179.03Q307.04 179.03 307.18 179Q307.31 178.97 307.46 178.92L307.54 179.94Q307.37 180.02 307.15 180.06Q306.94 180.09 306.73 180.09M311.88 180.09Q311.04 180.09 310.41 179.72Q309.78 179.35 309.42 178.71Q309.07 178.06 309.07 177.23Q309.07 176.39 309.42 175.75Q309.78 175.10 310.40 174.74Q311.03 174.37 311.83 174.37Q312.71 174.37 313.34 174.78Q313.97 175.19 314.26 175.89Q314.56 176.59 314.45 177.45L310.28 177.45Q310.35 178.19 310.77 178.63Q311.20 179.08 311.88 179.08Q312.39 179.08 312.79 178.81Q313.19 178.54 313.29 178.13L314.41 178.43Q314.20 179.16 313.51 179.63Q312.82 180.09 311.88 180.09M310.35 176.53L313.21 176.53Q313.20 175.99 312.82 175.66Q312.44 175.34 311.83 175.34Q311.27 175.34 310.88 175.65Q310.49 175.96 310.35 176.53M318.19 180.09Q317.30 180.09 316.78 179.63Q316.25 179.16 316.25 178.48Q316.25 177.66 316.84 177.21Q317.43 176.77 318.72 176.62L319.85 176.51L319.85 176.37Q319.85 175.89 319.53 175.61Q319.20 175.34 318.67 175.34Q318.17 175.34 317.86 175.59Q317.54 175.84 317.48 176.36L316.32 176.18Q316.46 175.37 317.10 174.87Q317.74 174.37 318.67 174.37Q319.37 174.37 319.91 174.62Q320.45 174.87 320.75 175.35Q321.05 175.83 321.05 176.51L321.05 180L319.85 180L319.85 179.20Q319.68 179.57 319.21 179.83Q318.75 180.09 318.19 180.09M319.85 177.56L319.85 177.40L318.77 177.54Q318.08 177.61 317.77 177.81Q317.45 178.01 317.45 178.43Q317.45 178.78 317.71 178.97Q317.96 179.16 318.39 179.16Q318.83 179.16 319.15 178.94Q319.48 178.72 319.66 178.36Q319.85 178 319.85 177.56M324.51 180L323.32 180L323.32 174.46L324.51 174.46L324.51 175.30Q324.76 174.92 325.21 174.64Q325.67 174.37 326.27 174.37Q326.89 174.37 327.35 174.66Q327.81 174.95 327.97 175.41Q328.29 174.95 328.78 174.66Q329.28 174.37 329.85 174.37Q330.73 174.37 331.29 174.91Q331.84 175.46 331.84 176.37L331.84 180L330.64 180L330.64 176.63Q330.64 176.07 330.36 175.75Q330.08 175.42 329.59 175.42Q329.15 175.42 328.83 175.67Q328.52 175.92 328.35 176.34Q328.18 176.75 328.18 177.27L328.18 180L326.98 180L326.98 176.63Q326.98 176.07 326.70 175.75Q326.43 175.42 325.92 175.42Q325.48 175.42 325.17 175.67Q324.86 175.92 324.69 176.34Q324.51 176.75 324.51 177.27M334.49 181.84L333.67 181.23Q334.44 180.14 334.82 179Q335.19 177.85 335.19 176.55Q335.19 175.25 334.82 174.09Q334.44 172.94 333.67 171.87L334.49 171.25Q335.37 172.34 335.84 173.68Q336.32 175.02 336.32 176.55Q336.32 178.06 335.85 179.40Q335.38 180.74 334.49 181.84M352.03 177.50L341.54 177.50L341.54 176.49L352.03 176.49M359.92 180.09Q359.09 180.09 358.48 179.73Q357.87 179.37 357.54 178.73Q357.20 178.09 357.20 177.23Q357.20 176.36 357.54 175.72Q357.87 175.08 358.48 174.73Q359.09 174.37 359.92 174.37Q360.50 174.37 360.99 174.60Q361.48 174.84 361.71 175.23L361.71 172.21L362.93 172.21L362.93 180L361.71 180L361.71 179.22Q361.48 179.60 360.99 179.85Q360.49 180.09 359.92 180.09M360.07 179.05Q360.80 179.05 361.26 178.54Q361.71 178.03 361.71 177.23Q361.71 176.41 361.26 175.91Q360.80 175.40 360.07 175.40Q359.35 175.40 358.88 175.91Q358.42 176.41 358.42 177.23Q358.42 178.03 358.88 178.54Q359.35 179.05 360.07 179.05M366.95 180.09Q366.06 180.09 365.53 179.63Q365.01 179.16 365.01 178.48Q365.01 177.66 365.60 177.21Q366.19 176.77 367.47 176.62L368.61 176.51L368.61 176.37Q368.61 175.89 368.28 175.61Q367.96 175.34 367.43 175.34Q366.92 175.34 366.61 175.59Q366.30 175.84 366.23 176.36L365.08 176.18Q365.22 175.37 365.86 174.87Q366.50 174.37 367.43 174.37Q368.12 174.37 368.66 174.62Q369.20 174.87 369.50 175.35Q369.81 175.83 369.81 176.51L369.81 180L368.61 180L368.61 179.20Q368.43 179.57 367.97 179.83Q367.51 180.09 366.95 180.09M368.61 177.56L368.61 177.40L367.53 177.54Q366.84 177.61 366.52 177.81Q366.21 178.01 366.21 178.43Q366.21 178.78 366.46 178.97Q366.72 179.16 367.14 179.16Q367.58 179.16 367.91 178.94Q368.23 178.72 368.42 178.36Q368.61 178 368.61 177.56M374.26 180.09Q373.48 180.09 372.96 179.62Q372.43 179.14 372.43 178.24L372.43 175.45L371.52 175.45L371.52 174.46L372.43 174.46L372.43 173.08L373.64 173.08L373.64 174.46L374.99 174.46L374.99 175.45L373.64 175.45L373.64 178.14Q373.64 178.58 373.85 178.81Q374.06 179.03 374.41 179.03Q374.57 179.03 374.71 179Q374.84 178.97 374.99 178.92L375.07 179.94Q374.90 180.02 374.68 180.06Q374.47 180.09 374.26 180.09M378.60 180.09Q377.71 180.09 377.19 179.63Q376.67 179.16 376.67 178.48Q376.67 177.66 377.26 177.21Q377.85 176.77 379.13 176.62L380.27 176.51L380.27 176.37Q380.27 175.89 379.94 175.61Q379.62 175.34 379.09 175.34Q378.58 175.34 378.27 175.59Q377.96 175.84 377.89 176.36L376.73 176.18Q376.88 175.37 377.52 174.87Q378.15 174.37 379.09 174.37Q379.78 174.37 380.32 174.62Q380.86 174.87 381.16 175.35Q381.46 175.83 381.46 176.51L381.46 180L380.27 180L380.27 179.20Q380.09 179.57 379.63 179.83Q379.17 180.09 378.60 180.09M380.27 177.56L380.27 177.40L379.19 177.54Q378.49 177.61 378.18 177.81Q377.87 178.01 377.87 178.43Q377.87 178.78 378.12 178.97Q378.37 179.16 378.80 179.16Q379.24 179.16 379.57 178.94Q379.89 178.72 380.08 178.36Q380.27 178 380.27 177.56M388.77 180.09Q387.88 180.09 387.35 179.63Q386.83 179.16 386.83 178.48Q386.83 177.66 387.42 177.21Q388.01 176.77 389.29 176.62L390.43 176.51L390.43 176.37Q390.43 175.89 390.10 175.61Q389.78 175.34 389.25 175.34Q388.74 175.34 388.43 175.59Q388.12 175.84 388.05 176.36L386.90 176.18Q387.04 175.37 387.68 174.87Q388.32 174.37 389.25 174.37Q389.94 174.37 390.48 174.62Q391.02 174.87 391.32 175.35Q391.63 175.83 391.63 176.51L391.63 180L390.43 180L390.43 179.20Q390.25 179.57 389.79 179.83Q389.33 180.09 388.77 180.09M390.43 177.56L390.43 177.40L389.35 177.54Q388.66 177.61 388.34 177.81Q388.03 178.01 388.03 178.43Q388.03 178.78 388.28 178.97Q388.54 179.16 388.96 179.16Q389.40 179.16 389.73 178.94Q390.05 178.72 390.24 178.36Q390.43 178 390.43 177.56M396.37 180.09Q395.55 180.09 394.92 179.71Q394.29 179.34 393.93 178.69Q393.57 178.04 393.57 177.22Q393.57 176.39 393.93 175.75Q394.29 175.10 394.92 174.74Q395.55 174.37 396.37 174.37Q397.38 174.37 398.09 174.88Q398.81 175.40 398.95 176.31L397.74 176.49Q397.65 175.97 397.29 175.69Q396.93 175.40 396.37 175.40Q395.93 175.40 395.57 175.63Q395.21 175.86 395 176.27Q394.79 176.68 394.79 177.22Q394.79 177.76 395 178.17Q395.21 178.58 395.57 178.82Q395.93 179.05 396.37 179.05Q396.95 179.05 397.32 178.76Q397.69 178.46 397.76 177.98L399.01 178.13Q398.93 178.70 398.57 179.15Q398.21 179.59 397.65 179.84Q397.08 180.09 396.37 180.09M403.43 180.09Q402.61 180.09 401.98 179.71Q401.35 179.34 400.99 178.69Q400.63 178.04 400.63 177.22Q400.63 176.39 400.99 175.75Q401.35 175.10 401.98 174.74Q402.61 174.37 403.43 174.37Q404.44 174.37 405.15 174.88Q405.87 175.40 406.01 176.31L404.80 176.49Q404.71 175.97 404.35 175.69Q403.99 175.40 403.43 175.40Q402.99 175.40 402.63 175.63Q402.27 175.86 402.06 176.27Q401.85 176.68 401.85 177.22Q401.85 177.76 402.06 178.17Q402.27 178.58 402.63 178.82Q402.99 179.05 403.43 179.05Q404.01 179.05 404.38 178.76Q404.75 178.46 404.82 177.98L406.07 178.13Q405.99 178.70 405.63 179.15Q405.28 179.59 404.71 179.84Q404.14 180.09 403.43 180.09M410.50 180.09Q409.66 180.09 409.03 179.72Q408.40 179.35 408.05 178.71Q407.69 178.06 407.69 177.23Q407.69 176.39 408.05 175.75Q408.40 175.10 409.03 174.74Q409.65 174.37 410.46 174.37Q411.34 174.37 411.96 174.78Q412.59 175.19 412.89 175.89Q413.18 176.59 413.07 177.45L408.90 177.45Q408.97 178.19 409.39 178.63Q409.82 179.08 410.50 179.08Q411.02 179.08 411.41 178.81Q411.81 178.54 411.91 178.13L413.03 178.43Q412.82 179.16 412.13 179.63Q411.45 180.09 410.50 180.09M408.97 176.53L411.83 176.53Q411.82 175.99 411.44 175.66Q411.06 175.34 410.46 175.34Q409.89 175.34 409.50 175.65Q409.11 175.96 408.97 176.53M417.05 180.09Q416.42 180.09 415.92 179.87Q415.43 179.65 415.11 179.27Q414.80 178.89 414.69 178.44L415.73 178.10Q415.84 178.58 416.18 178.85Q416.52 179.12 417.05 179.12Q417.49 179.12 417.76 178.93Q418.03 178.74 418.03 178.39Q418.03 178.10 417.81 177.94Q417.59 177.78 417.24 177.68Q416.89 177.58 416.49 177.48Q416.10 177.37 415.75 177.20Q415.39 177.03 415.17 176.72Q414.95 176.41 414.95 175.90Q414.95 175.47 415.20 175.12Q415.44 174.78 415.87 174.57Q416.31 174.37 416.89 174.37Q417.73 174.37 418.32 174.74Q418.91 175.12 419.09 175.73L418.06 176.12Q417.93 175.67 417.62 175.48Q417.30 175.30 416.89 175.30Q416.55 175.30 416.32 175.45Q416.09 175.59 416.09 175.86Q416.09 176.14 416.31 176.28Q416.54 176.41 416.89 176.50Q417.24 176.59 417.64 176.69Q418.03 176.79 418.39 176.97Q418.74 177.15 418.96 177.48Q419.19 177.80 419.19 178.36Q419.19 178.87 418.91 179.26Q418.64 179.65 418.15 179.87Q417.67 180.09 417.05 180.09M423.13 180.09Q422.49 180.09 421.99 179.87Q421.50 179.65 421.18 179.27Q420.87 178.89 420.76 178.44L421.81 178.10Q421.92 178.58 422.25 178.85Q422.59 179.12 423.13 179.12Q423.57 179.12 423.84 178.93Q424.10 178.74 424.10 178.39Q424.10 178.10 423.88 177.94Q423.66 177.78 423.31 177.68Q422.96 177.58 422.56 177.48Q422.17 177.37 421.82 177.20Q421.46 177.03 421.24 176.72Q421.02 176.41 421.02 175.90Q421.02 175.47 421.27 175.12Q421.51 174.78 421.94 174.57Q422.38 174.37 422.96 174.37Q423.80 174.37 424.39 174.74Q424.98 175.12 425.16 175.73L424.13 176.12Q424.01 175.67 423.69 175.48Q423.37 175.30 422.96 175.30Q422.62 175.30 422.39 175.45Q422.16 175.59 422.16 175.86Q422.16 176.14 422.38 176.28Q422.61 176.41 422.96 176.50Q423.31 176.59 423.71 176.69Q424.10 176.79 424.46 176.97Q424.81 177.15 425.03 177.48Q425.26 177.80 425.26 178.36Q425.26 178.87 424.98 179.26Q424.71 179.65 424.23 179.87Q423.74 180.09 423.13 180.09" fill="#686c62"/>
  
    <rect x="244" y="193" width="210" height="40" rx="2" fill="#ffffff"/><path d="M281.56 218.10Q280.28 218.10 279.26 217.55Q278.24 217 277.66 215.95Q277.07 214.91 277.07 213.45Q277.07 211.99 277.66 210.95Q278.24 209.91 279.26 209.35Q280.27 208.80 281.56 208.80Q283.12 208.80 284.18 209.56Q285.24 210.32 285.48 211.68L283.95 211.96Q283.82 211.11 283.16 210.61Q282.49 210.11 281.56 210.11Q280.70 210.11 280.03 210.51Q279.36 210.90 278.98 211.65Q278.61 212.40 278.61 213.45Q278.61 214.49 278.99 215.24Q279.37 216 280.04 216.39Q280.70 216.79 281.56 216.79Q282.57 216.79 283.23 216.26Q283.88 215.72 284.01 214.85L285.52 215.06Q285.42 215.96 284.88 216.65Q284.35 217.34 283.49 217.72Q282.64 218.10 281.56 218.10M289.68 218.10Q288.71 218.10 287.94 217.67Q287.17 217.23 286.74 216.47Q286.30 215.70 286.30 214.71Q286.30 213.72 286.74 212.96Q287.17 212.20 287.94 211.77Q288.71 211.34 289.68 211.34Q290.67 211.34 291.43 211.77Q292.19 212.20 292.63 212.96Q293.06 213.72 293.06 214.71Q293.06 215.70 292.63 216.47Q292.19 217.23 291.43 217.67Q290.67 218.10 289.68 218.10M289.68 216.88Q290.54 216.88 291.08 216.28Q291.62 215.67 291.62 214.71Q291.62 213.76 291.08 213.16Q290.54 212.57 289.68 212.57Q288.84 212.57 288.29 213.16Q287.74 213.75 287.74 214.71Q287.74 215.67 288.29 216.28Q288.84 216.88 289.68 216.88M295.69 218L294.27 218L294.27 208.80L295.69 208.80L295.69 218M298.69 218L297.27 218L297.27 208.80L298.69 208.80L298.69 218M303.21 218.10Q302.23 218.10 301.48 217.67Q300.73 217.23 300.31 216.47Q299.90 215.71 299.90 214.72Q299.90 213.74 300.31 212.98Q300.73 212.22 301.47 211.78Q302.21 211.34 303.16 211.34Q304.20 211.34 304.94 211.83Q305.68 212.32 306.04 213.14Q306.39 213.97 306.26 214.98L301.33 214.98Q301.41 215.85 301.91 216.38Q302.41 216.91 303.21 216.91Q303.82 216.91 304.29 216.59Q304.76 216.27 304.88 215.79L306.20 216.14Q305.96 217.01 305.14 217.56Q304.33 218.10 303.21 218.10M301.41 213.91L304.79 213.91Q304.77 213.25 304.33 212.87Q303.88 212.49 303.16 212.49Q302.50 212.49 302.04 212.86Q301.58 213.23 301.41 213.91M310.43 218.10Q309.47 218.10 308.72 217.66Q307.97 217.22 307.55 216.45Q307.13 215.69 307.13 214.71Q307.13 213.74 307.55 212.98Q307.97 212.22 308.72 211.78Q309.47 211.34 310.43 211.34Q311.63 211.34 312.47 211.96Q313.31 212.57 313.48 213.65L312.05 213.85Q311.95 213.24 311.52 212.90Q311.09 212.57 310.43 212.57Q309.91 212.57 309.49 212.84Q309.06 213.11 308.82 213.59Q308.57 214.07 308.57 214.71Q308.57 215.35 308.82 215.84Q309.06 216.32 309.49 216.60Q309.91 216.88 310.43 216.88Q311.12 216.88 311.55 216.53Q311.99 216.18 312.08 215.61L313.55 215.79Q313.46 216.47 313.04 216.99Q312.61 217.52 311.94 217.81Q311.27 218.10 310.43 218.10M317.25 218.10Q316.33 218.10 315.71 217.54Q315.10 216.99 315.10 215.92L315.10 212.62L314.02 212.62L314.02 211.45L315.10 211.45L315.10 209.82L316.53 209.82L316.53 211.45L318.11 211.45L318.11 212.62L316.53 212.62L316.53 215.80Q316.53 216.32 316.77 216.59Q317.02 216.86 317.44 216.86Q317.62 216.86 317.78 216.82Q317.94 216.78 318.11 216.73L318.22 217.94Q318.01 218.03 317.75 218.06Q317.50 218.10 317.25 218.10M320.63 218L319.22 218L319.22 211.45L320.63 211.45L320.63 218M319.93 210.46Q319.53 210.46 319.26 210.20Q318.98 209.94 318.98 209.54Q318.98 209.13 319.26 208.87Q319.53 208.61 319.93 208.61Q320.35 208.61 320.62 208.87Q320.89 209.13 320.89 209.54Q320.89 209.94 320.62 210.20Q320.35 210.46 319.93 210.46M325.22 218.10Q324.25 218.10 323.48 217.67Q322.71 217.23 322.28 216.47Q321.84 215.70 321.84 214.71Q321.84 213.72 322.28 212.96Q322.71 212.20 323.48 211.77Q324.25 211.34 325.22 211.34Q326.21 211.34 326.97 211.77Q327.73 212.20 328.17 212.96Q328.60 213.72 328.60 214.71Q328.60 215.70 328.17 216.47Q327.73 217.23 326.97 217.67Q326.21 218.10 325.22 218.10M325.22 216.88Q326.08 216.88 326.62 216.28Q327.16 215.67 327.16 214.71Q327.16 213.76 326.62 213.16Q326.08 212.57 325.22 212.57Q324.38 212.57 323.83 213.16Q323.29 213.75 323.29 214.71Q323.29 215.67 323.83 216.28Q324.38 216.88 325.22 216.88M331.23 218L329.81 218L329.81 211.45L331.23 211.45L331.23 212.42Q331.51 211.99 332.09 211.67Q332.66 211.34 333.44 211.34Q334.14 211.34 334.69 211.63Q335.25 211.92 335.56 212.46Q335.87 213 335.87 213.75L335.87 218L334.45 218L334.45 214.06Q334.45 213.36 334.08 212.98Q333.70 212.59 333.07 212.59Q332.22 212.59 331.72 213.28Q331.23 213.97 331.23 215.17L331.23 218M339.67 218.10Q338.91 218.10 338.33 217.84Q337.74 217.58 337.37 217.14Q337 216.69 336.87 216.15L338.11 215.75Q338.24 216.32 338.63 216.64Q339.03 216.96 339.67 216.96Q340.19 216.96 340.50 216.73Q340.82 216.50 340.82 216.10Q340.82 215.75 340.56 215.56Q340.30 215.37 339.89 215.26Q339.47 215.14 339 215.02Q338.54 214.89 338.12 214.69Q337.70 214.49 337.44 214.13Q337.18 213.76 337.18 213.15Q337.18 212.64 337.47 212.23Q337.75 211.82 338.27 211.58Q338.78 211.34 339.47 211.34Q340.46 211.34 341.16 211.79Q341.86 212.23 342.07 212.96L340.85 213.41Q340.71 212.88 340.33 212.66Q339.95 212.45 339.47 212.45Q339.07 212.45 338.80 212.62Q338.52 212.79 338.52 213.11Q338.52 213.44 338.79 213.60Q339.06 213.76 339.47 213.87Q339.89 213.97 340.36 214.09Q340.82 214.20 341.24 214.42Q341.66 214.63 341.92 215.02Q342.19 215.40 342.19 216.06Q342.19 216.66 341.86 217.12Q341.54 217.58 340.97 217.84Q340.39 218.10 339.67 218.10M347.58 218L346.17 218L346.17 211.45L347.58 211.45L347.58 212.45Q347.87 211.92 348.40 211.63Q348.92 211.34 349.56 211.34Q349.77 211.34 349.99 211.38Q350.21 211.41 350.37 211.47L350.26 212.83Q350.05 212.74 349.84 212.71Q349.64 212.68 349.43 212.68Q348.68 212.68 348.13 213.37Q347.58 214.05 347.58 215.47L347.58 218M354.55 218L353.09 218L357.18 208.90L358.65 208.90L354.55 218M365.11 218L363.74 218L361.39 211.45L362.92 211.45L364.46 216.10L365.96 211.45L367.30 211.45L368.84 216.10L370.36 211.45L371.84 211.45L369.49 218L368.14 218L366.63 213.53L365.11 218M376.04 218L374.58 218L378.67 208.90L380.14 208.90L376.04 218M386.52 218.10Q385.53 218.10 384.78 217.67Q384.04 217.23 383.62 216.47Q383.20 215.71 383.20 214.72Q383.20 213.74 383.62 212.98Q384.04 212.22 384.78 211.78Q385.52 211.34 386.47 211.34Q387.51 211.34 388.25 211.83Q388.99 212.32 389.34 213.14Q389.69 213.97 389.56 214.98L384.63 214.98Q384.71 215.85 385.21 216.38Q385.71 216.91 386.52 216.91Q387.13 216.91 387.60 216.59Q388.07 216.27 388.18 215.79L389.51 216.14Q389.26 217.01 388.45 217.56Q387.64 218.10 386.52 218.10M384.71 213.91L388.09 213.91Q388.08 213.25 387.63 212.87Q387.18 212.49 386.47 212.49Q385.80 212.49 385.34 212.86Q384.88 213.23 384.71 213.91M396.22 218L394.58 218L393.11 215.82L391.64 218L390.02 218L392.29 214.62L390.15 211.45L391.81 211.45L393.12 213.40L394.44 211.45L396.05 211.45L393.93 214.59L396.22 218M398.43 220.37L397 220.37L397 211.45L398.43 211.45L398.43 212.36Q398.71 211.90 399.30 211.62Q399.88 211.34 400.56 211.34Q401.53 211.34 402.25 211.77Q402.98 212.19 403.37 212.94Q403.77 213.70 403.77 214.72Q403.77 215.74 403.37 216.50Q402.98 217.26 402.25 217.68Q401.53 218.10 400.56 218.10Q399.88 218.10 399.30 217.82Q398.71 217.53 398.43 217.08L398.43 220.37M400.38 216.88Q400.95 216.88 401.38 216.61Q401.82 216.34 402.07 215.85Q402.33 215.36 402.33 214.72Q402.33 213.76 401.77 213.16Q401.22 212.57 400.38 212.57Q399.52 212.57 398.97 213.16Q398.43 213.76 398.43 214.72Q398.43 215.35 398.67 215.84Q398.92 216.32 399.36 216.60Q399.80 216.88 400.38 216.88M407.99 218.10Q407.02 218.10 406.25 217.67Q405.49 217.23 405.05 216.47Q404.61 215.70 404.61 214.71Q404.61 213.72 405.05 212.96Q405.49 212.20 406.25 211.77Q407.02 211.34 407.99 211.34Q408.98 211.34 409.74 211.77Q410.50 212.20 410.94 212.96Q411.37 213.72 411.37 214.71Q411.37 215.70 410.94 216.47Q410.50 217.23 409.74 217.67Q408.98 218.10 407.99 218.10M407.99 216.88Q408.85 216.88 409.39 216.28Q409.93 215.67 409.93 214.71Q409.93 213.76 409.39 213.16Q408.85 212.57 407.99 212.57Q407.15 212.57 406.60 213.16Q406.06 213.75 406.06 214.71Q406.06 215.67 406.60 216.28Q407.15 216.88 407.99 216.88M414 218L412.58 218L412.58 211.45L414 211.45L414 212.45Q414.29 211.92 414.81 211.63Q415.34 211.34 415.98 211.34Q416.18 211.34 416.41 211.38Q416.63 211.41 416.78 211.47L416.68 212.83Q416.47 212.74 416.26 212.71Q416.05 212.68 415.85 212.68Q415.09 212.68 414.55 213.37Q414 214.05 414 215.47L414 218M420.24 218.10Q419.32 218.10 418.70 217.54Q418.08 216.99 418.08 215.92L418.08 212.62L417 212.62L417 211.45L418.08 211.45L418.08 209.82L419.51 209.82L419.51 211.45L421.10 211.45L421.10 212.62L419.51 212.62L419.51 215.80Q419.51 216.32 419.76 216.59Q420.01 216.86 420.42 216.86Q420.60 216.86 420.77 216.82Q420.93 216.78 421.10 216.73L421.20 217.94Q420.99 218.03 420.74 218.06Q420.49 218.10 420.24 218.10" fill="#262d1e"/>
    <rect x="470" y="193" width="180" height="40" rx="2" fill="#ffffff"/><path d="M487.47 218L485.88 218L489.44 208.90L491.16 208.90L494.71 218L493.07 218L492.24 215.85L488.31 215.85L487.47 218M490.27 210.72L488.79 214.56L491.76 214.56L490.27 210.72M498.44 218.10Q497.48 218.10 496.73 217.66Q495.98 217.22 495.56 216.45Q495.14 215.69 495.14 214.71Q495.14 213.74 495.56 212.98Q495.98 212.22 496.73 211.78Q497.48 211.34 498.44 211.34Q499.63 211.34 500.48 211.96Q501.32 212.57 501.49 213.65L500.06 213.85Q499.96 213.24 499.53 212.90Q499.10 212.57 498.44 212.57Q497.92 212.57 497.50 212.84Q497.07 213.11 496.83 213.59Q496.58 214.07 496.58 214.71Q496.58 215.35 496.83 215.84Q497.07 216.32 497.50 216.60Q497.92 216.88 498.44 216.88Q499.13 216.88 499.56 216.53Q500 216.18 500.09 215.61L501.56 215.79Q501.47 216.47 501.05 216.99Q500.62 217.52 499.95 217.81Q499.28 218.10 498.44 218.10M505.26 218.10Q504.34 218.10 503.72 217.54Q503.11 216.99 503.11 215.92L503.11 212.62L502.03 212.62L502.03 211.45L503.11 211.45L503.11 209.82L504.54 209.82L504.54 211.45L506.12 211.45L506.12 212.62L504.54 212.62L504.54 215.80Q504.54 216.32 504.78 216.59Q505.03 216.86 505.45 216.86Q505.63 216.86 505.79 216.82Q505.95 216.78 506.12 216.73L506.23 217.94Q506.02 218.03 505.76 218.06Q505.51 218.10 505.26 218.10M508.64 218L507.23 218L507.23 211.45L508.64 211.45L508.64 218M507.94 210.46Q507.54 210.46 507.27 210.20Q506.99 209.94 506.99 209.54Q506.99 209.13 507.27 208.87Q507.54 208.61 507.94 208.61Q508.36 208.61 508.63 208.87Q508.90 209.13 508.90 209.54Q508.90 209.94 508.63 210.20Q508.36 210.46 507.94 210.46M513.23 218.10Q512.26 218.10 511.49 217.67Q510.72 217.23 510.29 216.47Q509.85 215.70 509.85 214.71Q509.85 213.72 510.29 212.96Q510.72 212.20 511.49 211.77Q512.26 211.34 513.23 211.34Q514.22 211.34 514.98 211.77Q515.74 212.20 516.18 212.96Q516.61 213.72 516.61 214.71Q516.61 215.70 516.18 216.47Q515.74 217.23 514.98 217.67Q514.22 218.10 513.23 218.10M513.23 216.88Q514.09 216.88 514.63 216.28Q515.17 215.67 515.17 214.71Q515.17 213.76 514.63 213.16Q514.09 212.57 513.23 212.57Q512.39 212.57 511.84 213.16Q511.30 213.75 511.30 214.71Q511.30 215.67 511.84 216.28Q512.39 216.88 513.23 216.88M519.24 218L517.82 218L517.82 211.45L519.24 211.45L519.24 212.42Q519.52 211.99 520.10 211.67Q520.67 211.34 521.45 211.34Q522.15 211.34 522.70 211.63Q523.26 211.92 523.57 212.46Q523.88 213 523.88 213.75L523.88 218L522.46 218L522.46 214.06Q522.46 213.36 522.09 212.98Q521.71 212.59 521.08 212.59Q520.23 212.59 519.73 213.28Q519.24 213.97 519.24 215.17L519.24 218M527.68 218.10Q526.92 218.10 526.34 217.84Q525.75 217.58 525.38 217.14Q525.01 216.69 524.88 216.15L526.12 215.75Q526.25 216.32 526.64 216.64Q527.04 216.96 527.68 216.96Q528.20 216.96 528.51 216.73Q528.83 216.50 528.83 216.10Q528.83 215.75 528.57 215.56Q528.31 215.37 527.90 215.26Q527.48 215.14 527.01 215.02Q526.54 214.89 526.13 214.69Q525.71 214.49 525.45 214.13Q525.19 213.76 525.19 213.15Q525.19 212.64 525.48 212.23Q525.76 211.82 526.28 211.58Q526.79 211.34 527.48 211.34Q528.47 211.34 529.17 211.79Q529.87 212.23 530.08 212.96L528.86 213.41Q528.72 212.88 528.34 212.66Q527.96 212.45 527.48 212.45Q527.08 212.45 526.80 212.62Q526.53 212.79 526.53 213.11Q526.53 213.44 526.80 213.60Q527.06 213.76 527.48 213.87Q527.90 213.97 528.36 214.09Q528.83 214.20 529.25 214.42Q529.66 214.63 529.93 215.02Q530.20 215.40 530.20 216.06Q530.20 216.66 529.87 217.12Q529.55 217.58 528.98 217.84Q528.40 218.10 527.68 218.10M536.76 218.10Q535.84 218.10 535.22 217.54Q534.60 216.99 534.60 215.92L534.60 212.62L533.53 212.62L533.53 211.45L534.60 211.45L534.60 209.82L536.03 209.82L536.03 211.45L537.62 211.45L537.62 212.62L536.03 212.62L536.03 215.80Q536.03 216.32 536.28 216.59Q536.53 216.86 536.94 216.86Q537.13 216.86 537.29 216.82Q537.45 216.78 537.62 216.73L537.72 217.94Q537.52 218.03 537.26 218.06Q537.01 218.10 536.76 218.10M540.14 218L538.73 218L538.73 211.45L540.14 211.45L540.14 212.45Q540.43 211.92 540.96 211.63Q541.48 211.34 542.12 211.34Q542.33 211.34 542.55 211.38Q542.77 211.41 542.92 211.47L542.82 212.83Q542.61 212.74 542.40 212.71Q542.20 212.68 541.99 212.68Q541.23 212.68 540.69 213.37Q540.14 214.05 540.14 215.47L540.14 218M545.21 218L543.80 218L543.80 211.45L545.21 211.45L545.21 218M544.51 210.46Q544.11 210.46 543.83 210.20Q543.56 209.94 543.56 209.54Q543.56 209.13 543.83 208.87Q544.11 208.61 544.51 208.61Q544.93 208.61 545.20 208.87Q545.47 209.13 545.47 209.54Q545.47 209.94 545.20 210.20Q544.93 210.46 544.51 210.46M549.70 220.47Q548.93 220.47 548.29 220.22Q547.64 219.98 547.22 219.53Q546.80 219.09 546.68 218.53L548.06 218.26Q548.19 218.77 548.64 219.05Q549.09 219.33 549.72 219.33Q550.53 219.33 551.05 218.92Q551.57 218.51 551.57 217.71L551.57 216.76Q551.30 217.18 550.73 217.43Q550.17 217.69 549.49 217.69Q548.61 217.69 547.92 217.29Q547.23 216.90 546.84 216.18Q546.45 215.47 546.45 214.52Q546.45 213.54 546.84 212.83Q547.23 212.12 547.92 211.73Q548.61 211.34 549.52 211.34Q550.19 211.34 550.74 211.59Q551.28 211.84 551.57 212.25L551.57 211.45L553 211.45L553 217.57Q553 218.49 552.58 219.14Q552.17 219.79 551.43 220.13Q550.69 220.47 549.70 220.47M549.74 216.47Q550.53 216.47 551.05 215.92Q551.57 215.37 551.57 214.52Q551.57 213.65 551.05 213.11Q550.53 212.57 549.74 212.57Q548.93 212.57 548.41 213.11Q547.89 213.65 547.89 214.52Q547.89 215.39 548.41 215.93Q548.93 216.47 549.74 216.47M557.46 220.47Q556.69 220.47 556.05 220.22Q555.40 219.98 554.98 219.53Q554.56 219.09 554.44 218.53L555.82 218.26Q555.95 218.77 556.40 219.05Q556.85 219.33 557.48 219.33Q558.29 219.33 558.81 218.92Q559.33 218.51 559.33 217.71L559.33 216.76Q559.06 217.18 558.49 217.43Q557.93 217.69 557.25 217.69Q556.37 217.69 555.68 217.29Q554.99 216.90 554.60 216.18Q554.21 215.47 554.21 214.52Q554.21 213.54 554.60 212.83Q554.99 212.12 555.68 211.73Q556.37 211.34 557.28 211.34Q557.95 211.34 558.50 211.59Q559.04 211.84 559.33 212.25L559.33 211.45L560.76 211.45L560.76 217.57Q560.76 218.49 560.34 219.14Q559.93 219.79 559.19 220.13Q558.45 220.47 557.46 220.47M557.50 216.47Q558.29 216.47 558.81 215.92Q559.33 215.37 559.33 214.52Q559.33 213.65 558.81 213.11Q558.29 212.57 557.50 212.57Q556.69 212.57 556.17 213.11Q555.65 213.65 555.65 214.52Q555.65 215.39 556.17 215.93Q556.69 216.47 557.50 216.47M565.26 218.10Q564.27 218.10 563.52 217.67Q562.78 217.23 562.36 216.47Q561.94 215.71 561.94 214.72Q561.94 213.74 562.36 212.98Q562.78 212.22 563.52 211.78Q564.26 211.34 565.21 211.34Q566.25 211.34 566.99 211.83Q567.73 212.32 568.08 213.14Q568.43 213.97 568.30 214.98L563.37 214.98Q563.45 215.85 563.95 216.38Q564.45 216.91 565.26 216.91Q565.87 216.91 566.34 216.59Q566.81 216.27 566.92 215.79L568.25 216.14Q568 217.01 567.19 217.56Q566.38 218.10 565.26 218.10M563.45 213.91L566.83 213.91Q566.82 213.25 566.37 212.87Q565.92 212.49 565.21 212.49Q564.54 212.49 564.08 212.86Q563.62 213.23 563.45 213.91M570.97 218L569.55 218L569.55 211.45L570.97 211.45L570.97 212.45Q571.25 211.92 571.78 211.63Q572.30 211.34 572.94 211.34Q573.15 211.34 573.37 211.38Q573.59 211.41 573.75 211.47L573.64 212.83Q573.44 212.74 573.23 212.71Q573.02 212.68 572.81 212.68Q572.06 212.68 571.51 213.37Q570.97 214.05 570.97 215.47L570.97 218M577.93 218L576.48 218L580.56 208.90L582.03 208.90L577.93 218M587.46 218.10Q586.41 218.10 585.79 217.56Q585.17 217.01 585.17 216.21Q585.17 215.23 585.87 214.70Q586.57 214.18 588.09 214.01L589.43 213.88L589.43 213.71Q589.43 213.14 589.04 212.81Q588.66 212.49 588.03 212.49Q587.44 212.49 587.07 212.79Q586.70 213.09 586.62 213.70L585.25 213.49Q585.42 212.53 586.18 211.94Q586.93 211.34 588.03 211.34Q588.85 211.34 589.49 211.64Q590.13 211.94 590.49 212.51Q590.84 213.07 590.84 213.88L590.84 218L589.43 218L589.43 217.05Q589.22 217.49 588.67 217.80Q588.13 218.10 587.46 218.10M589.43 215.11L589.43 214.93L588.15 215.09Q587.33 215.18 586.96 215.41Q586.59 215.65 586.59 216.14Q586.59 216.56 586.89 216.78Q587.19 217.01 587.70 217.01Q588.22 217.01 588.60 216.75Q588.98 216.49 589.20 216.06Q589.43 215.63 589.43 215.11M593.77 220.37L592.34 220.37L592.34 211.45L593.77 211.45L593.77 212.36Q594.05 211.90 594.64 211.62Q595.22 211.34 595.90 211.34Q596.87 211.34 597.60 211.77Q598.32 212.19 598.71 212.94Q599.11 213.70 599.11 214.72Q599.11 215.74 598.71 216.50Q598.32 217.26 597.60 217.68Q596.87 218.10 595.90 218.10Q595.22 218.10 594.64 217.82Q594.05 217.53 593.77 217.08L593.77 220.37M595.72 216.88Q596.29 216.88 596.73 216.61Q597.16 216.34 597.41 215.85Q597.67 215.36 597.67 214.72Q597.67 213.76 597.12 213.16Q596.56 212.57 595.72 212.57Q594.86 212.57 594.31 213.16Q593.77 213.76 593.77 214.72Q593.77 215.35 594.01 215.84Q594.26 216.32 594.70 216.60Q595.15 216.88 595.72 216.88M601.76 220.37L600.33 220.37L600.33 211.45L601.76 211.45L601.76 212.36Q602.05 211.90 602.63 211.62Q603.22 211.34 603.89 211.34Q604.87 211.34 605.59 211.77Q606.31 212.19 606.71 212.94Q607.11 213.70 607.11 214.72Q607.11 215.74 606.71 216.50Q606.31 217.26 605.59 217.68Q604.87 218.10 603.89 218.10Q603.22 218.10 602.63 217.82Q602.05 217.53 601.76 217.08L601.76 220.37M603.71 216.88Q604.28 216.88 604.72 216.61Q605.16 216.34 605.41 215.85Q605.66 215.36 605.66 214.72Q605.66 213.76 605.11 213.16Q604.56 212.57 603.71 212.57Q602.85 212.57 602.31 213.16Q601.76 213.76 601.76 214.72Q601.76 215.35 602.01 215.84Q602.26 216.32 602.70 216.60Q603.14 216.88 603.71 216.88M609.74 218L608.33 218L608.33 211.45L609.74 211.45L609.74 212.45Q610.03 211.92 610.56 211.63Q611.08 211.34 611.72 211.34Q611.93 211.34 612.15 211.38Q612.37 211.41 612.53 211.47L612.42 212.83Q612.21 212.74 612.01 212.71Q611.80 212.68 611.59 212.68Q610.84 212.68 610.29 213.37Q609.74 214.05 609.74 215.47L609.74 218M616.40 218.10Q615.43 218.10 614.66 217.67Q613.89 217.23 613.46 216.47Q613.02 215.70 613.02 214.71Q613.02 213.72 613.46 212.96Q613.89 212.20 614.66 211.77Q615.43 211.34 616.40 211.34Q617.39 211.34 618.15 211.77Q618.91 212.20 619.35 212.96Q619.78 213.72 619.78 214.71Q619.78 215.70 619.35 216.47Q618.91 217.23 618.15 217.67Q617.39 218.10 616.40 218.10M616.40 216.88Q617.26 216.88 617.80 216.28Q618.34 215.67 618.34 214.71Q618.34 213.76 617.80 213.16Q617.26 212.57 616.40 212.57Q615.56 212.57 615.01 213.16Q614.46 213.75 614.46 214.71Q614.46 215.67 615.01 216.28Q615.56 216.88 616.40 216.88M624.24 218L622.86 218L620.26 211.45L621.81 211.45L623.58 216.12L625.34 211.45L626.84 211.45L624.24 218M630.64 218.10Q629.65 218.10 628.90 217.67Q628.15 217.23 627.74 216.47Q627.32 215.71 627.32 214.72Q627.32 213.74 627.74 212.98Q628.15 212.22 628.89 211.78Q629.63 211.34 630.58 211.34Q631.62 211.34 632.36 211.83Q633.11 212.32 633.46 213.14Q633.81 213.97 633.68 214.98L628.75 214.98Q628.83 215.85 629.33 216.38Q629.83 216.91 630.64 216.91Q631.25 216.91 631.71 216.59Q632.18 216.27 632.30 215.79L633.63 216.14Q633.38 217.01 632.57 217.56Q631.75 218.10 630.64 218.10M628.83 213.91L632.21 213.91Q632.20 213.25 631.75 212.87Q631.30 212.49 630.58 212.49Q629.92 212.49 629.46 212.86Q629 213.23 628.83 213.91" fill="#262d1e"/>
    <rect x="666" y="193" width="170" height="40" rx="2" fill="#ffffff"/><path d="M706.12 218.10Q704.84 218.10 703.82 217.55Q702.80 217 702.22 215.95Q701.63 214.91 701.63 213.45Q701.63 211.99 702.22 210.95Q702.80 209.91 703.82 209.35Q704.83 208.80 706.12 208.80Q707.68 208.80 708.74 209.56Q709.80 210.32 710.04 211.68L708.51 211.96Q708.38 211.11 707.72 210.61Q707.05 210.11 706.12 210.11Q705.26 210.11 704.59 210.51Q703.92 210.90 703.54 211.65Q703.17 212.40 703.17 213.45Q703.17 214.49 703.55 215.24Q703.93 216 704.60 216.39Q705.26 216.79 706.12 216.79Q707.13 216.79 707.79 216.26Q708.44 215.72 708.57 214.85L710.08 215.06Q709.98 215.96 709.45 216.65Q708.91 217.34 708.05 217.72Q707.20 218.10 706.12 218.10M714.24 218.10Q713.27 218.10 712.50 217.67Q711.73 217.23 711.30 216.47Q710.86 215.70 710.86 214.71Q710.86 213.72 711.30 212.96Q711.73 212.20 712.50 211.77Q713.27 211.34 714.24 211.34Q715.23 211.34 715.99 211.77Q716.75 212.20 717.19 212.96Q717.62 213.72 717.62 214.71Q717.62 215.70 717.19 216.47Q716.75 217.23 715.99 217.67Q715.23 218.10 714.24 218.10M714.24 216.88Q715.10 216.88 715.64 216.28Q716.18 215.67 716.18 214.71Q716.18 213.76 715.64 213.16Q715.10 212.57 714.24 212.57Q713.40 212.57 712.85 213.16Q712.31 213.75 712.31 214.71Q712.31 215.67 712.85 216.28Q713.40 216.88 714.24 216.88M720.25 218L718.83 218L718.83 211.45L720.25 211.45L720.25 212.42Q720.53 211.99 721.11 211.67Q721.68 211.34 722.46 211.34Q723.16 211.34 723.71 211.63Q724.27 211.92 724.58 212.46Q724.89 213 724.89 213.75L724.89 218L723.47 218L723.47 214.06Q723.47 213.36 723.10 212.98Q722.72 212.59 722.09 212.59Q721.24 212.59 720.74 213.28Q720.25 213.97 720.25 215.17L720.25 218M729.26 218.10Q728.28 218.10 727.56 217.68Q726.84 217.26 726.44 216.50Q726.05 215.74 726.05 214.72Q726.05 213.70 726.44 212.94Q726.84 212.19 727.56 211.77Q728.28 211.34 729.26 211.34Q729.95 211.34 730.52 211.62Q731.10 211.90 731.38 212.36L731.38 208.80L732.82 208.80L732.82 218L731.38 218L731.38 217.08Q731.10 217.53 730.52 217.82Q729.93 218.10 729.26 218.10M729.44 216.88Q730.30 216.88 730.84 216.28Q731.38 215.67 731.38 214.72Q731.38 213.76 730.84 213.16Q730.30 212.57 729.44 212.57Q728.58 212.57 728.04 213.16Q727.49 213.76 727.49 214.72Q727.49 215.67 728.04 216.28Q728.58 216.88 729.44 216.88M735.81 218L734.39 218L734.39 211.45L735.81 211.45L735.81 218M735.11 210.46Q734.70 210.46 734.43 210.20Q734.16 209.94 734.16 209.54Q734.16 209.13 734.43 208.87Q734.70 208.61 735.11 208.61Q735.52 208.61 735.80 208.87Q736.07 209.13 736.07 209.54Q736.07 209.94 735.80 210.20Q735.52 210.46 735.11 210.46M739.98 218.10Q739.06 218.10 738.44 217.54Q737.82 216.99 737.82 215.92L737.82 212.62L736.75 212.62L736.75 211.45L737.82 211.45L737.82 209.82L739.25 209.82L739.25 211.45L740.84 211.45L740.84 212.62L739.25 212.62L739.25 215.80Q739.25 216.32 739.50 216.59Q739.75 216.86 740.16 216.86Q740.35 216.86 740.51 216.82Q740.67 216.78 740.84 216.73L740.94 217.94Q740.74 218.03 740.48 218.06Q740.23 218.10 739.98 218.10M743.36 218L741.95 218L741.95 211.45L743.36 211.45L743.36 218M742.66 210.46Q742.26 210.46 741.98 210.20Q741.71 209.94 741.71 209.54Q741.71 209.13 741.98 208.87Q742.26 208.61 742.66 208.61Q743.08 208.61 743.35 208.87Q743.62 209.13 743.62 209.54Q743.62 209.94 743.35 210.20Q743.08 210.46 742.66 210.46M747.95 218.10Q746.98 218.10 746.21 217.67Q745.44 217.23 745.01 216.47Q744.57 215.70 744.57 214.71Q744.57 213.72 745.01 212.96Q745.44 212.20 746.21 211.77Q746.98 211.34 747.95 211.34Q748.94 211.34 749.70 211.77Q750.46 212.20 750.90 212.96Q751.33 213.72 751.33 214.71Q751.33 215.70 750.90 216.47Q750.46 217.23 749.70 217.67Q748.94 218.10 747.95 218.10M747.95 216.88Q748.81 216.88 749.35 216.28Q749.89 215.67 749.89 214.71Q749.89 213.76 749.35 213.16Q748.81 212.57 747.95 212.57Q747.11 212.57 746.56 213.16Q746.01 213.75 746.01 214.71Q746.01 215.67 746.56 216.28Q747.11 216.88 747.95 216.88M753.96 218L752.54 218L752.54 211.45L753.96 211.45L753.96 212.42Q754.24 211.99 754.82 211.67Q755.39 211.34 756.17 211.34Q756.87 211.34 757.42 211.63Q757.97 211.92 758.29 212.46Q758.60 213 758.60 213.75L758.60 218L757.18 218L757.18 214.06Q757.18 213.36 756.80 212.98Q756.43 212.59 755.80 212.59Q754.95 212.59 754.45 213.28Q753.96 213.97 753.96 215.17L753.96 218M762.11 218.10Q761.06 218.10 760.44 217.56Q759.82 217.01 759.82 216.21Q759.82 215.23 760.52 214.70Q761.21 214.18 762.73 214.01L764.07 213.88L764.07 213.71Q764.07 213.14 763.69 212.81Q763.30 212.49 762.68 212.49Q762.08 212.49 761.71 212.79Q761.34 213.09 761.26 213.70L759.90 213.49Q760.07 212.53 760.82 211.94Q761.58 211.34 762.68 211.34Q763.50 211.34 764.14 211.64Q764.77 211.94 765.13 212.51Q765.49 213.07 765.49 213.88L765.49 218L764.07 218L764.07 217.05Q763.86 217.49 763.32 217.80Q762.77 218.10 762.11 218.10M764.07 215.11L764.07 214.93L762.80 215.09Q761.98 215.18 761.61 215.41Q761.24 215.65 761.24 216.14Q761.24 216.56 761.54 216.78Q761.84 217.01 762.34 217.01Q762.86 217.01 763.25 216.75Q763.63 216.49 763.85 216.06Q764.07 215.63 764.07 215.11M768.40 218L766.98 218L766.98 208.80L768.40 208.80L768.40 218M774.19 218L772.77 218L772.77 211.45L774.19 211.45L774.19 212.45Q774.47 211.92 775 211.63Q775.52 211.34 776.16 211.34Q776.37 211.34 776.59 211.38Q776.81 211.41 776.97 211.47L776.86 212.83Q776.66 212.74 776.45 212.71Q776.24 212.68 776.03 212.68Q775.28 212.68 774.73 213.37Q774.19 214.05 774.19 215.47L774.19 218M780.19 218.10Q779.49 218.10 778.94 217.82Q778.40 217.53 778.08 217Q777.76 216.47 777.76 215.74L777.76 211.45L779.19 211.45L779.19 215.37Q779.19 216.08 779.56 216.47Q779.93 216.86 780.57 216.86Q781.41 216.86 781.91 216.16Q782.41 215.47 782.41 214.27L782.41 211.45L783.83 211.45L783.83 218L782.41 218L782.41 217.03Q782.13 217.45 781.56 217.78Q780.98 218.10 780.19 218.10M786.83 218L785.42 218L785.42 208.80L786.83 208.80L786.83 218M791.36 218.10Q790.37 218.10 789.62 217.67Q788.88 217.23 788.46 216.47Q788.04 215.71 788.04 214.72Q788.04 213.74 788.46 212.98Q788.88 212.22 789.62 211.78Q790.36 211.34 791.31 211.34Q792.35 211.34 793.09 211.83Q793.83 212.32 794.18 213.14Q794.53 213.97 794.40 214.98L789.47 214.98Q789.55 215.85 790.05 216.38Q790.55 216.91 791.36 216.91Q791.97 216.91 792.44 216.59Q792.91 216.27 793.02 215.79L794.35 216.14Q794.10 217.01 793.29 217.56Q792.48 218.10 791.36 218.10M789.55 213.91L792.93 213.91Q792.92 213.25 792.47 212.87Q792.02 212.49 791.31 212.49Q790.64 212.49 790.18 212.86Q789.72 213.23 789.55 213.91M797.92 218.10Q797.17 218.10 796.58 217.84Q796 217.58 795.63 217.14Q795.26 216.69 795.13 216.15L796.36 215.75Q796.49 216.32 796.89 216.64Q797.29 216.96 797.92 216.96Q798.44 216.96 798.76 216.73Q799.08 216.50 799.08 216.10Q799.08 215.75 798.82 215.56Q798.56 215.37 798.14 215.26Q797.73 215.14 797.26 215.02Q796.79 214.89 796.38 214.69Q795.96 214.49 795.70 214.13Q795.44 213.76 795.44 213.15Q795.44 212.64 795.73 212.23Q796.01 211.82 796.53 211.58Q797.04 211.34 797.73 211.34Q798.72 211.34 799.42 211.79Q800.12 212.23 800.33 212.96L799.11 213.41Q798.96 212.88 798.59 212.66Q798.21 212.45 797.73 212.45Q797.33 212.45 797.05 212.62Q796.78 212.79 796.78 213.11Q796.78 213.44 797.05 213.60Q797.31 213.76 797.73 213.87Q798.14 213.97 798.61 214.09Q799.08 214.20 799.50 214.42Q799.91 214.63 800.18 215.02Q800.45 215.40 800.45 216.06Q800.45 216.66 800.12 217.12Q799.80 217.58 799.22 217.84Q798.65 218.10 797.92 218.10" fill="#262d1e"/>
  
</svg>
