<svg width="920" height="300" viewBox="0 0 920 300" fill="none" xmlns="http://www.w3.org/2000/svg" font-family="Matter, Inter, system-ui, sans-serif">
  <defs>
    <pattern id="dots" width="22" height="22" patternUnits="userSpaceOnUse"><circle cx="2" cy="2" r="1.4" fill="#d4d2c6"/></pattern>
    <marker id="sq" markerWidth="9" markerHeight="9" refX="7.5" refY="4" orient="auto" markerUnits="userSpaceOnUse"><path d="M1 1 L7.5 4 L1 7 Z" fill="#686c62"/></marker>
  </defs>
  <rect width="920" height="300" rx="4" fill="#f6f5ee"/>
  <rect width="920" height="300" rx="4" fill="url(#dots)"/>

  <!-- back-end zone -->
  <rect x="300" y="40" width="580" height="230" rx="2" fill="#ece9e0"/>
  <path d="M316.07 64L314.77 64L314.77 56.30L319.88 56.30L319.88 57.41L316.07 57.41L316.07 59.42L319.17 59.42L319.17 60.53L316.07 60.53M325.81 64.09Q324.97 64.09 324.26 63.80Q323.55 63.51 323.03 62.97Q322.51 62.44 322.22 61.72Q321.94 61.01 321.94 60.15Q321.94 59.29 322.22 58.58Q322.51 57.86 323.03 57.33Q323.55 56.80 324.26 56.50Q324.97 56.21 325.81 56.21Q326.63 56.21 327.34 56.50Q328.04 56.80 328.56 57.33Q329.08 57.86 329.38 58.58Q329.67 59.29 329.67 60.15Q329.67 61.01 329.38 61.72Q329.08 62.44 328.56 62.97Q328.04 63.51 327.34 63.80Q326.63 64.09 325.81 64.09M325.81 62.98Q326.56 62.98 327.13 62.61Q327.71 62.24 328.04 61.60Q328.37 60.96 328.37 60.15Q328.37 59.34 328.04 58.70Q327.71 58.06 327.13 57.69Q326.56 57.32 325.81 57.32Q325.06 57.32 324.48 57.69Q323.89 58.05 323.56 58.69Q323.23 59.33 323.23 60.15Q323.23 60.96 323.56 61.61Q323.89 62.25 324.48 62.61Q325.06 62.98 325.81 62.98M333.64 64L332.34 64L332.34 56.30L335.29 56.30Q336.01 56.30 336.54 56.58Q337.07 56.85 337.38 57.35Q337.68 57.85 337.68 58.51Q337.68 59.18 337.31 59.73Q336.94 60.27 336.32 60.52L338.44 64L336.93 64L335.01 60.72L333.64 60.72L333.64 64M333.64 57.41L333.64 59.61L335.07 59.61Q335.68 59.61 336.04 59.30Q336.39 58.99 336.39 58.51Q336.39 58.02 336.04 57.71Q335.68 57.41 335.07 57.41M345.92 64L340.77 64L340.77 56.30L345.89 56.30L345.89 57.41L342.07 57.41L342.07 59.42L345.18 59.42L345.18 60.53L342.07 60.53L342.07 62.89L345.92 62.89M351.21 64.09Q350.01 64.09 349.16 63.47Q348.30 62.84 348.04 61.70L349.22 61.36Q349.38 62.13 349.93 62.55Q350.47 62.98 351.21 62.98Q351.80 62.98 352.22 62.71Q352.64 62.44 352.64 61.84Q352.64 61.47 352.41 61.24Q352.17 61.02 351.80 60.87Q351.43 60.72 350.98 60.60Q350.52 60.48 350.07 60.33Q349.62 60.17 349.25 59.94Q348.88 59.70 348.64 59.31Q348.41 58.93 348.41 58.34Q348.41 57.69 348.76 57.21Q349.12 56.74 349.71 56.48Q350.30 56.21 351.02 56.21Q351.73 56.21 352.32 56.45Q352.90 56.69 353.30 57.11Q353.70 57.54 353.85 58.14L352.70 58.58Q352.54 57.96 352.09 57.64Q351.65 57.32 351.01 57.32Q350.41 57.32 350.06 57.58Q349.70 57.84 349.70 58.28Q349.70 58.61 349.93 58.81Q350.16 59.02 350.54 59.14Q350.91 59.27 351.37 59.38Q351.82 59.49 352.27 59.64Q352.72 59.80 353.10 60.05Q353.47 60.30 353.70 60.72Q353.94 61.13 353.94 61.76Q353.94 62.52 353.57 63.04Q353.21 63.56 352.59 63.82Q351.97 64.09 351.21 64.09M359.67 64L358.37 64L358.37 57.41L356.01 57.41L356.01 56.30L362.03 56.30L362.03 57.41L359.67 57.41M371.46 64L368.32 64L368.32 56.30L371.45 56.30Q372.10 56.30 372.60 56.54Q373.10 56.78 373.38 57.21Q373.66 57.64 373.66 58.21Q373.66 58.79 373.32 59.23Q372.98 59.68 372.53 59.84Q372.94 59.94 373.29 60.22Q373.64 60.49 373.84 60.89Q374.04 61.28 374.04 61.76Q374.04 62.42 373.71 62.92Q373.38 63.43 372.80 63.71Q372.22 64 371.46 64M369.62 60.46L369.62 62.90L371.35 62.90Q371.96 62.90 372.36 62.55Q372.76 62.21 372.76 61.67Q372.76 61.14 372.36 60.80Q371.96 60.46 371.35 60.46L369.62 60.46M369.62 57.40L369.62 59.40L371.26 59.40Q371.76 59.40 372.09 59.12Q372.42 58.84 372.42 58.40Q372.42 57.96 372.09 57.68Q371.76 57.40 371.26 57.40M377.27 64L375.93 64L378.94 56.30L380.39 56.30L383.40 64L382.01 64L381.31 62.19L377.99 62.19L377.27 64M379.65 57.84L378.39 61.09L380.90 61.09M389.11 64.09Q388.03 64.09 387.17 63.62Q386.31 63.15 385.81 62.27Q385.32 61.38 385.32 60.15Q385.32 58.92 385.81 58.04Q386.31 57.16 387.16 56.69Q388.02 56.21 389.11 56.21Q390.43 56.21 391.33 56.86Q392.22 57.50 392.43 58.65L391.13 58.88Q391.02 58.17 390.46 57.75Q389.90 57.32 389.11 57.32Q388.38 57.32 387.82 57.66Q387.25 57.99 386.93 58.63Q386.61 59.26 386.61 60.15Q386.61 61.03 386.94 61.67Q387.26 62.31 387.82 62.64Q388.38 62.98 389.11 62.98Q389.97 62.98 390.52 62.53Q391.08 62.08 391.19 61.34L392.47 61.51Q392.38 62.27 391.93 62.86Q391.48 63.44 390.75 63.76Q390.02 64.09 389.11 64.09M396.34 64L395.04 64L395.04 56.30L396.34 56.30L396.34 59.57L399.50 56.30L401.21 56.30L398.22 59.37L401.51 64L399.93 64L397.35 60.26L396.34 61.30M406.72 61.50L403.31 61.50L403.31 60.49L406.72 60.49M414.59 64L409.44 64L409.44 56.30L414.55 56.30L414.55 57.41L410.74 57.41L410.74 59.42L413.84 59.42L413.84 60.53L410.74 60.53L410.74 62.89L414.59 62.89M418.51 64L417.21 64L417.21 56.30L418.83 56.30L421.55 60.93Q421.88 61.54 422.06 61.93Q422.24 62.33 422.24 62.33Q422.24 62.33 422.22 61.89Q422.20 61.46 422.20 60.78L422.20 56.30L423.50 56.30L423.50 64L421.88 64L419.17 59.37Q418.83 58.75 418.65 58.36Q418.47 57.97 418.47 57.97Q418.47 57.97 418.49 58.41Q418.51 58.84 418.51 59.52M429.04 64L426.54 64L426.54 56.30L429.04 56.30Q429.83 56.30 430.53 56.55Q431.24 56.80 431.77 57.28Q432.31 57.77 432.61 58.49Q432.92 59.20 432.92 60.15Q432.92 61.09 432.61 61.81Q432.31 62.53 431.77 63.02Q431.24 63.51 430.53 63.75Q429.83 64 429.04 64M427.84 57.41L427.84 62.89L428.90 62.89Q429.65 62.89 430.27 62.59Q430.89 62.28 431.26 61.67Q431.62 61.06 431.62 60.15Q431.62 59.24 431.26 58.63Q430.89 58.02 430.27 57.71Q429.65 57.41 428.90 57.41" fill="#686c62"/>

  
  <g stroke="#686c62" stroke-opacity="0.7" stroke-width="1.5" fill="none">
    <path d="M190 120 H350" marker-end="url(#sq)"/>
    <path d="M190 150 H350" marker-end="url(#sq)"/>
    <path d="M190 180 H350" stroke-dasharray="4 4" marker-end="url(#sq)"/>
    <path d="M520 150 H600" marker-end="url(#sq)"/>
  </g>
  
  
    <path d="M224.09 113.09Q223.24 113.09 222.52 112.79Q221.80 112.49 221.26 111.96Q220.73 111.43 220.44 110.71Q220.15 110 220.15 109.15Q220.15 108.30 220.44 107.58Q220.73 106.86 221.26 106.33Q221.80 105.80 222.52 105.50Q223.24 105.21 224.09 105.21Q224.93 105.21 225.65 105.50Q226.37 105.80 226.91 106.33Q227.44 106.86 227.74 107.58Q228.03 108.30 228.03 109.15Q228.03 110 227.74 110.72Q227.44 111.44 226.91 111.97Q226.37 112.50 225.65 112.80Q224.93 113.09 224.09 113.09M224.10 112.55Q225.05 112.55 225.81 112.10Q226.57 111.66 227.01 110.89Q227.45 110.12 227.45 109.15Q227.45 108.18 227.01 107.41Q226.57 106.64 225.81 106.20Q225.05 105.75 224.10 105.75Q223.13 105.75 222.37 106.20Q221.61 106.64 221.18 107.41Q220.74 108.18 220.74 109.15Q220.74 110.12 221.18 110.89Q221.61 111.66 222.37 112.10Q223.13 112.55 224.10 112.55M224.63 111.27L223.96 111.27L223.96 107.80Q223.83 107.94 223.59 108.06Q223.34 108.18 223.04 108.26L222.97 107.69Q223.28 107.61 223.57 107.42Q223.85 107.24 224.06 107.03L224.63 107.03L224.63 111.27M233.61 113.09Q232.68 113.09 232.08 112.62Q231.49 112.15 231.31 111.45L232.17 111.17Q232.29 111.71 232.65 112Q233.01 112.28 233.61 112.28Q234.13 112.28 234.44 112.06Q234.76 111.84 234.76 111.42Q234.76 111.08 234.53 110.89Q234.29 110.71 233.93 110.60Q233.57 110.49 233.17 110.39Q232.77 110.29 232.40 110.13Q232.04 109.96 231.81 109.67Q231.58 109.37 231.58 108.86Q231.58 108.44 231.81 108.10Q232.05 107.76 232.48 107.57Q232.91 107.37 233.46 107.37Q234.27 107.37 234.85 107.74Q235.43 108.11 235.60 108.74L234.75 109.05Q234.61 108.57 234.28 108.37Q233.94 108.17 233.46 108.17Q233.05 108.17 232.78 108.34Q232.50 108.50 232.50 108.83Q232.50 109.14 232.73 109.30Q232.96 109.46 233.33 109.55Q233.69 109.64 234.10 109.74Q234.51 109.84 234.88 110.02Q235.24 110.19 235.47 110.52Q235.70 110.84 235.70 111.39Q235.70 111.89 235.43 112.27Q235.15 112.66 234.68 112.87Q234.22 113.09 233.61 113.09M239.21 113.09Q238.42 113.09 237.80 112.71Q237.19 112.34 236.83 111.69Q236.47 111.04 236.47 110.23Q236.47 109.40 236.83 108.75Q237.19 108.11 237.80 107.74Q238.42 107.37 239.21 107.37Q240.19 107.37 240.88 107.87Q241.56 108.37 241.71 109.23L240.77 109.37Q240.66 108.82 240.25 108.50Q239.84 108.18 239.21 108.18Q238.70 108.18 238.30 108.45Q237.90 108.71 237.67 109.17Q237.43 109.62 237.43 110.23Q237.43 110.82 237.67 111.28Q237.90 111.73 238.30 112Q238.70 112.26 239.21 112.26Q239.87 112.26 240.30 111.94Q240.73 111.61 240.81 111.08L241.76 111.19Q241.69 111.75 241.34 112.17Q240.99 112.60 240.45 112.85Q239.90 113.09 239.21 113.09M243.78 113L242.84 113L242.84 105.21L243.78 105.21L243.78 108.41Q244.03 107.98 244.54 107.68Q245.05 107.37 245.74 107.37Q246.33 107.37 246.80 107.60Q247.26 107.84 247.53 108.29Q247.80 108.73 247.80 109.37L247.80 113L246.86 113L246.86 109.58Q246.86 108.91 246.50 108.55Q246.15 108.19 245.56 108.19Q244.74 108.19 244.26 108.85Q243.78 109.51 243.78 110.62L243.78 113M251.63 113.09Q250.82 113.09 250.19 112.72Q249.57 112.35 249.23 111.71Q248.88 111.06 248.88 110.23Q248.88 109.39 249.23 108.75Q249.58 108.11 250.19 107.74Q250.80 107.37 251.60 107.37Q252.44 107.37 253.05 107.77Q253.65 108.17 253.95 108.84Q254.25 109.51 254.14 110.35L249.84 110.35Q249.88 111.21 250.36 111.74Q250.85 112.27 251.63 112.27Q252.22 112.27 252.67 111.95Q253.13 111.64 253.24 111.19L254.09 111.41Q253.91 112.15 253.24 112.62Q252.56 113.09 251.63 113.09M249.90 109.60L253.18 109.60Q253.17 108.94 252.73 108.56Q252.29 108.17 251.60 108.17Q250.95 108.17 250.50 108.55Q250.05 108.93 249.90 109.60M257.72 113.09Q256.90 113.09 256.28 112.73Q255.66 112.37 255.31 111.73Q254.96 111.09 254.96 110.23Q254.96 109.37 255.31 108.73Q255.66 108.08 256.28 107.73Q256.90 107.37 257.72 107.37Q258.34 107.37 258.87 107.64Q259.40 107.91 259.64 108.36L259.64 105.21L260.58 105.21L260.58 113L259.64 113L259.64 112.09Q259.40 112.54 258.87 112.81Q258.34 113.09 257.72 113.09M257.78 112.27Q258.33 112.27 258.75 112.01Q259.16 111.75 259.40 111.28Q259.64 110.82 259.64 110.23Q259.64 109.62 259.40 109.16Q259.16 108.70 258.75 108.44Q258.33 108.18 257.78 108.18Q257.25 108.18 256.83 108.44Q256.40 108.70 256.16 109.16Q255.92 109.62 255.92 110.23Q255.92 110.83 256.16 111.30Q256.40 111.76 256.83 112.02Q257.25 112.27 257.78 112.27M264.06 113.09Q263.48 113.09 263.01 112.85Q262.54 112.61 262.27 112.17Q262 111.73 262 111.10L262 107.46L262.95 107.46L262.95 110.88Q262.95 111.55 263.30 111.91Q263.65 112.26 264.24 112.26Q265.06 112.26 265.54 111.60Q266.03 110.94 266.03 109.83L266.03 107.46L266.96 107.46L266.96 113L266.03 113L266.03 112.04Q265.76 112.47 265.26 112.78Q264.75 113.09 264.06 113.09M269.39 113L268.45 113L268.45 105.21L269.39 105.21L269.39 113M273.28 113.09Q272.46 113.09 271.84 112.72Q271.22 112.35 270.87 111.71Q270.53 111.06 270.53 110.23Q270.53 109.39 270.88 108.75Q271.23 108.11 271.84 107.74Q272.45 107.37 273.25 107.37Q274.09 107.37 274.70 107.77Q275.30 108.17 275.60 108.84Q275.90 109.51 275.79 110.35L271.49 110.35Q271.53 111.21 272.01 111.74Q272.50 112.27 273.28 112.27Q273.87 112.27 274.32 111.95Q274.77 111.64 274.88 111.19L275.74 111.41Q275.56 112.15 274.88 112.62Q274.21 113.09 273.28 113.09M271.55 109.60L274.83 109.60Q274.82 108.94 274.38 108.56Q273.94 108.17 273.25 108.17Q272.60 108.17 272.14 108.55Q271.69 108.93 271.55 109.60M279.37 113.09Q278.55 113.09 277.93 112.73Q277.30 112.37 276.96 111.73Q276.61 111.09 276.61 110.23Q276.61 109.37 276.96 108.73Q277.30 108.08 277.93 107.73Q278.55 107.37 279.37 107.37Q279.99 107.37 280.52 107.64Q281.04 107.91 281.29 108.36L281.29 105.21L282.23 105.21L282.23 113L281.29 113L281.29 112.09Q281.04 112.54 280.52 112.81Q279.99 113.09 279.37 113.09M279.43 112.27Q279.98 112.27 280.40 112.01Q280.81 111.75 281.05 111.28Q281.29 110.82 281.29 110.23Q281.29 109.62 281.05 109.16Q280.81 108.70 280.40 108.44Q279.98 108.18 279.43 108.18Q278.90 108.18 278.48 108.44Q278.05 108.70 277.81 109.16Q277.57 109.62 277.57 110.23Q277.57 110.83 277.81 111.30Q278.05 111.76 278.48 112.02Q278.90 112.27 279.43 112.27M287.09 113L286.16 113L286.16 107.46L287.09 107.46L287.09 108.44Q287.35 107.91 287.81 107.64Q288.28 107.37 288.82 107.37Q289 107.37 289.18 107.40Q289.37 107.42 289.50 107.49L289.44 108.38Q289.25 108.29 289.07 108.28Q288.90 108.26 288.72 108.26Q288.03 108.26 287.56 108.91Q287.09 109.56 287.09 110.78L287.09 113M292.73 113.09Q291.91 113.09 291.29 112.72Q290.67 112.35 290.32 111.71Q289.98 111.06 289.98 110.23Q289.98 109.39 290.33 108.75Q290.68 108.11 291.29 107.74Q291.90 107.37 292.69 107.37Q293.54 107.37 294.15 107.77Q294.75 108.17 295.05 108.84Q295.34 109.51 295.23 110.35L290.93 110.35Q290.98 111.21 291.46 111.74Q291.95 112.27 292.73 112.27Q293.32 112.27 293.77 111.95Q294.22 111.64 294.33 111.19L295.19 111.41Q295 112.15 294.33 112.62Q293.66 113.09 292.73 113.09M291 109.60L294.28 109.60Q294.27 108.94 293.83 108.56Q293.39 108.17 292.69 108.17Q292.04 108.17 291.59 108.55Q291.14 108.93 291 109.60M299.27 113.09Q298.67 113.09 298.14 112.81Q297.61 112.54 297.36 112.09L297.36 113L296.41 113L296.41 105.21L297.36 105.21L297.36 108.36Q297.61 107.91 298.13 107.64Q298.66 107.37 299.27 107.37Q300.11 107.37 300.72 107.73Q301.34 108.08 301.69 108.73Q302.03 109.37 302.03 110.23Q302.03 111.09 301.69 111.73Q301.34 112.37 300.72 112.73Q300.11 113.09 299.27 113.09M299.22 112.27Q299.76 112.27 300.17 112.02Q300.59 111.76 300.83 111.30Q301.08 110.83 301.08 110.23Q301.08 109.62 300.83 109.16Q300.59 108.70 300.17 108.44Q299.76 108.18 299.22 108.18Q298.68 108.18 298.25 108.44Q297.83 108.70 297.59 109.16Q297.36 109.62 297.36 110.23Q297.36 110.82 297.59 111.28Q297.83 111.75 298.25 112.01Q298.68 112.27 299.22 112.27M305.17 113.09Q304.58 113.09 304.12 112.85Q303.65 112.61 303.38 112.17Q303.11 111.73 303.11 111.10L303.11 107.46L304.06 107.46L304.06 110.88Q304.06 111.55 304.41 111.91Q304.76 112.26 305.34 112.26Q306.17 112.26 306.65 111.60Q307.14 110.94 307.14 109.83L307.14 107.46L308.07 107.46L308.07 113L307.14 113L307.14 112.04Q306.87 112.47 306.37 112.78Q305.86 113.09 305.17 113.09M310.50 113L309.56 113L309.56 107.46L310.50 107.46L310.50 113M310.03 106.49Q309.74 106.49 309.55 106.30Q309.36 106.11 309.36 105.83Q309.36 105.54 309.55 105.36Q309.74 105.17 310.03 105.17Q310.33 105.17 310.52 105.36Q310.71 105.54 310.71 105.83Q310.71 106.11 310.52 106.30Q310.33 106.49 310.03 106.49M312.92 113L311.98 113L311.98 105.21L312.92 105.21L312.92 113M316.82 113.09Q315.99 113.09 315.37 112.73Q314.75 112.37 314.40 111.73Q314.06 111.09 314.06 110.23Q314.06 109.37 314.40 108.73Q314.75 108.08 315.37 107.73Q315.99 107.37 316.82 107.37Q317.43 107.37 317.96 107.64Q318.49 107.91 318.73 108.36L318.73 105.21L319.68 105.21L319.68 113L318.73 113L318.73 112.09Q318.49 112.54 317.96 112.81Q317.43 113.09 316.82 113.09M316.87 112.27Q317.42 112.27 317.84 112.01Q318.26 111.75 318.49 111.28Q318.73 110.82 318.73 110.23Q318.73 109.62 318.49 109.16Q318.26 108.70 317.84 108.44Q317.42 108.18 316.87 108.18Q316.34 108.18 315.92 108.44Q315.50 108.70 315.25 109.16Q315.01 109.62 315.01 110.23Q315.01 110.83 315.25 111.30Q315.50 111.76 315.92 112.02Q316.34 112.27 316.87 112.27" fill="#686c62"/>
    <path d="M232.25 143.09Q231.40 143.09 230.68 142.79Q229.96 142.49 229.43 141.96Q228.89 141.43 228.60 140.71Q228.31 140 228.31 139.15Q228.31 138.30 228.60 137.58Q228.89 136.86 229.43 136.33Q229.96 135.79 230.68 135.50Q231.40 135.21 232.25 135.21Q233.09 135.21 233.82 135.50Q234.54 135.79 235.07 136.33Q235.60 136.86 235.90 137.58Q236.20 138.30 236.20 139.15Q236.20 140 235.90 140.72Q235.60 141.44 235.07 141.97Q234.54 142.50 233.82 142.80Q233.09 143.09 232.25 143.09M232.26 142.55Q233.22 142.55 233.97 142.10Q234.73 141.66 235.17 140.89Q235.61 140.12 235.61 139.15Q235.61 138.18 235.17 137.41Q234.73 136.64 233.97 136.20Q233.22 135.75 232.26 135.75Q231.29 135.75 230.53 136.20Q229.77 136.64 229.34 137.41Q228.90 138.18 228.90 139.15Q228.90 140.12 229.34 140.89Q229.77 141.66 230.53 142.10Q231.29 142.55 232.26 142.55M233.73 141.27L230.81 141.27L230.81 140.68L232.19 139.46Q232.49 139.21 232.75 138.92Q233.01 138.63 233.01 138.27Q233.01 137.97 232.83 137.79Q232.64 137.61 232.32 137.61Q231.96 137.61 231.73 137.86Q231.49 138.12 231.52 138.54L230.84 138.49Q230.81 138.05 231 137.71Q231.20 137.38 231.55 137.18Q231.90 136.98 232.32 136.98Q232.95 136.98 233.34 137.34Q233.72 137.70 233.72 138.26Q233.72 138.75 233.44 139.13Q233.15 139.51 232.70 139.85L231.80 140.63L233.73 140.63L233.73 141.27M242.35 143.09Q241.55 143.09 240.94 142.71Q240.32 142.34 239.96 141.69Q239.61 141.04 239.61 140.23Q239.61 139.40 239.96 138.75Q240.32 138.10 240.94 137.74Q241.55 137.37 242.35 137.37Q243.33 137.37 244.01 137.87Q244.70 138.37 244.84 139.23L243.91 139.37Q243.80 138.82 243.39 138.50Q242.97 138.18 242.35 138.18Q241.84 138.18 241.44 138.45Q241.04 138.71 240.80 139.17Q240.56 139.62 240.56 140.23Q240.56 140.82 240.80 141.28Q241.04 141.74 241.44 142Q241.84 142.26 242.35 142.26Q243.01 142.26 243.44 141.94Q243.86 141.61 243.94 141.07L244.90 141.19Q244.82 141.75 244.47 142.18Q244.13 142.60 243.58 142.85Q243.04 143.09 242.35 143.09M246.91 143L245.98 143L245.98 135.21L246.91 135.21L246.91 138.41Q247.16 137.98 247.68 137.68Q248.19 137.37 248.88 137.37Q249.46 137.37 249.93 137.60Q250.40 137.84 250.67 138.29Q250.94 138.73 250.94 139.37L250.94 143L249.99 143L249.99 139.58Q249.99 138.91 249.64 138.55Q249.29 138.19 248.69 138.19Q247.88 138.19 247.40 138.85Q246.91 139.51 246.91 140.62L246.91 143M254.05 143.09Q253.14 143.09 252.61 142.64Q252.09 142.20 252.09 141.50Q252.09 140.67 252.70 140.23Q253.30 139.79 254.62 139.66L255.81 139.53L255.81 139.34Q255.81 138.79 255.44 138.48Q255.07 138.17 254.47 138.17Q253.90 138.17 253.53 138.46Q253.17 138.75 253.08 139.34L252.19 139.18Q252.32 138.39 252.92 137.88Q253.52 137.37 254.47 137.37Q255.14 137.37 255.65 137.62Q256.16 137.86 256.46 138.32Q256.76 138.79 256.76 139.44L256.76 143L255.81 143L255.81 142.08Q255.70 142.34 255.44 142.57Q255.17 142.80 254.81 142.94Q254.45 143.09 254.05 143.09M255.81 140.53L255.81 140.26L254.68 140.39Q253.81 140.49 253.42 140.73Q253.04 140.97 253.04 141.47Q253.04 141.88 253.34 142.10Q253.63 142.33 254.13 142.33Q254.62 142.33 255 142.08Q255.38 141.83 255.60 141.42Q255.81 141.01 255.81 140.53M259.10 143L258.16 143L258.16 137.46L259.10 137.46L259.10 138.41Q259.35 137.98 259.86 137.68Q260.38 137.37 261.07 137.37Q261.65 137.37 262.11 137.60Q262.57 137.84 262.84 138.29Q263.11 138.73 263.11 139.37L263.11 143L262.18 143L262.18 139.58Q262.18 138.91 261.83 138.55Q261.48 138.19 260.88 138.19Q260.07 138.19 259.58 138.85Q259.10 139.51 259.10 140.62L259.10 143M266.89 145.09Q266.29 145.09 265.77 144.89Q265.25 144.68 264.89 144.33Q264.53 143.97 264.41 143.50L265.32 143.30Q265.46 143.78 265.90 144.03Q266.34 144.29 266.91 144.29Q267.68 144.29 268.19 143.89Q268.69 143.50 268.69 142.76L268.69 141.88Q268.45 142.27 267.93 142.52Q267.40 142.76 266.79 142.76Q266.04 142.76 265.46 142.42Q264.88 142.08 264.56 141.47Q264.23 140.87 264.23 140.06Q264.23 139.25 264.55 138.64Q264.87 138.04 265.46 137.70Q266.05 137.37 266.82 137.37Q267.43 137.37 267.94 137.60Q268.45 137.83 268.69 138.23L268.69 137.46L269.64 137.46L269.64 142.67Q269.64 143.43 269.28 143.97Q268.92 144.51 268.30 144.80Q267.68 145.09 266.89 145.09M266.93 141.93Q267.44 141.93 267.84 141.69Q268.24 141.45 268.47 141.03Q268.70 140.60 268.70 140.06Q268.70 139.50 268.47 139.08Q268.24 138.66 267.84 138.42Q267.44 138.18 266.93 138.18Q266.43 138.18 266.03 138.42Q265.63 138.66 265.40 139.08Q265.17 139.50 265.17 140.06Q265.17 140.61 265.40 141.04Q265.63 141.46 266.03 141.70Q266.43 141.93 266.93 141.93M273.50 143.09Q272.68 143.09 272.06 142.72Q271.44 142.35 271.09 141.71Q270.75 141.06 270.75 140.23Q270.75 139.39 271.10 138.75Q271.45 138.10 272.06 137.74Q272.67 137.37 273.47 137.37Q274.31 137.37 274.92 137.77Q275.52 138.17 275.82 138.84Q276.12 139.51 276.01 140.35L271.71 140.35Q271.75 141.21 272.23 141.74Q272.72 142.27 273.50 142.27Q274.09 142.27 274.54 141.96Q274.99 141.64 275.10 141.19L275.96 141.41Q275.78 142.15 275.10 142.62Q274.43 143.09 273.50 143.09M271.77 139.60L275.05 139.60Q275.04 138.94 274.60 138.56Q274.16 138.17 273.47 138.17Q272.82 138.17 272.37 138.55Q271.91 138.93 271.77 139.60M280.57 145L279.63 145L279.63 137.46L280.57 137.46L280.57 138.36Q280.82 137.91 281.35 137.64Q281.87 137.37 282.49 137.37Q283.32 137.37 283.94 137.73Q284.55 138.08 284.90 138.73Q285.25 139.37 285.25 140.23Q285.25 141.09 284.90 141.73Q284.55 142.37 283.94 142.73Q283.32 143.09 282.49 143.09Q281.88 143.09 281.35 142.81Q280.82 142.54 280.57 142.09L280.57 145M282.43 142.27Q282.97 142.27 283.39 142.02Q283.81 141.76 284.05 141.29Q284.29 140.83 284.29 140.23Q284.29 139.62 284.05 139.16Q283.81 138.70 283.39 138.44Q282.97 138.18 282.43 138.18Q281.89 138.18 281.47 138.44Q281.04 138.70 280.81 139.16Q280.57 139.62 280.57 140.23Q280.57 140.82 280.81 141.28Q281.04 141.75 281.47 142.01Q281.89 142.27 282.43 142.27M288.85 143.09Q288.04 143.09 287.41 142.72Q286.78 142.35 286.41 141.71Q286.05 141.06 286.05 140.23Q286.05 139.39 286.41 138.75Q286.78 138.10 287.41 137.74Q288.04 137.37 288.85 137.37Q289.67 137.37 290.30 137.74Q290.93 138.10 291.30 138.75Q291.66 139.39 291.66 140.23Q291.66 141.06 291.30 141.71Q290.93 142.35 290.30 142.72Q289.67 143.09 288.85 143.09M288.85 142.26Q289.39 142.26 289.81 142Q290.23 141.75 290.47 141.28Q290.70 140.82 290.70 140.23Q290.70 139.62 290.47 139.16Q290.23 138.70 289.81 138.44Q289.39 138.18 288.85 138.18Q288.32 138.18 287.90 138.44Q287.48 138.70 287.24 139.16Q287.01 139.62 287.01 140.23Q287.01 140.82 287.24 141.28Q287.48 141.75 287.90 142Q288.32 142.26 288.85 142.26M293.74 143L292.79 143L292.79 135.21L293.74 135.21L293.74 143M296.16 143L295.21 143L295.21 135.21L296.16 135.21L296.16 143M298.58 143L297.63 143L297.63 137.46L298.58 137.46L298.58 143M298.11 136.49Q297.82 136.49 297.63 136.30Q297.43 136.11 297.43 135.83Q297.43 135.54 297.63 135.35Q297.82 135.17 298.11 135.17Q298.40 135.17 298.59 135.35Q298.79 135.54 298.79 135.83Q298.79 136.11 298.59 136.30Q298.40 136.49 298.11 136.49M301 143L300.06 143L300.06 137.46L301 137.46L301 138.41Q301.25 137.98 301.76 137.68Q302.27 137.37 302.97 137.37Q303.55 137.37 304.01 137.60Q304.47 137.84 304.74 138.29Q305.01 138.73 305.01 139.37L305.01 143L304.08 143L304.08 139.58Q304.08 138.91 303.73 138.55Q303.37 138.19 302.78 138.19Q301.97 138.19 301.48 138.85Q301 139.51 301 140.62L301 143M308.79 145.09Q308.19 145.09 307.67 144.89Q307.15 144.68 306.79 144.33Q306.43 143.97 306.31 143.50L307.22 143.30Q307.36 143.78 307.80 144.03Q308.24 144.29 308.81 144.29Q309.58 144.29 310.08 143.89Q310.59 143.50 310.59 142.76L310.59 141.88Q310.35 142.27 309.83 142.52Q309.30 142.76 308.69 142.76Q307.94 142.76 307.36 142.42Q306.78 142.08 306.45 141.47Q306.12 140.87 306.12 140.06Q306.12 139.25 306.45 138.64Q306.77 138.04 307.36 137.70Q307.95 137.37 308.72 137.37Q309.33 137.37 309.84 137.60Q310.35 137.83 310.59 138.23L310.59 137.46L311.54 137.46L311.54 142.67Q311.54 143.43 311.18 143.97Q310.82 144.51 310.20 144.80Q309.58 145.09 308.79 145.09M308.83 141.93Q309.34 141.93 309.74 141.69Q310.14 141.45 310.37 141.03Q310.60 140.60 310.60 140.06Q310.60 139.50 310.37 139.08Q310.14 138.66 309.74 138.42Q309.34 138.18 308.83 138.18Q308.32 138.18 307.93 138.42Q307.53 138.66 307.30 139.08Q307.07 139.50 307.07 140.06Q307.07 140.61 307.30 141.04Q307.53 141.46 307.93 141.70Q308.32 141.93 308.83 141.93" fill="#686c62"/>
    <path d="M236.64 173.09Q235.80 173.09 235.07 172.79Q234.35 172.49 233.82 171.96Q233.29 171.43 233 170.71Q232.70 170 232.70 169.15Q232.70 168.30 233 167.58Q233.29 166.86 233.82 166.33Q234.35 165.79 235.07 165.50Q235.80 165.21 236.64 165.21Q237.49 165.21 238.21 165.50Q238.93 165.79 239.46 166.33Q240 166.86 240.29 167.58Q240.59 168.30 240.59 169.15Q240.59 170 240.29 170.72Q240 171.44 239.46 171.97Q238.93 172.50 238.21 172.80Q237.49 173.09 236.64 173.09M236.65 172.55Q237.61 172.55 238.37 172.10Q239.13 171.66 239.57 170.89Q240.01 170.12 240.01 169.15Q240.01 168.18 239.57 167.41Q239.13 166.64 238.37 166.20Q237.61 165.75 236.65 165.75Q235.69 165.75 234.93 166.20Q234.17 166.64 233.73 167.41Q233.30 168.18 233.30 169.15Q233.30 170.12 233.73 170.89Q234.17 171.66 234.93 172.10Q235.69 172.55 236.65 172.55M236.68 171.32Q236.04 171.32 235.61 170.99Q235.19 170.66 235.12 170.12L235.77 170.02Q235.84 170.33 236.08 170.51Q236.32 170.69 236.68 170.69Q237.05 170.69 237.29 170.47Q237.52 170.25 237.52 169.91Q237.52 169.56 237.31 169.35Q237.09 169.14 236.71 169.14Q236.58 169.14 236.44 169.17Q236.31 169.21 236.22 169.25L235.93 168.79L237.13 167.66L235.25 167.66L235.25 167.04L237.97 167.04L237.97 167.66L236.85 168.68Q237.43 168.62 237.84 168.95Q238.24 169.28 238.24 169.93Q238.24 170.55 237.80 170.93Q237.37 171.32 236.68 171.32M246.74 173.09Q245.95 173.09 245.33 172.71Q244.72 172.34 244.36 171.69Q244 171.04 244 170.23Q244 169.40 244.36 168.75Q244.72 168.10 245.33 167.74Q245.95 167.37 246.74 167.37Q247.72 167.37 248.41 167.87Q249.09 168.37 249.24 169.23L248.30 169.37Q248.19 168.82 247.78 168.50Q247.37 168.18 246.74 168.18Q246.23 168.18 245.83 168.45Q245.43 168.71 245.19 169.17Q244.96 169.62 244.96 170.23Q244.96 170.82 245.19 171.28Q245.43 171.74 245.83 172Q246.23 172.26 246.74 172.26Q247.40 172.26 247.83 171.94Q248.26 171.61 248.34 171.07L249.29 171.19Q249.22 171.75 248.87 172.18Q248.52 172.60 247.98 172.85Q247.43 173.09 246.74 173.09M251.31 173L250.37 173L250.37 165.21L251.31 165.21L251.31 168.41Q251.56 167.98 252.07 167.68Q252.58 167.37 253.27 167.37Q253.86 167.37 254.32 167.60Q254.79 167.84 255.06 168.29Q255.33 168.73 255.33 169.37L255.33 173L254.39 173L254.39 169.58Q254.39 168.91 254.03 168.55Q253.68 168.19 253.09 168.19Q252.27 168.19 251.79 168.85Q251.31 169.51 251.31 170.62L251.31 173M258.44 173.09Q257.53 173.09 257.01 172.64Q256.49 172.20 256.49 171.50Q256.49 170.67 257.09 170.23Q257.70 169.79 259.02 169.66L260.20 169.53L260.20 169.34Q260.20 168.79 259.84 168.48Q259.47 168.17 258.86 168.17Q258.29 168.17 257.93 168.46Q257.56 168.75 257.48 169.34L256.59 169.18Q256.72 168.39 257.32 167.88Q257.92 167.37 258.86 167.37Q259.53 167.37 260.05 167.62Q260.56 167.86 260.85 168.32Q261.15 168.79 261.15 169.44L261.15 173L260.20 173L260.20 172.08Q260.09 172.34 259.83 172.57Q259.57 172.80 259.20 172.94Q258.84 173.09 258.44 173.09M260.20 170.53L260.20 170.26L259.07 170.39Q258.20 170.49 257.82 170.73Q257.43 170.97 257.43 171.47Q257.43 171.88 257.73 172.10Q258.03 172.33 258.52 172.33Q259.02 172.33 259.40 172.08Q259.78 171.83 259.99 171.42Q260.20 171.01 260.20 170.53M263.49 173L262.56 173L262.56 167.46L263.49 167.46L263.49 168.41Q263.75 167.98 264.26 167.68Q264.77 167.37 265.46 167.37Q266.05 167.37 266.51 167.60Q266.97 167.84 267.24 168.29Q267.51 168.73 267.51 169.37L267.51 173L266.57 173L266.57 169.58Q266.57 168.91 266.22 168.55Q265.87 168.19 265.28 168.19Q264.46 168.19 263.98 168.85Q263.49 169.51 263.49 170.62L263.49 173M271.28 175.09Q270.69 175.09 270.17 174.89Q269.64 174.68 269.29 174.33Q268.93 173.97 268.81 173.50L269.72 173.30Q269.85 173.78 270.29 174.03Q270.73 174.29 271.30 174.29Q272.07 174.29 272.58 173.89Q273.09 173.50 273.09 172.76L273.09 171.88Q272.84 172.27 272.32 172.52Q271.80 172.76 271.18 172.76Q270.43 172.76 269.86 172.42Q269.28 172.08 268.95 171.47Q268.62 170.87 268.62 170.06Q268.62 169.25 268.94 168.64Q269.27 168.04 269.86 167.70Q270.45 167.37 271.22 167.37Q271.82 167.37 272.33 167.60Q272.84 167.83 273.09 168.23L273.09 167.46L274.03 167.46L274.03 172.67Q274.03 173.43 273.67 173.97Q273.32 174.51 272.70 174.80Q272.07 175.09 271.28 175.09M271.33 171.93Q271.83 171.93 272.23 171.69Q272.63 171.45 272.87 171.03Q273.10 170.60 273.10 170.06Q273.10 169.50 272.87 169.08Q272.63 168.66 272.23 168.42Q271.83 168.18 271.33 168.18Q270.82 168.18 270.42 168.42Q270.03 168.66 269.80 169.08Q269.57 169.50 269.57 170.06Q269.57 170.61 269.80 171.04Q270.03 171.46 270.42 171.70Q270.82 171.93 271.33 171.93M277.89 173.09Q277.08 173.09 276.46 172.72Q275.84 172.35 275.49 171.71Q275.14 171.06 275.14 170.23Q275.14 169.39 275.49 168.75Q275.85 168.10 276.46 167.74Q277.07 167.37 277.86 167.37Q278.71 167.37 279.31 167.77Q279.92 168.17 280.21 168.84Q280.51 169.51 280.40 170.35L276.10 170.35Q276.14 171.21 276.63 171.74Q277.11 172.27 277.89 172.27Q278.49 172.27 278.94 171.96Q279.39 171.64 279.50 171.19L280.36 171.41Q280.17 172.15 279.50 172.62Q278.83 173.09 277.89 173.09M276.17 169.60L279.44 169.60Q279.43 168.94 278.99 168.56Q278.55 168.17 277.86 168.17Q277.21 168.17 276.76 168.55Q276.31 168.93 276.17 169.60M284.97 175L284.02 175L284.02 167.46L284.97 167.46L284.97 168.36Q285.22 167.91 285.74 167.64Q286.26 167.37 286.88 167.37Q287.72 167.37 288.33 167.73Q288.95 168.08 289.29 168.73Q289.64 169.37 289.64 170.23Q289.64 171.09 289.29 171.73Q288.95 172.37 288.33 172.73Q287.72 173.09 286.88 173.09Q286.27 173.09 285.75 172.81Q285.22 172.54 284.97 172.09L284.97 175M286.82 172.27Q287.36 172.27 287.78 172.02Q288.20 171.76 288.44 171.29Q288.68 170.83 288.68 170.23Q288.68 169.62 288.44 169.16Q288.20 168.70 287.78 168.44Q287.36 168.18 286.82 168.18Q286.29 168.18 285.86 168.44Q285.44 168.70 285.20 169.16Q284.97 169.62 284.97 170.23Q284.97 170.82 285.20 171.28Q285.44 171.75 285.86 172.01Q286.29 172.27 286.82 172.27M292.79 173.09Q292.20 173.09 291.74 172.85Q291.27 172.62 291 172.18Q290.73 171.74 290.73 171.10L290.73 167.46L291.68 167.46L291.68 170.88Q291.68 171.55 292.03 171.91Q292.38 172.26 292.96 172.26Q293.79 172.26 294.27 171.60Q294.76 170.94 294.76 169.83L294.76 167.46L295.69 167.46L295.69 173L294.76 173L294.76 172.04Q294.49 172.47 293.99 172.78Q293.48 173.09 292.79 173.09M299 173.09Q298.07 173.09 297.47 172.62Q296.88 172.15 296.70 171.45L297.56 171.17Q297.68 171.71 298.04 172Q298.40 172.28 299 172.28Q299.52 172.28 299.83 172.06Q300.15 171.84 300.15 171.42Q300.15 171.07 299.91 170.89Q299.68 170.71 299.32 170.60Q298.96 170.49 298.56 170.39Q298.15 170.29 297.79 170.13Q297.43 169.96 297.20 169.67Q296.97 169.37 296.97 168.86Q296.97 168.44 297.20 168.10Q297.44 167.76 297.87 167.57Q298.30 167.37 298.85 167.37Q299.66 167.37 300.24 167.74Q300.82 168.10 300.99 168.74L300.13 169.05Q300 168.57 299.67 168.37Q299.33 168.17 298.85 168.17Q298.44 168.17 298.17 168.34Q297.89 168.50 297.89 168.83Q297.89 169.14 298.12 169.30Q298.35 169.46 298.72 169.55Q299.08 169.65 299.49 169.74Q299.90 169.84 300.27 170.02Q300.63 170.19 300.86 170.52Q301.09 170.84 301.09 171.39Q301.09 171.89 300.82 172.27Q300.54 172.66 300.07 172.87Q299.61 173.09 299 173.09M303.15 173L302.21 173L302.21 165.21L303.15 165.21L303.15 168.41Q303.40 167.98 303.91 167.68Q304.42 167.37 305.12 167.37Q305.70 167.37 306.17 167.60Q306.64 167.84 306.91 168.29Q307.17 168.73 307.17 169.37L307.17 173L306.23 173L306.23 169.58Q306.23 168.91 305.88 168.55Q305.52 168.19 304.93 168.19Q304.12 168.19 303.63 168.85Q303.15 169.51 303.15 170.62" fill="#686c62"/>
  

  
    <rect x="40" y="110" width="150" height="80" rx="2" fill="#ffffff"/>
    <path d="M84.60 155L82.83 155L82.83 146.01L79.61 146.01L79.61 144.50L87.83 144.50L87.83 146.01L84.60 146.01L84.60 155M91.26 155.12Q90.05 155.12 89.33 154.49Q88.62 153.86 88.62 152.93Q88.62 151.81 89.42 151.20Q90.23 150.59 91.98 150.40L93.53 150.25L93.53 150.05Q93.53 149.39 93.08 149.01Q92.64 148.64 91.92 148.64Q91.23 148.64 90.80 148.99Q90.38 149.33 90.29 150.03L88.71 149.79Q88.91 148.69 89.78 148Q90.65 147.32 91.92 147.32Q92.87 147.32 93.60 147.66Q94.34 148.01 94.75 148.66Q95.16 149.31 95.16 150.25L95.16 155L93.53 155L93.53 153.91Q93.29 154.41 92.66 154.77Q92.03 155.12 91.26 155.12M93.53 151.67L93.53 151.46L92.06 151.64Q91.11 151.75 90.68 152.01Q90.26 152.28 90.26 152.85Q90.26 153.34 90.60 153.60Q90.95 153.86 91.53 153.86Q92.13 153.86 92.57 153.56Q93.02 153.26 93.27 152.76Q93.53 152.27 93.53 151.67M98.52 155L96.89 155L96.89 147.44L98.52 147.44L98.52 148.59Q98.85 147.98 99.46 147.65Q100.07 147.32 100.80 147.32Q101.04 147.32 101.30 147.36Q101.55 147.40 101.73 147.47L101.61 149.03Q101.37 148.93 101.13 148.90Q100.89 148.87 100.65 148.87Q99.78 148.87 99.15 149.65Q98.52 150.44 98.52 152.07L98.52 155M106.08 157.85Q105.20 157.85 104.45 157.56Q103.71 157.28 103.22 156.77Q102.74 156.26 102.60 155.62L104.19 155.30Q104.34 155.88 104.86 156.21Q105.38 156.53 106.11 156.53Q107.04 156.53 107.64 156.06Q108.24 155.59 108.24 154.67L108.24 153.57Q107.93 154.06 107.27 154.35Q106.62 154.64 105.84 154.64Q104.82 154.64 104.03 154.18Q103.23 153.72 102.78 152.90Q102.33 152.07 102.33 150.98Q102.33 149.85 102.78 149.04Q103.23 148.22 104.03 147.77Q104.82 147.32 105.87 147.32Q106.65 147.32 107.28 147.60Q107.91 147.89 108.24 148.37L108.24 147.44L109.89 147.44L109.89 154.50Q109.89 155.57 109.41 156.32Q108.93 157.07 108.08 157.46Q107.22 157.85 106.08 157.85M106.13 153.23Q107.04 153.23 107.64 152.60Q108.24 151.97 108.24 150.98Q108.24 149.97 107.64 149.35Q107.04 148.73 106.13 148.73Q105.20 148.73 104.60 149.35Q104 149.97 104 150.98Q104 151.99 104.60 152.61Q105.20 153.23 106.13 153.23M115.08 155.12Q113.94 155.12 113.08 154.62Q112.22 154.12 111.74 153.24Q111.26 152.36 111.26 151.22Q111.26 150.08 111.74 149.20Q112.22 148.32 113.07 147.82Q113.93 147.32 115.02 147.32Q116.22 147.32 117.08 147.88Q117.93 148.44 118.34 149.40Q118.74 150.35 118.59 151.52L112.91 151.52Q113 152.53 113.57 153.13Q114.15 153.74 115.08 153.74Q115.79 153.74 116.33 153.37Q116.87 153 117 152.45L118.53 152.85Q118.25 153.86 117.31 154.49Q116.37 155.12 115.08 155.12M113 150.28L116.90 150.28Q116.88 149.53 116.36 149.08Q115.85 148.64 115.02 148.64Q114.26 148.64 113.72 149.07Q113.19 149.50 113 150.28M123.02 155.12Q121.95 155.12 121.24 154.47Q120.53 153.83 120.53 152.60L120.53 148.79L119.28 148.79L119.28 147.44L120.53 147.44L120.53 145.56L122.18 145.56L122.18 147.44L124.01 147.44L124.01 148.79L122.18 148.79L122.18 152.47Q122.18 153.06 122.46 153.37Q122.75 153.68 123.23 153.68Q123.44 153.68 123.62 153.63Q123.81 153.59 124.01 153.53L124.13 154.93Q123.89 155.03 123.59 155.07Q123.30 155.12 123.02 155.12M129.42 155L127.59 155L131.70 144.50L133.68 144.50L137.78 155L135.89 155L134.93 152.53L130.40 152.53L129.42 155M132.66 146.60L130.95 151.03L134.37 151.03L132.66 146.60M140.60 155L138.84 155L138.84 144.50L143.04 144.50Q144.08 144.50 144.84 144.89Q145.61 145.28 146.03 145.98Q146.45 146.68 146.45 147.62Q146.45 148.56 146.03 149.27Q145.61 149.97 144.84 150.37Q144.08 150.75 143.04 150.75L140.60 150.75L140.60 155M140.60 146.01L140.60 149.25L142.86 149.25Q143.70 149.25 144.20 148.81Q144.69 148.35 144.69 147.62Q144.69 146.88 144.20 146.45Q143.70 146.01 142.86 146.01L140.60 146.01M149.57 155L147.80 155L147.80 144.50L149.57 144.50" fill="#262d1e"/>
  
  
    <rect x="350" y="110" width="170" height="80" rx="2" fill="#3f5b1e"/>
    <path d="M391.91 155L390.28 155L390.28 147.44L391.91 147.44L391.91 148.59Q392.24 147.98 392.85 147.65Q393.46 147.32 394.19 147.32Q394.43 147.32 394.69 147.36Q394.94 147.40 395.12 147.47L395 149.03Q394.76 148.93 394.52 148.90Q394.28 148.87 394.04 148.87Q393.17 148.87 392.54 149.65Q391.91 150.44 391.91 152.07L391.91 155M399.52 155.12Q398.38 155.12 397.52 154.62Q396.65 154.12 396.17 153.24Q395.69 152.36 395.69 151.22Q395.69 150.08 396.17 149.20Q396.65 148.32 397.51 147.82Q398.36 147.32 399.46 147.32Q400.66 147.32 401.51 147.88Q402.37 148.44 402.77 149.40Q403.18 150.35 403.03 151.52L397.34 151.52Q397.43 152.53 398.01 153.13Q398.59 153.74 399.52 153.74Q400.22 153.74 400.76 153.37Q401.30 153 401.44 152.45L402.97 152.85Q402.68 153.86 401.75 154.49Q400.81 155.12 399.52 155.12M397.43 150.28L401.33 150.28Q401.32 149.53 400.80 149.08Q400.28 148.64 399.46 148.64Q398.69 148.64 398.16 149.07Q397.63 149.50 397.43 150.28M406.12 157.73L404.47 157.73L404.47 147.44L406.12 147.44L406.12 148.49Q406.45 147.97 407.12 147.64Q407.80 147.32 408.58 147.32Q409.70 147.32 410.54 147.81Q411.37 148.29 411.82 149.16Q412.28 150.03 412.28 151.22Q412.28 152.39 411.82 153.27Q411.37 154.15 410.54 154.63Q409.70 155.12 408.58 155.12Q407.80 155.12 407.12 154.79Q406.45 154.46 406.12 153.94L406.12 157.73M408.37 153.71Q409.03 153.71 409.53 153.40Q410.03 153.08 410.32 152.52Q410.62 151.96 410.62 151.22Q410.62 150.11 409.98 149.42Q409.34 148.73 408.37 148.73Q407.38 148.73 406.75 149.42Q406.12 150.11 406.12 151.22Q406.12 151.94 406.40 152.50Q406.69 153.06 407.20 153.39Q407.71 153.71 408.37 153.71M415.33 155L413.69 155L413.69 144.38L415.33 144.38L415.33 155M418.79 155L417.16 155L417.16 147.44L418.79 147.44L418.79 155M417.98 146.30Q417.52 146.30 417.20 146Q416.89 145.70 416.89 145.24Q416.89 144.77 417.20 144.47Q417.52 144.17 417.98 144.17Q418.46 144.17 418.78 144.47Q419.09 144.77 419.09 145.24Q419.09 145.70 418.78 146Q418.46 146.30 417.98 146.30M424 155.12Q422.89 155.12 422.02 154.61Q421.16 154.10 420.67 153.22Q420.19 152.33 420.19 151.21Q420.19 150.08 420.67 149.20Q421.16 148.32 422.02 147.82Q422.89 147.32 424 147.32Q425.38 147.32 426.35 148.03Q427.33 148.73 427.52 149.97L425.87 150.22Q425.75 149.51 425.26 149.12Q424.76 148.73 424 148.73Q423.40 148.73 422.91 149.04Q422.42 149.36 422.14 149.91Q421.85 150.47 421.85 151.21Q421.85 151.94 422.14 152.50Q422.42 153.06 422.91 153.39Q423.40 153.71 424 153.71Q424.79 153.71 425.29 153.31Q425.80 152.90 425.90 152.24L427.60 152.45Q427.49 153.23 427 153.84Q426.52 154.44 425.75 154.78Q424.97 155.12 424 155.12M431.18 155.12Q429.97 155.12 429.25 154.49Q428.54 153.86 428.54 152.93Q428.54 151.81 429.34 151.20Q430.15 150.59 431.90 150.40L433.45 150.25L433.45 150.05Q433.45 149.39 433 149.01Q432.56 148.64 431.84 148.64Q431.15 148.64 430.72 148.99Q430.30 149.33 430.21 150.03L428.63 149.79Q428.83 148.69 429.70 148Q430.57 147.32 431.84 147.32Q432.79 147.32 433.52 147.66Q434.26 148.01 434.67 148.66Q435.08 149.31 435.08 150.25L435.08 155L433.45 155L433.45 153.91Q433.21 154.41 432.58 154.77Q431.95 155.12 431.18 155.12M433.45 151.67L433.45 151.46L431.98 151.64Q431.03 151.75 430.60 152.01Q430.18 152.28 430.18 152.85Q430.18 153.34 430.52 153.60Q430.87 153.86 431.45 153.86Q432.05 153.86 432.49 153.56Q432.94 153.26 433.19 152.76Q433.45 152.27 433.45 151.67M443.39 155.12Q442.28 155.12 441.42 154.61Q440.56 154.10 440.07 153.22Q439.58 152.33 439.58 151.21Q439.58 150.08 440.07 149.20Q440.56 148.32 441.42 147.82Q442.28 147.32 443.39 147.32Q444.77 147.32 445.75 148.03Q446.72 148.73 446.92 149.97L445.27 150.22Q445.15 149.51 444.65 149.12Q444.16 148.73 443.39 148.73Q442.79 148.73 442.30 149.04Q441.82 149.36 441.53 149.91Q441.25 150.47 441.25 151.21Q441.25 151.94 441.53 152.50Q441.82 153.06 442.30 153.39Q442.79 153.71 443.39 153.71Q444.19 153.71 444.69 153.31Q445.19 152.90 445.30 152.24L446.99 152.45Q446.89 153.23 446.40 153.84Q445.91 154.44 445.14 154.78Q444.37 155.12 443.39 155.12M450.58 155.12Q449.36 155.12 448.65 154.49Q447.94 153.86 447.94 152.93Q447.94 151.81 448.74 151.20Q449.54 150.59 451.30 150.40L452.84 150.25L452.84 150.05Q452.84 149.39 452.40 149.01Q451.96 148.64 451.24 148.64Q450.55 148.64 450.12 148.99Q449.69 149.33 449.60 150.03L448.03 149.79Q448.22 148.69 449.09 148Q449.96 147.32 451.24 147.32Q452.18 147.32 452.92 147.66Q453.65 148.01 454.06 148.66Q454.48 149.31 454.48 150.25L454.48 155L452.84 155L452.84 153.91Q452.60 154.41 451.97 154.77Q451.34 155.12 450.58 155.12M452.84 151.67L452.84 151.46L451.37 151.64Q450.43 151.75 450 152.01Q449.57 152.28 449.57 152.85Q449.57 153.34 449.92 153.60Q450.26 153.86 450.85 153.86Q451.45 153.86 451.89 153.56Q452.33 153.26 452.59 152.76Q452.84 152.27 452.84 151.67M459.58 155.12Q458.47 155.12 457.60 154.61Q456.74 154.10 456.25 153.22Q455.77 152.33 455.77 151.21Q455.77 150.08 456.25 149.20Q456.74 148.32 457.60 147.82Q458.47 147.32 459.58 147.32Q460.96 147.32 461.93 148.03Q462.91 148.73 463.10 149.97L461.45 150.22Q461.33 149.51 460.84 149.12Q460.34 148.73 459.58 148.73Q458.98 148.73 458.49 149.04Q458 149.36 457.72 149.91Q457.43 150.47 457.43 151.21Q457.43 151.94 457.72 152.50Q458 153.06 458.49 153.39Q458.98 153.71 459.58 153.71Q460.37 153.71 460.87 153.31Q461.38 152.90 461.48 152.24L463.18 152.45Q463.07 153.23 462.58 153.84Q462.10 154.44 461.32 154.78Q460.55 155.12 459.58 155.12M466.10 155L464.47 155L464.47 144.38L466.10 144.38L466.10 148.56Q466.43 148.07 467.09 147.69Q467.75 147.32 468.65 147.32Q469.46 147.32 470.10 147.65Q470.74 147.98 471.10 148.60Q471.47 149.22 471.47 150.09L471.47 155L469.82 155L469.82 150.46Q469.82 149.65 469.39 149.20Q468.95 148.76 468.23 148.76Q467.24 148.76 466.67 149.56Q466.10 150.35 466.10 151.73L466.10 155M476.60 155.12Q475.46 155.12 474.60 154.62Q473.74 154.12 473.26 153.24Q472.78 152.36 472.78 151.22Q472.78 150.08 473.26 149.20Q473.74 148.32 474.59 147.82Q475.45 147.32 476.54 147.32Q477.74 147.32 478.60 147.88Q479.45 148.44 479.86 149.40Q480.26 150.35 480.11 151.52L474.43 151.52Q474.52 152.53 475.09 153.13Q475.67 153.74 476.60 153.74Q477.31 153.74 477.85 153.37Q478.39 153 478.52 152.45L480.05 152.85Q479.77 153.86 478.83 154.49Q477.89 155.12 476.60 155.12M474.52 150.28L478.42 150.28Q478.40 149.53 477.88 149.08Q477.37 148.64 476.54 148.64Q475.78 148.64 475.24 149.07Q474.71 149.50 474.52 150.28" fill="#f6f5ee"/>
  
  
    <rect x="600" y="110" width="230" height="80" rx="2" fill="#ffffff"/>
    <path d="M654.24 157.55L652.70 157.55L652.70 154.01Q652.41 154.51 651.78 154.81Q651.15 155.11 650.43 155.11Q649.40 155.11 648.61 154.66Q647.81 154.22 647.38 153.40Q646.95 152.58 646.95 151.47Q646.95 150.37 647.38 149.55Q647.81 148.73 648.61 148.28Q649.40 147.83 650.43 147.83Q651.16 147.83 651.78 148.13Q652.41 148.43 652.70 148.92L652.70 147.94L654.24 147.94L654.24 157.55M650.60 153.80Q651.22 153.80 651.69 153.50Q652.17 153.19 652.43 152.67Q652.70 152.14 652.70 151.47Q652.70 150.44 652.11 149.79Q651.52 149.15 650.60 149.15Q649.69 149.15 649.10 149.79Q648.51 150.44 648.51 151.47Q648.51 152.49 649.10 153.15Q649.69 153.80 650.60 153.80M658.45 155.11Q657.70 155.11 657.11 154.80Q656.52 154.50 656.18 153.92Q655.84 153.35 655.84 152.56L655.84 147.94L657.38 147.94L657.38 152.17Q657.38 152.93 657.77 153.35Q658.17 153.77 658.86 153.77Q659.77 153.77 660.31 153.02Q660.85 152.27 660.85 150.98L660.85 147.94L662.37 147.94L662.37 155L660.85 155L660.85 153.95Q660.54 154.41 659.92 154.76Q659.31 155.11 658.45 155.11M667.25 155.11Q666.18 155.11 665.38 154.64Q664.57 154.17 664.12 153.35Q663.68 152.54 663.68 151.47Q663.68 150.41 664.12 149.59Q664.57 148.77 665.37 148.30Q666.17 147.83 667.19 147.83Q668.31 147.83 669.11 148.36Q669.91 148.88 670.28 149.77Q670.66 150.66 670.52 151.75L665.22 151.75Q665.30 152.69 665.84 153.26Q666.38 153.82 667.25 153.82Q667.90 153.82 668.41 153.48Q668.91 153.14 669.04 152.62L670.47 153Q670.20 153.94 669.33 154.52Q668.45 155.11 667.25 155.11M665.30 150.59L668.94 150.59Q668.93 149.89 668.44 149.48Q667.96 149.06 667.19 149.06Q666.48 149.06 665.98 149.46Q665.48 149.86 665.30 150.59M673.39 155L671.87 155L671.87 147.94L673.39 147.94L673.39 149.02Q673.70 148.45 674.27 148.14Q674.83 147.83 675.52 147.83Q675.74 147.83 675.98 147.87Q676.22 147.90 676.39 147.97L676.28 149.43Q676.05 149.33 675.83 149.30Q675.60 149.27 675.38 149.27Q674.57 149.27 673.98 150.01Q673.39 150.74 673.39 152.27L673.39 155M678.85 155L677.33 155L677.33 147.94L678.85 147.94L678.85 155M678.10 146.88Q677.66 146.88 677.37 146.60Q677.07 146.32 677.07 145.89Q677.07 145.45 677.37 145.17Q677.66 144.89 678.10 144.89Q678.54 144.89 678.84 145.17Q679.13 145.45 679.13 145.89Q679.13 146.32 678.84 146.60Q678.54 146.88 678.10 146.88M683.72 155.11Q682.66 155.11 681.86 154.64Q681.05 154.17 680.60 153.35Q680.15 152.54 680.15 151.47Q680.15 150.41 680.60 149.59Q681.05 148.77 681.85 148.30Q682.65 147.83 683.67 147.83Q684.79 147.83 685.59 148.36Q686.38 148.88 686.76 149.77Q687.14 150.66 NaN 151.75L681.69 151.75Q681.78 152.69 682.32 153.26Q682.86 153.82 683.72 153.82Q684.38 153.82 684.89 153.48Q685.39 153.14 685.52 152.62L686.94 153Q686.68 153.94 685.80 154.52Q684.93 155.11 683.72 155.11M681.78 150.59L685.42 150.59Q685.40 149.89 684.92 149.48Q684.44 149.06 683.67 149.06Q682.95 149.06 682.46 149.46Q681.96 149.86 681.78 150.59M690.79 155.11Q689.98 155.11 689.35 154.83Q688.72 154.55 688.32 154.07Q687.92 153.59 687.78 153.01L689.11 152.58Q689.25 153.19 689.68 153.54Q690.11 153.88 690.79 153.88Q691.35 153.88 691.70 153.63Q692.04 153.39 692.04 152.96Q692.04 152.58 691.76 152.38Q691.48 152.17 691.03 152.05Q690.58 151.92 690.08 151.79Q689.58 151.65 689.13 151.44Q688.68 151.22 688.40 150.83Q688.12 150.44 688.12 149.78Q688.12 149.23 688.43 148.79Q688.74 148.35 689.29 148.09Q689.84 147.83 690.58 147.83Q691.65 147.83 692.40 148.31Q693.16 148.78 693.38 149.57L692.07 150.06Q691.91 149.48 691.51 149.25Q691.10 149.02 690.58 149.02Q690.15 149.02 689.86 149.20Q689.56 149.39 689.56 149.74Q689.56 150.09 689.85 150.26Q690.14 150.44 690.58 150.55Q691.03 150.66 691.54 150.79Q692.04 150.91 692.49 151.14Q692.94 151.37 693.22 151.79Q693.51 152.20 693.51 152.91Q693.51 153.56 693.16 154.06Q692.81 154.55 692.19 154.83Q691.58 155.11 690.79 155.11M699.32 155L697.79 155L697.79 145.09L699.32 145.09L699.32 148.99Q699.63 148.53 700.24 148.18Q700.86 147.83 701.70 147.83Q702.46 147.83 703.05 148.14Q703.65 148.45 703.99 149.03Q704.33 149.61 704.33 150.42L704.33 155L702.79 155L702.79 150.76Q702.79 150 702.39 149.59Q701.98 149.18 701.31 149.18Q700.38 149.18 699.85 149.92Q699.32 150.66 699.32 151.95L699.32 155M707.48 155L705.96 155L705.96 147.94L707.48 147.94L707.48 155M706.73 146.88Q706.29 146.88 706 146.60Q705.70 146.32 705.70 145.89Q705.70 145.45 706 145.17Q706.29 144.89 706.73 144.89Q707.17 144.89 707.47 145.17Q707.76 145.45 707.76 145.89Q707.76 146.32 707.47 146.60Q707.17 146.88 706.73 146.88M711.98 155.11Q710.98 155.11 710.32 154.51Q709.65 153.91 709.65 152.76L709.65 149.20L708.49 149.20L708.49 147.94L709.65 147.94L709.65 146.19L711.19 146.19L711.19 147.94L712.90 147.94L712.90 149.20L711.19 149.20L711.19 152.63Q711.19 153.19 711.46 153.48Q711.72 153.77 712.17 153.77Q712.37 153.77 712.54 153.73Q712.72 153.68 712.90 153.63L713.01 154.93Q712.79 155.03 712.52 155.07Q712.24 155.11 711.98 155.11M719.87 155.11Q718.88 155.11 718.21 154.51Q717.55 153.91 717.55 152.76L717.55 149.20L716.39 149.20L716.39 147.94L717.55 147.94L717.55 146.19L719.09 146.19L719.09 147.94L720.80 147.94L720.80 149.20L719.09 149.20L719.09 152.63Q719.09 153.19 719.35 153.48Q719.62 153.77 720.07 153.77Q720.26 153.77 720.44 153.73Q720.61 153.68 720.80 153.63L720.91 154.93Q720.68 155.03 720.41 155.07Q720.14 155.11 719.87 155.11M723.51 155L721.99 155L721.99 145.09L723.51 145.09L723.51 148.99Q723.82 148.53 724.44 148.18Q725.05 147.83 725.89 147.83Q726.65 147.83 727.24 148.14Q727.84 148.45 728.18 149.03Q728.52 149.61 728.52 150.42L728.52 155L726.98 155L726.98 150.76Q726.98 150 726.58 149.59Q726.17 149.18 725.50 149.18Q724.58 149.18 724.04 149.92Q723.51 150.66 723.51 151.95L723.51 155M733.31 155.11Q732.25 155.11 731.44 154.64Q730.64 154.17 730.19 153.35Q729.74 152.54 729.74 151.47Q729.74 150.41 730.19 149.59Q730.64 148.77 731.44 148.30Q732.23 147.83 733.26 147.83Q734.38 147.83 735.17 148.36Q735.97 148.88 736.35 149.77Q736.73 150.66 736.59 151.75L731.28 151.75Q731.37 152.69 731.91 153.26Q732.44 153.82 733.31 153.82Q733.97 153.82 734.47 153.48Q734.98 153.14 735.10 152.62L736.53 153Q736.27 153.94 735.39 154.52Q734.52 155.11 733.31 155.11M731.37 150.59L735.01 150.59Q734.99 149.89 734.51 149.48Q734.03 149.06 733.26 149.06Q732.54 149.06 732.05 149.46Q731.55 149.86 731.37 150.59M742.45 155L740.93 155L740.93 147.94L742.45 147.94L742.45 149.02Q742.76 148.45 743.33 148.14Q743.90 147.83 744.58 147.83Q744.81 147.83 745.04 147.87Q745.28 147.90 745.45 147.97L745.34 149.43Q745.11 149.33 744.89 149.30Q744.67 149.27 744.44 149.27Q743.63 149.27 743.04 150.01Q742.45 150.74 742.45 152.27L742.45 155M749.55 155.11Q748.49 155.11 747.68 154.64Q746.88 154.17 746.43 153.35Q745.98 152.54 745.98 151.47Q745.98 150.41 746.43 149.59Q746.88 148.77 747.68 148.30Q748.47 147.83 749.50 147.83Q750.62 147.83 751.41 148.36Q752.21 148.88 752.59 149.77Q752.97 150.66 752.83 151.75L747.52 151.75Q747.61 152.69 748.15 153.26Q748.68 153.82 749.55 153.82Q750.21 153.82 750.71 153.48Q751.22 153.14 751.34 152.62L752.77 153Q752.51 153.94 751.63 154.52Q750.76 155.11 749.55 155.11M747.61 150.59L751.25 150.59Q751.23 149.89 750.75 149.48Q750.27 149.06 749.50 149.06Q748.78 149.06 748.29 149.46Q747.79 149.86 747.61 150.59M755.71 157.55L754.17 157.55L754.17 147.94L755.71 147.94L755.71 148.92Q756.02 148.43 756.65 148.13Q757.28 147.83 758.01 147.83Q759.06 147.83 759.84 148.29Q760.61 148.74 761.04 149.55Q761.47 150.37 761.47 151.47Q761.47 152.56 761.04 153.38Q760.61 154.20 759.84 154.66Q759.06 155.11 758.01 155.11Q757.28 155.11 756.65 154.80Q756.02 154.50 755.71 154.01L755.71 157.55M757.81 153.80Q758.43 153.80 758.90 153.50Q759.37 153.21 759.64 152.68Q759.91 152.16 759.91 151.47Q759.91 150.44 759.32 149.79Q758.72 149.15 757.81 149.15Q756.89 149.15 756.30 149.79Q755.71 150.44 755.71 151.47Q755.71 152.14 755.98 152.67Q756.24 153.19 756.72 153.50Q757.20 153.80 757.81 153.80M764.31 155L762.78 155L762.78 145.09L764.31 145.09L764.31 155M767.54 155L766.02 155L766.02 147.94L767.54 147.94L767.54 155M766.79 146.88Q766.35 146.88 766.06 146.60Q765.76 146.32 765.76 145.89Q765.76 145.45 766.06 145.17Q766.35 144.89 766.79 144.89Q767.23 144.89 767.53 145.17Q767.82 145.45 767.82 145.89Q767.82 146.32 767.53 146.60Q767.23 146.88 766.79 146.88M772.40 155.11Q771.36 155.11 770.56 154.64Q769.75 154.16 769.30 153.33Q768.84 152.51 768.84 151.46Q768.84 150.41 769.30 149.59Q769.75 148.77 770.56 148.30Q771.36 147.83 772.40 147.83Q773.69 147.83 774.60 148.49Q775.51 149.15 775.69 150.31L774.15 150.53Q774.04 149.88 773.58 149.51Q773.11 149.15 772.40 149.15Q771.84 149.15 771.39 149.44Q770.93 149.74 770.66 150.25Q770.40 150.77 770.40 151.46Q770.40 152.14 770.66 152.67Q770.93 153.19 771.39 153.50Q771.84 153.80 772.40 153.80Q773.14 153.80 773.61 153.42Q774.08 153.04 774.18 152.42L775.76 152.62Q775.66 153.35 775.21 153.91Q774.75 154.48 774.03 154.80Q773.31 155.11 772.40 155.11M779.11 155.11Q777.97 155.11 777.31 154.52Q776.64 153.94 776.64 153.07Q776.64 152.02 777.39 151.45Q778.14 150.88 779.78 150.70L781.22 150.56L781.22 150.38Q781.22 149.76 780.81 149.41Q780.39 149.06 779.72 149.06Q779.08 149.06 778.68 149.39Q778.28 149.71 778.20 150.37L776.73 150.14Q776.91 149.11 777.72 148.47Q778.53 147.83 779.72 147.83Q780.60 147.83 781.29 148.15Q781.98 148.48 782.36 149.09Q782.75 149.69 782.75 150.56L782.75 155L781.22 155L781.22 153.98Q781 154.45 780.41 154.78Q779.82 155.11 779.11 155.11M781.22 151.89L781.22 151.70L779.85 151.86Q778.97 151.96 778.57 152.21Q778.17 152.47 778.17 153Q778.17 153.45 778.49 153.69Q778.81 153.94 779.36 153.94Q779.92 153.94 780.33 153.66Q780.74 153.38 780.98 152.91Q781.22 152.45 781.22 151.89" fill="#262d1e"/>
  
</svg>
