<svg width="760" height="360" viewBox="0 0 760 360" fill="none" xmlns="http://www.w3.org/2000/svg" font-family="Matter, Inter, system-ui, sans-serif">
  <defs>
    <pattern id="dots" width="22" height="22" patternUnits="userSpaceOnUse"><circle cx="2" cy="2" r="1.4" fill="#d4d2c6"/></pattern>
    <marker id="arr" markerWidth="9" markerHeight="9" refX="7" refY="3" orient="auto" markerUnits="userSpaceOnUse"><path d="M0 0L7 3L0 6Z" fill="#686c62"/></marker>
  </defs>
  <rect width="760" height="360" rx="4" fill="#f6f5ee"/>
  <rect width="760" height="360" rx="4" fill="url(#dots)"/>

  <!-- lifelines -->
  
  <g stroke="#686c62" stroke-opacity="0.4" stroke-width="1.5" stroke-dasharray="3 4">
    <line x1="200" y1="64" x2="200" y2="346"/>
    <line x1="560" y1="64" x2="560" y2="346"/>
  </g>
  

  <!-- headers -->
  <rect x="130" y="20" width="140" height="44" rx="2" fill="#ffffff"/>
  <path d="M153.26 47L151.72 47L151.72 37.90L153.26 37.90L153.26 47M157.81 47.10Q156.83 47.10 156.11 46.68Q155.39 46.26 154.99 45.50Q154.60 44.74 154.60 43.72Q154.60 42.70 154.99 41.94Q155.39 41.19 156.11 40.77Q156.83 40.34 157.81 40.34Q158.50 40.34 159.08 40.62Q159.65 40.90 159.93 41.36L159.93 37.80L161.37 37.80L161.37 47L159.93 47L159.93 46.08Q159.65 46.53 159.07 46.82Q158.48 47.10 157.81 47.10M157.99 45.88Q158.85 45.88 159.39 45.28Q159.93 44.67 159.93 43.72Q159.93 42.76 159.39 42.16Q158.85 41.57 157.99 41.57Q157.13 41.57 156.59 42.16Q156.04 42.76 156.04 43.72Q156.04 44.67 156.59 45.28Q157.13 45.88 157.99 45.88M165.88 47.10Q164.89 47.10 164.15 46.67Q163.40 46.23 162.98 45.47Q162.57 44.71 162.57 43.72Q162.57 42.74 162.98 41.98Q163.40 41.22 164.14 40.78Q164.88 40.34 165.83 40.34Q166.87 40.34 167.61 40.83Q168.35 41.32 168.70 42.14Q169.05 42.97 168.92 43.98L164 43.98Q164.07 44.85 164.58 45.38Q165.08 45.91 165.88 45.91Q166.49 45.91 166.96 45.59Q167.43 45.27 167.55 44.79L168.87 45.14Q168.62 46.01 167.81 46.56Q167 47.10 165.88 47.10M164.07 42.91L167.45 42.91Q167.44 42.26 166.99 41.87Q166.54 41.49 165.83 41.49Q165.17 41.49 164.71 41.86Q164.24 42.23 164.07 42.91M171.59 47L170.17 47L170.17 40.45L171.59 40.45L171.59 41.42Q171.87 40.99 172.45 40.67Q173.02 40.34 173.80 40.34Q174.50 40.34 175.05 40.63Q175.61 40.92 175.92 41.46Q176.23 41.99 176.23 42.75L176.23 47L174.81 47L174.81 43.06Q174.81 42.36 174.44 41.98Q174.06 41.59 173.43 41.59Q172.58 41.59 172.08 42.28Q171.59 42.97 171.59 44.17L171.59 47M180.34 47.10Q179.41 47.10 178.80 46.55Q178.18 45.99 178.18 44.92L178.18 41.62L177.10 41.62L177.10 40.45L178.18 40.45L178.18 38.82L179.61 38.82L179.61 40.45L181.20 40.45L181.20 41.62L179.61 41.62L179.61 44.80Q179.61 45.32 179.86 45.59Q180.10 45.86 180.52 45.86Q180.70 45.86 180.86 45.82Q181.03 45.78 181.20 45.73L181.30 46.94Q181.09 47.03 180.84 47.06Q180.58 47.10 180.34 47.10M183.72 47L182.30 47L182.30 40.45L183.72 40.45L183.72 47M183.02 39.46Q182.61 39.46 182.34 39.20Q182.07 38.94 182.07 38.54Q182.07 38.13 182.34 37.87Q182.61 37.61 183.02 37.61Q183.43 37.61 183.70 37.87Q183.98 38.13 183.98 38.54Q183.98 38.94 183.70 39.20Q183.43 39.46 183.02 39.46M187.89 47.10Q186.97 47.10 186.35 46.55Q185.73 45.99 185.73 44.92L185.73 41.62L184.65 41.62L184.65 40.45L185.73 40.45L185.73 38.82L187.16 38.82L187.16 40.45L188.75 40.45L188.75 41.62L187.16 41.62L187.16 44.80Q187.16 45.32 187.41 45.59Q187.66 45.86 188.07 45.86Q188.25 45.86 188.42 45.82Q188.58 45.78 188.75 45.73L188.85 46.94Q188.64 47.03 188.39 47.06Q188.14 47.10 187.89 47.10M192.17 49.37L190.67 49.37L191.70 46.91L189.14 40.45L190.67 40.45L192.44 45.09L194.20 40.45L195.69 40.45L192.17 49.37M200.76 49.37L199.33 49.37L199.33 40.45L200.76 40.45L200.76 41.36Q201.05 40.90 201.63 40.62Q202.22 40.34 202.89 40.34Q203.87 40.34 204.59 40.77Q205.31 41.19 205.71 41.94Q206.10 42.70 206.10 43.72Q206.10 44.74 205.71 45.50Q205.31 46.26 204.59 46.68Q203.87 47.10 202.89 47.10Q202.22 47.10 201.63 46.82Q201.05 46.53 200.76 46.08L200.76 49.37M202.71 45.88Q203.28 45.88 203.72 45.61Q204.15 45.34 204.41 44.85Q204.66 44.36 204.66 43.72Q204.66 42.76 204.11 42.16Q203.56 41.57 202.71 41.57Q201.85 41.57 201.31 42.16Q200.76 42.76 200.76 43.72Q200.76 44.35 201.01 44.84Q201.25 45.32 201.70 45.60Q202.14 45.88 202.71 45.88M208.74 47L207.33 47L207.33 40.45L208.74 40.45L208.74 41.45Q209.03 40.92 209.56 40.63Q210.08 40.34 210.72 40.34Q210.93 40.34 211.15 40.38Q211.37 40.41 211.52 40.47L211.42 41.83Q211.21 41.73 211 41.71Q210.80 41.68 210.59 41.68Q209.83 41.68 209.29 42.37Q208.74 43.05 208.74 44.47L208.74 47M215.40 47.10Q214.42 47.10 213.66 46.67Q212.89 46.23 212.45 45.47Q212.02 44.70 212.02 43.71Q212.02 42.72 212.45 41.96Q212.89 41.20 213.66 40.77Q214.42 40.34 215.40 40.34Q216.39 40.34 217.15 40.77Q217.91 41.20 218.34 41.96Q218.78 42.72 218.78 43.71Q218.78 44.70 218.34 45.47Q217.91 46.23 217.15 46.67Q216.39 47.10 215.40 47.10M215.40 45.88Q216.26 45.88 216.80 45.28Q217.34 44.67 217.34 43.71Q217.34 42.76 216.80 42.16Q216.26 41.57 215.40 41.57Q214.55 41.57 214.01 42.16Q213.46 42.75 213.46 43.71Q213.46 44.67 214.01 45.28Q214.55 45.88 215.40 45.88M223.24 47L221.86 47L219.26 40.45L220.81 40.45L222.57 45.12L224.34 40.45L225.84 40.45L223.24 47M228.11 47L226.70 47L226.70 40.45L228.11 40.45L228.11 47M227.41 39.46Q227.01 39.46 226.73 39.20Q226.46 38.94 226.46 38.54Q226.46 38.13 226.73 37.87Q227.01 37.61 227.41 37.61Q227.83 37.61 228.10 37.87Q228.37 38.13 228.37 38.54Q228.37 38.94 228.10 39.20Q227.83 39.46 227.41 39.46M232.55 47.10Q231.57 47.10 230.85 46.68Q230.13 46.26 229.73 45.50Q229.33 44.74 229.33 43.72Q229.33 42.70 229.73 41.94Q230.13 41.19 230.85 40.77Q231.57 40.34 232.55 40.34Q233.23 40.34 233.81 40.62Q234.39 40.90 234.66 41.36L234.66 37.80L236.11 37.80L236.11 47L234.66 47L234.66 46.08Q234.39 46.53 233.81 46.82Q233.22 47.10 232.55 47.10M232.73 45.88Q233.59 45.88 234.13 45.28Q234.66 44.67 234.66 43.72Q234.66 42.76 234.13 42.16Q233.59 41.57 232.73 41.57Q231.87 41.57 231.32 42.16Q230.78 42.76 230.78 43.72Q230.78 44.67 231.32 45.28Q231.87 45.88 232.73 45.88M240.62 47.10Q239.63 47.10 238.88 46.67Q238.14 46.23 237.72 45.47Q237.30 44.71 237.30 43.72Q237.30 42.74 237.72 41.98Q238.14 41.22 238.88 40.78Q239.62 40.34 240.57 40.34Q241.61 40.34 242.35 40.83Q243.09 41.32 243.44 42.14Q243.79 42.97 243.66 43.98L238.73 43.98Q238.81 44.85 239.31 45.38Q239.81 45.91 240.62 45.91Q241.23 45.91 241.70 45.59Q242.17 45.27 242.28 44.79L243.61 45.14Q243.36 46.01 242.55 46.56Q241.74 47.10 240.62 47.10M238.81 42.91L242.19 42.91Q242.18 42.26 241.73 41.87Q241.28 41.49 240.57 41.49Q239.90 41.49 239.44 41.86Q238.98 42.23 238.81 42.91M246.33 47L244.91 47L244.91 40.45L246.33 40.45L246.33 41.45Q246.61 40.92 247.14 40.63Q247.66 40.34 248.30 40.34Q248.51 40.34 248.73 40.38Q248.95 40.41 249.11 40.47L249 41.83Q248.80 41.73 248.59 41.71Q248.38 41.68 248.17 41.68Q247.42 41.68 246.87 42.37Q246.33 43.05 246.33 44.47" fill="#262d1e"/>
  <rect x="490" y="20" width="140" height="44" rx="2" fill="#3f5b1e"/>
  <path d="M514.80 47L513.26 47L513.26 37.90L519.31 37.90L519.31 39.21L514.80 39.21L514.80 41.59L518.47 41.59L518.47 42.91L514.80 42.91L514.80 47M523.29 47.10Q522.31 47.10 521.55 46.67Q520.78 46.23 520.34 45.47Q519.91 44.70 519.91 43.71Q519.91 42.72 520.34 41.96Q520.78 41.20 521.55 40.77Q522.31 40.34 523.29 40.34Q524.28 40.34 525.04 40.77Q525.80 41.20 526.23 41.96Q526.67 42.72 526.67 43.71Q526.67 44.70 526.23 45.47Q525.80 46.23 525.04 46.67Q524.28 47.10 523.29 47.10M523.29 45.88Q524.15 45.88 524.69 45.28Q525.22 44.67 525.22 43.71Q525.22 42.76 524.69 42.16Q524.15 41.57 523.29 41.57Q522.44 41.57 521.90 42.16Q521.35 42.75 521.35 43.71Q521.35 44.67 521.90 45.28Q522.44 45.88 523.29 45.88M529.29 47L527.88 47L527.88 40.45L529.29 40.45L529.29 41.45Q529.58 40.92 530.11 40.63Q530.63 40.34 531.27 40.34Q531.48 40.34 531.70 40.38Q531.92 40.41 532.08 40.47L531.97 41.83Q531.76 41.73 531.56 41.71Q531.35 41.68 531.14 41.68Q530.39 41.68 529.84 42.37Q529.29 43.05 529.29 44.47L529.29 47M535.88 47.10Q534.90 47.10 534.15 46.67Q533.40 46.23 532.99 45.47Q532.57 44.71 532.57 43.72Q532.57 42.74 532.99 41.98Q533.40 41.22 534.14 40.78Q534.88 40.34 535.83 40.34Q536.87 40.34 537.61 40.83Q538.36 41.32 538.71 42.14Q539.06 42.97 538.93 43.98L534 43.98Q534.08 44.85 534.58 45.38Q535.08 45.91 535.88 45.91Q536.50 45.91 536.96 45.59Q537.43 45.27 537.55 44.79L538.88 45.14Q538.63 46.01 537.82 46.56Q537 47.10 535.88 47.10M534.08 42.91L537.46 42.91Q537.45 42.26 537 41.87Q536.55 41.49 535.83 41.49Q535.17 41.49 534.71 41.86Q534.25 42.23 534.08 42.91M542.45 47.10Q541.70 47.10 541.11 46.84Q540.53 46.58 540.16 46.14Q539.78 45.69 539.65 45.15L540.89 44.75Q541.02 45.32 541.42 45.64Q541.81 45.96 542.45 45.96Q542.97 45.96 543.29 45.73Q543.61 45.51 543.61 45.10Q543.61 44.75 543.35 44.56Q543.09 44.37 542.67 44.26Q542.25 44.14 541.79 44.02Q541.32 43.89 540.90 43.69Q540.49 43.49 540.23 43.13Q539.97 42.76 539.97 42.15Q539.97 41.64 540.25 41.23Q540.54 40.83 541.05 40.58Q541.57 40.34 542.25 40.34Q543.24 40.34 543.94 40.79Q544.65 41.23 544.85 41.96L543.63 42.41Q543.49 41.88 543.11 41.66Q542.74 41.45 542.25 41.45Q541.85 41.45 541.58 41.62Q541.31 41.79 541.31 42.11Q541.31 42.44 541.57 42.60Q541.84 42.76 542.25 42.87Q542.67 42.97 543.14 43.09Q543.61 43.20 544.02 43.42Q544.44 43.63 544.71 44.02Q544.97 44.40 544.97 45.06Q544.97 45.66 544.65 46.12Q544.32 46.58 543.75 46.84Q543.18 47.10 542.45 47.10M548.75 47.10Q547.83 47.10 547.21 46.55Q546.60 45.99 546.60 44.92L546.60 41.62L545.52 41.62L545.52 40.45L546.60 40.45L546.60 38.82L548.03 38.82L548.03 40.45L549.61 40.45L549.61 41.62L548.03 41.62L548.03 44.80Q548.03 45.32 548.27 45.59Q548.52 45.86 548.94 45.86Q549.12 45.86 549.28 45.82Q549.44 45.78 549.61 45.73L549.72 46.94Q549.51 47.03 549.26 47.06Q549 47.10 548.75 47.10M556.76 47.10Q555.35 47.10 554.34 46.37Q553.33 45.63 553.02 44.28L554.41 43.88Q554.61 44.79 555.25 45.29Q555.89 45.79 556.76 45.79Q557.47 45.79 557.96 45.47Q558.45 45.15 558.45 44.45Q558.45 44.01 558.18 43.74Q557.91 43.48 557.47 43.30Q557.02 43.13 556.49 42.98Q555.96 42.84 555.42 42.66Q554.89 42.48 554.45 42.20Q554.01 41.92 553.73 41.46Q553.46 41.01 553.46 40.30Q553.46 39.54 553.88 38.98Q554.29 38.42 555 38.11Q555.70 37.80 556.54 37.80Q557.39 37.80 558.08 38.08Q558.76 38.35 559.24 38.86Q559.71 39.37 559.88 40.07L558.53 40.59Q558.34 39.86 557.81 39.49Q557.28 39.11 556.53 39.11Q555.83 39.11 555.40 39.41Q554.98 39.72 554.98 40.24Q554.98 40.63 555.25 40.87Q555.53 41.11 555.97 41.26Q556.41 41.41 556.95 41.54Q557.49 41.67 558.02 41.85Q558.56 42.03 559 42.33Q559.44 42.63 559.71 43.12Q559.99 43.61 559.99 44.35Q559.99 45.24 559.56 45.86Q559.13 46.48 558.39 46.79Q557.66 47.10 556.76 47.10M565.43 47.10Q564.16 47.10 563.14 46.55Q562.12 46 561.53 44.95Q560.95 43.91 560.95 42.45Q560.95 40.99 561.53 39.95Q562.12 38.91 563.13 38.35Q564.15 37.80 565.43 37.80Q566.99 37.80 568.05 38.56Q569.11 39.32 569.36 40.68L567.83 40.95Q567.70 40.11 567.03 39.61Q566.37 39.11 565.43 39.11Q564.58 39.11 563.91 39.51Q563.24 39.90 562.86 40.65Q562.48 41.40 562.48 42.45Q562.48 43.49 562.87 44.24Q563.25 45 563.91 45.39Q564.58 45.79 565.43 45.79Q566.45 45.79 567.10 45.26Q567.76 44.73 567.89 43.85L569.40 44.06Q569.29 44.96 568.76 45.65Q568.23 46.34 567.37 46.72Q566.51 47.10 565.43 47.10M572.21 47L570.67 47L570.67 37.90L572.21 37.90L572.21 47M575.56 47L574.03 47L574.03 37.90L576.18 37.90L578.42 43.26Q578.73 44.01 578.88 44.50Q579.02 44.98 579.02 44.98Q579.02 44.98 579.17 44.50Q579.33 44.01 579.64 43.26L581.88 37.90L583.99 37.90L583.99 47L582.45 47L582.45 41.79Q582.45 40.97 582.47 40.45Q582.49 39.94 582.49 39.94Q582.49 39.94 582.32 40.42Q582.15 40.90 581.84 41.67L579.62 47L578.39 47L576.17 41.67Q575.86 40.92 575.69 40.44Q575.52 39.95 575.52 39.95Q575.52 39.95 575.54 40.46Q575.56 40.97 575.56 41.79L575.56 47M589.28 47L587.69 47L591.25 37.90L592.97 37.90L596.52 47L594.88 47L594.05 44.85L590.12 44.85L589.28 47M592.08 39.72L590.60 43.55L593.57 43.55L592.08 39.72M598.96 47L597.44 47L597.44 37.90L601.08 37.90Q601.98 37.90 602.64 38.24Q603.30 38.58 603.67 39.18Q604.03 39.78 604.03 40.60Q604.03 41.42 603.67 42.03Q603.30 42.64 602.64 42.98Q601.98 43.32 601.08 43.32L598.96 43.32L598.96 47M598.96 39.21L598.96 42.02L600.92 42.02Q601.65 42.02 602.08 41.63Q602.51 41.24 602.51 40.60Q602.51 39.97 602.08 39.59Q601.65 39.21 600.92 39.21L598.96 39.21M606.73 47L605.20 47L605.20 37.90L606.73 37.90" fill="#f6f5ee"/>

  <!-- messages -->
  
  <g stroke="#686c62" stroke-opacity="0.8" stroke-width="1.5" fill="none">
    <line x1="200" y1="104" x2="560" y2="104" marker-end="url(#arr)"/>
    <line x1="560" y1="140" x2="200" y2="140" stroke-dasharray="4 4" marker-end="url(#arr)"/>
    <line x1="200" y1="184" x2="560" y2="184" marker-end="url(#arr)"/>
    <line x1="560" y1="220" x2="200" y2="220" stroke-dasharray="4 4" marker-end="url(#arr)"/>
    <line x1="200" y1="264" x2="560" y2="264" marker-end="url(#arr)"/>
    <line x1="560" y1="300" x2="200" y2="300" stroke-dasharray="4 4" marker-end="url(#arr)"/>
  </g>
  
  
    <path d="M311.49 98L310.35 98L310.35 89.25L313.75 89.25Q314.59 89.25 315.21 89.56Q315.82 89.88 316.17 90.44Q316.51 91.01 316.51 91.78Q316.51 92.54 316.17 93.11Q315.82 93.67 315.21 93.99Q314.59 94.30 313.75 94.30L311.49 94.30L311.49 98M311.49 90.24L311.49 93.31L313.64 93.31Q314.43 93.31 314.90 92.89Q315.38 92.46 315.38 91.78Q315.38 91.08 314.90 90.66Q314.43 90.24 313.64 90.24L311.49 90.24M321.63 98.10Q320.69 98.10 319.90 97.77Q319.11 97.44 318.53 96.83Q317.94 96.22 317.62 95.41Q317.30 94.60 317.30 93.63Q317.30 92.65 317.62 91.84Q317.94 91.03 318.53 90.42Q319.11 89.81 319.90 89.48Q320.69 89.15 321.63 89.15Q322.55 89.15 323.34 89.48Q324.13 89.81 324.71 90.42Q325.29 91.03 325.61 91.84Q325.94 92.65 325.94 93.63Q325.94 94.60 325.61 95.41Q325.29 96.22 324.71 96.83Q324.13 97.44 323.34 97.77Q322.55 98.10 321.63 98.10M321.63 97.11Q322.55 97.11 323.26 96.66Q323.98 96.21 324.39 95.42Q324.80 94.63 324.80 93.63Q324.80 92.61 324.39 91.83Q323.98 91.04 323.26 90.59Q322.55 90.14 321.63 90.14Q320.71 90.14 319.99 90.59Q319.28 91.04 318.86 91.83Q318.45 92.61 318.45 93.63Q318.45 94.64 318.86 95.42Q319.28 96.21 319.99 96.66Q320.71 97.11 321.63 97.11M330.32 98.10Q328.99 98.10 328.04 97.41Q327.09 96.71 326.80 95.40L327.84 95.10Q328.04 96.06 328.71 96.59Q329.38 97.11 330.32 97.11Q331.10 97.11 331.66 96.75Q332.21 96.39 332.21 95.60Q332.21 95.11 331.94 94.82Q331.68 94.53 331.22 94.34Q330.77 94.15 330.24 94.01Q329.70 93.86 329.17 93.69Q328.64 93.53 328.19 93.26Q327.74 93 327.47 92.58Q327.20 92.15 327.20 91.49Q327.20 90.76 327.59 90.24Q327.97 89.72 328.64 89.44Q329.30 89.15 330.10 89.15Q331.29 89.15 332.13 89.73Q332.97 90.31 333.21 91.31L332.20 91.67Q332 90.91 331.44 90.53Q330.89 90.14 330.09 90.14Q329.30 90.14 328.82 90.49Q328.35 90.85 328.35 91.44Q328.35 91.88 328.62 92.13Q328.89 92.39 329.34 92.56Q329.79 92.72 330.32 92.86Q330.85 92.99 331.38 93.16Q331.91 93.34 332.36 93.62Q332.81 93.90 333.08 94.36Q333.35 94.81 333.35 95.53Q333.35 96.39 332.94 96.96Q332.52 97.54 331.84 97.82Q331.15 98.10 330.32 98.10M337.95 98L336.80 98L336.80 90.24L334.04 90.24L334.04 89.25L340.72 89.25L340.72 90.24L337.95 90.24L337.95 98M344.64 98L343.55 98L347.47 89.25L348.57 89.25L344.64 98M353.02 98.10Q352.02 98.10 351.26 97.70Q350.49 97.30 350.06 96.58Q349.64 95.86 349.64 94.92L349.64 89.25L350.77 89.25L350.77 94.92Q350.77 95.56 351.06 96.06Q351.35 96.55 351.86 96.83Q352.36 97.11 353.02 97.11Q353.69 97.11 354.19 96.83Q354.69 96.55 354.97 96.06Q355.26 95.56 355.26 94.92L355.26 89.25L356.40 89.25L356.40 94.92Q356.40 95.86 355.97 96.58Q355.55 97.30 354.79 97.70Q354.02 98.10 353.02 98.10M360.20 98.10Q359.14 98.10 358.46 97.57Q357.79 97.04 357.59 96.24L358.56 95.92Q358.70 96.54 359.11 96.86Q359.51 97.19 360.20 97.19Q360.79 97.19 361.14 96.94Q361.50 96.69 361.50 96.20Q361.50 95.81 361.24 95.61Q360.97 95.40 360.56 95.28Q360.15 95.15 359.69 95.04Q359.24 94.92 358.82 94.74Q358.41 94.55 358.15 94.21Q357.89 93.88 357.89 93.30Q357.89 92.81 358.16 92.43Q358.42 92.05 358.91 91.83Q359.40 91.60 360.02 91.60Q360.95 91.60 361.61 92.02Q362.26 92.44 362.46 93.16L361.49 93.51Q361.34 92.96 360.96 92.74Q360.57 92.51 360.02 92.51Q359.56 92.51 359.25 92.70Q358.94 92.89 358.94 93.26Q358.94 93.61 359.20 93.79Q359.46 93.97 359.87 94.08Q360.29 94.19 360.76 94.30Q361.22 94.41 361.64 94.61Q362.05 94.81 362.31 95.18Q362.57 95.55 362.57 96.17Q362.57 96.74 362.26 97.17Q361.95 97.61 361.42 97.86Q360.89 98.10 360.20 98.10M366.57 98.10Q365.65 98.10 364.94 97.68Q364.24 97.26 363.84 96.53Q363.45 95.80 363.45 94.85Q363.45 93.90 363.85 93.17Q364.25 92.44 364.94 92.02Q365.64 91.60 366.54 91.60Q367.50 91.60 368.19 92.06Q368.87 92.51 369.21 93.28Q369.55 94.04 369.42 94.99L364.54 94.99Q364.59 95.96 365.14 96.57Q365.69 97.17 366.57 97.17Q367.25 97.17 367.76 96.81Q368.27 96.45 368.40 95.94L369.37 96.19Q369.16 97.04 368.40 97.57Q367.64 98.10 366.57 98.10M364.61 94.14L368.34 94.14Q368.32 93.39 367.82 92.95Q367.32 92.51 366.54 92.51Q365.80 92.51 365.29 92.94Q364.77 93.38 364.61 94.14M371.82 98L370.76 98L370.76 91.70L371.82 91.70L371.82 92.81Q372.11 92.21 372.64 91.91Q373.17 91.60 373.79 91.60Q373.99 91.60 374.20 91.63Q374.41 91.66 374.56 91.74L374.49 92.75Q374.27 92.65 374.07 92.63Q373.87 92.61 373.67 92.61Q372.89 92.61 372.36 93.35Q371.82 94.09 371.82 95.47L371.82 98M377.56 98.10Q376.50 98.10 375.82 97.57Q375.15 97.04 374.95 96.24L375.92 95.92Q376.06 96.54 376.47 96.86Q376.88 97.19 377.56 97.19Q378.15 97.19 378.51 96.94Q378.86 96.69 378.86 96.20Q378.86 95.81 378.60 95.61Q378.34 95.40 377.92 95.28Q377.51 95.15 377.06 95.04Q376.60 94.92 376.19 94.74Q375.77 94.55 375.51 94.21Q375.25 93.88 375.25 93.30Q375.25 92.81 375.52 92.43Q375.79 92.05 376.27 91.83Q376.76 91.60 377.39 91.60Q378.31 91.60 378.97 92.02Q379.63 92.44 379.82 93.16L378.85 93.51Q378.70 92.96 378.32 92.74Q377.94 92.51 377.39 92.51Q376.92 92.51 376.61 92.70Q376.30 92.89 376.30 93.26Q376.30 93.61 376.56 93.79Q376.82 93.97 377.24 94.08Q377.65 94.19 378.12 94.30Q378.59 94.41 379 94.61Q379.41 94.81 379.67 95.18Q379.94 95.55 379.94 96.17Q379.94 96.74 379.63 97.17Q379.31 97.61 378.78 97.86Q378.25 98.10 377.56 98.10M395.56 95.04L383.67 95.04L383.67 94.14L395.56 94.14L395.56 95.04M400.81 100.28L399.74 100.28L399.74 91.70L400.81 91.70L400.81 92.72Q401.10 92.21 401.69 91.91Q402.29 91.60 402.99 91.60Q403.94 91.60 404.64 92.01Q405.34 92.41 405.73 93.14Q406.12 93.88 406.12 94.85Q406.12 95.83 405.73 96.56Q405.34 97.29 404.64 97.69Q403.94 98.10 402.99 98.10Q402.30 98.10 401.70 97.79Q401.10 97.47 400.81 96.96L400.81 100.28M402.92 97.17Q403.54 97.17 404.01 96.88Q404.49 96.59 404.76 96.06Q405.04 95.54 405.04 94.85Q405.04 94.16 404.76 93.64Q404.49 93.11 404.01 92.82Q403.54 92.53 402.92 92.53Q402.31 92.53 401.83 92.82Q401.35 93.11 401.08 93.64Q400.81 94.16 400.81 94.85Q400.81 95.53 401.08 96.05Q401.35 96.58 401.83 96.88Q402.31 97.17 402.92 97.17M408.50 98L407.44 98L407.44 91.70L408.50 91.70L408.50 92.81Q408.79 92.21 409.32 91.91Q409.85 91.60 410.46 91.60Q410.66 91.60 410.87 91.63Q411.09 91.66 411.24 91.74L411.16 92.75Q410.95 92.65 410.75 92.63Q410.55 92.61 410.35 92.61Q409.56 92.61 409.03 93.35Q408.50 94.09 408.50 95.47L408.50 98M414.96 98.10Q414.04 98.10 413.32 97.68Q412.60 97.26 412.19 96.53Q411.77 95.80 411.77 94.85Q411.77 93.90 412.19 93.17Q412.60 92.44 413.32 92.02Q414.04 91.60 414.96 91.60Q415.89 91.60 416.61 92.02Q417.32 92.44 417.74 93.17Q418.15 93.90 418.15 94.85Q418.15 95.80 417.74 96.53Q417.32 97.26 416.61 97.68Q415.89 98.10 414.96 98.10M414.96 97.16Q415.57 97.16 416.05 96.87Q416.52 96.58 416.79 96.05Q417.06 95.53 417.06 94.85Q417.06 94.16 416.79 93.64Q416.52 93.11 416.05 92.82Q415.57 92.53 414.96 92.53Q414.35 92.53 413.87 92.82Q413.40 93.11 413.13 93.64Q412.86 94.16 412.86 94.85Q412.86 95.53 413.13 96.05Q413.40 96.58 413.87 96.87Q414.35 97.16 414.96 97.16M422.26 98L421.20 98L418.72 91.70L419.89 91.70L421.75 96.63L423.62 91.70L424.74 91.70L422.26 98M426.77 98L425.70 98L425.70 91.70L426.77 91.70L426.77 98M426.24 90.60Q425.91 90.60 425.69 90.39Q425.47 90.17 425.47 89.85Q425.47 89.53 425.69 89.31Q425.91 89.10 426.24 89.10Q426.57 89.10 426.79 89.31Q427.01 89.53 427.01 89.85Q427.01 90.17 426.79 90.39Q426.57 90.60 426.24 90.60M430.52 98.10Q429.46 98.10 428.79 97.57Q428.11 97.04 427.91 96.24L428.89 95.92Q429.02 96.54 429.43 96.86Q429.84 97.19 430.52 97.19Q431.11 97.19 431.47 96.94Q431.82 96.69 431.82 96.20Q431.82 95.81 431.56 95.61Q431.30 95.40 430.89 95.28Q430.47 95.15 430.02 95.04Q429.56 94.92 429.15 94.74Q428.74 94.55 428.47 94.21Q428.21 93.88 428.21 93.30Q428.21 92.81 428.48 92.43Q428.75 92.05 429.24 91.83Q429.72 91.60 430.35 91.60Q431.27 91.60 431.93 92.02Q432.59 92.44 432.79 93.16L431.81 93.51Q431.66 92.96 431.28 92.74Q430.90 92.51 430.35 92.51Q429.89 92.51 429.57 92.70Q429.26 92.89 429.26 93.26Q429.26 93.61 429.52 93.79Q429.79 93.97 430.20 94.08Q430.61 94.19 431.08 94.30Q431.55 94.41 431.96 94.61Q432.37 94.81 432.64 95.18Q432.90 95.55 432.90 96.17Q432.90 96.74 432.59 97.17Q432.27 97.61 431.74 97.86Q431.21 98.10 430.52 98.10M435.24 98L434.16 98L434.16 91.70L435.24 91.70L435.24 98M434.70 90.60Q434.37 90.60 434.16 90.39Q433.94 90.17 433.94 89.85Q433.94 89.53 434.16 89.31Q434.37 89.10 434.70 89.10Q435.04 89.10 435.26 89.31Q435.47 89.53 435.47 89.85Q435.47 90.17 435.26 90.39Q435.04 90.60 434.70 90.60M439.71 98.10Q438.79 98.10 438.07 97.68Q437.35 97.26 436.94 96.53Q436.52 95.80 436.52 94.85Q436.52 93.90 436.94 93.17Q437.35 92.44 438.07 92.02Q438.79 91.60 439.71 91.60Q440.64 91.60 441.36 92.02Q442.07 92.44 442.49 93.17Q442.90 93.90 442.90 94.85Q442.90 95.80 442.49 96.53Q442.07 97.26 441.36 97.68Q440.64 98.10 439.71 98.10M439.71 97.16Q440.32 97.16 440.80 96.87Q441.27 96.58 441.54 96.05Q441.81 95.53 441.81 94.85Q441.81 94.16 441.54 93.64Q441.27 93.11 440.80 92.82Q440.32 92.53 439.71 92.53Q439.10 92.53 438.62 92.82Q438.15 93.11 437.88 93.64Q437.61 94.16 437.61 94.85Q437.61 95.53 437.88 96.05Q438.15 96.58 438.62 96.87Q439.10 97.16 439.71 97.16M445.26 98L444.20 98L444.20 91.70L445.26 91.70L445.26 92.79Q445.55 92.30 446.13 91.95Q446.71 91.60 447.50 91.60Q448.16 91.60 448.69 91.87Q449.21 92.14 449.52 92.64Q449.82 93.15 449.82 93.88L449.82 98L448.76 98L448.76 94.11Q448.76 93.35 448.36 92.94Q447.96 92.54 447.29 92.54Q446.36 92.54 445.81 93.29Q445.26 94.04 445.26 95.30" fill="#262d1e"/>
    <path d="M352.43 134L346.46 134L346.46 133.09L349.79 130.09Q350.52 129.43 350.89 128.88Q351.26 128.32 351.26 127.75Q351.26 126.99 350.78 126.56Q350.31 126.14 349.53 126.14Q348.63 126.14 348.12 126.74Q347.61 127.34 347.67 128.31L346.53 128.24Q346.47 127.33 346.83 126.63Q347.19 125.94 347.89 125.54Q348.59 125.15 349.53 125.15Q350.83 125.15 351.62 125.84Q352.41 126.53 352.41 127.75Q352.41 128.56 351.91 129.31Q351.42 130.06 350.43 130.86L348.07 133.01L352.43 133.01L352.43 134M356.88 134.10Q355.87 134.10 355.12 133.56Q354.37 133.03 353.96 132.02Q353.54 131.01 353.54 129.63Q353.54 128.22 353.96 127.22Q354.37 126.22 355.12 125.69Q355.87 125.15 356.88 125.15Q357.92 125.15 358.67 125.69Q359.42 126.22 359.83 127.22Q360.24 128.22 360.24 129.63Q360.24 131.01 359.83 132.02Q359.42 133.03 358.67 133.56Q357.92 134.10 356.88 134.10M356.88 133.11Q357.93 133.11 358.51 132.20Q359.09 131.29 359.09 129.63Q359.09 127.95 358.51 127.04Q357.93 126.14 356.88 126.14Q355.84 126.14 355.27 127.04Q354.69 127.95 354.69 129.63Q354.69 131.29 355.27 132.20Q355.84 133.11 356.88 133.11M364.33 134L363.18 134L363.18 126.59Q362.53 127.35 361.14 127.67L361.02 126.67Q361.64 126.55 362.26 126.18Q362.88 125.81 363.34 125.25L364.33 125.25L364.33 134M372.92 134.10Q371.69 134.10 370.73 133.56Q369.77 133.01 369.22 132.01Q368.67 131.01 368.67 129.63Q368.67 128.24 369.21 127.23Q369.76 126.22 370.72 125.69Q371.68 125.15 372.92 125.15Q373.89 125.15 374.67 125.47Q375.44 125.80 375.94 126.41Q376.44 127.01 376.59 127.86L375.46 128.06Q375.31 127.19 374.61 126.66Q373.92 126.14 372.92 126.14Q372.01 126.14 371.31 126.56Q370.61 126.97 370.21 127.76Q369.82 128.54 369.82 129.63Q369.82 130.70 370.21 131.49Q370.61 132.28 371.31 132.69Q372.01 133.11 372.92 133.11Q373.98 133.11 374.68 132.56Q375.37 132.01 375.51 131.11L376.63 131.26Q376.53 132.10 376.02 132.74Q375.52 133.39 374.72 133.74Q373.92 134.10 372.92 134.10M378.94 134L377.88 134L377.88 127.70L378.94 127.70L378.94 128.81Q379.23 128.21 379.76 127.91Q380.29 127.60 380.91 127.60Q381.11 127.60 381.32 127.63Q381.53 127.66 381.68 127.74L381.61 128.75Q381.39 128.65 381.19 128.63Q380.99 128.61 380.79 128.61Q380.01 128.61 379.48 129.35Q378.94 130.09 378.94 131.47L378.94 134M385.34 134.10Q384.42 134.10 383.71 133.68Q383.01 133.26 382.61 132.53Q382.22 131.80 382.22 130.85Q382.22 129.90 382.62 129.17Q383.02 128.44 383.71 128.02Q384.41 127.60 385.31 127.60Q386.27 127.60 386.96 128.06Q387.64 128.51 387.98 129.28Q388.32 130.04 388.19 130.99L383.31 130.99Q383.36 131.96 383.91 132.57Q384.46 133.18 385.34 133.18Q386.02 133.18 386.53 132.81Q387.04 132.45 387.17 131.94L388.14 132.19Q387.93 133.04 387.17 133.57Q386.41 134.10 385.34 134.10M383.38 130.14L387.11 130.14Q387.09 129.39 386.59 128.95Q386.09 128.51 385.31 128.51Q384.57 128.51 384.06 128.94Q383.54 129.38 383.38 130.14M391.44 134.10Q390.41 134.10 389.81 133.59Q389.22 133.09 389.22 132.30Q389.22 131.35 389.91 130.85Q390.59 130.35 392.09 130.20L393.44 130.06L393.44 129.84Q393.44 129.21 393.03 128.86Q392.61 128.51 391.92 128.51Q391.27 128.51 390.86 128.84Q390.44 129.18 390.34 129.84L389.33 129.66Q389.48 128.76 390.16 128.18Q390.84 127.60 391.92 127.60Q392.68 127.60 393.26 127.88Q393.84 128.16 394.18 128.69Q394.52 129.21 394.52 129.95L394.52 134L393.44 134L393.44 132.95Q393.32 133.25 393.02 133.51Q392.72 133.78 392.31 133.94Q391.89 134.10 391.44 134.10M393.44 131.19L393.44 130.89L392.16 131.04Q391.17 131.15 390.73 131.42Q390.29 131.69 390.29 132.26Q390.29 132.72 390.63 132.98Q390.97 133.24 391.53 133.24Q392.09 133.24 392.53 132.96Q392.96 132.68 393.20 132.21Q393.44 131.74 393.44 131.19M398.34 134.10Q397.53 134.10 397 133.60Q396.47 133.10 396.47 132.14L396.47 128.59L395.41 128.59L395.41 127.70L396.47 127.70L396.47 126.10L397.54 126.10L397.54 127.70L399.14 127.70L399.14 128.59L397.54 128.59L397.54 132.05Q397.54 132.60 397.79 132.88Q398.04 133.15 398.47 133.15Q398.79 133.15 399.13 133.03L399.22 133.94Q399.04 134.03 398.80 134.06Q398.56 134.10 398.34 134.10M402.99 134.10Q402.07 134.10 401.36 133.68Q400.66 133.26 400.26 132.53Q399.87 131.80 399.87 130.85Q399.87 129.90 400.27 129.17Q400.67 128.44 401.36 128.02Q402.06 127.60 402.96 127.60Q403.92 127.60 404.61 128.06Q405.29 128.51 405.63 129.28Q405.97 130.04 405.84 130.99L400.96 130.99Q401.01 131.96 401.56 132.57Q402.11 133.18 402.99 133.18Q403.67 133.18 404.18 132.81Q404.69 132.45 404.82 131.94L405.79 132.19Q405.58 133.04 404.82 133.57Q404.06 134.10 402.99 134.10M401.03 130.14L404.76 130.14Q404.74 129.39 404.24 128.95Q403.74 128.51 402.96 128.51Q402.22 128.51 401.71 128.94Q401.19 129.38 401.03 130.14M409.92 134.10Q408.98 134.10 408.28 133.69Q407.57 133.29 407.18 132.56Q406.78 131.82 406.78 130.85Q406.78 129.88 407.18 129.14Q407.57 128.41 408.28 128.01Q408.98 127.60 409.92 127.60Q410.62 127.60 411.22 127.91Q411.82 128.21 412.09 128.72L412.09 125.15L413.17 125.15L413.17 134L412.09 134L412.09 132.96Q411.82 133.47 411.22 133.79Q410.62 134.10 409.92 134.10M409.98 133.18Q410.61 133.18 411.08 132.88Q411.56 132.57 411.82 132.05Q412.09 131.53 412.09 130.85Q412.09 130.16 411.82 129.64Q411.56 129.11 411.08 128.82Q410.61 128.53 409.98 128.53Q409.38 128.53 408.90 128.82Q408.42 129.11 408.14 129.64Q407.87 130.16 407.87 130.85Q407.87 131.54 408.14 132.06Q408.42 132.59 408.90 132.88Q409.38 133.18 409.98 133.18" fill="#686c62"/>
    <path d="M300.90 178L299.76 178L299.76 169.25L303.16 169.25Q304 169.25 304.62 169.56Q305.24 169.88 305.58 170.44Q305.93 171.01 305.93 171.78Q305.93 172.54 305.58 173.11Q305.24 173.68 304.62 173.99Q304 174.30 303.16 174.30L300.90 174.30L300.90 178M300.90 170.24L300.90 173.31L303.05 173.31Q303.84 173.31 304.31 172.89Q304.79 172.46 304.79 171.78Q304.79 171.07 304.31 170.66Q303.84 170.24 303.05 170.24L300.90 170.24M307.46 178L306.28 178L309.76 169.25L311.08 169.25L314.55 178L313.33 178L312.43 175.75L308.36 175.75L307.46 178M310.40 170.56L308.74 174.76L312.06 174.76L310.40 170.56M318.73 178L317.57 178L317.57 170.24L314.81 170.24L314.81 169.25L321.50 169.25L321.50 170.24L318.73 170.24L318.73 178M326.45 178.10Q325.23 178.10 324.26 177.56Q323.30 177.01 322.75 176.01Q322.20 175.01 322.20 173.63Q322.20 172.24 322.74 171.23Q323.29 170.22 324.25 169.69Q325.21 169.15 326.45 169.15Q327.43 169.15 328.20 169.47Q328.98 169.80 329.48 170.41Q329.98 171.01 330.13 171.86L328.99 172.06Q328.84 171.19 328.14 170.66Q327.45 170.14 326.45 170.14Q325.54 170.14 324.84 170.56Q324.14 170.97 323.74 171.76Q323.35 172.54 323.35 173.63Q323.35 174.70 323.74 175.49Q324.14 176.28 324.84 176.69Q325.54 177.11 326.45 177.11Q327.51 177.11 328.21 176.56Q328.90 176.01 329.04 175.11L330.16 175.26Q330.06 176.10 329.56 176.74Q329.05 177.39 328.25 177.74Q327.45 178.10 326.45 178.10M338.45 178L337.30 178L337.30 173.88L332.68 173.88L332.68 178L331.52 178L331.52 169.25L332.68 169.25L332.68 172.89L337.30 172.89L337.30 169.25L338.45 169.25L338.45 178M343.14 178L342.05 178L345.98 169.25L347.07 169.25L343.14 178M351.52 178.10Q350.52 178.10 349.76 177.70Q348.99 177.30 348.56 176.58Q348.14 175.86 348.14 174.93L348.14 169.25L349.27 169.25L349.27 174.93Q349.27 175.56 349.56 176.06Q349.85 176.55 350.36 176.83Q350.86 177.11 351.52 177.11Q352.19 177.11 352.69 176.83Q353.19 176.55 353.48 176.06Q353.76 175.56 353.76 174.93L353.76 169.25L354.90 169.25L354.90 174.93Q354.90 175.86 354.48 176.58Q354.05 177.30 353.29 177.70Q352.52 178.10 351.52 178.10M358.70 178.10Q357.64 178.10 356.96 177.57Q356.29 177.04 356.09 176.24L357.06 175.93Q357.20 176.54 357.61 176.86Q358.01 177.19 358.70 177.19Q359.29 177.19 359.64 176.94Q360 176.69 360 176.20Q360 175.81 359.74 175.61Q359.48 175.40 359.06 175.28Q358.65 175.15 358.19 175.04Q357.74 174.93 357.33 174.74Q356.91 174.55 356.65 174.21Q356.39 173.88 356.39 173.30Q356.39 172.81 356.66 172.43Q356.93 172.05 357.41 171.82Q357.90 171.60 358.53 171.60Q359.45 171.60 360.11 172.02Q360.76 172.44 360.96 173.16L359.99 173.51Q359.84 172.96 359.46 172.74Q359.08 172.51 358.53 172.51Q358.06 172.51 357.75 172.70Q357.44 172.89 357.44 173.26Q357.44 173.61 357.70 173.79Q357.96 173.97 358.38 174.08Q358.79 174.19 359.26 174.30Q359.73 174.41 360.14 174.61Q360.55 174.81 360.81 175.18Q361.08 175.55 361.08 176.18Q361.08 176.74 360.76 177.18Q360.45 177.61 359.92 177.86Q359.39 178.10 358.70 178.10M365.07 178.10Q364.15 178.10 363.44 177.68Q362.74 177.26 362.34 176.53Q361.95 175.80 361.95 174.85Q361.95 173.90 362.35 173.17Q362.75 172.44 363.44 172.02Q364.14 171.60 365.04 171.60Q366 171.60 366.69 172.06Q367.38 172.51 367.71 173.28Q368.05 174.04 367.93 174.99L363.04 174.99Q363.09 175.96 363.64 176.57Q364.19 177.18 365.07 177.18Q365.75 177.18 366.26 176.81Q366.77 176.45 366.90 175.94L367.88 176.19Q367.66 177.04 366.90 177.57Q366.14 178.10 365.07 178.10M363.11 174.14L366.84 174.14Q366.82 173.39 366.32 172.95Q365.82 172.51 365.04 172.51Q364.30 172.51 363.79 172.94Q363.27 173.38 363.11 174.14M370.33 178L369.26 178L369.26 171.70L370.33 171.70L370.33 172.81Q370.61 172.21 371.14 171.91Q371.68 171.60 372.29 171.60Q372.49 171.60 372.70 171.63Q372.91 171.66 373.06 171.74L372.99 172.75Q372.78 172.65 372.58 172.63Q372.38 172.61 372.18 172.61Q371.39 172.61 370.86 173.35Q370.33 174.09 370.33 175.47L370.33 178M376.06 178.10QNaN 178.10 374.33 177.57Q373.65 177.04 373.45 176.24L374.43 175.93Q374.56 176.54 374.97 176.86Q375.38 177.19 376.06 177.19Q376.65 177.19 377.01 176.94Q377.36 176.69 377.36 176.20Q377.36 175.81 377.10 175.61Q376.84 175.40 376.43 175.28Q376.01 175.15 375.56 175.04Q375.10 174.93 374.69 174.74Q374.28 174.55 374.01 174.21Q373.75 173.88 373.75 173.30Q373.75 172.81 374.02 172.43Q374.29 172.05 374.78 171.82Q375.26 171.60 375.89 171.60Q376.81 171.60 377.47 172.02Q378.13 172.44 378.33 173.16L377.35 173.51Q377.20 172.96 376.82 172.74Q376.44 172.51 375.89 172.51Q375.43 172.51 375.11 172.70Q374.80 172.89 374.80 173.26Q374.80 173.61 375.06 173.79Q375.33 173.97 375.74 174.08Q376.15 174.19 376.62 174.30Q377.09 174.41 377.50 174.61Q377.91 174.81 378.18 175.18Q378.44 175.55 378.44 176.18Q378.44 176.74 378.13 177.18Q377.81 177.61 377.28 177.86Q376.75 178.10 376.06 178.10M380.13 178L379.04 178L382.96 169.25L384.06 169.25L380.13 178M387.70 179.72L387.06 179.72Q386.48 179.72 386.07 179.32Q385.68 178.93 385.68 178.31L385.68 175.68Q385.68 175.05 385.42 174.79Q385.16 174.53 384.60 174.51L384.60 173.63Q385.19 173.63 385.43 173.35Q385.68 173.07 385.68 172.49L385.68 169.84Q385.68 169.21 386.07 168.82Q386.48 168.43 387.06 168.43L387.70 168.43L387.70 169.29L387.36 169.29Q387.03 169.29 386.84 169.52Q386.65 169.75 386.65 170.11L386.65 172.74Q386.65 173.28 386.42 173.60Q386.19 173.93 385.78 174.07Q386.65 174.40 386.65 175.43L386.65 178.04Q386.65 178.41 386.84 178.64Q387.03 178.86 387.36 178.86L387.70 178.86L387.70 179.72M390.01 178L388.94 178L388.94 171.70L390.01 171.70L390.01 178M389.48 170.60Q389.15 170.60 388.93 170.39Q388.71 170.18 388.71 169.85Q388.71 169.53 388.93 169.31Q389.15 169.10 389.48 169.10Q389.81 169.10 390.03 169.31Q390.25 169.53 390.25 169.85Q390.25 170.18 390.03 170.39Q389.81 170.60 389.48 170.60M394.44 178.10Q393.50 178.10 392.79 177.69Q392.09 177.29 391.69 176.56Q391.30 175.82 391.30 174.85Q391.30 173.88 391.69 173.14Q392.09 172.41 392.79 172.01Q393.50 171.60 394.44 171.60Q395.14 171.60 395.74 171.91Q396.34 172.21 396.61 172.72L396.61 169.15L397.69 169.15L397.69 178L396.61 178L396.61 176.96Q396.34 177.47 395.74 177.79Q395.14 178.10 394.44 178.10M394.50 177.18Q395.13 177.18 395.60 176.88Q396.08 176.57 396.34 176.05Q396.61 175.53 396.61 174.85Q396.61 174.16 396.34 173.64Q396.08 173.11 395.60 172.82Q395.13 172.53 394.50 172.53Q393.90 172.53 393.42 172.82Q392.94 173.11 392.66 173.64Q392.39 174.16 392.39 174.85Q392.39 175.54 392.66 176.06Q392.94 176.59 393.42 176.88Q393.90 177.18 394.50 177.18M399.56 179.72L398.93 179.72L398.93 178.86L399.26 178.86Q399.59 178.86 399.78 178.64Q399.98 178.41 399.98 178.04L399.98 175.43Q399.98 174.91 400.18 174.57Q400.39 174.24 400.84 174.07Q400.44 173.93 400.21 173.60Q399.98 173.28 399.98 172.74L399.98 170.11Q399.98 169.75 399.78 169.52Q399.59 169.29 399.26 169.29L398.93 169.29L398.93 168.43L399.56 168.43Q400.15 168.43 400.55 168.82Q400.95 169.21 400.95 169.84L400.95 172.49Q400.95 173.07 401.19 173.35Q401.44 173.63 402.03 173.63L402.03 174.51Q401.45 174.53 401.20 174.79Q400.95 175.05 400.95 175.68L400.95 178.31Q400.95 178.93 400.55 179.32Q400.15 179.72 399.56 179.72M417.59 175.04L405.70 175.04L405.70 174.14L417.59 174.14L417.59 175.04M424.03 178.10Q423.36 178.10 422.83 177.83Q422.30 177.56 421.99 177.06Q421.69 176.56 421.69 175.84L421.69 171.70L422.76 171.70L422.76 175.59Q422.76 176.35 423.16 176.76Q423.56 177.16 424.23 177.16Q425.16 177.16 425.71 176.41Q426.26 175.66 426.26 174.40L426.26 171.70L427.33 171.70L427.33 178L426.26 178L426.26 176.91Q425.96 177.40 425.39 177.75Q424.81 178.10 424.03 178.10M430.10 180.28L429.03 180.28L429.03 171.70L430.10 171.70L430.10 172.72Q430.39 172.21 430.98 171.91Q431.57 171.60 432.28 171.60Q433.23 171.60 433.93 172.01Q434.63 172.41 435.02 173.14Q435.41 173.88 435.41 174.85Q435.41 175.82 435.02 176.56Q434.63 177.29 433.93 177.69Q433.23 178.10 432.28 178.10Q431.59 178.10 430.99 177.79Q430.39 177.47 430.10 176.96L430.10 180.28M432.21 177.18Q432.82 177.18 433.30 176.88Q433.78 176.59 434.05 176.06Q434.32 175.54 434.32 174.85Q434.32 174.16 434.05 173.64Q433.78 173.11 433.30 172.82Q432.82 172.53 432.21 172.53Q431.60 172.53 431.12 172.82Q430.64 173.11 430.37 173.64Q430.10 174.16 430.10 174.85Q430.10 175.53 430.37 176.05Q430.64 176.57 431.12 176.88Q431.60 177.18 432.21 177.18M439.46 178.10Q438.52 178.10 437.82 177.69Q437.11 177.29 436.72 176.56Q436.32 175.82 436.32 174.85Q436.32 173.88 436.72 173.14Q437.11 172.41 437.82 172.01Q438.52 171.60 439.46 171.60Q440.16 171.60 440.76 171.91Q441.36 172.21 441.64 172.72L441.64 169.15L442.71 169.15L442.71 178L441.64 178L441.64 176.96Q441.36 177.47 440.76 177.79Q440.16 178.10 439.46 178.10M439.52 177.18Q440.15 177.18 440.63 176.88Q441.10 176.57 441.37 176.05Q441.64 175.53 441.64 174.85Q441.64 174.16 441.37 173.64Q441.10 173.11 440.63 172.82Q440.15 172.53 439.52 172.53Q438.93 172.53 438.44 172.82Q437.96 173.11 437.69 173.64Q437.41 174.16 437.41 174.85Q437.41 175.54 437.69 176.06Q437.96 176.59 438.44 176.88Q438.93 177.18 439.52 177.18M446.31 178.10Q445.28 178.10 444.68 177.59Q444.09 177.09 444.09 176.30Q444.09 175.35 444.78 174.85Q445.46 174.35 446.96 174.20L448.31 174.06L448.31 173.84Q448.31 173.21 447.89 172.86Q447.48 172.51 446.79 172.51Q446.14 172.51 445.73 172.84Q445.31 173.18 445.21 173.84L444.20 173.66Q444.35 172.76 445.03 172.18Q445.71 171.60 446.79 171.60Q447.55 171.60 448.13 171.88Q448.71 172.16 449.05 172.69Q449.39 173.21 449.39 173.95L449.39 178L448.31 178L448.31 176.95Q448.19 177.25 447.89 177.51Q447.59 177.78 447.18 177.94Q446.76 178.10 446.31 178.10M448.31 175.19L448.31 174.89L447.03 175.04Q446.04 175.15 445.60 175.42Q445.16 175.69 445.16 176.26Q445.16 176.72 445.50 176.98Q445.84 177.24 446.40 177.24Q446.96 177.24 447.39 176.96Q447.82 176.68 448.07 176.21Q448.31 175.74 448.31 175.19M453.21 178.10Q452.40 178.10 451.87 177.60Q451.34 177.10 451.34 176.14L451.34 172.59L450.27 172.59L450.27 171.70L451.34 171.70L451.34 170.10L452.41 170.10L452.41 171.70L454.01 171.70L454.01 172.59L452.41 172.59L452.41 176.05Q452.41 176.60 452.66 176.88Q452.91 177.15 453.34 177.15Q453.66 177.15 454 177.03L454.09 177.94Q453.91 178.03 453.67 178.06Q453.43 178.10 453.21 178.10M457.86 178.10Q456.94 178.10 456.23 177.68Q455.52 177.26 455.13 176.53Q454.74 175.80 454.74 174.85Q454.74 173.90 455.14 173.17Q455.54 172.44 456.23 172.02Q456.92 171.60 457.82 171.60Q458.79 171.60 459.47 172.06Q460.16 172.51 460.50 173.28Q460.84 174.04 460.71 174.99L455.82 174.99Q455.87 175.96 456.42 176.57Q456.97 177.18 457.86 177.18Q458.54 177.18 459.05 176.81Q459.56 176.45 459.69 175.94L460.66 176.19Q460.45 177.04 459.69 177.57Q458.92 178.10 457.86 178.10M455.90 174.14L459.62 174.14Q459.61 173.39 459.11 172.95Q458.61 172.51 457.82 172.51Q457.09 172.51 456.57 172.94Q456.06 173.38 455.90 174.14" fill="#262d1e"/>
    <path d="M364.98 214L359 214L359 213.09L362.34 210.09Q363.06 209.43 363.43 208.88Q363.80 208.32 363.80 207.75Q363.80 206.99 363.33 206.56Q362.85 206.14 362.08 206.14Q361.18 206.14 360.66 206.74Q360.15 207.34 360.21 208.31L359.08 208.24Q359.01 207.32 359.38 206.63Q359.74 205.94 360.44 205.54Q361.14 205.15 362.08 205.15Q363.38 205.15 364.16 205.84Q364.95 206.53 364.95 207.75Q364.95 208.56 364.46 209.31Q363.96 210.06 362.98 210.86L360.61 213.01L364.98 213.01L364.98 214M369.43 214.10Q368.41 214.10 367.66 213.56Q366.91 213.03 366.50 212.02Q366.09 211.01 366.09 209.63Q366.09 208.22 366.50 207.22Q366.91 206.22 367.66 205.69Q368.41 205.15 369.43 205.15Q370.46 205.15 371.21 205.69Q371.96 206.22 372.38 207.22Q372.79 208.22 372.79 209.63Q372.79 211.01 372.38 212.02Q371.96 213.03 371.21 213.56Q370.46 214.10 369.43 214.10M369.43 213.11Q370.48 213.11 371.06 212.20Q371.64 211.29 371.64 209.63Q371.64 207.95 371.06 207.04Q370.48 206.14 369.43 206.14Q368.39 206.14 367.81 207.04Q367.24 207.95 367.24 209.63Q367.24 211.29 367.81 212.20Q368.39 213.11 369.43 213.11M377.28 214.10Q376.26 214.10 375.51 213.56Q374.76 213.03 374.35 212.02Q373.94 211.01 373.94 209.63Q373.94 208.22 374.35 207.22Q374.76 206.22 375.51 205.69Q376.26 205.15 377.28 205.15Q378.31 205.15 379.06 205.69Q379.81 206.22 380.23 207.22Q380.64 208.22 380.64 209.63Q380.64 211.01 380.23 212.02Q379.81 213.03 379.06 213.56Q378.31 214.10 377.28 214.10M377.28 213.11Q378.33 213.11 378.91 212.20Q379.49 211.29 379.49 209.63Q379.49 207.95 378.91 207.04Q378.33 206.14 377.28 206.14Q376.24 206.14 375.66 207.04Q375.09 207.95 375.09 209.63Q375.09 211.29 375.66 212.20Q376.24 213.11 377.28 213.11M388.81 214.10Q387.88 214.10 387.09 213.77Q386.30 213.44 385.71 212.83Q385.13 212.22 384.81 211.41Q384.49 210.60 384.49 209.63Q384.49 208.65 384.81 207.84Q385.13 207.03 385.71 206.42Q386.30 205.81 387.09 205.48Q387.88 205.15 388.81 205.15Q389.74 205.15 390.53 205.48Q391.31 205.81 391.89 206.42Q392.48 207.03 392.80 207.84Q393.13 208.65 393.13 209.63Q393.13 210.60 392.80 211.41Q392.48 212.22 391.89 212.83Q391.31 213.44 390.53 213.77Q389.74 214.10 388.81 214.10M388.81 213.11Q389.74 213.11 390.45 212.66Q391.16 212.21 391.58 211.42Q391.99 210.63 391.99 209.63Q391.99 208.61 391.58 207.82Q391.16 207.04 390.45 206.59Q389.74 206.14 388.81 206.14Q387.90 206.14 387.18 206.59Q386.46 207.04 386.05 207.82Q385.64 208.61 385.64 209.63Q385.64 210.64 386.05 211.43Q386.46 212.21 387.18 212.66Q387.90 213.11 388.81 213.11M395.75 214L394.60 214L394.60 205.25L395.75 205.25L395.75 209.25L399.73 205.25L401.24 205.25L397.81 208.70L401.61 214L400.21 214L397.03 209.49L395.75 210.78" fill="#686c62"/>
    <path d="M288.05 258L285.35 258L285.35 249.25L288.05 249.25Q289.25 249.25 290.24 249.77Q291.22 250.29 291.81 251.26Q292.39 252.24 292.39 253.63Q292.39 255 291.81 255.98Q291.22 256.96 290.24 257.48Q289.25 258 288.05 258M286.50 250.24L286.50 257.01L287.94 257.01Q288.88 257.01 289.62 256.61Q290.36 256.21 290.80 255.46Q291.24 254.70 291.24 253.63Q291.24 252.55 290.80 251.79Q290.36 251.04 289.62 250.64Q288.88 250.24 287.94 250.24L286.50 250.24M299.51 258L293.86 258L293.86 249.25L299.49 249.25L299.49 250.24L295.01 250.24L295.01 252.91L298.69 252.91L298.69 253.90L295.01 253.90L295.01 257.01L299.51 257.01L299.51 258M306.46 258L300.90 258L300.90 249.25L302.05 249.25L302.05 257.01L306.46 257.01L306.46 258M313.26 258L307.61 258L307.61 249.25L313.24 249.25L313.24 250.24L308.76 250.24L308.76 252.91L312.44 252.91L312.44 253.90L308.76 253.90L308.76 257.01L313.26 257.01L313.26 258M317.80 258L316.65 258L316.65 250.24L313.89 250.24L313.89 249.25L320.57 249.25L320.57 250.24L317.80 250.24L317.80 258M327.38 258L321.72 258L321.72 249.25L327.35 249.25L327.35 250.24L322.88 250.24L322.88 252.91L326.55 252.91L326.55 253.90L322.88 253.90L322.88 257.01L327.38 257.01L327.38 258M331.52 258L330.44 258L334.36 249.25L335.46 249.25L331.52 258M339.91 258.10Q338.91 258.10 338.14 257.70Q337.38 257.30 336.95 256.58Q336.52 255.86 336.52 254.93L336.52 249.25L337.66 249.25L337.66 254.93Q337.66 255.56 337.95 256.06Q338.24 256.55 338.74 256.83Q339.25 257.11 339.91 257.11Q340.57 257.11 341.07 256.83Q341.57 256.55 341.86 256.06Q342.15 255.56 342.15 254.93L342.15 249.25L343.29 249.25L343.29 254.93Q343.29 255.86 342.86 256.58Q342.44 257.30 341.68 257.70Q340.91 258.10 339.91 258.10M347.09 258.10Q346.03 258.10 345.35 257.57Q344.68 257.04 344.48 256.24L345.45 255.93Q345.59 256.54 345.99 256.86Q346.40 257.19 347.09 257.19Q347.68 257.19 348.03 256.94Q348.39 256.69 348.39 256.20Q348.39 255.81 348.13 255.61Q347.86 255.40 347.45 255.28Q347.04 255.15 346.58 255.04Q346.13 254.93 345.71 254.74Q345.30 254.55 345.04 254.21Q344.78 253.88 344.78 253.30Q344.78 252.81 345.04 252.43Q345.31 252.05 345.80 251.82Q346.29 251.60 346.91 251.60Q347.84 251.60 348.49 252.02Q349.15 252.44 349.35 253.16L348.38 253.51Q348.23 252.96 347.84 252.74Q347.46 252.51 346.91 252.51Q346.45 252.51 346.14 252.70Q345.82 252.89 345.82 253.26Q345.82 253.61 346.09 253.79Q346.35 253.97 346.76 254.08Q347.18 254.19 347.64 254.30Q348.11 254.41 348.53 254.61Q348.94 254.81 349.20 255.18Q349.46 255.55 349.46 256.18Q349.46 256.74 349.15 257.18Q348.84 257.61 348.31 257.86Q347.78 258.10 347.09 258.10M353.46 258.10Q352.54 258.10 351.83 257.68Q351.13 257.26 350.73 256.53Q350.34 255.80 350.34 254.85Q350.34 253.90 350.74 253.17Q351.14 252.44 351.83 252.02Q352.52 251.60 353.43 251.60Q354.39 251.60 355.07 252.06Q355.76 252.51 356.10 253.28Q356.44 254.04 356.31 254.99L351.43 254.99Q351.47 255.96 352.02 256.57Q352.57 257.18 353.46 257.18Q354.14 257.18 354.65 256.81Q355.16 256.45 355.29 255.94L356.26 256.19Q356.05 257.04 355.29 257.57Q354.52 258.10 353.46 258.10M351.50 254.14L355.22 254.14Q355.21 253.39 354.71 252.95Q354.21 252.51 353.43 252.51Q352.69 252.51 352.18 252.94Q351.66 253.38 351.50 254.14M358.71 258L357.65 258L357.65 251.70L358.71 251.70L358.71 252.81Q359 252.21 359.53 251.91Q360.06 251.60 360.68 251.60Q360.88 251.60 361.09 251.63Q361.30 251.66 361.45 251.74L361.38 252.75Q361.16 252.65 360.96 252.63Q360.76 252.61 360.56 252.61Q359.78 252.61 359.24 253.35Q358.71 254.09 358.71 255.47L358.71 258M364.45 258.10Q363.39 258.10 362.71 257.57Q362.04 257.04 361.84 256.24L362.81 255.93Q362.95 256.54 363.36 256.86Q363.76 257.19 364.45 257.19Q365.04 257.19 365.39 256.94Q365.75 256.69 365.75 256.20Q365.75 255.81 365.49 255.61Q365.23 255.40 364.81 255.28Q364.40 255.15 363.94 255.04Q363.49 254.93 363.08 254.74Q362.66 254.55 362.40 254.21Q362.14 253.88 362.14 253.30Q362.14 252.81 362.41 252.43Q362.68 252.05 363.16 251.82Q363.65 251.60 364.28 251.60Q365.20 251.60 365.86 252.02Q366.51 252.44 366.71 253.16L365.74 253.51Q365.59 252.96 365.21 252.74Q364.83 252.51 364.28 252.51Q363.81 252.51 363.50 252.70Q363.19 252.89 363.19 253.26Q363.19 253.61 363.45 253.79Q363.71 253.97 364.13 254.08Q364.54 254.19 365.01 254.30Q365.48 254.41 365.89 254.61Q366.30 254.81 366.56 255.18Q366.83 255.55 366.83 256.18Q366.83 256.74 366.51 257.18Q366.20 257.61 365.67 257.86Q365.14 258.10 364.45 258.10M368.51 258L367.43 258L371.35 249.25L372.45 249.25L368.51 258M376.09 259.73L375.45 259.73Q374.86 259.73 374.46 259.32Q374.06 258.93 374.06 258.31L374.06 255.68Q374.06 255.05 373.81 254.79Q373.55 254.53 372.99 254.51L372.99 253.63Q373.57 253.63 373.82 253.35Q374.06 253.07 374.06 252.49L374.06 249.84Q374.06 249.21 374.46 248.82Q374.86 248.43 375.45 248.43L376.09 248.43L376.09 249.29L375.75 249.29Q375.41 249.29 375.23 249.52Q375.04 249.75 375.04 250.11L375.04 252.74Q375.04 253.28 374.81 253.60Q374.57 253.93 374.16 254.07Q375.04 254.40 375.04 255.43L375.04 258.04Q375.04 258.41 375.23 258.64Q375.41 258.86 375.75 258.86L376.09 258.86L376.09 259.73M378.40 258L377.32 258L377.32 251.70L378.40 251.70L378.40 258M377.86 250.60Q377.54 250.60 377.32 250.39Q377.10 250.18 377.10 249.85Q377.10 249.53 377.32 249.31Q377.54 249.10 377.86 249.10Q378.20 249.10 378.42 249.31Q378.64 249.53 378.64 249.85Q378.64 250.18 378.42 250.39Q378.20 250.60 377.86 250.60M382.82 258.10Q381.89 258.10 381.18 257.69Q380.48 257.29 380.08 256.56Q379.69 255.82 379.69 254.85Q379.69 253.88 380.08 253.14Q380.48 252.41 381.18 252.01Q381.89 251.60 382.82 251.60Q383.53 251.60 384.13 251.91Q384.73 252.21 385 252.72L385 249.15L386.07 249.15L386.07 258L385 258L385 256.96Q384.73 257.48 384.13 257.79Q383.53 258.10 382.82 258.10M382.89 257.18Q383.51 257.18 383.99 256.88Q384.46 256.57 384.73 256.05Q385 255.53 385 254.85Q385 254.16 384.73 253.64Q384.46 253.11 383.99 252.82Q383.51 252.53 382.89 252.53Q382.29 252.53 381.81 252.82Q381.32 253.11 381.05 253.64Q380.78 254.16 380.78 254.85Q380.78 255.54 381.05 256.06Q381.32 256.59 381.81 256.88Q382.29 257.18 382.89 257.18M387.95 259.73L387.31 259.73L387.31 258.86L387.65 258.86Q387.98 258.86 388.17 258.64Q388.36 258.41 388.36 258.04L388.36 255.43Q388.36 254.91 388.57 254.57Q388.78 254.24 389.23 254.07Q388.83 253.93 388.59 253.60Q388.36 253.28 388.36 252.74L388.36 250.11Q388.36 249.75 388.17 249.52Q387.98 249.29 387.65 249.29L387.31 249.29L387.31 248.43L387.95 248.43Q388.54 248.43 388.94 248.82Q389.34 249.21 389.34 249.84L389.34 252.49Q389.34 253.07 389.58 253.35Q389.83 253.63 390.41 253.63L390.41 254.51Q389.84 254.53 389.59 254.79Q389.34 255.05 389.34 255.68L389.34 258.31Q389.34 258.93 388.94 259.32Q388.54 259.73 387.95 259.73M405.98 255.04L394.09 255.04L394.09 254.14L405.98 254.14L405.98 255.04M412.89 258.10Q411.95 258.10 411.24 257.69Q410.54 257.29 410.14 256.56Q409.75 255.82 409.75 254.85Q409.75 253.88 410.14 253.14Q410.54 252.41 411.24 252.01Q411.95 251.60 412.89 251.60Q413.59 251.60 414.19 251.91Q414.79 252.21 415.06 252.72L415.06 249.15L416.14 249.15L416.14 258L415.06 258L415.06 256.96Q414.79 257.48 414.19 257.79Q413.59 258.10 412.89 258.10M412.95 257.18Q413.57 257.18 414.05 256.88Q414.53 256.57 414.79 256.05Q415.06 255.53 415.06 254.85Q415.06 254.16 414.79 253.64Q414.53 253.11 414.05 252.82Q413.57 252.53 412.95 252.53Q412.35 252.53 411.87 252.82Q411.39 253.11 411.11 253.64Q410.84 254.16 410.84 254.85Q410.84 255.54 411.11 256.06Q411.39 256.59 411.87 256.88Q412.35 257.18 412.95 257.18M420.55 258.10Q419.63 258.10 418.92 257.68Q418.21 257.26 417.82 256.53Q417.43 255.80 417.43 254.85Q417.43 253.90 417.83 253.17Q418.23 252.44 418.92 252.02Q419.61 251.60 420.51 251.60Q421.48 251.60 422.16 252.06Q422.85 252.51 423.19 253.28Q423.53 254.04 423.40 254.99L418.51 254.99Q418.56 255.96 419.11 256.57Q419.66 257.18 420.55 257.18Q421.23 257.18 421.74 256.81Q422.25 256.45 422.38 255.94L423.35 256.19Q423.14 257.04 422.38 257.57Q421.61 258.10 420.55 258.10M418.59 254.14L422.31 254.14Q422.30 253.39 421.80 252.95Q421.30 252.51 420.51 252.51Q419.78 252.51 419.26 252.94Q418.75 253.38 418.59 254.14M425.81 260.27L424.74 260.27L424.74 251.70L425.81 251.70L425.81 252.72Q426.10 252.21 426.69 251.91Q427.29 251.60 427.99 251.60Q428.94 251.60 429.64 252.01Q430.34 252.41 430.73 253.14Q431.13 253.88 431.13 254.85Q431.13 255.82 430.73 256.56Q430.34 257.29 429.64 257.69Q428.94 258.10 427.99 258.10Q427.30 258.10 426.70 257.79Q426.10 257.48 425.81 256.96L425.81 260.27M427.93 257.18Q428.54 257.18 429.01 256.88Q429.49 256.59 429.76 256.06Q430.04 255.54 430.04 254.85Q430.04 254.16 429.76 253.64Q429.49 253.11 429.01 252.82Q428.54 252.53 427.93 252.53Q427.31 252.53 426.83 252.82Q426.35 253.11 426.08 253.64Q425.81 254.16 425.81 254.85Q425.81 255.53 426.08 256.05Q426.35 256.57 426.83 256.88Q427.31 257.18 427.93 257.18M433.50 258L432.44 258L432.44 251.70L433.50 251.70L433.50 252.81Q433.79 252.21 434.32 251.91Q434.85 251.60 435.46 251.60Q435.66 251.60 435.88 251.63Q436.09 251.66 436.24 251.74L436.16 252.75Q435.95 252.65 435.75 252.63Q435.55 252.61 435.35 252.61Q434.56 252.61 434.03 253.35Q433.50 254.09 433.50 255.47L433.50 258M439.96 258.10Q439.04 258.10 438.32 257.68Q437.60 257.26 437.19 256.53Q436.78 255.80 436.78 254.85Q436.78 253.90 437.19 253.17Q437.60 252.44 438.32 252.02Q439.04 251.60 439.96 251.60Q440.89 251.60 441.61 252.02Q442.33 252.44 442.74 253.17Q443.15 253.90 443.15 254.85Q443.15 255.80 442.74 256.53Q442.33 257.26 441.61 257.68Q440.89 258.10 439.96 258.10M439.96 257.16Q440.58 257.16 441.05 256.87Q441.53 256.57 441.79 256.05Q442.06 255.53 442.06 254.85Q442.06 254.16 441.79 253.64Q441.53 253.11 441.05 252.82Q440.58 252.53 439.96 252.53Q439.35 252.53 438.88 252.82Q438.40 253.11 438.13 253.64Q437.86 254.16 437.86 254.85Q437.86 255.53 438.13 256.05Q438.40 256.57 438.88 256.87Q439.35 257.16 439.96 257.16M447.26 258L446.20 258L443.73 251.70L444.89 251.70L446.75 256.63L448.63 251.70L449.74 251.70L447.26 258M451.78 258L450.70 258L450.70 251.70L451.78 251.70L451.78 258M451.24 250.60Q450.91 250.60 450.69 250.39Q450.48 250.18 450.48 249.85Q450.48 249.53 450.69 249.31Q450.91 249.10 451.24 249.10Q451.57 249.10 451.79 249.31Q452.01 249.53 452.01 249.85Q452.01 250.18 451.79 250.39Q451.57 250.60 451.24 250.60M455.53 258.10Q454.46 258.10 453.79 257.57Q453.11 257.04 452.91 256.24L453.89 255.93Q454.03 256.54 454.43 256.86Q454.84 257.19 455.53 257.19Q456.11 257.19 456.47 256.94Q456.82 256.69 456.82 256.20Q456.82 255.81 456.56 255.61Q456.30 255.40 455.89 255.28Q455.48 255.15 455.02 255.04Q454.56 254.93 454.15 254.74Q453.74 254.55 453.48 254.21Q453.21 253.88 453.21 253.30Q453.21 252.81 453.48 252.43Q453.75 252.05 454.24 251.82Q454.73 251.60 455.35 251.60Q456.28 251.60 456.93 252.02Q457.59 252.44 457.79 253.16L456.81 253.51Q456.66 252.96 456.28 252.74Q455.90 252.51 455.35 252.51Q454.89 252.51 454.57 252.70Q454.26 252.89 454.26 253.26Q454.26 253.61 454.53 253.79Q454.79 253.97 455.20 254.08Q455.61 254.19 456.08 254.30Q456.55 254.41 456.96 254.61Q457.38 254.81 457.64 255.18Q457.90 255.55 457.90 256.18Q457.90 256.74 457.59 257.18Q457.28 257.61 456.74 257.86Q456.21 258.10 455.53 258.10M460.24 258L459.16 258L459.16 251.70L460.24 251.70L460.24 258M459.70 250.60Q459.38 250.60 459.16 250.39Q458.94 250.18 458.94 249.85Q458.94 249.53 459.16 249.31Q459.38 249.10 459.70 249.10Q460.04 249.10 460.26 249.31Q460.47 249.53 460.47 249.85Q460.47 250.18 460.26 250.39Q460.04 250.60 459.70 250.60M464.71 258.10Q463.79 258.10 463.07 257.68Q462.35 257.26 461.94 256.53Q461.52 255.80 461.52 254.85Q461.52 253.90 461.94 253.17Q462.35 252.44 463.07 252.02Q463.79 251.60 464.71 251.60Q465.64 251.60 466.36 252.02Q467.07 252.44 467.49 253.17Q467.90 253.90 467.90 254.85Q467.90 255.80 467.49 256.53Q467.07 257.26 466.36 257.68Q465.64 258.10 464.71 258.10M464.71 257.16Q465.32 257.16 465.80 256.87Q466.27 256.57 466.54 256.05Q466.81 255.53 466.81 254.85Q466.81 254.16 466.54 253.64Q466.27 253.11 465.80 252.82Q465.32 252.53 464.71 252.53Q464.10 252.53 463.63 252.82Q463.15 253.11 462.88 253.64Q462.61 254.16 462.61 254.85Q462.61 255.53 462.88 256.05Q463.15 256.57 463.63 256.87Q464.10 257.16 464.71 257.16M470.26 258L469.20 258L469.20 251.70L470.26 251.70L470.26 252.79Q470.55 252.30 471.13 251.95Q471.71 251.60 472.50 251.60Q473.16 251.60 473.69 251.87Q474.21 252.14 474.52 252.64Q474.82 253.15 474.82 253.88L474.82 258L473.76 258L473.76 254.11Q473.76 253.35 473.36 252.94Q472.96 252.54 472.29 252.54Q471.36 252.54 470.81 253.29Q470.26 254.04 470.26 255.30" fill="#262d1e"/>
    <path d="M341.40 294L335.42 294L335.42 293.09L338.76 290.09Q339.49 289.43 339.86 288.88Q340.22 288.32 340.22 287.75Q340.22 286.99 339.75 286.56Q339.27 286.14 338.50 286.14Q337.60 286.14 337.09 286.74Q336.57 287.34 336.64 288.31L335.50 288.24Q335.44 287.32 335.80 286.63Q336.16 285.94 336.86 285.54Q337.56 285.15 338.50 285.15Q339.80 285.15 340.59 285.84Q341.38 286.52 341.38 287.75Q341.38 288.56 340.88 289.31Q340.39 290.06 339.40 290.86L337.04 293.01L341.40 293.01L341.40 294M345.85 294.10Q344.84 294.10 344.09 293.56Q343.34 293.02 342.93 292.02Q342.51 291.01 342.51 289.63Q342.51 288.23 342.93 287.23Q343.34 286.23 344.09 285.69Q344.84 285.15 345.85 285.15Q346.89 285.15 347.64 285.69Q348.39 286.23 348.80 287.23Q349.21 288.23 349.21 289.63Q349.21 291.01 348.80 292.02Q348.39 293.02 347.64 293.56Q346.89 294.10 345.85 294.10M345.85 293.11Q346.90 293.11 347.48 292.20Q348.06 291.29 348.06 289.63Q348.06 287.95 347.48 287.04Q346.90 286.14 345.85 286.14Q344.81 286.14 344.24 287.04Q343.66 287.95 343.66 289.63Q343.66 291.29 344.24 292.20Q344.81 293.11 345.85 293.11M355.91 294L354.78 294L354.78 291.84L350.16 291.84L350.16 290.93L354.61 285.25L355.91 285.25L355.91 290.85L357.16 290.85L357.16 291.84L355.91 291.84L355.91 294M354.78 286.56L351.35 290.85L354.78 290.85L354.78 286.56M362.36 294L361.21 294L361.21 285.25L362.69 285.25L366.27 291.16Q366.65 291.81 366.84 292.20Q367.02 292.59 367.02 292.59Q367.02 292.59 367.01 292.16Q366.99 291.73 366.99 290.98L366.99 285.25L368.14 285.25L368.14 294L366.66 294L363.09 288.09Q362.71 287.44 362.52 287.05Q362.34 286.66 362.34 286.66Q362.34 286.66 362.35 287.09Q362.36 287.52 362.36 288.27L362.36 294M372.74 294.10Q371.81 294.10 371.09 293.68Q370.38 293.26 369.96 292.53Q369.55 291.80 369.55 290.85Q369.55 289.90 369.96 289.17Q370.38 288.44 371.09 288.02Q371.81 287.60 372.74 287.60Q373.66 287.60 374.38 288.02Q375.10 288.44 375.51 289.17Q375.93 289.90 375.93 290.85Q375.93 291.80 375.51 292.53Q375.10 293.26 374.38 293.68Q373.66 294.10 372.74 294.10M372.74 293.16Q373.35 293.16 373.83 292.87Q374.30 292.57 374.57 292.05Q374.84 291.52 374.84 290.85Q374.84 290.16 374.57 289.64Q374.30 289.11 373.83 288.82Q373.35 288.52 372.74 288.52Q372.13 288.52 371.65 288.82Q371.18 289.11 370.91 289.64Q370.64 290.16 370.64 290.85Q370.64 291.52 370.91 292.05Q371.18 292.57 371.65 292.87Q372.13 293.16 372.74 293.16M383.91 294.10Q382.69 294.10 381.72 293.56Q380.76 293.01 380.21 292.01Q379.66 291.01 379.66 289.63Q379.66 288.24 380.21 287.23Q380.75 286.23 381.71 285.69Q382.67 285.15 383.91 285.15Q384.89 285.15 385.66 285.48Q386.44 285.80 386.94 286.41Q387.44 287.01 387.59 287.86L386.45 288.06Q386.30 287.19 385.61 286.66Q384.91 286.14 383.91 286.14Q383 286.14 382.30 286.56Q381.60 286.98 381.21 287.76Q380.81 288.54 380.81 289.63Q380.81 290.70 381.21 291.49Q381.60 292.27 382.30 292.69Q383 293.11 383.91 293.11Q384.97 293.11 385.67 292.56Q386.36 292.01 386.50 291.11L387.63 291.26Q387.52 292.10 387.02 292.74Q386.51 293.39 385.71 293.74Q384.91 294.10 383.91 294.10M391.66 294.10Q390.74 294.10 390.02 293.68Q389.30 293.26 388.89 292.53Q388.47 291.80 388.47 290.85Q388.47 289.90 388.89 289.17Q389.30 288.44 390.02 288.02Q390.74 287.60 391.66 287.60Q392.59 287.60 393.31 288.02Q394.02 288.44 394.44 289.17Q394.85 289.90 394.85 290.85Q394.85 291.80 394.44 292.53Q394.02 293.26 393.31 293.68Q392.59 294.10 391.66 294.10M391.66 293.16Q392.27 293.16 392.75 292.87Q393.22 292.57 393.49 292.05Q393.76 291.52 393.76 290.85Q393.76 290.16 393.49 289.64Q393.22 289.11 392.75 288.82Q392.27 288.52 391.66 288.52Q391.05 288.52 390.57 288.82Q390.10 289.11 389.83 289.64Q389.56 290.16 389.56 290.85Q389.56 291.52 389.83 292.05Q390.10 292.57 390.57 292.87Q391.05 293.16 391.66 293.16M397.21 294L396.15 294L396.15 287.70L397.21 287.70L397.21 288.79Q397.50 288.30 398.08 287.95Q398.66 287.60 399.45 287.60Q400.11 287.60 400.64 287.87Q401.16 288.14 401.47 288.64Q401.77 289.15 401.77 289.88L401.77 294L400.71 294L400.71 290.11Q400.71 289.35 400.31 288.94Q399.91 288.54 399.24 288.54Q398.31 288.54 397.76 289.29Q397.21 290.04 397.21 291.30L397.21 294M405.64 294.10Q404.82 294.10 404.29 293.60Q403.76 293.10 403.76 292.14L403.76 288.59L402.70 288.59L402.70 287.70L403.76 287.70L403.76 286.10L404.84 286.10L404.84 287.70L406.44 287.70L406.44 288.59L404.84 288.59L404.84 292.05Q404.84 292.60 405.09 292.88Q405.34 293.15 405.76 293.15Q406.09 293.15 406.42 293.02L406.51 293.94Q406.34 294.02 406.09 294.06Q405.85 294.10 405.64 294.10M410.29 294.10Q409.36 294.10 408.66 293.68Q407.95 293.26 407.56 292.53Q407.16 291.80 407.16 290.85Q407.16 289.90 407.56 289.17Q407.96 288.44 408.66 288.02Q409.35 287.60 410.25 287.60Q411.21 287.60 411.90 288.06Q412.59 288.51 412.92 289.27Q413.26 290.04 413.14 290.99L408.25 290.99Q408.30 291.96 408.85 292.57Q409.40 293.18 410.29 293.18Q410.96 293.18 411.47 292.81Q411.99 292.45 412.11 291.94L413.09 292.19Q412.87 293.04 412.11 293.57Q411.35 294.10 410.29 294.10M408.32 290.14L412.05 290.14Q412.04 289.39 411.54 288.95Q411.04 288.51 410.25 288.51Q409.51 288.51 409 288.94Q408.49 289.38 408.32 290.14M415.54 294L414.47 294L414.47 287.70L415.54 287.70L415.54 288.79Q415.82 288.30 416.41 287.95Q416.99 287.60 417.77 287.60Q418.44 287.60 418.96 287.87Q419.49 288.14 419.79 288.64Q420.10 289.15 420.10 289.88L420.10 294L419.04 294L419.04 290.11Q419.04 289.35 418.64 288.94Q418.24 288.54 417.56 288.54Q416.64 288.54 416.09 289.29Q415.54 290.04 415.54 291.30L415.54 294M423.96 294.10Q423.15 294.10 422.62 293.60Q422.09 293.10 422.09 292.14L422.09 288.59L421.02 288.59L421.02 287.70L422.09 287.70L422.09 286.10L423.16 286.10L423.16 287.70L424.76 287.70L424.76 288.59L423.16 288.59L423.16 292.05Q423.16 292.60 423.41 292.88Q423.66 293.15 424.09 293.15Q424.41 293.15 424.75 293.02L424.84 293.94Q424.66 294.02 424.42 294.06Q424.17 294.10 423.96 294.10" fill="#686c62"/>
  
  <path d="M275.20 336L274.10 336L274.10 327.60L279.50 327.60L279.50 328.55L275.20 328.55L275.20 331.12L278.73 331.12L278.73 332.06L275.20 332.06L275.20 336M283.17 336.10Q282.28 336.10 281.59 335.69Q280.90 335.29 280.51 334.59Q280.11 333.89 280.11 332.98Q280.11 332.06 280.51 331.36Q280.90 330.66 281.59 330.26Q282.28 329.86 283.17 329.86Q284.06 329.86 284.75 330.26Q285.44 330.66 285.84 331.36Q286.23 332.06 286.23 332.98Q286.23 333.89 285.84 334.59Q285.44 335.29 284.75 335.69Q284.06 336.10 283.17 336.10M283.17 335.20Q283.76 335.20 284.22 334.91Q284.67 334.63 284.93 334.13Q285.19 333.62 285.19 332.98Q285.19 332.32 284.93 331.81Q284.67 331.31 284.22 331.03Q283.76 330.74 283.17 330.74Q282.58 330.74 282.13 331.03Q281.67 331.31 281.41 331.81Q281.16 332.32 281.16 332.98Q281.16 333.62 281.41 334.13Q281.67 334.63 282.13 334.91Q282.58 335.20 283.17 335.20M288.50 336L287.48 336L287.48 329.95L288.50 329.95L288.50 331.02Q288.78 330.44 289.29 330.15Q289.80 329.86 290.38 329.86Q290.58 329.86 290.78 329.89Q290.98 329.92 291.13 329.99L291.06 330.96Q290.85 330.86 290.66 330.85Q290.47 330.83 290.28 330.83Q289.52 330.83 289.01 331.54Q288.50 332.24 288.50 333.58L288.50 336M294.64 336.10Q293.76 336.10 293.08 335.69Q292.40 335.29 292.02 334.59Q291.64 333.89 291.64 332.98Q291.64 332.06 292.03 331.36Q292.41 330.66 293.08 330.26Q293.74 329.86 294.61 329.86Q295.53 329.86 296.19 330.29Q296.85 330.73 297.18 331.46Q297.50 332.20 297.38 333.11L292.69 333.11Q292.74 334.04 293.26 334.63Q293.79 335.21 294.64 335.21Q295.29 335.21 295.78 334.86Q296.28 334.51 296.40 334.02L297.33 334.26Q297.13 335.08 296.40 335.59Q295.66 336.10 294.64 336.10M292.76 332.29L296.34 332.29Q296.32 331.57 295.84 331.15Q295.36 330.73 294.61 330.73Q293.90 330.73 293.41 331.15Q292.92 331.56 292.76 332.29M300.64 336.10Q299.62 336.10 298.98 335.59Q298.33 335.08 298.14 334.31L299.07 334.01Q299.20 334.60 299.59 334.91Q299.98 335.22 300.64 335.22Q301.21 335.22 301.55 334.98Q301.89 334.74 301.89 334.27Q301.89 333.90 301.64 333.70Q301.39 333.50 300.99 333.38Q300.60 333.26 300.16 333.16Q299.72 333.05 299.32 332.87Q298.93 332.69 298.68 332.36Q298.42 332.04 298.42 331.49Q298.42 331.02 298.68 330.65Q298.94 330.29 299.41 330.07Q299.88 329.86 300.48 329.86Q301.36 329.86 301.99 330.26Q302.62 330.66 302.82 331.36L301.88 331.69Q301.74 331.16 301.37 330.95Q301 330.73 300.48 330.73Q300.03 330.73 299.73 330.91Q299.43 331.09 299.43 331.45Q299.43 331.79 299.68 331.96Q299.94 332.14 300.33 332.24Q300.73 332.34 301.18 332.45Q301.63 332.56 302.02 332.75Q302.42 332.94 302.67 333.29Q302.92 333.65 302.92 334.25Q302.92 334.79 302.62 335.21Q302.32 335.63 301.81 335.86Q301.30 336.10 300.64 336.10M306.28 336.10Q305.50 336.10 304.99 335.62Q304.48 335.14 304.48 334.21L304.48 330.80L303.46 330.80L303.46 329.95L304.48 329.95L304.48 328.42L305.52 328.42L305.52 329.95L307.05 329.95L307.05 330.80L305.52 330.80L305.52 334.13Q305.52 334.66 305.76 334.92Q306 335.18 306.40 335.18Q306.72 335.18 307.04 335.06L307.12 335.94Q306.96 336.02 306.72 336.06Q306.49 336.10 306.28 336.10M311.82 336L310.80 336L310.80 329.95L311.82 329.95L311.82 331Q312.08 330.54 312.58 330.20Q313.08 329.86 313.77 329.86Q314.50 329.86 315.02 330.22Q315.54 330.58 315.70 331.15Q316.05 330.58 316.59 330.22Q317.13 329.86 317.82 329.86Q318.78 329.86 319.37 330.44Q319.96 331.02 319.96 331.98L319.96 336L318.94 336L318.94 332.21Q318.94 331.54 318.60 331.15Q318.26 330.76 317.65 330.76Q317.11 330.76 316.71 331.07Q316.32 331.38 316.10 331.90Q315.88 332.41 315.88 333.05L315.88 336L314.86 336L314.86 332.21Q314.86 331.54 314.53 331.15Q314.19 330.76 313.58 330.76Q313.04 330.76 312.64 331.07Q312.25 331.38 312.03 331.90Q311.82 332.41 311.82 333.05L311.82 336M322.54 336L321.51 336L321.51 329.95L322.54 329.95L322.54 336M322.03 328.90Q321.72 328.90 321.51 328.69Q321.30 328.49 321.30 328.18Q321.30 327.86 321.51 327.66Q321.72 327.46 322.03 327.46Q322.35 327.46 322.56 327.66Q322.77 327.86 322.77 328.18Q322.77 328.49 322.56 328.69Q322.35 328.90 322.03 328.90M325.18 336L324.16 336L324.16 329.95L325.18 329.95L325.18 331.02Q325.46 330.44 325.97 330.15Q326.48 329.86 327.07 329.86Q327.26 329.86 327.46 329.89Q327.67 329.92 327.81 329.99L327.74 330.96Q327.54 330.86 327.34 330.85Q327.15 330.83 326.96 330.83Q326.20 330.83 325.69 331.54Q325.18 332.24 325.18 333.58L325.18 336M329.73 336L328.71 336L328.71 329.95L329.73 329.95L329.73 331.02Q330.01 330.44 330.52 330.15Q331.03 329.86 331.62 329.86Q331.81 329.86 332.01 329.89Q332.22 329.92 332.36 329.99L332.29 330.96Q332.08 330.86 331.89 330.85Q331.70 330.83 331.51 330.83Q330.75 330.83 330.24 331.54Q329.73 332.24 329.73 333.58L329.73 336M335.94 336.10Q335.05 336.10 334.36 335.69Q333.67 335.29 333.27 334.59Q332.88 333.89 332.88 332.98Q332.88 332.06 333.27 331.36Q333.67 330.66 334.36 330.26Q335.05 329.86 335.94 329.86Q336.82 329.86 337.51 330.26Q338.20 330.66 338.60 331.36Q339 332.06 339 332.98Q339 333.89 338.60 334.59Q338.20 335.29 337.51 335.69Q336.82 336.10 335.94 336.10M335.94 335.20Q336.52 335.20 336.98 334.91Q337.44 334.63 337.69 334.13Q337.95 333.62 337.95 332.98Q337.95 332.32 337.69 331.81Q337.44 331.31 336.98 331.03Q336.52 330.74 335.94 330.74Q335.35 330.74 334.89 331.03Q334.44 331.31 334.18 331.81Q333.92 332.32 333.92 332.98Q333.92 333.62 334.18 334.13Q334.44 334.63 334.89 334.91Q335.35 335.20 335.94 335.20M341.26 336L340.24 336L340.24 329.95L341.26 329.95L341.26 331.02Q341.54 330.44 342.05 330.15Q342.56 329.86 343.15 329.86Q343.34 329.86 343.54 329.89Q343.75 329.92 343.89 329.99L343.82 330.96Q343.62 330.86 343.42 330.85Q343.23 330.83 343.04 330.83Q342.28 330.83 341.77 331.54Q341.26 332.24 341.26 333.58L341.26 336M346.77 336.10Q345.75 336.10 345.10 335.59Q344.46 335.08 344.26 334.31L345.20 334.01Q345.33 334.60 345.72 334.91Q346.11 335.22 346.77 335.22Q347.34 335.22 347.68 334.98Q348.02 334.74 348.02 334.27Q348.02 333.90 347.77 333.70Q347.52 333.50 347.12 333.38Q346.72 333.26 346.29 333.16Q345.85 333.05 345.45 332.87Q345.06 332.69 344.80 332.36Q344.55 332.04 344.55 331.49Q344.55 331.02 344.81 330.65Q345.07 330.29 345.54 330.07Q346 329.86 346.60 329.86Q347.49 329.86 348.12 330.26Q348.75 330.66 348.94 331.36L348.01 331.69Q347.86 331.16 347.50 330.95Q347.13 330.73 346.60 330.73Q346.16 330.73 345.86 330.91Q345.56 331.09 345.56 331.45Q345.56 331.79 345.81 331.96Q346.06 332.14 346.46 332.24Q346.86 332.34 347.31 332.45Q347.76 332.56 348.15 332.75Q348.55 332.94 348.80 333.29Q349.05 333.65 349.05 334.25Q349.05 334.79 348.75 335.21Q348.45 335.63 347.94 335.86Q347.43 336.10 346.77 336.10M355.08 336.10Q354.30 336.10 353.79 335.62Q353.28 335.14 353.28 334.21L353.28 330.80L352.26 330.80L352.26 329.95L353.28 329.95L353.28 328.42L354.31 328.42L354.31 329.95L355.84 329.95L355.84 330.80L354.31 330.80L354.31 334.13Q354.31 334.66 354.55 334.92Q354.79 335.18 355.20 335.18Q355.51 335.18 355.83 335.06L355.92 335.94Q355.75 336.02 355.51 336.06Q355.28 336.10 355.08 336.10M357.94 336L356.92 336L356.92 327.50L357.94 327.50L357.94 331Q358.22 330.53 358.78 330.19Q359.34 329.86 360.09 329.86Q360.73 329.86 361.24 330.11Q361.75 330.37 362.04 330.86Q362.34 331.34 362.34 332.04L362.34 336L361.30 336L361.30 332.27Q361.30 331.54 360.92 331.15Q360.54 330.76 359.89 330.76Q359 330.76 358.47 331.48Q357.94 332.20 357.94 333.41L357.94 336M366.51 336.10Q365.62 336.10 364.95 335.69Q364.27 335.29 363.89 334.59Q363.51 333.89 363.51 332.98Q363.51 332.06 363.90 331.36Q364.28 330.66 364.95 330.26Q365.61 329.86 366.48 329.86Q367.40 329.86 368.06 330.29Q368.72 330.73 369.04 331.46Q369.37 332.20 369.25 333.11L364.56 333.11Q364.60 334.04 365.13 334.63Q365.66 335.21 366.51 335.21Q367.16 335.21 367.65 334.86Q368.14 334.51 368.26 334.02L369.20 334.26Q369 335.08 368.26 335.59Q367.53 336.10 366.51 336.10M364.63 332.29L368.20 332.29Q368.19 331.57 367.71 331.15Q367.23 330.73 366.48 330.73Q365.77 330.73 365.28 331.15Q364.78 331.56 364.63 332.29M374.41 336L373.30 336L373.30 327.60L374.41 327.60L374.41 336M378.78 336.10Q377.88 336.10 377.20 335.71Q376.52 335.32 376.14 334.61Q375.76 333.91 375.76 332.98Q375.76 332.04 376.14 331.34Q376.52 330.64 377.20 330.25Q377.88 329.86 378.78 329.86Q379.45 329.86 380.02 330.15Q380.60 330.44 380.86 330.94L380.86 327.50L381.90 327.50L381.90 336L380.86 336L380.86 335Q380.60 335.50 380.02 335.80Q379.45 336.10 378.78 336.10M378.84 335.21Q379.44 335.21 379.89 334.92Q380.35 334.63 380.61 334.13Q380.86 333.62 380.86 332.98Q380.86 332.32 380.61 331.81Q380.35 331.31 379.89 331.03Q379.44 330.74 378.84 330.74Q378.26 330.74 377.80 331.03Q377.34 331.31 377.07 331.81Q376.81 332.32 376.81 332.98Q376.81 333.64 377.07 334.14Q377.34 334.64 377.80 334.93Q378.26 335.21 378.84 335.21M384.72 336L383.62 336L383.62 327.60L386.89 327.60Q387.69 327.60 388.29 327.90Q388.88 328.20 389.21 328.75Q389.54 329.29 389.54 330.02Q389.54 330.76 389.21 331.30Q388.88 331.85 388.29 332.15Q387.69 332.45 386.89 332.45L384.72 332.45L384.72 336M384.72 328.55L384.72 331.50L386.78 331.50Q387.54 331.50 387.99 331.09Q388.45 330.68 388.45 330.02Q388.45 329.35 387.99 328.95Q387.54 328.55 386.78 328.55L384.72 328.55M395.13 336.10Q394.14 336.10 393.57 335.61Q393 335.12 393 334.37Q393 333.46 393.66 332.98Q394.32 332.50 395.76 332.35L397.05 332.22L397.05 332Q397.05 331.40 396.65 331.07Q396.25 330.73 395.59 330.73Q394.96 330.73 394.57 331.05Q394.17 331.37 394.08 332L393.10 331.84Q393.25 330.97 393.90 330.41Q394.56 329.86 395.59 329.86Q396.32 329.86 396.88 330.13Q397.44 330.40 397.76 330.90Q398.08 331.40 398.08 332.11L398.08 336L397.05 336L397.05 334.99Q396.93 335.28 396.64 335.53Q396.36 335.78 395.96 335.94Q395.56 336.10 395.13 336.10M397.05 333.30L397.05 333.01L395.82 333.16Q394.87 333.26 394.45 333.52Q394.03 333.78 394.03 334.33Q394.03 334.78 394.35 335.02Q394.68 335.27 395.22 335.27Q395.76 335.27 396.17 335Q396.58 334.73 396.82 334.28Q397.05 333.83 397.05 333.30M401.60 336.10Q400.58 336.10 399.93 335.59Q399.28 335.08 399.09 334.31L400.03 334.01Q400.16 334.60 400.55 334.91Q400.94 335.22 401.60 335.22Q402.16 335.22 402.51 334.98Q402.85 334.74 402.85 334.27Q402.85 333.90 402.60 333.70Q402.34 333.50 401.95 333.38Q401.55 333.26 401.11 333.16Q400.68 333.05 400.28 332.87Q399.88 332.69 399.63 332.36Q399.38 332.04 399.38 331.49Q399.38 331.02 399.64 330.65Q399.90 330.29 400.36 330.07Q400.83 329.86 401.43 329.86Q402.32 329.86 402.95 330.26Q403.58 330.66 403.77 331.36L402.84 331.69Q402.69 331.16 402.33 330.95Q401.96 330.73 401.43 330.73Q400.99 330.73 400.69 330.91Q400.39 331.09 400.39 331.45Q400.39 331.79 400.64 331.96Q400.89 332.14 401.29 332.24Q401.68 332.34 402.13 332.45Q402.58 332.56 402.98 332.75Q403.38 332.94 403.63 333.29Q403.88 333.65 403.88 334.25Q403.88 334.79 403.58 335.21Q403.28 335.63 402.77 335.86Q402.26 336.10 401.60 336.10M409.75 336.10Q408.73 336.10 408.08 335.59Q407.43 335.08 407.24 334.31L408.18 334.01Q408.31 334.60 408.70 334.91Q409.09 335.22 409.75 335.22Q410.31 335.22 410.65 334.98Q411 334.74 411 334.27Q411 333.90 410.74 333.70Q410.49 333.50 410.10 333.38Q409.70 333.26 409.26 333.16Q408.82 333.05 408.43 332.87Q408.03 332.69 407.78 332.36Q407.53 332.04 407.53 331.49Q407.53 331.02 407.79 330.65Q408.04 330.29 408.51 330.07Q408.98 329.86 409.58 329.86Q410.47 329.86 411.10 330.26Q411.73 330.66 411.92 331.36L410.98 331.69Q410.84 331.16 410.47 330.95Q410.11 330.73 409.58 330.73Q409.14 330.73 408.84 330.91Q408.54 331.09 408.54 331.45Q408.54 331.79 408.79 331.96Q409.04 332.14 409.44 332.24Q409.83 332.34 410.28 332.45Q410.73 332.56 411.13 332.75Q411.52 332.94 411.78 333.29Q412.03 333.65 412.03 334.25Q412.03 334.79 411.73 335.21Q411.43 335.63 410.92 335.86Q410.41 336.10 409.75 336.10M415.93 336.10Q415.04 336.10 414.35 335.69Q413.66 335.29 413.26 334.59Q412.87 333.89 412.87 332.98Q412.87 332.06 413.26 331.36Q413.66 330.66 414.35 330.26Q415.04 329.86 415.93 329.86Q416.82 329.86 417.51 330.26Q418.20 330.66 418.59 331.36Q418.99 332.06 418.99 332.98Q418.99 333.89 418.59 334.59Q418.20 335.29 417.51 335.69Q416.82 336.10 415.93 336.10M415.93 335.20Q416.52 335.20 416.97 334.91Q417.43 334.63 417.69 334.13Q417.94 333.62 417.94 332.98Q417.94 332.32 417.69 331.81Q417.43 331.31 416.97 331.03Q416.52 330.74 415.93 330.74Q415.34 330.74 414.88 331.03Q414.43 331.31 414.17 331.81Q413.91 332.32 413.91 332.98Q413.91 333.62 414.17 334.13Q414.43 334.63 414.88 334.91Q415.34 335.20 415.93 335.20M422.41 336.10Q421.77 336.10 421.26 335.84Q420.75 335.58 420.46 335.10Q420.16 334.62 420.16 333.92L420.16 329.95L421.20 329.95L421.20 333.68Q421.20 334.42 421.58 334.81Q421.96 335.20 422.60 335.20Q423.50 335.20 424.03 334.48Q424.56 333.76 424.56 332.54L424.56 329.95L425.58 329.95L425.58 336L424.56 336L424.56 334.96Q424.27 335.42 423.72 335.76Q423.16 336.10 422.41 336.10M428.23 336L427.21 336L427.21 329.95L428.23 329.95L428.23 331.02Q428.50 330.44 429.01 330.15Q429.52 329.86 430.11 329.86Q430.30 329.86 430.51 329.89Q430.71 329.92 430.86 329.99L430.78 330.96Q430.58 330.86 430.39 330.85Q430.20 330.83 430 330.83Q429.25 330.83 428.74 331.54Q428.23 332.24 428.23 333.58L428.23 336M434.36 336.10Q433.50 336.10 432.82 335.69Q432.15 335.28 431.76 334.57Q431.37 333.86 431.37 332.98Q431.37 332.08 431.76 331.37Q432.15 330.66 432.82 330.26Q433.50 329.86 434.36 329.86Q435.43 329.86 436.18 330.40Q436.93 330.95 437.08 331.88L436.06 332.04Q435.94 331.44 435.49 331.09Q435.04 330.74 434.36 330.74Q433.81 330.74 433.37 331.03Q432.93 331.32 432.67 331.82Q432.42 332.32 432.42 332.98Q432.42 333.62 432.67 334.12Q432.93 334.62 433.37 334.91Q433.81 335.20 434.36 335.20Q435.08 335.20 435.55 334.84Q436.02 334.49 436.10 333.90L437.14 334.02Q437.06 334.63 436.68 335.10Q436.30 335.57 435.71 335.83Q435.12 336.10 434.36 336.10M440.94 336.10Q440.05 336.10 439.37 335.69Q438.69 335.29 438.31 334.59Q437.94 333.89 437.94 332.98Q437.94 332.06 438.32 331.36Q438.70 330.66 439.37 330.26Q440.04 329.86 440.90 329.86Q441.82 329.86 442.48 330.29Q443.14 330.73 443.47 331.46Q443.79 332.20 443.67 333.11L438.98 333.11Q439.03 334.04 439.56 334.63Q440.08 335.21 440.94 335.21Q441.58 335.21 442.08 334.86Q442.57 334.51 442.69 334.02L443.62 334.26Q443.42 335.08 442.69 335.59Q441.96 336.10 440.94 336.10M439.05 332.29L442.63 332.29Q442.62 331.57 442.14 331.15Q441.66 330.73 440.90 330.73Q440.19 330.73 439.70 331.15Q439.21 331.56 439.05 332.29M450.30 336.10Q449.41 336.10 448.72 335.69Q448.03 335.29 447.63 334.59Q447.24 333.89 447.24 332.98Q447.24 332.06 447.63 331.36Q448.03 330.66 448.72 330.26Q449.41 329.86 450.30 329.86Q451.18 329.86 451.87 330.26Q452.56 330.66 452.96 331.36Q453.36 332.06 453.36 332.98Q453.36 333.89 452.96 334.59Q452.56 335.29 451.87 335.69Q451.18 336.10 450.30 336.10M450.30 335.20Q450.88 335.20 451.34 334.91Q451.80 334.63 452.05 334.13Q452.31 333.62 452.31 332.98Q452.31 332.32 452.05 331.81Q451.80 331.31 451.34 331.03Q450.88 330.74 450.30 330.74Q449.71 330.74 449.25 331.03Q448.80 331.31 448.54 331.81Q448.28 332.32 448.28 332.98Q448.28 333.62 448.54 334.13Q448.80 334.63 449.25 334.91Q449.71 335.20 450.30 335.20M456.02 336L454.99 336L454.99 330.80L453.97 330.80L453.97 329.95L454.99 329.95L454.99 329.26Q454.99 328.30 455.50 327.82Q456.01 327.34 456.79 327.34Q457.02 327.34 457.24 327.38Q457.46 327.42 457.63 327.48L457.54 328.38Q457.39 328.30 457.23 328.27Q457.06 328.24 456.91 328.24Q456.50 328.24 456.26 328.51Q456.02 328.78 456.02 329.30L456.02 329.95L457.56 329.95L457.56 330.80L456.02 330.80L456.02 336M463.32 336.10Q462.54 336.10 462.03 335.62Q461.52 335.14 461.52 334.21L461.52 330.80L460.50 330.80L460.50 329.95L461.52 329.95L461.52 328.42L462.55 328.42L462.55 329.95L464.08 329.95L464.08 330.80L462.55 330.80L462.55 334.13Q462.55 334.66 462.79 334.92Q463.03 335.18 463.44 335.18Q463.75 335.18 464.07 335.06L464.16 335.94Q463.99 336.02 463.75 336.06Q463.52 336.10 463.32 336.10M466.18 336L465.16 336L465.16 329.95L466.18 329.95L466.18 331.02Q466.46 330.44 466.97 330.15Q467.48 329.86 468.07 329.86Q468.26 329.86 468.46 329.89Q468.67 329.92 468.81 329.99L468.74 330.96Q468.54 330.86 468.34 330.85Q468.15 330.83 467.96 330.83Q467.20 330.83 466.69 331.54Q466.18 332.24 466.18 333.58L466.18 336M471.88 336.10Q471.25 336.10 470.74 335.84Q470.23 335.58 469.93 335.10Q469.64 334.62 469.64 333.92L469.64 329.95L470.67 329.95L470.67 333.68Q470.67 334.42 471.06 334.81Q471.44 335.20 472.08 335.20Q472.98 335.20 473.50 334.48Q474.03 333.76 474.03 332.54L474.03 329.95L475.05 329.95L475.05 336L474.03 336L474.03 334.96Q473.74 335.42 473.19 335.76Q472.64 336.10 471.88 336.10M478.82 336.10Q478.04 336.10 477.53 335.62Q477.02 335.14 477.02 334.21L477.02 330.80L476 330.80L476 329.95L477.02 329.95L477.02 328.42L478.05 328.42L478.05 329.95L479.59 329.95L479.59 330.80L478.05 330.80L478.05 334.13Q478.05 334.66 478.29 334.92Q478.53 335.18 478.94 335.18Q479.25 335.18 479.58 335.06L479.66 335.94Q479.49 336.02 479.26 336.06Q479.02 336.10 478.82 336.10M481.69 336L480.67 336L480.67 327.50L481.69 327.50L481.69 331Q481.96 330.53 482.52 330.19Q483.08 329.86 483.84 329.86Q484.47 329.86 484.98 330.11Q485.49 330.37 485.79 330.86Q486.08 331.34 486.08 332.04L486.08 336L485.05 336L485.05 332.27Q485.05 331.54 484.66 331.15Q484.28 330.76 483.63 330.76Q482.74 330.76 482.22 331.48Q481.69 332.20 481.69 333.41" fill="#686c62"/>
</svg>
