<svg width="840" height="360" viewBox="0 0 840 360" fill="none" xmlns="http://www.w3.org/2000/svg" font-family="Matter, Inter, system-ui, sans-serif">
  <defs>
    <pattern id="dots" width="22" height="22" patternUnits="userSpaceOnUse"><circle cx="2" cy="2" r="1.4" fill="#d4d2c6"/></pattern>
    <marker id="arr" markerWidth="9" markerHeight="9" refX="7" refY="3" orient="auto" markerUnits="userSpaceOnUse"><path d="M0 0L7 3L0 6Z" fill="#686c62"/></marker>
  </defs>
  <rect width="840" height="360" rx="4" fill="#f6f5ee"/>
  <rect width="840" height="360" rx="4" fill="url(#dots)"/>

  
  <g stroke="#686c62" stroke-opacity="0.4" stroke-width="1.5" stroke-dasharray="3 4">
    <line x1="140" y1="64" x2="140" y2="346"/>
    <line x1="420" y1="64" x2="420" y2="346"/>
    <line x1="700" y1="64" x2="700" y2="346"/>
  </g>
  

  <rect x="70" y="20" width="140" height="44" rx="2" fill="#ffffff"/>
  <path d="M130.86 47.10Q129.78 47.10 128.96 46.68Q128.13 46.26 127.68 45.49Q127.22 44.73 127.22 43.72L127.22 37.90L128.74 37.90L128.74 43.72Q128.74 44.63 129.33 45.21Q129.92 45.79 130.86 45.79Q131.78 45.79 132.37 45.21Q132.95 44.63 132.95 43.72L132.95 37.90L134.49 37.90L134.49 43.72Q134.49 44.73 134.03 45.49Q133.58 46.26 132.76 46.68Q131.94 47.10 130.86 47.10M138.39 47.10Q137.63 47.10 137.05 46.84Q136.46 46.58 136.09 46.14Q135.72 45.69 135.59 45.15L136.83 44.75Q136.96 45.32 137.35 45.64Q137.75 45.96 138.39 45.96Q138.91 45.96 139.23 45.73Q139.54 45.51 139.54 45.10Q139.54 44.75 139.28 44.56Q139.03 44.37 138.61 44.26Q138.19 44.14 137.72 44.02Q137.26 43.89 136.84 43.69Q136.42 43.49 136.16 43.13Q135.91 42.76 135.91 42.15Q135.91 41.64 136.19 41.23Q136.48 40.83 136.99 40.58Q137.50 40.34 138.19 40.34Q139.18 40.34 139.88 40.79Q140.58 41.23 140.79 41.96L139.57 42.41Q139.43 41.88 139.05 41.66Q138.67 41.45 138.19 41.45Q137.79 41.45 137.52 41.62Q137.24 41.79 137.24 42.11Q137.24 42.44 137.51 42.60Q137.78 42.76 138.19 42.87Q138.61 42.97 139.08 43.09Q139.54 43.20 139.96 43.42Q140.38 43.63 140.64 44.02Q140.91 44.40 140.91 45.06Q140.91 45.66 140.58 46.12Q140.26 46.58 139.69 46.84Q139.12 47.10 138.39 47.10M145.04 47.10Q144.06 47.10 143.31 46.67Q142.56 46.23 142.14 45.47Q141.73 44.71 141.73 43.72Q141.73 42.74 142.14 41.98Q142.56 41.22 143.30 40.78Q144.04 40.34 144.99 40.34Q146.03 40.34 146.77 40.83Q147.51 41.32 147.86 42.14Q148.22 42.97 148.09 43.98L143.16 43.98Q143.24 44.85 143.74 45.38Q144.24 45.91 145.04 45.91Q145.66 45.91 146.12 45.59Q146.59 45.27 146.71 44.79L148.03 45.14Q147.79 46.01 146.97 46.56Q146.16 47.10 145.04 47.10M143.24 42.91L146.62 42.91Q146.60 42.26 146.16 41.87Q145.71 41.49 144.99 41.49Q144.33 41.49 143.87 41.86Q143.41 42.23 143.24 42.91M150.75 47L149.33 47L149.33 40.45L150.75 40.45L150.75 41.45Q151.04 40.92 151.56 40.63Q152.09 40.34 152.73 40.34Q152.94 40.34 153.16 40.38Q153.38 40.41 153.53 40.47L153.43 41.83Q153.22 41.73 153.01 41.71Q152.81 41.68 152.60 41.68Q151.84 41.68 151.30 42.37Q150.75 43.05 150.75 44.47" fill="#262d1e"/>
  <rect x="350" y="20" width="140" height="44" rx="2" fill="#3f5b1e"/>
  <path d="M403.66 47L402.13 47L402.13 37.90L408.17 37.90L408.17 39.21L403.66 39.21L403.66 41.59L407.32 41.59L407.32 42.91L403.66 42.91L403.66 47M412.15 47.10Q411.17 47.10 410.41 46.67Q409.64 46.23 409.20 45.47Q408.77 44.70 408.77 43.71Q408.77 42.72 409.20 41.96Q409.64 41.20 410.41 40.77Q411.17 40.34 412.15 40.34Q413.14 40.34 413.90 40.77Q414.66 41.20 415.09 41.96Q415.53 42.72 415.53 43.71Q415.53 44.70 415.09 45.47Q414.66 46.23 413.90 46.67Q413.14 47.10 412.15 47.10M412.15 45.88Q413.01 45.88 413.55 45.28Q414.08 44.67 414.08 43.71Q414.08 42.76 413.55 42.16Q413.01 41.57 412.15 41.57Q411.30 41.57 410.76 42.16Q410.21 42.75 410.21 43.71Q410.21 44.67 410.76 45.28Q411.30 45.88 412.15 45.88M418.15 47L416.74 47L416.74 40.45L418.15 40.45L418.15 41.45Q418.44 40.92 418.97 40.63Q419.49 40.34 420.13 40.34Q420.34 40.34 420.56 40.38Q420.78 40.41 420.94 40.47L420.83 41.83Q420.62 41.73 420.42 41.71Q420.21 41.68 420 41.68Q419.25 41.68 418.70 42.37Q418.15 43.05 418.15 44.47L418.15 47M424.74 47.10Q423.76 47.10 423.01 46.67Q422.26 46.23 421.85 45.47Q421.43 44.71 421.43 43.72Q421.43 42.74 421.85 41.98Q422.26 41.22 423 40.78Q423.74 40.34 424.69 40.34Q425.73 40.34 426.47 40.83Q427.21 41.32 427.57 42.14Q427.92 42.97 427.79 43.98L422.86 43.98Q422.94 44.85 423.44 45.38Q423.94 45.91 424.74 45.91Q425.36 45.91 425.82 45.59Q426.29 45.27 426.41 44.79L427.73 45.14Q427.49 46.01 426.68 46.56Q425.86 47.10 424.74 47.10M422.94 42.91L426.32 42.91Q426.30 42.26 425.86 41.87Q425.41 41.49 424.69 41.49Q424.03 41.49 423.57 41.86Q423.11 42.23 422.94 42.91M431.31 47.10Q430.56 47.10 429.97 46.84Q429.39 46.58 429.02 46.14Q428.64 45.69 428.51 45.15L429.75 44.75Q429.88 45.32 430.28 45.64Q430.67 45.96 431.31 45.96Q431.83 45.96 432.15 45.73Q432.47 45.51 432.47 45.10Q432.47 44.75 432.21 44.56Q431.95 44.37 431.53 44.26Q431.11 44.14 430.65 44.02Q430.18 43.89 429.76 43.69Q429.35 43.49 429.09 43.13Q428.83 42.76 428.83 42.15Q428.83 41.64 429.11 41.23Q429.40 40.83 429.91 40.58Q430.43 40.34 431.11 40.34Q432.10 40.34 432.80 40.79Q433.51 41.23 433.71 41.96L432.49 42.41Q432.35 41.88 431.97 41.66Q431.60 41.45 431.11 41.45Q430.71 41.45 430.44 41.62Q430.17 41.79 430.17 42.11Q430.17 42.44 430.43 42.60Q430.70 42.76 431.11 42.87Q431.53 42.97 432 43.09Q432.47 43.20 432.88 43.42Q433.30 43.63 433.57 44.02Q433.83 44.40 433.83 45.06Q433.83 45.66 433.51 46.12Q433.18 46.58 432.61 46.84Q432.04 47.10 431.31 47.10M437.61 47.10Q436.69 47.10 436.07 46.55Q435.46 45.99 435.46 44.92L435.46 41.62L434.38 41.62L434.38 40.45L435.46 40.45L435.46 38.82L436.89 38.82L436.89 40.45L438.47 40.45L438.47 41.62L436.89 41.62L436.89 44.80Q436.89 45.32 437.13 45.59Q437.38 45.86 437.80 45.86Q437.98 45.86 438.14 45.82Q438.30 45.78 438.47 45.73L438.58 46.94Q438.37 47.03 438.12 47.06Q437.86 47.10 437.61 47.10" fill="#f6f5ee"/>
  <rect x="630" y="20" width="140" height="44" rx="2" fill="#ffffff"/>
  <path d="M653.26 47L651.72 47L651.72 37.90L653.26 37.90L653.26 47M657.81 47.10Q656.83 47.10 656.11 46.68Q655.39 46.26 654.99 45.50Q654.60 44.74 654.60 43.72Q654.60 42.70 654.99 41.94Q655.39 41.19 656.11 40.77Q656.83 40.34 657.81 40.34Q658.50 40.34 659.08 40.62Q659.65 40.90 659.93 41.36L659.93 37.80L661.37 37.80L661.37 47L659.93 47L659.93 46.08Q659.65 46.53 659.07 46.82Q658.48 47.10 657.81 47.10M657.99 45.88Q658.85 45.88 659.39 45.28Q659.93 44.67 659.93 43.72Q659.93 42.76 659.39 42.16Q658.85 41.57 657.99 41.57Q657.13 41.57 656.59 42.16Q656.04 42.76 656.04 43.72Q656.04 44.67 656.59 45.28Q657.13 45.88 657.99 45.88M665.88 47.10Q664.89 47.10 664.15 46.67Q663.40 46.23 662.98 45.47Q662.57 44.71 662.57 43.72Q662.57 42.74 662.98 41.98Q663.40 41.22 664.14 40.78Q664.88 40.34 665.83 40.34Q666.87 40.34 667.61 40.83Q668.35 41.32 668.70 42.14Q669.05 42.97 668.92 43.98L664 43.98Q664.07 44.85 664.57 45.38Q665.08 45.91 665.88 45.91Q666.49 45.91 666.96 45.59Q667.43 45.27 667.55 44.79L668.87 45.14Q668.62 46.01 667.81 46.56Q667 47.10 665.88 47.10M664.07 42.91L667.45 42.91Q667.44 42.26 666.99 41.87Q666.54 41.49 665.83 41.49Q665.17 41.49 664.70 41.86Q664.24 42.23 664.07 42.91M671.59 47L670.17 47L670.17 40.45L671.59 40.45L671.59 41.42Q671.87 40.99 672.45 40.67Q673.02 40.34 673.80 40.34Q674.50 40.34 675.05 40.63Q675.61 40.92 675.92 41.46Q676.23 41.99 676.23 42.75L676.23 47L674.81 47L674.81 43.06Q674.81 42.36 674.44 41.98Q674.06 41.59 673.43 41.59Q672.58 41.59 672.08 42.28Q671.59 42.97 671.59 44.17L671.59 47M680.34 47.10Q679.41 47.10 678.80 46.55Q678.18 45.99 678.18 44.92L678.18 41.62L677.10 41.62L677.10 40.45L678.18 40.45L678.18 38.82L679.61 38.82L679.61 40.45L681.20 40.45L681.20 41.62L679.61 41.62L679.61 44.80Q679.61 45.32 679.86 45.59Q680.10 45.86 680.52 45.86Q680.70 45.86 680.86 45.82Q681.03 45.78 681.20 45.73L681.30 46.94Q681.09 47.03 680.84 47.06Q680.58 47.10 680.34 47.10M683.72 47L682.30 47L682.30 40.45L683.72 40.45L683.72 47M683.02 39.46Q682.61 39.46 682.34 39.20Q682.07 38.94 682.07 38.54Q682.07 38.13 682.34 37.87Q682.61 37.61 683.02 37.61Q683.43 37.61 683.70 37.87Q683.98 38.13 683.98 38.54Q683.98 38.94 683.70 39.20Q683.43 39.46 683.02 39.46M687.89 47.10Q686.97 47.10 686.35 46.55Q685.73 45.99 685.73 44.92L685.73 41.62L684.65 41.62L684.65 40.45L685.73 40.45L685.73 38.82L687.16 38.82L687.16 40.45L688.75 40.45L688.75 41.62L687.16 41.62L687.16 44.80Q687.16 45.32 687.41 45.59Q687.66 45.86 688.07 45.86Q688.25 45.86 688.42 45.82Q688.58 45.78 688.75 45.73L688.85 46.94Q688.64 47.03 688.39 47.06Q688.14 47.10 687.89 47.10M692.17 49.37L690.67 49.37L691.70 46.91L689.14 40.45L690.67 40.45L692.44 45.09L694.20 40.45L695.69 40.45L692.17 49.37M700.76 49.37L699.33 49.37L699.33 40.45L700.76 40.45L700.76 41.36Q701.05 40.90 701.63 40.62Q702.22 40.34 702.89 40.34Q703.87 40.34 704.59 40.77Q705.31 41.19 705.71 41.94Q706.10 42.70 706.10 43.72Q706.10 44.74 705.71 45.50Q705.31 46.26 704.59 46.68Q703.87 47.10 702.89 47.10Q702.22 47.10 701.63 46.82Q701.05 46.53 700.76 46.08L700.76 49.37M702.71 45.88Q703.28 45.88 703.72 45.61Q704.15 45.34 704.41 44.85Q704.66 44.36 704.66 43.72Q704.66 42.76 704.11 42.16Q703.56 41.57 702.71 41.57Q701.85 41.57 701.31 42.16Q700.76 42.76 700.76 43.72Q700.76 44.35 701.01 44.84Q701.25 45.32 701.70 45.60Q702.14 45.88 702.71 45.88M708.74 47L707.33 47L707.33 40.45L708.74 40.45L708.74 41.45Q709.03 40.92 709.55 40.63Q710.08 40.34 710.72 40.34Q710.93 40.34 711.15 40.38Q711.37 40.41 711.52 40.47L711.42 41.83Q711.21 41.73 711 41.71Q710.80 41.68 710.59 41.68Q709.83 41.68 709.29 42.37Q708.74 43.05 708.74 44.47L708.74 47M715.40 47.10Q714.42 47.10 713.66 46.67Q712.89 46.23 712.45 45.47Q712.02 44.70 712.02 43.71Q712.02 42.72 712.45 41.96Q712.89 41.20 713.66 40.77Q714.42 40.34 715.40 40.34Q716.39 40.34 717.15 40.77Q717.91 41.20 718.34 41.96Q718.78 42.72 718.78 43.71Q718.78 44.70 718.34 45.47Q717.91 46.23 717.15 46.67Q716.39 47.10 715.40 47.10M715.40 45.88Q716.26 45.88 716.80 45.28Q717.34 44.67 717.34 43.71Q717.34 42.76 716.80 42.16Q716.26 41.57 715.40 41.57Q714.55 41.57 714.01 42.16Q713.46 42.75 713.46 43.71Q713.46 44.67 714.01 45.28Q714.55 45.88 715.40 45.88M723.24 47L721.86 47L719.26 40.45L720.81 40.45L722.57 45.12L724.34 40.45L725.84 40.45L723.24 47M728.11 47L726.70 47L726.70 40.45L728.11 40.45L728.11 47M727.41 39.46Q727.01 39.46 726.73 39.20Q726.46 38.94 726.46 38.54Q726.46 38.13 726.73 37.87Q727.01 37.61 727.41 37.61Q727.83 37.61 728.10 37.87Q728.37 38.13 728.37 38.54Q728.37 38.94 728.10 39.20Q727.83 39.46 727.41 39.46M732.55 47.10Q731.57 47.10 730.85 46.68Q730.13 46.26 729.73 45.50Q729.33 44.74 729.33 43.72Q729.33 42.70 729.73 41.94Q730.13 41.19 730.85 40.77Q731.57 40.34 732.55 40.34Q733.23 40.34 733.81 40.62Q734.39 40.90 734.66 41.36L734.66 37.80L736.11 37.80L736.11 47L734.66 47L734.66 46.08Q734.39 46.53 733.81 46.82Q733.22 47.10 732.55 47.10M732.73 45.88Q733.59 45.88 734.13 45.28Q734.66 44.67 734.66 43.72Q734.66 42.76 734.13 42.16Q733.59 41.57 732.73 41.57Q731.87 41.57 731.32 42.16Q730.78 42.76 730.78 43.72Q730.78 44.67 731.32 45.28Q731.87 45.88 732.73 45.88M740.62 47.10Q739.63 47.10 738.88 46.67Q738.14 46.23 737.72 45.47Q737.30 44.71 737.30 43.72Q737.30 42.74 737.72 41.98Q738.14 41.22 738.88 40.78Q739.62 40.34 740.57 40.34Q741.61 40.34 742.35 40.83Q743.09 41.32 743.44 42.14Q743.79 42.97 743.66 43.98L738.73 43.98Q738.81 44.85 739.31 45.38Q739.81 45.91 740.62 45.91Q741.23 45.91 741.70 45.59Q742.17 45.27 742.28 44.79L743.61 45.14Q743.36 46.01 742.55 46.56Q741.74 47.10 740.62 47.10M738.81 42.91L742.19 42.91Q742.18 42.26 741.73 41.87Q741.28 41.49 740.57 41.49Q739.90 41.49 739.44 41.86Q738.98 42.23 738.81 42.91M746.33 47L744.91 47L744.91 40.45L746.33 40.45L746.33 41.45Q746.61 40.92 747.14 40.63Q747.66 40.34 748.30 40.34Q748.51 40.34 748.73 40.38Q748.95 40.41 749.11 40.47L749 41.83Q748.80 41.73 748.59 41.71Q748.38 41.68 748.17 41.68Q747.42 41.68 746.87 42.37Q746.33 43.05 746.33 44.47" fill="#262d1e"/>

  
  <g stroke="#686c62" stroke-opacity="0.8" stroke-width="1.5" fill="none">
    <line x1="140" y1="104" x2="420" y2="104" marker-end="url(#arr)"/>
    <line x1="420" y1="144" x2="700" y2="144" marker-end="url(#arr)"/>
    <line x1="140" y1="184" x2="700" y2="184" marker-end="url(#arr)"/>
    <line x1="700" y1="224" x2="420" y2="224" stroke-dasharray="4 4" marker-end="url(#arr)"/>
    <path d="M420 256 H478 V274 H422" marker-end="url(#arr)"/>
    <line x1="420" y1="306" x2="140" y2="306" stroke-dasharray="4 4" marker-end="url(#arr)"/>
  </g>
  
  
    <path d="M210.24 98L204.67 98L204.67 89.25L205.82 89.25L205.82 97.01L210.24 97.01L210.24 98M214.06 98.10Q213.14 98.10 212.42 97.68Q211.70 97.26 211.29 96.53Q210.87 95.80 210.87 94.85Q210.87 93.90 211.29 93.17Q211.70 92.44 212.42 92.02Q213.14 91.60 214.06 91.60Q214.99 91.60 215.71 92.02Q216.42 92.44 216.84 93.17Q217.25 93.90 217.25 94.85Q217.25 95.80 216.84 96.53Q216.42 97.26 215.71 97.68Q214.99 98.10 214.06 98.10M214.06 97.16Q214.67 97.16 215.15 96.87Q215.62 96.58 215.89 96.05Q216.16 95.53 216.16 94.85Q216.16 94.16 215.89 93.64Q215.62 93.11 215.15 92.82Q214.67 92.53 214.06 92.53Q213.45 92.53 212.97 92.82Q212.50 93.11 212.23 93.64Q211.96 94.16 211.96 94.85Q211.96 95.53 212.23 96.05Q212.50 96.58 212.97 96.87Q213.45 97.16 214.06 97.16M221.20 100.38Q220.52 100.38 219.93 100.14Q219.34 99.91 218.93 99.51Q218.52 99.10 218.39 98.56L219.42 98.34Q219.57 98.89 220.07 99.17Q220.57 99.46 221.22 99.46Q222.10 99.46 222.67 99.01Q223.25 98.56 223.25 97.72L223.25 96.72Q222.97 97.17 222.38 97.45Q221.79 97.72 221.09 97.72Q220.24 97.72 219.58 97.34Q218.92 96.95 218.55 96.26Q218.17 95.58 218.17 94.66Q218.17 93.74 218.54 93.05Q218.91 92.36 219.58 91.98Q220.25 91.60 221.13 91.60Q221.81 91.60 222.39 91.86Q222.97 92.13 223.25 92.58L223.25 91.70L224.32 91.70L224.32 97.63Q224.32 98.49 223.92 99.10Q223.51 99.71 222.81 100.04Q222.10 100.38 221.20 100.38M221.25 96.79Q221.82 96.79 222.28 96.51Q222.74 96.24 223 95.76Q223.26 95.28 223.26 94.66Q223.26 94.03 223 93.54Q222.74 93.06 222.28 92.79Q221.82 92.53 221.25 92.53Q220.67 92.53 220.22 92.79Q219.77 93.06 219.51 93.54Q219.25 94.03 219.25 94.66Q219.25 95.29 219.51 95.77Q219.77 96.25 220.22 96.52Q220.67 96.79 221.25 96.79M227.05 98L225.97 98L225.97 91.70L227.05 91.70L227.05 98M226.51 90.60Q226.19 90.60 225.97 90.39Q225.75 90.17 225.75 89.85Q225.75 89.53 225.97 89.31Q226.19 89.10 226.51 89.10Q226.85 89.10 227.07 89.31Q227.29 89.53 227.29 89.85Q227.29 90.17 227.07 90.39Q226.85 90.60 226.51 90.60M229.80 98L228.74 98L228.74 91.70L229.80 91.70L229.80 92.79Q230.09 92.30 230.67 91.95Q231.25 91.60 232.04 91.60Q232.70 91.60 233.22 91.87Q233.75 92.14 234.06 92.64Q234.36 93.15 234.36 93.88L234.36 98L233.30 98L233.30 94.11Q233.30 93.35 232.90 92.94Q232.50 92.54 231.82 92.54Q230.90 92.54 230.35 93.29Q229.80 94.04 229.80 95.30L229.80 98M241.37 98L240.30 98L238.07 91.70L239.22 91.70L240.86 96.61L242.49 91.70L243.51 91.70L245.15 96.61L246.77 91.70L247.89 91.70L245.65 98L244.60 98L242.99 93.24L241.37 98M249.95 98L248.88 98L248.88 91.70L249.95 91.70L249.95 98M249.41 90.60Q249.09 90.60 248.87 90.39Q248.65 90.17 248.65 89.85Q248.65 89.53 248.87 89.31Q249.09 89.10 249.41 89.10Q249.75 89.10 249.97 89.31Q250.19 89.53 250.19 89.85Q250.19 90.17 249.97 90.39Q249.75 90.60 249.41 90.60M253.86 98.10Q253.05 98.10 252.52 97.60Q251.99 97.10 251.99 96.14L251.99 92.59L250.92 92.59L250.92 91.70L251.99 91.70L251.99 90.10L253.06 90.10L253.06 91.70L254.66 91.70L254.66 92.59L253.06 92.59L253.06 96.05Q253.06 96.60 253.31 96.88Q253.56 97.15 253.99 97.15Q254.31 97.15 254.65 97.03L254.74 97.94Q254.56 98.03 254.32 98.06Q254.07 98.10 253.86 98.10M256.85 98L255.79 98L255.79 89.15L256.85 89.15L256.85 92.79Q257.14 92.30 257.72 91.95Q258.30 91.60 259.09 91.60Q259.75 91.60 260.28 91.87Q260.81 92.14 261.12 92.64Q261.43 93.15 261.43 93.88L261.43 98L260.35 98L260.35 94.11Q260.35 93.35 259.95 92.94Q259.55 92.54 258.88 92.54Q257.95 92.54 257.40 93.29Q256.85 94.04 256.85 95.30L256.85 98M268.85 98.10Q267.51 98.10 266.56 97.41Q265.61 96.71 265.32 95.40L266.36 95.10Q266.56 96.06 267.23 96.59Q267.90 97.11 268.85 97.11Q269.62 97.11 270.18 96.75Q270.74 96.39 270.74 95.60Q270.74 95.11 270.47 94.82Q270.20 94.53 269.75 94.34Q269.30 94.15 268.76 94.01Q268.22 93.86 267.69 93.69Q267.16 93.53 266.71 93.26Q266.26 93 265.99 92.58Q265.72 92.15 265.72 91.49Q265.72 90.76 266.11 90.24Q266.50 89.72 267.16 89.44Q267.82 89.15 268.62 89.15Q269.81 89.15 270.66 89.73Q271.50 90.31 271.74 91.31L270.72 91.67Q270.52 90.91 269.97 90.53Q269.41 90.14 268.61 90.14Q267.82 90.14 267.35 90.49Q266.87 90.85 266.87 91.44Q266.87 91.88 267.14 92.13Q267.41 92.39 267.86 92.56Q268.31 92.72 268.84 92.86Q269.37 92.99 269.91 93.16Q270.44 93.34 270.89 93.62Q271.34 93.90 271.61 94.36Q271.87 94.81 271.87 95.53Q271.87 96.39 271.46 96.96Q271.05 97.54 270.36 97.82Q269.67 98.10 268.85 98.10M276.24 98.10Q274.90 98.10 273.95 97.41Q273 96.71 272.71 95.40L273.75 95.10Q273.95 96.06 274.62 96.59Q275.29 97.11 276.24 97.11Q277.01 97.11 277.57 96.75Q278.12 96.39 278.12 95.60Q278.12 95.11 277.86 94.82Q277.59 94.53 277.14 94.34Q276.69 94.15 276.15 94.01Q275.61 93.86 275.08 93.69Q274.55 93.53 274.10 93.26Q273.65 93 273.38 92.58Q273.11 92.15 273.11 91.49Q273.11 90.76 273.50 90.24Q273.89 89.72 274.55 89.44Q275.21 89.15 276.01 89.15Q277.20 89.15 278.04 89.73Q278.89 90.31 279.12 91.31L278.11 91.67Q277.91 90.91 277.36 90.53Q276.80 90.14 276 90.14Q275.21 90.14 274.74 90.49Q274.26 90.85 274.26 91.44Q274.26 91.88 274.53 92.13Q274.80 92.39 275.25 92.56Q275.70 92.72 276.23 92.86Q276.76 92.99 277.29 93.16Q277.82 93.34 278.27 93.62Q278.72 93.90 278.99 94.36Q279.26 94.81 279.26 95.53Q279.26 96.39 278.85 96.96Q278.44 97.54 277.75 97.82Q277.06 98.10 276.24 98.10M284.57 98.10Q283.64 98.10 282.85 97.77Q282.06 97.44 281.47 96.83Q280.89 96.22 280.57 95.41Q280.25 94.60 280.25 93.63Q280.25 92.65 280.57 91.84Q280.89 91.03 281.47 90.42Q282.06 89.81 282.85 89.48Q283.64 89.15 284.57 89.15Q285.50 89.15 286.29 89.48Q287.07 89.81 287.66 90.42Q288.24 91.03 288.56 91.84Q288.89 92.65 288.89 93.63Q288.89 94.60 288.56 95.41Q288.24 96.22 287.66 96.83Q287.07 97.44 286.29 97.77Q285.50 98.10 284.57 98.10M284.57 97.11Q285.50 97.11 286.21 96.66Q286.92 96.21 287.34 95.42Q287.75 94.63 287.75 93.63Q287.75 92.61 287.34 91.83Q286.92 91.04 286.21 90.59Q285.50 90.14 284.57 90.14Q283.66 90.14 282.94 90.59Q282.22 91.04 281.81 91.83Q281.40 92.61 281.40 93.63Q281.40 94.64 281.81 95.42Q282.22 96.21 282.94 96.66Q283.66 97.11 284.57 97.11M296.21 96.61L295.31 96.61L295.31 94.04L292.72 94.04L292.72 93.14L295.31 93.14L295.31 90.56L296.21 90.56L296.21 93.14L298.80 93.14L298.80 94.04L296.21 94.04L296.21 96.61M305.76 98.10Q304.84 98.10 304.12 97.68Q303.40 97.26 302.99 96.53Q302.57 95.80 302.57 94.85Q302.57 93.90 302.99 93.17Q303.40 92.44 304.12 92.02Q304.84 91.60 305.76 91.60Q306.69 91.60 307.41 92.02Q308.12 92.44 308.54 93.17Q308.95 93.90 308.95 94.85Q308.95 95.80 308.54 96.53Q308.12 97.26 307.41 97.68Q306.69 98.10 305.76 98.10M305.76 97.16Q306.37 97.16 306.85 96.87Q307.32 96.58 307.59 96.05Q307.86 95.53 307.86 94.85Q307.86 94.16 307.59 93.64Q307.32 93.11 306.85 92.82Q306.37 92.53 305.76 92.53Q305.15 92.53 304.67 92.82Q304.20 93.11 303.93 93.64Q303.66 94.16 303.66 94.85Q303.66 95.53 303.93 96.05Q304.20 96.58 304.67 96.87Q305.15 97.16 305.76 97.16M311.31 98L310.25 98L310.25 91.70L311.31 91.70L311.31 92.81Q311.60 92.21 312.13 91.91Q312.66 91.60 313.27 91.60Q313.47 91.60 313.69 91.63Q313.90 91.66 314.05 91.74L313.97 92.75Q313.76 92.65 313.56 92.63Q313.36 92.61 313.16 92.61Q312.37 92.61 311.84 93.35Q311.31 94.09 311.31 95.47L311.31 98M317.64 100.38Q316.96 100.38 316.37 100.14Q315.77 99.91 315.37 99.51Q314.96 99.10 314.82 98.56L315.86 98.34Q316.01 98.89 316.51 99.17Q317.01 99.46 317.66 99.46Q318.54 99.46 319.11 99.01Q319.69 98.56 319.69 97.72L319.69 96.72Q319.41 97.17 318.82 97.45Q318.22 97.72 317.52 97.72Q316.67 97.72 316.02 97.34Q315.36 96.95 314.99 96.26Q314.61 95.58 314.61 94.66Q314.61 93.74 314.98 93.05Q315.35 92.36 316.02 91.98Q316.69 91.60 317.56 91.60Q318.25 91.60 318.83 91.86Q319.41 92.13 319.69 92.58L319.69 91.70L320.76 91.70L320.76 97.63Q320.76 98.49 320.36 99.10Q319.95 99.71 319.24 100.04Q318.54 100.38 317.64 100.38M317.69 96.79Q318.26 96.79 318.72 96.51Q319.17 96.24 319.44 95.76Q319.70 95.28 319.70 94.66Q319.70 94.03 319.44 93.54Q319.17 93.06 318.72 92.79Q318.26 92.53 317.69 92.53Q317.11 92.53 316.66 92.79Q316.21 93.06 315.95 93.54Q315.69 94.03 315.69 94.66Q315.69 95.29 315.95 95.77Q316.21 96.25 316.66 96.52Q317.11 96.79 317.69 96.79M326.26 98L325.20 98L325.20 91.70L326.26 91.70L326.26 92.79Q326.55 92.30 327.13 91.95Q327.71 91.60 328.50 91.60Q329.16 91.60 329.69 91.87Q330.21 92.14 330.52 92.64Q330.82 93.15 330.82 93.88L330.82 98L329.76 98L329.76 94.11Q329.76 93.35 329.36 92.94Q328.96 92.54 328.29 92.54Q327.36 92.54 326.81 93.29Q326.26 94.04 326.26 95.30L326.26 98M334.37 98.10Q333.34 98.10 332.74 97.59Q332.15 97.09 332.15 96.30Q332.15 95.35 332.84 94.85Q333.52 94.35 335.02 94.20L336.37 94.06L336.37 93.84Q336.37 93.21 335.96 92.86Q335.54 92.51 334.85 92.51Q334.20 92.51 333.79 92.84Q333.37 93.17 333.27 93.84L332.26 93.66Q332.41 92.76 333.09 92.18Q333.77 91.60 334.85 91.60Q335.61 91.60 336.19 91.88Q336.77 92.16 337.11 92.69Q337.45 93.21 337.45 93.95L337.45 98L336.37 98L336.37 96.95Q336.25 97.25 335.95 97.51Q335.65 97.78 335.24 97.94Q334.82 98.10 334.37 98.10M336.37 95.19L336.37 94.89L335.09 95.04Q334.10 95.15 333.66 95.42Q333.22 95.69 333.22 96.26Q333.22 96.72 333.56 96.98Q333.90 97.24 334.46 97.24Q335.02 97.24 335.46 96.96Q335.89 96.67 336.13 96.21Q336.37 95.74 336.37 95.19M340.11 98L339.05 98L339.05 91.70L340.11 91.70L340.11 92.79Q340.39 92.31 340.91 91.96Q341.42 91.60 342.15 91.60Q342.91 91.60 343.45 91.97Q343.99 92.35 344.16 92.95Q344.52 92.35 345.09 91.97Q345.65 91.60 346.36 91.60Q347.36 91.60 347.98 92.21Q348.60 92.81 348.60 93.81L348.60 98L347.54 98L347.54 94.05Q347.54 93.35 347.18 92.94Q346.82 92.54 346.19 92.54Q345.62 92.54 345.21 92.86Q344.80 93.19 344.57 93.72Q344.35 94.26 344.35 94.92L344.35 98L343.29 98L343.29 94.05Q343.29 93.35 342.94 92.94Q342.59 92.54 341.95 92.54Q341.39 92.54 340.97 92.86Q340.56 93.19 340.34 93.72Q340.11 94.26 340.11 94.92L340.11 98M352.95 98.10Q352.02 98.10 351.32 97.68Q350.61 97.26 350.22 96.53Q349.82 95.80 349.82 94.85Q349.82 93.90 350.22 93.17Q350.62 92.44 351.32 92.02Q352.01 91.60 352.91 91.60Q353.87 91.60 354.56 92.06Q355.25 92.51 355.59 93.28Q355.92 94.04 355.80 94.99L350.91 94.99Q350.96 95.96 351.51 96.57Q352.06 97.17 352.95 97.17Q353.62 97.17 354.14 96.81Q354.65 96.45 354.77 95.94L355.75 96.19Q355.54 97.04 354.77 97.57Q354.01 98.10 352.95 98.10M350.99 94.14L354.71 94.14Q354.70 93.39 354.20 92.95Q353.70 92.51 352.91 92.51Q352.17 92.51 351.66 92.94Q351.15 93.38 350.99 94.14" fill="#262d1e"/>
    <path d="M509.96 138.10Q508.62 138.10 507.67 137.41Q506.72 136.71 506.43 135.40L507.47 135.10Q507.67 136.06 508.34 136.59Q509.01 137.11 509.96 137.11Q510.73 137.11 511.29 136.75Q511.84 136.39 511.84 135.60Q511.84 135.11 511.57 134.82Q511.31 134.53 510.86 134.34Q510.41 134.15 509.87 134.01Q509.33 133.86 508.80 133.69Q508.27 133.53 507.82 133.26Q507.37 133 507.10 132.57Q506.83 132.15 506.83 131.49Q506.83 130.76 507.22 130.24Q507.61 129.72 508.27 129.44Q508.93 129.15 509.73 129.15Q510.92 129.15 511.76 129.73Q512.61 130.31 512.84 131.31L511.83 131.68Q511.63 130.91 511.07 130.53Q510.52 130.14 509.72 130.14Q508.93 130.14 508.46 130.49Q507.98 130.85 507.98 131.44Q507.98 131.88 508.25 132.13Q508.52 132.39 508.97 132.56Q509.42 132.72 509.95 132.86Q510.48 132.99 511.01 133.16Q511.54 133.34 511.99 133.62Q512.44 133.90 512.71 134.36Q512.98 134.81 512.98 135.53Q512.98 136.39 512.57 136.96Q512.16 137.54 511.47 137.82Q510.78 138.10 509.96 138.10M514.72 138L513.53 138L517.02 129.25L518.33 129.25L521.81 138L520.58 138L519.68 135.75L515.62 135.75L514.72 138M517.66 130.56L515.99 134.76L519.32 134.76L517.66 130.56M523.98 138L522.83 138L522.83 129.25L524.48 129.25L526.93 135.05Q527.22 135.74 527.34 136.14Q527.47 136.55 527.47 136.55Q527.47 136.55 527.61 136.14Q527.76 135.74 528.03 135.05L530.48 129.25L532.08 129.25L532.08 138L530.93 138L530.93 132.34Q530.93 131.59 530.95 131.15Q530.97 130.71 530.97 130.71Q530.97 130.71 530.82 131.12Q530.67 131.53 530.38 132.22L527.96 138L526.97 138L524.54 132.22Q524.26 131.54 524.11 131.13Q523.96 130.72 523.96 130.72Q523.96 130.72 523.97 131.16Q523.98 131.59 523.98 132.34L523.98 138M539.57 138L534.01 138L534.01 129.25L535.16 129.25L535.16 137.01L539.57 137.01L539.57 138M545.29 138.10Q544.26 138.10 543.66 137.59Q543.07 137.09 543.07 136.30Q543.07 135.35 543.76 134.85Q544.44 134.35 545.94 134.20L547.29 134.06L547.29 133.84Q547.29 133.21 546.87 132.86Q546.46 132.51 545.77 132.51Q545.12 132.51 544.71 132.84Q544.29 133.18 544.19 133.84L543.18 133.66Q543.33 132.76 544.01 132.18Q544.69 131.60 545.77 131.60Q546.53 131.60 547.11 131.88Q547.69 132.16 548.03 132.69Q548.37 133.21 548.37 133.95L548.37 138L547.29 138L547.29 136.95Q547.17 137.25 546.87 137.51Q546.57 137.78 546.16 137.94Q545.74 138.10 545.29 138.10M547.29 135.19L547.29 134.89L546.01 135.04Q545.02 135.15 544.58 135.42Q544.14 135.69 544.14 136.26Q544.14 136.72 544.48 136.98Q544.82 137.24 545.38 137.24Q545.94 137.24 546.37 136.96Q546.81 136.68 547.05 136.21Q547.29 135.74 547.29 135.19M552.23 138.10Q551.57 138.10 551.04 137.83Q550.51 137.56 550.20 137.06Q549.89 136.56 549.89 135.84L549.89 131.70L550.97 131.70L550.97 135.59Q550.97 136.35 551.37 136.76Q551.77 137.16 552.43 137.16Q553.37 137.16 553.92 136.41Q554.47 135.66 554.47 134.40L554.47 131.70L555.53 131.70L555.53 138L554.47 138L554.47 136.91Q554.17 137.40 553.59 137.75Q553.02 138.10 552.23 138.10M559.46 138.10Q558.64 138.10 558.11 137.60Q557.58 137.10 557.58 136.14L557.58 132.59L556.52 132.59L556.52 131.70L557.58 131.70L557.58 130.10L558.66 130.10L558.66 131.70L560.26 131.70L560.26 132.59L558.66 132.59L558.66 136.05Q558.66 136.60 558.91 136.88Q559.16 137.15 559.58 137.15Q559.91 137.15 560.24 137.03L560.33 137.94Q560.16 138.03 559.91 138.06Q559.67 138.10 559.46 138.10M562.44 138L561.38 138L561.38 129.15L562.44 129.15L562.44 132.79Q562.73 132.30 563.31 131.95Q563.89 131.60 564.68 131.60Q565.34 131.60 565.87 131.87Q566.41 132.14 566.71 132.64Q567.02 133.15 567.02 133.88L567.02 138L565.94 138L565.94 134.11Q565.94 133.35 565.54 132.94Q565.14 132.54 564.47 132.54Q563.54 132.54 562.99 133.29Q562.44 134.04 562.44 135.30L562.44 138M572.48 138L571.42 138L571.42 131.70L572.48 131.70L572.48 132.81Q572.77 132.21 573.30 131.91Q573.83 131.60 574.44 131.60Q574.64 131.60 574.86 131.63Q575.07 131.66 575.22 131.74L575.14 132.75Q574.93 132.65 574.73 132.63Q574.53 132.61 574.33 132.61Q573.54 132.61 573.01 133.35Q572.48 134.09 572.48 135.47L572.48 138M578.88 138.10Q577.96 138.10 577.25 137.68Q576.54 137.26 576.15 136.53Q575.76 135.80 575.76 134.85Q575.76 133.90 576.16 133.17Q576.56 132.44 577.25 132.02Q577.94 131.60 578.84 131.60Q579.81 131.60 580.49 132.06Q581.18 132.51 581.52 133.28Q581.86 134.04 581.73 134.99L576.84 134.99Q576.89 135.96 577.44 136.57Q577.99 137.18 578.88 137.18Q579.56 137.18 580.07 136.81Q580.58 136.45 580.71 135.94L581.68 136.19Q581.47 137.04 580.71 137.57Q579.94 138.10 578.88 138.10M576.92 134.14L580.64 134.14Q580.63 133.39 580.13 132.95Q579.63 132.51 578.84 132.51Q578.11 132.51 577.59 132.94Q577.08 133.38 576.92 134.14M589.06 140.28L587.98 140.28L587.98 136.96Q587.71 137.47 587.11 137.79Q586.51 138.10 585.81 138.10Q584.87 138.10 584.16 137.69Q583.46 137.29 583.06 136.56Q582.67 135.82 582.67 134.85Q582.67 133.88 583.06 133.14Q583.46 132.41 584.16 132.01Q584.87 131.60 585.81 131.60Q586.51 131.60 587.11 131.91Q587.71 132.21 587.98 132.72L587.98 131.70L589.06 131.70L589.06 140.28M585.87 137.18Q586.49 137.18 586.97 136.88Q587.44 136.57 587.71 136.05Q587.98 135.53 587.98 134.85Q587.98 134.16 587.71 133.64Q587.44 133.11 586.97 132.82Q586.49 132.53 585.87 132.53Q585.27 132.53 584.79 132.82Q584.31 133.11 584.03 133.64Q583.76 134.16 583.76 134.85Q583.76 135.54 584.03 136.06Q584.31 136.59 584.79 136.88Q585.27 137.18 585.87 137.18M592.99 138.10Q592.33 138.10 591.80 137.83Q591.27 137.56 590.96 137.06Q590.66 136.56 590.66 135.84L590.66 131.70L591.73 131.70L591.73 135.59Q591.73 136.35 592.13 136.76Q592.53 137.16 593.19 137.16Q594.13 137.16 594.68 136.41Q595.23 135.66 595.23 134.40L595.23 131.70L596.29 131.70L596.29 138L595.23 138L595.23 136.91Q594.93 137.40 594.36 137.75Q593.78 138.10 592.99 138.10M600.72 138.10Q599.79 138.10 599.09 137.68Q598.38 137.26 597.99 136.53Q597.59 135.80 597.59 134.85Q597.59 133.90 597.99 133.17Q598.39 132.44 599.09 132.02Q599.78 131.60 600.68 131.60Q601.64 131.60 602.33 132.06Q603.02 132.51 603.36 133.28Q603.69 134.04 603.57 134.99L598.68 134.99Q598.73 135.96 599.28 136.57Q599.83 137.18 600.72 137.18Q601.39 137.18 601.91 136.81Q602.42 136.45 602.54 135.94L603.52 136.19Q603.31 137.04 602.54 137.57Q601.78 138.10 600.72 138.10M598.76 134.14L602.48 134.14Q602.47 133.39 601.97 132.95Q601.47 132.51 600.68 132.51Q599.94 132.51 599.43 132.94Q598.92 133.38 598.76 134.14M606.97 138.10Q605.91 138.10 605.23 137.57Q604.56 137.04 604.36 136.24L605.33 135.93Q605.47 136.54 605.88 136.86Q606.28 137.19 606.97 137.19Q607.56 137.19 607.91 136.94Q608.27 136.69 608.27 136.20Q608.27 135.81 608.01 135.61Q607.74 135.40 607.33 135.28Q606.92 135.15 606.46 135.04Q606.01 134.93 605.59 134.74Q605.18 134.55 604.92 134.21Q604.66 133.88 604.66 133.30Q604.66 132.81 604.92 132.43Q605.19 132.05 605.68 131.82Q606.17 131.60 606.79 131.60Q607.72 131.60 608.38 132.02Q609.03 132.44 609.23 133.16L608.26 133.51Q608.11 132.96 607.73 132.74Q607.34 132.51 606.79 132.51Q606.33 132.51 606.02 132.70Q605.71 132.89 605.71 133.26Q605.71 133.61 605.97 133.79Q606.23 133.97 606.64 134.08Q607.06 134.19 607.52 134.30Q607.99 134.41 608.41 134.61Q608.82 134.81 609.08 135.18Q609.34 135.55 609.34 136.18Q609.34 136.74 609.03 137.18Q608.72 137.61 608.19 137.86Q607.66 138.10 606.97 138.10M612.84 138.10Q612.03 138.10 611.50 137.60Q610.97 137.10 610.97 136.14L610.97 132.59L609.91 132.59L609.91 131.70L610.97 131.70L610.97 130.10L612.04 130.10L612.04 131.70L613.64 131.70L613.64 132.59L612.04 132.59L612.04 136.05Q612.04 136.60 612.29 136.88Q612.54 137.15 612.97 137.15Q613.29 137.15 613.63 137.03L613.72 137.94Q613.54 138.03 613.30 138.06Q613.06 138.10 612.84 138.10" fill="#262d1e"/>
    <path d="M338.74 178.10Q337.70 178.10 337.11 177.59Q336.51 177.09 336.51 176.30Q336.51 175.35 337.20 174.85Q337.89 174.35 339.39 174.20L340.74 174.06L340.74 173.84Q340.74 173.21 340.32 172.86Q339.90 172.51 339.21 172.51Q338.56 172.51 338.15 172.84Q337.74 173.18 337.64 173.84L336.63 173.66Q336.78 172.76 337.46 172.18Q338.14 171.60 339.21 171.60Q339.98 171.60 340.56 171.88Q341.14 172.16 341.48 172.69Q341.81 173.21 341.81 173.95L341.81 178L340.74 178L340.74 176.95Q340.61 177.25 340.31 177.51Q340.01 177.78 339.60 177.94Q339.19 178.10 338.74 178.10M340.74 175.19L340.74 174.89L339.45 175.04Q338.46 175.15 338.03 175.42Q337.59 175.69 337.59 176.26Q337.59 176.72 337.93 176.98Q338.26 177.24 338.83 177.24Q339.39 177.24 339.82 176.96Q340.25 176.68 340.49 176.21Q340.74 175.74 340.74 175.19M345.68 178.10Q345.01 178.10 344.48 177.83Q343.95 177.56 343.64 177.06Q343.34 176.56 343.34 175.84L343.34 171.70L344.41 171.70L344.41 175.59Q344.41 176.35 344.81 176.76Q345.21 177.16 345.88 177.16Q346.81 177.16 347.36 176.41Q347.91 175.66 347.91 174.40L347.91 171.70L348.98 171.70L348.98 178L347.91 178L347.91 176.91Q347.61 177.40 347.04 177.75Q346.46 178.10 345.68 178.10M352.90 178.10Q352.09 178.10 351.56 177.60Q351.02 177.10 351.02 176.14L351.02 172.59L349.96 172.59L349.96 171.70L351.02 171.70L351.02 170.10L352.10 170.10L352.10 171.70L353.70 171.70L353.70 172.59L352.10 172.59L352.10 176.05Q352.10 176.60 352.35 176.88Q352.60 177.15 353.02 177.15Q353.35 177.15 353.69 177.03L353.77 177.94Q353.60 178.03 353.36 178.06Q353.11 178.10 352.90 178.10M355.89 178L354.82 178L354.82 169.15L355.89 169.15L355.89 172.79Q356.17 172.30 356.76 171.95Q357.34 171.60 358.12 171.60Q358.79 171.60 359.32 171.87Q359.85 172.14 360.16 172.64Q360.46 173.15 360.46 173.88L360.46 178L359.39 178L359.39 174.11Q359.39 173.35 358.99 172.94Q358.59 172.54 357.91 172.54Q356.99 172.54 356.44 173.29Q355.89 174.04 355.89 175.30L355.89 178M364.81 178.10Q363.89 178.10 363.18 177.68Q362.47 177.26 362.08 176.53Q361.69 175.80 361.69 174.85Q361.69 173.90 362.09 173.17Q362.49 172.44 363.18 172.02Q363.87 171.60 364.77 171.60Q365.74 171.60 366.42 172.06Q367.11 172.51 367.45 173.28Q367.79 174.04 367.66 174.99L362.77 174.99Q362.82 175.96 363.37 176.57Q363.92 177.18 364.81 177.18Q365.49 177.18 366 176.81Q366.51 176.45 366.64 175.94L367.61 176.19Q367.40 177.04 366.64 177.57Q365.87 178.10 364.81 178.10M362.85 174.14L366.57 174.14Q366.56 173.39 366.06 172.95Q365.56 172.51 364.77 172.51Q364.04 172.51 363.52 172.94Q363.01 173.38 362.85 174.14M370.06 178L369 178L369 171.70L370.06 171.70L370.06 172.79Q370.35 172.30 370.93 171.95Q371.51 171.60 372.30 171.60Q372.96 171.60 373.49 171.87Q374.01 172.14 374.32 172.64Q374.63 173.15 374.63 173.88L374.63 178L373.56 178L373.56 174.11Q373.56 173.35 373.16 172.94Q372.76 172.54 372.09 172.54Q371.16 172.54 370.61 173.29Q370.06 174.04 370.06 175.30L370.06 178M378.49 178.10Q377.67 178.10 377.14 177.60Q376.61 177.10 376.61 176.14L376.61 172.59L375.55 172.59L375.55 171.70L376.61 171.70L376.61 170.10L377.69 170.10L377.69 171.70L379.29 171.70L379.29 172.59L377.69 172.59L377.69 176.05Q377.69 176.60 377.94 176.88Q378.19 177.15 378.61 177.15Q378.94 177.15 379.27 177.03L379.36 177.94Q379.19 178.03 378.94 178.06Q378.70 178.10 378.49 178.10M381.47 178L380.40 178L380.40 171.70L381.47 171.70L381.47 178M380.94 170.60Q380.61 170.60 380.39 170.39Q380.17 170.18 380.17 169.85Q380.17 169.53 380.39 169.31Q380.61 169.10 380.94 169.10Q381.27 169.10 381.49 169.31Q381.71 169.53 381.71 169.85Q381.71 170.18 381.49 170.39Q381.27 170.60 380.94 170.60M385.87 178.10Q384.97 178.10 384.27 177.68Q383.57 177.25 383.17 176.51Q382.76 175.78 382.76 174.85Q382.76 173.91 383.17 173.18Q383.57 172.44 384.27 172.02Q384.97 171.60 385.87 171.60Q386.99 171.60 387.77 172.17Q388.55 172.74 388.71 173.71L387.65 173.88Q387.52 173.25 387.06 172.89Q386.59 172.53 385.87 172.53Q385.30 172.53 384.84 172.82Q384.39 173.13 384.12 173.64Q383.85 174.16 383.85 174.85Q383.85 175.53 384.12 176.04Q384.39 176.56 384.84 176.86Q385.30 177.16 385.87 177.16Q386.62 177.16 387.11 176.79Q387.60 176.43 387.69 175.81L388.77 175.94Q388.69 176.57 388.29 177.06Q387.90 177.55 387.28 177.82Q386.66 178.10 385.87 178.10M391.91 178.10Q390.87 178.10 390.28 177.59Q389.69 177.09 389.69 176.30Q389.69 175.35 390.37 174.85Q391.06 174.35 392.56 174.20L393.91 174.06L393.91 173.84Q393.91 173.21 393.49 172.86Q393.07 172.51 392.39 172.51Q391.74 172.51 391.32 172.84Q390.91 173.18 390.81 173.84L389.80 173.66Q389.95 172.76 390.63 172.18Q391.31 171.60 392.39 171.60Q393.15 171.60 393.73 171.88Q394.31 172.16 394.65 172.69Q394.99 173.21 394.99 173.95L394.99 178L393.91 178L393.91 176.95Q393.79 177.25 393.49 177.51Q393.19 177.78 392.77 177.94Q392.36 178.10 391.91 178.10M393.91 175.19L393.91 174.89L392.62 175.04Q391.64 175.15 391.20 175.42Q390.76 175.69 390.76 176.26Q390.76 176.72 391.10 176.98Q391.44 177.24 392 177.24Q392.56 177.24 392.99 176.96Q393.42 176.68 393.67 176.21Q393.91 175.74 393.91 175.19M398.81 178.10Q398 178.10 397.47 177.60Q396.94 177.10 396.94 176.14L396.94 172.59L395.87 172.59L395.87 171.70L396.94 171.70L396.94 170.10L398.01 170.10L398.01 171.70L399.61 171.70L399.61 172.59L398.01 172.59L398.01 176.05Q398.01 176.60 398.26 176.88Q398.51 177.15 398.94 177.15Q399.26 177.15 399.60 177.03L399.69 177.94Q399.51 178.03 399.27 178.06Q399.02 178.10 398.81 178.10M403.46 178.10Q402.54 178.10 401.83 177.68Q401.12 177.26 400.73 176.53Q400.34 175.80 400.34 174.85Q400.34 173.90 400.74 173.17Q401.14 172.44 401.83 172.02Q402.52 171.60 403.42 171.60Q404.39 171.60 405.07 172.06Q405.76 172.51 406.10 173.28Q406.44 174.04 406.31 174.99L401.42 174.99Q401.47 175.96 402.02 176.57Q402.57 177.18 403.46 177.18Q404.14 177.18 404.65 176.81Q405.16 176.45 405.29 175.94L406.26 176.19Q406.05 177.04 405.29 177.57Q404.52 178.10 403.46 178.10M401.50 174.14L405.22 174.14Q405.21 173.39 404.71 172.95Q404.21 172.51 403.42 172.51Q402.69 172.51 402.17 172.94Q401.66 173.38 401.50 174.14M412.81 179.41L412.07 179.94Q411.12 178.71 410.61 177.21Q410.09 175.70 410.09 174.07Q410.09 172.41 410.61 170.92Q411.12 169.43 412.07 168.21L412.81 168.75Q411.96 170 411.53 171.31Q411.10 172.63 411.10 174.07Q411.10 175.55 411.53 176.85Q411.96 178.15 412.81 179.41M415.22 178L414.07 178L414.07 169.25L415.72 169.25L418.17 175.05Q418.46 175.74 418.59 176.14Q418.71 176.55 418.71 176.55Q418.71 176.55 418.86 176.14Q419 175.74 419.27 175.05L421.72 169.25L423.32 169.25L423.32 178L422.17 178L422.17 172.34Q422.17 171.59 422.19 171.15Q422.21 170.71 422.21 170.71Q422.21 170.71 422.06 171.12Q421.91 171.53 421.62 172.22L419.20 178L418.21 178L415.79 172.22Q415.50 171.54 415.35 171.13Q415.20 170.72 415.20 170.72Q415.20 170.72 415.21 171.16Q415.22 171.59 415.22 172.34L415.22 178M426.40 178L425.25 178L425.25 169.25L430.87 169.25L430.87 170.24L426.40 170.24L426.40 172.91L430.07 172.91L430.07 173.90L426.40 173.90L426.40 178M432.31 178L431.12 178L434.61 169.25L435.92 169.25L439.40 178L438.17 178L437.27 175.75L433.21 175.75L432.31 178M435.25 170.56L433.59 174.76L436.91 174.76L435.25 170.56M444.15 178L443.07 178L443.07 171.70L444.15 171.70L444.15 178M443.61 170.60Q443.29 170.60 443.07 170.39Q442.85 170.18 442.85 169.85Q442.85 169.53 443.07 169.31Q443.29 169.10 443.61 169.10Q443.95 169.10 444.17 169.31Q444.39 169.53 444.39 169.85Q444.39 170.18 444.17 170.39Q443.95 170.60 443.61 170.60M447.31 178L446.24 178L446.24 172.59L445.17 172.59L445.17 171.70L446.24 171.70L446.24 170.97Q446.24 169.97 446.77 169.47Q447.30 168.97 448.11 168.97Q448.35 168.97 448.58 169.02Q448.81 169.06 448.99 169.13L448.90 170.06Q448.74 169.97 448.57 169.94Q448.40 169.91 448.24 169.91Q447.81 169.91 447.56 170.19Q447.31 170.47 447.31 171.03L447.31 171.70L448.91 171.70L448.91 172.59L447.31 172.59L447.31 178M453.75 178L452.69 178L452.69 171.70L453.75 171.70L453.75 172.81Q454.04 172.21 454.57 171.91Q455.10 171.60 455.71 171.60Q455.91 171.60 456.12 171.63Q456.34 171.66 456.49 171.74L456.41 172.75Q456.20 172.65 456 172.63Q455.80 172.61 455.60 172.61Q454.81 172.61 454.28 173.35Q453.75 174.09 453.75 175.47L453.75 178M460.15 178.10Q459.22 178.10 458.52 177.68Q457.81 177.26 457.42 176.53Q457.02 175.80 457.02 174.85Q457.02 173.90 457.42 173.17Q457.82 172.44 458.52 172.02Q459.21 171.60 460.11 171.60Q461.07 171.60 461.76 172.06Q462.45 172.51 462.79 173.28Q463.12 174.04 463 174.99L458.11 174.99Q458.16 175.96 458.71 176.57Q459.26 177.18 460.15 177.18Q460.82 177.18 461.34 176.81Q461.85 176.45 461.97 175.94L462.95 176.19Q462.74 177.04 461.97 177.57Q461.21 178.10 460.15 178.10M458.19 174.14L461.91 174.14Q461.90 173.39 461.40 172.95Q460.90 172.51 460.11 172.51Q459.37 172.51 458.86 172.94Q458.35 173.38 458.19 174.14M470.32 180.28L469.25 180.28L469.25 176.96Q468.97 177.47 468.37 177.79Q467.77 178.10 467.07 178.10Q466.14 178.10 465.43 177.69Q464.72 177.29 464.33 176.56Q463.94 175.82 463.94 174.85Q463.94 173.88 464.33 173.14Q464.72 172.41 465.43 172.01Q466.14 171.60 467.07 171.60Q467.77 171.60 468.37 171.91Q468.97 172.21 469.25 172.72L469.25 171.70L470.32 171.70L470.32 180.28M467.14 177.18Q467.76 177.18 468.24 176.88Q468.71 176.57 468.98 176.05Q469.25 175.53 469.25 174.85Q469.25 174.16 468.98 173.64Q468.71 173.11 468.24 172.82Q467.76 172.53 467.14 172.53Q466.54 172.53 466.06 172.82Q465.57 173.11 465.30 173.64Q465.02 174.16 465.02 174.85Q465.02 175.54 465.30 176.06Q465.57 176.59 466.06 176.88Q466.54 177.18 467.14 177.18M474.26 178.10Q473.60 178.10 473.07 177.83Q472.54 177.56 472.23 177.06Q471.92 176.56 471.92 175.84L471.92 171.70L473 171.70L473 175.59Q473 176.35 473.40 176.76Q473.80 177.16 474.46 177.16Q475.40 177.16 475.95 176.41Q476.50 175.66 476.50 174.40L476.50 171.70L477.56 171.70L477.56 178L476.50 178L476.50 176.91Q476.20 177.40 475.62 177.75Q475.05 178.10 474.26 178.10M480.32 178L479.25 178L479.25 171.70L480.32 171.70L480.32 178M479.79 170.60Q479.46 170.60 479.24 170.39Q479.02 170.18 479.02 169.85Q479.02 169.53 479.24 169.31Q479.46 169.10 479.79 169.10Q480.12 169.10 480.34 169.31Q480.56 169.53 480.56 169.85Q480.56 170.18 480.34 170.39Q480.12 170.60 479.79 170.60M483.07 178L482.01 178L482.01 171.70L483.07 171.70L483.07 172.81Q483.36 172.21 483.89 171.91Q484.42 171.60 485.04 171.60Q485.24 171.60 485.45 171.63Q485.66 171.66 485.81 171.74L485.74 172.75Q485.52 172.65 485.32 172.63Q485.12 172.61 484.92 172.61Q484.14 172.61 483.61 173.35Q483.07 174.09 483.07 175.47L483.07 178M489.47 178.10Q488.55 178.10 487.84 177.68Q487.14 177.26 486.74 176.53Q486.35 175.80 486.35 174.85Q486.35 173.90 486.75 173.17Q487.15 172.44 487.84 172.02Q488.54 171.60 489.44 171.60Q490.40 171.60 491.09 172.06Q491.77 172.51 492.11 173.28Q492.45 174.04 492.32 174.99L487.44 174.99Q487.49 175.96 488.04 176.57Q488.59 177.18 489.47 177.18Q490.15 177.18 490.66 176.81Q491.17 176.45 491.30 175.94L492.27 176.19Q492.06 177.04 491.30 177.57Q490.54 178.10 489.47 178.10M487.51 174.14L491.24 174.14Q491.22 173.39 490.72 172.95Q490.22 172.51 489.44 172.51Q488.70 172.51 488.19 172.94Q487.67 173.38 487.51 174.14M496.40 178.10Q495.46 178.10 494.76 177.69Q494.05 177.29 493.66 176.56Q493.26 175.82 493.26 174.85Q493.26 173.88 493.66 173.14Q494.05 172.41 494.76 172.01Q495.46 171.60 496.40 171.60Q497.10 171.60 497.70 171.91Q498.30 172.21 498.57 172.72L498.57 169.15L499.65 169.15L499.65 178L498.57 178L498.57 176.96Q498.30 177.47 497.70 177.79Q497.10 178.10 496.40 178.10M496.46 177.18Q497.09 177.18 497.56 176.88Q498.04 176.57 498.31 176.05Q498.57 175.53 498.57 174.85Q498.57 174.16 498.31 173.64Q498.04 173.11 497.56 172.82Q497.09 172.53 496.46 172.53Q495.86 172.53 495.38 172.82Q494.90 173.11 494.62 173.64Q494.35 174.16 494.35 174.85Q494.35 175.54 494.62 176.06Q494.90 176.59 495.38 176.88Q495.86 177.18 496.46 177.18M501.52 179.94L500.79 179.41Q501.64 178.15 502.07 176.85Q502.50 175.55 502.50 174.07Q502.50 172.63 502.07 171.31Q501.64 170 500.79 168.75L501.52 168.21Q502.47 169.43 502.99 170.92Q503.51 172.41 503.51 174.07Q503.51 175.70 503 177.21Q502.49 178.71 501.52 179.94" fill="#262d1e"/>
    <path d="M498.88 218.10Q497.81 218.10 497.14 217.57Q496.46 217.04 496.26 216.24L497.24 215.93Q497.38 216.54 497.78 216.86Q498.19 217.19 498.88 217.19Q499.46 217.19 499.82 216.94Q500.17 216.69 500.17 216.20Q500.17 215.81 499.91 215.61Q499.65 215.40 499.24 215.28Q498.82 215.15 498.37 215.04Q497.91 214.93 497.50 214.74Q497.09 214.55 496.82 214.21Q496.56 213.88 496.56 213.30Q496.56 212.81 496.83 212.43Q497.10 212.05 497.59 211.82Q498.07 211.60 498.70 211.60Q499.63 211.60 500.28 212.02Q500.94 212.44 501.14 213.16L500.16 213.51Q500.01 212.96 499.63 212.74Q499.25 212.51 498.70 212.51Q498.24 212.51 497.92 212.70Q497.61 212.89 497.61 213.26Q497.61 213.61 497.88 213.79Q498.14 213.97 498.55 214.08Q498.96 214.19 499.43 214.30Q499.90 214.41 500.31 214.61Q500.72 214.81 500.99 215.18Q501.25 215.55 501.25 216.18Q501.25 216.74 500.94 217.18Q500.63 217.61 500.09 217.86Q499.56 218.10 498.88 218.10M503.59 218L502.51 218L502.51 211.70L503.59 211.70L503.59 218M503.05 210.60Q502.72 210.60 502.51 210.39Q502.29 210.18 502.29 209.85Q502.29 209.53 502.51 209.31Q502.72 209.10 503.05 209.10Q503.39 209.10 503.61 209.31Q503.82 209.53 503.82 209.85Q503.82 210.18 503.61 210.39Q503.39 210.60 503.05 210.60M507.92 220.38Q507.25 220.38 506.66 220.14Q506.06 219.91 505.66 219.51Q505.25 219.10 505.11 218.56L506.15 218.34Q506.30 218.89 506.80 219.18Q507.30 219.46 507.95 219.46Q508.82 219.46 509.40 219.01Q509.97 218.56 509.97 217.72L509.97 216.72Q509.70 217.18 509.11 217.45Q508.51 217.72 507.81 217.72Q506.96 217.72 506.31 217.34Q505.65 216.95 505.27 216.26Q504.90 215.57 504.90 214.66Q504.90 213.74 505.27 213.05Q505.64 212.36 506.31 211.98Q506.97 211.60 507.85 211.60Q508.54 211.60 509.12 211.86Q509.70 212.13 509.97 212.57L509.97 211.70L511.05 211.70L511.05 217.63Q511.05 218.49 510.64 219.10Q510.24 219.71 509.53 220.04Q508.82 220.38 507.92 220.38M507.97 216.79Q508.55 216.79 509.01 216.51Q509.46 216.24 509.72 215.76Q509.99 215.28 509.99 214.66Q509.99 214.03 509.72 213.54Q509.46 213.06 509.01 212.79Q508.55 212.53 507.97 212.53Q507.40 212.53 506.95 212.79Q506.50 213.06 506.24 213.54Q505.97 214.03 505.97 214.66Q505.97 215.29 506.24 215.77Q506.50 216.25 506.95 216.52Q507.40 216.79 507.97 216.79M513.77 218L512.71 218L512.71 211.70L513.77 211.70L513.77 212.79Q514.06 212.30 514.64 211.95Q515.22 211.60 516.01 211.60Q516.67 211.60 517.20 211.87Q517.72 212.14 518.03 212.64Q518.34 213.15 518.34 213.88L518.34 218L517.27 218L517.27 214.11Q517.27 213.35 516.88 212.94Q516.47 212.54 515.80 212.54Q514.88 212.54 514.32 213.29Q513.77 214.04 513.77 215.30L513.77 218M522.70 218.10Q521.77 218.10 521.07 217.68Q520.36 217.26 519.97 216.53Q519.58 215.80 519.58 214.85Q519.58 213.90 519.98 213.17Q520.38 212.44 521.07 212.02Q521.76 211.60 522.66 211.60Q523.63 211.60 524.31 212.06Q525 212.51 525.34 213.28Q525.67 214.04 525.55 214.99L520.66 214.99Q520.71 215.96 521.26 216.57Q521.81 217.18 522.70 217.18Q523.38 217.18 523.89 216.81Q524.40 216.45 524.52 215.94L525.50 216.19Q525.29 217.04 524.52 217.57Q523.76 218.10 522.70 218.10M520.74 214.14L524.46 214.14Q524.45 213.39 523.95 212.95Q523.45 212.51 522.66 212.51Q521.92 212.51 521.41 212.94Q520.90 213.38 520.74 214.14M529.63 218.10Q528.69 218.10 527.98 217.69Q527.27 217.29 526.88 216.56Q526.49 215.82 526.49 214.85Q526.49 213.88 526.88 213.14Q527.27 212.41 527.98 212.01Q528.69 211.60 529.63 211.60Q530.33 211.60 530.93 211.91Q531.52 212.21 531.80 212.72L531.80 209.15L532.88 209.15L532.88 218L531.80 218L531.80 216.96Q531.52 217.47 530.93 217.79Q530.33 218.10 529.63 218.10M529.69 217.18Q530.31 217.18 530.79 216.88Q531.26 216.57 531.53 216.05Q531.80 215.53 531.80 214.85Q531.80 214.16 531.53 213.64Q531.26 213.11 530.79 212.82Q530.31 212.53 529.69 212.53Q529.09 212.53 528.61 212.82Q528.13 213.11 527.85 213.64Q527.58 214.16 527.58 214.85Q527.58 215.54 527.85 216.06Q528.13 216.59 528.61 216.88Q529.09 217.18 529.69 217.18M540.36 218.10Q539.02 218.10 538.07 217.41Q537.13 216.71 536.84 215.40L537.88 215.10Q538.07 216.06 538.74 216.59Q539.41 217.11 540.36 217.11Q541.14 217.11 541.69 216.75Q542.25 216.39 542.25 215.60Q542.25 215.11 541.98 214.82Q541.71 214.53 541.26 214.34Q540.81 214.15 540.27 214.01Q539.74 213.86 539.21 213.69Q538.67 213.53 538.22 213.26Q537.77 213 537.51 212.57Q537.24 212.15 537.24 211.49Q537.24 210.76 537.63 210.24Q538.01 209.72 538.67 209.44Q539.34 209.15 540.14 209.15Q541.32 209.15 542.17 209.73Q543.01 210.31 543.25 211.31L542.24 211.68Q542.04 210.91 541.48 210.53Q540.92 210.14 540.13 210.14Q539.34 210.14 538.86 210.49Q538.39 210.85 538.39 211.44Q538.39 211.88 538.66 212.13Q538.92 212.39 539.38 212.56Q539.82 212.72 540.36 212.86Q540.89 212.99 541.42 213.16Q541.95 213.34 542.40 213.62Q542.85 213.90 543.12 214.36Q543.39 214.81 543.39 215.53Q543.39 216.39 542.97 216.96Q542.56 217.54 541.88 217.82Q541.19 218.10 540.36 218.10M545.13 218L543.94 218L547.42 209.25L548.74 209.25L552.21 218L550.99 218L550.09 215.75L546.02 215.75L545.13 218M548.06 210.56L546.40 214.76L549.73 214.76L548.06 210.56M554.39 218L553.24 218L553.24 209.25L554.89 209.25L557.34 215.05Q557.63 215.74 557.75 216.14Q557.88 216.55 557.88 216.55Q557.88 216.55 558.02 216.14Q558.16 215.74 558.44 215.05L560.89 209.25L562.49 209.25L562.49 218L561.34 218L561.34 212.34Q561.34 211.59 561.36 211.15Q561.38 210.71 561.38 210.71Q561.38 210.71 561.23 211.12Q561.07 211.53 560.79 212.22L558.36 218L557.38 218L554.95 212.22Q554.66 211.54 554.51 211.13Q554.36 210.72 554.36 210.72Q554.36 210.72 554.38 211.16Q554.39 211.59 554.39 212.34L554.39 218M569.97 218L564.41 218L564.41 209.25L565.56 209.25L565.56 217.01L569.97 217.01L569.97 218M575.70 218.10Q574.66 218.10 574.07 217.59Q573.47 217.09 573.47 216.30Q573.47 215.35 574.16 214.85Q574.85 214.35 576.35 214.20L577.70 214.06L577.70 213.84Q577.70 213.21 577.28 212.86Q576.86 212.51 576.17 212.51Q575.52 212.51 575.11 212.84Q574.70 213.18 574.60 213.84L573.59 213.66Q573.74 212.76 574.42 212.18Q575.10 211.60 576.17 211.60Q576.94 211.60 577.52 211.88Q578.10 212.16 578.44 212.69Q578.77 213.21 578.77 213.95L578.77 218L577.70 218L577.70 216.95Q577.57 217.25 577.27 217.51Q576.97 217.78 576.56 217.94Q576.15 218.10 575.70 218.10M577.70 215.19L577.70 214.89L576.41 215.04Q575.42 215.15 574.99 215.42Q574.55 215.69 574.55 216.26Q574.55 216.72 574.89 216.98Q575.22 217.24 575.79 217.24Q576.35 217.24 576.78 216.96Q577.21 216.68 577.46 216.21Q577.70 215.74 577.70 215.19M582.44 218.10Q581.37 218.10 580.70 217.57Q580.02 217.04 579.82 216.24L580.80 215.93Q580.94 216.54 581.34 216.86Q581.75 217.19 582.44 217.19Q583.02 217.19 583.38 216.94Q583.74 216.69 583.74 216.20Q583.74 215.81 583.47 215.61Q583.21 215.40 582.80 215.28Q582.39 215.15 581.93 215.04Q581.47 214.93 581.06 214.74Q580.65 214.55 580.39 214.21Q580.12 213.88 580.12 213.30Q580.12 212.81 580.39 212.43Q580.66 212.05 581.15 211.82Q581.64 211.60 582.26 211.60Q583.19 211.60 583.84 212.02Q584.50 212.44 584.70 213.16L583.72 213.51Q583.57 212.96 583.19 212.74Q582.81 212.51 582.26 212.51Q581.80 212.51 581.49 212.70Q581.17 212.89 581.17 213.26Q581.17 213.61 581.44 213.79Q581.70 213.97 582.11 214.08Q582.52 214.19 582.99 214.30Q583.46 214.41 583.87 214.61Q584.29 214.81 584.55 215.18Q584.81 215.55 584.81 216.18Q584.81 216.74 584.50 217.18Q584.19 217.61 583.66 217.86Q583.12 218.10 582.44 218.10M588.15 218.10Q587.09 218.10 586.41 217.57Q585.74 217.04 585.54 216.24L586.51 215.93Q586.65 216.54 587.06 216.86Q587.46 217.19 588.15 217.19Q588.74 217.19 589.09 216.94Q589.45 216.69 589.45 216.20Q589.45 215.81 589.19 215.61Q588.92 215.40 588.51 215.28Q588.10 215.15 587.64 215.04Q587.19 214.93 586.77 214.74Q586.36 214.55 586.10 214.21Q585.84 213.88 585.84 213.30Q585.84 212.81 586.11 212.43Q586.37 212.05 586.86 211.82Q587.35 211.60 587.97 211.60Q588.90 211.60 589.56 212.02Q590.21 212.44 590.41 213.16L589.44 213.51Q589.29 212.96 588.91 212.74Q588.52 212.51 587.97 212.51Q587.51 212.51 587.20 212.70Q586.89 212.89 586.89 213.26Q586.89 213.61 587.15 213.79Q587.41 213.97 587.82 214.08Q588.24 214.19 588.71 214.30Q589.17 214.41 589.59 214.61Q590 214.81 590.26 215.18Q590.52 215.55 590.52 216.18Q590.52 216.74 590.21 217.18Q589.90 217.61 589.37 217.86Q588.84 218.10 588.15 218.10M594.52 218.10Q593.60 218.10 592.89 217.68Q592.19 217.26 591.79 216.53Q591.40 215.80 591.40 214.85Q591.40 213.90 591.80 213.17Q592.20 212.44 592.89 212.02Q593.59 211.60 594.49 211.60Q595.45 211.60 596.14 212.06Q596.82 212.51 597.16 213.28Q597.50 214.04 597.37 214.99L592.49 214.99Q592.54 215.96 593.09 216.57Q593.64 217.18 594.52 217.18Q595.20 217.18 595.71 216.81Q596.22 216.45 596.35 215.94L597.32 216.19Q597.11 217.04 596.35 217.57Q595.59 218.10 594.52 218.10M592.56 214.14L596.29 214.14Q596.27 213.39 595.77 212.95Q595.27 212.51 594.49 212.51Q593.75 212.51 593.24 212.94Q592.72 213.38 592.56 214.14M599.77 218L598.71 218L598.71 211.70L599.77 211.70L599.77 212.81Q600.06 212.21 600.59 211.91Q601.12 211.60 601.74 211.60Q601.94 211.60 602.15 211.63Q602.36 211.66 602.51 211.74L602.44 212.75Q602.22 212.65 602.02 212.63Q601.82 212.61 601.62 212.61Q600.84 212.61 600.31 213.35Q599.77 214.09 599.77 215.47L599.77 218M605.67 218.10Q604.86 218.10 604.33 217.60Q603.80 217.10 603.80 216.14L603.80 212.59L602.74 212.59L602.74 211.70L603.80 211.70L603.80 210.10L604.87 210.10L604.87 211.70L606.47 211.70L606.47 212.59L604.87 212.59L604.87 216.05Q604.87 216.60 605.12 216.88Q605.37 217.15 605.80 217.15Q606.12 217.15 606.46 217.03L606.55 217.94Q606.37 218.03 606.13 218.06Q605.89 218.10 605.67 218.10M608.66 218L607.59 218L607.59 211.70L608.66 211.70L608.66 218M608.12 210.60Q607.80 210.60 607.58 210.39Q607.36 210.18 607.36 209.85Q607.36 209.53 607.58 209.31Q607.80 209.10 608.12 209.10Q608.46 209.10 608.68 209.31Q608.90 209.53 608.90 209.85Q608.90 210.18 608.68 210.39Q608.46 210.60 608.12 210.60M613.14 218.10Q612.21 218.10 611.49 217.68Q610.77 217.26 610.36 216.53Q609.95 215.80 609.95 214.85Q609.95 213.90 610.36 213.17Q610.77 212.44 611.49 212.02Q612.21 211.60 613.14 211.60Q614.06 211.60 614.78 212.02Q615.50 212.44 615.91 213.17Q616.32 213.90 616.32 214.85Q616.32 215.80 615.91 216.53Q615.50 217.26 614.78 217.68Q614.06 218.10 613.14 218.10M613.14 217.16Q613.75 217.16 614.22 216.87Q614.70 216.57 614.97 216.05Q615.24 215.53 615.24 214.85Q615.24 214.16 614.97 213.64Q614.70 213.11 614.22 212.82Q613.75 212.53 613.14 212.53Q612.52 212.53 612.05 212.82Q611.57 213.11 611.31 213.64Q611.04 214.16 611.04 214.85Q611.04 215.53 611.31 216.05Q611.57 216.57 612.05 216.87Q612.52 217.16 613.14 217.16M618.69 218L617.62 218L617.62 211.70L618.69 211.70L618.69 212.79Q618.97 212.30 619.56 211.95Q620.14 211.60 620.92 211.60Q621.59 211.60 622.11 211.87Q622.64 212.14 622.94 212.64Q623.25 213.15 623.25 213.88L623.25 218L622.19 218L622.19 214.11Q622.19 213.35 621.79 212.94Q621.39 212.54 620.71 212.54Q619.79 212.54 619.24 213.29Q618.69 214.04 618.69 215.30" fill="#686c62"/>
    <path d="M515.66 252L514.60 252L512.13 245.70L513.29 245.70L515.15 250.63L517.02 245.70L518.14 245.70L515.66 252M521.03 252.10Q519.99 252.10 519.39 251.59Q518.80 251.09 518.80 250.30Q518.80 249.35 519.49 248.85Q520.18 248.35 521.68 248.20L523.03 248.06L523.03 247.84Q523.03 247.21 522.61 246.86Q522.19 246.51 521.50 246.51Q520.85 246.51 520.44 246.84Q520.03 247.18 519.93 247.84L518.91 247.66Q519.06 246.76 519.74 246.18Q520.43 245.60 521.50 245.60Q522.26 245.60 522.84 245.88Q523.43 246.16 523.76 246.69Q524.10 247.21 524.10 247.95L524.10 252L523.03 252L523.03 250.95Q522.90 251.25 522.60 251.51Q522.30 251.78 521.89 251.94Q521.48 252.10 521.03 252.10M523.03 249.19L523.03 248.89L521.74 249.04Q520.75 249.15 520.31 249.42Q519.88 249.69 519.88 250.26Q519.88 250.72 520.21 250.98Q520.55 251.24 521.11 251.24Q521.68 251.24 522.11 250.96Q522.54 250.68 522.78 250.21Q523.03 249.74 523.03 249.19M526.76 252L525.69 252L525.69 243.15L526.76 243.15L526.76 252M529.51 252L528.44 252L528.44 245.70L529.51 245.70L529.51 252M528.98 244.60Q528.65 244.60 528.43 244.39Q528.21 244.18 528.21 243.85Q528.21 243.53 528.43 243.31Q528.65 243.10 528.98 243.10Q529.31 243.10 529.53 243.31Q529.75 243.53 529.75 243.85Q529.75 244.18 529.53 244.39Q529.31 244.60 528.98 244.60M533.94 252.10Q533 252.10 532.29 251.69Q531.59 251.29 531.19 250.56Q530.80 249.82 530.80 248.85Q530.80 247.88 531.19 247.14Q531.59 246.41 532.29 246.01Q533 245.60 533.94 245.60Q534.64 245.60 535.24 245.91Q535.84 246.21 536.11 246.72L536.11 243.15L537.19 243.15L537.19 252L536.11 252L536.11 250.96Q535.84 251.47 535.24 251.79Q534.64 252.10 533.94 252.10M534 251.18Q534.63 251.18 535.10 250.88Q535.58 250.57 535.84 250.05Q536.11 249.53 536.11 248.85Q536.11 248.16 535.84 247.64Q535.58 247.11 535.10 246.82Q534.63 246.53 534 246.53Q533.40 246.53 532.92 246.82Q532.44 247.11 532.16 247.64Q531.89 248.16 531.89 248.85Q531.89 249.54 532.16 250.06Q532.44 250.59 532.92 250.88Q533.40 251.18 534 251.18M540.79 252.10Q539.75 252.10 539.16 251.59Q538.56 251.09 538.56 250.30Q538.56 249.35 539.25 248.85Q539.94 248.35 541.44 248.20L542.79 248.06L542.79 247.84Q542.79 247.21 542.37 246.86Q541.95 246.51 541.26 246.51Q540.61 246.51 540.20 246.84Q539.79 247.18 539.69 247.84L538.67 247.66Q538.82 246.76 539.51 246.18Q540.19 245.60 541.26 245.60Q542.02 245.60 542.61 245.88Q543.19 246.16 543.52 246.69Q543.86 247.21 543.86 247.95L543.86 252L542.79 252L542.79 250.95Q542.66 251.25 542.36 251.51Q542.06 251.78 541.65 251.94Q541.24 252.10 540.79 252.10M542.79 249.19L542.79 248.89L541.50 249.04Q540.51 249.15 540.07 249.42Q539.64 249.69 539.64 250.26Q539.64 250.72 539.98 250.98Q540.31 251.24 540.88 251.24Q541.44 251.24 541.87 250.96Q542.30 250.68 542.54 250.21Q542.79 249.74 542.79 249.19M547.69 252.10Q546.88 252.10 546.34 251.60Q545.81 251.10 545.81 250.14L545.81 246.59L544.75 246.59L544.75 245.70L545.81 245.70L545.81 244.10L546.89 244.10L546.89 245.70L548.49 245.70L548.49 246.59L546.89 246.59L546.89 250.05Q546.89 250.60 547.14 250.88Q547.39 251.15 547.81 251.15Q548.14 251.15 548.47 251.03L548.56 251.94Q548.39 252.03 548.14 252.06Q547.90 252.10 547.69 252.10M552.34 252.10Q551.41 252.10 550.71 251.68Q550 251.26 549.61 250.53Q549.21 249.80 549.21 248.85Q549.21 247.90 549.61 247.17Q550.01 246.44 550.71 246.02Q551.40 245.60 552.30 245.60Q553.26 245.60 553.95 246.06Q554.64 246.51 554.97 247.28Q555.31 248.04 555.19 248.99L550.30 248.99Q550.35 249.96 550.90 250.57Q551.45 251.18 552.34 251.18Q553.01 251.18 553.52 250.81Q554.04 250.45 554.16 249.94L555.14 250.19Q554.92 251.04 554.16 251.57Q553.40 252.10 552.34 252.10M550.37 248.14L554.10 248.14Q554.09 247.39 553.59 246.95Q553.09 246.51 552.30 246.51Q551.56 246.51 551.05 246.94Q550.54 247.38 550.37 248.14M556.66 253.65L556.16 253.65L556.69 252.01Q556.45 251.95 556.32 251.76Q556.19 251.57 556.19 251.34Q556.19 251.01 556.40 250.80Q556.61 250.59 556.92 250.59Q557.25 250.59 557.47 250.79Q557.69 251 557.69 251.31Q557.69 251.50 557.63 251.66Q557.57 251.82 557.50 251.97L556.66 253.65M564.30 252.10Q563.37 252.10 562.66 251.68Q561.94 251.26 561.52 250.53Q561.11 249.80 561.11 248.85Q561.11 247.90 561.52 247.17Q561.94 246.44 562.66 246.02Q563.37 245.60 564.30 245.60Q565.22 245.60 565.94 246.02Q566.66 246.44 567.07 247.17Q567.49 247.90 567.49 248.85Q567.49 249.80 567.07 250.53Q566.66 251.26 565.94 251.68Q565.22 252.10 564.30 252.10M564.30 251.16Q564.91 251.16 565.39 250.87Q565.86 250.57 566.13 250.05Q566.40 249.53 566.40 248.85Q566.40 248.16 566.13 247.64Q565.86 247.11 565.39 246.82Q564.91 246.53 564.30 246.53Q563.69 246.53 563.21 246.82Q562.74 247.11 562.47 247.64Q562.20 248.16 562.20 248.85Q562.20 249.53 562.47 250.05Q562.74 250.57 563.21 250.87Q563.69 251.16 564.30 251.16M569.86 254.28L568.79 254.28L568.79 245.70L569.86 245.70L569.86 246.72Q570.15 246.21 570.74 245.91Q571.34 245.60 572.04 245.60Q572.99 245.60 573.69 246.01Q574.39 246.41 574.78 247.14Q575.17 247.88 575.17 248.85Q575.17 249.82 574.78 250.56Q574.39 251.29 573.69 251.69Q572.99 252.10 572.04 252.10Q571.35 252.10 570.75 251.79Q570.15 251.47 569.86 250.96L569.86 254.28M571.97 251.18Q572.59 251.18 573.06 250.88Q573.54 250.59 573.81 250.06Q574.09 249.54 574.09 248.85Q574.09 248.16 573.81 247.64Q573.54 247.11 573.06 246.82Q572.59 246.53 571.97 246.53Q571.36 246.53 570.88 246.82Q570.40 247.11 570.13 247.64Q569.86 248.16 569.86 248.85Q569.86 249.53 570.13 250.05Q570.40 250.57 570.88 250.88Q571.36 251.18 571.97 251.18M579.21 252.10Q578.29 252.10 577.58 251.68Q576.87 251.26 576.48 250.53Q576.09 249.80 576.09 248.85Q576.09 247.90 576.49 247.17Q576.89 246.44 577.58 246.02Q578.27 245.60 579.17 245.60Q580.14 245.60 580.82 246.06Q581.51 246.51 581.85 247.28Q582.19 248.04 582.06 248.99L577.17 248.99Q577.22 249.96 577.77 250.57Q578.32 251.18 579.21 251.18Q579.89 251.18 580.40 250.81Q580.91 250.45 581.04 249.94L582.01 250.19Q581.80 251.04 581.04 251.57Q580.27 252.10 579.21 252.10M577.25 248.14L580.97 248.14Q580.96 247.39 580.46 246.95Q579.96 246.51 579.17 246.51Q578.44 246.51 577.92 246.94Q577.41 247.38 577.25 248.14M584.46 252L583.40 252L583.40 245.70L584.46 245.70L584.46 246.79Q584.75 246.30 585.33 245.95Q585.91 245.60 586.70 245.60Q587.36 245.60 587.89 245.87Q588.41 246.14 588.72 246.64Q589.02 247.15 589.02 247.88L589.02 252L587.96 252L587.96 248.11Q587.96 247.35 587.56 246.94Q587.16 246.54 586.49 246.54Q585.56 246.54 585.01 247.29Q584.46 248.04 584.46 249.30L584.46 252M595.50 252.10Q594.44 252.10 593.76 251.57Q593.09 251.04 592.89 250.24L593.86 249.93Q594 250.54 594.41 250.86Q594.81 251.19 595.50 251.19Q596.09 251.19 596.44 250.94Q596.80 250.69 596.80 250.20Q596.80 249.81 596.54 249.61Q596.27 249.40 595.86 249.28Q595.45 249.15 594.99 249.04Q594.54 248.93 594.13 248.74Q593.71 248.55 593.45 248.21Q593.19 247.88 593.19 247.30Q593.19 246.81 593.46 246.43Q593.73 246.05 594.21 245.82Q594.70 245.60 595.32 245.60Q596.25 245.60 596.91 246.02Q597.56 246.44 597.76 247.16L596.79 247.51Q596.64 246.96 596.26 246.74Q595.88 246.51 595.32 246.51Q594.86 246.51 594.55 246.70Q594.24 246.89 594.24 247.26Q594.24 247.61 594.50 247.79Q594.76 247.97 595.17 248.08Q595.59 248.19 596.06 248.30Q596.52 248.41 596.94 248.61Q597.35 248.81 597.61 249.18Q597.88 249.55 597.88 250.18Q597.88 250.74 597.56 251.18Q597.25 251.61 596.72 251.86Q596.19 252.10 595.50 252.10M601.88 252.10Q600.95 252.10 600.24 251.68Q599.54 251.26 599.14 250.53Q598.75 249.80 598.75 248.85Q598.75 247.90 599.15 247.17Q599.55 246.44 600.24 246.02Q600.94 245.60 601.84 245.60Q602.80 245.60 603.49 246.06Q604.17 246.51 604.51 247.28Q604.85 248.04 604.72 248.99L599.84 248.99Q599.89 249.96 600.44 250.57Q600.99 251.18 601.88 251.18Q602.55 251.18 603.06 250.81Q603.57 250.45 603.70 249.94L604.67 250.19Q604.46 251.04 603.70 251.57Q602.94 252.10 601.88 252.10M599.91 248.14L603.64 248.14Q603.63 247.39 603.13 246.95Q602.63 246.51 601.84 246.51Q601.10 246.51 600.59 246.94Q600.07 247.38 599.91 248.14M608.13 252.10Q607.06 252.10 606.39 251.57Q605.71 251.04 605.51 250.24L606.49 249.93Q606.63 250.54 607.03 250.86Q607.44 251.19 608.13 251.19Q608.71 251.19 609.07 250.94Q609.42 250.69 609.42 250.20Q609.42 249.81 609.16 249.61Q608.90 249.40 608.49 249.28Q608.07 249.15 607.62 249.04Q607.16 248.93 606.75 248.74Q606.34 248.55 606.07 248.21Q605.81 247.88 605.81 247.30Q605.81 246.81 606.08 246.43Q606.35 246.05 606.84 245.82Q607.32 245.60 607.95 245.60Q608.88 245.60 609.53 246.02Q610.19 246.44 610.39 247.16L609.41 247.51Q609.26 246.96 608.88 246.74Q608.50 246.51 607.95 246.51Q607.49 246.51 607.17 246.70Q606.86 246.89 606.86 247.26Q606.86 247.61 607.13 247.79Q607.39 247.97 607.80 248.08Q608.21 248.19 608.68 248.30Q609.15 248.41 609.56 248.61Q609.98 248.81 610.24 249.18Q610.50 249.55 610.50 250.18Q610.50 250.74 610.19 251.18Q609.88 251.61 609.34 251.86Q608.81 252.10 608.13 252.10M613.84 252.10Q612.77 252.10 612.10 251.57Q611.42 251.04 611.22 250.24L612.20 249.93Q612.34 250.54 612.74 250.86Q613.15 251.19 613.84 251.19Q614.42 251.19 614.78 250.94Q615.14 250.69 615.14 250.20Q615.14 249.81 614.88 249.61Q614.61 249.40 614.20 249.28Q613.79 249.15 613.33 249.04Q612.88 248.93 612.46 248.74Q612.05 248.55 611.79 248.21Q611.52 247.88 611.52 247.30Q611.52 246.81 611.79 246.43Q612.06 246.05 612.55 245.82Q613.04 245.60 613.66 245.60Q614.59 245.60 615.24 246.02Q615.90 246.44 616.10 247.16L615.13 247.51Q614.97 246.96 614.59 246.74Q614.21 246.51 613.66 246.51Q613.20 246.51 612.89 246.70Q612.57 246.89 612.57 247.26Q612.57 247.61 612.84 247.79Q613.10 247.97 613.51 248.08Q613.92 248.19 614.39 248.30Q614.86 248.41 615.27 248.61Q615.69 248.81 615.95 249.18Q616.21 249.55 616.21 250.18Q616.21 250.74 615.90 251.18Q615.59 251.61 615.06 251.86Q614.52 252.10 613.84 252.10M618.55 252L617.47 252L617.47 245.70L618.55 245.70L618.55 252M618.01 244.60Q617.69 244.60 617.47 244.39Q617.25 244.18 617.25 243.85Q617.25 243.53 617.47 243.31Q617.69 243.10 618.01 243.10Q618.35 243.10 618.57 243.31Q618.79 243.53 618.79 243.85Q618.79 244.18 618.57 244.39Q618.35 244.60 618.01 244.60M623.02 252.10Q622.10 252.10 621.38 251.68Q620.66 251.26 620.25 250.53Q619.84 249.80 619.84 248.85Q619.84 247.90 620.25 247.17Q620.66 246.44 621.38 246.02Q622.10 245.60 623.02 245.60Q623.95 245.60 624.67 246.02Q625.39 246.44 625.80 247.17Q626.21 247.90 626.21 248.85Q626.21 249.80 625.80 250.53Q625.39 251.26 624.67 251.68Q623.95 252.10 623.02 252.10M623.02 251.16Q623.64 251.16 624.11 250.87Q624.59 250.57 624.86 250.05Q625.12 249.53 625.12 248.85Q625.12 248.16 624.86 247.64Q624.59 247.11 624.11 246.82Q623.64 246.53 623.02 246.53Q622.41 246.53 621.94 246.82Q621.46 247.11 621.19 247.64Q620.92 248.16 620.92 248.85Q620.92 249.53 621.19 250.05Q621.46 250.57 621.94 250.87Q622.41 251.16 623.02 251.16M628.57 252L627.51 252L627.51 245.70L628.57 245.70L628.57 246.79Q628.86 246.30 629.44 245.95Q630.02 245.60 630.81 245.60Q631.47 245.60 632 245.87Q632.52 246.14 632.83 246.64Q633.14 247.15 633.14 247.88L633.14 252L632.07 252L632.07 248.11Q632.07 247.35 631.67 246.94Q631.27 246.54 630.60 246.54Q629.67 246.54 629.12 247.29Q628.57 248.04 628.57 249.30" fill="#262d1e"/>
    <path d="M239.69 300.10Q238.66 300.10 238.06 299.59Q237.47 299.09 237.47 298.30Q237.47 297.35 238.16 296.85Q238.84 296.35 240.34 296.20L241.69 296.06L241.69 295.84Q241.69 295.21 241.28 294.86Q240.86 294.51 240.17 294.51Q239.52 294.51 239.11 294.84Q238.69 295.18 238.59 295.84L237.58 295.66Q237.73 294.76 238.41 294.18Q239.09 293.60 240.17 293.60Q240.93 293.60 241.51 293.88Q242.09 294.16 242.43 294.69Q242.77 295.21 242.77 295.95L242.77 300L241.69 300L241.69 298.95Q241.57 299.25 241.27 299.51Q240.97 299.77 240.56 299.94Q240.14 300.10 239.69 300.10M241.69 297.19L241.69 296.89L240.41 297.04Q239.42 297.15 238.98 297.42Q238.54 297.69 238.54 298.26Q238.54 298.73 238.88 298.98Q239.22 299.24 239.78 299.24Q240.34 299.24 240.78 298.96Q241.21 298.68 241.45 298.21Q241.69 297.74 241.69 297.19M247.08 300.10Q246.18 300.10 245.48 299.68Q244.78 299.25 244.38 298.51Q243.97 297.77 243.97 296.85Q243.97 295.91 244.38 295.18Q244.78 294.44 245.48 294.02Q246.18 293.60 247.08 293.60Q248.19 293.60 248.98 294.17Q249.76 294.74 249.92 295.71L248.86 295.88Q248.73 295.25 248.26 294.89Q247.79 294.52 247.08 294.52Q246.51 294.52 246.05 294.82Q245.59 295.13 245.33 295.64Q245.06 296.16 245.06 296.85Q245.06 297.52 245.33 298.04Q245.59 298.56 246.05 298.86Q246.51 299.16 247.08 299.16Q247.83 299.16 248.32 298.79Q248.81 298.43 248.89 297.81L249.98 297.94Q249.89 298.57 249.50 299.06Q249.11 299.55 248.49 299.82Q247.87 300.10 247.08 300.10M253.92 300.10Q253.02 300.10 252.32 299.68Q251.62 299.25 251.21 298.51Q250.81 297.77 250.81 296.85Q250.81 295.91 251.21 295.18Q251.62 294.44 252.32 294.02Q253.02 293.60 253.92 293.60Q255.03 293.60 255.81 294.17Q256.59 294.74 256.76 295.71L255.69 295.88Q255.57 295.25 255.10 294.89Q254.63 294.52 253.92 294.52Q253.34 294.52 252.89 294.82Q252.43 295.13 252.16 295.64Q251.89 296.16 251.89 296.85Q251.89 297.52 252.16 298.04Q252.43 298.56 252.89 298.86Q253.34 299.16 253.92 299.16Q254.67 299.16 255.16 298.79Q255.64 298.43 255.73 297.81L256.82 297.94Q256.73 298.57 256.34 299.06Q255.94 299.55 255.33 299.82Q254.71 300.10 253.92 300.10M260.77 300.10Q259.84 300.10 259.14 299.68Q258.43 299.26 258.04 298.53Q257.64 297.80 257.64 296.85Q257.64 295.90 258.04 295.17Q258.44 294.44 259.14 294.02Q259.83 293.60 260.73 293.60Q261.69 293.60 262.38 294.06Q263.07 294.51 263.41 295.27Q263.74 296.04 263.62 296.99L258.73 296.99Q258.78 297.96 259.33 298.57Q259.88 299.18 260.77 299.18Q261.44 299.18 261.96 298.81Q262.47 298.45 262.59 297.94L263.57 298.19Q263.36 299.04 262.59 299.57Q261.83 300.10 260.77 300.10M258.81 296.14L262.53 296.14Q262.52 295.39 262.02 294.95Q261.52 294.51 260.73 294.51Q259.99 294.51 259.48 294.94Q258.97 295.38 258.81 296.14M267.02 300.10Q265.96 300.10 265.28 299.57Q264.61 299.04 264.41 298.24L265.38 297.93Q265.52 298.54 265.93 298.86Q266.33 299.19 267.02 299.19Q267.61 299.19 267.96 298.94Q268.32 298.69 268.32 298.20Q268.32 297.81 268.06 297.61Q267.79 297.40 267.38 297.27Q266.97 297.15 266.51 297.04Q266.06 296.93 265.64 296.74Q265.23 296.55 264.97 296.21Q264.71 295.88 264.71 295.30Q264.71 294.81 264.98 294.43Q265.24 294.05 265.73 293.82Q266.22 293.60 266.84 293.60Q267.77 293.60 268.43 294.02Q269.08 294.44 269.28 295.16L268.31 295.51Q268.16 294.96 267.78 294.74Q267.39 294.51 266.84 294.51Q266.38 294.51 266.07 294.70Q265.76 294.89 265.76 295.26Q265.76 295.61 266.02 295.79Q266.28 295.98 266.69 296.08Q267.11 296.19 267.58 296.30Q268.04 296.41 268.46 296.61Q268.87 296.81 269.13 297.18Q269.39 297.55 269.39 298.18Q269.39 298.74 269.08 299.18Q268.77 299.61 268.24 299.86Q267.71 300.10 267.02 300.10M272.73 300.10Q271.67 300.10 270.99 299.57Q270.32 299.04 270.12 298.24L271.09 297.93Q271.23 298.54 271.64 298.86Q272.04 299.19 272.73 299.19Q273.32 299.19 273.68 298.94Q274.03 298.69 274.03 298.20Q274.03 297.81 273.77 297.61Q273.51 297.40 273.09 297.27Q272.68 297.15 272.23 297.04Q271.77 296.93 271.36 296.74Q270.94 296.55 270.68 296.21Q270.42 295.88 270.42 295.30Q270.42 294.81 270.69 294.43Q270.96 294.05 271.44 293.82Q271.93 293.60 272.56 293.60Q273.48 293.60 274.14 294.02Q274.79 294.44 274.99 295.16L274.02 295.51Q273.87 294.96 273.49 294.74Q273.11 294.51 272.56 294.51Q272.09 294.51 271.78 294.70Q271.47 294.89 271.47 295.26Q271.47 295.61 271.73 295.79Q271.99 295.98 272.41 296.08Q272.82 296.19 273.29 296.30Q273.76 296.41 274.17 296.61Q274.58 296.81 274.84 297.18Q275.11 297.55 275.11 298.18Q275.11 298.74 274.79 299.18Q274.48 299.61 273.95 299.86Q273.42 300.10 272.73 300.10M281.81 302.38Q281.13 302.38 280.54 302.14Q279.94 301.91 279.54 301.51Q279.13 301.10 278.99 300.56L280.03 300.34Q280.18 300.89 280.68 301.18Q281.18 301.46 281.83 301.46Q282.71 301.46 283.28 301.01Q283.86 300.56 283.86 299.73L283.86 298.73Q283.58 299.18 282.99 299.45Q282.39 299.73 281.69 299.73Q280.84 299.73 280.19 299.34Q279.53 298.95 279.16 298.26Q278.78 297.57 278.78 296.66Q278.78 295.74 279.15 295.05Q279.52 294.36 280.19 293.98Q280.86 293.60 281.73 293.60Q282.42 293.60 283 293.86Q283.58 294.13 283.86 294.57L283.86 293.70L284.93 293.70L284.93 299.63Q284.93 300.49 284.52 301.10Q284.12 301.71 283.41 302.04Q282.71 302.38 281.81 302.38M281.86 298.79Q282.43 298.79 282.89 298.51Q283.34 298.24 283.61 297.76Q283.87 297.27 283.87 296.66Q283.87 296.02 283.61 295.54Q283.34 295.06 282.89 294.79Q282.43 294.52 281.86 294.52Q281.28 294.52 280.83 294.79Q280.38 295.06 280.12 295.54Q279.86 296.02 279.86 296.66Q279.86 297.29 280.12 297.77Q280.38 298.25 280.83 298.52Q281.28 298.79 281.86 298.79M287.66 300L286.59 300L286.59 293.70L287.66 293.70L287.66 294.81Q287.94 294.21 288.47 293.91Q289.01 293.60 289.62 293.60Q289.82 293.60 290.03 293.63Q290.24 293.66 290.39 293.74L290.32 294.75Q290.11 294.65 289.91 294.63Q289.71 294.61 289.51 294.61Q288.72 294.61 288.19 295.35Q287.66 296.09 287.66 297.48L287.66 300M293.24 300.10Q292.21 300.10 291.61 299.59Q291.02 299.09 291.02 298.30Q291.02 297.35 291.71 296.85Q292.39 296.35 293.89 296.20L295.24 296.06L295.24 295.84Q295.24 295.21 294.82 294.86Q294.41 294.51 293.72 294.51Q293.07 294.51 292.66 294.84Q292.24 295.18 292.14 295.84L291.13 295.66Q291.28 294.76 291.96 294.18Q292.64 293.60 293.72 293.60Q294.48 293.60 295.06 293.88Q295.64 294.16 295.98 294.69Q296.32 295.21 296.32 295.95L296.32 300L295.24 300L295.24 298.95Q295.12 299.25 294.82 299.51Q294.52 299.77 294.11 299.94Q293.69 300.10 293.24 300.10M295.24 297.19L295.24 296.89L293.96 297.04Q292.97 297.15 292.53 297.42Q292.09 297.69 292.09 298.26Q292.09 298.73 292.43 298.98Q292.77 299.24 293.33 299.24Q293.89 299.24 294.32 298.96Q294.76 298.68 295 298.21Q295.24 297.74 295.24 297.19M298.98 300L297.92 300L297.92 293.70L298.98 293.70L298.98 294.79Q299.27 294.30 299.85 293.95Q300.43 293.60 301.22 293.60Q301.88 293.60 302.41 293.87Q302.93 294.14 303.24 294.64Q303.54 295.15 303.54 295.88L303.54 300L302.48 300L302.48 296.11Q302.48 295.35 302.08 294.94Q301.68 294.54 301.01 294.54Q300.08 294.54 299.53 295.29Q298.98 296.04 298.98 297.30L298.98 300M307.41 300.10Q306.59 300.10 306.06 299.60Q305.53 299.10 305.53 298.14L305.53 294.59L304.47 294.59L304.47 293.70L305.53 293.70L305.53 292.10L306.61 292.10L306.61 293.70L308.21 293.70L308.21 294.59L306.61 294.59L306.61 298.05Q306.61 298.60 306.86 298.88Q307.11 299.15 307.53 299.15Q307.86 299.15 308.19 299.02L308.28 299.94Q308.11 300.02 307.86 300.06Q307.62 300.10 307.41 300.10M312.06 300.10Q311.13 300.10 310.42 299.68Q309.72 299.26 309.32 298.53Q308.93 297.80 308.93 296.85Q308.93 295.90 309.33 295.17Q309.73 294.44 310.42 294.02Q311.12 293.60 312.02 293.60Q312.98 293.60 313.67 294.06Q314.36 294.51 314.69 295.27Q315.03 296.04 314.91 296.99L310.02 296.99Q310.07 297.96 310.62 298.57Q311.17 299.18 312.06 299.18Q312.73 299.18 313.24 298.81Q313.76 298.45 313.88 297.94L314.86 298.19Q314.64 299.04 313.88 299.57Q313.12 300.10 312.06 300.10M310.09 296.14L313.82 296.14Q313.81 295.39 313.31 294.95Q312.81 294.51 312.02 294.51Q311.28 294.51 310.77 294.94Q310.26 295.38 310.09 296.14M318.98 300.10Q318.04 300.10 317.34 299.69Q316.63 299.29 316.24 298.56Q315.84 297.82 315.84 296.85Q315.84 295.88 316.24 295.14Q316.63 294.41 317.34 294.01Q318.04 293.60 318.98 293.60Q319.68 293.60 320.28 293.91Q320.88 294.21 321.16 294.73L321.16 291.15L322.23 291.15L322.23 300L321.16 300L321.16 298.96Q320.88 299.48 320.28 299.79Q319.68 300.10 318.98 300.10M319.04 299.18Q319.67 299.18 320.14 298.88Q320.62 298.57 320.89 298.05Q321.16 297.52 321.16 296.85Q321.16 296.16 320.89 295.64Q320.62 295.11 320.14 294.82Q319.67 294.52 319.04 294.52Q318.44 294.52 317.96 294.82Q317.48 295.11 317.21 295.64Q316.93 296.16 316.93 296.85Q316.93 297.54 317.21 298.06Q317.48 298.59 317.96 298.88Q318.44 299.18 319.04 299.18" fill="#686c62"/>
  
</svg>
